<?xml version="1.0" encoding="UTF-8" standalone="no"?>
<!-- Created with Inkscape (http://www.inkscape.org/) -->

<svg
   xmlns:dc="http://purl.org/dc/elements/1.1/"
   xmlns:cc="http://creativecommons.org/ns#"
   xmlns:rdf="http://www.w3.org/1999/02/22-rdf-syntax-ns#"
   xmlns:svg="http://www.w3.org/2000/svg"
   xmlns="http://www.w3.org/2000/svg"
   xmlns:sodipodi="http://sodipodi.sourceforge.net/DTD/sodipodi-0.dtd"
   xmlns:inkscape="http://www.inkscape.org/namespaces/inkscape"
   version="1.1"
   width="337.13763"
   height="155.35468"
   id="svg2"
   inkscape:version="0.48.4 r"
   sodipodi:docname="a_d.svg">
  <sodipodi:namedview
     pagecolor="#ffffff"
     bordercolor="#666666"
     borderopacity="1"
     objecttolerance="10"
     gridtolerance="10"
     guidetolerance="10"
     inkscape:pageopacity="0"
     inkscape:pageshadow="2"
     inkscape:window-width="1481"
     inkscape:window-height="867"
     id="namedview3038"
     showgrid="false"
     inkscape:zoom="1.8077475"
     inkscape:cx="167.80465"
     inkscape:cy="9.0132918"
     inkscape:window-x="0"
     inkscape:window-y="22"
     inkscape:window-maximized="0"
     inkscape:current-layer="svg2"
     fit-margin-top="2"
     fit-margin-left="2"
     fit-margin-bottom="2"
     fit-margin-right="2" />
  <defs
     id="defs4" />
  <metadata
     id="metadata7">
    <rdf:RDF>
      <cc:Work
         rdf:about="">
        <dc:format>image/svg+xml</dc:format>
        <dc:type
           rdf:resource="http://purl.org/dc/dcmitype/StillImage" />
        <dc:title />
      </cc:Work>
    </rdf:RDF>
  </metadata>
  <path
     inkscape:connector-curvature="0"
     id="path5820"
     style="font-size:206.45248412999998777px;font-style:normal;font-weight:bold;line-height:125%;letter-spacing:0px;word-spacing:0px;fill:#374837;fill-opacity:1;stroke:none;font-family:Topmarks;-inkscape-font-specification:Topmarks"
     d="m 280.70192,152.40385 c 25.70572,0 54.43571,-19.85899 54.43571,-59.173626 0,-31.854941 -20.36301,-48.689721 -40.72598,-48.689721 -12.50004,0 -22.37913,4.334706 -29.93964,14.415383 l 0,-56.955886 -24.39527,0 0,142.64172 c 14.01215,5.24196 27.41949,7.76213 40.62518,7.76213 m -0.90727,-18.75008 c -5.44356,0 -10.48392,-0.70565 -15.32264,-2.31855 l 0,-32.661426 c 0,-23.08475 12.29845,-35.383212 25.70575,-35.383212 11.7944,0 19.95976,13.508142 19.95976,30.342872 0,28.225886 -18.24605,40.020316 -30.34287,40.020316" />
  <path
     inkscape:connector-curvature="0"
     id="path5810"
     style="font-size:206.45248412999998777px;font-style:normal;font-weight:bold;line-height:125%;letter-spacing:0px;word-spacing:0px;opacity:0.50000000000000000;fill:#374837;fill-opacity:1;stroke:none;font-family:muli;-inkscape-font-specification:muli"
     d="m 172.59937,134.10055 c 5.91626,2e-5 9.34737,-1.64649 13.44337,-4.93954 4.09583,-3.29299 7.02149,-7.49328 8.77697,-12.60085 1.7553,-5.10751 2.63299,-10.9207 2.63308,-17.439586 -9e-5,-10.14783 -2.24309,-18.48119 -6.729,-25.000105 -4.48609,-6.585966 -9.31501,-9.878987 -17.6368,-9.879074 -8.71202,8.7e-5 -15.63606,3.326711 -20.77216,9.979881 -5.13619,6.586118 -7.70426,14.885878 -7.70423,24.899298 -3e-5,9.946316 2.43801,18.279676 7.31414,25.000096 4.94106,6.65328 11.8326,9.9799 20.67463,9.97988 m 3.9984,19.25412 c -6.95662,-1e-5 -13.23052,-1.54571 -18.82171,-4.63712 -5.5913,-3.15861 -9.6222,-6.95567 -12.09272,-11.39118 l 0,13.70974 -25.07776,0 c 0.5201,-16.53231 0.78016,-25.67213 0.78017,-27.41947 l 0,-120.060985 24.49264,0 0,59.07283 c 0.52007,-1.545615 1.49529,-3.225728 2.92565,-5.040344 1.43028,-1.814428 3.38072,-3.696155 5.85132,-5.645185 2.4705,-2.016036 5.72123,-3.662547 9.75217,-4.939537 4.09587,-1.343986 8.51685,-2.016031 13.26298,-2.016137 13.97805,1.06e-4 23.45552,4.97324 31.58243,14.919417 8.19172,9.879156 12.28763,22.748825 12.28775,38.609025 -1.2e-4,8.064596 -1.23539,15.557896 -3.70583,22.479936 -2.47066,6.85489 -5.81891,12.63448 -10.04475,17.33878 -4.16103,4.70433 -9.06962,8.40058 -14.72579,11.08876 -5.65636,2.62098 -10.09519,3.93146 -16.46655,3.93147"
     sodipodi:nodetypes="cscccccscccccccsccccccccccccc" />
  <path
     d="m 161.8436,152.40385 c 25.70572,0 54.43571,-19.85899 54.43571,-59.173626 0,-31.854941 -20.36301,-48.689721 -40.72598,-48.689721 -12.50004,0 -22.37913,4.334706 -29.93964,14.415383 l 0,-56.955886 -24.39527,0 0,142.64172 c 14.01215,5.24196 27.41949,7.76213 40.62518,7.76213 m -0.90727,-18.75008 c -5.44356,0 -10.48392,-0.70565 -15.32264,-2.31855 l 0,-32.661426 c 0,-23.08475 12.29845,-35.383212 25.70575,-35.383212 11.7944,0 19.95976,13.508142 19.95976,30.342872 0,28.225886 -18.24605,40.020316 -30.34287,40.020316"
     style="font-size:206.45248412999998777px;font-style:normal;font-weight:bold;line-height:125%;letter-spacing:0px;word-spacing:0px;opacity:0.50000000000000000;fill:#374837;fill-opacity:1;stroke:none;font-family:Topmarks;-inkscape-font-specification:Topmarks"
     id="path5825"
     inkscape:connector-curvature="0" />
  <path
     sodipodi:nodetypes="cscccccscccccccsccccccccccccc"
     d="m 53.99379,134.10055 c 5.916268,2e-5 9.347398,-1.64649 13.443398,-4.93954 4.09583,-3.29299 7.02149,-7.49328 8.77697,-12.60085 1.7553,-5.10751 2.63299,-10.9207 2.63308,-17.439586 -9e-5,-10.14783 -2.24309,-18.48119 -6.729,-25.000105 -4.48609,-6.585966 -9.31501,-9.878987 -17.636828,-9.879074 -8.71202,8.7e-5 -15.63606,3.326711 -20.77216,9.979881 -5.13619,6.586118 -7.70426,14.885878 -7.70423,24.899298 -3e-5,9.946316 2.43801,18.279676 7.31414,25.000096 4.94106,6.65328 11.8326,9.9799 20.67463,9.97988 m 3.9984,19.25412 c -6.95662,-1e-5 -13.23052,-1.54571 -18.82171,-4.63712 -5.5913,-3.15861 -9.6222,-6.95567 -12.09272,-11.39118 l 0,13.70974 -25.07776,0 C 2.5201,134.5038 2.78016,125.36398 2.78017,123.61664 l 0,-120.060985 24.49264,0 0,59.07283 c 0.52007,-1.545615 1.49529,-3.225728 2.92565,-5.040344 1.43028,-1.814428 3.38072,-3.696155 5.85132,-5.645185 2.4705,-2.016036 5.72123,-3.662547 9.75217,-4.939537 4.09587,-1.343986 8.51685,-2.016031 13.262983,-2.016137 13.978075,1.06e-4 23.455544,4.97324 31.582454,14.919417 8.19172,9.879156 12.287633,22.748825 12.287753,38.609025 -1.2e-4,8.064596 -1.23539,15.557896 -3.705833,22.479936 -2.47066,6.85489 -5.81891,12.63448 -10.04475,17.33878 -4.16103,4.70433 -9.069619,8.40058 -14.725789,11.08876 -5.65636,2.62098 -10.09519,3.93146 -16.466578,3.93147"
     style="font-size:206.45248412999998777px;font-style:normal;font-weight:bold;line-height:125%;letter-spacing:0px;word-spacing:0px;fill:#374837;fill-opacity:1;stroke:none;font-family:muli;-inkscape-font-specification:muli"
     id="path5827"
     inkscape:connector-curvature="0" />
  <path
     inkscape:connector-curvature="0"
     id="path5816"
     style="font-size:206.45248413px;font-style:normal;font-weight:bold;line-height:125%;letter-spacing:0px;word-spacing:0px;opacity:0.8;fill:#808000;fill-opacity:1;stroke:none;font-family:Topmarks;-inkscape-font-specification:Topmarks"
     d="m 90.09212,375.57357 c 12.29843,0 23.58881,-6.85488 28.83076,-17.43959 5.44357,15.92747 18.14525,16.83475 32.96385,16.83475 l 3.22582,-19.35492 c -15.42344,0 -16.02829,-7.76214 -16.02829,-18.85089 l 0,-61.79461 c -4.4355,-1.81453 -18.14526,-7.66133 -33.87111,-7.15729 -33.367042,1.00807 -56.855081,25.60498 -56.855081,62.09704 0,26.31057 17.842845,45.66551 41.734051,45.66551 m 1.713717,-18.75008 c -10.786325,0 -18.447659,-12.50006 -18.447659,-27.82269 0,-22.68153 11.794421,-41.12922 28.125122,-42.4397 7.5605,-0.60484 13.20569,1.20968 13.20569,1.20968 l 0,42.33889 c 0,14.41537 -8.56859,26.71382 -22.883153,26.71382" />
  <path
     inkscape:connector-curvature="0"
     id="path5818"
     style="font-size:206.45248413px;font-style:normal;font-weight:bold;line-height:125%;letter-spacing:0px;word-spacing:0px;opacity:0.8;fill:#808000;fill-opacity:1;stroke:none;font-family:Topmarks;-inkscape-font-specification:Topmarks"
     d="m 168.11664,414.68664 c 27.11702,0 40.32275,-13.81057 40.32275,-40.22194 l 0,-88.00441 23.18558,0 0,-16.53233 -23.18558,0 0,-5.54438 c 0,-16.93553 6.14924,-20.26218 28.22592,-20.26218 l 0,-18.95169 -5.14115,0 c -27.52025,0 -47.48004,6.45167 -47.48004,35.68563 l 0,9.07262 -18.75007,0 0,16.53233 18.75007,0 0,88.81086 c 0,13.70972 -4.93955,19.55654 -18.04443,19.55654 l 2.11695,19.85895" />
  <path
     inkscape:connector-curvature="0"
     id="path5806"
     style="font-size:206.45248413px;font-style:normal;font-weight:bold;line-height:125%;letter-spacing:0px;word-spacing:0px;opacity:0.8;fill:#1a1a1a;fill-opacity:1;stroke:none;font-family:muli;-inkscape-font-specification:muli"
     d="m 88.30031,287.4111 c -9.166528,9e-5 -11.886864,3.1587 -16.661026,9.47585 -4.710586,6.3173 -7.065859,14.78507 -7.065827,25.40334 -3.2e-5,10.48395 2.387069,18.95172 7.161311,25.40333 4.774163,6.38445 7.589981,9.57667 16.947479,9.57665 9.230063,2e-5 16.041253,-3.15859 20.433603,-9.47584 4.39219,-6.38441 6.58832,-14.88578 6.5884,-25.50414 -8e-5,-10.68547 -2.2917,-19.15324 -6.87485,-25.40334 -4.58332,-6.31715 -11.426338,-9.47576 -20.52909,-9.47585 m 26.64007,-4.23389 0,-12.39924 23.75684,0 0,103.42786 -24.23426,0 0,-14.81861 c -2.16439,3.56185 -4.96526,6.82127 -8.4026,9.77826 -5.60181,4.83873 -12.381175,7.2917 -20.338122,7.35891 -6.302004,-10e-6 -7.844703,-0.97447 -13.128113,-2.9234 -5.283491,-2.01614 -9.771241,-4.70432 -13.463266,-8.06455 -3.69207,-3.42743 -6.84305,-7.39249 -9.45293,-11.89522 -2.60991,-4.56988 -4.51959,-9.37501 -5.72905,-14.41538 -1.20947,-5.10751 -1.81421,-10.38306 -1.8142,-15.82668 -10e-6,-7.25804 1.01849,-14.1465 3.0555,-20.66541 2.10063,-6.51877 5.12429,-12.36556 9.07099,-17.5404 3.94665,-5.24186 9.039135,-9.37494 15.277464,-12.39924 6.301909,-3.09131 9.117729,-4.63701 16.947478,-4.63712 8.084258,1.1e-4 14.831799,2.08345 20.242639,6.25003 3.18272,2.41946 5.91992,5.34285 8.21163,8.77019"
     sodipodi:nodetypes="ccscsccccccccccccccccscccccc" />
  <path
     inkscape:connector-curvature="0"
     id="path5808"
     style="font-size:206.45248413px;font-style:normal;font-weight:bold;line-height:125%;letter-spacing:0px;word-spacing:0px;opacity:0.8;fill:#1a1a1a;fill-opacity:1;stroke:none;font-family:muli;-inkscape-font-specification:muli"
     d="m 184.5974,374.20583 0,-87.50038 -19.0525,0 0,-15.92748 19.0525,0 0,-4.73793 c -3e-5,-4.56979 0.10078,-8.36685 0.30242,-11.39117 0.20158,-3.09129 0.63841,-6.2163 1.31049,-9.37504 0.67201,-3.15849 1.61288,-5.71226 2.82259,-7.66132 1.27685,-2.016 2.95697,-3.93133 5.04034,-5.746 2.08331,-1.81438 4.63708,-3.19207 7.66132,-4.13308 3.09137,-0.94071 6.72041,-1.67996 10.88715,-2.21775 4.23383,-0.60469 9.17336,-0.90711 14.81861,-0.90726 l 5.24196,0 -0.80646,18.44766 c -3.83073,1.3e-4 -6.92214,0.10093 -9.27423,0.30242 -2.35222,0.13454 -4.50277,0.53776 -6.45164,1.20968 -1.88179,0.67217 -3.29308,1.44503 -4.23389,2.31856 -0.94092,0.80658 -1.71377,2.15067 -2.31856,4.03227 -0.60489,1.88185 -0.97452,3.86439 -1.10887,5.94761 -0.13446,2.08346 -0.20167,4.93965 -0.20162,8.56858 l 0,5.34277 23.58881,0 0,15.92748 -23.58881,0 0,87.50038 -23.68961,0" />
</svg>
