<?xml version="1.0" encoding="UTF-8" standalone="no"?>
<!-- Created with Inkscape (http://www.inkscape.org/) -->

<svg
   xmlns:dc="http://purl.org/dc/elements/1.1/"
   xmlns:cc="http://creativecommons.org/ns#"
   xmlns:rdf="http://www.w3.org/1999/02/22-rdf-syntax-ns#"
   xmlns:svg="http://www.w3.org/2000/svg"
   xmlns="http://www.w3.org/2000/svg"
   version="1.1"
   width="560.1142"
   height="128.59492"
   id="svg2">
  <defs
     id="defs4" />
  <metadata
     id="metadata7">
    <rdf:RDF>
      <cc:Work
         rdf:about="">
        <dc:format>image/svg+xml</dc:format>
        <dc:type
           rdf:resource="http://purl.org/dc/dcmitype/StillImage" />
        <dc:title></dc:title>
      </cc:Work>
    </rdf:RDF>
  </metadata>
  <g
     transform="translate(-42.801898,-643.77505)"
     id="layer1">
    <path
       d="m 77.26036,687.10063 c -5.70978,6e-5 -10.05156,2.0282 -13.02536,6.08444 -2.9342,4.05633 -4.401278,9.49348 -4.401258,16.31147 -2e-5,6.73174 1.486888,12.16889 4.460738,16.31146 2.97379,4.09946 7.37506,6.14918 13.20378,6.14917 5.74936,10e-6 9.99201,-2.02813 12.72797,-6.08444 2.73587,-4.09942 4.10383,-9.55815 4.10388,-16.37619 -5e-5,-6.86114 -1.42748,-12.29829 -4.2823,-16.31147 -2.85493,-4.05624 -7.11741,-6.08438 -12.78745,-6.08444 m 16.59394,-2.71858 0,-7.96155 13.73907,0 0,66.41098 -14.03646,0 0,-9.51502 c -1.34818,2.28706 -3.09282,4.37993 -5.23392,6.27862 -3.48934,3.10695 -7.71217,4.68199 -12.6685,4.72515 -3.92549,0 -7.53372,-0.62571 -10.82473,-1.87712 -3.29105,-1.29456 -6.086434,-3.02064 -8.386174,-5.17824 -2.29977,-2.20075 -4.2625,-4.74671 -5.88818,-7.63791 -1.625694,-2.93432 -2.81522,-6.01969 -3.568575,-9.25611 -0.753376,-3.27953 -1.13006,-6.66696 -1.130054,-10.16231 -6e-6,-4.66038 0.634409,-9.08346 1.903249,-13.26925 1.308464,-4.18569 3.19188,-7.93992 5.65026,-11.26268 2.45835,-3.3658 5.630418,-6.01964 9.516234,-7.96155 3.92542,-1.98492 8.32668,-2.97742 13.20378,-2.97749 5.03564,7e-5 9.23864,1.33778 12.60902,4.01314 1.9825,1.55354 3.68749,3.43065 5.11498,5.63134"
       id="path4127"
       style="font-size:132.56304932px;font-style:normal;font-weight:bold;line-height:125%;letter-spacing:0px;word-spacing:0px;opacity:0.5;fill:#666666;fill-opacity:1;stroke:none;font-family:Muli;-inkscape-font-specification:Muli Bold" />
    <path
       d="m 189.64771,731.95717 c 3.71378,10e-6 6.85624,-1.05721 9.4274,-3.17168 2.57105,-2.11443 4.40756,-4.81143 5.50951,-8.091 1.10186,-3.27953 1.6528,-7.01218 1.65286,-11.19795 -6e-5,-6.51592 -1.40804,-11.86677 -4.22396,-16.05256 -2.81603,-4.22885 -6.83593,-6.34329 -12.05972,-6.34335 -5.46875,6e-5 -9.81514,2.13608 -13.0392,6.40808 -3.22411,4.22894 -4.83616,9.55821 -4.83613,15.98783 -3e-5,6.38652 1.53039,11.73737 4.59126,16.05255 3.10162,4.27207 7.42762,6.40809 12.97798,6.40808 m 2.50989,12.36306 c -4.36684,0 -8.30513,-0.9925 -11.81485,-2.97749 -3.5098,-2.02815 -6.04009,-4.46623 -7.59089,-7.31427 l 0,8.80301 -14.75327,0 c 0.32647,-10.61539 0.48972,-16.48406 0.48973,-17.60603 l 0,-77.09111 14.38596,0 0,37.93064 c 0.32647,-0.99244 0.93864,-2.07124 1.83651,-3.2364 0.89782,-1.16505 2.12216,-2.3733 3.67302,-3.62477 1.55079,-1.2945 3.59135,-2.35172 6.12168,-3.17168 2.57107,-0.86297 5.34624,-1.29449 8.3255,-1.29456 8.77436,7e-5 15.71227,3.19332 20.81374,9.57975 5.14214,6.3434 7.71324,14.60701 7.71332,24.79085 -8e-5,5.17827 -0.77548,9.98972 -2.32624,14.43435 -1.5509,4.40152 -3.65267,8.1126 -6.30534,11.13323 -2.61198,3.02064 -5.69323,5.394 -9.24375,7.12008 -3.55062,1.68293 -7.32566,2.5244 -11.32512,2.5244"
       id="path4129"
       style="font-size:132.56304932px;font-style:normal;font-weight:bold;line-height:125%;letter-spacing:0px;word-spacing:0px;opacity:0.5;fill:#666666;fill-opacity:1;stroke:none;font-family:Muli;-inkscape-font-specification:Muli Bold" />
    <path
       d="m 288.83737,744.32023 c -5.35089,0 -10.22706,-0.92777 -14.62854,-2.78331 -4.40153,-1.85553 -8.04787,-4.37992 -10.93904,-7.57318 -2.84804,-3.19324 -5.0488,-6.86116 -6.60226,-11.00377 -1.55348,-4.18572 -2.33022,-8.6088 -2.33021,-13.26925 -1e-5,-6.64537 1.35928,-12.60035 4.07787,-17.86494 2.76172,-5.26449 6.77485,-9.42866 12.03942,-12.49252 5.26452,-3.06372 11.37052,-4.59562 18.31803,-4.59569 10.14068,7e-5 17.99434,2.91283 23.56102,8.73829 l -5.43716,9.90339 c -4.74678,-4.18569 -10.29181,-6.27856 -16.63511,-6.27862 -6.34339,6e-5 -11.28429,2.0282 -14.82272,6.08444 -3.49534,4.01318 -5.243,9.51506 -5.24298,16.50565 -2e-5,6.73174 1.81237,12.12574 5.43716,16.18201 3.66789,4.05631 8.65195,6.08445 14.95218,6.08444 2.63223,10e-6 5.19977,-0.40993 7.70264,-1.22983 2.50276,-0.86303 4.29357,-1.63977 5.37243,-2.33021 1.07874,-0.69042 2.35172,-1.57504 3.81895,-2.65385 l 4.66042,11.19795 c -6.94753,4.91933 -14.71489,7.379 -23.3021,7.379"
       id="path4131"
       style="font-size:132.56304932px;font-style:normal;font-weight:bold;line-height:125%;letter-spacing:0px;word-spacing:0px;opacity:0.5;fill:#666666;fill-opacity:1;stroke:none;font-family:Muli;-inkscape-font-specification:Muli Bold" />
    <path
       d="m 372.00936,730.20951 c 2.28702,1.16512 4.91929,1.74767 7.89682,1.74766 2.97745,10e-6 5.58814,-0.58254 7.8321,-1.74766 2.287,-1.20824 4.09939,-2.84802 5.43715,-4.91933 1.38081,-2.11443 2.39488,-4.48779 3.04222,-7.12009 0.69038,-2.67539 1.03559,-5.56658 1.03565,-8.67355 -6e-5,-6.60223 -1.46723,-11.97465 -4.40151,-16.11729 -2.93439,-4.18569 -7.24959,-6.27856 -12.94561,-6.27862 -5.6961,6e-5 -10.0113,2.09293 -12.94561,6.27862 -2.93436,4.14264 -4.40153,9.51506 -4.40151,16.11729 -2e-5,3.10697 0.32362,5.99816 0.97092,8.67355 0.69041,2.6323 1.70448,5.00566 3.04222,7.12009 1.38084,2.07131 3.19322,3.71109 5.43716,4.91933 m 4.91933,14.11072 c -8.67359,0 -15.90154,-3.1501 -21.6839,-9.4503 -5.78238,-6.30018 -8.67356,-14.60694 -8.67355,-24.9203 -10e-6,-4.83299 0.66884,-9.34237 2.00656,-13.52816 1.38086,-4.22885 3.34428,-7.9615 5.89026,-11.19795 2.54595,-3.23635 5.84708,-5.78231 9.90339,-7.63791 4.05626,-1.89863 8.6088,-2.84797 13.65762,-2.84804 4.66037,7e-5 8.63036,0.99257 11.90996,2.97749 3.32265,1.94191 5.60971,4.0132 6.86117,6.2139 l 0,-35.79462 15.2111,0 0,77.09111 c -8e-5,1.12197 0.17253,6.99064 0.51782,17.60603 l -15.59946,0 -0.12946,-8.9972 c -1.0357,2.54598 -3.25803,4.94091 -6.66699,7.18482 -3.3659,2.20075 -7.76741,3.30113 -13.20452,3.30113"
       id="path4133"
       style="font-size:132.56304932px;font-style:normal;font-weight:bold;line-height:125%;letter-spacing:0px;word-spacing:0px;opacity:0.5;fill:#666666;fill-opacity:1;stroke:none;font-family:Muli;-inkscape-font-specification:Muli Bold" />
    <path
       d="m 471.32379,701.92335 33.65859,0 c -0.64734,-4.96243 -2.35184,-8.75981 -5.11352,-11.39213 -2.76178,-2.63222 -6.21394,-3.94836 -10.35649,-3.94841 -4.74676,5e-5 -8.71674,1.35934 -11.90996,4.07786 -3.19328,2.71863 -5.28615,6.47285 -6.27862,11.26268 m 19.41841,42.39688 c -11.04695,0 -19.76365,-3.17168 -26.15013,-9.51503 -6.38651,-6.38648 -9.57976,-14.75797 -9.57975,-25.11448 -10e-6,-6.34331 1.31613,-12.12568 3.94841,-17.34712 2.63226,-5.26449 6.53752,-9.51496 11.71578,-12.75142 5.22137,-3.23634 11.24107,-4.85454 18.05912,-4.85461 5.13505,7e-5 9.62286,0.90626 13.46344,2.71858 3.88362,1.7693 6.96899,4.25054 9.25611,7.44373 2.33014,3.15015 4.05622,6.77492 5.17824,10.87431 1.12189,4.05633 1.68286,8.54414 1.68293,13.46343 -7e-5,1.07884 -0.10795,2.04976 -0.32364,2.91277 l -46.92783,0 c 0.25889,6.64543 2.26545,11.60791 6.01971,14.88745 3.75419,3.27956 8.73824,4.91934 14.95218,4.91933 7.37894,10e-6 14.34799,-2.39493 20.90716,-7.18481 l 4.20732,11.13322 c -7.76743,5.60977 -16.57043,8.41465 -26.40905,8.41465"
       id="path4135"
       style="font-size:132.56304932px;font-style:normal;font-weight:bold;line-height:125%;letter-spacing:0px;word-spacing:0px;opacity:0.5;fill:#666666;fill-opacity:1;stroke:none;font-family:Muli;-inkscape-font-specification:Muli Bold" />
    <path
       d="m 566.57024,742.83148 0,-56.18395 -12.23361,0 0,-10.22703 12.23361,0 0,-3.04222 c -2e-5,-2.93426 0.0647,-5.37235 0.19418,-7.31427 0.12944,-1.98491 0.40993,-3.99148 0.84146,-6.01971 0.43151,-2.02806 1.03563,-3.66783 1.81239,-4.91933 0.81987,-1.29447 1.89867,-2.5243 3.2364,-3.6895 1.33769,-1.16501 2.97747,-2.04962 4.91933,-2.65385 1.98497,-0.60403 4.31518,-1.0787 6.99063,-1.42401 2.71855,-0.38828 5.89022,-0.58246 9.51503,-0.58256 l 3.36586,0 -0.51783,11.84524 c -2.45971,8e-5 -4.4447,0.0648 -5.95498,0.19418 -1.51036,0.0864 -2.89122,0.3453 -4.14259,0.77674 -1.2083,0.4316 -2.11449,0.92785 -2.71858,1.48874 -0.60416,0.51791 -1.10041,1.38095 -1.48875,2.58913 -0.3884,1.20833 -0.62573,2.48131 -0.71201,3.81895 -0.0863,1.33779 -0.12948,3.17175 -0.12945,5.50188 l 0,3.43059 15.14636,0 0,10.22703 -15.14636,0 0,56.18395 -15.21109,0"
       id="path4137"
       style="font-size:132.56304932px;font-style:normal;font-weight:bold;line-height:125%;letter-spacing:0px;word-spacing:0px;opacity:0.5;fill:#666666;fill-opacity:1;stroke:none;font-family:Muli;-inkscape-font-specification:Muli Bold" />
    <path
       d="m 74.25677,744.2555 c 8.38525,0 16.0832,-4.40152 19.65724,-11.19795 3.7115,10.22702 12.3717,10.80958 22.47523,10.80958 l 2.19941,-12.42779 c -10.51592,0 -10.92832,-4.98406 -10.92832,-12.10414 l 0,-39.6783 c -3.02419,-1.1651 -12.3717,-4.91933 -23.09382,-4.59569 -22.75013,0.64728 -38.764612,16.44095 -38.764612,39.87248 0,16.89401 12.165508,29.32181 28.454872,29.32181 m 1.16844,-12.03942 c -7.35427,0 -12.57788,-8.02629 -12.57788,-17.86494 0,-14.5638 8.04161,-26.40905 19.17611,-27.25051 5.15486,-0.38837 9.00384,0.77674 9.00384,0.77674 l 0,27.18578 c 0,9.2561 -5.8422,17.15293 -15.60207,17.15293"
       id="path4114"
       style="font-size:132.56304932px;font-style:normal;font-weight:bold;line-height:125%;letter-spacing:0px;word-spacing:0px;opacity:0.5;fill:#666666;fill-opacity:1;stroke:none;font-family:Topmarks;-inkscape-font-specification:Topmarks Bold" />
    <path
       d="m 184.78544,744.2555 c 16.50564,0 34.95315,-12.75145 34.95315,-37.99537 0,-20.45404 -13.07508,-31.26365 -26.15013,-31.26365 -8.02627,0 -14.36963,2.78332 -19.22423,9.25612 l 0,-36.57135 -15.66419,0 0,91.59019 c 8.99719,3.36585 17.60604,4.98406 26.0854,4.98406 m -0.58255,-12.03942 c -3.49531,0 -6.73172,-0.4531 -9.83866,-1.48874 l 0,-20.97189 c 0,-14.82271 7.89683,-22.71955 16.50565,-22.71955 7.57318,0 12.81615,8.67357 12.81615,19.48315 0,18.12383 -11.71578,25.69703 -19.48314,25.69703"
       id="path4116"
       style="font-size:132.56304932px;font-style:normal;font-weight:bold;line-height:125%;letter-spacing:0px;word-spacing:0px;opacity:0.5;fill:#666666;fill-opacity:1;stroke:none;font-family:Topmarks;-inkscape-font-specification:Topmarks Bold" />
    <path
       d="m 289.003,744.2555 c 7.7145,0 15.83865,-1.74766 23.62142,-6.66699 l -5.39332,-10.03285 c -5.59815,3.43059 -11.33283,4.66042 -16.45308,4.66042 -10.99147,0 -19.5935,-8.02629 -19.5935,-23.04318 0,-13.13979 7.85106,-22.137 19.66177,-22.137 4.43755,0 9.48954,1.35929 14.88286,4.1426 l 4.84717,-10.48595 c -6.62218,-4.07786 -13.85882,-5.69607 -20.75408,-5.69607 -18.63771,0 -35.56869,13.26928 -35.56869,34.24114 0,21.42497 15.90693,35.01788 34.74945,35.01788"
       id="path4118"
       style="font-size:132.56304932px;font-style:normal;font-weight:bold;line-height:125%;letter-spacing:0px;word-spacing:0px;opacity:0.5;fill:#666666;fill-opacity:1;stroke:none;font-family:Topmarks;-inkscape-font-specification:Topmarks Bold" />
    <path
       d="m 364.2453,713.31549 c 0,-18.12384 10.52706,-26.27959 20.85168,-26.27959 3.30657,0 6.61315,0.64728 9.58231,1.48875 l 0,22.07226 c 0,14.82271 -8.16522,21.61917 -16.39792,21.61917 -7.22046,0 -14.03607,-7.1201 -14.03607,-18.90059 m 33.2682,19.80678 c 3.37406,8.15573 7.82782,10.74486 22.06633,10.74486 l 2.1594,-12.42779 c -8.36765,0 -10.7295,-2.65385 -10.7295,-12.2336 l 0,-71.52449 -16.33044,0 0,28.99816 c -3.91389,-1.10037 -7.76033,-1.68293 -11.60676,-1.68293 -17.20766,0 -35.56255,13.39874 -35.56255,38.70738 0,21.03659 15.11579,30.55164 28.27459,30.55164 8.5701,0 17.14021,-4.07788 21.72893,-11.13323"
       id="path4120"
       style="font-size:132.56304932px;font-style:normal;font-weight:bold;line-height:125%;letter-spacing:0px;word-spacing:0px;opacity:0.5;fill:#666666;fill-opacity:1;stroke:none;font-family:Topmarks;-inkscape-font-specification:Topmarks Bold" />
    <path
       d="m 487.65419,744.2555 c 8.58883,0 19.01817,-2.5244 26.58454,-8.80302 l -5.99856,-10.29176 c -7.4982,5.89025 -14.11028,7.05536 -19.768,7.05536 -7.2937,0 -14.72375,-5.89026 -16.42789,-12.62197 29.03847,-4.27205 40.21764,-13.39872 40.21764,-25.30867 0,-9.51501 -8.38436,-19.28896 -23.72159,-19.28896 -19.29081,0 -34.35541,15.01693 -34.35541,34.56478 0,22.07225 15.95074,34.69424 33.46927,34.69424 m -17.10955,-35.27679 0,-0.97092 c 0,-9.83865 6.81656,-21.29553 17.24587,-21.29553 5.3169,0 8.52069,2.84804 8.52069,7.05536 0,7.37899 -5.86225,11.0685 -25.76656,15.21109"
       id="path4122"
       style="font-size:132.56304932px;font-style:normal;font-weight:bold;line-height:125%;letter-spacing:0px;word-spacing:0px;opacity:0.5;fill:#666666;fill-opacity:1;stroke:none;font-family:Topmarks;-inkscape-font-specification:Topmarks Bold" />
    <path
       d="m 555.90103,769.36998 c 17.41182,0 25.89122,-8.86776 25.89122,-25.82649 l 0,-56.50759 14.88745,0 0,-10.6154 -14.88745,0 0,-3.56004 c 0,-10.8743 3.94842,-13.01034 18.12385,-13.01034 l 0,-12.16887 -3.30113,0 c -17.67074,0 -30.48691,4.14261 -30.48691,22.91373 l 0,5.82552 -12.03942,0 0,10.6154 12.03942,0 0,57.02541 c 0,8.80301 -3.17168,12.55725 -11.58632,12.55725 l 1.35929,12.75142"
       id="path4124"
       style="font-size:132.56304932px;font-style:normal;font-weight:bold;line-height:125%;letter-spacing:0px;word-spacing:0px;opacity:0.5;fill:#666666;fill-opacity:1;stroke:none;font-family:Topmarks;-inkscape-font-specification:Topmarks Bold" />
  </g>
</svg>
