<?xml version="1.0" encoding="UTF-8" standalone="no"?>
<!-- Created with Inkscape (http://www.inkscape.org/) -->

<svg
   xmlns:dc="http://purl.org/dc/elements/1.1/"
   xmlns:cc="http://creativecommons.org/ns#"
   xmlns:rdf="http://www.w3.org/1999/02/22-rdf-syntax-ns#"
   xmlns:svg="http://www.w3.org/2000/svg"
   xmlns="http://www.w3.org/2000/svg"
   xmlns:xlink="http://www.w3.org/1999/xlink"
   xmlns:sodipodi="http://sodipodi.sourceforge.net/DTD/sodipodi-0.dtd"
   xmlns:inkscape="http://www.inkscape.org/namespaces/inkscape"
   version="1.1"
   width="233.3421"
   height="235.8602"
   viewBox="0 0 233.34211 235.86019"
   id="svg2985"
   style="overflow:visible"
   inkscape:version="0.48.4 r"
   sodipodi:docname="ball.svg">
  <sodipodi:namedview
     pagecolor="#ffffff"
     bordercolor="#666666"
     borderopacity="1"
     objecttolerance="10"
     gridtolerance="10"
     guidetolerance="10"
     inkscape:pageopacity="0"
     inkscape:pageshadow="2"
     inkscape:window-width="1364"
     inkscape:window-height="909"
     id="namedview3582"
     showgrid="false"
     inkscape:zoom="1"
     inkscape:cx="126.3587"
     inkscape:cy="95.652174"
     inkscape:window-x="94"
     inkscape:window-y="24"
     inkscape:window-maximized="0"
     inkscape:current-layer="svg2985" />
  <defs
     id="defs3078">
    <linearGradient
       inkscape:collect="always"
       id="linearGradient3936">
      <stop
         style="stop-color:#134f13;stop-opacity:1;"
         offset="0"
         id="stop3938" />
      <stop
         style="stop-color:#134f13;stop-opacity:0;"
         offset="1"
         id="stop3940" />
    </linearGradient>
    <linearGradient
       id="linearGradient3910">
      <stop
         style="stop-color:#d1f5bc;stop-opacity:1;"
         offset="0"
         id="stop3912" />
      <stop
         style="stop-color:#9ce970;stop-opacity:0;"
         offset="1"
         id="stop3915" />
    </linearGradient>
    <linearGradient
       inkscape:collect="always"
       id="linearGradient3892">
      <stop
         style="stop-color:#008000;stop-opacity:1;"
         offset="0"
         id="stop3894" />
      <stop
         style="stop-color:#008000;stop-opacity:0;"
         offset="1"
         id="stop3896" />
    </linearGradient>
    <linearGradient
       id="linearGradient3878">
      <stop
         style="stop-color:#343732;stop-opacity:1;"
         offset="0"
         id="stop3880" />
      <stop
         style="stop-color:#ebebeb;stop-opacity:0;"
         offset="1"
         id="stop3882" />
    </linearGradient>
    <linearGradient
       id="linearGradient4407">
      <stop
         style="stop-color:#5a932e;stop-opacity:1;"
         offset="0"
         id="stop4409" />
      <stop
         style="stop-color:#008000;stop-opacity:0;"
         offset="1"
         id="stop4411" />
    </linearGradient>
    <linearGradient
       id="linearGradient3920">
      <stop
         id="stop3922"
         style="stop-color:#f76605;stop-opacity:1"
         offset="0" />
      <stop
         id="stop3924"
         style="stop-color:#f76605;stop-opacity:0"
         offset="1" />
    </linearGradient>
    <linearGradient
       id="linearGradient3912">
      <stop
         id="stop3914"
         style="stop-color:#f76605;stop-opacity:1"
         offset="0" />
      <stop
         id="stop3916"
         style="stop-color:#f76605;stop-opacity:0"
         offset="1" />
    </linearGradient>
    <linearGradient
       x1="266.47787"
       y1="211.67976"
       x2="229.98468"
       y2="1.0003659"
       id="linearGradient3926"
       xlink:href="#linearGradient3920"
       gradientUnits="userSpaceOnUse" />
    <linearGradient
       x1="181.08247"
       y1="130.10081"
       x2="215.93491"
       y2="39.449913"
       id="linearGradient3928"
       xlink:href="#linearGradient3912"
       gradientUnits="userSpaceOnUse"
       gradientTransform="matrix(1,0,0,0.86093174,-54.558414,-74.851056)" />
    <radialGradient
       inkscape:collect="always"
       xlink:href="#linearGradient3878"
       id="radialGradient3884"
       cx="105.76555"
       cy="119.15379"
       fx="105.76555"
       fy="119.15379"
       r="80.952019"
       gradientTransform="matrix(0.97108935,-0.00560264,0.0096149,0.92993436,2.0837497,8.2171544)"
       gradientUnits="userSpaceOnUse" />
    <linearGradient
       inkscape:collect="always"
       xlink:href="#linearGradient3892"
       id="linearGradient3898"
       x1="47.971565"
       y1="198.88211"
       x2="80.443573"
       y2="99.863396"
       gradientUnits="userSpaceOnUse"
       gradientTransform="matrix(1.0688563,0,0,0.81858239,-19.130587,23.998262)" />
    <linearGradient
       inkscape:collect="always"
       xlink:href="#linearGradient3910"
       id="linearGradient3917"
       x1="185.47304"
       y1="57.965633"
       x2="102.72456"
       y2="88.495789"
       gradientUnits="userSpaceOnUse"
       gradientTransform="matrix(1.0688563,0,0,0.81858239,-19.130587,23.998262)" />
    <linearGradient
       inkscape:collect="always"
       xlink:href="#linearGradient3936"
       id="linearGradient3942"
       x1="257.69986"
       y1="77.366524"
       x2="284.64536"
       y2="62.904057"
       gradientUnits="userSpaceOnUse"
       gradientTransform="matrix(0.98232796,-0.18142937,0.18716776,0.95221067,-150.18826,45.489317)" />
    <linearGradient
       id="linearGradient4110">
      <stop
         style="stop-color:#6e6e6e;stop-opacity:1;"
         offset="0"
         id="stop4112" />
      <stop
         style="stop-color:#280b0b;stop-opacity:1;"
         offset="1"
         id="stop4114" />
    </linearGradient>
    <linearGradient
       id="linearGradient4337">
      <stop
         style="stop-color:#6e6e6e;stop-opacity:1;"
         offset="0"
         id="stop4339" />
      <stop
         style="stop-color:#280b0b;stop-opacity:1;"
         offset="1"
         id="stop4341" />
    </linearGradient>
    <linearGradient
       id="linearGradient4344">
      <stop
         style="stop-color:#6e6e6e;stop-opacity:1;"
         offset="0"
         id="stop4346" />
      <stop
         style="stop-color:#280b0b;stop-opacity:1;"
         offset="1"
         id="stop4348" />
    </linearGradient>
    <linearGradient
       id="linearGradient4351">
      <stop
         style="stop-color:#6e6e6e;stop-opacity:1;"
         offset="0"
         id="stop4353" />
      <stop
         style="stop-color:#280b0b;stop-opacity:1;"
         offset="1"
         id="stop4355" />
    </linearGradient>
    <linearGradient
       id="linearGradient11897">
      <stop
         id="stop11899"
         offset="0"
         style="stop-color:#6e6e6e;stop-opacity:1;" />
      <stop
         id="stop11901"
         offset="1"
         style="stop-color:#000000;stop-opacity:1" />
    </linearGradient>
    <linearGradient
       id="linearGradient4362">
      <stop
         style="stop-color:#6e6e6e;stop-opacity:1;"
         offset="0"
         id="stop4364" />
      <stop
         style="stop-color:#280b0b;stop-opacity:1;"
         offset="1"
         id="stop4366" />
    </linearGradient>
    <radialGradient
       inkscape:collect="always"
       xlink:href="#linearGradient4110"
       id="radialGradient4119"
       cx="202.35063"
       cy="537.82739"
       fx="202.35063"
       fy="537.82739"
       r="90.602394"
       gradientTransform="matrix(0.07673961,0.43485784,-0.28276184,0.04989914,229.50939,273.65068)"
       gradientUnits="userSpaceOnUse" />
    <linearGradient
       id="linearGradient4369">
      <stop
         style="stop-color:#6e6e6e;stop-opacity:1;"
         offset="0"
         id="stop4371" />
      <stop
         style="stop-color:#280b0b;stop-opacity:1;"
         offset="1"
         id="stop4373" />
    </linearGradient>
    <radialGradient
       r="90.602394"
       fy="537.82739"
       fx="202.35063"
       cy="537.82739"
       cx="202.35063"
       gradientTransform="matrix(0.07673961,0.43485784,-0.28276184,0.04989914,210.20085,-12.450586)"
       gradientUnits="userSpaceOnUse"
       id="radialGradient4391"
       xlink:href="#linearGradient4110"
       inkscape:collect="always" />
    <radialGradient
       inkscape:collect="always"
       xlink:href="#linearGradient4110"
       id="radialGradient4488"
       gradientUnits="userSpaceOnUse"
       gradientTransform="matrix(0.25492277,0,0,0.15011413,25.240047,5.6445744)"
       cx="386.63589"
       cy="347.99316"
       fx="386.63589"
       fy="347.99316"
       r="95.706879" />
    <radialGradient
       inkscape:collect="always"
       xlink:href="#linearGradient11897"
       id="radialGradient4490"
       gradientUnits="userSpaceOnUse"
       gradientTransform="matrix(0.28723693,0.42675757,-0.24596315,0.16555019,145.72975,-245.79908)"
       cx="596.61621"
       cy="686.89435"
       fx="596.61621"
       fy="686.89435"
       r="86.214287" />
    <radialGradient
       inkscape:collect="always"
       xlink:href="#linearGradient4110"
       id="radialGradient4492"
       gradientUnits="userSpaceOnUse"
       gradientTransform="matrix(0.25492277,0,0,1.066436,25.240047,-492.85594)"
       cx="623.69739"
       cy="555.8739"
       fx="623.69739"
       fy="555.8739"
       r="16.340214" />
    <radialGradient
       inkscape:collect="always"
       xlink:href="#linearGradient4110"
       id="radialGradient4494"
       gradientUnits="userSpaceOnUse"
       gradientTransform="matrix(0.25492277,0,0,0.17885522,25.240047,27.930724)"
       cx="549.01794"
       cy="815.95392"
       fx="549.01794"
       fy="815.95392"
       r="54.543159" />
    <radialGradient
       inkscape:collect="always"
       xlink:href="#linearGradient4110"
       id="radialGradient4496"
       gradientUnits="userSpaceOnUse"
       gradientTransform="matrix(0.06859569,0.19838398,-0.2017522,0.06976102,233.84412,72.775374)"
       cx="232.33508"
       cy="819.39008"
       fx="232.33508"
       fy="819.39008"
       r="91.918808" />
    <radialGradient
       inkscape:collect="always"
       xlink:href="#linearGradient4110"
       id="radialGradient4498"
       gradientUnits="userSpaceOnUse"
       gradientTransform="matrix(0.23868661,0.29226623,-0.70048956,0.5720729,512.89895,-283.05287)"
       cx="77.14286"
       cy="694.38068"
       fx="77.14286"
       fy="694.38068"
       r="11.214286" />
  </defs>
  <metadata
     id="metadata2987">
    <rdf:RDF>
      <cc:Work
         rdf:about="">
        <dc:title></dc:title>
        <dc:description>Orange Juice Box</dc:description>
        <dc:subject>
          <rdf:Bag>
            <rdf:li>food</rdf:li>
            <rdf:li>juice</rdf:li>
            <rdf:li>menu</rdf:li>
            <rdf:li>orange</rdf:li>
            <rdf:li>beverage</rdf:li>
          </rdf:Bag>
        </dc:subject>
        <dc:publisher>
          <cc:Agent
             rdf:about="http://www.openclipart.org/">
            <dc:title>Open Clip Art Project</dc:title>
          </cc:Agent>
        </dc:publisher>
        <dc:creator>
          <cc:Agent
             rdf:about="http://web.resource.org/cc/PublicDomain">
            <dc:title>Gerald G.</dc:title>
          </cc:Agent>
        </dc:creator>
        <dc:rights>
          <cc:Agent
             rdf:about="http://web.resource.org/cc/PublicDomain">
            <dc:title>Public Domain</dc:title>
          </cc:Agent>
        </dc:rights>
        <dc:date>2005/05/30</dc:date>
        <dc:format>image/svg+xml</dc:format>
        <dc:type
           rdf:resource="http://purl.org/dc/dcmitype/StillImage" />
        <cc:license
           rdf:resource="http://web.resource.org/cc/PublicDomain" />
        <dc:language>en</dc:language>
      </cc:Work>
      <cc:License
         rdf:about="http://web.resource.org/cc/PublicDomain">
        <cc:permits
           rdf:resource="http://web.resource.org/cc/Reproduction" />
        <cc:permits
           rdf:resource="http://web.resource.org/cc/Distribution" />
        <cc:permits
           rdf:resource="http://web.resource.org/cc/DerivativeWorks" />
      </cc:License>
    </rdf:RDF>
  </metadata>
  <path
     style="opacity:0.3853211;fill:#97974a;fill-opacity:1;stroke:none"
     d="M 221.52744,109.25414 C 218.44843,164.42733 207.64983,221.86739 112.45057,223.50895 48.013917,224.62005 7.885728,173.20883 7.885728,117.94979 c 0,-55.259032 33.106715,-91.591481 106.247132,-95.550596 75.99313,-4.113533 109.56849,47.90026 107.39458,86.854946 z"
     id="path3929"
     inkscape:connector-curvature="0"
     sodipodi:nodetypes="sssss" />
  <g
     transform="matrix(0.87635743,0,0,0.62118987,47.517418,161.83848)"
     id="g2990">
    <path
       sodipodi:type="arc"
       style="fill:url(#radialGradient3884);fill-opacity:1;stroke:none"
       id="path3108"
       sodipodi:cx="106.93661"
       sodipodi:cy="116.43098"
       sodipodi:rx="80.952019"
       sodipodi:ry="79.452911"
       d="m 187.88863,116.43098 c 0,43.88063 -36.24346,79.45291 -80.95202,79.45291 -44.708568,0 -80.952021,-35.57228 -80.952021,-79.45291 0,-43.880634 36.243453,-79.452915 80.952021,-79.452915 44.70856,0 80.95202,35.572281 80.95202,79.452915 z"
       transform="matrix(1.2285681,0,0,0.29661719,-52.680414,15.522897)" />
    <path
       sodipodi:type="arc"
       style="fill:#ffffff;fill-opacity:1;stroke:none"
       id="path4520"
       sodipodi:cx="113.04348"
       sodipodi:cy="38.034111"
       sodipodi:rx="46.195652"
       sodipodi:ry="19.02174"
       d="m 159.23913,38.034111 c 0,10.505417 -20.6825,19.02174 -46.19565,19.02174 -25.513154,0 -46.195652,-8.516323 -46.195652,-19.02174 0,-10.505417 20.682498,-19.02174 46.195652,-19.02174 25.51315,0 46.19565,8.516323 46.19565,19.02174 z"
       transform="matrix(1.6353516,0,0,5.5107247,-105.94296,-272.8474)" />
  </g>
  <g
     inkscape:groupmode="layer"
     id="layer1"
     inkscape:label="Layer" />
  <g
     id="g4502"
     transform="matrix(0.89165665,0,0,0.89165665,13.474067,13.130503)">
    <path
       inkscape:connector-curvature="0"
       sodipodi:nodetypes="cssssc"
       id="path4099"
       d="m 64.935167,92.300344 c 3.50921,-2.3725 24.02643,-6.39516 27.12192,-3.29967 7.90563,7.90563 12.322653,14.967806 9.211043,27.673536 -2.185063,8.92229 -18.637283,22.66783 -24.679353,22.96893 -6.73135,0.33544 -18.48586,-11.37647 -20.13631,-19.06967 -0.99956,-4.65922 4.50644,-26.077356 8.4827,-28.273126 z"
       style="fill:url(#radialGradient4391);fill-opacity:1;fill-rule:evenodd;stroke:#000000;stroke-width:0.25492278px;stroke-linecap:butt;stroke-linejoin:miter;stroke-opacity:1;display:inline" />
    <path
       inkscape:connector-curvature="0"
       sodipodi:nodetypes="csscccc"
       id="path4101"
       d="m 92.141657,89.085244 c 2.27972,-8.71338 18.596433,-18.30878 21.593013,-18.63544 5.17499,-0.56411 28.32163,6.23307 30.59074,8.74023 3.48572,3.85136 9.57144,24.091116 8.74021,29.134026 -9.32908,4.27037 -19.52347,17.02882 -22.23679,20.90884 -13.52877,-6.54917 -26.17247,-9.92085 -29.94697,-10.66775 -0.85205,-7.494 -5.612203,-22.697856 -8.740203,-29.479906 z"
       style="fill:#ffffff;fill-rule:evenodd;stroke:#000000;stroke-width:0.25492278px;stroke-linecap:butt;stroke-linejoin:miter;stroke-opacity:1;display:inline" />
    <path
       inkscape:connector-curvature="0"
       sodipodi:nodetypes="ccccc"
       id="path4106"
       d="m 114.33883,70.320184 c -2.57512,-7.04937 -2.57512,-10.10731 -3.73392,-16.73821 16.73822,-4.18455 33.99145,-2.15666 48.54081,16.48069 -2.96137,3.57297 -4.37768,5.60087 -13.51932,10.17169 -7.46781,-5.34335 -22.40345,-8.14379 -31.28757,-9.91417 z"
       style="fill:url(#radialGradient4488);fill-rule:evenodd;stroke:#000000;stroke-width:0.25492278px;stroke-linecap:butt;stroke-linejoin:miter;stroke-opacity:1;display:inline" />
    <path
       inkscape:connector-curvature="0"
       sodipodi:nodetypes="ccccccc"
       id="path4108"
       d="m 63.222907,78.560534 c 0.0322,-3.4764 14.58155,-14.09873 16.09443,-17.38199 15.41846,-7.78971 31.673843,-7.59657 31.673843,-7.59657 l 3.34765,16.60945 -22.660973,18.66955 -26.39486,3.21889 c 0,0 -3.50859,-5.40773 -2.06009,-13.51933 z"
       style="fill:#ffffff;fill-rule:evenodd;stroke:#000000;stroke-width:0.25492278px;stroke-linecap:butt;stroke-linejoin:miter;stroke-opacity:1;display:inline" />
    <path
       transform="matrix(0.24573724,0,0,0.25087435,-42.892651,-34.951756)"
       sodipodi:open="true"
       sodipodi:end="8.9664444"
       sodipodi:start="2.68469"
       d="M 375.2053,755.81634 C 301.76169,611.9057 363.33488,437.89208 512.73288,367.14604 662.13087,296.4 842.77968,355.71163 916.22329,499.62226 989.6669,643.5329 928.09371,817.54652 778.69571,888.29256 629.44886,958.96703 448.97865,899.85283 375.39586,756.18906"
       sodipodi:ry="290.35715"
       sodipodi:rx="301.42856"
       sodipodi:cy="627.7193"
       sodipodi:cx="645.71429"
       id="path4123"
       style="fill:none;stroke:#000000;stroke-width:2.46909618;stroke-linejoin:round;stroke-miterlimit:4;stroke-opacity:0.79381445;stroke-dasharray:none;display:inline"
       sodipodi:type="arc" />
    <path
       inkscape:connector-curvature="0"
       sodipodi:nodetypes="ccccc"
       id="path5094"
       d="m 62.932207,78.643764 c 0,0 -2.2761,-0.18209 -4.91637,-2.91341 3.7328,-4.73428 11.24391,-10.83422 19.84756,-16.02372 1.32013,2.09401 1.82088,0.91044 1.82088,0.91044 l -16.75207,18.02669 z"
       style="fill:#000000;fill-rule:evenodd;stroke:#000000;stroke-width:0.25492278px;stroke-linecap:butt;stroke-linejoin:miter;stroke-opacity:1;display:inline" />
    <path
       inkscape:connector-curvature="0"
       sodipodi:nodetypes="cccccccc"
       id="path6065"
       d="m 145.05376,80.282554 c 11.47153,-5.23503 10.10587,-5.50816 13.83867,-10.37901 7.01037,2.59475 9.10438,1.82088 9.10438,1.82088 0,0 9.42304,7.64769 13.47449,18.93713 4.05145,11.289426 2.73132,26.220626 2.73132,26.220626 l -9.83274,8.01186 c 0,0 -6.69172,-10.33348 -21.30426,-16.56998 -0.95596,-8.23947 -2.54922,-17.708026 -8.01186,-28.041506 z"
       style="fill:#ffffff;fill-rule:evenodd;stroke:#000000;stroke-width:0.25492278px;stroke-linecap:butt;stroke-linejoin:miter;stroke-opacity:1;display:inline" />
    <path
       inkscape:connector-curvature="0"
       sodipodi:nodetypes="cccccc"
       id="path6067"
       d="m 153.06562,108.32406 c 0,0 -11.38048,5.14397 -22.39678,21.48634 2.45818,14.15732 4.09697,20.21174 5.28054,29.31613 14.65806,0.36418 25.35571,-0.77387 29.6803,-3.82384 6.8738,-12.51854 8.05738,-15.93268 8.7402,-30.22657 -7.51111,-10.28795 -21.30426,-16.75206 -21.30426,-16.75206 z"
       style="fill:url(#radialGradient4490);fill-opacity:1;fill-rule:evenodd;stroke:#000000;stroke-width:0.25492278px;stroke-linecap:butt;stroke-linejoin:miter;stroke-opacity:1;display:inline" />
    <path
       inkscape:connector-curvature="0"
       sodipodi:nodetypes="ccccccc"
       id="path8007"
       d="m 165.2655,155.66686 c 0,0 2.36714,5.14398 1.63879,16.56999 2.00296,-3.14102 3.91488,-2.32162 5.64472,-2.91341 C 192.12344,144.69607 189.119,123.9836 189.119,123.9836 l -4.73429,-6.73725 c 0,0 -3.96041,3.50519 -10.01483,8.01186 1.04701,11.97227 -9.10438,30.40865 -9.10438,30.40865 z"
       style="fill:#ffffff;fill-opacity:1;fill-rule:evenodd;stroke:#000000;stroke-width:0.25492278;stroke-linecap:butt;stroke-linejoin:miter;stroke-miterlimit:4;stroke-opacity:1;stroke-dasharray:none;display:inline" />
    <path
       inkscape:connector-curvature="0"
       sodipodi:nodetypes="cccc"
       id="path9947"
       d="m 181.28922,89.569024 c 9.332,15.386406 8.01186,34.596666 8.01186,34.596666 l -5.28055,-7.64769 c 0,0 1.59327,-14.29388 -2.73131,-26.948976 z"
       style="fill:url(#radialGradient4492);fill-rule:evenodd;stroke:#000000;stroke-width:0.25492278px;stroke-linecap:butt;stroke-linejoin:miter;stroke-opacity:1;display:inline" />
    <path
       inkscape:connector-curvature="0"
       sodipodi:nodetypes="cccc"
       id="path12872"
       d="m 166.61354,171.77949 c 0,0 -9.78541,5.79399 -22.40345,17.25322 16.73821,-6.82403 23.49787,-13.5837 27.55367,-18.79829 -1.48069,-1.60944 -5.15022,1.54507 -5.15022,1.54507 z"
       style="fill:url(#radialGradient4494);fill-rule:evenodd;stroke:#000000;stroke-width:0.25492278px;stroke-linecap:butt;stroke-linejoin:miter;stroke-opacity:1;display:inline" />
    <path
       inkscape:connector-curvature="0"
       sodipodi:nodetypes="cccccccc"
       id="path12876"
       d="m 165.06847,155.68506 c 2.70387,6.40558 1.93134,16.22318 1.93134,16.22318 0,0 -13.68027,7.75752 -22.91847,17.12447 -9.75323,5.5043 -10.07512,4.3455 -16.09443,4.89271 -6.01932,-1.25536 -4.37769,-0.80472 -7.98284,-2.70386 -2.44635,-4.60301 -4.28112,-8.07941 -5.40773,-13.64808 14.06653,-10.07511 19.18456,-13.96997 21.50216,-18.41203 11.33048,0.45065 20.34336,0.41846 28.96997,-3.47639 z"
       style="fill:#ffffff;fill-rule:evenodd;stroke:#000000;stroke-width:0.25492278px;stroke-linecap:butt;stroke-linejoin:miter;stroke-opacity:1;display:inline" />
    <path
       inkscape:connector-curvature="0"
       sodipodi:nodetypes="cccscc"
       id="path12878"
       d="m 84.853817,167.65931 c 14.54937,6.56653 20.246803,6.53434 29.485013,9.91417 2.0279,9.17382 5.92275,13.90559 5.92275,13.90559 0,0 -10.57485,4.36932 -25.751103,0.51502 -11.34962,-2.88245 -16.64164,-8.46567 -20.85838,-13.90559 5.31117,-4.28111 9.01288,-7.59657 11.20172,-10.42919 z"
       style="fill:url(#radialGradient4496);fill-opacity:1;fill-rule:evenodd;stroke:#000000;stroke-width:0.25492278px;stroke-linecap:butt;stroke-linejoin:miter;stroke-opacity:1;display:inline" />
    <path
       inkscape:connector-curvature="0"
       sodipodi:nodetypes="ccccccc"
       id="path12890"
       d="m 100.62436,118.15679 c 16.3879,3.09549 29.86239,10.75233 29.86239,10.75233 0,0 3.39071,17.9642 5.8489,29.79991 -5.91785,9.65064 -7.64769,10.52984 -21.85053,19.08796 -12.74615,-3.82384 -29.520313,-9.74816 -29.520313,-9.74816 0,0 -8.28434,-10.39708 -10.4765,-28.51236 11.19839,-7.37455 21.03759,-11.00068 26.136053,-21.37968 z"
       style="fill:#ffffff;fill-rule:evenodd;stroke:#000000;stroke-width:0.25492278px;stroke-linecap:butt;stroke-linejoin:miter;stroke-opacity:1;display:inline" />
    <path
       inkscape:connector-curvature="0"
       sodipodi:nodetypes="cccccccc"
       id="path12892"
       d="m 74.403727,139.64314 c -9.5596,-4.64324 -17.48042,-16.38789 -17.48042,-16.38789 0,0 -8.28499,3.00444 -9.83273,9.10438 0.33561,11.81629 0.0846,17.26709 0.0846,17.26709 0,0 2.1759,7.55397 11.78616,18.65753 6.73724,3.45966 7.71016,3.64822 14.99367,9.74816 9.46856,-6.28202 10.96944,-10.11234 10.96944,-10.11234 0,0 -6.78789,-10.52337 -10.52069,-28.27693 z"
       style="fill:#ffffff;fill-rule:evenodd;stroke:#000000;stroke-width:0.25492278px;stroke-linecap:butt;stroke-linejoin:miter;stroke-opacity:1;display:inline" />
    <path
       inkscape:connector-curvature="0"
       sodipodi:nodetypes="cccc"
       id="path12894"
       d="m 46.726397,131.99546 -3.70423,3.10464 4.43258,16.92501 -0.72835,-20.02965 z"
       style="fill:url(#radialGradient4498);fill-opacity:1;fill-rule:evenodd;stroke:#000000;stroke-width:0.25492278px;stroke-linecap:butt;stroke-linejoin:miter;stroke-opacity:1;display:inline" />
  </g>
</svg>
