<?xml version="1.0" encoding="UTF-8" standalone="no"?>
<!-- Created with Inkscape (http://www.inkscape.org/) -->

<svg
   xmlns:dc="http://purl.org/dc/elements/1.1/"
   xmlns:cc="http://creativecommons.org/ns#"
   xmlns:rdf="http://www.w3.org/1999/02/22-rdf-syntax-ns#"
   xmlns:svg="http://www.w3.org/2000/svg"
   xmlns="http://www.w3.org/2000/svg"
   xmlns:sodipodi="http://sodipodi.sourceforge.net/DTD/sodipodi-0.dtd"
   xmlns:inkscape="http://www.inkscape.org/namespaces/inkscape"
   version="1.1"
   width="233.14133"
   height="292.79892"
   id="svg2"
   inkscape:version="0.48.4 r"
   sodipodi:docname="d_d.svg">
  <sodipodi:namedview
     pagecolor="#ffffff"
     bordercolor="#666666"
     borderopacity="1"
     objecttolerance="10"
     gridtolerance="10"
     guidetolerance="10"
     inkscape:pageopacity="0"
     inkscape:pageshadow="2"
     inkscape:window-width="640"
     inkscape:window-height="480"
     id="namedview3050"
     showgrid="false"
     inkscape:zoom="0.8060139"
     inkscape:cx="116.57066"
     inkscape:cy="146.39946"
     inkscape:window-x="0"
     inkscape:window-y="22"
     inkscape:window-maximized="0"
     inkscape:current-layer="svg2" />
  <defs
     id="defs4" />
  <metadata
     id="metadata7">
    <rdf:RDF>
      <cc:Work
         rdf:about="">
        <dc:format>image/svg+xml</dc:format>
        <dc:type
           rdf:resource="http://purl.org/dc/dcmitype/StillImage" />
        <dc:title />
      </cc:Work>
    </rdf:RDF>
  </metadata>
  <g
     transform="translate(-99.864668,-322.45172)"
     id="layer1">
    <g
       style="font-size:77.58502197px;font-style:normal;font-weight:normal;line-height:125%;letter-spacing:0px;word-spacing:0px;opacity:0.3;fill:#333333;fill-opacity:1;stroke:none;font-family:Sans"
       id="text2985">
      <path
         d="m 179.30537,568.95782 c 6.69262,3.40953 14.39555,5.11428 23.10882,5.11424 8.71303,4e-5 16.35282,-1.70471 22.9194,-5.11424 6.69257,-3.53574 11.99623,-8.33429 15.91099,-14.39566 4.04072,-6.18755 7.00825,-13.13282 8.90258,-20.83582 2.02027,-7.82914 3.03049,-16.28973 3.03066,-25.38182 -1.7e-4,-19.32037 -4.29361,-35.04192 -12.88032,-47.16472 -8.58703,-12.24878 -21.21479,-18.37324 -37.88331,-18.3734 -16.66876,1.6e-4 -29.29652,6.12462 -37.88331,18.3734 -8.58696,12.1228 -12.88039,27.84435 -12.88033,47.16472 -6e-5,9.09209 0.94702,17.55268 2.84125,25.38182 2.02037,7.703 4.9879,14.64827 8.90258,20.83582 4.0408,6.06137 9.34446,10.85992 15.91099,14.39566 m 14.39566,41.2928 c -25.3819,0 -46.5334,-9.21826 -63.45455,-27.65481 -16.92124,-18.4365 -25.38183,-42.74494 -25.38181,-72.92537 -2e-5,-14.14299 1.95728,-27.339 5.87191,-39.58806 4.04086,-12.37506 9.78649,-23.29807 17.23691,-32.76906 7.45033,-9.47065 17.11056,-16.92103 28.98073,-22.35115 11.87002,-5.55602 25.1923,-8.33413 39.96689,-8.33433 13.63786,2e-4 25.2554,2.90458 34.85264,8.71316 9.72323,5.68268 16.41594,11.74401 20.07815,18.18399 l 0,-104.74735 44.51289,0 0,225.5951 c -2.1e-4,3.28327 0.5049,20.45702 1.51533,51.5213 l -45.64938,0 -0.37884,-26.3289 c -3.03082,7.45041 -9.53412,14.45881 -19.5099,21.02524 -9.8498,6.44016 -22.73011,9.66024 -38.64097,9.66024"
         style="font-size:387.92507935px;font-variant:normal;font-weight:bold;font-stretch:normal;fill:#333333;font-family:Muli;-inkscape-font-specification:Muli Bold"
         id="path3053" />
    </g>
    <g
       transform="scale(1.0325055,0.96851785)"
       style="font-size:80.10695648px;font-style:normal;font-weight:normal;line-height:125%;letter-spacing:0px;word-spacing:0px;opacity:0.3;fill:#333333;fill-opacity:1;stroke:none;font-family:Sans"
       id="text2989">
      <path
         d="m 151.05093,536.40735 c 0,-54.76056 30.50951,-79.40289 60.43225,-79.40289 9.5831,0 19.16622,1.95574 27.77145,4.49819 l 0,66.69061 c 0,44.78632 -23.66443,65.32159 -47.52439,65.32159 -20.92635,0 -40.67931,-21.51313 -40.67931,-57.1075 m 96.4178,59.84553 c 9.77867,24.64226 22.68658,32.46523 63.95257,32.46523 l 6.25836,-37.55014 c -24.25111,0 -31.09621,-8.01855 -31.09621,-36.96342 l 0,-216.10885 -47.32882,0 0,87.61698 c -11.34326,-3.32475 -22.49097,-5.08491 -33.63866,-5.08491 -49.87123,0 -103.0673,40.48381 -103.0673,116.95303 0,63.56136 43.80853,92.31075 81.94535,92.31075 24.83782,0 49.67571,-12.32116 62.97471,-33.63867"
         style="font-size:400.53479004px;font-variant:normal;font-weight:bold;font-stretch:normal;fill:#333333;font-family:Topmarks;-inkscape-font-specification:Topmarks Bold"
         id="path3056" />
    </g>
  </g>
</svg>
