<?xml version="1.0" encoding="UTF-8" standalone="no"?>
<!-- Created with Inkscape (http://www.inkscape.org/) -->

<svg
   xmlns:dc="http://purl.org/dc/elements/1.1/"
   xmlns:cc="http://creativecommons.org/ns#"
   xmlns:rdf="http://www.w3.org/1999/02/22-rdf-syntax-ns#"
   xmlns:svg="http://www.w3.org/2000/svg"
   xmlns="http://www.w3.org/2000/svg"
   xmlns:sodipodi="http://sodipodi.sourceforge.net/DTD/sodipodi-0.dtd"
   xmlns:inkscape="http://www.inkscape.org/namespaces/inkscape"
   width="1052.3622"
   height="744.09448"
   id="svg2"
   version="1.1"
   inkscape:version="0.48.3.1 r9886"
   sodipodi:docname="drawing-1.svg">
  <defs
     id="defs4">
    <marker
       inkscape:stockid="Arrow2Lend"
       orient="auto"
       refY="0"
       refX="0"
       id="Arrow2Lend"
       style="overflow:visible">
      <path
         id="path3793"
         style="fill-rule:evenodd;stroke-width:0.625;stroke-linejoin:round"
         d="M 8.7185878,4.0337352 -2.2072895,0.01601326 8.7185884,-4.0017078 c -1.7454984,2.3720609 -1.7354408,5.6174519 -6e-7,8.035443 z"
         transform="matrix(-1.1,0,0,-1.1,-1.1,0)"
         inkscape:connector-curvature="0" />
    </marker>
    <marker
       inkscape:stockid="Arrow1Lend"
       orient="auto"
       refY="0"
       refX="0"
       id="Arrow1Lend"
       style="overflow:visible">
      <path
         id="path3775"
         d="M 0,0 5,-5 -12.5,0 5,5 0,0 z"
         style="fill-rule:evenodd;stroke:#000000;stroke-width:1pt"
         transform="matrix(-0.8,0,0,-0.8,-10,0)"
         inkscape:connector-curvature="0" />
    </marker>
    <marker
       inkscape:stockid="DotL"
       orient="auto"
       refY="0"
       refX="0"
       id="DotL"
       style="overflow:visible">
      <path
         id="path3833"
         d="m -2.5,-1 c 0,2.76 -2.24,5 -5,5 -2.76,0 -5,-2.24 -5,-5 0,-2.76 2.24,-5 5,-5 2.76,0 5,2.24 5,5 z"
         style="fill-rule:evenodd;stroke:#000000;stroke-width:1pt"
         transform="matrix(0.8,0,0,0.8,5.92,0.8)"
         inkscape:connector-curvature="0" />
    </marker>
    <marker
       inkscape:stockid="DotM"
       orient="auto"
       refY="0"
       refX="0"
       id="DotM"
       style="overflow:visible">
      <path
         id="path3836"
         d="m -2.5,-1 c 0,2.76 -2.24,5 -5,5 -2.76,0 -5,-2.24 -5,-5 0,-2.76 2.24,-5 5,-5 2.76,0 5,2.24 5,5 z"
         style="fill-rule:evenodd;stroke:#000000;stroke-width:1pt"
         transform="matrix(0.4,0,0,0.4,2.96,0.4)"
         inkscape:connector-curvature="0" />
    </marker>
    <filter
       inkscape:collect="always"
       id="filter4014">
      <feGaussianBlur
         inkscape:collect="always"
         stdDeviation="1.5086188"
         id="feGaussianBlur4016" />
    </filter>
  </defs>
  <sodipodi:namedview
     id="base"
     pagecolor="#ffffff"
     bordercolor="#666666"
     borderopacity="1.0"
     inkscape:pageopacity="0.0"
     inkscape:pageshadow="2"
     inkscape:zoom="1.0406621"
     inkscape:cx="314.45591"
     inkscape:cy="-899.10375"
     inkscape:document-units="px"
     inkscape:current-layer="layer1"
     showgrid="false"
     inkscape:window-width="2047"
     inkscape:window-height="1024"
     inkscape:window-x="42"
     inkscape:window-y="160"
     inkscape:window-maximized="0"
     showguides="true"
     inkscape:guide-bbox="true" />
  <metadata
     id="metadata7">
    <rdf:RDF>
      <cc:Work
         rdf:about="">
        <dc:format>image/svg+xml</dc:format>
        <dc:type
           rdf:resource="http://purl.org/dc/dcmitype/StillImage" />
        <dc:title />
      </cc:Work>
    </rdf:RDF>
  </metadata>
  <g
     inkscape:label="Layer 1"
     inkscape:groupmode="layer"
     id="layer1"
     transform="translate(0,-308.2677)">
    <path
       transform="matrix(1.1288753,0,0,1.1288753,173.00347,300.51339)"
       d="m 67.918346,1269.9471 c 0,16.4818 -13.361126,29.843 -29.84291,29.843 -16.481785,0 -29.8429111,-13.3612 -29.8429111,-29.843 0,-16.4817 13.3611261,-29.8429 29.8429111,-29.8429 16.481784,0 29.84291,13.3612 29.84291,29.8429 z"
       sodipodi:ry="29.842911"
       sodipodi:rx="29.842911"
       sodipodi:cy="1269.9471"
       sodipodi:cx="38.075436"
       id="path4782"
       style="opacity:0.7;fill:none;stroke:#252525;stroke-width:1;stroke-miterlimit:4;stroke-opacity:1;stroke-dasharray:none;stroke-dashoffset:0"
       sodipodi:type="arc" />
    <g
       id="g3962"
       style="font-size:365.48626709px;font-style:normal;font-weight:normal;line-height:125%;letter-spacing:0px;word-spacing:0px;fill:#d2e8ea;fill-opacity:1;stroke:none;filter:url(#filter4014);font-family:Sans"
       transform="translate(450.66666,0)">
      <path
         inkscape:connector-curvature="0"
         id="path3964"
         style="font-variant:normal;font-stretch:normal;fill:#d2e8ea;fill-opacity:1;font-family:Topmarks;-inkscape-font-specification:Topmarks"
         d="m 158.67691,1405.6296 2.49844,-23.9137 c -2.85536,0.1785 -5.53226,0.1785 -8.0307,0.1785 -32.30125,0 -33.72896,-12.8492 -33.72896,-35.1567 l 0,-221.2905 -30.338214,0 0,220.2198 c 0,32.4797 3.569253,60.498 55.322624,60.498 4.4615,0 9.10147,-0.1785 14.27681,-0.5354" />
      <path
         id="path3966"
         style="font-variant:normal;font-stretch:normal;fill:#d2e8ea;fill-opacity:1;font-family:Topmarks;-inkscape-font-specification:Topmarks"
         d="m 273.85755,1405.6296 2.49844,-23.9137 c -2.6769,0.1785 -4.99688,0.1785 -7.31686,0.1785 -29.08897,0 -29.089,-12.8492 -29.089,-35.1567 l 0,-125.9928 -30.33821,0 0,124.9221 c 0,32.4797 2.14157,60.498 50.86112,60.498 4.10458,0 8.56609,-0.1785 13.38451,-0.5354 m -47.64885,-222.3613 0.17846,0 c 10.52914,0 20.87984,-6.603 20.87984,-19.6306 0,-13.206 -10.52916,-19.9875 -20.87984,-19.9875 l -0.17846,0 c -10.70759,0 -21.41521,6.603 -21.41521,19.809 0,13.0276 10.70762,19.8091 21.41521,19.8091"
         inkscape:connector-curvature="0" />
      <path
         id="path3968"
         style="font-variant:normal;font-stretch:normal;fill:#d2e8ea;fill-opacity:1;font-family:Topmarks;-inkscape-font-specification:Topmarks"
         d="m 407.70261,1405.6296 2.49844,-23.9137 c -3.21227,0.1785 -6.2461,0.1785 -9.10146,0.1785 -36.76274,0 -39.7966,-12.8492 -39.7966,-35.1567 l 0,-184.3492 -30.33822,0 0,183.2785 c 0,32.4797 6.60308,60.498 61.56874,60.498 4.63995,0 9.81531,-0.1785 15.1691,-0.5354 m -112.96523,-165.9679 117.06982,0 0,-18.9168 -117.06982,0 0,18.9168"
         inkscape:connector-curvature="0" />
    </g>
    <path
       style="opacity:0.50458714999999998;fill:none;fill-opacity:1;fill-rule:nonzero;stroke:#000000;stroke-opacity:1"
       d="m 178.03393,1385.0089 c 0,30.9389 -24.55732,56.02 -54.8503,56.02 -30.292982,0 -54.850294,-25.0811 -54.850294,-56.02 0,-30.9388 24.557312,-56.0199 54.850294,-56.0199 30.29298,0 54.8503,25.0811 54.8503,56.0199 z"
       id="path6207"
       inkscape:connector-curvature="0" />
    <path
       inkscape:connector-curvature="0"
       id="path3918"
       d="m 302.70648,1385.0089 c 0,30.9389 -24.55731,56.02 -54.85029,56.02 -30.29299,0 -54.8503,-25.0811 -54.8503,-56.02 0,-30.9388 24.55731,-56.0199 54.8503,-56.0199 30.29298,0 54.85029,25.0811 54.85029,56.0199 z"
       style="opacity:0.50458714999999998;fill:none;fill-opacity:1;fill-rule:nonzero;stroke:#000000;stroke-opacity:1" />
    <path
       style="opacity:0.50458714999999998;fill:none;fill-opacity:1;fill-rule:nonzero;stroke:#000000;stroke-opacity:1"
       d="m 428.37315,1385.0089 c 0,30.9389 -24.55731,56.02 -54.85029,56.02 -30.29299,0 -54.8503,-25.0811 -54.8503,-56.02 0,-30.9388 24.55731,-56.0199 54.8503,-56.0199 30.29298,0 54.85029,25.0811 54.85029,56.0199 z"
       id="path3920"
       inkscape:connector-curvature="0" />
    <text
       xml:space="preserve"
       style="font-size:365.48626709px;font-style:normal;font-weight:normal;line-height:125%;letter-spacing:0px;word-spacing:0px;fill:#0090d6;fill-opacity:1;stroke:none;font-family:Sans"
       x="122.74422"
       y="613.84503"
       id="text2985"
       sodipodi:linespacing="125%"><tspan
         sodipodi:role="line"
         id="tspan2987"
         x="122.74422"
         y="613.84503"
         style="font-style:normal;font-variant:normal;font-weight:bold;font-stretch:normal;fill:#0090d6;fill-opacity:1;font-family:Topmarks;-inkscape-font-specification:Topmarks Bold">a</tspan></text>
    <path
       style="fill:none;stroke:#4e4e4e;stroke-width:2;stroke-linecap:butt;stroke-linejoin:miter;stroke-miterlimit:4;stroke-opacity:1;stroke-dasharray:none;marker-start:url(#DotM);marker-mid:none;marker-end:url(#Arrow2Lend)"
       d="m 285.54819,418.663 c -80.4878,-19.5122 -159.8986,24.03098 -157.34959,117.5122 2.61533,95.91308 90.30894,110.94309 130.95934,76.79675"
       id="path3766"
       inkscape:connector-curvature="0"
       sodipodi:nodetypes="csc" />
    <path
       style="fill:none;stroke:#4e4e4e;stroke-width:2;stroke-linecap:butt;stroke-linejoin:miter;stroke-miterlimit:4;stroke-opacity:1;stroke-dasharray:none;marker-start:none;marker-end:url(#Arrow2Lend)"
       d="m 224.19859,567.44349 c 13.00813,-0.81301 24.43469,-17.20855 24.45529,-37.08943 l 0.0488,-47.08943"
       id="path5142"
       inkscape:connector-curvature="0"
       sodipodi:nodetypes="csc" />
    <path
       sodipodi:nodetypes="cc"
       inkscape:connector-curvature="0"
       id="path5708"
       d="m 313.86131,604.43118 c 12.23184,1.99527 33.58942,-6.29015 52.30688,-12.34989"
       style="fill:none;stroke:#4e4e4e;stroke-width:2;stroke-linecap:butt;stroke-linejoin:miter;stroke-miterlimit:4;stroke-opacity:1;stroke-dasharray:none;marker-start:none;marker-end:url(#Arrow2Lend)" />
    <path
       sodipodi:nodetypes="cc"
       inkscape:connector-curvature="0"
       id="path5710"
       d="m 312.88741,457.59107 -0.0488,93.08943"
       style="fill:none;stroke:#4e4e4e;stroke-width:2;stroke-linecap:butt;stroke-linejoin:miter;stroke-miterlimit:4;stroke-opacity:1;stroke-dasharray:none;marker-start:none;marker-end:url(#Arrow2Lend)" />
    <path
       style="fill:none;stroke:#ffffff;stroke-width:2;stroke-linecap:butt;stroke-linejoin:miter;stroke-miterlimit:4;stroke-opacity:1;stroke-dasharray:4, 4;stroke-dashoffset:0"
       d="m 284.92454,447.15499 c -71.39897,-29.52742 -126.14058,12.22345 -126.14058,87.0202 0,36.58537 23.32284,71.59089 56.65617,71.59089 49.11517,0 60.65891,-39.11645 69.80646,-72.94783"
       id="path5712"
       inkscape:connector-curvature="0"
       sodipodi:nodetypes="cssc" />
    <path
       sodipodi:nodetypes="ccc"
       inkscape:connector-curvature="0"
       id="path5714"
       d="m 285.10917,446.19145 0,117.12196 c 0,0 -4.36444,52.85003 40.17885,39.37211"
       style="fill:none;stroke:#ffffff;stroke-width:2;stroke-linecap:butt;stroke-linejoin:miter;stroke-miterlimit:4;stroke-opacity:1;stroke-dasharray:4, 4;stroke-dashoffset:0" />
    <text
       sodipodi:linespacing="125%"
       id="text5716"
       y="613.84503"
       x="387.88708"
       style="font-size:365.48626709px;font-style:normal;font-weight:normal;line-height:125%;letter-spacing:0px;word-spacing:0px;fill:#0090d6;fill-opacity:1;stroke:none;font-family:Sans"
       xml:space="preserve"><tspan
         style="font-style:normal;font-variant:normal;font-weight:bold;font-stretch:normal;fill:#0090d6;fill-opacity:1;font-family:Topmarks;-inkscape-font-specification:Topmarks Bold"
         y="613.84503"
         x="387.88708"
         id="tspan5718"
         sodipodi:role="line">b</tspan></text>
    <path
       style="fill:none;stroke:#4e4e4e;stroke-width:2;stroke-linecap:butt;stroke-linejoin:miter;stroke-miterlimit:4;stroke-opacity:1;stroke-dasharray:none;marker-start:none;marker-end:url(#Arrow2Lend)"
       d="m 458.34339,436.9882 c 16.15273,-17.56348 37.58279,-22.04758 54.81518,-22.04758 121.09023,0 122.05837,271.48074 -95.22169,202.03133"
       id="path5724"
       inkscape:connector-curvature="0"
       sodipodi:nodetypes="csc" />
    <path
       style="fill:none;stroke:#ffffff;stroke-width:2;stroke-linecap:butt;stroke-linejoin:miter;stroke-miterlimit:4;stroke-opacity:1;stroke-dasharray:4, 4;stroke-dashoffset:0"
       d="m 435.7293,347.11828 0,245.52846"
       id="path5732"
       inkscape:connector-curvature="0"
       sodipodi:nodetypes="cc" />
    <path
       style="fill:none;stroke:#ffffff;stroke-width:2;stroke-linecap:butt;stroke-linejoin:miter;stroke-miterlimit:4;stroke-opacity:1;stroke-dasharray:4, 4;stroke-dashoffset:0"
       d="m 449.48805,472.97225 c 0,0 18.90053,-33.60967 57.76016,-33.60967 39.38217,0 57.74279,31.63202 58.37971,74.94241 0.9032,61.41716 -21.52726,116.85487 -129.89792,77.16338"
       id="path5734"
       inkscape:connector-curvature="0"
       sodipodi:nodetypes="cssc" />
    <path
       sodipodi:nodetypes="ccc"
       inkscape:connector-curvature="0"
       id="path5720"
       d="m 400.28455,344.61422 -0.87805,260.60163 c 0,0 16.76423,-86.61789 46.03251,-125.64228"
       style="fill:none;stroke:#4e4e4e;stroke-width:2;stroke-linecap:butt;stroke-linejoin:miter;stroke-miterlimit:4;stroke-opacity:1;stroke-dasharray:none;marker-start:url(#DotM);marker-mid:none;marker-end:url(#Arrow2Lend)" />
    <text
       sodipodi:linespacing="125%"
       id="text6131"
       y="613.84503"
       x="629.88702"
       style="font-size:365.48626709px;font-style:normal;font-weight:normal;line-height:125%;letter-spacing:0px;word-spacing:0px;fill:#0090d6;fill-opacity:1;stroke:none;font-family:Sans"
       xml:space="preserve"><tspan
         style="font-style:normal;font-variant:normal;font-weight:bold;font-stretch:normal;fill:#0090d6;fill-opacity:1;font-family:Topmarks;-inkscape-font-specification:Topmarks Bold"
         y="613.84503"
         x="629.88702"
         id="tspan6133"
         sodipodi:role="line">c</tspan></text>
    <path
       sodipodi:nodetypes="csc"
       inkscape:connector-curvature="0"
       id="path6135"
       d="m 796.65162,428.56443 c -79.99273,-36.83971 -161.31016,0.11452 -161.31016,95.61077 0,68.72383 44.76234,113.04165 114.62197,103.6489"
       style="fill:none;stroke:#4e4e4e;stroke-width:2;stroke-linecap:butt;stroke-linejoin:miter;stroke-miterlimit:4;stroke-opacity:1;stroke-dasharray:none;marker-start:url(#DotM);marker-mid:none;marker-end:url(#Arrow2Lend)" />
    <path
       style="fill:none;stroke:#4e4e4e;stroke-width:2;stroke-linecap:butt;stroke-linejoin:miter;stroke-miterlimit:4;stroke-opacity:1;stroke-dasharray:none;marker-start:none;marker-end:url(#Arrow2Lend)"
       d="m 785.94681,591.93029 c 15.12922,-5.51845 32.36716,-11.54764 54.05505,-27.01374"
       id="path6139"
       inkscape:connector-curvature="0"
       sodipodi:nodetypes="cc" />
    <path
       sodipodi:nodetypes="ccc"
       inkscape:connector-curvature="0"
       id="path6143"
       d="m 782.62601,452.54745 c -28.15727,-28.08603 -121.07229,-18.63149 -117.70905,68.65731 0,74.8232 63.63543,102.61441 116.83064,73.10166"
       style="fill:none;stroke:#ffffff;stroke-width:2;stroke-linecap:butt;stroke-linejoin:miter;stroke-miterlimit:4;stroke-opacity:1;stroke-dasharray:4, 4;stroke-dashoffset:0" />
    <path
       sodipodi:nodetypes="csc"
       inkscape:connector-curvature="0"
       id="path6151"
       d="m 285.54819,798.663 c -80.4878,-19.5122 -159.8986,24.03098 -157.34959,117.5122 2.61533,95.9131 90.30894,110.9431 130.95934,76.79675"
       style="fill:none;stroke:#4e4e4e;stroke-width:2;stroke-linecap:butt;stroke-linejoin:miter;stroke-miterlimit:4;stroke-opacity:1;stroke-dasharray:none;marker-start:url(#DotM);marker-mid:none;marker-end:url(#Arrow2Lend)" />
    <path
       sodipodi:nodetypes="csc"
       inkscape:connector-curvature="0"
       id="path6153"
       d="m 234.19859,947.44349 c 13.00813,-0.81301 24.43469,-17.20855 24.45529,-37.08943 l 0.0488,-47.08943"
       style="fill:none;stroke:#4e4e4e;stroke-width:2;stroke-linecap:butt;stroke-linejoin:miter;stroke-miterlimit:4;stroke-opacity:1;stroke-dasharray:none;marker-start:none;marker-end:url(#Arrow2Lend)" />
    <path
       style="fill:none;stroke:#4e4e4e;stroke-width:2;stroke-linecap:butt;stroke-linejoin:miter;stroke-miterlimit:4;stroke-opacity:1;stroke-dasharray:none;marker-start:none;marker-end:url(#Arrow2Lend)"
       d="m 316.26363,982.02886 c 14.63415,4.87805 24.94108,3.79958 43.65854,-2.26016"
       id="path6155"
       inkscape:connector-curvature="0"
       sodipodi:nodetypes="cc" />
    <path
       style="fill:none;stroke:#4e4e4e;stroke-width:2;stroke-linecap:butt;stroke-linejoin:miter;stroke-miterlimit:4;stroke-opacity:1;stroke-dasharray:none;marker-start:none;marker-end:url(#Arrow2Lend)"
       d="m 312.88741,837.59107 -0.0488,93.08943"
       id="path6157"
       inkscape:connector-curvature="0"
       sodipodi:nodetypes="cc" />
    <path
       sodipodi:nodetypes="cssc"
       inkscape:connector-curvature="0"
       id="path6159"
       d="m 275.54383,826.78158 c -51.21951,-25.20325 -114.75987,12.59686 -114.75987,87.39361 0,36.58537 22.76423,68.22765 56.09756,68.22765 59.23505,0 64.03717,-76.40648 64.03717,-76.40648"
       style="fill:none;stroke:#000000;stroke-width:4;stroke-linecap:butt;stroke-linejoin:miter;stroke-miterlimit:4;stroke-opacity:1;stroke-dasharray:none;stroke-dashoffset:0" />
    <path
       style="fill:none;stroke:#000000;stroke-width:4;stroke-linecap:butt;stroke-linejoin:miter;stroke-miterlimit:4;stroke-opacity:1;stroke-dasharray:none;stroke-dashoffset:0"
       d="m 281.10917,826.19145 0,107.12196 c 0,0 -4.36444,38.82686 30.08912,45.04794"
       id="path6161"
       inkscape:connector-curvature="0"
       sodipodi:nodetypes="ccc" />
    <path
       sodipodi:nodetypes="csc"
       inkscape:connector-curvature="0"
       id="path6167"
       d="m 458.34339,816.9882 c 16.15273,-17.56348 37.58279,-22.04758 54.81518,-22.04758 121.09023,0 122.05837,271.48078 -95.22169,202.03133"
       style="fill:none;stroke:#4e4e4e;stroke-width:2;stroke-linecap:butt;stroke-linejoin:miter;stroke-miterlimit:4;stroke-opacity:1;stroke-dasharray:none;marker-start:none;marker-end:url(#Arrow2Lend)" />
    <path
       inkscape:connector-curvature="0"
       id="path6169"
       d="m 431.7293,727.11828 0,249.518"
       style="fill:none;stroke:#000000;stroke-width:4;stroke-linecap:butt;stroke-linejoin:miter;stroke-miterlimit:4;stroke-opacity:1;stroke-dasharray:none;stroke-dashoffset:0"
       sodipodi:nodetypes="cc" />
    <path
       sodipodi:nodetypes="cssc"
       inkscape:connector-curvature="0"
       id="path6171"
       d="m 431.93407,876.9095 c 0,0 21.14842,-52.74229 65.22441,-52.74229 28.81198,0 55.82094,19.62044 56.45786,62.93083 0.9032,61.41716 -35.79847,111.08931 -123.98967,90.61635"
       style="fill:none;stroke:#000000;stroke-width:4;stroke-linecap:butt;stroke-linejoin:miter;stroke-miterlimit:4;stroke-opacity:1;stroke-dasharray:none;stroke-dashoffset:0" />
    <path
       style="fill:none;stroke:#4e4e4e;stroke-width:2;stroke-linecap:butt;stroke-linejoin:miter;stroke-miterlimit:4;stroke-opacity:1;stroke-dasharray:none;marker-start:url(#DotM);marker-mid:none;marker-end:url(#Arrow2Lend)"
       d="m 400.28455,724.61422 -0.87805,260.60163 c 0,0 21.55167,-69.86182 25.2869,-82.55524"
       id="path6173"
       inkscape:connector-curvature="0"
       sodipodi:nodetypes="ccc" />
    <path
       style="fill:none;stroke:#4e4e4e;stroke-width:2;stroke-linecap:butt;stroke-linejoin:miter;stroke-miterlimit:4;stroke-opacity:1;stroke-dasharray:none;marker-start:url(#DotM);marker-mid:none;marker-end:url(#Arrow2Lend)"
       d="m 785.4809,806.96861 c -60.04502,-34.44598 -147.74572,0.91243 -147.74572,96.40868 0,68.72383 56.73097,121.81871 136.96341,97.26561"
       id="path6179"
       inkscape:connector-curvature="0"
       sodipodi:nodetypes="csc" />
    <path
       sodipodi:nodetypes="cc"
       inkscape:connector-curvature="0"
       id="path6181"
       d="m 791.19167,965.38657 c 11.17761,-4.64031 25.78114,-12.86485 44.39555,-25.25747"
       style="fill:none;stroke:#4e4e4e;stroke-width:2;stroke-linecap:butt;stroke-linejoin:miter;stroke-miterlimit:4;stroke-opacity:1;stroke-dasharray:none;marker-start:none;marker-end:url(#Arrow2Lend)" />
    <path
       style="fill:none;stroke:#000000;stroke-width:4;stroke-linecap:butt;stroke-linejoin:miter;stroke-miterlimit:4;stroke-opacity:1;stroke-dasharray:none;stroke-dashoffset:0"
       d="m 782.62601,832.54745 c -51.21951,-25.20325 -111.70905,-8.13944 -111.70905,66.65731 0,62.37586 46.58477,99.32931 108.42832,72.69934"
       id="path6183"
       inkscape:connector-curvature="0"
       sodipodi:nodetypes="ccc" />
    <path
       style="fill:none;stroke:#4e4e4e;stroke-width:2;stroke-linecap:butt;stroke-linejoin:miter;stroke-miterlimit:4;stroke-opacity:1;stroke-dasharray:none;marker-start:none;marker-end:url(#Arrow2Lend)"
       d="m 447.90151,882.36217 c 17.12596,-38.7451 51.45966,-57.57352 82.42736,-19.71388"
       id="path6185"
       inkscape:connector-curvature="0"
       sodipodi:nodetypes="cc" />
    <g
       style="font-size:365.48626709px;font-style:normal;font-weight:normal;line-height:125%;letter-spacing:0px;word-spacing:0px;fill:#333333;fill-opacity:1;stroke:none;font-family:Sans"
       id="text6187">
      <path
         d="m 158.67691,1405.6296 2.49844,-23.9137 c -2.85536,0.1785 -5.53226,0.1785 -8.0307,0.1785 -32.30125,0 -33.72896,-12.8492 -33.72896,-35.1567 l 0,-221.2905 -30.338214,0 0,220.2198 c 0,32.4797 3.569253,60.498 55.322624,60.498 4.4615,0 9.10147,-0.1785 14.27681,-0.5354"
         style="font-variant:normal;font-stretch:normal;fill:#333333;font-family:Topmarks;-inkscape-font-specification:Topmarks"
         id="path3117"
         inkscape:connector-curvature="0" />
      <path
         d="m 273.85755,1405.6296 2.49844,-23.9137 c -2.6769,0.1785 -4.99688,0.1785 -7.31686,0.1785 -29.08897,0 -29.089,-12.8492 -29.089,-35.1567 l 0,-125.9928 -30.33821,0 0,124.9221 c 0,32.4797 2.14157,60.498 50.86112,60.498 4.10458,0 8.56609,-0.1785 13.38451,-0.5354 m -47.64885,-222.3613 0.17846,0 c 10.52914,0 20.87984,-6.603 20.87984,-19.6306 0,-13.206 -10.52916,-19.9875 -20.87984,-19.9875 l -0.17846,0 c -10.70759,0 -21.41521,6.603 -21.41521,19.809 0,13.0276 10.70762,19.8091 21.41521,19.8091"
         style="font-variant:normal;font-stretch:normal;fill:#333333;font-family:Topmarks;-inkscape-font-specification:Topmarks"
         id="path3119" />
      <path
         d="m 407.70261,1405.6296 2.49844,-23.9137 c -3.21227,0.1785 -6.2461,0.1785 -9.10146,0.1785 -36.76274,0 -39.7966,-12.8492 -39.7966,-35.1567 l 0,-184.3492 -30.33822,0 0,183.2785 c 0,32.4797 6.60308,60.498 61.56874,60.498 4.63995,0 9.81531,-0.1785 15.1691,-0.5354 m -112.96523,-165.9679 117.06982,0 0,-18.9168 -117.06982,0 0,18.9168"
         style="font-variant:normal;font-stretch:normal;fill:#333333;font-family:Topmarks;-inkscape-font-specification:Topmarks"
         id="path3121" />
    </g>
    <g
       style="font-size:137.14900208px;font-style:normal;font-weight:normal;line-height:125%;letter-spacing:0px;word-spacing:0px;fill:#333333;fill-opacity:1;stroke:none;font-family:Sans"
       id="text6203"
       transform="translate(-480,830)" />
    <text
       sodipodi:linespacing="125%"
       id="text6191"
       y="1743.845"
       x="14.887016"
       style="font-size:365.48626708999995572px;font-style:normal;font-weight:normal;line-height:125%;letter-spacing:0px;word-spacing:0px;fill:#1b84cb;fill-opacity:1;stroke:none;font-family:Sans;opacity:0.93577982000000004"
       xml:space="preserve"><tspan
         style="font-style:normal;font-variant:normal;font-weight:bold;font-stretch:normal;letter-spacing:29.93000031000000050px;fill:#1b84cb;fill-opacity:1;font-family:Topmarks;-inkscape-font-specification:Topmarks Bold"
         y="1743.845"
         x="14.887016"
         id="tspan6193"
         sodipodi:role="line">nau</tspan></text>
    <path
       sodipodi:nodetypes="csc"
       inkscape:connector-curvature="0"
       id="path3944"
       d="m 555.13172,1125.872 c 0,0 0,180.6389 0,210.509 0,29.8701 -3.08782,59.7401 52.09587,57.2088"
       style="fill:none;stroke:#000000;stroke-width:4;stroke-linecap:butt;stroke-linejoin:miter;stroke-miterlimit:4;stroke-opacity:1;stroke-dasharray:none" />
    <path
       style="fill:none;stroke:#000000;stroke-width:4;stroke-linecap:butt;stroke-linejoin:miter;stroke-miterlimit:4;stroke-opacity:1;stroke-dasharray:none"
       d="m 676.84855,1220.8093 c 0,0 0,85.7016 0,115.5717 0,29.8701 -6.12545,59.7401 49.05824,57.2088"
       id="path3946"
       inkscape:connector-curvature="0"
       sodipodi:nodetypes="csc" />
    <path
       style="fill:none;stroke:#000000;stroke-width:4;stroke-linecap:butt;stroke-linejoin:miter;stroke-miterlimit:4;stroke-opacity:1;stroke-dasharray:none"
       d="m 798.29212,1162.8595 c 0,0 0,143.6514 0,173.5215 0,29.8701 -1.16309,63.284 61.61469,57.2088"
       id="path3948"
       inkscape:connector-curvature="0"
       sodipodi:nodetypes="csc" />
    <path
       sodipodi:nodetypes="cc"
       inkscape:connector-curvature="0"
       id="path3950"
       d="m 869.00402,1391.1248 c 13.1662,-1.3029 31.27653,-7.8802 38.34714,-10.5125"
       style="fill:none;stroke:#4e4e4e;stroke-width:2;stroke-linecap:butt;stroke-linejoin:miter;stroke-miterlimit:4;stroke-opacity:1;stroke-dasharray:none;marker-start:none;marker-end:url(#Arrow2Lend)" />
    <path
       style="fill:none;stroke:#4e4e4e;stroke-width:2;stroke-linecap:butt;stroke-linejoin:miter;stroke-miterlimit:4;stroke-opacity:1;stroke-dasharray:none;marker-start:none;marker-end:url(#Arrow2Lend)"
       d="m 734.54835,1391.1248 c 13.1662,-1.3029 31.27653,-7.8802 38.34714,-10.5125"
       id="path3952"
       inkscape:connector-curvature="0"
       sodipodi:nodetypes="cc" />
    <path
       sodipodi:nodetypes="cc"
       inkscape:connector-curvature="0"
       id="path3954"
       d="m 618.51611,1391.1248 c 13.1662,-1.3029 31.27653,-7.8802 38.34714,-10.5125"
       style="fill:none;stroke:#4e4e4e;stroke-width:2;stroke-linecap:butt;stroke-linejoin:miter;stroke-miterlimit:4;stroke-opacity:1;stroke-dasharray:none;marker-start:none;marker-end:url(#Arrow2Lend)" />
    <path
       style="fill:none;stroke:#4e4e4e;stroke-width:2;stroke-linecap:butt;stroke-linejoin:miter;stroke-miterlimit:4;stroke-opacity:1;stroke-dasharray:none;marker-start:none;marker-end:url(#Arrow2Lend)"
       d="m 588.16068,1126.357 c 0,0 -0.73776,195.8136 -0.73776,223.2126"
       id="path3956"
       inkscape:connector-curvature="0"
       sodipodi:nodetypes="cc" />
    <path
       sodipodi:nodetypes="cc"
       inkscape:connector-curvature="0"
       id="path3958"
       d="m 708.16068,1226.357 c 0,0 -0.73776,95.8136 -0.73776,123.2126"
       style="fill:none;stroke:#4e4e4e;stroke-width:2;stroke-linecap:butt;stroke-linejoin:miter;stroke-miterlimit:4;stroke-opacity:1;stroke-dasharray:none;marker-start:none;marker-end:url(#Arrow2Lend)" />
    <path
       sodipodi:nodetypes="cc"
       inkscape:connector-curvature="0"
       id="path3960"
       d="m 836.16068,1164.357 c 0,0 -0.73776,157.8136 -0.73776,185.2126"
       style="fill:none;stroke:#4e4e4e;stroke-width:2;stroke-linecap:butt;stroke-linejoin:miter;stroke-miterlimit:4;stroke-opacity:1;stroke-dasharray:none;marker-start:none;marker-end:url(#Arrow2Lend)" />
    <path
       sodipodi:nodetypes="cc"
       inkscape:connector-curvature="0"
       id="path4020"
       d="m 209.7832,1733.7823 c 34.88871,0.5252 59.92885,-12.2044 66.99946,-14.8367"
       style="fill:none;stroke:#262626;stroke-width:2;stroke-linecap:butt;stroke-linejoin:miter;stroke-miterlimit:4;stroke-opacity:1;stroke-dasharray:none;marker-start:none;marker-end:url(#Arrow2Lend)" />
    <path
       style="fill:none;stroke:#252525;stroke-width:2;stroke-linecap:butt;stroke-linejoin:miter;stroke-miterlimit:4;stroke-opacity:1;stroke-dasharray:none;marker-start:none;marker-end:url(#Arrow2Lend)"
       d="m 550.50369,1515.7859 c 4.22547,16.6651 5.46703,28.0435 6.84475,49.0409"
       id="path4022"
       inkscape:connector-curvature="0"
       sodipodi:nodetypes="cc" />
    <path
       sodipodi:nodetypes="cc"
       inkscape:connector-curvature="0"
       id="path3120"
       d="m 491.96641,1602.3388 c -21.7694,-17.0912 -51.0657,-22.7015 -74.9043,-23.1634"
       style="fill:none;stroke:#191919;stroke-width:2;stroke-linecap:butt;stroke-linejoin:miter;stroke-miterlimit:4;stroke-opacity:1;stroke-dasharray:none;marker-start:none;marker-end:url(#Arrow2Lend)" />
    <path
       sodipodi:nodetypes="cc"
       inkscape:connector-curvature="0"
       id="path3105"
       d="m 48.899948,1515.7859 c 4.22547,16.6651 5.46703,28.0435 6.84475,49.0409"
       style="fill:none;stroke:#252525;stroke-width:2;stroke-linecap:butt;stroke-linejoin:miter;stroke-miterlimit:4;stroke-opacity:1;stroke-dasharray:none;marker-start:none;marker-end:url(#Arrow2Lend)" />
    <path
       sodipodi:type="arc"
       style="opacity:0.7;fill:none;stroke:#252525;stroke-width:1;stroke-miterlimit:4;stroke-opacity:1;stroke-dasharray:none;stroke-dashoffset:0"
       id="path3107"
       sodipodi:cx="38.075436"
       sodipodi:cy="1269.9471"
       sodipodi:rx="29.842911"
       sodipodi:ry="29.842911"
       d="m 67.918346,1269.9471 c 0,16.4818 -13.361126,29.843 -29.84291,29.843 -16.481785,0 -29.8429111,-13.3612 -29.8429111,-29.843 0,-16.4817 13.3611261,-29.8429 29.8429111,-29.8429 16.481784,0 29.84291,13.3612 29.84291,29.8429 z"
       transform="matrix(1.1288753,0,0,1.1288753,420.4421,300.51339)" />
    <path
       style="fill:none;stroke:#262626;stroke-width:2;stroke-linecap:butt;stroke-linejoin:miter;stroke-miterlimit:4;stroke-opacity:1;stroke-dasharray:none;marker-start:none;marker-end:url(#Arrow2Lend)"
       d="m 457.22183,1733.7823 c 34.88871,0.5252 59.92885,-12.2044 66.99946,-14.8367"
       id="path3109"
       inkscape:connector-curvature="0"
       sodipodi:nodetypes="cc" />
    <path
       transform="matrix(1.1288753,0,0,1.1288753,671.24397,300.51339)"
       d="m 67.918346,1269.9471 c 0,16.4818 -13.361126,29.843 -29.84291,29.843 -16.481785,0 -29.8429111,-13.3612 -29.8429111,-29.843 0,-16.4817 13.3611261,-29.8429 29.8429111,-29.8429 16.481784,0 29.84291,13.3612 29.84291,29.8429 z"
       sodipodi:ry="29.842911"
       sodipodi:rx="29.842911"
       sodipodi:cy="1269.9471"
       sodipodi:cx="38.075436"
       id="path3111"
       style="opacity:0.7;fill:none;stroke:#252525;stroke-width:1;stroke-miterlimit:4;stroke-opacity:1;stroke-dasharray:none;stroke-dashoffset:0"
       sodipodi:type="arc" />
    <path
       sodipodi:nodetypes="cc"
       inkscape:connector-curvature="0"
       id="path3113"
       d="m 708.0237,1733.7823 c 34.88871,0.5252 59.92885,-12.2044 66.99946,-14.8367"
       style="fill:none;stroke:#262626;stroke-width:2;stroke-linecap:butt;stroke-linejoin:miter;stroke-miterlimit:4;stroke-opacity:1;stroke-dasharray:none;marker-start:none;marker-end:url(#Arrow2Lend)" />
    <text
       xml:space="preserve"
       style="font-size:365.48626708999995572px;font-style:normal;font-weight:normal;line-height:125%;letter-spacing:0px;word-spacing:0px;opacity:1;fill:#5c5c5c;fill-opacity:1;stroke:none;font-family:Sans"
       x="36.887016"
       y="2188.7542"
       id="text3104"
       sodipodi:linespacing="125%"><tspan
         sodipodi:role="line"
         id="tspan3106"
         x="36.887016"
         y="2188.7542"
         style="font-style:normal;font-variant:normal;font-weight:bold;font-stretch:normal;letter-spacing:29.93000031000000050px;fill:#5c5c5c;fill-opacity:1;font-family:Topmarks;-inkscape-font-specification:Topmarks Bold">a</tspan></text>
    <text
       sodipodi:linespacing="125%"
       id="text3108"
       y="2188.7542"
       x="-183.14203"
       style="font-size:365.48626708999995572px;font-style:normal;font-weight:normal;line-height:125%;letter-spacing:0px;word-spacing:0px;fill:#5c5c5c;fill-opacity:1;stroke:none;font-family:Sans"
       xml:space="preserve"><tspan
         style="font-style:normal;font-variant:normal;font-weight:500;font-stretch:normal;letter-spacing:29.93000031000000050px;fill:#5c5c5c;fill-opacity:1;font-family:Muli;-inkscape-font-specification:Muli Medium"
         y="2188.7542"
         x="-183.14203"
         id="tspan3110"
         sodipodi:role="line">a</tspan></text>
    <text
       sodipodi:linespacing="125%"
       id="text3112"
       y="2188.7542"
       x="457.61661"
       style="font-size:365.48626708999995572px;font-style:normal;font-weight:normal;line-height:125%;letter-spacing:0px;word-spacing:0px;fill:#5c5c5c;fill-opacity:1;stroke:none;font-family:Sans"
       xml:space="preserve"><tspan
         style="font-style:normal;font-variant:normal;font-weight:bold;font-stretch:normal;letter-spacing:29.93000031000000050px;fill:#5c5c5c;fill-opacity:1;font-family:Topmarks;-inkscape-font-specification:Topmarks Bold"
         y="2188.7542"
         x="457.61661"
         id="tspan3114"
         sodipodi:role="line">e</tspan></text>
    <text
       xml:space="preserve"
       style="font-size:365.48626708999995572px;font-style:normal;font-weight:normal;line-height:125%;letter-spacing:0px;word-spacing:0px;fill:#5c5c5c;fill-opacity:1;stroke:none;font-family:Sans"
       x="251.58757"
       y="2188.7542"
       id="text3116"
       sodipodi:linespacing="125%"><tspan
         sodipodi:role="line"
         id="tspan3118"
         x="251.58757"
         y="2188.7542"
         style="font-style:normal;font-variant:normal;font-weight:500;font-stretch:normal;letter-spacing:29.93000031000000050px;fill:#5c5c5c;fill-opacity:1;font-family:Muli;-inkscape-font-specification:Muli Medium">e</tspan></text>
    <rect
       style="opacity:0.3274648;fill:#ffffff;fill-opacity:1"
       id="rect3912"
       width="429.53424"
       height="264.25485"
       x="255.4502"
       y="1958.5161" />
  </g>
</svg>
