<?xml version="1.0" encoding="UTF-8" standalone="no"?>
<!-- Created with Inkscape (http://www.inkscape.org/) -->

<svg
   xmlns:dc="http://purl.org/dc/elements/1.1/"
   xmlns:cc="http://creativecommons.org/ns#"
   xmlns:rdf="http://www.w3.org/1999/02/22-rdf-syntax-ns#"
   xmlns:svg="http://www.w3.org/2000/svg"
   xmlns="http://www.w3.org/2000/svg"
   xmlns:sodipodi="http://sodipodi.sourceforge.net/DTD/sodipodi-0.dtd"
   xmlns:inkscape="http://www.inkscape.org/namespaces/inkscape"
   version="1.1"
   width="227.8932"
   height="208.69795"
   id="svg2"
   inkscape:version="0.48.4 r"
   sodipodi:docname="e_e.svg">
  <sodipodi:namedview
     pagecolor="#ffffff"
     bordercolor="#666666"
     borderopacity="1"
     objecttolerance="10"
     gridtolerance="10"
     guidetolerance="10"
     inkscape:pageopacity="0"
     inkscape:pageshadow="2"
     inkscape:window-width="640"
     inkscape:window-height="480"
     id="namedview3114"
     showgrid="false"
     inkscape:zoom="1.1308209"
     inkscape:cx="113.9466"
     inkscape:cy="104.34898"
     inkscape:window-x="0"
     inkscape:window-y="22"
     inkscape:window-maximized="0"
     inkscape:current-layer="svg2" />
  <defs
     id="defs4" />
  <metadata
     id="metadata7">
    <rdf:RDF>
      <cc:Work
         rdf:about="">
        <dc:format>image/svg+xml</dc:format>
        <dc:type
           rdf:resource="http://purl.org/dc/dcmitype/StillImage" />
        <dc:title />
      </cc:Work>
    </rdf:RDF>
  </metadata>
  <g
     transform="translate(-91.659863,-406.55267)"
     id="layer1">
    <g
       style="font-size:77.58502197px;font-style:normal;font-weight:normal;line-height:125%;letter-spacing:0px;word-spacing:0px;opacity:0.3;fill:#333333;fill-opacity:1;stroke:none;font-family:Sans"
       id="text2985">
      <path
         d="m 156.5677,489.16777 98.4966,0 c -1.89433,-14.5218 -6.88229,-25.63422 -14.96391,-33.33731 -8.08191,-7.70278 -18.18412,-11.55424 -30.30664,-11.55441 -13.89066,1.7e-4 -25.50819,3.97791 -34.85265,11.93324 -9.34462,7.95564 -15.46908,18.94179 -18.3734,32.95848 m 56.82496,124.06784 c -32.32718,-10e-6 -57.83525,-9.28141 -76.52428,-27.84423 -18.68913,-18.68906 -28.03367,-43.18691 -28.03365,-73.49362 -2e-5,-18.56271 3.85145,-35.4839 11.55441,-50.76363 7.7029,-15.40572 19.13102,-27.84406 34.28439,-37.31506 15.27952,-9.47064 32.89524,-14.20605 52.84722,-14.20624 15.02691,1.9e-4 28.15978,2.65202 39.39864,7.95549 11.36482,5.17757 20.39367,12.43853 27.08657,21.7829 6.8188,9.21843 11.8699,19.82575 15.15332,31.82198 3.28302,11.87023 4.92462,25.0031 4.92483,39.39864 -2.1e-4,3.15704 -0.3159,5.99829 -0.94708,8.52375 l -137.327,0 c 0.7576,19.44683 6.62951,33.96875 17.61574,43.5658 10.98606,9.59714 25.57112,14.39569 43.75522,14.39566 21.59334,3e-5 41.98717,-7.00837 61.18155,-21.02524 l 12.31207,32.57965 c -22.73016,16.4161 -48.49079,24.62414 -77.28195,24.62415"
         style="font-size:387.92507935px;font-variant:normal;font-weight:bold;font-stretch:normal;fill:#333333;font-family:Muli;-inkscape-font-specification:Muli Bold"
         id="path3117" />
    </g>
    <g
       transform="scale(1.0279194,0.97283892)"
       style="font-size:79.75114441px;font-style:normal;font-weight:normal;line-height:125%;letter-spacing:0px;word-spacing:0px;opacity:0.3;fill:#333333;fill-opacity:1;stroke:none;font-family:Sans"
       id="text2989">
      <path
         d="m 202.4036,630.16217 c 24.5328,0 54.3227,-7.59351 75.93493,-26.47987 l -17.13404,-30.95809 c -21.41752,17.71813 -40.30394,21.22284 -56.46443,21.22284 -20.83341,0 -42.05628,-17.71817 -46.92389,-37.96746 82.94422,-12.85052 114.87592,-40.30397 114.87592,-76.12964 0,-28.6216 -23.94876,-58.02208 -67.75733,-58.02208 -55.10144,0 -98.13129,45.17161 -98.13129,103.97245 0,66.39432 45.56101,104.36185 95.60013,104.36185 m -48.87094,-106.1142 0,-2.92057 c 0,-29.59512 19.47052,-64.05793 49.26035,-64.05793 15.18697,0 24.33812,8.56703 24.33812,21.22284 0,22.19634 -16.74469,33.29456 -73.59847,45.75566"
         style="font-size:398.7557373px;font-variant:normal;font-weight:bold;font-stretch:normal;fill:#333333;font-family:Topmarks;-inkscape-font-specification:Topmarks Bold"
         id="path3120" />
    </g>
  </g>
</svg>
