<?xml version="1.0" encoding="UTF-8" standalone="no"?>
<!-- Created with Inkscape (http://www.inkscape.org/) -->

<svg
   xmlns:dc="http://purl.org/dc/elements/1.1/"
   xmlns:cc="http://creativecommons.org/ns#"
   xmlns:rdf="http://www.w3.org/1999/02/22-rdf-syntax-ns#"
   xmlns:svg="http://www.w3.org/2000/svg"
   xmlns="http://www.w3.org/2000/svg"
   version="1.1"
   width="345.69531"
   height="108.88281"
   id="svg3054">
  <defs
     id="defs3056" />
  <metadata
     id="metadata3059">
    <rdf:RDF>
      <cc:Work
         rdf:about="">
        <dc:format>image/svg+xml</dc:format>
        <dc:type
           rdf:resource="http://purl.org/dc/dcmitype/StillImage" />
        <dc:title></dc:title>
      </cc:Work>
    </rdf:RDF>
  </metadata>
  <g
     transform="translate(-202.15234,-477.92078)"
     id="layer1">
    <g
       id="text2985"
       style="font-size:40px;font-style:normal;font-weight:normal;line-height:125%;letter-spacing:0px;word-spacing:0px;opacity:0.5;fill:#454837;fill-opacity:1;stroke:none;font-family:Sans">
      <path
         d="m 347.21875,527.38171 c 33.13796,6e-5 49.70695,-6.24993 49.70703,-18.75 -8e-5,-4.68742 -1.56257,-8.4309 -4.6875,-11.23046 -3.05996,-2.7994 -7.35684,-4.19913 -12.89062,-4.19922 -8.5287,9e-5 -15.85291,3.02743 -21.97266,9.08203 -6.11982,6.05476 -9.50524,14.42064 -10.15625,25.09765 m 31.93359,57.42188 c -6.70578,0 -13.02088,-1.13933 -18.94531,-3.41797 -5.85941,-2.34375 -11.03518,-5.6315 -15.52734,-9.86328 -4.42711,-4.29686 -7.94273,-9.73305 -10.54688,-16.30859 -2.53907,-6.57549 -3.8086,-13.86715 -3.80859,-21.875 -1e-5,-7.29161 1.10676,-14.1601 3.32031,-20.60547 2.21353,-6.44524 5.37108,-12.1093 9.47266,-16.99219 4.10153,-4.88272 9.24476,-8.72386 15.42968,-11.52344 6.24996,-2.86448 13.15099,-4.29677 20.70313,-4.29687 9.96087,1e-4 18.03378,2.76702 24.21875,8.30078 6.24991,5.53394 9.37491,12.43498 9.375,20.70312 -9e-5,5.72924 -1.85556,10.6446 -5.56641,14.7461 -3.64591,4.10161 -8.72403,7.25916 -15.23437,9.47265 -6.44538,2.14849 -13.31386,3.71099 -20.60547,4.6875 -7.29171,0.9115 -15.29952,1.36723 -24.02344,1.36719 1.17185,10.28649 4.65492,18.26174 10.44922,23.92578 5.85933,5.59897 13.31375,8.39845 22.36328,8.39844 4.55723,10e-6 8.88665,-0.65103 12.98828,-1.95313 4.10149,-1.30207 7.29159,-2.66925 9.57032,-4.10156 2.27856,-1.43227 4.75251,-3.25519 7.42187,-5.46875 l 6.64063,10.74219 c -6.05478,4.88282 -12.01181,8.46354 -17.8711,10.74219 -5.79434,2.21354 -12.40241,3.32031 -19.82422,3.32031"
         id="path3084"
         style="font-size:200px;font-variant:normal;font-stretch:normal;fill:#454837;font-family:Topmarks;-inkscape-font-specification:Topmarks" />
    </g>
    <g
       id="text2989"
       style="font-size:40px;font-style:normal;font-weight:normal;line-height:125%;letter-spacing:0px;word-spacing:0px;opacity:0.5;fill:#454837;fill-opacity:1;stroke:none;font-family:Sans">
      <path
         d="m 350.39062,522.59656 59.27735,0 c -0.84644,-9.17962 -3.84123,-16.17831 -8.98438,-20.9961 -5.0782,-4.81762 -11.5235,-7.22647 -19.33593,-7.22656 -8.20318,9e-5 -15.10422,2.47405 -20.70313,7.42188 -5.53389,4.94799 -8.95185,11.88158 -10.25391,20.80078 m 33.69141,62.20703 c -16.14588,0 -29.00394,-4.6875 -38.57422,-14.0625 -9.57032,-9.44008 -14.35548,-22.07028 -14.35547,-37.89063 -10e-6,-10.28639 2.05077,-19.43352 6.15235,-27.4414 4.10154,-8.00773 9.96091,-14.25772 17.57812,-18.75 7.61715,-4.49209 16.3411,-6.73818 26.17188,-6.73828 7.03118,1e-4 13.37883,1.23708 19.04297,3.71093 5.66397,2.47406 10.35147,5.95713 14.0625,10.44922 3.71084,4.42717 6.54287,9.73315 8.49609,15.91797 2.01813,6.11986 3.02724,12.85813 3.02734,20.21485 -10e-5,0.0652 -0.0326,0.26046 -0.0976,0.58593 -1.1e-4,0.32557 -0.0327,0.94406 -0.0977,1.85547 -0.0652,0.91151 -0.0978,1.72531 -0.0977,2.44141 l -75.39062,0 c 0.0651,5.6641 0.97653,10.74222 2.73437,15.23437 1.75778,4.42711 4.16664,8.1055 7.22657,11.03516 3.12496,2.8646 6.77079,5.07814 10.9375,6.64062 4.23171,1.49741 8.88666,2.24611 13.96484,2.2461 12.30461,1e-5 22.94913,-3.77603 31.93359,-11.32813 l 5.46875,13.37891 c -10.22144,8.33333 -22.94929,12.5 -38.18359,12.5"
         id="path3087"
         style="font-size:200px;font-variant:normal;font-stretch:normal;fill:#454837;font-family:muli;-inkscape-font-specification:muli" />
    </g>
    <g
       id="text2993"
       style="font-size:40px;font-style:normal;font-weight:normal;line-height:125%;letter-spacing:0px;word-spacing:0px;fill:#454837;fill-opacity:1;stroke:none;font-family:Sans">
      <path
         d="m 476.21875,527.38171 c 33.13796,6e-5 49.70695,-6.24993 49.70703,-18.75 -8e-5,-4.68742 -1.56257,-8.4309 -4.6875,-11.23046 -3.05996,-2.7994 -7.35684,-4.19913 -12.89062,-4.19922 -8.5287,9e-5 -15.85291,3.02743 -21.97266,9.08203 -6.11982,6.05476 -9.50524,14.42064 -10.15625,25.09765 m 31.93359,57.42188 c -6.70578,0 -13.02088,-1.13933 -18.94531,-3.41797 -5.85941,-2.34375 -11.03518,-5.6315 -15.52734,-9.86328 -4.42711,-4.29686 -7.94273,-9.73305 -10.54688,-16.30859 -2.53907,-6.57549 -3.8086,-13.86715 -3.80859,-21.875 -1e-5,-7.29161 1.10676,-14.1601 3.32031,-20.60547 2.21353,-6.44524 5.37108,-12.1093 9.47266,-16.99219 4.10153,-4.88272 9.24476,-8.72386 15.42968,-11.52344 6.24996,-2.86448 13.15099,-4.29677 20.70313,-4.29687 9.96087,1e-4 18.03378,2.76702 24.21875,8.30078 6.24991,5.53394 9.37491,12.43498 9.375,20.70312 -9e-5,5.72924 -1.85556,10.6446 -5.56641,14.7461 -3.64591,4.10161 -8.72403,7.25916 -15.23437,9.47265 -6.44538,2.14849 -13.31386,3.71099 -20.60547,4.6875 -7.29171,0.9115 -15.29952,1.36723 -24.02344,1.36719 1.17185,10.28649 4.65492,18.26174 10.44922,23.92578 5.85933,5.59897 13.31375,8.39845 22.36328,8.39844 4.55723,10e-6 8.88665,-0.65103 12.98828,-1.95313 4.10149,-1.30207 7.29159,-2.66925 9.57032,-4.10156 2.27856,-1.43227 4.75251,-3.25519 7.42187,-5.46875 l 6.64063,10.74219 c -6.05478,4.88282 -12.01181,8.46354 -17.8711,10.74219 -5.79434,2.21354 -12.40241,3.32031 -19.82422,3.32031"
         id="path3090"
         style="font-size:200px;font-variant:normal;font-stretch:normal;fill:#454837;font-family:Topmarks;-inkscape-font-specification:Topmarks" />
    </g>
    <g
       id="text2997"
       style="font-size:40px;font-style:normal;font-weight:normal;line-height:125%;letter-spacing:0px;word-spacing:0px;fill:#454837;fill-opacity:1;stroke:none;font-family:Sans">
      <path
         d="m 223.39062,522.59656 59.27735,0 c -0.84644,-9.17962 -3.84123,-16.17831 -8.98438,-20.9961 -5.0782,-4.81762 -11.5235,-7.22647 -19.33593,-7.22656 -8.20318,9e-5 -15.10422,2.47405 -20.70313,7.42188 -5.53389,4.94799 -8.95185,11.88158 -10.25391,20.80078 m 33.69141,62.20703 c -16.14588,0 -29.00394,-4.6875 -38.57422,-14.0625 -9.57032,-9.44008 -14.35548,-22.07028 -14.35547,-37.89063 -1e-5,-10.28639 2.05077,-19.43352 6.15235,-27.4414 4.10154,-8.00773 9.96091,-14.25772 17.57812,-18.75 7.61715,-4.49209 16.3411,-6.73818 26.17188,-6.73828 7.03118,1e-4 13.37883,1.23708 19.04297,3.71093 5.66397,2.47406 10.35147,5.95713 14.0625,10.44922 3.71084,4.42717 6.54287,9.73315 8.49609,15.91797 2.01813,6.11986 3.02724,12.85813 3.02734,20.21485 -10e-5,0.0652 -0.0326,0.26046 -0.0976,0.58593 -1.1e-4,0.32557 -0.0327,0.94406 -0.0977,1.85547 -0.0652,0.91151 -0.0978,1.72531 -0.0977,2.44141 l -75.39062,0 c 0.0651,5.6641 0.97653,10.74222 2.73437,15.23437 1.75778,4.42711 4.16664,8.1055 7.22657,11.03516 3.12496,2.8646 6.77079,5.07814 10.9375,6.64062 4.23171,1.49741 8.88666,2.24611 13.96484,2.2461 12.30461,1e-5 22.94913,-3.77603 31.93359,-11.32813 l 5.46875,13.37891 c -10.22144,8.33333 -22.94929,12.5 -38.18359,12.5"
         id="path3093"
         style="font-size:200px;font-variant:normal;font-stretch:normal;fill:#454837;font-family:muli;-inkscape-font-specification:muli" />
    </g>
  </g>
</svg>
