<?xml version="1.0" encoding="UTF-8" standalone="no"?>
<!-- Created with Inkscape (http://www.inkscape.org/) -->

<svg
   xmlns:dc="http://purl.org/dc/elements/1.1/"
   xmlns:cc="http://creativecommons.org/ns#"
   xmlns:rdf="http://www.w3.org/1999/02/22-rdf-syntax-ns#"
   xmlns:svg="http://www.w3.org/2000/svg"
   xmlns="http://www.w3.org/2000/svg"
   xmlns:sodipodi="http://sodipodi.sourceforge.net/DTD/sodipodi-0.dtd"
   xmlns:inkscape="http://www.inkscape.org/namespaces/inkscape"
   version="1.1"
   width="234.54854"
   height="528.99005"
   id="svg4689"
   inkscape:version="0.48.4 r"
   sodipodi:docname="fruit2.svg">
  <sodipodi:namedview
     pagecolor="#ffffff"
     bordercolor="#666666"
     borderopacity="1"
     objecttolerance="10"
     gridtolerance="10"
     guidetolerance="10"
     inkscape:pageopacity="0"
     inkscape:pageshadow="2"
     inkscape:window-width="1197"
     inkscape:window-height="866"
     id="namedview6624"
     showgrid="false"
     inkscape:zoom="2.4132117"
     inkscape:cx="90.978194"
     inkscape:cy="150.38962"
     inkscape:window-x="0"
     inkscape:window-y="22"
     inkscape:window-maximized="0"
     inkscape:current-layer="svg4689" />
  <defs
     id="defs4691" />
  <metadata
     id="metadata4694">
    <rdf:RDF>
      <cc:Work
         rdf:about="">
        <dc:format>image/svg+xml</dc:format>
        <dc:type
           rdf:resource="http://purl.org/dc/dcmitype/StillImage" />
        <dc:title />
      </cc:Work>
    </rdf:RDF>
  </metadata>
  <text
     sodipodi:linespacing="125%"
     style="font-size:40px;font-style:normal;font-weight:normal;line-height:125%;letter-spacing:0px;word-spacing:0px;fill:#333333;fill-opacity:1;stroke:none;font-family:Sans"
     xml:space="preserve"
     id="text11705-0"
     y="525.51746"
     x="44.818203"><tspan
       style="font-size:44px;font-style:normal;font-variant:normal;font-weight:normal;font-stretch:normal;fill:#333333;font-family:Topmarks;-inkscape-font-specification:Topmarks"
       id="tspan11707-9"
       y="525.51746"
       x="44.818203">Lemon</tspan></text>
  <path
     d="m 16.674986,408.83668 -12.6720005,5.1039 6.3046005,22.4674 c 0,0 8.2851,-8.1634 12.296,-7.3613 4.011,0.8035 -5.9286,-20.21 -5.9286,-20.21"
     id="path7647"
     style="fill:#778a2c;fill-opacity:1;fill-rule:nonzero;stroke:none"
     inkscape:connector-curvature="0" />
  <path
     d="m 49.063086,333.56798 c 0,0 -19.5406,16.9562 -25.9456,37.3831 -6.4049,20.4268 -9.6011,40.2809 -6.7935,48.225 2.8077,7.9441 23.677,32.0611 35.8226,37.5535 12.158,5.4937 58.597004,20.1486 90.910004,3.1975 32.3255,-16.9512 49.2716,-26.7717 56.767,-40.484 7.4954,-13.7123 11.9701,-33.5877 16.8209,-39.1315 4.8381,-5.5439 13.9002,-17.2533 12.4965,-24.8414 -1.4039,-7.5894 -10.2279,-10.8571 -17.4976,-13.3915 -7.2824,-2.5356 -27.0863,-21.2341 -33.4287,-25.9331 -6.3422,-4.699 -52.192,-28.4976 -129.151604,17.4224"
     id="path7649"
     style="fill:#fcec00;fill-opacity:1;fill-rule:nonzero;stroke:none"
     inkscape:connector-curvature="0" />
  <path
     d="m 17.928386,409.08648 -12.6720005,5.1052 6.3047005,22.4674 c 0,0 8.285,-8.166 12.2959,-7.3626 4.011,0.801 -5.9286,-20.21 -5.9286,-20.21 z"
     id="path7651"
     style="fill:none;stroke:#5e5a5a;stroke-width:1.25000453;stroke-linecap:butt;stroke-linejoin:miter;stroke-miterlimit:10;stroke-opacity:1;stroke-dasharray:none"
     inkscape:connector-curvature="0" />
  <path
     d="m 223.24989,347.31548 c 9.6262,12.5078 -22.06,30.0204 -31.2852,32.4283 -9.2251,2.4065 -24.0655,15.2465 -50.149,30.0919 -26.0835,14.8441 -83.853304,15.2465 -101.915004,0 -18.0491,-15.2478 -14.6022,-44.6466 -14.6022,-44.6466 -0.8273,1.8801 -1.5668,3.8041 -2.181,5.762 -6.4049,20.4268 -9.6011,40.2809 -6.7935,48.225 2.8077,7.9441 23.677,32.0611 35.8226,37.5535 12.158,5.4937 58.597004,20.1486 90.910004,3.1975 32.3255,-16.9512 49.2716,-26.7717 56.767,-40.484 7.4954,-13.7123 11.9701,-33.5877 16.8209,-39.1315 4.8381,-5.5439 13.9002,-17.2533 12.4965,-24.8414 -0.6644,-3.5359 -2.9205,-6.133 -5.8911,-8.1547"
     id="path7653"
     style="fill:#d6b900;fill-opacity:1;fill-rule:nonzero;stroke:none"
     inkscape:connector-curvature="0" />
  <path
     d="m 20.648386,411.16048 c 0,0 81.697304,73.826 170.037804,-9.8894 0,0 -35.6345,76.3529 -105.048504,60.0573 -69.4013,-16.2981 -64.9893,-50.1679 -64.9893,-50.1679"
     id="path7655"
     style="fill:#b89600;fill-opacity:1;fill-rule:nonzero;stroke:none"
     inkscape:connector-curvature="0" />
  <path
     d="m 115.73219,376.53498 c 12.4338,-5.6178 31.2977,-6.0189 31.2977,-17.6543 0,-11.6354 -24.4792,-21.6665 -39.7207,-14.8467 -15.241504,6.8211 -38.517304,23.672 -28.891104,35.7098 9.6263,12.0377 24.880304,2.4065 37.314104,-3.2088"
     id="path7657"
     style="fill:#ffffff;fill-opacity:1;fill-rule:nonzero;stroke:none"
     inkscape:connector-curvature="0" />
  <path
     d="m 5.4443855,419.08338 c 0,0 -5.03869998,4.4358 -3.8479,7.998 1.1907,3.5622 8.7111005,5.1452 8.7111005,5.1452 l -1.1781005,-6.5716 -3.6851,-6.5716"
     id="path7659"
     style="fill:#a3a819;fill-opacity:1;fill-rule:nonzero;stroke:none"
     inkscape:connector-curvature="0" />
  <path
     d="m 47.723515,335.1254 c 0,0 -19.51866,17.4302 -25.512449,38.00865 -5.993867,20.58084 -8.734774,40.50633 -5.66335,48.38036 3.084222,7.87065 25.057128,31.47012 37.6162,36.66415 12.572029,5.19196 60.422204,18.7012 93.003874,0.96126 32.56897,-17.73926 49.64257,-27.97207 56.93943,-41.86653 7.28407,-13.89368 11.32183,-33.87252 16.12634,-39.5341 4.81735,-5.65984 13.7542,-17.59091 12.12096,-25.14237 -1.64617,-7.5506 -10.73777,-10.60249 -18.2371,-12.95799 -7.51215,-2.35462 -28.24135,-20.56128 -34.84719,-25.10424 -6.60578,-4.54176 -54.11257,-27.20715 -131.546715,20.59081 z"
     id="path7661"
     style="fill:none;stroke:#6c6c6c;stroke-width:1.21336293;stroke-linecap:round;stroke-linejoin:round;stroke-miterlimit:10;stroke-opacity:1;stroke-dasharray:none"
     inkscape:connector-curvature="0" />
  <text
     sodipodi:linespacing="125%"
     style="font-size:40px;font-style:normal;font-weight:normal;line-height:125%;letter-spacing:0px;word-spacing:0px;fill:#333333;fill-opacity:1;stroke:none;font-family:Sans"
     xml:space="preserve"
     id="text11705-0-82"
     y="252.44009"
     x="1.0760149"><tspan
       style="font-size:44px;font-style:normal;font-variant:normal;font-weight:normal;font-stretch:normal;fill:#333333;font-family:Topmarks;-inkscape-font-specification:Topmarks"
       id="tspan11707-9-6"
       y="252.44009"
       x="1.0760149">Strawberry</tspan></text>
  <path
     d="m 123.62847,45.19613 c 0,0 31.89935,-15.55987 49.63389,3.59478 0,0 -19.6836,-33.26556 -49.63389,-3.59478"
     id="path7527"
     style="fill:#006837;fill-opacity:1;fill-rule:nonzero;stroke:none"
     inkscape:connector-curvature="0" />
  <path
     d="m 173.26236,48.79091 c 0,0 -24.57065,-3.45691 -49.63389,-3.59478 0,0 31.46693,-17.29083 49.63389,3.59478"
     id="path7529"
     style="fill:#009245;fill-opacity:1;fill-rule:nonzero;stroke:none"
     inkscape:connector-curvature="0" />
  <path
     d="m 113.12487,46.30164 c 0,0 -37.2627,-3.1047 -47.61463,10.35067 -10.35194,13.45664 -16.04494,28.98392 -7.50544,49.68403 8.54075,20.70386 22.76198,51.7559 25.48438,59.51954 2.72492,7.76238 7.3801,26.91202 26.52974,27.42968 19.14837,0.51892 30.02047,-12.94023 39.85225,-29.50032 9.83051,-16.56134 35.19206,-64.17596 33.64034,-78.66668 -1.55298,-14.49195 -18.63073,-39.43611 -44.50743,-39.12652 -25.87921,0.3096 -25.87921,0.3096 -25.87921,0.3096"
     id="path7531"
     style="fill:#d10703;fill-opacity:1;fill-rule:nonzero;stroke:none"
     inkscape:connector-curvature="0" />
  <path
     d="m 171.94877,121.53646 c 0,0.002 -0.002,0.002 -0.002,0.005 -10.53242,13.1345 -43.29663,48.45567 -67.10269,39.65672 -21.13004,-7.80877 -44.9173,-69.42652 -49.99989,-83.18648 -1.85505,8.34898 -1.24589,17.64679 3.16111,28.32461 8.54075,20.70387 22.76198,51.7559 25.48438,59.51954 2.72492,7.76239 7.3801,26.91203 26.52974,27.42969 19.14837,0.51891 30.02047,-12.94024 39.85225,-29.50033 5.13649,-8.65481 14.51576,-25.79021 22.0776,-42.24877"
     id="path7533"
     style="fill:#8f0402;fill-opacity:1;fill-rule:nonzero;stroke:none"
     inkscape:connector-curvature="0" />
  <path
     d="m 114.45893,45.290498 c 0,0 -39.000541,-3.31418 -50.040493,10.57288 -11.041364,13.885879 -17.232921,29.929303 -8.581139,51.359012 8.646959,21.43534 23.095804,53.58816 25.837038,61.62374 2.739929,8.03568 7.343157,27.85056 27.399254,28.43866 20.05751,0.58927 31.64085,-13.29745 42.18567,-30.39582 10.53937,-17.1005 37.80219,-66.27143 36.388,-81.262671 -1.41932,-14.989489 -18.95052,-40.833027 -46.06821,-40.585825 -27.12012,0.250024 -27.12012,0.250024 -27.12012,0.250024 z"
     id="path7535"
     style="fill:none;stroke:#4e4e4e;stroke-width:1.97783959;stroke-linecap:round;stroke-linejoin:round;stroke-miterlimit:10;stroke-opacity:1;stroke-dasharray:none"
     inkscape:connector-curvature="0" />
  <path
     d="m 117.95177,46.68644 c 0,0 11.62288,-25.08831 -11.73572,-43.68644 0,0 -14.2726,12.43635 4.76047,43.68644 l 6.97525,0"
     id="path7537"
     style="fill:#006837;fill-opacity:1;fill-rule:nonzero;stroke:none"
     inkscape:connector-curvature="0" />
  <path
     d="m 43.08042,18.77043 c 0,0 13.90411,3.2664 24.92787,3.56471 11.02,0.29706 33.56136,-13.00791 47.70488,25.94312 0,0 -12.67325,-15.14998 -21.7091,-14.75391 -9.03585,0.39608 -44.38835,3.36791 -50.92365,-14.75392"
     id="path7539"
     style="fill:#006837;fill-opacity:1;fill-rule:nonzero;stroke:none"
     inkscape:connector-curvature="0" />
  <path
     d="m 116.57928,49.11805 c 0,0 -17.94636,-18.91399 -42.00938,-10.8182 -24.06301,8.0983 -31.48948,-19.52942 -31.48948,-19.52942 0,0 5.64036,10.39831 20.64496,10.99117 15.0046,0.59413 29.80239,-17.13665 52.8539,19.35645"
     id="path7541"
     style="fill:#39b54a;fill-opacity:1;fill-rule:nonzero;stroke:none"
     inkscape:connector-curvature="0" />
  <path
     d="m 121.58039,45.36785 c 0,0 -18.81999,-19.83526 -44.05119,-11.34339 -25.23243,8.49187 -33.0199,-20.47951 -33.0199,-20.47951 0,0 5.91235,10.90344 21.64519,11.52514 15.73534,0.6242 31.25259,-17.96893 55.4259,20.29776 z"
     id="path7543"
     style="fill:none;stroke:#ffffff;stroke-width:1.3107686;stroke-linecap:butt;stroke-linejoin:miter;stroke-miterlimit:10;stroke-opacity:1;stroke-dasharray:none"
     inkscape:connector-curvature="0" />
  <path
     d="m 109.24555,47.92606 c 0,0 -14.70753,-8.21111 -28.11528,10.44594 -13.41027,18.6583 -9.08474,17.35976 -9.08474,17.35976 0,0 -11.71064,-8.11083 -0.66681,-26.54852 11.04757,-18.43645 33.92862,-11.17418 38.58505,-6.41623 4.66018,4.75922 -0.71822,5.15905 -0.71822,5.15905"
     id="path7545"
     style="fill:#006837;fill-opacity:1;fill-rule:nonzero;stroke:none"
     inkscape:connector-curvature="0" />
  <path
     d="m 107.54468,45.48316 c 0,0 -16.34325,-4.06732 -24.39266,17.45252 -8.04942,21.52108 -4.21648,19.13585 -4.21648,19.13585 0,0 -13.42781,-4.75797 -7.6032,-25.44553 5.82836,-20.68884 29.81241,-19.67859 35.55179,-16.3069 5.7469,3.36791 0.66055,5.16406 0.66055,5.16406 z"
     id="path7547"
     style="fill:none;stroke:#ffffff;stroke-width:1.3107686;stroke-linecap:butt;stroke-linejoin:miter;stroke-miterlimit:10;stroke-opacity:1;stroke-dasharray:none"
     inkscape:connector-curvature="0" />
  <path
     d="m 145.78881,46.50594 c -2.18721,-0.35721 -4.45088,-0.54148 -6.78473,-0.5139 -25.87921,0.3096 -25.87921,0.3096 -25.87921,0.3096 0,0 -13.6835,-1.1381 -26.77038,0.9576 6.05523,3.02449 24.81255,9.66005 59.43432,-0.7533"
     id="path7549"
     style="fill:#8cc63f;fill-opacity:1;fill-rule:nonzero;stroke:none"
     inkscape:connector-curvature="0" />
  <path
     d="m 113.75784,48.39108 c 0,0 -39.08766,-8.99324 -29.58555,-37.97339 0,0 26.74783,12.36241 29.58555,37.97339"
     id="path7551"
     style="fill:#009245;fill-opacity:1;fill-rule:nonzero;stroke:none"
     inkscape:connector-curvature="0" />
  <path
     d="m 72.04553,75.73176 c 0,0 -4.78553,-45.86988 39.7808,-28.99017 0,0 -31.64365,-8.9995 -39.7808,28.99017"
     id="path7553"
     style="fill:#39b54a;fill-opacity:1;fill-rule:nonzero;stroke:none"
     inkscape:connector-curvature="0" />
  <path
     d="m 127.2245,43.32854 c 0,0 -8.71121,-16.06499 15.46837,-18.63073 18.53546,-1.9666 25.89676,0.15293 25.89676,0.15293 0,0 -3.27642,-16.83709 -25.89676,-14.43305 -22.61658,2.4028 -23.23702,24.71604 -20.73897,31.30524 2.49179,6.59295 5.2706,1.60561 5.2706,1.60561"
     id="path7555"
     style="fill:#006837;fill-opacity:1;fill-rule:nonzero;stroke:none"
     inkscape:connector-curvature="0" />
  <path
     d="m 126.20894,46.103665 c 0,0 -9.47329,-17.4663 16.81829,-20.2564 20.15112,-2.13706 28.15415,0.16672 28.15415,0.16672 0,0 -3.5622,-18.3048398 -28.15415,-15.69273 -24.59195,2.61211 -25.26379,26.87316 -22.5514,34.03641 2.71239,7.16952 5.73311,1.746 5.73311,1.746 z"
     id="path7557"
     style="fill:none;stroke:#5f5f5f;stroke-width:1.5;stroke-linecap:round;stroke-linejoin:round;stroke-miterlimit:10;stroke-opacity:1;stroke-dasharray:none"
     inkscape:connector-curvature="0" />
  <path
     d="m 167.17077,24.69781 c 0,0 -35.64957,-21.6903 -42.23123,20.58104 0,0 2.12829,-29.67329 42.23123,-20.58104"
     id="path7559"
     style="fill:#39b54a;fill-opacity:1;fill-rule:nonzero;stroke:none"
     inkscape:connector-curvature="0" />
  <path
     d="m 117.26113,48.76334 c 0,0 30.57324,1.15064 33.95495,-24.06553 0,0 -8.66234,7.21465 -13.88906,7.60195 -5.22674,0.38857 -19.66354,7.75487 -20.06589,16.46358"
     id="path7561"
     style="fill:#009245;fill-opacity:1;fill-rule:nonzero;stroke:none"
     inkscape:connector-curvature="0" />
  <path
     d="m 113.75784,46.31919 c 0,0 20.1436,-20.3291 9.3279,-38.92974 0,0 26.90199,21.87831 -5.79829,41.00163 l -3.52961,-2.07189"
     id="path7563"
     style="fill:#009245;fill-opacity:1;fill-rule:nonzero;stroke:none"
     inkscape:connector-curvature="0" />
  <path
     d="m 113.75784,46.31919 c 0,0 2.40906,-19.4655 9.3279,-38.92974 0,0 16.81453,21.62763 -9.3279,38.92974"
     id="path7565"
     style="fill:#39b54a;fill-opacity:1;fill-rule:nonzero;stroke:none"
     inkscape:connector-curvature="0" />
  <path
     d="m 113.75784,48.39108 c 0,0 6.32974,-33.21544 -29.58555,-37.97339 0,0 25.01686,21.01346 29.58555,37.97339"
     id="path7567"
     style="fill:#39b54a;fill-opacity:1;fill-rule:nonzero;stroke:none"
     inkscape:connector-curvature="0" />
  <path
     d="m 117.26113,46.75161 c 0,0 24.88776,-8.20608 33.95495,-22.0538 0,0 -2.58077,25.9469 -33.95495,22.0538"
     id="path7569"
     style="fill:#39b54a;fill-opacity:1;fill-rule:nonzero;stroke:none"
     inkscape:connector-curvature="0" />
  <path
     d="m 94.72102,70.84596 c 0,2.61588 -4.4797,4.73539 -4.4797,4.73539 0,0 -4.4797,-2.11951 -4.4797,-4.73539 0,-2.61587 0.24692,-4.73665 4.4797,-4.73665 4.23903,0 4.4797,2.12078 4.4797,4.73665"
     id="path7571"
     style="fill:#b80007;fill-opacity:1;fill-rule:nonzero;stroke:none"
     inkscape:connector-curvature="0" />
  <path
     d="m 93.01763,70.84596 c 0,2.61588 -2.77631,4.73539 -2.77631,4.73539 0,0 -2.77505,-2.11951 -2.77505,-4.73539 0,-2.61587 0.15291,-4.73665 2.77505,-4.73665 2.62715,0 2.77631,2.12078 2.77631,4.73665"
     id="path7573"
     style="fill:#fcf583;fill-opacity:1;fill-rule:nonzero;stroke:none"
     inkscape:connector-curvature="0" />
  <path
     d="m 128.84517,78.31129 c 0,2.61587 -4.47969,4.73414 -4.47969,4.73414 0,0 -4.4797,-2.11827 -4.4797,-4.73414 0,-2.61713 0.24441,-4.73665 4.4797,-4.73665 4.23527,0 4.47969,2.11952 4.47969,4.73665"
     id="path7575"
     style="fill:#b80007;fill-opacity:1;fill-rule:nonzero;stroke:none"
     inkscape:connector-curvature="0" />
  <path
     d="m 127.14178,78.31129 c 0,2.61587 -2.7763,4.73414 -2.7763,4.73414 0,0 -2.77631,-2.11827 -2.77631,-4.73414 0,-2.61713 0.15166,-4.73665 2.77631,-4.73665 2.62464,0 2.7763,2.11952 2.7763,4.73665"
     id="path7577"
     style="fill:#fcf583;fill-opacity:1;fill-rule:nonzero;stroke:none"
     inkscape:connector-curvature="0" />
  <path
     d="m 97.91973,102.83806 c 0,2.61462 -4.4772,4.73414 -4.4772,4.73414 0,0 -4.4822,-2.11952 -4.4822,-4.73414 0,-2.61837 0.24567,-4.73665 4.4822,-4.73665 4.23529,0 4.4772,2.11828 4.4772,4.73665"
     id="path7579"
     style="fill:#b80007;fill-opacity:1;fill-rule:nonzero;stroke:none"
     inkscape:connector-curvature="0" />
  <path
     d="m 96.21633,102.83806 c 0,2.61462 -2.7738,4.73414 -2.7738,4.73414 0,0 -2.77881,-2.11952 -2.77881,-4.73414 0,-2.61837 0.15417,-4.73665 2.77881,-4.73665 2.62465,0 2.7738,2.11828 2.7738,4.73665"
     id="path7581"
     style="fill:#fcf583;fill-opacity:1;fill-rule:nonzero;stroke:none"
     inkscape:connector-curvature="0" />
  <path
     d="m 160.83477,119.89826 c 0,2.61462 -4.4797,4.73414 -4.4797,4.73414 0,0 -4.4797,-2.11952 -4.4797,-4.73414 0,-2.61712 0.24693,-4.7354 4.4797,-4.7354 4.23779,0 4.4797,2.11828 4.4797,4.7354"
     id="path7583"
     style="fill:#b80007;fill-opacity:1;fill-rule:nonzero;stroke:none"
     inkscape:connector-curvature="0" />
  <path
     d="m 159.13138,119.89826 c 0,2.61462 -2.77631,4.73414 -2.77631,4.73414 0,0 -2.77631,-2.11952 -2.77631,-4.73414 0,-2.61712 0.15166,-4.7354 2.77631,-4.7354 2.62715,0 2.77631,2.11828 2.77631,4.7354"
     id="path7585"
     style="fill:#fcf583;fill-opacity:1;fill-rule:nonzero;stroke:none"
     inkscape:connector-curvature="0" />
  <path
     d="m 169.3655,68.71516 c 0,2.61462 -4.47719,4.73289 -4.47719,4.73289 0,0 -4.48346,-2.11827 -4.48346,-4.73289 0,-2.61838 0.24692,-4.7379 4.48346,-4.7379 4.23527,0 4.47719,2.11952 4.47719,4.7379"
     id="path7587"
     style="fill:#b80007;fill-opacity:1;fill-rule:nonzero;stroke:none"
     inkscape:connector-curvature="0" />
  <path
     d="m 167.66085,68.71516 c 0,2.61462 -2.77254,4.73289 -2.77254,4.73289 0,0 -2.77883,-2.11827 -2.77883,-4.73289 0,-2.61838 0.15418,-4.7379 2.77883,-4.7379 2.62464,0 2.77254,2.11952 2.77254,4.7379"
     id="path7589"
     style="fill:#fcf583;fill-opacity:1;fill-rule:nonzero;stroke:none"
     inkscape:connector-curvature="0" />
  <path
     d="m 151.23738,59.11778 c 0,2.61337 -4.47968,4.73413 -4.47968,4.73413 0,0 -4.47971,-2.12076 -4.47971,-4.73413 0,-2.61713 0.24693,-4.73664 4.47971,-4.73664 4.23903,0 4.47968,2.11951 4.47968,4.73664"
     id="path7591"
     style="fill:#b80007;fill-opacity:1;fill-rule:nonzero;stroke:none"
     inkscape:connector-curvature="0" />
  <path
     d="m 149.534,59.11778 c 0,2.61337 -2.7763,4.73413 -2.7763,4.73413 0,0 -2.77507,-2.12076 -2.77507,-4.73413 0,-2.61713 0.15293,-4.73664 2.77507,-4.73664 2.62715,0 2.7763,2.11951 2.7763,4.73664"
     id="path7593"
     style="fill:#fcf583;fill-opacity:1;fill-rule:nonzero;stroke:none"
     inkscape:connector-curvature="0" />
  <path
     d="m 102.18509,146.55834 c 0,2.61462 -4.4772,4.73289 -4.4772,4.73289 0,0 -4.48345,-2.11827 -4.48345,-4.73289 0,-2.61838 0.24693,-4.7379 4.48345,-4.7379 4.23529,0 4.4772,2.11952 4.4772,4.7379"
     id="path7595"
     style="fill:#b80007;fill-opacity:1;fill-rule:nonzero;stroke:none"
     inkscape:connector-curvature="0" />
  <path
     d="m 100.48295,146.55834 c 0,2.61462 -2.77506,4.73289 -2.77506,4.73289 0,0 -2.77881,-2.11827 -2.77881,-4.73289 0,-2.61838 0.15417,-4.7379 2.77881,-4.7379 2.62465,0 2.77506,2.11952 2.77506,4.7379"
     id="path7597"
     style="fill:#fcf583;fill-opacity:1;fill-rule:nonzero;stroke:none"
     inkscape:connector-curvature="0" />
  <path
     d="m 140.57335,144.42504 c 0,2.61461 -4.47718,4.73414 -4.47718,4.73414 0,0 -4.48222,-2.11953 -4.48222,-4.73414 0,-2.61839 0.24693,-4.7379 4.48222,-4.7379 4.23527,0 4.47718,2.11951 4.47718,4.7379"
     id="path7599"
     style="fill:#b80007;fill-opacity:1;fill-rule:nonzero;stroke:none"
     inkscape:connector-curvature="0" />
  <path
     d="m 138.86997,144.42504 c 0,2.61461 -2.7738,4.73414 -2.7738,4.73414 0,0 -2.77883,-2.11953 -2.77883,-4.73414 0,-2.61839 0.15418,-4.7379 2.77883,-4.7379 2.62463,0 2.7738,2.11951 2.7738,4.7379"
     id="path7601"
     style="fill:#fcf583;fill-opacity:1;fill-rule:nonzero;stroke:none"
     inkscape:connector-curvature="0" />
  <path
     d="m 123.51315,107.10343 c 0,2.61461 -4.4797,4.73413 -4.4797,4.73413 0,0 -4.4797,-2.11952 -4.4797,-4.73413 0,-2.61838 0.24568,-4.7379 4.4797,-4.7379 4.23529,0 4.4797,2.11952 4.4797,4.7379"
     id="path7603"
     style="fill:#b80007;fill-opacity:1;fill-rule:nonzero;stroke:none"
     inkscape:connector-curvature="0" />
  <path
     d="m 121.80852,107.10343 c 0,2.61461 -2.77507,4.73413 -2.77507,4.73413 0,0 -2.77631,-2.11952 -2.77631,-4.73413 0,-2.61838 0.15168,-4.7379 2.77631,-4.7379 2.62715,0 2.77507,2.11952 2.77507,4.7379"
     id="path7605"
     style="fill:#fcf583;fill-opacity:1;fill-rule:nonzero;stroke:none"
     inkscape:connector-curvature="0" />
  <path
     d="m 155.50275,90.04073 c 0,2.61586 -4.47969,4.73413 -4.47969,4.73413 0,0 -4.4797,-2.11827 -4.4797,-4.73413 0,-2.61714 0.24567,-4.73665 4.4797,-4.73665 4.23779,0 4.47969,2.11951 4.47969,4.73665"
     id="path7607"
     style="fill:#b80007;fill-opacity:1;fill-rule:nonzero;stroke:none"
     inkscape:connector-curvature="0" />
  <path
     d="m 153.79936,90.04073 c 0,2.61586 -2.7763,4.73413 -2.7763,4.73413 0,0 -2.77631,-2.11827 -2.77631,-4.73413 0,-2.61714 0.15417,-4.73665 2.77631,-4.73665 2.62715,0 2.7763,2.11951 2.7763,4.73665"
     id="path7609"
     style="fill:#fcf583;fill-opacity:1;fill-rule:nonzero;stroke:none"
     inkscape:connector-curvature="0" />
  <path
     d="m 176.83082,96.43939 c 0,2.61462 -4.4797,4.73414 -4.4797,4.73414 0,0 -4.4797,-2.11952 -4.4797,-4.73414 0,-2.61713 0.24316,-4.73664 4.4797,-4.73664 4.23529,0 4.4797,2.11951 4.4797,4.73664"
     id="path7611"
     style="fill:#b80007;fill-opacity:1;fill-rule:nonzero;stroke:none"
     inkscape:connector-curvature="0" />
  <path
     d="m 175.12743,96.43939 c 0,2.61462 -2.77631,4.73414 -2.77631,4.73414 0,0 -2.77881,-2.11952 -2.77881,-4.73414 0,-2.61713 0.15416,-4.73664 2.77881,-4.73664 2.62465,0 2.77631,2.11951 2.77631,4.73664"
     id="path7613"
     style="fill:#fcf583;fill-opacity:1;fill-rule:nonzero;stroke:none"
     inkscape:connector-curvature="0" />
  <path
     d="m 70.19549,85.77535 c 0,2.61463 -4.47719,4.73289 -4.47719,4.73289 0,0 -4.48346,-2.11826 -4.48346,-4.73289 0,-2.61712 0.24693,-4.73664 4.48346,-4.73664 4.23528,0 4.47719,2.11952 4.47719,4.73664"
     id="path7615"
     style="fill:#b80007;fill-opacity:1;fill-rule:nonzero;stroke:none"
     inkscape:connector-curvature="0" />
  <path
     d="m 68.49085,85.77535 c 0,2.61463 -2.77255,4.73289 -2.77255,4.73289 0,0 -2.77881,-2.11826 -2.77881,-4.73289 0,-2.61712 0.15291,-4.73664 2.77881,-4.73664 2.62339,0 2.77255,2.11952 2.77255,4.73664"
     id="path7617"
     style="fill:#fcf583;fill-opacity:1;fill-rule:nonzero;stroke:none"
     inkscape:connector-curvature="0" />
  <path
     d="m 110.71832,129.49564 c 0,2.61461 -4.48095,4.73414 -4.48095,4.73414 0,0 -4.4797,-2.11953 -4.4797,-4.73414 0,-2.61713 0.24442,-4.73665 4.4797,-4.73665 4.23653,0 4.48095,2.11952 4.48095,4.73665"
     id="path7619"
     style="fill:#b80007;fill-opacity:1;fill-rule:nonzero;stroke:none"
     inkscape:connector-curvature="0" />
  <path
     d="m 109.01368,129.49564 c 0,2.61461 -2.77631,4.73414 -2.77631,4.73414 0,0 -2.77757,-2.11953 -2.77757,-4.73414 0,-2.61713 0.15418,-4.73665 2.77757,-4.73665 2.62465,0 2.77631,2.11952 2.77631,4.73665"
     id="path7621"
     style="fill:#fcf583;fill-opacity:1;fill-rule:nonzero;stroke:none"
     inkscape:connector-curvature="0" />
  <path
     d="m 113.91578,61.24984 c 0,2.61461 -4.4797,4.73414 -4.4797,4.73414 0,0 -4.4797,-2.11953 -4.4797,-4.73414 0,-2.61839 0.24692,-4.7379 4.4797,-4.7379 4.23654,0 4.4797,2.11951 4.4797,4.7379"
     id="path7623"
     style="fill:#b80007;fill-opacity:1;fill-rule:nonzero;stroke:none"
     inkscape:connector-curvature="0" />
  <path
     d="m 112.21239,61.24984 c 0,2.61461 -2.77631,4.73414 -2.77631,4.73414 0,0 -2.77631,-2.11953 -2.77631,-4.73414 0,-2.61839 0.15166,-4.7379 2.77631,-4.7379 2.62715,0 2.77631,2.11951 2.77631,4.7379"
     id="path7625"
     style="fill:#fcf583;fill-opacity:1;fill-rule:nonzero;stroke:none"
     inkscape:connector-curvature="0" />
  <path
     d="m 114.98243,173.21593 c 0,2.61586 -4.4797,4.73413 -4.4797,4.73413 0,0 -4.4797,-2.11827 -4.4797,-4.73413 0,-2.61714 0.24442,-4.73665 4.4797,-4.73665 4.23654,0 4.4797,2.11951 4.4797,4.73665"
     id="path7627"
     style="fill:#b80007;fill-opacity:1;fill-rule:nonzero;stroke:none"
     inkscape:connector-curvature="0" />
  <path
     d="m 113.27904,173.21593 c 0,2.61586 -2.77631,4.73413 -2.77631,4.73413 0,0 -2.77505,-2.11827 -2.77505,-4.73413 0,-2.61714 0.1504,-4.73665 2.77505,-4.73665 2.62465,0 2.77631,2.11951 2.77631,4.73665"
     id="path7629"
     style="fill:#fcf583;fill-opacity:1;fill-rule:nonzero;stroke:none"
     inkscape:connector-curvature="0" />
  <path
     d="m 140.57335,163.61979 c 0,2.61462 -4.47718,4.73415 -4.47718,4.73415 0,0 -4.48222,-2.11953 -4.48222,-4.73415 0,-2.61838 0.24693,-4.7379 4.48222,-4.7379 4.23527,0 4.47718,2.11952 4.47718,4.7379"
     id="path7631"
     style="fill:#b80007;fill-opacity:1;fill-rule:nonzero;stroke:none"
     inkscape:connector-curvature="0" />
  <path
     d="m 138.86997,163.61979 c 0,2.61462 -2.7738,4.73415 -2.7738,4.73415 0,0 -2.77883,-2.11953 -2.77883,-4.73415 0,-2.61838 0.15418,-4.7379 2.77883,-4.7379 2.62463,0 2.7738,2.11952 2.7738,4.7379"
     id="path7633"
     style="fill:#fcf583;fill-opacity:1;fill-rule:nonzero;stroke:none"
     inkscape:connector-curvature="0" />
  <path
     d="m 86.19154,119.89826 c 0,2.61462 -4.4797,4.73414 -4.4797,4.73414 0,0 -4.47969,-2.11952 -4.47969,-4.73414 0,-2.61712 0.24317,-4.7354 4.47969,-4.7354 4.23529,0 4.4797,2.11828 4.4797,4.7354"
     id="path7635"
     style="fill:#b80007;fill-opacity:1;fill-rule:nonzero;stroke:none"
     inkscape:connector-curvature="0" />
  <path
     d="m 84.4869,119.89826 c 0,2.61462 -2.77506,4.73414 -2.77506,4.73414 0,0 -2.7763,-2.11952 -2.7763,-4.73414 0,-2.61712 0.15166,-4.7354 2.7763,-4.7354 2.6234,0 2.77506,2.11828 2.77506,4.7354"
     id="path7637"
     style="fill:#fcf583;fill-opacity:1;fill-rule:nonzero;stroke:none"
     inkscape:connector-curvature="0" />
  <path
     d="m 140.57335,120.96616 c 0,2.61463 -4.47718,4.73289 -4.47718,4.73289 0,0 -4.48222,-2.11826 -4.48222,-4.73289 0,-2.61837 0.24693,-4.7379 4.48222,-4.7379 4.23527,0 4.47718,2.11953 4.47718,4.7379"
     id="path7639"
     style="fill:#b80007;fill-opacity:1;fill-rule:nonzero;stroke:none"
     inkscape:connector-curvature="0" />
  <path
     d="m 138.86997,120.96616 c 0,2.61463 -2.7738,4.73289 -2.7738,4.73289 0,0 -2.77883,-2.11826 -2.77883,-4.73289 0,-2.61837 0.15418,-4.7379 2.77883,-4.7379 2.62463,0 2.7738,2.11953 2.7738,4.7379"
     id="path7641"
     style="fill:#fcf583;fill-opacity:1;fill-rule:nonzero;stroke:none"
     inkscape:connector-curvature="0" />
  <path
     d="m 136.09365,56.51319 c 0,0 6.17682,16.93486 17.48511,12.19946 0,0 2.79636,7.78871 11.72944,10.54873 0,0 -5.15905,5.6416 -6.82233,16.82078 0,0 1.94405,-16.73806 -6.6105,-15.04345 -8.55454,1.69462 -10.28299,5.77072 -9.59738,10.66404 0.68561,4.89206 4.47971,12.7121 4.47971,12.7121 0,0 -11.77206,-9.55601 -17.91253,-7.97671 0,0 9.75656,-16.02864 1.98541,-24.28613 -7.77116,-8.25747 -11.79713,-1.30605 -11.79713,-1.30605 l 4.59502,-9.59738 c 0,0 6.30842,-0.38605 12.46518,-4.73539"
     id="path7643"
     style="fill:#ffffff;fill-opacity:1;fill-rule:nonzero;stroke:none"
     inkscape:connector-curvature="0" />
  <path
     d="m 116.30353,50.15714 c 0,0 -37.6826,-13.73114 -24.68973,-41.32376 0,0 25.02438,15.55986 24.68973,41.32376 z"
     id="path7645"
     style="fill:none;stroke:#ffffff;stroke-width:1.3107686;stroke-linecap:butt;stroke-linejoin:miter;stroke-miterlimit:10;stroke-opacity:1;stroke-dasharray:none"
     inkscape:connector-curvature="0" />
</svg>
