<?xml version="1.0" encoding="UTF-8" standalone="no"?>
<!-- Created with Inkscape (http://www.inkscape.org/) -->

<svg
   xmlns:dc="http://purl.org/dc/elements/1.1/"
   xmlns:cc="http://creativecommons.org/ns#"
   xmlns:rdf="http://www.w3.org/1999/02/22-rdf-syntax-ns#"
   xmlns:svg="http://www.w3.org/2000/svg"
   xmlns="http://www.w3.org/2000/svg"
   xmlns:sodipodi="http://sodipodi.sourceforge.net/DTD/sodipodi-0.dtd"
   xmlns:inkscape="http://www.inkscape.org/namespaces/inkscape"
   width="1434.25"
   height="1381.6903"
   id="svg2"
   version="1.1"
   inkscape:version="0.48.4 r"
   sodipodi:docname="head_back.svg"
   inkscape:export-filename="/Users/vern/Github/topmarks/images/head_back.png"
   inkscape:export-xdpi="90"
   inkscape:export-ydpi="90">
  <defs
     id="defs4">
    <linearGradient
       id="linearGradient3755">
      <stop
         style="stop-color:#0049c2;stop-opacity:1;"
         offset="0"
         id="stop3757" />
      <stop
         id="stop3765"
         offset="1"
         style="stop-color:#0c627b;stop-opacity:0.8888889;" />
    </linearGradient>
  </defs>
  <sodipodi:namedview
     id="base"
     pagecolor="#ffffff"
     bordercolor="#666666"
     borderopacity="1.0"
     inkscape:pageopacity="0.0"
     inkscape:pageshadow="2"
     inkscape:zoom="0.5"
     inkscape:cx="615.75"
     inkscape:cy="686.2506"
     inkscape:document-units="px"
     inkscape:current-layer="layer1"
     showgrid="false"
     fit-margin-top="0"
     fit-margin-left="0"
     fit-margin-right="0"
     fit-margin-bottom="0"
     inkscape:window-width="1453"
     inkscape:window-height="872"
     inkscape:window-x="47"
     inkscape:window-y="110"
     inkscape:window-maximized="0" />
  <metadata
     id="metadata7">
    <rdf:RDF>
      <cc:Work
         rdf:about="">
        <dc:format>image/svg+xml</dc:format>
        <dc:type
           rdf:resource="http://purl.org/dc/dcmitype/StillImage" />
        <dc:title></dc:title>
      </cc:Work>
    </rdf:RDF>
  </metadata>
  <g
     inkscape:label="Layer 1"
     inkscape:groupmode="layer"
     id="layer1"
     transform="translate(323.25,512.63782)">
    <rect
       style="opacity:0.78951242;fill:#1e839e;fill-opacity:1;fill-rule:nonzero;stroke:none"
       id="rect2985"
       width="1434.25"
       height="1381.6903"
       x="-323.25"
       y="-512.63782" />
    <path
       inkscape:connector-curvature="0"
       id="path3990"
       style="font-size:734.27307129px;font-style:normal;font-variant:normal;font-weight:normal;font-stretch:normal;line-height:125%;letter-spacing:0px;word-spacing:0px;fill:#3a678a;fill-opacity:0.98823529;stroke:none;font-family:Muli;-inkscape-font-specification:Muli"
       d="m -113.38549,440.39618 287.34252,-357.558577 -133.155039,0 38.418164,-47.80616 133.155065,0 27.30548,-33.9779413 c 11.21796,-13.9594887 21.33143,-25.9439507 30.34032,-35.9534057 9.7019,-10.271924 20.36929,-20.54432 32.00212,-30.817208 11.63163,-10.271889 23.33541,-18.832203 35.11127,-25.681008 11.98623,-7.111122 25.45001,-13.95937 40.39133,-20.54479 15.15166,-6.84771 31.3108,-12.24731 48.47748,-16.19879 17.85941,-4.21374 37.70836,-7.90126 59.54697,-11.06259 21.83709,-3.16015 45.58755,-5.39901 71.25146,-6.71657 26.35633,-1.57978 55.45561,-2.36997 87.29796,-2.37055 l 34.73608,0 -47.57429,56.4982 c -19.29876,5.24e-4 -36.63722,0.263923 -52.01552,0.790179 -15.38,0.527339 -29.7647,1.317518 -43.15411,2.370572 -12.697,0.790702 -24.23377,2.23937 -34.61033,4.346002 -10.1665,1.844298 -19.47317,3.819746 -27.91998,5.926394 -8.44836,2.107681 -16.4307,5.136706 -23.94702,9.087112 -7.30612,3.688038 -13.88784,7.375569 -19.74519,11.062592 -5.85878,3.688022 -11.83982,8.429131 -17.94324,14.223327 -6.10478,5.795177 -11.62056,11.458156 -16.54737,16.988971 -4.92822,5.531761 -10.77871,12.511717 -17.55147,20.9398994 l -33.0206,41.0896046 177.29886,0 -38.41818,47.80616 -177.29883,0 -287.34255,357.558577 -132.43136,0" />
    <text
       xml:space="preserve"
       style="font-size:113.00061035px;font-style:normal;font-weight:normal;line-height:125%;letter-spacing:0px;word-spacing:0px;fill:#ffffff;fill-opacity:0.98823529;stroke:none;font-family:Sans"
       x="-122.9617"
       y="534.39618"
       id="text3793"
       sodipodi:linespacing="125%"><tspan
         sodipodi:role="line"
         x="-122.9617"
         y="534.39618"
         style="font-style:normal;font-variant:normal;font-weight:normal;font-stretch:normal;fill:#ffffff;fill-opacity:0.98823529;font-family:Muli;-inkscape-font-specification:Muli"
         id="tspan4002">rank+file+systems</tspan></text>
    <path
       inkscape:connector-curvature="0"
       id="path3988"
       style="font-size:734.27307129px;font-style:normal;font-variant:normal;font-weight:normal;font-stretch:normal;line-height:125%;letter-spacing:0px;word-spacing:0px;fill:#ffffff;fill-opacity:0.98823529;stroke:none;font-family:Muli;-inkscape-font-specification:Muli"
       d="m -111.54533,440.39618 0,-492.487319 -6.34649,-158.662141 122.487176,0 0,101.54377 c 9.731039,-18.61579 20.731608,-35.11663 33.001724,-49.50259 12.269599,-14.38475 25.597207,-26.65461 39.982863,-36.80962 14.38505,-10.15373 30.039697,-17.76951 46.963997,-22.84734 16.92359,-5.07653 34.27064,-7.61512 52.04119,-7.61579 23.27002,6.7e-4 45.9058,2.53926 67.9074,7.61579 l 0,104.08236 c -25.80949,-7.61522 -50.34921,-11.42311 -73.61924,-11.42367 -49.50294,5.6e-4 -89.485762,18.19381 -119.948585,54.579778 C 20.461309,-34.743602 5.2297788,14.970487 5.2300017,78.011834 l 0,362.384346 -116.7753317,0" />
  </g>
</svg>
