<?xml version="1.0" encoding="UTF-8" standalone="no"?>
<!-- Generator: Adobe Illustrator 10.0, SVG Export Plug-In . SVG Version: 3.0.0 Build 77)  -->

<svg
   xmlns:i="http://ns.adobe.com/AdobeIllustrator/10.0/"
   xmlns:dc="http://purl.org/dc/elements/1.1/"
   xmlns:cc="http://creativecommons.org/ns#"
   xmlns:rdf="http://www.w3.org/1999/02/22-rdf-syntax-ns#"
   xmlns:svg="http://www.w3.org/2000/svg"
   xmlns="http://www.w3.org/2000/svg"
   xmlns:xlink="http://www.w3.org/1999/xlink"
   xmlns:sodipodi="http://sodipodi.sourceforge.net/DTD/sodipodi-0.dtd"
   xmlns:inkscape="http://www.inkscape.org/namespaces/inkscape"
   enable-background="new 0 0 135.566 198.089"
   height="235.8602"
   i:pageBounds="0 792 612 0"
   i:rulerOrigin="0 0"
   i:viewOrigin="238 494.9995"
   overflow="visible"
   space="preserve"
   viewBox="0 0 233.34211 235.86019"
   width="233.3421"
   id="svg2985"
   version="1.1"
   inkscape:version="0.48.4 r"
   sodipodi:docname="lime-bean.svg"
   style="overflow:visible">
  <defs
     id="defs3078">
    <linearGradient
       id="linearGradient5571">
      <stop
         id="stop5573"
         offset="0"
         style="stop-color:#000000;stop-opacity:0.53846157;" />
      <stop
         id="stop5575"
         offset="1"
         style="stop-color:#00ff00;stop-opacity:0;" />
    </linearGradient>
    <linearGradient
       id="linearGradient5523">
      <stop
         style="stop-color:#7bcd24;stop-opacity:1;"
         offset="0"
         id="stop5525" />
      <stop
         style="stop-color:#00ff00;stop-opacity:0;"
         offset="1"
         id="stop5527" />
    </linearGradient>
    <linearGradient
       id="linearGradient5515">
      <stop
         style="stop-color:#43e443;stop-opacity:1;"
         offset="0"
         id="stop5517" />
      <stop
         style="stop-color:#00ff00;stop-opacity:0;"
         offset="1"
         id="stop5519" />
    </linearGradient>
    <linearGradient
       id="linearGradient3985">
      <stop
         style="stop-color:#23c74e;stop-opacity:1;"
         offset="0"
         id="stop3987" />
      <stop
         style="stop-color:#53c671;stop-opacity:0;"
         offset="1"
         id="stop3989" />
    </linearGradient>
    <linearGradient
       inkscape:collect="always"
       xlink:href="#linearGradient3920-0"
       id="linearGradient3926-4"
       x1="266.47787"
       y1="211.67976"
       x2="229.98468"
       y2="1.0003659"
       gradientUnits="userSpaceOnUse" />
    <linearGradient
       inkscape:collect="always"
       id="linearGradient3920-0">
      <stop
         style="stop-color:#f76605;stop-opacity:1;"
         offset="0"
         id="stop3922-5" />
      <stop
         style="stop-color:#f76605;stop-opacity:0;"
         offset="1"
         id="stop3924-9" />
    </linearGradient>
    <linearGradient
       inkscape:collect="always"
       xlink:href="#linearGradient5523"
       id="linearGradient5529"
       x1="98.473305"
       y1="-82.520203"
       x2="96.689079"
       y2="-245.73746"
       gradientUnits="userSpaceOnUse"
       gradientTransform="translate(-2.0000001,0)" />
    <filter
       id="filter5555"
       inkscape:label="Blur content"
       inkscape:menu="Blurs"
       inkscape:menu-tooltip="Blur the contents of objects, preserving the outline"
       color-interpolation-filters="sRGB"
       x="-0.090000000000000011">
      <feColorMatrix
         id="feColorMatrix5557"
         values="0"
         result="result7"
         type="saturate" />
      <feGaussianBlur
         id="feGaussianBlur5559"
         result="result6"
         stdDeviation="5" />
      <feComposite
         id="feComposite5561"
         in2="result7"
         operator="atop"
         in="result6"
         result="result91" />
      <feComposite
         id="feComposite5563"
         in2="result91"
         operator="in" />
      <feGaussianBlur
         stdDeviation="3.2206880733944954"
         id="feGaussianBlur5565" />
    </filter>
    <linearGradient
       inkscape:collect="always"
       xlink:href="#linearGradient5571"
       id="linearGradient5569"
       gradientUnits="userSpaceOnUse"
       x1="93.725166"
       y1="61.110985"
       x2="81.851151"
       y2="-16.046265"
       gradientTransform="translate(-2.0000001,0)" />
  </defs>
  <sodipodi:namedview
     pagecolor="#ffffff"
     bordercolor="#666666"
     borderopacity="1"
     objecttolerance="10"
     gridtolerance="10"
     guidetolerance="10"
     inkscape:pageopacity="0"
     inkscape:pageshadow="2"
     inkscape:window-width="1152"
     inkscape:window-height="823"
     id="namedview3076"
     showgrid="false"
     inkscape:zoom="1.6848709"
     inkscape:cx="110.53441"
     inkscape:cy="94.944816"
     inkscape:window-x="651"
     inkscape:window-y="22"
     inkscape:window-maximized="0"
     inkscape:current-layer="g2990"
     fit-margin-top="0"
     fit-margin-left="0"
     fit-margin-right="0"
     fit-margin-bottom="0" />
  <metadata
     id="metadata2987">
    <rdf:RDF>
      <cc:Work
         rdf:about="">
        <dc:title />
        <dc:description>Orange Juice Box</dc:description>
        <dc:subject>
          <rdf:Bag>
            <rdf:li>food</rdf:li>
            <rdf:li>juice</rdf:li>
            <rdf:li>menu</rdf:li>
            <rdf:li>orange</rdf:li>
            <rdf:li>beverage</rdf:li>
          </rdf:Bag>
        </dc:subject>
        <dc:publisher>
          <cc:Agent
             rdf:about="http://www.openclipart.org/">
            <dc:title>Open Clip Art Project</dc:title>
          </cc:Agent>
        </dc:publisher>
        <dc:creator>
          <cc:Agent
             rdf:about="http://web.resource.org/cc/PublicDomain">
            <dc:title>Gerald G.</dc:title>
          </cc:Agent>
        </dc:creator>
        <dc:rights>
          <cc:Agent
             rdf:about="http://web.resource.org/cc/PublicDomain">
            <dc:title>Public Domain</dc:title>
          </cc:Agent>
        </dc:rights>
        <dc:date>2005/05/30</dc:date>
        <dc:format>image/svg+xml</dc:format>
        <dc:type
           rdf:resource="http://purl.org/dc/dcmitype/StillImage" />
        <cc:license
           rdf:resource="http://web.resource.org/cc/PublicDomain" />
        <dc:language>en</dc:language>
      </cc:Work>
      <cc:License
         rdf:about="http://web.resource.org/cc/PublicDomain">
        <cc:permits
           rdf:resource="http://web.resource.org/cc/Reproduction" />
        <cc:permits
           rdf:resource="http://web.resource.org/cc/Distribution" />
        <cc:permits
           rdf:resource="http://web.resource.org/cc/DerivativeWorks" />
      </cc:License>
    </rdf:RDF>
  </metadata>
  <g
     id="g2990"
     transform="translate(34.413773,177.94438)">
    <path
       style="fill:url(#linearGradient5529);fill-opacity:1;stroke:none;overflow:visible"
       d="M 70.308948,35.498384 C -15.121414,25.922166 -31.963214,-13.686897 -31.711552,-54.264397 -31.359512,-111.02682 15.167999,-146.88626 81.891279,-149.53324 238.12852,-147.69183 226.35667,36.868104 70.308948,35.498384 z"
       id="path3123"
       inkscape:connector-curvature="0"
       sodipodi:nodetypes="cscc" />
    <g
       transform="matrix(1.3995127,0,0,1.5180181,-14.192852,-109.80334)"
       i:dimmedPercent="50"
       i:layer="yes"
       i:rgbTrio="#4F008000FFFF"
       id="Layer_1">
      <path
         id="path5238"
         i:knockout="Off"
         d="m 132.084,0.612 c -1.296,1.476 -1.584,3.384 -0.864,5.58 0.756,2.268 3.601,3.528 4.933,7.668 1.188,3.996 3.527,9.792 2.016,16.272 -1.692,6.372 -6.372,15.66 -11.808,21.636 -5.616,5.724 -11.557,9.468 -21.024,13.319 -9.504,3.816 -23.22,9.252 -35.46,10.044 C 57.493,75.816 42.841,73.152 32.185,69.659 21.528,66.168 11.7,59.544 6.588,54.216 1.44,48.708 2.628,42.229 1.548,37.153 0.432,32.004 -0.036,27.612 0,23.688 2.88,22.104 8.352,20.376 16.848,18.648 25.272,16.776 39.384,14.472 50.436,13.14 61.38,11.772 73.332,12.132 82.692,10.908 91.979,9.54 99.467,7.488 106.128,5.724 c 6.444,-1.8 11.484,-4.176 15.804,-5.04 4.392,-0.864 7.596,-0.936 10.152,-0.072 z"
         clip-rule="evenodd"
         inkscape:connector-curvature="0"
         style="fill-rule:evenodd" />
      <path
         id="path5240"
         i:knockout="Off"
         d="m 129.744,1.008 c -0.252,0.684 -0.072,1.764 0.252,3.384 0.359,1.584 1.368,4.176 1.908,6.12 0.359,1.728 1.044,2.592 0.684,5.076 -0.468,2.448 -0.396,5.724 -3.24,9.828 -2.952,3.96 -7.956,9.9 -14.184,14.22 -6.336,4.284 -13.248,8.748 -23.508,11.448 -10.44,2.484 -27.288,3.528 -37.908,3.96 C 43.164,55.477 36.144,55.368 28.656,53.605 21.096,51.661 12.96,47.197 8.964,43.957 4.968,40.681 6.084,37.441 4.824,34.237 3.456,30.853 2.268,27.685 1.116,24.301 l 5.796,-2.304 c -1.98,3.852 -1.584,7.884 1.044,12.24 2.556,4.32 6.3,10.728 14.724,13.68 8.424,2.772 23.616,3.816 35.712,3.672 11.952,-0.144 26.1,-1.62 36.036,-4.428 9.792,-2.844 17.316,-7.488 23.112,-12.564 5.76,-5.256 9.864,-14.004 11.483,-18.324 1.44,-4.248 -0.432,-5.688 -2.411,-7.38 -2.089,-1.764 -8.389,-2.592 -9.576,-3.456 -1.225,-0.972 0.899,-1.764 2.34,-2.376 1.368,-0.684 4.14,-1.368 5.976,-1.62 1.764,-0.397 3.132,-0.541 4.392,-0.433 z"
         clip-rule="evenodd"
         inkscape:connector-curvature="0"
         style="fill:#ffffff;fill-rule:evenodd" />
      <path
         id="path5242"
         stroke-miterlimit="10"
         i:knockout="Off"
         d="m 0.864,28.152 c 0.576,2.556 1.116,5.4 1.62,8.532 0.432,3.096 0.216,7.129 1.152,10.152 0.792,2.772 1.404,4.824 4.176,7.416 2.772,2.664 6.804,5.652 12.24,8.532 5.436,2.736 12.852,6.479 20.304,8.316 7.344,1.728 16.164,2.377 23.544,2.52 7.308,0 13.608,-0.612 19.872,-1.836 6.192,-1.404 11.629,-3.744 16.849,-5.76 5.184,-2.017 10.26,-4.068 13.859,-6.013 3.385,-1.907 4.681,-3.563 6.948,-5.544 2.269,-2.052 4.428,-3.708 6.912,-6.912 2.34,-3.455 5.868,-9.468 7.38,-13.176 1.368,-3.708 1.332,-6.192 1.404,-9 -0.036,-2.988 -0.468,-5.688 -1.152,-8.1 -0.72,-2.484 -1.728,-4.428 -3.023,-6.228 1.296,3.564 1.044,7.416 -0.9,11.556 -2.088,4.104 -6.876,9.324 -10.872,13.14 -3.996,3.708 -8.28,6.516 -12.708,9.252 -4.464,2.7 -8.1,4.932 -13.824,6.696 -5.832,1.656 -12.96,2.412 -20.808,3.24 C 65.809,55.619 54.721,56.05 47.521,56.086 40.357,56.05 36.325,55.942 31.141,54.935 25.849,53.783 20.341,51.731 16.129,49.607 11.845,47.302 7.777,44.315 5.725,41.758 3.6,39.168 4.176,36.612 3.42,34.38 2.592,32.112 1.692,29.988 0.864,28.152 z"
         clip-rule="evenodd"
         inkscape:connector-curvature="0"
         style="fill:#ffffff;fill-opacity:1;fill-rule:evenodd;stroke:#000000;stroke-width:0.036;stroke-miterlimit:10" />
      <path
         id="path5244"
         i:knockout="Off"
         d="m 51.624,59.724 c -0.36,0.54 -0.108,1.368 0.612,1.872 0.684,0.505 1.584,0.505 1.944,-0.035 0.36,-0.505 0.108,-1.368 -0.612,-1.872 -0.684,-0.504 -1.548,-0.469 -1.944,0.035 z"
         clip-rule="evenodd"
         inkscape:connector-curvature="0"
         style="fill-rule:evenodd" />
      <path
         id="path5246"
         i:knockout="Off"
         d="m 51.84,59.832 c -0.288,0.432 -0.072,1.116 0.504,1.512 0.576,0.396 1.26,0.396 1.584,-0.036 C 54.216,60.876 54,60.229 53.424,59.796 52.884,59.4 52.164,59.4 51.84,59.832 z"
         clip-rule="evenodd"
         inkscape:connector-curvature="0"
         style="fill:#ffffff;fill-rule:evenodd" />
      <path
         id="path5248"
         i:knockout="Off"
         d="m 127.728,32.544 c -0.936,-0.288 -2.592,0.828 -2.88,1.26 -0.216,0.216 1.225,0.36 1.692,0.828 0.36,0.504 0.107,2.124 0.612,2.34 0.396,0.036 2.052,-0.54 2.195,-1.332 0.073,-0.792 -0.935,-2.844 -1.619,-3.096 z"
         clip-rule="evenodd"
         inkscape:connector-curvature="0"
         style="fill-rule:evenodd" />
      <path
         id="path5250"
         i:knockout="Off"
         d="m 127.692,32.796 c -0.685,-0.288 -2.196,0.648 -2.305,1.008 -0.252,0.252 1.044,0.144 1.368,0.648 0.18,0.432 0.145,1.656 0.468,1.872 0.288,0.108 1.656,-0.576 1.765,-1.08 -0.072,-0.684 -0.684,-2.196 -1.296,-2.448 z"
         clip-rule="evenodd"
         inkscape:connector-curvature="0"
         style="fill:#ffffff;fill-rule:evenodd" />
      <path
         id="path5252"
         i:knockout="Off"
         d="m 38.016,65.521 c -0.396,0.504 -0.108,1.332 0.576,1.836 0.72,0.504 1.584,0.504 1.98,-0.036 0.36,-0.504 0.108,-1.332 -0.612,-1.836 -0.72,-0.505 -1.584,-0.505 -1.944,0.036 z"
         clip-rule="evenodd"
         inkscape:connector-curvature="0"
         style="fill-rule:evenodd" />
      <path
         id="path5254"
         i:knockout="Off"
         d="m 38.232,65.592 c -0.288,0.433 -0.108,1.116 0.468,1.513 0.576,0.432 1.296,0.396 1.584,0 0.324,-0.433 0.108,-1.116 -0.468,-1.513 -0.576,-0.432 -1.296,-0.396 -1.584,0 z"
         clip-rule="evenodd"
         inkscape:connector-curvature="0"
         style="fill:#ffffff;fill-rule:evenodd" />
      <path
         id="path5256"
         i:knockout="Off"
         d="m 12.384,52.561 c -0.396,0.54 -0.108,1.367 0.576,1.871 0.72,0.505 1.584,0.505 1.944,-0.035 0.396,-0.504 0.144,-1.332 -0.576,-1.872 -0.72,-0.504 -1.584,-0.469 -1.944,0.036 z"
         clip-rule="evenodd"
         inkscape:connector-curvature="0"
         style="fill-rule:evenodd" />
      <path
         id="path5258"
         i:knockout="Off"
         d="m 12.6,52.668 c -0.324,0.433 -0.108,1.116 0.468,1.512 0.576,0.396 1.296,0.396 1.584,-0.035 0.324,-0.396 0.108,-1.08 -0.468,-1.513 -0.576,-0.396 -1.296,-0.396 -1.584,0.036 z"
         clip-rule="evenodd"
         inkscape:connector-curvature="0"
         style="fill:#ffffff;fill-rule:evenodd" />
      <path
         id="path5260"
         i:knockout="Off"
         d="m 83.484,65.736 c -0.36,0.504 -0.108,1.368 0.611,1.872 0.685,0.504 1.584,0.468 1.944,-0.036 0.396,-0.54 0.107,-1.368 -0.576,-1.872 -0.719,-0.504 -1.583,-0.504 -1.979,0.036 z"
         clip-rule="evenodd"
         inkscape:connector-curvature="0"
         style="fill-rule:evenodd" />
      <path
         id="path5262"
         i:knockout="Off"
         d="m 83.736,65.844 c -0.324,0.433 -0.108,1.08 0.468,1.513 0.576,0.396 1.26,0.396 1.584,-0.036 0.288,-0.433 0.072,-1.08 -0.504,-1.513 -0.54,-0.396 -1.261,-0.396 -1.548,0.036 z"
         clip-rule="evenodd"
         inkscape:connector-curvature="0"
         style="fill:#ffffff;fill-rule:evenodd" />
      <path
         id="path5264"
         i:knockout="Off"
         d="m 113.04,56.484 c -0.36,0.54 -0.108,1.368 0.612,1.872 0.72,0.504 1.584,0.504 1.943,-0.036 0.396,-0.504 0.108,-1.332 -0.576,-1.836 -0.719,-0.54 -1.583,-0.504 -1.979,0 z"
         clip-rule="evenodd"
         inkscape:connector-curvature="0"
         style="fill-rule:evenodd" />
      <path
         id="path5266"
         i:knockout="Off"
         d="m 113.292,56.592 c -0.324,0.433 -0.108,1.116 0.468,1.513 0.576,0.432 1.296,0.396 1.584,-0.036 0.288,-0.396 0.108,-1.08 -0.468,-1.477 -0.576,-0.432 -1.296,-0.396 -1.584,0 z"
         clip-rule="evenodd"
         inkscape:connector-curvature="0"
         style="fill:#ffffff;fill-rule:evenodd" />
      <path
         id="path5268"
         i:knockout="Off"
         d="m 96.876,62.28 c 0.18,-0.396 -1.944,-2.844 -2.628,-3.024 -0.756,-0.216 -2.017,1.332 -1.548,1.872 0.468,0.468 3.852,1.404 4.176,1.152 z"
         clip-rule="evenodd"
         inkscape:connector-curvature="0"
         style="fill-rule:evenodd" />
      <path
         id="path5270"
         i:knockout="Off"
         d="m 96.372,62.028 c 0.107,-0.288 -1.512,-2.34 -2.088,-2.412 -0.648,-0.216 -1.62,1.08 -1.261,1.512 0.325,0.396 3.061,1.116 3.349,0.9 z"
         clip-rule="evenodd"
         inkscape:connector-curvature="0"
         style="fill:#ffffff;fill-rule:evenodd" />
      <path
         id="path5272"
         i:knockout="Off"
         d="m 67.644,67.176 c -0.18,-0.432 -3.456,-0.216 -3.996,0.252 -0.576,0.396 -0.108,2.341 0.576,2.341 0.648,-0.181 3.456,-2.197 3.42,-2.593 z"
         clip-rule="evenodd"
         inkscape:connector-curvature="0"
         style="fill-rule:evenodd" />
      <path
         id="path5274"
         i:knockout="Off"
         d="m 67.176,67.393 c -0.18,-0.396 -2.736,-0.145 -3.204,0.216 -0.468,0.359 -0.18,1.836 0.432,1.908 0.432,-0.037 2.844,-1.909 2.772,-2.124 z"
         clip-rule="evenodd"
         inkscape:connector-curvature="0"
         style="fill:#ffffff;fill-rule:evenodd" />
      <path
         id="path5276"
         i:knockout="Off"
         d="m 26.172,59.904 c 0,0.359 3.276,0.468 3.996,0.18 0.468,-0.396 0.36,-2.448 -0.324,-2.412 -0.756,-0.036 -3.78,1.728 -3.672,2.232 z"
         clip-rule="evenodd"
         inkscape:connector-curvature="0"
         style="fill-rule:evenodd" />
      <path
         id="path5278"
         i:knockout="Off"
         d="m 26.676,59.724 c 0.036,0.253 2.592,0.396 3.204,0.145 0.432,-0.396 0.252,-1.872 -0.252,-1.908 -0.612,-0.073 -3.024,1.439 -2.952,1.763 z"
         clip-rule="evenodd"
         inkscape:connector-curvature="0"
         style="fill:#ffffff;fill-rule:evenodd" />
      <path
         id="path5280"
         i:knockout="Off"
         d="m 100.368,50.652 c -0.54,0.468 -0.288,2.808 0.071,3.132 0.217,0.252 0.685,-1.152 1.404,-1.296 0.612,-0.252 2.017,0.684 2.412,0.324 0.324,-0.433 0.18,-2.196 -0.432,-2.521 -0.683,-0.431 -2.987,-0.215 -3.455,0.361 z"
         clip-rule="evenodd"
         inkscape:connector-curvature="0"
         style="fill-rule:evenodd" />
      <path
         id="path5282"
         i:knockout="Off"
         d="m 100.584,50.76 c -0.504,0.433 -0.216,2.196 0.036,2.521 0.18,0.072 0.504,-0.828 1.116,-1.044 0.468,-0.145 1.584,0.504 1.943,0.288 0.252,-0.36 0.145,-1.729 -0.324,-2.017 -0.575,-0.36 -2.339,-0.18 -2.771,0.252 z"
         clip-rule="evenodd"
         inkscape:connector-curvature="0"
         style="fill:#ffffff;fill-rule:evenodd" />
      <path
         id="path5284"
         i:knockout="Off"
         d="m 70.056,61.056 c 0.54,-0.539 0.433,-2.88 0.252,-3.132 -0.252,-0.359 -0.936,0.937 -1.512,1.116 -0.648,0 -2.088,-0.9 -2.376,-0.612 -0.468,0.36 -0.468,2.017 0.144,2.593 0.54,0.359 2.808,0.503 3.492,0.035 z"
         clip-rule="evenodd"
         inkscape:connector-curvature="0"
         style="fill-rule:evenodd" />
      <path
         id="path5286"
         i:knockout="Off"
         d="m 69.84,60.876 c 0.432,-0.54 0.324,-2.16 0.216,-2.483 -0.216,-0.217 -0.72,0.684 -1.224,0.899 -0.468,-0.072 -1.692,-0.647 -1.872,-0.468 -0.324,0.18 -0.432,1.656 0.108,2.052 0.432,0.252 2.196,0.396 2.772,0 z"
         clip-rule="evenodd"
         inkscape:connector-curvature="0"
         style="fill:#ffffff;fill-rule:evenodd" />
      <path
         id="path5288"
         i:knockout="Off"
         d="m 27.072,63.396 c -0.396,0.647 0.396,2.664 0.864,2.987 0.216,0.036 0.468,-1.188 1.044,-1.584 0.612,-0.396 2.016,0.108 2.412,-0.288 0.108,-0.54 -0.288,-2.159 -1.044,-2.34 -0.72,-0.215 -2.916,0.469 -3.276,1.225 z"
         clip-rule="evenodd"
         inkscape:connector-curvature="0"
         style="fill-rule:evenodd" />
      <path
         id="path5290"
         i:knockout="Off"
         d="m 27.324,63.468 c -0.324,0.612 0.324,2.053 0.684,2.376 0.108,0.108 0.432,-1.008 0.828,-1.26 0.504,-0.252 1.656,0.036 1.944,-0.252 0.108,-0.324 -0.324,-1.872 -0.864,-1.872 -0.72,-0.216 -2.232,0.396 -2.592,1.008 z"
         clip-rule="evenodd"
         inkscape:connector-curvature="0"
         style="fill:#ffffff;fill-rule:evenodd" />
      <path
         id="path5292"
         i:knockout="Off"
         d="m 81.828,58.428 c -0.252,0.36 -0.072,0.864 0.359,1.188 0.469,0.36 1.044,0.324 1.261,0 0.252,-0.324 0.071,-0.864 -0.36,-1.188 -0.468,-0.324 -1.044,-0.324 -1.26,0 z"
         clip-rule="evenodd"
         inkscape:connector-curvature="0"
         style="fill-rule:evenodd" />
      <path
         id="path5294"
         i:knockout="Off"
         d="m 81.972,58.5 c -0.216,0.288 -0.071,0.72 0.288,0.972 0.396,0.252 0.828,0.252 1.044,0 0.181,-0.287 0.036,-0.72 -0.324,-0.972 -0.36,-0.288 -0.828,-0.288 -1.008,0 z"
         clip-rule="evenodd"
         inkscape:connector-curvature="0"
         style="fill:#ffffff;fill-rule:evenodd" />
      <path
         id="path5296"
         i:knockout="Off"
         d="m 71.208,69.3 c -0.252,0.324 -0.072,0.864 0.36,1.188 0.468,0.324 1.044,0.324 1.26,-0.036 C 73.08,70.128 72.9,69.588 72.468,69.264 72,68.94 71.424,68.94 71.208,69.3 z"
         clip-rule="evenodd"
         inkscape:connector-curvature="0"
         style="fill-rule:evenodd" />
      <path
         id="path5298"
         i:knockout="Off"
         d="m 71.352,69.372 c -0.216,0.252 -0.071,0.684 0.288,0.936 0.396,0.288 0.828,0.288 1.044,0 0.181,-0.287 0.036,-0.72 -0.323,-0.972 C 72,69.084 71.532,69.084 71.352,69.372 z"
         clip-rule="evenodd"
         inkscape:connector-curvature="0"
         style="fill:#ffffff;fill-rule:evenodd" />
      <path
         id="path5300"
         stroke-miterlimit="10"
         i:knockout="Off"
         d="M 7.812,22.248 C 12.744,20.34 19.008,18.972 27,17.604 35.028,16.2 46.296,15.228 55.404,14.4 c 8.82,-0.792 15.192,-0.18 24.948,-1.62 9.828,-1.548 20.628,-4.14 33.229,-7.632 2.088,0.9 4.176,1.98 6.696,3.24 2.447,1.188 7.199,1.404 7.848,4.14 0.504,2.808 -2.556,8.46 -4.608,12.24 -2.195,3.456 -3.096,6.012 -7.848,9.468 -4.86,3.492 -12.313,8.819 -20.556,11.556 -8.425,2.556 -19.116,3.564 -28.621,4.14 C 56.88,50.437 46.26,49.68 38.52,49.032 30.708,48.347 24.984,47.592 20.52,45.792 16.092,43.74 14.04,39.996 11.988,37.476 9.684,34.884 8.352,33.3 7.596,30.78 6.876,28.224 6.948,25.38 7.812,22.248 z"
         clip-rule="evenodd"
         inkscape:connector-curvature="0"
         style="fill:#ffffff;fill-rule:evenodd;stroke:#000000;stroke-width:0.036;stroke-miterlimit:10" />
      <path
         id="path5302"
         i:knockout="Off"
         d="m 33.048,21.204 c -1.008,1.44 -5.688,12.06 -6.804,16.02 -1.044,3.816 -0.9,8.064 0.144,6.768 0.972,-1.584 3.96,-11.124 5.22,-15.012 1.044,-3.924 2.304,-9.108 1.44,-7.776 z"
         clip-rule="evenodd"
         inkscape:connector-curvature="0"
         style="fill-rule:evenodd" />
      <path
         id="path5304"
         i:knockout="Off"
         d="m 52.812,22.32 c -0.504,-0.252 -1.404,4.824 -1.44,8.82 -0.036,3.924 1.188,14.256 1.584,14.616 0.36,0.145 0.468,-9.324 0.468,-13.248 C 53.352,28.512 53.1,22.572 52.812,22.32 z"
         clip-rule="evenodd"
         inkscape:connector-curvature="0"
         style="fill-rule:evenodd" />
      <path
         id="path5306"
         i:knockout="Off"
         d="m 70.056,35.136 c -0.252,0.36 0.864,8.711 1.404,10.188 0.54,1.332 1.404,-0.432 1.332,-2.088 -0.324,-1.908 -2.484,-8.352 -2.736,-8.1 z"
         clip-rule="evenodd"
         inkscape:connector-curvature="0"
         style="fill-rule:evenodd" />
      <path
         id="path5308"
         i:knockout="Off"
         d="m 74.808,16.452 c -0.216,0.972 2.124,13.284 4.104,18.036 1.8,4.644 6.552,10.26 6.876,9.504 0.144,-0.937 -3.672,-10.404 -5.472,-14.94 -1.98,-4.716 -5.256,-13.5 -5.508,-12.6 z"
         clip-rule="evenodd"
         inkscape:connector-curvature="0"
         style="fill-rule:evenodd" />
      <path
         id="path5310"
         i:knockout="Off"
         d="m 105.336,13.356 c 0.972,0.18 5.76,2.34 8.532,4.824 2.556,2.268 8.027,8.964 7.128,8.964 -1.08,-0.18 -10.225,-7.308 -12.853,-9.576 -2.699,-2.412 -3.779,-4.284 -2.807,-4.212 z"
         clip-rule="evenodd"
         inkscape:connector-curvature="0"
         style="fill-rule:evenodd" />
      <path
         id="path5312"
         i:knockout="Off"
         d="m 113.364,42.948 c -0.252,0.324 1.943,2.7 2.699,2.952 0.648,0.107 1.944,-1.404 1.513,-1.908 -0.576,-0.54 -3.924,-1.404 -4.212,-1.044 z"
         clip-rule="evenodd"
         inkscape:connector-curvature="0"
         style="fill-rule:evenodd" />
      <path
         id="path5314"
         i:knockout="Off"
         d="m 113.868,43.2 c -0.288,0.216 1.584,2.16 2.16,2.376 0.468,0.072 1.512,-1.224 1.188,-1.548 -0.432,-0.467 -3.168,-1.116 -3.348,-0.828 z"
         clip-rule="evenodd"
         inkscape:connector-curvature="0"
         style="fill:#ffffff;fill-rule:evenodd" />
      <path
         id="path5316"
         i:knockout="Off"
         d="m 88.056,17.712 c -0.324,0.288 3.564,6.156 6.372,8.712 2.7,2.376 9.433,5.472 9.792,5.4 0.145,-0.288 -5.147,-4.356 -7.956,-6.66 -2.772,-2.448 -7.92,-7.704 -8.208,-7.452 z"
         clip-rule="evenodd"
         inkscape:connector-curvature="0"
         style="fill-rule:evenodd" />
      <path
         id="path5318"
         i:knockout="Off"
         d="m 109.08,49.428 c -0.252,0.324 -0.072,0.864 0.359,1.188 0.469,0.324 1.045,0.324 1.261,0 0.252,-0.36 0.071,-0.864 -0.36,-1.224 -0.468,-0.324 -1.044,-0.288 -1.26,0.036 z"
         clip-rule="evenodd"
         inkscape:connector-curvature="0"
         style="fill-rule:evenodd" />
      <path
         id="path5320"
         i:knockout="Off"
         d="m 109.224,49.5 c -0.216,0.252 -0.071,0.72 0.288,0.972 0.396,0.252 0.828,0.252 1.044,-0.035 0.181,-0.252 0.036,-0.685 -0.324,-0.973 -0.36,-0.252 -0.828,-0.252 -1.008,0.036 z"
         clip-rule="evenodd"
         inkscape:connector-curvature="0"
         style="fill:#ffffff;fill-rule:evenodd" />
    </g>
    <path
       sodipodi:nodetypes="cscssc"
       inkscape:connector-curvature="0"
       id="path5567"
       d="M 70.902466,35.498384 C 12.375273,31.86927 -17.62255,5.0872166 -23.648377,-25.85158 c -2.706451,-13.895912 54.472066,-8.675556 110.881312,-10.913369 55.415145,-1.561888 101.294085,4.466064 101.294085,4.466064 -6.56076,23.1291931 -31.01788,46.494023 -58.72197,57.366969 -19.57487,7.682494 -37.207852,10.608268 -58.902584,10.4303 z"
       style="opacity:0.98000004;fill:url(#linearGradient5569);fill-opacity:1;stroke:none;overflow:visible" />
  </g>
</svg>
