<?xml version="1.0" encoding="UTF-8" standalone="no"?>
<!-- Created with Inkscape (http://www.inkscape.org/) -->

<svg
   xmlns:dc="http://purl.org/dc/elements/1.1/"
   xmlns:cc="http://creativecommons.org/ns#"
   xmlns:rdf="http://www.w3.org/1999/02/22-rdf-syntax-ns#"
   xmlns:svg="http://www.w3.org/2000/svg"
   xmlns="http://www.w3.org/2000/svg"
   xmlns:xlink="http://www.w3.org/1999/xlink"
   xmlns:sodipodi="http://sodipodi.sourceforge.net/DTD/sodipodi-0.dtd"
   xmlns:inkscape="http://www.inkscape.org/namespaces/inkscape"
   version="1.1"
   width="233.3421"
   height="235.8602"
   viewBox="0 0 233.34211 235.86019"
   id="svg2985"
   style="overflow:visible"
   inkscape:version="0.48.4 r"
   sodipodi:docname="apple.svg">
  <sodipodi:namedview
     pagecolor="#ffffff"
     bordercolor="#666666"
     borderopacity="1"
     objecttolerance="10"
     gridtolerance="10"
     guidetolerance="10"
     inkscape:pageopacity="0"
     inkscape:pageshadow="2"
     inkscape:window-width="1445"
     inkscape:window-height="823"
     id="namedview3582"
     showgrid="false"
     inkscape:zoom="1"
     inkscape:cx="49.79946"
     inkscape:cy="179.73328"
     inkscape:window-x="69"
     inkscape:window-y="46"
     inkscape:window-maximized="0"
     inkscape:current-layer="svg2985" />
  <defs
     id="defs3078">
    <linearGradient
       id="linearGradient3910">
      <stop
         style="stop-color:#d1f5bc;stop-opacity:1;"
         offset="0"
         id="stop3912" />
      <stop
         style="stop-color:#9ce970;stop-opacity:0;"
         offset="1"
         id="stop3915" />
    </linearGradient>
    <linearGradient
       id="linearGradient3878">
      <stop
         style="stop-color:#6e8f5b;stop-opacity:1;"
         offset="0"
         id="stop3880" />
      <stop
         style="stop-color:#ebebeb;stop-opacity:0;"
         offset="1"
         id="stop3882" />
    </linearGradient>
    <linearGradient
       id="linearGradient4407">
      <stop
         style="stop-color:#5a932e;stop-opacity:1;"
         offset="0"
         id="stop4409" />
      <stop
         style="stop-color:#008000;stop-opacity:0;"
         offset="1"
         id="stop4411" />
    </linearGradient>
    <linearGradient
       id="linearGradient3920">
      <stop
         id="stop3922"
         style="stop-color:#f76605;stop-opacity:1"
         offset="0" />
      <stop
         id="stop3924"
         style="stop-color:#f76605;stop-opacity:0"
         offset="1" />
    </linearGradient>
    <linearGradient
       id="linearGradient3912">
      <stop
         id="stop3914"
         style="stop-color:#f76605;stop-opacity:1"
         offset="0" />
      <stop
         id="stop3916"
         style="stop-color:#f76605;stop-opacity:0"
         offset="1" />
    </linearGradient>
    <linearGradient
       x1="266.47787"
       y1="211.67976"
       x2="229.98468"
       y2="1.0003659"
       id="linearGradient3926"
       xlink:href="#linearGradient3920"
       gradientUnits="userSpaceOnUse" />
    <linearGradient
       x1="181.08247"
       y1="130.10081"
       x2="215.93491"
       y2="39.449913"
       id="linearGradient3928"
       xlink:href="#linearGradient3912"
       gradientUnits="userSpaceOnUse"
       gradientTransform="matrix(1,0,0,0.86093174,-54.558414,-74.851056)" />
    <radialGradient
       inkscape:collect="always"
       xlink:href="#linearGradient3878"
       id="radialGradient3884"
       cx="105.76555"
       cy="119.15379"
       fx="105.76555"
       fy="119.15379"
       r="80.952019"
       gradientTransform="matrix(0.97108935,-0.00560264,0.0096149,0.92993436,2.0837497,8.2171544)"
       gradientUnits="userSpaceOnUse" />
    <radialGradient
       inkscape:collect="always"
       xlink:href="#linearGradient3878-9"
       id="radialGradient3884-4"
       cx="105.76555"
       cy="119.15379"
       fx="105.76555"
       fy="119.15379"
       r="80.952019"
       gradientTransform="matrix(0.97108935,-0.00560264,0.0096149,0.92993436,2.0837497,8.2171544)"
       gradientUnits="userSpaceOnUse" />
    <linearGradient
       id="linearGradient3878-9">
      <stop
         style="stop-color:#6e8f5b;stop-opacity:1;"
         offset="0"
         id="stop3880-6" />
      <stop
         style="stop-color:#ebebeb;stop-opacity:0;"
         offset="1"
         id="stop3882-9" />
    </linearGradient>
    <radialGradient
       r="80.952019"
       fy="119.15379"
       fx="105.76555"
       cy="119.15379"
       cx="105.76555"
       gradientTransform="matrix(0.97108935,-0.00560264,0.0096149,0.92993436,2.0837497,8.2171544)"
       gradientUnits="userSpaceOnUse"
       id="radialGradient14609"
       xlink:href="#linearGradient3878-9"
       inkscape:collect="always" />
  </defs>
  <metadata
     id="metadata2987">
    <rdf:RDF>
      <cc:Work
         rdf:about="">
        <dc:title />
        <dc:description>Orange Juice Box</dc:description>
        <dc:subject>
          <rdf:Bag>
            <rdf:li>food</rdf:li>
            <rdf:li>juice</rdf:li>
            <rdf:li>menu</rdf:li>
            <rdf:li>orange</rdf:li>
            <rdf:li>beverage</rdf:li>
          </rdf:Bag>
        </dc:subject>
        <dc:publisher>
          <cc:Agent
             rdf:about="http://www.openclipart.org/">
            <dc:title>Open Clip Art Project</dc:title>
          </cc:Agent>
        </dc:publisher>
        <dc:creator>
          <cc:Agent
             rdf:about="http://web.resource.org/cc/PublicDomain">
            <dc:title>Gerald G.</dc:title>
          </cc:Agent>
        </dc:creator>
        <dc:rights>
          <cc:Agent
             rdf:about="http://web.resource.org/cc/PublicDomain">
            <dc:title>Public Domain</dc:title>
          </cc:Agent>
        </dc:rights>
        <dc:date>2005/05/30</dc:date>
        <dc:format>image/svg+xml</dc:format>
        <dc:type
           rdf:resource="http://purl.org/dc/dcmitype/StillImage" />
        <cc:license
           rdf:resource="http://web.resource.org/cc/PublicDomain" />
        <dc:language>en</dc:language>
      </cc:Work>
      <cc:License
         rdf:about="http://web.resource.org/cc/PublicDomain">
        <cc:permits
           rdf:resource="http://web.resource.org/cc/Reproduction" />
        <cc:permits
           rdf:resource="http://web.resource.org/cc/Distribution" />
        <cc:permits
           rdf:resource="http://web.resource.org/cc/DerivativeWorks" />
      </cc:License>
    </rdf:RDF>
  </metadata>
  <path
     style="opacity:0.2431193;fill:#806600;fill-opacity:1;stroke:none"
     d="m 227.52744,109.34335 c 0,58.69915 -22.95782,110.96424 -122.1675,112.70799 C 38.208784,223.23161 4.8857279,168.0425 4.8857279,109.34335 c 0,-58.699154 31.1031491,-87.479149 107.3247321,-91.684737 79.19445,-4.369618 115.31698,32.985583 115.31698,91.684737 z"
     id="path3929"
     inkscape:connector-curvature="0"
     sodipodi:nodetypes="sssss" />
  <g
     transform="matrix(1.0143109,0,0,0.70974597,37.398968,154.03019)"
     id="g2990">
    <path
       sodipodi:type="arc"
       style="fill:url(#radialGradient3884);fill-opacity:1;stroke:none"
       id="path3108"
       sodipodi:cx="106.93661"
       sodipodi:cy="116.43098"
       sodipodi:rx="80.952019"
       sodipodi:ry="79.452911"
       d="m 187.88863,116.43098 c 0,43.88063 -36.24346,79.45291 -80.95202,79.45291 -44.708568,0 -80.952021,-35.57228 -80.952021,-79.45291 0,-43.880634 36.243453,-79.452915 80.952021,-79.452915 44.70856,0 80.95202,35.572281 80.95202,79.452915 z"
       transform="matrix(1.2285681,0,0,0.29661719,-52.680414,15.522897)" />
  </g>
  <g
     inkscape:groupmode="layer"
     id="layer1"
     inkscape:label="Layer">
    <g
       id="g14513"
       transform="matrix(1.0254121,0,0,1.0254121,243.63272,257.26335)">
      <path
         d="m -124.20732,-229.61395 -0.001,-0.0663 c 0,0 -0.28075,0.004 -0.791,0.0275 -0.51025,-0.0237 -0.794,-0.0275 -0.794,-0.0275 l 0,0.0663 c -11.26562,0.6425 -79.18887,5.85875 -79.18887,81.24625 0,76.287505 66.50575,79.307505 79.98287,78.775005 13.474,0.5325 79.981506,-2.4875 79.981506,-78.775005 0,-75.3875 -67.923756,-80.60375 -79.189506,-81.24625"
         style="fill:#62c557;fill-opacity:1;fill-rule:nonzero;stroke:none"
         id="path10792"
         inkscape:connector-curvature="0" />
      <path
         d="m -124.20732,-229.61395 -0.001,-0.0663 c 0,0 -0.28075,0.004 -0.791,0.0275 -0.51025,-0.0237 -0.794,-0.0275 -0.794,-0.0275 -0.30275,-3.7375 3.20263,-5.45625 4.00838,-8.6675 1.05712,-4.20875 -3.34375,-4.155 -6.083,-5.0975 -2.19925,-0.75375 -2.4375,-2.17125 -1.83263,-3.25625 0.604,-1.08625 1.53813,-2.03 1.53813,-2.03 -2.85888,1.1325 -5.42388,5.16125 0.87937,6.7975 2.52938,0.655 3.5645,1.07125 3.5835,1.8875 0.0299,1.32 -0.65087,2.64375 -4.24262,3.77625 -2.24025,0.705 -2.96288,5.5675 -2.46238,7.01875 -6.40537,0.64375 -17.03125,2.3 -28.29987,6.875 34.33687,5.50875 58.766626,1.7 67.242876,-0.0662 -14.666256,-5.92 -28.239006,-6.915 -32.745756,-7.17125"
         style="fill:#309f3f;fill-opacity:1;fill-rule:nonzero;stroke:none"
         id="path10794"
         inkscape:connector-curvature="0" />
      <path
         d="m -115.26344,-220.0852 c 0,0 33.134366,6.73875 45.393116,37.3525 0,0 7.9075,20.37625 -6.505,25.81125 0,0 -21.40499,4.27375 -25.762486,-17.85125 -4.06251,-20.625 -4.06251,-26.25 -13.12563,-45.3125"
         style="fill:#90d575;fill-opacity:1;fill-rule:nonzero;stroke:none"
         id="path10796"
         inkscape:connector-curvature="0" />
      <path
         d="m -47.392804,-142.57019 c 0,0 -28.70251,43.527495 -83.703266,21.86 0,0 -63.3335,-31.66626 -21.6205,-99.46626 0,0 -56.22562,13.46125 -48.30625,90.27751 0,0 9.5025,57.016245 73.6465,57.808745 0,0 74.439766,3.1675 79.983516,-70.479995"
         style="fill:#389f3d;fill-opacity:1;fill-rule:nonzero;stroke:none"
         id="path10798"
         inkscape:connector-curvature="0" />
      <path
         d="m -106.96657,-224.3177 c 0,0 46.834996,15.18875 51.225016,68.80125 0,0 5.12125,60.761255 -41.71126,78.631255 0,0 37.405,-10.67125 34.39375,-76.845005 -2.19626,-48.24875 -43.907506,-70.5875 -43.907506,-70.5875"
         style="fill:#213f1c;fill-opacity:1;fill-rule:nonzero;stroke:none"
         id="path10800"
         inkscape:connector-curvature="0" />
      <path
         d="m -132.65369,-225.2127 c 0,0 -10.42225,14.815 -10.42225,80.75251 0,0 -4.375,38.125 9.375,72.187495 0,0 -25.625,-15.93625 -25.625,-72.187495 0,-55.39876 26.67225,-80.75251 26.67225,-80.75251"
         style="fill:#213f1c;fill-opacity:1;fill-rule:nonzero;stroke:none"
         id="path10802"
         inkscape:connector-curvature="0" />
      <path
         d="m -117.56032,-225.2127 c 0,0 10.42,14.815 10.42,80.75251 0,0 1.8775,36.25125 -9.37512,72.187495 0,0 25.937626,-13.75 25.625126,-72.187495 -0.29625,-55.39751 -26.670006,-80.75251 -26.670006,-80.75251"
         style="fill:#213f1c;fill-opacity:1;fill-rule:nonzero;stroke:none"
         id="path10804"
         inkscape:connector-curvature="0" />
      <path
         d="m -143.74107,-224.3177 c 0,0 -46.8335,15.18875 -51.22462,68.80125 0,0 -5.1215,60.761255 41.712,78.631255 0,0 -37.40538,-10.67125 -34.39363,-76.845005 2.19638,-48.24875 43.90625,-70.5875 43.90625,-70.5875"
         style="fill:#213f1c;fill-opacity:1;fill-rule:nonzero;stroke:none"
         id="path10806"
         inkscape:connector-curvature="0" />
      <path
         d="m -108.18032,-115.00644 c 5.28751,0.515 10.241256,0.4175 14.852506,-0.1475 1.55374,-8.22375 2.49874,-17.90375 2.4375,-29.30625 -0.29625,-55.39751 -26.670006,-80.75251 -26.670006,-80.75251 0,0 10.42,14.815 10.42,80.75251 0,0 0.625,12.20125 -1.04,29.45375"
         style="fill:#247636;fill-opacity:1;fill-rule:nonzero;stroke:none"
         id="path10808"
         inkscape:connector-curvature="0" />
      <path
         d="m -91.610324,-159.1602 c -2.97875,-31.59375 -14.464996,-51.27875 -21.114996,-60.27375 -1.5825,-0.4525 -2.51625,-0.64625 -2.53275,-0.65 l 0.0131,0.0362 c 9.04463,19.0325 9.04713,24.665 13.10713,45.275 1.69125,8.585 5.948746,13.185 10.527496,15.6125"
         style="fill:#309f3f;fill-opacity:1;fill-rule:nonzero;stroke:none"
         id="path10810"
         inkscape:connector-curvature="0" />
      <path
         d="m -63.059074,-153.7302 c 0.47876,10.53626 -0.0787,19.64251 -1.335,27.54376 2.75375,-1.88 5.17875,-3.8175 7.26751,-5.67875 2.24375,-13.35375 1.385,-23.65126 1.385,-23.65126 -4.39001,-53.6125 -51.225006,-68.80125 -51.225006,-68.80125 0,0 41.711246,22.33875 43.907496,70.5875"
         style="fill:#247636;fill-opacity:1;fill-rule:nonzero;stroke:none"
         id="path10812"
         inkscape:connector-curvature="0" />
      <path
         d="m -143.73219,-129.45394 c -0.0104,-9.155 0.65625,-15.00625 0.65625,-15.00625 0,-65.93751 10.42225,-80.75251 10.42225,-80.75251 0,0 -25.5585,24.3325 -26.6205,77.36125 4.52137,7.86501 10.354,13.98001 15.542,18.39751"
         style="fill:#247636;fill-opacity:1;fill-rule:nonzero;stroke:none"
         id="path10814"
         inkscape:connector-curvature="0" />
      <path
         d="m -152.71657,-220.17645 c -0.752,1.22 -1.459,2.42625 -2.14412,3.625 6.36962,-5.21625 11.11962,-7.76625 11.11962,-7.76625 0,0 -3.80275,1.23625 -9.332,4.235 0.23288,-0.065 0.3565,-0.0937 0.3565,-0.0937"
         style="fill:#247636;fill-opacity:1;fill-rule:nonzero;stroke:none"
         id="path10816"
         inkscape:connector-curvature="0" />
      <path
         d="m -148.94219,-221.02145 c 3.17137,-2.20125 5.20112,-3.29625 5.20112,-3.29625 0,0 -2.80175,0.91375 -7.08587,3.065 0.62987,0.0788 1.26162,0.15875 1.88475,0.23125"
         style="fill:#3b9138;fill-opacity:1;fill-rule:nonzero;stroke:none"
         id="path10818"
         inkscape:connector-curvature="0" />
      <path
         d="m -132.65369,-225.2127 c 0,0 -1.81338,1.73125 -4.49063,5.265 0.704,0.0437 1.40525,0.0875 2.09563,0.125 1.38725,-3.955 2.395,-5.39 2.395,-5.39"
         style="fill:#3b9138;fill-opacity:1;fill-rule:nonzero;stroke:none"
         id="path10820"
         inkscape:connector-curvature="0" />
      <path
         d="m -117.56032,-225.2127 c 0,0 1.02725,1.475 2.43625,5.52 0.7225,-0.0325 1.43125,-0.0675 2.12625,-0.105 -2.71437,-3.6275 -4.5625,-5.415 -4.5625,-5.415"
         style="fill:#3b9138;fill-opacity:1;fill-rule:nonzero;stroke:none"
         id="path10822"
         inkscape:connector-curvature="0" />
    </g>
  </g>
</svg>
