<?xml version="1.0" encoding="UTF-8" standalone="no"?>
<!-- Created with Inkscape (http://www.inkscape.org/) -->

<svg
   xmlns:dc="http://purl.org/dc/elements/1.1/"
   xmlns:cc="http://creativecommons.org/ns#"
   xmlns:rdf="http://www.w3.org/1999/02/22-rdf-syntax-ns#"
   xmlns:svg="http://www.w3.org/2000/svg"
   xmlns="http://www.w3.org/2000/svg"
   xmlns:sodipodi="http://sodipodi.sourceforge.net/DTD/sodipodi-0.dtd"
   xmlns:inkscape="http://www.inkscape.org/namespaces/inkscape"
   version="1.1"
   width="244.36337"
   height="212.29686"
   id="svg2"
   inkscape:version="0.48.4 r"
   sodipodi:docname="n_n.svg">
  <sodipodi:namedview
     pagecolor="#ffffff"
     bordercolor="#666666"
     borderopacity="1"
     objecttolerance="10"
     gridtolerance="10"
     guidetolerance="10"
     inkscape:pageopacity="0"
     inkscape:pageshadow="2"
     inkscape:window-width="640"
     inkscape:window-height="480"
     id="namedview4010"
     showgrid="false"
     inkscape:zoom="1.1116509"
     inkscape:cx="122.18169"
     inkscape:cy="106.14843"
     inkscape:window-x="0"
     inkscape:window-y="22"
     inkscape:window-maximized="0"
     inkscape:current-layer="svg2" />
  <defs
     id="defs4" />
  <metadata
     id="metadata7">
    <rdf:RDF>
      <cc:Work
         rdf:about="">
        <dc:format>image/svg+xml</dc:format>
        <dc:type
           rdf:resource="http://purl.org/dc/dcmitype/StillImage" />
        <dc:title />
      </cc:Work>
    </rdf:RDF>
  </metadata>
  <g
     transform="translate(-84.707574,-401.62784)"
     id="layer1">
    <g
       style="font-size:77.58502197px;font-style:normal;font-weight:normal;line-height:125%;letter-spacing:0px;word-spacing:0px;opacity:0.3;fill:#333333;fill-opacity:1;stroke:none;font-family:Sans"
       id="text2985">
      <path
         d="m 115.47199,605.89404 0,-124.25725 c -3e-5,-12.75391 -0.31572,-24.93969 -0.94708,-36.55739 -0.50514,-11.74365 -1.07339,-20.26739 -1.70475,-25.57123 l -0.75766,-7.9555 47.16472,0 0,26.70773 c 6.69263,-10.22831 15.72148,-18.05752 27.08656,-23.48765 11.36488,-5.42974 22.54045,-8.14471 33.52673,-8.14491 23.48749,2e-4 41.35577,7.0086 53.60488,21.02524 12.24874,13.89071 18.3732,36.68381 18.37341,68.37937 l 0,109.86159 -44.70231,0 0,-112.13459 c -1.6e-4,-18.18386 -2.77827,-31.19045 -8.33433,-39.01981 -5.43009,-7.95533 -14.77463,-11.93308 -28.03364,-11.93324 -5.17751,1.6e-4 -10.67059,1.13666 -16.47924,3.4095 -5.80888,2.27315 -11.30196,5.30382 -16.47924,9.09199 -5.0512,3.78848 -9.2815,8.65017 -12.69091,14.58508 -3.2833,5.93518 -4.92491,12.12278 -4.92483,18.56282 l 0,117.43825 -44.70231,0"
         style="font-size:387.92507935px;font-variant:normal;font-weight:bold;font-stretch:normal;fill:#333333;font-family:Muli;-inkscape-font-specification:Muli Bold"
         id="path4013" />
    </g>
    <g
       transform="scale(1.0218255,0.97864068)"
       style="font-size:79.27835083px;font-style:normal;font-weight:normal;line-height:125%;letter-spacing:0px;word-spacing:0px;opacity:0.3;fill:#333333;fill-opacity:1;stroke:none;font-family:Sans"
       id="text2989">
      <path
         d="m 317.14901,585.05306 -3.29036,0 c -23.4196,0 -27.87129,-11.61306 -27.87129,-32.71006 l 0,-50.90382 c 0,-51.67798 -25.35518,-85.16229 -69.67824,-85.16229 -30.38742,0 -55.16195,15.67762 -64.64592,33.87136 -2.32261,-8.90332 -10.83885,-22.45188 -20.12927,-29.61325 l -43.742449,17.22601 c 16.838889,14.90339 24.968039,33.48429 24.968039,56.9039 l 0,124.45307 46.83926,0 0,-114.58199 c 0,-33.87133 23.41965,-52.25868 45.29085,-52.25868 25.93576,0 34.25847,20.32285 34.25847,49.93607 l 0,45.67796 c 0,47.80696 14.12925,74.32345 64.64592,74.32345 l 6.77427,0 6.58072,-37.16173"
         style="font-size:396.39175415px;font-variant:normal;font-weight:bold;font-stretch:normal;fill:#333333;font-family:Topmarks;-inkscape-font-specification:Topmarks Bold"
         id="path4016" />
    </g>
  </g>
</svg>
