<?xml version="1.0" encoding="UTF-8" standalone="no"?>
<!-- Created with Inkscape (http://www.inkscape.org/) -->

<svg
   xmlns:dc="http://purl.org/dc/elements/1.1/"
   xmlns:cc="http://creativecommons.org/ns#"
   xmlns:rdf="http://www.w3.org/1999/02/22-rdf-syntax-ns#"
   xmlns:svg="http://www.w3.org/2000/svg"
   xmlns="http://www.w3.org/2000/svg"
   version="1.1"
   width="366.90637"
   height="108.10156"
   id="svg3054">
  <defs
     id="defs3056" />
  <metadata
     id="metadata3059">
    <rdf:RDF>
      <cc:Work
         rdf:about="">
        <dc:format>image/svg+xml</dc:format>
        <dc:type
           rdf:resource="http://purl.org/dc/dcmitype/StillImage" />
        <dc:title></dc:title>
      </cc:Work>
    </rdf:RDF>
  </metadata>
  <g
     transform="translate(-168.31773,-514.85364)"
     id="layer1">
    <g
       id="text3001"
       style="font-size:40px;font-style:normal;font-weight:normal;line-height:125%;letter-spacing:0px;word-spacing:0px;opacity:0.5;fill:#454837;fill-opacity:1;stroke:none;font-family:Sans">
      <path
         d="m 404.22409,607.77161 -2.63672,13.18359 -2.73437,0 c -5.33865,0 -9.79829,-0.71615 -13.37891,-2.14844 -3.51572,-1.49739 -6.28265,-3.77603 -8.30078,-6.83593 -1.95322,-3.05989 -3.3204,-6.57551 -4.10156,-10.54688 -0.78134,-4.03644 -1.17197,-8.98435 -1.17188,-14.84375 l 0,-23.63281 c -9e-5,-11.65358 -1.823,-20.01946 -5.46875,-25.09766 -3.58081,-5.14314 -9.017,-7.71475 -16.30859,-7.71484 -3.77611,9e-5 -7.38938,0.74878 -10.83985,2.24609 -3.38546,1.49748 -6.51046,3.74357 -9.375,6.73828 -2.86462,2.99487 -5.17582,7.03133 -6.93359,12.10938 -1.69275,5.07819 -2.5391,10.87245 -2.53906,17.38281 l 0,50.97656 -16.01563,0 0,-66.69922 c -2e-5,-10.15617 -4.00392,-18.5546 -12.01172,-25.19531 l 13.86719,-8.00781 c 5.98956,5.20843 9.50518,11.39332 10.54688,18.55469 3.64579,-6.57544 8.5286,-11.78376 14.64843,-15.625 6.18485,-3.84105 13.47651,-5.76162 21.875,-5.76172 4.94785,10e-5 9.44003,0.87901 13.47657,2.63672 4.10147,1.6928 7.7473,4.32952 10.9375,7.91015 3.19,3.51572 5.66396,8.23576 7.42187,14.16016 1.82282,5.92455 2.73427,12.79303 2.73438,20.60547 l 0,27.05078 c -1.1e-4,6.70575 0.84625,11.4909 2.53906,14.35547 1.7577,2.79949 5.07801,4.19923 9.96094,4.19922 l 3.80859,0"
         id="path3182"
         style="font-size:200px;font-variant:normal;font-stretch:normal;fill:#454837;font-family:Topmarks;-inkscape-font-specification:Topmarks" />
    </g>
    <g
       transform="scale(0.97469971,1.025957)"
       id="text3005"
       style="font-size:38.98798752px;font-style:normal;font-weight:normal;line-height:125%;letter-spacing:0px;word-spacing:0px;opacity:0.5;fill:#454837;fill-opacity:1;stroke:none;font-family:Sans">
      <path
         d="m 311.6922,603.91235 0,-70.91321 c -2e-5,-2.66512 -0.0317,-5.4255 -0.0952,-8.28114 -0.0635,-2.85548 -0.15866,-5.3303 -0.28555,-7.42447 -0.0635,-2.09399 -0.12693,-3.9977 -0.19037,-5.71113 -0.0635,-1.7767 -0.12694,-3.1093 -0.19038,-3.99779 l -0.0952,-1.3326 18.18043,0 0,14.84894 c 3.36319,-5.3303 8.02727,-9.55019 13.99227,-12.65967 6.02837,-3.1093 12.40579,-4.66399 19.13229,-4.66409 5.33032,10e-5 10.02613,0.69812 14.08746,2.09408 4.06116,1.39615 7.48784,3.39504 10.28004,5.99669 2.79201,2.53837 5.07646,5.77467 6.85335,9.70892 1.7767,3.87096 3.04584,8.21776 3.80742,13.04042 0.82484,4.75934 1.23731,10.15318 1.23742,16.18153 l 0,53.11352 -17.41895,0 0,-52.16166 c -9e-5,-3.1728 -0.0953,-5.99663 -0.28556,-8.47151 -0.19046,-2.53822 -0.50774,-4.98131 -0.95186,-7.32929 -0.38082,-2.41129 -0.95194,-4.50537 -1.71334,-6.28224 -0.69811,-1.77672 -1.61823,-3.4266 -2.76038,-4.94965 -1.07884,-1.52289 -2.41144,-2.7603 -3.99779,-3.71223 -1.52304,-0.95177 -3.33156,-1.68153 -5.42557,-2.18927 -2.09415,-0.50757 -4.44206,-0.7614 -7.04373,-0.76148 -3.9344,8e-5 -7.77354,0.82502 -11.51745,2.47482 -3.74401,1.58651 -6.91686,3.61713 -9.51855,6.09187 -2.53832,2.4749 -4.60067,5.14009 -6.18706,7.99559 -1.58646,2.85563 -2.37967,5.55255 -2.37964,8.09077 l 0,61.20428 -17.51413,0"
         id="path3185"
         style="font-size:194.93994141px;font-variant:normal;font-stretch:normal;fill:#454837;font-family:muli;-inkscape-font-specification:muli" />
    </g>
    <g
       id="text3009"
       style="font-size:40px;font-style:normal;font-weight:normal;line-height:125%;letter-spacing:0px;word-spacing:0px;fill:#454837;fill-opacity:1;stroke:none;font-family:Sans">
      <path
         d="m 533.22409,607.77161 -2.63672,13.18359 -2.73437,0 c -5.33865,0 -9.79829,-0.71615 -13.37891,-2.14844 -3.51572,-1.49739 -6.28265,-3.77603 -8.30078,-6.83593 -1.95322,-3.05989 -3.3204,-6.57551 -4.10156,-10.54688 -0.78134,-4.03644 -1.17197,-8.98435 -1.17188,-14.84375 l 0,-23.63281 c -9e-5,-11.65358 -1.823,-20.01946 -5.46875,-25.09766 -3.58081,-5.14314 -9.017,-7.71475 -16.30859,-7.71484 -3.77611,9e-5 -7.38938,0.74878 -10.83985,2.24609 -3.38546,1.49748 -6.51046,3.74357 -9.375,6.73828 -2.86462,2.99487 -5.17582,7.03133 -6.93359,12.10938 -1.69275,5.07819 -2.5391,10.87245 -2.53906,17.38281 l 0,50.97656 -16.01563,0 0,-66.69922 c -2e-5,-10.15617 -4.00392,-18.5546 -12.01172,-25.19531 l 13.86719,-8.00781 c 5.98956,5.20843 9.50518,11.39332 10.54688,18.55469 3.64579,-6.57544 8.5286,-11.78376 14.64843,-15.625 6.18485,-3.84105 13.47651,-5.76162 21.875,-5.76172 4.94785,10e-5 9.44003,0.87901 13.47657,2.63672 4.10147,1.6928 7.7473,4.32952 10.9375,7.91015 3.19,3.51572 5.66396,8.23576 7.42187,14.16016 1.82282,5.92455 2.73427,12.79303 2.73438,20.60547 l 0,27.05078 c -1.1e-4,6.70575 0.84625,11.4909 2.53906,14.35547 1.7577,2.79949 5.07801,4.19923 9.96094,4.19922 l 3.80859,0"
         id="path3188"
         style="font-size:200px;font-variant:normal;font-stretch:normal;fill:#454837;font-family:Topmarks;-inkscape-font-specification:Topmarks" />
    </g>
    <g
       id="text3013"
       style="font-size:40px;font-style:normal;font-weight:normal;line-height:125%;letter-spacing:0px;word-spacing:0px;fill:#454837;fill-opacity:1;stroke:none;font-family:Sans">
      <path
         d="m 171.19673,619.58801 0,-72.7539 c -2e-5,-2.7343 -0.0326,-5.56633 -0.0977,-8.4961 -0.0651,-2.9296 -0.16278,-5.46866 -0.29297,-7.61718 -0.0651,-2.14835 -0.13023,-4.10147 -0.19532,-5.85938 -0.0651,-1.82282 -0.13022,-3.19001 -0.19531,-4.10156 l -0.0977,-1.36719 18.65234,0 0,15.23438 c 3.45048,-5.46866 8.23563,-9.79809 14.35547,-12.98829 6.18484,-3.19 12.7278,-4.78505 19.6289,-4.78515 5.46868,10e-5 10.28638,0.71625 14.45313,2.14844 4.16658,1.43239 7.6822,3.48317 10.54687,6.15234 2.86449,2.60426 5.20824,5.92457 7.03125,9.96094 1.82282,3.97143 3.1249,8.43106 3.90625,13.3789 0.84625,4.88288 1.26943,10.41673 1.26954,16.60157 l 0,54.49218 -17.8711,0 0,-53.51562 c -9e-5,-3.25515 -0.0977,-6.15229 -0.29297,-8.69141 -0.1954,-2.6041 -0.52092,-5.11061 -0.97656,-7.51953 -0.39071,-2.47389 -0.97665,-4.62232 -1.75781,-6.44531 -0.71623,-1.82284 -1.66024,-3.51555 -2.83203,-5.07813 -1.10686,-1.56241 -2.47404,-2.83194 -4.10157,-3.80859 -1.56257,-0.97648 -3.41804,-1.72517 -5.5664,-2.24609 -2.14851,-0.52075 -4.55736,-0.78117 -7.22656,-0.78125 -4.03652,8e-5 -7.97532,0.84644 -11.81641,2.53906 -3.8412,1.62769 -7.0964,3.71102 -9.76563,6.25 -2.6042,2.53914 -4.72009,5.27351 -6.34765,8.20312 -1.62764,2.92976 -2.44144,5.69668 -2.44141,8.30078 l 0,62.79297 -17.96875,0"
         id="path3191"
         style="font-size:200px;font-variant:normal;font-stretch:normal;fill:#454837;font-family:muli;-inkscape-font-specification:muli" />
    </g>
  </g>
</svg>
