<?xml version="1.0" encoding="UTF-8" standalone="no"?>
<!-- Generator: Adobe Illustrator 10.0, SVG Export Plug-In . SVG Version: 3.0.0 Build 77)  -->

<svg
   xmlns:i="http://ns.adobe.com/AdobeIllustrator/10.0/"
   xmlns:dc="http://purl.org/dc/elements/1.1/"
   xmlns:cc="http://creativecommons.org/ns#"
   xmlns:rdf="http://www.w3.org/1999/02/22-rdf-syntax-ns#"
   xmlns:svg="http://www.w3.org/2000/svg"
   xmlns="http://www.w3.org/2000/svg"
   xmlns:xlink="http://www.w3.org/1999/xlink"
   xmlns:sodipodi="http://sodipodi.sourceforge.net/DTD/sodipodi-0.dtd"
   xmlns:inkscape="http://www.inkscape.org/namespaces/inkscape"
   enable-background="new 0 0 135.566 198.089"
   height="235.8602"
   i:pageBounds="0 792 612 0"
   i:rulerOrigin="0 0"
   i:viewOrigin="238 494.9995"
   overflow="visible"
   space="preserve"
   viewBox="0 0 233.34211 235.86019"
   width="233.3421"
   id="svg2985"
   version="1.1"
   inkscape:version="0.48.4 r"
   sodipodi:docname="pizza.svg"
   style="overflow:visible">
  <defs
     id="defs3078">
    <linearGradient
       id="linearGradient5571">
      <stop
         id="stop5573"
         offset="0"
         style="stop-color:#000000;stop-opacity:0.53846157;" />
      <stop
         id="stop5575"
         offset="1"
         style="stop-color:#ff9b00;stop-opacity:0;" />
    </linearGradient>
    <linearGradient
       id="linearGradient5523">
      <stop
         style="stop-color:#cd4924;stop-opacity:1;"
         offset="0"
         id="stop5525" />
      <stop
         style="stop-color:#eb8721;stop-opacity:0;"
         offset="1"
         id="stop5527" />
    </linearGradient>
    <linearGradient
       id="linearGradient5515">
      <stop
         style="stop-color:#43e443;stop-opacity:1;"
         offset="0"
         id="stop5517" />
      <stop
         style="stop-color:#00ff00;stop-opacity:0;"
         offset="1"
         id="stop5519" />
    </linearGradient>
    <linearGradient
       id="linearGradient3985">
      <stop
         style="stop-color:#23c74e;stop-opacity:1;"
         offset="0"
         id="stop3987" />
      <stop
         style="stop-color:#53c671;stop-opacity:0;"
         offset="1"
         id="stop3989" />
    </linearGradient>
    <linearGradient
       inkscape:collect="always"
       xlink:href="#linearGradient3920-0"
       id="linearGradient3926-4"
       x1="266.47787"
       y1="211.67976"
       x2="229.98468"
       y2="1.0003659"
       gradientUnits="userSpaceOnUse" />
    <linearGradient
       inkscape:collect="always"
       id="linearGradient3920-0">
      <stop
         style="stop-color:#f76605;stop-opacity:1;"
         offset="0"
         id="stop3922-5" />
      <stop
         style="stop-color:#f76605;stop-opacity:0;"
         offset="1"
         id="stop3924-9" />
    </linearGradient>
    <filter
       id="filter5555"
       inkscape:label="Blur content"
       inkscape:menu="Blurs"
       inkscape:menu-tooltip="Blur the contents of objects, preserving the outline"
       color-interpolation-filters="sRGB"
       x="-0.090000000000000011">
      <feColorMatrix
         id="feColorMatrix5557"
         values="0"
         result="result7"
         type="saturate" />
      <feGaussianBlur
         id="feGaussianBlur5559"
         result="result6"
         stdDeviation="5" />
      <feComposite
         id="feComposite5561"
         in2="result7"
         operator="atop"
         in="result6"
         result="result91" />
      <feComposite
         id="feComposite5563"
         in2="result91"
         operator="in" />
      <feGaussianBlur
         stdDeviation="3.2206880733944954"
         id="feGaussianBlur5565" />
    </filter>
    <linearGradient
       inkscape:collect="always"
       xlink:href="#linearGradient5571"
       id="linearGradient5569"
       gradientUnits="userSpaceOnUse"
       x1="93.725166"
       y1="61.110985"
       x2="81.851151"
       y2="-16.046265"
       gradientTransform="matrix(0.92810608,0,0,1,2.7462087,0)" />
  </defs>
  <sodipodi:namedview
     pagecolor="#ffffff"
     bordercolor="#666666"
     borderopacity="1"
     objecttolerance="10"
     gridtolerance="10"
     guidetolerance="10"
     inkscape:pageopacity="0"
     inkscape:pageshadow="2"
     inkscape:window-width="1152"
     inkscape:window-height="823"
     id="namedview3076"
     showgrid="false"
     inkscape:zoom="1.6848709"
     inkscape:cx="110.53441"
     inkscape:cy="94.763326"
     inkscape:window-x="724"
     inkscape:window-y="37"
     inkscape:window-maximized="0"
     inkscape:current-layer="g2990"
     fit-margin-top="0"
     fit-margin-left="0"
     fit-margin-right="0"
     fit-margin-bottom="0" />
  <metadata
     id="metadata2987">
    <rdf:RDF>
      <cc:Work
         rdf:about="">
        <dc:title></dc:title>
        <dc:description>Orange Juice Box</dc:description>
        <dc:subject>
          <rdf:Bag>
            <rdf:li>food</rdf:li>
            <rdf:li>juice</rdf:li>
            <rdf:li>menu</rdf:li>
            <rdf:li>orange</rdf:li>
            <rdf:li>beverage</rdf:li>
          </rdf:Bag>
        </dc:subject>
        <dc:publisher>
          <cc:Agent
             rdf:about="http://www.openclipart.org/">
            <dc:title>Open Clip Art Project</dc:title>
          </cc:Agent>
        </dc:publisher>
        <dc:creator>
          <cc:Agent
             rdf:about="http://web.resource.org/cc/PublicDomain">
            <dc:title>Gerald G.</dc:title>
          </cc:Agent>
        </dc:creator>
        <dc:rights>
          <cc:Agent
             rdf:about="http://web.resource.org/cc/PublicDomain">
            <dc:title>Public Domain</dc:title>
          </cc:Agent>
        </dc:rights>
        <dc:date>2005/05/30</dc:date>
        <dc:format>image/svg+xml</dc:format>
        <dc:type
           rdf:resource="http://purl.org/dc/dcmitype/StillImage" />
        <cc:license
           rdf:resource="http://web.resource.org/cc/PublicDomain" />
        <dc:language>en</dc:language>
      </cc:Work>
      <cc:License
         rdf:about="http://web.resource.org/cc/PublicDomain">
        <cc:permits
           rdf:resource="http://web.resource.org/cc/Reproduction" />
        <cc:permits
           rdf:resource="http://web.resource.org/cc/Distribution" />
        <cc:permits
           rdf:resource="http://web.resource.org/cc/DerivativeWorks" />
      </cc:License>
    </rdf:RDF>
  </metadata>
  <g
     id="g2990"
     transform="translate(34.413773,177.94438)">
    <path
       style="fill:#c83737;fill-opacity:1;stroke:none;overflow:visible"
       d="M 84.056732,36.093915 C 5.0786271,27.007497 -25.854519,-11.138822 -25.621865,-49.640884 -25.296413,-103.50005 17.717037,-137.52537 79.400941,-140.03696 223.83813,-138.28974 215.15013,39.083058 84.056732,36.093915 z"
       id="path3123"
       inkscape:connector-curvature="0"
       sodipodi:nodetypes="cscc" />
    <path
       sodipodi:nodetypes="cscsc"
       inkscape:connector-curvature="0"
       id="path5567"
       d="M 85.2803,36.091901 C 30.960856,32.462787 -11.753175,5.0872166 -17.345782,-25.85158 c -2.511873,-13.895912 50.555857,-8.675556 102.90962,-10.913369 51.431132,-1.561888 96.215042,8.620685 96.215042,8.620685 -10.39144,39.471581 -47.86672,64.666009 -96.49858,64.236165 z"
       style="opacity:0.98000004;fill:url(#linearGradient5569);fill-opacity:1;stroke:none;overflow:visible" />
    <g
       transform="translate(-24.807382,-146.63754)"
       i:dimmedPercent="50"
       i:layer="yes"
       i:rgbTrio="#4F008000FFFF"
       id="Layer_1">
      <g
         id="g6324">
        <path
           style="fill-rule:evenodd;stroke:#000000;stroke-width:0.036;stroke-miterlimit:10"
           inkscape:connector-curvature="0"
           clip-rule="evenodd"
           d="m 129.154,0.019 c -2.412,0.612 -4.428,1.836 -5.904,3.816 -1.475,1.98 -2.555,4.536 -3.096,7.956 -9.973,8.028 -18.216,15.48 -25.272,22.5 C 87.754,41.239 85.27,47.107 78.25,53.695 71.086,60.211 66.082,60.607 52.978,73.747 39.73,86.959 22.45,106.147 0.022,132.283 l 7.956,12.096 c 10.188,-0.359 25.02,-1.332 45.324,-2.771 20.34,-1.512 49.068,-3.78 75.492,-6.229 26.387,-2.592 52.992,-5.544 81.359,-9 1.08,-1.008 2.232,-2.34 3.457,-4.14 1.188,-1.908 2.412,-3.924 3.814,-6.588 -1.08,-6.588 -2.627,-12.708 -4.5,-19.044 -2.051,-6.372 -4.355,-12.96 -6.912,-18.36 -2.592,-5.436 -5.363,-8.604 -8.314,-13.824 -3.096,-5.328 -4.176,-10.62 -10.045,-17.676 C 181.569,39.511 171.778,29.683 162.022,21.835 152.123,13.951 141.395,6.823 129.154,0.019 z"
           i:knockout="Off"
           stroke-miterlimit="10"
           id="path6326" />
        <path
           style="fill:#ffffff;fill-rule:evenodd;stroke:#000000;stroke-width:0.036;stroke-miterlimit:10"
           inkscape:connector-curvature="0"
           clip-rule="evenodd"
           d="m 3.119,132.607 c 6.768,0.72 16.344,0.611 29.412,-0.324 13.104,-1.116 34.38,-4.68 48.132,-5.544 13.536,-0.864 19.368,0.936 32.904,0.684 13.572,-0.396 33.084,-1.296 47.412,-2.411 14.148,-1.08 26.064,-2.521 36.721,-4.177 1.404,-4.176 3.492,-6.66 6.551,-7.596 2.988,-0.972 6.805,-0.288 11.449,2.052 l -6.229,10.044 c -5.473,0.685 -15.443,1.836 -30.492,3.456 -15.156,1.512 -38.447,4.032 -59.184,5.904 -20.772,1.764 -45.756,3.384 -64.404,4.86 -18.684,1.331 -33.984,2.483 -46.728,3.456 C 6.827,139.556 4.991,136.1 3.119,132.607 z"
           i:knockout="Off"
           stroke-miterlimit="10"
           id="path6328" />
        <path
           style="fill:#ffffff;fill-rule:evenodd;stroke:#000000;stroke-width:0.036;stroke-miterlimit:10"
           inkscape:connector-curvature="0"
           clip-rule="evenodd"
           d="m 2.794,130.879 c 5.112,-4.859 10.764,-10.8 17.64,-18.359 6.84,-7.668 15.012,-18.54 22.86,-26.641 7.668,-8.172 16.884,-16.56 23.184,-21.816 6.12,-5.292 9.972,-5.832 14.184,-9.684 4.068,-3.996 7.812,-9.468 11.088,-13.5 3.348,-4.068 3.888,-5.724 9,-10.404 5.148,-4.716 11.916,-10.548 21.132,-17.64 2.375,2.556 5.904,5.688 10.729,9.684 4.859,3.888 12.527,8.784 18,13.86 5.363,5.148 9.719,11.592 14.184,16.272 4.355,4.428 9.467,6.012 12.131,10.728 2.592,4.788 1.152,12.708 3.457,17.64 2.305,4.823 7.92,7.271 10.043,11.088 2.018,3.744 0.9,6.516 2.053,11.088 1.008,4.536 2.447,9.504 4.176,15.588 -12.023,1.8 -24.875,3.348 -39.131,4.5 -14.438,1.152 -33.156,2.088 -46.045,2.412 -12.888,0.107 -19.152,-1.584 -30.456,-1.044 -11.52,0.576 -24.264,3.42 -37.404,4.5 -13.14,1.044 -26.604,1.62 -40.825,1.728 z"
           i:knockout="Off"
           stroke-miterlimit="10"
           id="path6330" />
        <path
           style="fill:#ffffff;fill-rule:evenodd;stroke:#000000;stroke-width:0.036;stroke-miterlimit:10"
           inkscape:connector-curvature="0"
           clip-rule="evenodd"
           d="m 130.883,2.431 c -2.484,-0.288 -4.5,0.504 -5.904,2.088 -1.439,1.656 -2.412,4.104 -2.771,7.632 3.059,2.196 6.588,4.896 10.727,7.956 4.068,3.06 9.758,6.84 13.861,10.368 3.924,3.456 7.199,6.876 10.404,10.404 3.131,3.42 5.436,6.876 9,10.368 3.6,3.312 9.791,5.544 12.455,10.044 2.52,4.5 1.729,12.78 2.771,16.632 0.9,3.673 1.189,3.204 3.098,5.544 1.943,2.305 6.658,5.112 8.314,8.28 1.512,2.988 -0.252,5.868 0.686,10.044 0.898,4.141 2.268,9.108 4.5,14.904 0.143,-3.78 1.691,-5.977 4.5,-6.588 2.844,-0.612 6.91,0.216 12.49,2.771 -1.188,-9.288 -3.275,-17.496 -6.264,-24.912 -3.096,-7.451 -8.135,-13.176 -11.771,-19.404 -3.564,-6.3 -5.832,-11.844 -10.008,-18 -4.355,-6.264 -7.957,-11.916 -15.947,-19.044 -8.209,-7.38 -25.813,-18.9 -32.545,-23.868 -6.768,-4.895 -9.252,-6.587 -7.596,-5.219 z"
           i:knockout="Off"
           stroke-miterlimit="10"
           id="path6332" />
        <path
           style="fill-rule:evenodd;stroke:#000000;stroke-width:0.036;stroke-miterlimit:10"
           inkscape:connector-curvature="0"
           clip-rule="evenodd"
           d="m 92.435,90.02 c -1.8,-2.628 -2.376,-5.364 -1.728,-8.641 0.648,-3.384 2.268,-8.207 5.544,-10.728 3.24,-2.592 8.712,-4.536 13.5,-4.176 4.679,0.396 11.521,2.808 14.544,6.264 2.916,3.384 3.959,7.848 3.131,13.824 -3.924,-1.296 -7.164,-1.872 -9.719,-1.729 -2.629,0.108 -4.861,0.973 -5.869,2.448 -1.043,1.404 -1.404,3.313 -0.684,5.868 -4.068,-2.196 -7.056,-3.168 -9.36,-2.772 -2.304,0.396 -3.636,1.872 -4.14,4.86 -1.728,-1.726 -3.455,-3.455 -5.219,-5.218 z"
           i:knockout="Off"
           stroke-miterlimit="10"
           id="path6334" />
        <path
           style="fill:#ffffff;fill-rule:evenodd;stroke:#000000;stroke-width:0.036;stroke-miterlimit:10"
           inkscape:connector-curvature="0"
           clip-rule="evenodd"
           d="m 93.119,87.967 c -1.116,-2.447 -1.44,-4.896 -0.684,-7.632 0.684,-2.808 1.8,-6.66 4.86,-8.64 2.952,-2.052 8.424,-3.96 12.817,-3.492 4.355,0.396 10.26,3.06 13.139,5.904 2.736,2.808 3.889,6.336 3.457,10.728 -1.836,-1.296 -4.068,-2.124 -6.553,-2.088 -2.699,-0.144 -6.84,0.396 -8.676,1.765 -1.908,1.403 -2.412,3.491 -2.052,6.552 -2.736,-2.124 -5.22,-3.097 -7.308,-2.772 -2.232,0.252 -3.924,1.8 -5.508,4.5 -1.153,-1.585 -2.304,-3.205 -3.492,-4.825 z"
           i:knockout="Off"
           stroke-miterlimit="10"
           id="path6336" />
        <path
           style="fill-rule:evenodd;stroke:#000000;stroke-width:0.036;stroke-miterlimit:10"
           inkscape:connector-curvature="0"
           clip-rule="evenodd"
           d="m 137.111,88.291 c 0.215,2.844 1.223,7.344 4.139,10.729 2.809,3.312 7.273,7.56 12.816,9 5.58,1.332 16.344,1.691 20.088,-1.008 3.457,-2.952 3.527,-10.837 1.045,-15.589 C 172.57,86.6 164.83,80.551 158.926,78.967 c -5.939,-1.584 -15.479,1.44 -19.043,3.097 -3.709,1.511 -3.061,3.311 -2.772,6.227 z"
           i:knockout="Off"
           stroke-miterlimit="10"
           id="path6338" />
        <path
           style="fill:#ffffff;fill-rule:evenodd;stroke:#000000;stroke-width:0.036;stroke-miterlimit:10"
           inkscape:connector-curvature="0"
           clip-rule="evenodd"
           d="m 138.299,88.363 c 0.18,2.808 1.152,6.768 3.889,10.08 2.699,3.06 6.768,7.128 12.059,8.46 5.184,1.224 15.408,1.548 18.865,-0.972 3.348,-2.809 3.311,-10.152 1.008,-14.652 -2.557,-4.572 -9.756,-10.152 -15.336,-11.736 -5.652,-1.476 -14.438,1.404 -17.893,2.952 -3.385,1.332 -2.952,3.24 -2.592,5.868 z"
           i:knockout="Off"
           stroke-miterlimit="10"
           id="path6340" />
        <path
           style="fill-rule:evenodd;stroke:#000000;stroke-width:0.036;stroke-miterlimit:10"
           inkscape:connector-curvature="0"
           clip-rule="evenodd"
           d="m 37.066,90.379 c 3.6,2.305 7.884,3.276 13.14,2.772 5.22,-0.612 14.508,-2.196 18,-5.868 3.276,-3.708 2.628,-11.988 2.088,-15.948 -0.612,-4.068 -2.196,-6.624 -5.184,-7.956 -8.316,7.92 -14.688,14.148 -19.404,18.684 -4.68,4.464 -7.56,7.236 -8.64,8.316 z"
           i:knockout="Off"
           stroke-miterlimit="10"
           id="path6342" />
        <path
           style="fill:#ffffff;fill-rule:evenodd;stroke:#000000;stroke-width:0.036;stroke-miterlimit:10"
           inkscape:connector-curvature="0"
           clip-rule="evenodd"
           d="m 40.522,90.379 c 2.124,-2.844 5.184,-6.264 9.324,-10.403 4.104,-4.212 9.144,-9 15.264,-14.508 1.944,0.684 3.204,2.34 3.78,5.508 0.576,3.06 1.116,9.504 -0.324,12.816 -1.656,3.132 -5.148,4.788 -8.676,6.229 -3.564,1.332 -8.892,1.979 -12.096,2.088 -3.239,0.035 -5.615,-0.542 -7.272,-1.73 z"
           i:knockout="Off"
           stroke-miterlimit="10"
           id="path6344" />
        <path
           style="fill-rule:evenodd;stroke:#000000;stroke-width:0.036;stroke-miterlimit:10"
           inkscape:connector-curvature="0"
           clip-rule="evenodd"
           d="m 115.979,55.423 c -2.305,0.036 0.936,6.768 4.176,10.044 3.205,3.312 8.1,8.316 14.545,9.324 6.227,0.828 19.619,-2.772 22.824,-4.14 2.986,-1.476 -0.145,-3.24 -4.141,-4.176 -4.104,-1.044 -13.068,0 -19.404,-1.728 -6.301,-1.872 -15.733,-9.468 -18,-9.324 z"
           i:knockout="Off"
           stroke-miterlimit="10"
           id="path6346" />
        <path
           style="fill:#ffffff;fill-rule:evenodd;stroke:#000000;stroke-width:0.036;stroke-miterlimit:10"
           inkscape:connector-curvature="0"
           clip-rule="evenodd"
           d="m 157.199,68.923 c -2.592,1.296 -5.76,2.376 -9.361,3.096 -3.779,0.72 -8.387,2.161 -12.455,1.404 -4.068,-0.899 -8.785,-3.528 -11.771,-6.228 -3.098,-2.664 -5.293,-5.904 -6.588,-9.72 2.41,2.952 5.039,5.544 8.314,7.632 3.133,2.124 5.365,4.068 10.729,4.86 5.363,0.648 12.275,0.252 21.132,-1.044 z"
           i:knockout="Off"
           stroke-miterlimit="10"
           id="path6348" />
        <path
           style="fill:#ffffff;fill-rule:evenodd;stroke:#000000;stroke-width:0.036;stroke-miterlimit:10"
           inkscape:connector-curvature="0"
           clip-rule="evenodd"
           d="m 119.111,57.835 c 2.986,2.484 6.047,4.392 9.322,5.868 3.168,1.404 5.869,2.052 10.045,2.772 4.141,0.648 9.107,1.116 14.904,1.404 -4.033,0.648 -7.775,1.044 -11.088,1.044 -3.348,-0.036 -5.652,0.216 -9,-1.044 -3.564,-1.476 -9.432,-5.22 -11.771,-6.912 -2.341,-1.728 -3.24,-2.772 -2.412,-3.132 z"
           i:knockout="Off"
           stroke-miterlimit="10"
           id="path6350" />
        <path
           style="fill-rule:evenodd;stroke:#000000;stroke-width:0.036;stroke-miterlimit:10"
           inkscape:connector-curvature="0"
           clip-rule="evenodd"
           d="m 89.663,98.695 c -2.304,2.771 -4.428,4.428 -6.228,4.824 -1.908,0.359 -4.032,-0.396 -4.824,-2.412 -0.936,-2.124 -1.584,-5.725 0,-9.685 1.656,-4.031 4.752,-8.712 9.684,-14.184 l -0.684,-5.22 c -7.632,3.672 -12.528,7.812 -15.264,12.816 -2.664,4.933 -1.872,12.564 -0.684,16.632 1.044,3.925 4.572,5.797 7.272,7.272 2.664,1.476 6.804,2.952 8.676,1.368 1.835,-1.655 2.375,-5.506 2.052,-11.411 z"
           i:knockout="Off"
           stroke-miterlimit="10"
           id="path6352" />
        <path
           style="fill:#ffffff;fill-rule:evenodd;stroke:#000000;stroke-width:0.036;stroke-miterlimit:10"
           inkscape:connector-curvature="0"
           clip-rule="evenodd"
           d="m 87.935,103.52 c 0.36,2.628 0.18,4.607 -0.684,5.544 -0.936,0.792 -2.628,1.044 -4.5,0.359 -2.052,-0.756 -4.752,-2.304 -6.588,-3.815 -1.764,-1.548 -2.988,-2.664 -3.816,-4.86 -0.828,-2.196 -1.116,-5.004 -1.008,-8.28 0.216,3.744 1.116,6.805 3.096,9.324 1.836,2.412 6.048,5.185 8.316,5.544 2.231,0.323 3.959,-1.045 5.184,-3.816 z"
           i:knockout="Off"
           stroke-miterlimit="10"
           id="path6354" />
        <path
           style="fill:#ffffff;fill-rule:evenodd;stroke:#000000;stroke-width:0.036;stroke-miterlimit:10"
           inkscape:connector-curvature="0"
           clip-rule="evenodd"
           d="m 87.935,101.432 -0.108,1.619 c -0.756,1.44 -1.548,2.521 -2.52,3.097 -1.044,0.611 -1.8,0.899 -3.384,0.324 -1.728,-0.828 -4.824,-2.7 -6.372,-4.5 -1.512,-1.944 -2.556,-4.032 -2.988,-6.265 -0.648,-2.268 -1.296,-4.607 -0.54,-7.02 0.612,-2.592 2.016,-5.544 4.5,-8.028 2.484,-2.52 5.76,-4.86 10.224,-7.02 l 0.648,3.708 c -2.448,2.376 -4.536,4.896 -6.264,7.703 -1.944,2.7 -3.744,5.904 -4.284,8.784 -0.54,2.809 0.432,6.696 1.548,8.46 1.08,1.656 3.276,2.124 4.932,1.98 1.619,-0.107 3.06,-1.151 4.608,-2.842 z"
           i:knockout="Off"
           stroke-miterlimit="10"
           id="path6356" />
        <path
           style="fill-rule:evenodd;stroke:#000000;stroke-width:0.036;stroke-miterlimit:10"
           inkscape:connector-curvature="0"
           clip-rule="evenodd"
           d="m 31.522,104.923 c 6.876,3.276 12.564,6.624 17.64,10.044 5.04,3.385 8.892,6.841 12.132,10.368 l 6.552,-8.315 c -5.436,-6.156 -10.8,-10.656 -16.236,-13.5 -5.508,-2.916 -10.8,-4.177 -16.308,-3.78 -1.26,1.727 -2.519,3.455 -3.78,5.183 z"
           i:knockout="Off"
           stroke-miterlimit="10"
           id="path6358" />
        <path
           style="fill:#ffffff;fill-rule:evenodd;stroke:#000000;stroke-width:0.036;stroke-miterlimit:10"
           inkscape:connector-curvature="0"
           clip-rule="evenodd"
           d="m 32.999,104.815 c 2.988,1.584 5.796,2.987 8.568,4.607 2.7,1.513 4.284,2.089 7.668,4.645 3.24,2.448 7.308,5.832 12.06,10.151 l 1.008,-1.367 c -3.708,-3.816 -7.452,-6.984 -11.376,-9.792 -4.032,-2.845 -9.252,-5.364 -12.168,-6.876 -2.916,-1.62 -4.68,-2.448 -5.292,-2.484 -0.144,0.361 -0.288,0.72 -0.468,1.116 z"
           i:knockout="Off"
           stroke-miterlimit="10"
           id="path6360" />
        <path
           style="fill:#ffffff;fill-rule:evenodd;stroke:#000000;stroke-width:0.036;stroke-miterlimit:10"
           inkscape:connector-curvature="0"
           clip-rule="evenodd"
           d="m 34.115,102.439 1.908,-2.017 c 5.148,0.504 9.612,1.513 13.536,3.168 3.888,1.656 7.02,4.284 9.936,6.624 2.844,2.269 5.076,4.465 6.984,6.876 l -3.96,5.185 c -3.312,-3.96 -6.876,-7.164 -10.692,-10.008 -4.032,-2.916 -9.36,-5.221 -12.384,-6.769 -2.988,-1.548 -4.716,-2.304 -5.328,-2.268 0,-0.251 0,-0.502 0,-0.791 z"
           i:knockout="Off"
           stroke-miterlimit="10"
           id="path6362" />
        <path
           style="fill-rule:evenodd;stroke:#000000;stroke-width:0.036;stroke-miterlimit:10"
           inkscape:connector-curvature="0"
           clip-rule="evenodd"
           d="m 132.934,121.591 c 1.189,1.044 2.988,-3.743 3.313,-6.983 0.145,-3.313 0.432,-8.424 -2.051,-12.132 -2.629,-3.816 -10.945,-9.108 -13.141,-10.044 -2.305,-1.009 -1.584,1.584 -0.18,4.176 1.26,2.52 6.371,6.804 8.387,11.052 2.017,4.139 2.412,12.671 3.672,13.931 z"
           i:knockout="Off"
           stroke-miterlimit="10"
           id="path6364" />
        <path
           style="fill:#ffffff;fill-rule:evenodd;stroke:#000000;stroke-width:0.036;stroke-miterlimit:10"
           inkscape:connector-curvature="0"
           clip-rule="evenodd"
           d="m 120.334,93.439 c 1.98,0.684 3.889,1.872 6.121,3.42 2.16,1.512 5.039,3.384 6.695,5.904 1.477,2.483 2.305,6.191 2.34,9.18 0.037,2.844 -0.611,5.544 -1.943,8.1 0.359,-2.735 0.504,-5.363 0.035,-8.027 -0.504,-2.772 -0.395,-4.824 -2.592,-7.956 -2.267,-3.133 -5.724,-6.624 -10.656,-10.621 z"
           i:knockout="Off"
           stroke-miterlimit="10"
           id="path6366" />
        <path
           style="fill:#ffffff;fill-rule:evenodd;stroke:#000000;stroke-width:0.036;stroke-miterlimit:10"
           inkscape:connector-curvature="0"
           clip-rule="evenodd"
           d="m 132.719,118.783 c -0.217,-2.771 -0.541,-5.4 -1.369,-7.74 -0.826,-2.447 -1.764,-4.14 -3.348,-6.588 -1.656,-2.592 -3.744,-5.292 -6.408,-8.496 2.305,1.8 4.213,3.528 5.869,5.328 1.512,1.764 2.809,2.664 3.744,5.22 0.863,2.448 1.764,7.381 2.016,9.505 0.252,2.088 0.035,2.915 -0.504,2.771 z"
           i:knockout="Off"
           stroke-miterlimit="10"
           id="path6368" />
        <path
           style="fill:#ffffff;fill-rule:evenodd;stroke:#000000;stroke-width:0.036;stroke-miterlimit:10"
           inkscape:connector-curvature="0"
           clip-rule="evenodd"
           d="m 138.299,88.363 c 0.18,2.808 1.152,6.768 3.889,10.08 2.699,3.06 6.768,7.128 12.059,8.46 5.184,1.224 15.408,1.548 18.865,-0.972 3.348,-2.809 3.311,-10.152 1.008,-14.652 -2.557,-4.572 -9.756,-10.152 -15.336,-11.736 -5.652,-1.476 -14.438,1.404 -17.893,2.952 -3.385,1.332 -2.952,3.24 -2.592,5.868 z"
           i:knockout="Off"
           stroke-miterlimit="10"
           id="path6370" />
        <path
           style="fill-rule:evenodd;stroke:#000000;stroke-width:0.036;stroke-miterlimit:10"
           inkscape:connector-curvature="0"
           clip-rule="evenodd"
           d="m 106.15,33.499 c 0.18,2.376 1.044,6.3 3.564,9.144 2.485,2.844 6.12,6.372 10.909,7.668 4.824,1.152 13.859,1.368 17.1,-0.9 2.916,-2.484 3.023,-9.216 0.9,-13.248 -2.197,-4.032 -8.893,-9.324 -13.861,-10.62 -5.039,-1.368 -13.176,1.26 -16.235,2.628 -3.132,1.224 -2.629,2.952 -2.377,5.328 z"
           i:knockout="Off"
           stroke-miterlimit="10"
           id="path6372" />
        <path
           style="fill:#ffffff;fill-rule:evenodd;stroke:#000000;stroke-width:0.036;stroke-miterlimit:10"
           inkscape:connector-curvature="0"
           clip-rule="evenodd"
           d="m 107.159,33.535 c 0.108,2.304 1.08,5.868 3.347,8.604 2.305,2.664 5.725,6.084 10.26,7.2 4.32,1.008 13.248,1.332 16.094,-0.828 2.807,-2.304 2.807,-8.784 0.828,-12.492 -2.197,-3.816 -8.209,-8.712 -13.033,-9.972 -4.824,-1.188 -12.313,1.08 -15.264,2.484 -2.989,1.224 -2.484,2.664 -2.232,5.004 z"
           i:knockout="Off"
           stroke-miterlimit="10"
           id="path6374" />
        <path
           style="fill-rule:evenodd;stroke:#000000;stroke-width:0.036;stroke-miterlimit:10"
           inkscape:connector-curvature="0"
           clip-rule="evenodd"
           d="m 125.158,31.735 c -6.156,2.52 -11.557,4.176 -16.632,5.508 -5.112,1.224 -9.612,1.764 -13.644,1.764 l 1.512,9 c 7.02,-0.036 13.032,-0.72 18.035,-2.592 5.004,-1.836 8.857,-4.536 11.846,-8.244 -0.361,-1.8 -0.72,-3.6 -1.117,-5.436 z"
           i:knockout="Off"
           stroke-miterlimit="10"
           id="path6376" />
        <path
           style="fill:#ffffff;fill-rule:evenodd;stroke:#000000;stroke-width:0.036;stroke-miterlimit:10"
           inkscape:connector-curvature="0"
           clip-rule="evenodd"
           d="m 124.367,32.743 c -2.773,0.972 -5.365,2.052 -7.92,2.844 -2.629,0.792 -3.924,1.584 -7.381,2.232 -3.528,0.648 -7.92,1.26 -13.464,1.836 l 0.252,1.44 c 4.536,-0.18 8.784,-0.72 12.888,-1.62 3.996,-1.08 8.675,-2.772 11.412,-3.816 2.664,-1.008 4.213,-1.656 4.645,-1.944 -0.145,-0.324 -0.289,-0.648 -0.432,-0.972 z"
           i:knockout="Off"
           stroke-miterlimit="10"
           id="path6378" />
        <path
           style="fill:#ffffff;fill-rule:evenodd;stroke:#000000;stroke-width:0.036;stroke-miterlimit:10"
           inkscape:connector-curvature="0"
           clip-rule="evenodd"
           d="m 125.23,34.867 0.18,2.376 c -3.348,3.024 -6.48,5.256 -9.828,6.84 -3.42,1.548 -6.948,1.908 -10.007,2.484 -3.096,0.54 -5.904,0.576 -8.424,0.504 l -1.044,-5.508 v 0 c 4.392,0.18 8.496,-0.216 12.6,-1.044 4.032,-0.936 8.749,-3.024 11.52,-4.032 2.629,-0.972 4.176,-1.8 4.5,-2.088 0.144,0.144 0.324,0.288 0.503,0.468 z"
           i:knockout="Off"
           stroke-miterlimit="10"
           id="path6380" />
        <path
           style="fill-rule:evenodd;stroke:#000000;stroke-width:0.036;stroke-miterlimit:10"
           inkscape:connector-curvature="0"
           clip-rule="evenodd"
           d="m 89.734,62.371 c -1.764,0.972 -3.312,1.152 -5.04,0.54 -1.728,-0.72 -5.184,-1.944 -5.076,-4.248 -0.072,-2.34 1.476,-8.496 5.328,-9.576 3.852,-1.224 14.508,0.72 17.82,2.916 3.168,2.16 2.772,8.496 1.584,10.116 -1.224,1.548 -4.14,1.224 -8.748,-0.828 -0.828,1.08 -0.972,2.196 -0.288,3.744 0.612,1.512 1.944,3.06 3.996,5.04 -1.008,1.764 -2.34,2.916 -4.536,3.456 -2.16,0.504 -4.86,0.288 -8.244,-0.504 0.18,-2.196 0.54,-4.104 1.08,-5.868 0.469,-1.836 1.224,-3.384 2.124,-4.788 z"
           i:knockout="Off"
           stroke-miterlimit="10"
           id="path6382" />
        <path
           style="fill:#ffffff;fill-rule:evenodd;stroke:#000000;stroke-width:0.036;stroke-miterlimit:10"
           inkscape:connector-curvature="0"
           clip-rule="evenodd"
           d="m 98.411,70.183 c -1.548,0.9 -2.988,1.332 -4.86,1.44 -1.8,0.036 -3.852,-0.252 -6.012,-1.008 l -0.36,2.088 c 1.404,0.359 2.628,0.54 3.96,0.685 1.26,0.035 2.484,0.071 3.672,-0.181 1.008,-0.36 2.304,-1.044 2.916,-1.512 0.54,-0.54 0.863,-1.044 0.684,-1.512 z"
           i:knockout="Off"
           stroke-miterlimit="10"
           id="path6384" />
        <path
           style="fill:#ffffff;fill-rule:evenodd;stroke:#000000;stroke-width:0.036;stroke-miterlimit:10"
           inkscape:connector-curvature="0"
           clip-rule="evenodd"
           d="m 80.482,57.115 c -0.36,0.864 -0.288,1.692 -0.18,2.34 0.072,0.612 0.576,0.9 1.116,1.44 0.576,0.396 1.296,0.864 2.304,1.26 0.9,0.324 1.944,0.648 3.132,0.684 0.972,-0.108 2.016,-0.468 2.988,-1.08 l 0.18,-0.792 c -1.368,0.432 -2.664,0.684 -3.744,0.756 -1.152,0.072 -2.088,-0.252 -2.952,-0.576 -0.9,-0.504 -1.656,-1.152 -2.268,-2.088 -0.18,-0.648 -0.359,-1.296 -0.576,-1.944 z"
           i:knockout="Off"
           stroke-miterlimit="10"
           id="path6386" />
        <path
           style="fill:#ffffff;fill-rule:evenodd;stroke:#000000;stroke-width:0.036;stroke-miterlimit:10"
           inkscape:connector-curvature="0"
           clip-rule="evenodd"
           d="m 95.818,60.895 c 1.188,0.54 2.232,1.08 3.276,1.332 0.936,0.216 2.088,0.432 2.916,0.36 0.828,-0.18 1.368,-0.504 1.908,-1.116 -1.692,0.216 -3.096,0.036 -4.356,-0.144 -1.332,-0.216 -2.232,-0.828 -3.096,-1.44 -0.216,0.324 -0.431,0.648 -0.648,1.008 z"
           i:knockout="Off"
           stroke-miterlimit="10"
           id="path6388" />
        <path
           style="fill:#ffffff;fill-rule:evenodd;stroke:#000000;stroke-width:0.036;stroke-miterlimit:10"
           inkscape:connector-curvature="0"
           clip-rule="evenodd"
           d="m 98.086,69.931 c -1.08,-1.116 -1.98,-2.16 -2.556,-3.276 -0.72,-1.152 -1.332,-2.34 -1.152,-3.564 0.072,-1.26 0.9,-2.556 2.088,-3.888 0.396,0.54 1.188,1.044 2.52,1.368 1.332,0.324 3.024,0.468 5.364,0.576 0.36,-0.9 0.576,-1.692 0.504,-2.916 -0.18,-1.296 0.18,-2.772 -1.008,-4.032 -1.26,-1.332 -3.168,-2.52 -6.12,-3.276 -3.06,-0.756 -8.568,-1.872 -11.376,-1.26 -2.844,0.54 -4.068,2.844 -4.932,4.392 -0.9,1.404 -0.396,2.916 0,4.104 0.324,1.116 1.044,1.872 2.16,2.412 1.044,0.432 2.664,0.432 4.032,0.432 1.296,-0.144 2.448,-0.432 3.6,-1.008 -0.216,0.288 -0.684,1.116 -1.26,2.916 -0.576,1.692 -1.404,4.068 -2.34,7.272 1.908,0.648 3.744,1.08 5.508,1.008 1.729,-0.108 3.384,-0.432 4.968,-1.26 z"
           i:knockout="Off"
           stroke-miterlimit="10"
           id="path6390" />
        <path
           style="fill-rule:evenodd;stroke:#000000;stroke-width:0.036;stroke-miterlimit:10"
           inkscape:connector-curvature="0"
           clip-rule="evenodd"
           d="m 103.522,116.479 c 0.18,2.34 -0.54,4.032 -2.016,5.616 -1.656,1.403 -4.68,4.355 -7.128,3.168 -2.52,-1.332 -8.172,-5.868 -7.38,-10.549 0.864,-4.752 8.136,-15.084 12.24,-17.388 3.888,-2.304 10.476,1.368 11.556,3.528 1.043,2.124 -0.793,4.896 -5.364,8.855 0.648,1.44 1.908,2.053 3.78,2.232 1.909,0.072 4.284,-0.468 7.417,-1.62 1.404,1.908 1.943,3.96 1.332,6.552 -0.648,2.521 -2.197,5.292 -4.789,8.46 -2.23,-1.332 -4.067,-2.664 -5.651,-4.14 -1.621,-1.546 -2.953,-2.986 -3.997,-4.714 z"
           i:knockout="Off"
           stroke-miterlimit="10"
           id="path6392" />
        <path
           style="fill:#ffffff;fill-rule:evenodd;stroke:#000000;stroke-width:0.036;stroke-miterlimit:10"
           inkscape:connector-curvature="0"
           clip-rule="evenodd"
           d="m 116.266,111.295 c 0.182,2.017 -0.143,3.853 -0.971,5.904 -0.9,1.908 -2.232,3.852 -4.141,5.832 l 2.016,1.476 c 1.08,-1.26 2.053,-2.592 2.773,-3.852 0.646,-1.476 1.439,-2.628 1.691,-3.996 0.252,-1.404 0.072,-2.916 -0.107,-3.852 -0.216,-0.9 -0.685,-1.404 -1.261,-1.512 z"
           i:knockout="Off"
           stroke-miterlimit="10"
           id="path6394" />
        <path
           style="fill:#ffffff;fill-rule:evenodd;stroke:#000000;stroke-width:0.036;stroke-miterlimit:10"
           inkscape:connector-curvature="0"
           clip-rule="evenodd"
           d="m 93.19,123.571 c 0.828,0.756 1.62,1.224 2.376,1.404 0.684,0.107 1.296,-0.181 2.124,-0.469 0.72,-0.432 1.656,-0.972 2.52,-1.764 0.828,-0.864 1.8,-1.908 2.34,-2.988 0.504,-1.151 0.504,-2.376 0.396,-3.672 l -0.756,-0.647 c -0.216,1.691 -0.54,3.096 -1.116,4.355 -0.576,1.188 -1.296,2.088 -2.16,2.844 -0.936,0.685 -2.052,1.08 -3.348,1.332 -0.792,-0.107 -1.584,-0.251 -2.376,-0.395 z"
           i:knockout="Off"
           stroke-miterlimit="10"
           id="path6396" />
        <path
           style="fill:#ffffff;fill-rule:evenodd;stroke:#000000;stroke-width:0.036;stroke-miterlimit:10"
           inkscape:connector-curvature="0"
           clip-rule="evenodd"
           d="m 105.106,109.279 c 1.296,-0.972 2.196,-1.908 3.096,-2.808 0.864,-0.973 1.44,-1.98 1.872,-2.881 0.217,-0.936 0.145,-1.8 -0.215,-2.592 -0.72,1.8 -1.512,3.313 -2.376,4.536 -0.972,1.188 -2.016,1.98 -3.132,2.521 0.252,0.396 0.503,0.793 0.755,1.224 z"
           i:knockout="Off"
           stroke-miterlimit="10"
           id="path6398" />
        <path
           style="fill:#ffffff;fill-rule:evenodd;stroke:#000000;stroke-width:0.036;stroke-miterlimit:10"
           inkscape:connector-curvature="0"
           clip-rule="evenodd"
           d="m 115.834,111.512 c -1.691,0.647 -3.348,0.899 -4.824,1.044 -1.619,0.035 -3.059,0.107 -4.319,-0.612 -1.188,-0.828 -2.34,-2.196 -3.06,-4.248 0.792,-0.072 1.764,-0.72 2.772,-1.944 0.972,-1.224 2.088,-3.023 3.348,-5.399 -0.648,-0.9 -1.584,-1.477 -2.808,-2.017 -1.296,-0.576 -2.952,-1.655 -4.824,-1.008 -2.016,0.54 -4.32,2.088 -6.624,4.788 -2.412,2.7 -6.336,8.172 -7.2,11.412 -0.864,3.168 0.972,5.796 2.16,7.488 1.152,1.548 2.88,1.871 4.356,2.088 1.296,0.144 2.556,-0.145 3.636,-1.008 0.936,-0.937 2.016,-2.664 2.556,-4.068 0.576,-1.404 0.792,-2.844 0.792,-4.32 0.144,0.324 0.9,1.26 2.412,2.809 1.512,1.476 3.636,3.6 6.516,6.228 1.691,-1.728 2.988,-3.456 3.889,-5.328 0.863,-1.945 1.222,-3.782 1.222,-5.905 z"
           i:knockout="Off"
           stroke-miterlimit="10"
           id="path6400" />
        <path
           style="fill-rule:evenodd;stroke:#000000;stroke-width:0.036;stroke-miterlimit:10"
           inkscape:connector-curvature="0"
           clip-rule="evenodd"
           d="m 177.25,99.596 c 2.305,0.792 3.961,2.016 4.824,4.212 0.828,2.088 2.592,6.228 0.432,8.243 -2.303,1.944 -8.928,5.832 -13.355,3.349 -4.428,-2.628 -11.771,-14.04 -12.6,-18.828 -0.756,-4.932 5.291,-9.937 7.883,-10.152 2.412,-0.18 4.682,2.557 6.805,8.748 1.584,-0.18 2.844,-1.116 3.637,-2.952 0.828,-1.943 1.188,-4.428 1.223,-7.991 2.449,-0.757 4.752,-0.36 7.057,1.188 2.34,1.512 4.355,4.176 6.588,7.992 -2.16,1.728 -4.211,2.952 -6.299,4.068 -2.127,1.078 -4.142,1.654 -6.195,2.123 z"
           i:knockout="Off"
           stroke-miterlimit="10"
           id="path6402" />
        <path
           style="fill:#ffffff;fill-rule:evenodd;stroke:#000000;stroke-width:0.036;stroke-miterlimit:10"
           inkscape:connector-curvature="0"
           clip-rule="evenodd"
           d="m 176.963,84.943 c 2.088,0.504 3.779,1.584 5.471,3.24 1.621,1.548 2.988,3.672 4.248,6.372 l 2.232,-1.44 c -0.863,-1.656 -1.799,-3.024 -2.807,-4.248 -1.01,-1.26 -2.16,-2.52 -3.313,-3.204 -1.26,-0.792 -2.916,-1.296 -3.852,-1.368 -1.008,-0.144 -1.62,0.072 -1.979,0.648 z"
           i:knockout="Off"
           stroke-miterlimit="10"
           id="path6404" />
        <path
           style="fill:#ffffff;fill-rule:evenodd;stroke:#000000;stroke-width:0.036;stroke-miterlimit:10"
           inkscape:connector-curvature="0"
           clip-rule="evenodd"
           d="m 180.346,112.627 c 1.01,-0.576 1.908,-1.188 2.305,-1.836 0.359,-0.72 0.432,-1.439 0.359,-2.304 -0.107,-0.972 -0.322,-2.124 -0.791,-3.168 -0.432,-1.188 -1.26,-2.628 -2.088,-3.492 -0.936,-0.9 -2.16,-1.548 -3.527,-1.8 l -0.9,0.54 c 1.584,0.792 2.879,1.764 3.887,2.771 0.938,1.009 1.656,1.944 2.018,3.204 0.252,1.152 0.395,2.448 0.035,3.889 -0.433,0.72 -0.865,1.44 -1.298,2.196 z"
           i:knockout="Off"
           stroke-miterlimit="10"
           id="path6406" />
        <path
           style="fill:#ffffff;fill-rule:evenodd;stroke:#000000;stroke-width:0.036;stroke-miterlimit:10"
           inkscape:connector-curvature="0"
           clip-rule="evenodd"
           d="m 170.662,95.312 c -0.467,-1.584 -1.008,-3.024 -1.619,-4.177 -0.613,-1.296 -1.369,-2.34 -2.125,-2.987 -0.791,-0.648 -1.727,-0.9 -2.664,-0.756 1.512,1.332 2.809,2.699 3.602,4.104 0.756,1.332 1.295,2.7 1.332,4.104 0.466,-0.073 0.97,-0.181 1.474,-0.288 z"
           i:knockout="Off"
           stroke-miterlimit="10"
           id="path6408" />
        <path
           style="fill:#ffffff;fill-rule:evenodd;stroke:#000000;stroke-width:0.036;stroke-miterlimit:10"
           inkscape:connector-curvature="0"
           clip-rule="evenodd"
           d="m 176.998,85.483 c -0.072,1.979 -0.287,3.528 -0.791,5.184 -0.576,1.513 -1.008,3.061 -2.268,4.068 -1.297,0.828 -3.098,1.439 -5.4,1.439 0.215,-0.899 -0.072,-2.016 -0.865,-3.491 -0.863,-1.513 -2.23,-3.313 -4.104,-5.4 -1.152,0.216 -2.088,0.936 -3.096,2.016 -1.115,1.009 -2.664,2.196 -2.844,4.393 -0.18,2.231 0.432,4.896 2.232,8.424 1.871,3.348 5.615,9.324 8.604,11.52 2.844,2.017 6.156,1.152 8.279,0.721 1.945,-0.54 3.025,-2.269 3.781,-3.528 0.684,-1.368 0.756,-2.664 0.359,-4.032 -0.504,-1.439 -1.943,-2.987 -3.061,-4.067 -1.152,-1.152 -2.592,-1.872 -4.031,-2.448 0.359,-0.036 1.656,-0.432 3.744,-1.332 2.051,-1.008 4.895,-2.232 8.676,-4.104 -1.008,-2.411 -2.268,-4.319 -3.781,-5.867 -1.545,-1.624 -3.309,-2.74 -5.434,-3.496 z"
           i:knockout="Off"
           stroke-miterlimit="10"
           id="path6410" />
      </g>
    </g>
  </g>
</svg>
