<?xml version="1.0" encoding="UTF-8" standalone="no"?>
<!-- Created with Inkscape (http://www.inkscape.org/) -->

<svg
   xmlns:dc="http://purl.org/dc/elements/1.1/"
   xmlns:cc="http://creativecommons.org/ns#"
   xmlns:rdf="http://www.w3.org/1999/02/22-rdf-syntax-ns#"
   xmlns:svg="http://www.w3.org/2000/svg"
   xmlns="http://www.w3.org/2000/svg"
   xmlns:sodipodi="http://sodipodi.sourceforge.net/DTD/sodipodi-0.dtd"
   xmlns:inkscape="http://www.inkscape.org/namespaces/inkscape"
   version="1.1"
   width="162.85915"
   height="213.24396"
   id="svg2"
   inkscape:version="0.48.4 r"
   sodipodi:docname="s_s.svg">
  <sodipodi:namedview
     pagecolor="#ffffff"
     bordercolor="#666666"
     borderopacity="1"
     objecttolerance="10"
     gridtolerance="10"
     guidetolerance="10"
     inkscape:pageopacity="0"
     inkscape:pageshadow="2"
     inkscape:window-width="640"
     inkscape:window-height="480"
     id="namedview2993"
     showgrid="false"
     inkscape:zoom="1.1067137"
     inkscape:cx="81.429573"
     inkscape:cy="106.62198"
     inkscape:window-x="0"
     inkscape:window-y="22"
     inkscape:window-maximized="0"
     inkscape:current-layer="svg2" />
  <defs
     id="defs4" />
  <metadata
     id="metadata7">
    <rdf:RDF>
      <cc:Work
         rdf:about="">
        <dc:format>image/svg+xml</dc:format>
        <dc:type
           rdf:resource="http://purl.org/dc/dcmitype/StillImage" />
        <dc:title />
      </cc:Work>
    </rdf:RDF>
  </metadata>
  <g
     transform="translate(-106.10773,-404.99166)"
     id="layer1">
    <g
       style="font-size:77.58502197px;font-style:normal;font-weight:normal;line-height:125%;letter-spacing:0px;word-spacing:0px;opacity:0.3;fill:#333333;fill-opacity:1;stroke:none;font-family:Sans"
       id="text2985">
      <path
         d="m 192.36743,613.23561 c -17.30014,-10e-6 -33.14797,-2.39928 -47.54356,-7.19783 -14.26942,-4.92482 -25.50812,-10.60731 -33.71614,-17.04749 l 11.55441,-33.33731 c 7.95545,6.06138 17.99452,11.11248 30.11723,15.15332 12.24886,4.04092 24.11895,6.06136 35.61031,6.06133 22.35103,3e-5 33.52659,-7.57662 33.52673,-22.72998 -1.4e-4,-5.30361 -2.58883,-9.59704 -7.76608,-12.88033 -5.17751,-3.40942 -15.59541,-7.766 -31.25373,-13.06974 -19.95195,-6.81891 -33.33737,-11.99629 -40.15631,-15.53216 -15.65847,-8.33422 -25.12929,-19.44664 -28.41248,-33.33731 -1.01025,-4.16703 -1.51536,-8.71302 -1.51533,-13.63799 -3e-5,-9.72323 1.95728,-18.24696 5.87191,-25.57123 4.04085,-7.45021 9.53393,-13.25898 16.47924,-17.42632 6.94522,-4.29325 14.64815,-7.45019 23.10882,-9.47083 8.46053,-2.14652 17.61565,-3.21988 27.4654,-3.22008 13.00649,2e-4 25.69738,1.64181 38.07272,4.92483 12.37507,3.15713 23.04552,7.63999 32.0114,13.44857 l -11.93325,31.44315 c -7.32425,-3.78818 -16.10054,-7.0714 -26.32889,-9.84966 -10.10234,-2.90423 -19.44688,-4.35642 -28.03365,-4.35658 -9.84975,1.6e-4 -17.80524,1.70491 -23.86649,5.11425 -5.93512,3.40965 -8.8395,8.14506 -8.71316,14.20624 0.12621,5.55635 2.52549,9.72351 7.19783,12.50149 4.79847,2.65196 15.97404,7.07167 33.52673,13.25916 19.44664,6.94538 32.5795,12.37532 39.39864,16.28982 14.14294,8.08186 22.66667,19.06801 25.57123,32.95848 0.88377,4.2935 1.32574,9.02891 1.32592,14.20624 -1.8e-4,10.60737 -2.1469,19.88877 -6.44016,27.84423 -4.16733,7.95551 -9.84982,14.14311 -17.04749,18.56282 -7.0717,4.29345 -14.64835,7.45039 -22.72999,9.47083 -8.08189,2.14672 -16.54249,3.22007 -25.38181,3.22008"
         style="font-size:387.92507935px;font-variant:normal;font-weight:bold;font-stretch:normal;fill:#333333;font-family:Muli;-inkscape-font-specification:Muli Bold"
         id="path2996" />
    </g>
    <g
       transform="scale(1.0506871,0.95175817)"
       style="font-size:81.51757812px;font-style:normal;font-weight:normal;line-height:125%;letter-spacing:0px;word-spacing:0px;opacity:0.3;fill:#333333;fill-opacity:1;stroke:none;font-family:Sans"
       id="text2989">
      <path
         d="m 180.00113,644.11984 c 46.57006,0 69.85515,-25.6733 69.85515,-64.87971 -0.19902,-32.83786 -17.11555,-49.7544 -61.69543,-63.88463 -25.47422,-8.55774 -33.83298,-17.11552 -33.83298,-28.65852 0,-13.13514 11.54303,-18.50863 28.06147,-18.50863 14.32925,0 31.44479,3.58232 48.75929,11.14498 l 11.14499,-33.23593 c -5.37347,-2.98526 -28.85758,-14.92631 -64.87972,-14.92631 -51.14745,0 -69.05908,33.03693 -69.05908,58.51115 0,28.6585 13.53324,47.96324 56.72,62.29249 31.24572,11.543 40.79859,17.71257 40.79859,33.03691 0,11.34398 -6.5676,22.09094 -25.87228,22.09094 -26.66832,0 -52.1426,-11.94105 -59.1082,-15.52337 l -10.34892,34.82807 c 12.14006,6.56757 39.20649,17.71256 69.45712,17.71256"
         style="font-size:407.58789062px;font-variant:normal;font-weight:bold;font-stretch:normal;fill:#333333;font-family:Topmarks;-inkscape-font-specification:Topmarks Bold"
         id="path2999" />
    </g>
  </g>
</svg>
