<?xml version="1.0" encoding="UTF-8" standalone="no"?>
<!-- Created with Inkscape (http://www.inkscape.org/) -->

<svg
   xmlns:dc="http://purl.org/dc/elements/1.1/"
   xmlns:cc="http://creativecommons.org/ns#"
   xmlns:rdf="http://www.w3.org/1999/02/22-rdf-syntax-ns#"
   xmlns:svg="http://www.w3.org/2000/svg"
   xmlns="http://www.w3.org/2000/svg"
   xmlns:sodipodi="http://sodipodi.sourceforge.net/DTD/sodipodi-0.dtd"
   xmlns:inkscape="http://www.inkscape.org/namespaces/inkscape"
   version="1.1"
   width="227.8932"
   height="208.69795"
   id="svg2"
   inkscape:version="0.48.4 r"
   sodipodi:docname="u_u.svg">
  <sodipodi:namedview
     pagecolor="#ffffff"
     bordercolor="#666666"
     borderopacity="1"
     objecttolerance="10"
     gridtolerance="10"
     guidetolerance="10"
     inkscape:pageopacity="0"
     inkscape:pageshadow="2"
     inkscape:window-width="640"
     inkscape:window-height="480"
     id="namedview4074"
     showgrid="false"
     inkscape:zoom="1.1308209"
     inkscape:cx="113.9466"
     inkscape:cy="104.34898"
     inkscape:window-x="0"
     inkscape:window-y="22"
     inkscape:window-maximized="0"
     inkscape:current-layer="svg2" />
  <defs
     id="defs4" />
  <metadata
     id="metadata7">
    <rdf:RDF>
      <cc:Work
         rdf:about="">
        <dc:format>image/svg+xml</dc:format>
        <dc:type
           rdf:resource="http://purl.org/dc/dcmitype/StillImage" />
        <dc:title />
      </cc:Work>
    </rdf:RDF>
  </metadata>
  <g
     transform="translate(-91.659863,-406.55267)"
     id="layer1">
    <g
       style="font-size:77.58502197px;font-style:normal;font-weight:normal;line-height:125%;letter-spacing:0px;word-spacing:0px;opacity:0.3;fill:#333333;fill-opacity:1;stroke:none;font-family:Sans"
       id="text2985">
      <path
         d="m 185.3667,610.25062 c -23.99284,0 -42.4925,-6.81899 -55.49905,-20.45698 -12.88036,-13.76424 -19.32051,-32.32704 -19.32049,-55.68847 l 0,-122.5525 44.32348,0 0,121.98425 c -8e-5,13.51178 3.47256,23.67712 10.4179,30.49607 6.94519,6.69275 16.60542,10.03911 28.98074,10.03907 29.17,4e-5 43.75506,-15.40583 43.75522,-46.21763 l 0,-116.30176 44.7023,0 0,142.82007 2.08358,51.5213 -46.02822,0 -0.75766,-29.17014 c -1.13665,3.15696 -2.90454,6.50332 -5.30367,10.03907 -2.39942,3.40952 -5.6195,7.00843 -9.66024,10.79675 -4.04102,3.66205 -9.40782,6.69271 -16.10041,9.09199 -6.56655,2.39927 -13.76437,3.59891 -21.59348,3.59891"
         style="font-size:387.92507935px;font-variant:normal;font-weight:bold;font-stretch:normal;fill:#333333;font-family:Muli;-inkscape-font-specification:Muli Bold"
         id="path4077" />
    </g>
    <g
       transform="scale(1.0221608,0.97831964)"
       style="font-size:79.30436707px;font-style:normal;font-weight:normal;line-height:125%;letter-spacing:0px;word-spacing:0px;opacity:0.3;fill:#333333;fill-opacity:1;stroke:none;font-family:Sans"
       id="text2989">
      <path
         d="m 176.07581,623.58068 c 30.59101,0 52.85668,-13.94024 62.15015,-33.49525 10.45515,29.42932 31.94637,32.33356 63.31183,32.33356 l 6.19566,-37.17392 c -28.84849,0 -30.78466,-13.16578 -30.78466,-35.625 l 0,-128.94704 -46.85463,0 0,119.45994 c 0,35.23775 -17.81253,48.98438 -44.33764,47.24186 -20.91031,-1.3553 -32.33357,-16.65084 -32.33357,-41.04621 l 0,-34.07609 c 0,-63.31177 -10.84239,-91.5795 -10.84239,-91.5795 l -48.016316,5.80842 c 0,0 12.004076,31.36556 12.004076,91.38589 l 0,32.91441 c 0,43.56315 26.13796,72.79893 69.50749,72.79893"
         style="font-size:396.52182007px;font-variant:normal;font-weight:bold;font-stretch:normal;fill:#333333;font-family:Topmarks;-inkscape-font-specification:Topmarks Bold"
         id="path4080" />
    </g>
  </g>
</svg>
