<?xml version="1.0" encoding="UTF-8" standalone="no"?>
<!-- Created with Inkscape (http://www.inkscape.org/) -->

<svg
   xmlns:dc="http://purl.org/dc/elements/1.1/"
   xmlns:cc="http://creativecommons.org/ns#"
   xmlns:rdf="http://www.w3.org/1999/02/22-rdf-syntax-ns#"
   xmlns:svg="http://www.w3.org/2000/svg"
   xmlns="http://www.w3.org/2000/svg"
   xmlns:sodipodi="http://sodipodi.sourceforge.net/DTD/sodipodi-0.dtd"
   xmlns:inkscape="http://www.inkscape.org/namespaces/inkscape"
   width="379.01593"
   height="59.267189"
   id="svg2"
   version="1.1"
   inkscape:version="0.48.4 r"
   sodipodi:docname="buttons.svg"
   inkscape:export-filename="/Users/vern/Github/topmarks/buttons.png"
   inkscape:export-xdpi="90"
   inkscape:export-ydpi="90">
  <defs
     id="defs4">
    <filter
       inkscape:collect="always"
       id="filter3800"
       color-interpolation-filters="sRGB">
      <feGaussianBlur
         inkscape:collect="always"
         stdDeviation="6.1165165"
         id="feGaussianBlur3802" />
    </filter>
  </defs>
  <sodipodi:namedview
     id="base"
     pagecolor="#ffffff"
     bordercolor="#666666"
     borderopacity="1.0"
     inkscape:pageopacity="0.0"
     inkscape:pageshadow="2"
     inkscape:zoom="1"
     inkscape:cx="94.490873"
     inkscape:cy="41.641609"
     inkscape:document-units="px"
     inkscape:current-layer="g3828"
     showgrid="false"
     fit-margin-top="2"
     fit-margin-left="2"
     fit-margin-bottom="2"
     fit-margin-right="2"
     inkscape:window-width="1355"
     inkscape:window-height="861"
     inkscape:window-x="0"
     inkscape:window-y="22"
     inkscape:window-maximized="0" />
  <metadata
     id="metadata7">
    <rdf:RDF>
      <cc:Work
         rdf:about="">
        <dc:format>image/svg+xml</dc:format>
        <dc:type
           rdf:resource="http://purl.org/dc/dcmitype/StillImage" />
        <dc:title></dc:title>
      </cc:Work>
    </rdf:RDF>
  </metadata>
  <g
     inkscape:label="Layer 1"
     inkscape:groupmode="layer"
     id="layer1"
     transform="translate(-77.998316,-359.2366)">
    <g
       id="g3828">
      <path
         sodipodi:type="arc"
         style="fill:#ffffff;fill-opacity:1;fill-rule:nonzero;stroke:none"
         id="path3852"
         sodipodi:cx="105.30379"
         sodipodi:cy="393.04868"
         sodipodi:rx="22.831352"
         sodipodi:ry="22.831352"
         d="m 128.13514,393.04868 c 0,12.6094 -10.22195,22.83135 -22.83135,22.83135 -12.60941,0 -22.831355,-10.22195 -22.831355,-22.83135 0,-12.60941 10.221945,-22.83136 22.831355,-22.83136 12.6094,0 22.83135,10.22195 22.83135,22.83136 z"
         transform="matrix(1.1539238,0,-0.10490215,1.1143316,26.173401,-48.625482)" />
      <path
         style="fill:#008080;fill-opacity:1;fill-rule:nonzero;stroke:none"
         d="m 108.09375,367.34375 c -11.377555,-0.0808 -21.932074,8.62655 -23.875,19.9375 -2.005601,11.67582 5.927892,21.69868 17.71875,22.375 11.79086,0.67632 22.96315,-8.23043 24.96875,-19.90625 1.05828,-6.16091 -0.66738,-11.86112 -4.25,-15.96875 l -9.1875,16.59375 c -5.18108,9.31466 -6.05465,11.43602 -9.40625,11.9375 -2.66886,0.39933 -4.602123,-0.30814 -6.5625,-6.03125 l -4.46875,-12.9375 c -0.09032,-0.24525 -0.10028,-0.46478 -0.125,-0.6875 -0.208397,-1.87726 1.292517,-3.38355 2.90625,-3.625 1.179266,-0.17645 2.39289,0.32772 3.0625,1.8125 l 3.65625,7.25 c 0.84597,1.65247 1.22265,2.48985 1.78125,2.40625 0.49654,-0.0743 1.11658,-0.92469 2.3125,-2.65625 l 12,-17.53125 c -2.68349,-1.68508 -5.88977,-2.734 -9.4375,-2.9375 -0.36846,-0.0211 -0.72673,-0.0286 -1.09375,-0.0312 z"
         id="path3814"
         inkscape:connector-curvature="0" />
      <path
         transform="matrix(1.1413339,0,-0.10375762,1.120653,106.76066,-50.965745)"
         d="m 128.13514,393.04868 c 0,12.6094 -10.22195,22.83135 -22.83135,22.83135 -12.60941,0 -22.831355,-10.22195 -22.831355,-22.83135 0,-12.60941 10.221945,-22.83136 22.831355,-22.83136 12.6094,0 22.83135,10.22195 22.83135,22.83136 z"
         sodipodi:ry="22.831352"
         sodipodi:rx="22.831352"
         sodipodi:cy="393.04868"
         sodipodi:cx="105.30379"
         id="path3856"
         style="fill:#ffffff;fill-opacity:1;fill-rule:nonzero;stroke:none"
         sodipodi:type="arc" />
      <path
         id="path3858"
         d="m 188.09375,367.34375 c -11.37755,-0.0808 -21.93207,8.62655 -23.875,19.9375 -2.0056,11.67582 5.92789,21.69868 17.71875,22.375 11.79086,0.67632 22.96315,-8.23043 24.96875,-19.90625 1.05828,-6.16091 -0.66738,-11.86112 -4.25,-15.96875 l -9.1875,16.59375 c -5.18108,9.31466 -6.05465,11.43602 -9.40625,11.9375 -2.66886,0.39933 -4.60212,-0.30814 -6.5625,-6.03125 l -4.46875,-12.9375 c -0.0903,-0.24525 -0.10028,-0.46478 -0.125,-0.6875 -0.2084,-1.87726 1.29252,-3.38355 2.90625,-3.625 1.17927,-0.17645 2.39289,0.32772 3.0625,1.8125 l 3.65625,7.25 c 0.84597,1.65247 1.22265,2.48985 1.78125,2.40625 0.49654,-0.0743 1.11658,-0.92469 2.3125,-2.65625 l 12,-17.53125 c -2.68349,-1.68508 -5.88977,-2.734 -9.4375,-2.9375 -0.36846,-0.0211 -0.72673,-0.0286 -1.09375,-0.0312 z"
         style="fill:#f08e00;fill-opacity:1;fill-rule:nonzero;stroke:none"
         inkscape:connector-curvature="0" />
      <path
         sodipodi:type="arc"
         style="fill:#ffffff;fill-opacity:1;fill-rule:nonzero;stroke:none"
         id="path3860"
         sodipodi:cx="105.30379"
         sodipodi:cy="393.04868"
         sodipodi:rx="22.831352"
         sodipodi:ry="22.831352"
         d="m 128.13514,393.04868 c 0,12.6094 -10.22195,22.83135 -22.83135,22.83135 -12.60941,0 -22.831355,-10.22195 -22.831355,-22.83135 0,-12.60941 10.221945,-22.83136 22.831355,-22.83136 12.6094,0 22.83135,10.22195 22.83135,22.83136 z"
         transform="matrix(1.1413339,0,-0.10375762,1.1143316,186.76066,-48.625482)" />
      <path
         inkscape:connector-curvature="0"
         style="fill:#0065ae;fill-opacity:1;fill-rule:nonzero;stroke:none"
         d="m 268.09375,367.34375 c -11.37755,-0.0808 -21.93207,8.62655 -23.875,19.9375 -2.0056,11.67582 5.92789,21.69868 17.71875,22.375 11.79086,0.67632 22.96315,-8.23043 24.96875,-19.90625 1.05828,-6.16091 -0.66738,-11.86112 -4.25,-15.96875 l -9.1875,16.59375 c -5.18108,9.31466 -6.05465,11.43602 -9.40625,11.9375 -2.66886,0.39933 -4.60212,-0.30814 -6.5625,-6.03125 l -4.46875,-12.9375 c -0.0903,-0.24525 -0.10028,-0.46478 -0.125,-0.6875 -0.2084,-1.87726 1.29252,-3.38355 2.90625,-3.625 1.17927,-0.17645 2.39289,0.32772 3.0625,1.8125 l 3.65625,7.25 c 0.84597,1.65247 1.22265,2.48985 1.78125,2.40625 0.49654,-0.0743 1.11658,-0.92469 2.3125,-2.65625 l 12,-17.53125 c -2.68349,-1.68508 -5.88977,-2.734 -9.4375,-2.9375 -0.36846,-0.0211 -0.72673,-0.0286 -1.09375,-0.0312 z"
         id="path3862" />
      <path
         transform="matrix(1.1350389,0,-0.10318535,1.120653,267.05429,-50.965745)"
         d="m 128.13514,393.04868 c 0,12.6094 -10.22195,22.83135 -22.83135,22.83135 -12.60941,0 -22.831355,-10.22195 -22.831355,-22.83135 0,-12.60941 10.221945,-22.83136 22.831355,-22.83136 12.6094,0 22.83135,10.22195 22.83135,22.83136 z"
         sodipodi:ry="22.831352"
         sodipodi:rx="22.831352"
         sodipodi:cy="393.04868"
         sodipodi:cx="105.30379"
         id="path3864"
         style="fill:#ffffff;fill-opacity:1;fill-rule:nonzero;stroke:none"
         sodipodi:type="arc" />
      <path
         id="path3866"
         d="m 348.09375,367.34375 c -11.37755,-0.0808 -21.93207,8.62655 -23.875,19.9375 -2.0056,11.67582 5.92789,21.69868 17.71875,22.375 11.79086,0.67632 22.96315,-8.23043 24.96875,-19.90625 1.05828,-6.16091 -0.66738,-11.86112 -4.25,-15.96875 l -9.1875,16.59375 c -5.18108,9.31466 -6.05465,11.43602 -9.40625,11.9375 -2.66886,0.39933 -4.60212,-0.30814 -6.5625,-6.03125 l -4.46875,-12.9375 c -0.0903,-0.24525 -0.10028,-0.46478 -0.125,-0.6875 -0.2084,-1.87726 1.29252,-3.38355 2.90625,-3.625 1.17927,-0.17645 2.39289,0.32772 3.0625,1.8125 l 3.65625,7.25 c 0.84597,1.65247 1.22265,2.48985 1.78125,2.40625 0.49654,-0.0743 1.11658,-0.92469 2.3125,-2.65625 l 12,-17.53125 c -2.68349,-1.68508 -5.88977,-2.734 -9.4375,-2.9375 -0.36846,-0.0211 -0.72673,-0.0286 -1.09375,-0.0312 z"
         style="fill:#009933;fill-opacity:1;fill-rule:nonzero;stroke:none"
         inkscape:connector-curvature="0" />
      <path
         sodipodi:type="arc"
         style="fill:none;stroke:#ffffff;stroke-width:1.67894363;stroke-linecap:round;stroke-linejoin:round;stroke-miterlimit:4;stroke-opacity:1;stroke-dasharray:none"
         id="path3868"
         sodipodi:cx="105.30379"
         sodipodi:cy="393.04868"
         sodipodi:rx="22.831352"
         sodipodi:ry="22.831352"
         d="m 128.13514,393.04868 c 0,12.6094 -10.22195,22.83135 -22.83135,22.83135 -12.60941,0 -22.831355,-10.22195 -22.831355,-22.83135 0,-12.60941 10.221945,-22.83136 22.831355,-22.83136 12.6094,0 22.83135,10.22195 22.83135,22.83136 z"
         transform="matrix(1.2164369,0,-0.11058516,1.166536,341.49496,-69.635232)" />
      <path
         inkscape:connector-curvature="0"
         style="fill:none;stroke:#ffffff;stroke-width:2;stroke-linecap:round;stroke-linejoin:round;stroke-miterlimit:4;stroke-opacity:1;stroke-dasharray:none"
         d="m 428.09375,367.34375 c -11.37755,-0.0808 -21.93207,8.62655 -23.875,19.9375 -2.0056,11.67582 5.92789,21.69868 17.71875,22.375 11.79086,0.67632 22.96315,-8.23043 24.96875,-19.90625 1.05828,-6.16091 -0.66738,-11.86112 -4.25,-15.96875 l -9.1875,16.59375 c -5.18108,9.31466 -6.05465,11.43602 -9.40625,11.9375 -2.66886,0.39933 -4.60212,-0.30814 -6.5625,-6.03125 l -4.46875,-12.9375 c -0.0903,-0.24525 -0.10028,-0.46478 -0.125,-0.6875 -0.2084,-1.87726 1.29252,-3.38355 2.90625,-3.625 1.17927,-0.17645 2.39289,0.32772 3.0625,1.8125 l 3.65625,7.25 c 0.84597,1.65247 1.22265,2.48985 1.78125,2.40625 0.49654,-0.0743 1.11658,-0.92469 2.3125,-2.65625 l 12,-17.53125 c -2.68349,-1.68508 -5.88977,-2.734 -9.4375,-2.9375 -0.36846,-0.0211 -0.72673,-0.0286 -1.09375,-0.0312 z"
         id="path3870" />
    </g>
  </g>
</svg>
