<?xml version="1.0" encoding="UTF-8" standalone="no"?>
<!-- Created with Inkscape (http://www.inkscape.org/) -->

<svg
   xmlns:dc="http://purl.org/dc/elements/1.1/"
   xmlns:cc="http://creativecommons.org/ns#"
   xmlns:rdf="http://www.w3.org/1999/02/22-rdf-syntax-ns#"
   xmlns:svg="http://www.w3.org/2000/svg"
   xmlns="http://www.w3.org/2000/svg"
   xmlns:sodipodi="http://sodipodi.sourceforge.net/DTD/sodipodi-0.dtd"
   xmlns:inkscape="http://www.inkscape.org/namespaces/inkscape"
   version="1.1"
   width="407.73434"
   height="152.50537"
   id="svg2"
   inkscape:version="0.48.4 r"
   sodipodi:docname="a_d.svg">
  <sodipodi:namedview
     pagecolor="#ffffff"
     bordercolor="#666666"
     borderopacity="1"
     objecttolerance="10"
     gridtolerance="10"
     guidetolerance="10"
     inkscape:pageopacity="0"
     inkscape:pageshadow="2"
     inkscape:window-width="1481"
     inkscape:window-height="867"
     id="namedview3038"
     showgrid="false"
     inkscape:zoom="2.3529412"
     inkscape:cx="293.72336"
     inkscape:cy="46.377502"
     inkscape:window-x="0"
     inkscape:window-y="22"
     inkscape:window-maximized="0"
     inkscape:current-layer="svg2"
     fit-margin-top="2"
     fit-margin-left="2"
     fit-margin-bottom="2"
     fit-margin-right="2" />
  <defs
     id="defs4" />
  <metadata
     id="metadata7">
    <rdf:RDF>
      <cc:Work
         rdf:about="">
        <dc:format>image/svg+xml</dc:format>
        <dc:type
           rdf:resource="http://purl.org/dc/dcmitype/StillImage" />
        <dc:title></dc:title>
      </cc:Work>
    </rdf:RDF>
  </metadata>
  <path
     style="opacity:0.2;fill:none;stroke:#000000;stroke-width:1px;stroke-linecap:butt;stroke-linejoin:miter;stroke-opacity:1"
     d="m 2.5,45.59802 c 278.08301,0 402.73434,0 402.73434,0"
     id="path3052"
     inkscape:connector-curvature="0"
     sodipodi:nodetypes="cc" />
  <path
     inkscape:connector-curvature="0"
     id="path3054"
     d="m 2.5,148.65526 c 278.08301,0 402.73434,0 402.73434,0"
     style="opacity:0.2;fill:none;stroke:#000000;stroke-width:1px;stroke-linecap:butt;stroke-linejoin:miter;stroke-opacity:1"
     sodipodi:nodetypes="cc" />
  <path
     inkscape:connector-curvature="0"
     style="font-size:132.56304932px;font-style:normal;font-weight:bold;line-height:125%;letter-spacing:0px;word-spacing:0px;opacity:0.5;fill:#666666;fill-opacity:1;stroke:none;font-family:Muli;-inkscape-font-specification:Muli Bold"
     id="path4127"
     d="m 65.023629,62.575865 c -8.774235,9.2e-5 -15.446259,3.116741 -20.016105,9.349976 -4.508993,6.233372 -6.763459,14.588655 -6.763428,25.065881 -3.1e-5,10.344688 2.284908,18.699968 6.85483,25.065858 4.569832,6.29966 11.333275,9.44947 20.290284,9.44946 8.835057,1e-5 15.354749,-3.11664 19.559105,-9.34998 4.204219,-6.29959 6.306367,-14.68804 6.306444,-25.165338 C 91.254682,86.448187 89.061147,78.092905 84.674137,71.925841 80.286958,65.692606 73.736794,62.575957 65.023629,62.575865 m 25.499951,-4.177649 0,-12.234535 21.11287,0 0,102.053929 -21.56987,0 0,-14.62175 c -2.071751,3.51453 -4.752745,6.73065 -8.042978,9.64837 -5.362079,4.77446 -11.851313,7.19482 -19.467718,7.26115 -6.032311,0 -11.577088,-0.96153 -16.634391,-2.88457 -5.057366,-1.98935 -9.353033,-4.64183 -12.88705,-7.95742 -3.534062,-3.3819 -6.550195,-7.29428 -9.048382,-11.7372 -2.498217,-4.50917 -4.326156,-9.25047 -5.483846,-14.22388 -1.157706,-5.03967 -1.736566,-10.24514 -1.736551,-15.616464 -1.5e-5,-7.161613 0.9749,-13.958571 2.92473,-20.390886 2.010713,-6.432161 4.90497,-12.201296 8.682769,-17.307391 3.777753,-5.172233 8.652281,-9.250396 14.623616,-12.234534 6.032203,-3.050232 12.795631,-4.575409 20.290283,-4.575517 7.738282,1.08e-4 14.197043,2.05577 19.376315,6.167003 3.046513,2.387329 5.666576,5.271889 7.860203,8.653695" />
  <path
     inkscape:connector-curvature="0"
     style="font-size:132.56304932px;font-style:normal;font-weight:bold;line-height:125%;letter-spacing:0px;word-spacing:0px;opacity:0.5;fill:#666666;fill-opacity:1;stroke:none;font-family:Muli;-inkscape-font-specification:Muli Bold"
     id="path4129"
     d="m 206.84871,131.50704 c 5.70697,1e-5 10.536,-1.62462 14.4871,-4.87394 3.95095,-3.24925 6.77312,-7.39374 8.46648,-12.43346 1.69323,-5.03966 2.53987,-10.77563 2.53995,-17.207918 -8e-5,-10.013034 -2.16373,-18.235699 -6.49096,-24.668014 -4.3274,-6.498485 -10.5048,-9.747751 -18.53221,-9.747843 -8.40384,9.2e-5 -15.08293,3.28252 -20.03737,9.847314 -4.9545,6.498623 -7.43175,14.688126 -7.43169,24.568543 -6e-5,9.814178 2.35175,18.036858 7.05541,24.667998 4.76625,6.5649 11.41403,9.84733 19.9433,9.84732 m 3.85693,18.99834 c -6.71051,0 -12.7625,-1.52518 -18.1559,-4.57552 -5.39352,-3.11666 -9.28183,-6.86327 -11.66493,-11.23986 l 0,13.52761 -22.6714,0 c 0.50168,-16.31269 0.75256,-25.33109 0.75256,-27.05523 l 0,-118.4661164 22.10695,0 0,58.2881154 c 0.50169,-1.525085 1.44243,-3.18288 2.82217,-4.973385 1.37968,-1.790335 3.26113,-3.647056 5.64434,-5.570193 2.3831,-1.989261 5.51885,-3.613894 9.4072,-4.873929 3.95097,-1.326128 8.21558,-1.989246 12.79382,-1.989354 13.48358,1.08e-4 24.14508,4.907184 31.98453,14.721227 7.90194,9.747919 11.85296,22.446632 11.85307,38.096165 -1.1e-4,7.95746 -1.19167,15.35124 -3.57473,22.18131 -2.38328,6.76383 -5.61307,12.46665 -9.68943,17.10847 -4.01384,4.64182 -8.7488,8.28897 -14.2049,10.94144 -5.45625,2.58616 -11.25737,3.87925 -17.40335,3.87925" />
  <path
     inkscape:connector-curvature="0"
     style="font-size:132.56304932px;font-style:normal;font-weight:bold;line-height:125%;letter-spacing:0px;word-spacing:0px;opacity:0.5;fill:#666666;fill-opacity:1;stroke:none;font-family:Muli;-inkscape-font-specification:Muli Bold"
     id="path4133"
     d="m 320.97364,128.8214 c 3.51447,1.79044 7.55948,2.68565 12.13506,2.68564 4.57546,1e-5 8.58731,-0.8952 12.03561,-2.68564 3.51444,-1.8567 6.29954,-4.37656 8.35528,-7.55955 2.1219,-3.24925 3.68022,-6.89639 4.67499,-10.94146 1.06091,-4.11128 1.59139,-8.55417 1.59149,-13.328668 -1e-4,-10.145667 -2.2547,-18.401479 -6.76382,-24.767485 -4.50929,-6.432161 -11.14046,-9.64828 -19.89355,-9.648372 -8.75321,9.2e-5 -15.38439,3.216211 -19.89356,9.648372 -4.50923,6.366006 -6.76383,14.621818 -6.76381,24.767485 -2e-5,4.774498 0.49732,9.217388 1.49202,13.328668 1.06096,4.04507 2.61928,7.69221 4.67499,10.94146 2.12194,3.18299 4.90703,5.70285 8.3553,7.55955 m 7.55954,21.68398 c -13.32872,0 -24.43594,-4.84077 -33.32171,-14.5223 -8.88579,-9.6815 -13.32867,-22.44652 -13.32866,-38.295092 -1e-5,-7.426873 1.02781,-14.356448 3.08349,-20.788763 2.12197,-6.498485 5.13916,-12.234459 9.05157,-17.207919 3.91237,-4.973309 8.98523,-8.885692 15.21857,-11.737197 6.23326,-2.91763 13.22919,-4.376483 20.9877,-4.376591 7.1616,1.08e-4 13.2623,1.525285 18.30207,4.575517 5.10594,2.984138 8.62046,6.167095 10.54358,9.548917 l 0,-55.0056884 23.37493,0 0,118.4661164 c -1.2e-4,1.72414 0.26513,10.74254 0.79574,27.05523 l -23.97173,0 -0.19894,-13.82602 c -1.59157,3.91242 -5.00662,7.59271 -10.24519,11.04094 -5.17238,3.38189 -11.93619,5.07285 -20.29142,5.07285" />
  <path
     inkscape:connector-curvature="0"
     style="font-size:132.56304932px;font-style:normal;font-weight:bold;line-height:125%;letter-spacing:0px;word-spacing:0px;opacity:0.5;fill:#666666;fill-opacity:1;stroke:none;font-family:Topmarks;-inkscape-font-specification:Topmarks Bold"
     id="path4114"
     d="m 60.408004,150.4059 c 12.885636,0 24.715096,-6.76382 30.207333,-17.20791 5.703472,15.71589 19.011623,16.61111 34.537743,16.61111 l 3.37984,-19.09781 c -16.15984,0 -16.79358,-7.65902 -16.79358,-18.60048 l 0,-60.973745 C 107.09206,49.346653 92.727718,43.577518 76.251009,44.074857 41.290824,45.069534 16.68133,69.339708 16.68133,105.347 c 0,25.96108 18.694771,45.0589 43.726674,45.0589 m 1.795545,-18.501 c -11.301327,0 -19.328462,-12.33402 -19.328462,-27.45309 0,-22.380244 12.357563,-40.582871 29.46798,-41.875945 7.921486,-0.596809 13.836224,1.193619 13.836224,1.193619 l 0,41.776466 c 0,14.22387 -8.977724,26.35895 -23.975742,26.35895" />
  <path
     inkscape:connector-curvature="0"
     style="font-size:132.56304932px;font-style:normal;font-weight:bold;line-height:125%;letter-spacing:0px;word-spacing:0px;opacity:0.5;fill:#666666;fill-opacity:1;stroke:none;font-family:Topmarks;-inkscape-font-specification:Topmarks Bold"
     id="path4116"
     d="m 199.37684,150.4059 c 25.36427,0 53.7126,-19.59518 53.7126,-58.387581 0,-31.431777 -20.09251,-48.042933 -40.18498,-48.042933 -12.33398,0 -22.08184,4.277135 -29.54192,14.223904 l 0,-56.19929 -24.0712,0 0,140.74689 c 13.826,5.17231 27.05524,7.65901 40.0855,7.65901 m -0.8952,-18.501 c -5.37125,0 -10.34465,-0.69628 -15.1191,-2.28775 l 0,-32.227568 c 0,-22.778093 12.13508,-34.913187 25.36427,-34.913187 11.63773,0 19.69462,13.328698 19.69462,29.939808 0,27.850947 -18.00367,39.488697 -29.93979,39.488697" />
  <path
     inkscape:connector-curvature="0"
     style="font-size:132.56304932px;font-style:normal;font-weight:bold;line-height:125%;letter-spacing:0px;word-spacing:0px;opacity:0.5;fill:#666666;fill-opacity:1;stroke:none;font-family:Topmarks;-inkscape-font-specification:Topmarks Bold"
     id="path4120"
     d="m 309.04258,102.86031 c 0,-27.850953 16.17696,-40.383915 32.04284,-40.383915 5.08121,0 10.16245,0.994677 14.72515,2.287766 l 0,33.918495 c 0,22.778104 -12.54751,33.222244 -25.19871,33.222244 -11.09571,0 -21.56928,-10.94147 -21.56928,-29.04459 m 51.12334,30.43713 c 5.18492,12.53293 12.02902,16.51166 33.90939,16.51166 l 3.31835,-19.09781 c -12.85859,0 -16.48803,-4.07819 -16.48803,-18.79942 l 0,-109.91187 -25.09506,0 0,44.561548 c -6.01448,-1.69094 -11.9253,-2.586162 -17.83613,-2.586162 -26.44306,0 -54.64906,20.589879 -54.64906,59.481734 0,32.32699 23.22849,46.94878 43.44963,46.94878 13.1697,0 26.33941,-6.26648 33.39091,-17.10846" />
</svg>
