<?xml version="1.0" encoding="UTF-8" standalone="no"?>
<!-- Created with Inkscape (http://www.inkscape.org/) -->

<svg
   xmlns:dc="http://purl.org/dc/elements/1.1/"
   xmlns:cc="http://creativecommons.org/ns#"
   xmlns:rdf="http://www.w3.org/1999/02/22-rdf-syntax-ns#"
   xmlns:svg="http://www.w3.org/2000/svg"
   xmlns="http://www.w3.org/2000/svg"
   xmlns:xlink="http://www.w3.org/1999/xlink"
   xmlns:sodipodi="http://sodipodi.sourceforge.net/DTD/sodipodi-0.dtd"
   xmlns:inkscape="http://www.inkscape.org/namespaces/inkscape"
   version="1.1"
   width="233.3421"
   height="235.8602"
   viewBox="0 0 233.34211 235.86019"
   id="svg2985"
   style="overflow:visible"
   inkscape:version="0.48.4 r"
   sodipodi:docname="apple.svg">
  <sodipodi:namedview
     pagecolor="#ffffff"
     bordercolor="#666666"
     borderopacity="1"
     objecttolerance="10"
     gridtolerance="10"
     guidetolerance="10"
     inkscape:pageopacity="0"
     inkscape:pageshadow="2"
     inkscape:window-width="1170"
     inkscape:window-height="802"
     id="namedview3582"
     showgrid="false"
     inkscape:zoom="1"
     inkscape:cx="103.79946"
     inkscape:cy="179.73328"
     inkscape:window-x="14"
     inkscape:window-y="47"
     inkscape:window-maximized="0"
     inkscape:current-layer="layer1" />
  <defs
     id="defs3078">
    <linearGradient
       id="linearGradient3910">
      <stop
         style="stop-color:#d1f5bc;stop-opacity:1;"
         offset="0"
         id="stop3912" />
      <stop
         style="stop-color:#9ce970;stop-opacity:0;"
         offset="1"
         id="stop3915" />
    </linearGradient>
    <linearGradient
       id="linearGradient3878">
      <stop
         style="stop-color:#6e8f5b;stop-opacity:1;"
         offset="0"
         id="stop3880" />
      <stop
         style="stop-color:#ebebeb;stop-opacity:0;"
         offset="1"
         id="stop3882" />
    </linearGradient>
    <linearGradient
       id="linearGradient4407">
      <stop
         style="stop-color:#5a932e;stop-opacity:1;"
         offset="0"
         id="stop4409" />
      <stop
         style="stop-color:#008000;stop-opacity:0;"
         offset="1"
         id="stop4411" />
    </linearGradient>
    <linearGradient
       id="linearGradient3920">
      <stop
         id="stop3922"
         style="stop-color:#f76605;stop-opacity:1"
         offset="0" />
      <stop
         id="stop3924"
         style="stop-color:#f76605;stop-opacity:0"
         offset="1" />
    </linearGradient>
    <linearGradient
       id="linearGradient3912">
      <stop
         id="stop3914"
         style="stop-color:#f76605;stop-opacity:1"
         offset="0" />
      <stop
         id="stop3916"
         style="stop-color:#f76605;stop-opacity:0"
         offset="1" />
    </linearGradient>
    <linearGradient
       x1="266.47787"
       y1="211.67976"
       x2="229.98468"
       y2="1.0003659"
       id="linearGradient3926"
       xlink:href="#linearGradient3920"
       gradientUnits="userSpaceOnUse" />
    <linearGradient
       x1="181.08247"
       y1="130.10081"
       x2="215.93491"
       y2="39.449913"
       id="linearGradient3928"
       xlink:href="#linearGradient3912"
       gradientUnits="userSpaceOnUse"
       gradientTransform="matrix(1,0,0,0.86093174,-54.558414,-74.851056)" />
    <radialGradient
       inkscape:collect="always"
       xlink:href="#linearGradient3878"
       id="radialGradient3884"
       cx="105.76555"
       cy="119.15379"
       fx="105.76555"
       fy="119.15379"
       r="80.952019"
       gradientTransform="matrix(0.97108935,-0.00560264,0.0096149,0.92993436,2.0837497,8.2171544)"
       gradientUnits="userSpaceOnUse" />
    <radialGradient
       inkscape:collect="always"
       xlink:href="#linearGradient3878"
       id="radialGradient14008"
       gradientUnits="userSpaceOnUse"
       gradientTransform="matrix(0.97108935,-0.00560264,0.0096149,0.92993436,2.0837497,8.2171544)"
       cx="105.76555"
       cy="119.15379"
       fx="105.76555"
       fy="119.15379"
       r="80.952019" />
  </defs>
  <metadata
     id="metadata2987">
    <rdf:RDF>
      <cc:Work
         rdf:about="">
        <dc:title></dc:title>
        <dc:description>Orange Juice Box</dc:description>
        <dc:subject>
          <rdf:Bag>
            <rdf:li>food</rdf:li>
            <rdf:li>juice</rdf:li>
            <rdf:li>menu</rdf:li>
            <rdf:li>orange</rdf:li>
            <rdf:li>beverage</rdf:li>
          </rdf:Bag>
        </dc:subject>
        <dc:publisher>
          <cc:Agent
             rdf:about="http://www.openclipart.org/">
            <dc:title>Open Clip Art Project</dc:title>
          </cc:Agent>
        </dc:publisher>
        <dc:creator>
          <cc:Agent
             rdf:about="http://web.resource.org/cc/PublicDomain">
            <dc:title>Gerald G.</dc:title>
          </cc:Agent>
        </dc:creator>
        <dc:rights>
          <cc:Agent
             rdf:about="http://web.resource.org/cc/PublicDomain">
            <dc:title>Public Domain</dc:title>
          </cc:Agent>
        </dc:rights>
        <dc:date>2005/05/30</dc:date>
        <dc:format>image/svg+xml</dc:format>
        <dc:type
           rdf:resource="http://purl.org/dc/dcmitype/StillImage" />
        <cc:license
           rdf:resource="http://web.resource.org/cc/PublicDomain" />
        <dc:language>en</dc:language>
      </cc:Work>
      <cc:License
         rdf:about="http://web.resource.org/cc/PublicDomain">
        <cc:permits
           rdf:resource="http://web.resource.org/cc/Reproduction" />
        <cc:permits
           rdf:resource="http://web.resource.org/cc/Distribution" />
        <cc:permits
           rdf:resource="http://web.resource.org/cc/DerivativeWorks" />
      </cc:License>
    </rdf:RDF>
  </metadata>
  <path
     style="opacity:0.2431193;fill:#808000;fill-opacity:1;stroke:none"
     d="m 227.52744,106.38851 c 0,61.27925 -23.16405,115.84161 -123.26494,117.66201 C 36.508126,225.28267 2.8857278,167.66776 2.8857278,106.38851 c 0,-61.279235 31.3825502,-91.324239 108.2888322,-95.71468 79.90586,-4.5616832 116.35288,34.435445 116.35288,95.71468 z"
     id="path3929"
     inkscape:connector-curvature="0"
     sodipodi:nodetypes="sssss" />
  <g
     transform="matrix(0.9891739,0,0,0.69215682,10.877209,155.3252)"
     id="g2990">
    <path
       sodipodi:type="arc"
       style="fill:url(#radialGradient3884);fill-opacity:1;stroke:none"
       id="path3108"
       sodipodi:cx="106.93661"
       sodipodi:cy="116.43098"
       sodipodi:rx="80.952019"
       sodipodi:ry="79.452911"
       d="m 187.88863,116.43098 c 0,43.88063 -36.24346,79.45291 -80.95202,79.45291 -44.708568,0 -80.952021,-35.57228 -80.952021,-79.45291 0,-43.880634 36.243453,-79.452915 80.952021,-79.452915 44.70856,0 80.95202,35.572281 80.95202,79.452915 z"
       transform="matrix(1.2285681,0,0,0.29661719,-52.680414,15.522897)" />
  </g>
  <g
     inkscape:groupmode="layer"
     id="layer1"
     inkscape:label="Layer">
    <g
       id="g13987"
       transform="matrix(1.9589556,0,0,1.9589556,-43.513097,-91.245347)">
      <path
         d="m 64.292242,80.525539 c 0,0 -5.31,-18.69125 14.273751,-23.27501 0,0 6.66625,18.33376 -14.273751,23.27501"
         style="fill:#2fa840;fill-opacity:1;fill-rule:nonzero;stroke:none"
         id="path3286"
         inkscape:connector-curvature="0" />
      <path
         d="m 61.663492,79.475539 c 0,0 0.26375,-9.19625 -7.8825,-15.24 0,0 -2.36375,-0.78875 -0.78875,-2.36625 1.5775,-1.57626 2.89125,-0.26125 2.89125,-0.26125 0,0 8.40875,5.78 8.40875,18.9175 0,13.1375 -2.89,7.8825 -2.62875,-1.05"
         style="fill:#6a4225;fill-opacity:1;fill-rule:nonzero;stroke:none"
         id="path3288"
         inkscape:connector-curvature="0" />
      <path
         d="m 74.187243,79.541789 c -6.945001,0.89125 -10.228751,0.8675 -11.037501,0.84125 l 0,-0.007 -0.10625,0.005 -0.10625,-0.005 0,0.007 c -0.8075,0.0263 -4.09125,0.05 -11.0375,-0.84125 -6.6425,-0.85125 -23.335001,1.6675 -23.542501,21.042501 -0.14125,13.11 4.9975,22.61375 10,28.9575 2.39125,3.03125 10.417501,11.65 22.290001,11.65 0.11125,0 0.43,0 0.8325,0.002 l 0,0.015 c 0.17875,0 0.835,-0.002 1.56375,-0.008 0.72875,0.005 1.38625,0.008 1.56375,0.008 l 0,-0.015 c 0.40375,-0.002 0.7225,-0.002 0.8325,-0.002 11.872501,0 19.900001,-8.61875 22.290001,-11.65 5.0025,-6.34375 10.1425,-15.8475 10,-28.9575 -0.2075,-19.375001 -16.89875,-21.893751 -23.5425,-21.042501"
         style="fill:#51be37;fill-opacity:1;fill-rule:nonzero;stroke:none"
         id="path3290"
         inkscape:connector-curvature="0" />
      <path
         d="m 54.815992,83.520539 c 0,0 6.26125,1.565 14.8675,0.15625 8.608751,-1.40875 15.920001,3.48125 17.057501,12.36375 0.78375,6.103751 -3.12875,7.668751 -5.00625,7.668751 0,0 -4.695,0.15625 -5.0075,-6.416251 0,0 -0.1575,-10.48625 -9.390001,-9.86125 0,0 -9.0775,1.72125 -12.52125,-3.91125"
         style="fill:#bce59f;fill-opacity:1;fill-rule:nonzero;stroke:none"
         id="path3292"
         inkscape:connector-curvature="0" />
      <path
         d="m 39.189741,84.125539 c 0,0 -15,9.375 -3.75,36.041251 0,0 7.5,18.75 25.625001,18.75 0,0 2.6375,0.20875 3.96,0.20875 3.28125,0 8.321251,-0.70375 14.237501,-4.83375 1.9725,-1.37625 9.30375,-7.4575 12.6375,-15.375 0,0 -20.833751,11.6675 -38.750001,-1.25 0,0 -17.08375,-11.25 -13.960001,-33.541251"
         style="fill:#37ad3e;fill-opacity:1;fill-rule:nonzero;stroke:none"
         id="path3294"
         inkscape:connector-curvature="0" />
    </g>
    <g
       id="g13994"
       transform="matrix(1.9589556,0,0,1.9589556,-146.41073,-79.454993)">
      <path
         d="m 154.05224,76.875539 c 0,0 -5.30875,-18.69126 14.275,-23.27501 0,0 6.66625,18.33376 -14.275,23.27501"
         style="fill:#2fa840;fill-opacity:1;fill-rule:nonzero;stroke:none"
         id="path4344"
         inkscape:connector-curvature="0" />
      <path
         d="m 151.42474,75.825539 c 0,0 0.2625,-9.19625 -7.8825,-15.24001 0,0 -2.365,-0.78875 -0.78875,-2.36625 1.5775,-1.57625 2.89125,-0.26125 2.89125,-0.26125 0,0 8.4075,5.78001 8.4075,18.91751 0,13.1375 -2.88875,7.8825 -2.6275,-1.05"
         style="fill:#6a4225;fill-opacity:1;fill-rule:nonzero;stroke:none"
         id="path4346"
         inkscape:connector-curvature="0" />
      <path
         d="m 163.94849,75.891789 c -6.94625,0.89125 -10.23,0.8675 -11.0375,0.8425 l 0,-0.009 -0.10625,0.005 -0.10625,-0.005 0,0.009 c -0.8075,0.025 -4.09125,0.0488 -11.0375,-0.8425 -6.6425,-0.85125 -23.335,1.6675 -23.5425,21.0425 -0.14125,13.110001 4.9975,22.615001 10,28.957501 2.39,3.0325 10.4175,11.65 22.29,11.65 0.11125,0 0.43,0 0.8325,0.002 l 0,0.015 c 0.17875,0 0.835,-0.002 1.56375,-0.007 0.72875,0.005 1.385,0.007 1.56375,0.007 l 0,-0.015 c 0.4025,-0.002 0.72125,-0.002 0.8325,-0.002 11.8725,0 19.9,-8.6175 22.29001,-11.65 5.0025,-6.3425 10.14125,-15.8475 10,-28.957501 -0.2075,-19.375 -16.89876,-21.89375 -23.54251,-21.0425"
         style="fill:#51be37;fill-opacity:1;fill-rule:nonzero;stroke:none"
         id="path4348"
         inkscape:connector-curvature="0" />
      <path
         d="m 157.07724,135.47679 c 0,0 0.10375,1.145 -1.04125,1.97875 l -1.0425,0.52125 -1.04125,-0.4175 -0.9375,0.52125 -0.9375,-0.41625 -0.83375,0.3125 -0.835,-0.435 c 0,0 -1.24875,-0.50375 -1.04,-1.8575 0.20875,-1.35375 7.70875,-0.2075 7.70875,-0.2075"
         style="fill:#462c20;fill-opacity:1;fill-rule:nonzero;stroke:none"
         id="path4350"
         inkscape:connector-curvature="0" />
      <path
         d="m 163.41099,77.375539 c -6.61125,0.84875 -9.73625,0.825 -10.505,0.80125 l 0,-0.008 -0.10125,0.005 -0.10125,-0.005 0,0.008 c -0.76875,0.0237 -3.89375,0.0475 -10.505,-0.80125 -6.32125,-0.81 -22.20875,1.5875 -22.4075,20.0275 -0.135,12.477501 4.75625,21.522501 9.51875,27.561251 2.275,2.885 9.915,11.0875 21.215,11.0875 0.10625,0 0.40875,10e-4 0.7925,0.004 l 0,0.0125 c 0.16875,0 0.795,-0.004 1.4875,-0.006 0.6925,0.002 1.31875,0.006 1.4875,0.006 l 0,-0.0125 c 0.38375,-0.002 0.68625,-0.004 0.7925,-0.004 11.3,0 18.94,-8.2025 21.21501,-11.0875 4.7625,-6.03875 9.65375,-15.08375 9.51875,-27.561251 -0.19875,-18.44 -16.08626,-20.8375 -22.40751,-20.0275"
         style="fill:#fefbc7;fill-opacity:1;fill-rule:nonzero;stroke:none"
         id="path4352"
         inkscape:connector-curvature="0" />
      <path
         d="m 156.72724,94.580539 c -2.445,0.3125 -3.60125,0.305 -3.885,0.295 l 0,-0.002 -0.0375,0.002 -0.0375,-0.002 0,0.002 c -0.28375,0.01 -1.44,0.0175 -3.885,-0.295 -2.33625,-0.3 -8.21,0.58625 -8.28375,7.403751 -0.0487,4.6125 1.75875,7.9575 3.52,10.19 0.84125,1.06625 3.665,4.0975 7.8425,4.0975 0.0387,0 0.15125,0.001 0.29375,0.002 l 0,0.005 c 0.0625,0 0.29375,-0.001 0.55,-0.002 0.25625,10e-4 0.4875,0.002 0.55,0.002 l 0,-0.005 c 0.1425,-0.001 0.255,-0.002 0.29375,-0.002 4.1775,0 7.00125,-3.03125 7.8425,-4.0975 1.76125,-2.2325 3.56875,-5.5775 3.52,-10.19 -0.0737,-6.817501 -5.9475,-7.703751 -8.28375,-7.403751"
         style="fill:#f3eb9c;fill-opacity:1;fill-rule:nonzero;stroke:none"
         id="path4354"
         inkscape:connector-curvature="0" />
      <path
         d="m 158.06349,100.95929 c -0.0525,0.67625 0.06,1.4675 -1.01125,2.4425 0,0 -1.2675,1.07125 -1.35125,2.71625 -0.025,0.50375 0.27875,2.05875 1.92375,2.25375 0.8825,0.10375 1.9175,10e-4 2.65375,-1.5575 0.5575,-1.1775 0.475,-3.9 -1.45375,-5.96375 -0.25,-0.26875 -0.71625,-0.4675 -0.76125,0.10875"
         style="fill:#462c20;fill-opacity:1;fill-rule:nonzero;stroke:none"
         id="path4356"
         inkscape:connector-curvature="0" />
      <path
         d="m 148.03599,100.95929 c 0.0512,0.675 -0.0588,1.4675 1.0125,2.4425 0,0 1.2675,1.07125 1.35,2.71625 0.025,0.5025 -0.2775,2.05875 -1.925,2.25375 -0.8825,0.10375 -1.91625,0 -2.6525,-1.5575 -0.55625,-1.17875 -0.47625,-3.90125 1.4525,-5.96375 0.25125,-0.27 0.7175,-0.4675 0.7625,0.10875"
         style="fill:#462c20;fill-opacity:1;fill-rule:nonzero;stroke:none"
         id="path4358"
         inkscape:connector-curvature="0" />
    </g>
  </g>
  <g
     id="g14004"
     transform="matrix(0.75288628,0,0,0.69215682,93.972687,160.3252)">
    <path
       transform="matrix(1.2285681,0,0,0.29661719,-52.680414,15.522897)"
       d="m 187.88863,116.43098 c 0,43.88063 -36.24346,79.45291 -80.95202,79.45291 -44.708568,0 -80.952021,-35.57228 -80.952021,-79.45291 0,-43.880634 36.243453,-79.452915 80.952021,-79.452915 44.70856,0 80.95202,35.572281 80.95202,79.452915 z"
       sodipodi:ry="79.452911"
       sodipodi:rx="80.952019"
       sodipodi:cy="116.43098"
       sodipodi:cx="106.93661"
       id="path14006"
       style="fill:url(#radialGradient14008);fill-opacity:1;stroke:none"
       sodipodi:type="arc" />
  </g>
</svg>
