<?xml version="1.0" encoding="UTF-8" standalone="no"?>
<!-- Created with Inkscape (http://www.inkscape.org/) -->

<svg
   xmlns:dc="http://purl.org/dc/elements/1.1/"
   xmlns:cc="http://creativecommons.org/ns#"
   xmlns:rdf="http://www.w3.org/1999/02/22-rdf-syntax-ns#"
   xmlns:svg="http://www.w3.org/2000/svg"
   xmlns="http://www.w3.org/2000/svg"
   xmlns:xlink="http://www.w3.org/1999/xlink"
   xmlns:sodipodi="http://sodipodi.sourceforge.net/DTD/sodipodi-0.dtd"
   xmlns:inkscape="http://www.inkscape.org/namespaces/inkscape"
   version="1.1"
   width="262.98853"
   height="345.92365"
   viewBox="0 0 262.98854 345.92362"
   id="svg2985"
   style="overflow:visible"
   inkscape:version="0.48.4 r"
   sodipodi:docname="apple2-red.svg">
  <sodipodi:namedview
     pagecolor="#ffffff"
     bordercolor="#666666"
     borderopacity="1"
     objecttolerance="10"
     gridtolerance="10"
     guidetolerance="10"
     inkscape:pageopacity="0"
     inkscape:pageshadow="2"
     inkscape:window-width="1170"
     inkscape:window-height="802"
     id="namedview3582"
     showgrid="false"
     inkscape:zoom="0.94"
     inkscape:cx="18.020845"
     inkscape:cy="170.45707"
     inkscape:window-x="14"
     inkscape:window-y="22"
     inkscape:window-maximized="0"
     inkscape:current-layer="svg2985"
     fit-margin-top="1"
     fit-margin-right="1"
     fit-margin-bottom="1"
     fit-margin-left="1" />
  <defs
     id="defs3078">
    <linearGradient
       id="linearGradient4301">
      <stop
         style="stop-color:#404040;stop-opacity:1;"
         offset="0"
         id="stop4303" />
      <stop
         style="stop-color:#808000;stop-opacity:0;"
         offset="1"
         id="stop4305" />
    </linearGradient>
    <linearGradient
       id="linearGradient4088">
      <stop
         style="stop-color:#000000;stop-opacity:1;"
         offset="0"
         id="stop4090" />
      <stop
         style="stop-color:#c8cc95;stop-opacity:0;"
         offset="1"
         id="stop4092" />
    </linearGradient>
    <linearGradient
       id="linearGradient3910">
      <stop
         style="stop-color:#d1f5bc;stop-opacity:1;"
         offset="0"
         id="stop3912" />
      <stop
         style="stop-color:#9ce970;stop-opacity:0;"
         offset="1"
         id="stop3915" />
    </linearGradient>
    <linearGradient
       id="linearGradient3878">
      <stop
         style="stop-color:#6e8f5b;stop-opacity:1;"
         offset="0"
         id="stop3880" />
      <stop
         style="stop-color:#ebebeb;stop-opacity:0;"
         offset="1"
         id="stop3882" />
    </linearGradient>
    <linearGradient
       id="linearGradient4407">
      <stop
         style="stop-color:#5a932e;stop-opacity:1;"
         offset="0"
         id="stop4409" />
      <stop
         style="stop-color:#008000;stop-opacity:0;"
         offset="1"
         id="stop4411" />
    </linearGradient>
    <linearGradient
       id="linearGradient3920">
      <stop
         id="stop3922"
         style="stop-color:#f76605;stop-opacity:1"
         offset="0" />
      <stop
         id="stop3924"
         style="stop-color:#f76605;stop-opacity:0"
         offset="1" />
    </linearGradient>
    <linearGradient
       id="linearGradient3912">
      <stop
         id="stop3914"
         style="stop-color:#f76605;stop-opacity:1"
         offset="0" />
      <stop
         id="stop3916"
         style="stop-color:#f76605;stop-opacity:0"
         offset="1" />
    </linearGradient>
    <linearGradient
       x1="266.47787"
       y1="211.67976"
       x2="229.98468"
       y2="1.0003659"
       id="linearGradient3926"
       xlink:href="#linearGradient3920"
       gradientUnits="userSpaceOnUse" />
    <linearGradient
       x1="181.08247"
       y1="130.10081"
       x2="215.93491"
       y2="39.449913"
       id="linearGradient3928"
       xlink:href="#linearGradient3912"
       gradientUnits="userSpaceOnUse"
       gradientTransform="matrix(1,0,0,0.86093174,-54.558414,-74.851056)" />
    <radialGradient
       inkscape:collect="always"
       xlink:href="#linearGradient4088"
       id="radialGradient4094"
       cx="78.698494"
       cy="50.058327"
       fx="78.698494"
       fy="50.058327"
       r="99.45507"
       gradientTransform="matrix(1,0,0,0.23696228,0,38.196391)"
       gradientUnits="userSpaceOnUse" />
    <radialGradient
       inkscape:collect="always"
       xlink:href="#linearGradient4088-8"
       id="radialGradient4104-4"
       cx="78.698494"
       cy="50.058327"
       fx="78.698494"
       fy="50.058327"
       r="99.45507"
       gradientTransform="matrix(1,0,0,0.23696228,0,38.196391)"
       gradientUnits="userSpaceOnUse" />
    <linearGradient
       inkscape:collect="always"
       id="linearGradient4088-8">
      <stop
         style="stop-color:#000000;stop-opacity:1;"
         offset="0"
         id="stop4090-2" />
      <stop
         style="stop-color:#000000;stop-opacity:0;"
         offset="1"
         id="stop4092-2" />
    </linearGradient>
    <radialGradient
       inkscape:collect="always"
       xlink:href="#linearGradient4088-8"
       id="radialGradient4106-5"
       gradientUnits="userSpaceOnUse"
       gradientTransform="matrix(1,0,0,0.23696228,0,38.196391)"
       cx="78.698494"
       cy="50.058327"
       fx="78.698494"
       fy="50.058327"
       r="99.45507" />
    <radialGradient
       inkscape:collect="always"
       xlink:href="#linearGradient4088"
       id="radialGradient4162"
       cx="78.698494"
       cy="50.058327"
       fx="78.698494"
       fy="50.058327"
       r="99.45507"
       gradientTransform="matrix(1,0,0,0.23696228,0,38.196391)"
       gradientUnits="userSpaceOnUse"
       spreadMethod="pad" />
    <radialGradient
       inkscape:collect="always"
       xlink:href="#linearGradient4088"
       id="radialGradient4164"
       gradientUnits="userSpaceOnUse"
       gradientTransform="matrix(0.61561498,-0.00320847,1.5412167e-4,0.13566286,37.454766,51.195072)"
       spreadMethod="pad"
       cx="100.39214"
       cy="142.5378"
       fx="100.39214"
       fy="142.5378"
       r="99.45507" />
    <radialGradient
       inkscape:collect="always"
       xlink:href="#linearGradient4088-4"
       id="radialGradient4162-1"
       cx="78.698494"
       cy="50.058327"
       fx="78.698494"
       fy="50.058327"
       r="99.45507"
       gradientTransform="matrix(1,0,0,0.23696228,0,38.196391)"
       gradientUnits="userSpaceOnUse"
       spreadMethod="pad" />
    <linearGradient
       id="linearGradient4088-4">
      <stop
         style="stop-color:#000000;stop-opacity:1;"
         offset="0"
         id="stop4090-1" />
      <stop
         style="stop-color:#c8cc95;stop-opacity:0;"
         offset="1"
         id="stop4092-8" />
    </linearGradient>
    <radialGradient
       inkscape:collect="always"
       xlink:href="#linearGradient4088-4"
       id="radialGradient4164-9"
       gradientUnits="userSpaceOnUse"
       gradientTransform="matrix(0.61561498,-0.00320847,1.5412167e-4,0.13566286,37.454766,51.195072)"
       spreadMethod="pad"
       cx="100.39214"
       cy="142.5378"
       fx="100.39214"
       fy="142.5378"
       r="99.45507" />
    <linearGradient
       id="linearGradient4181">
      <stop
         style="stop-color:#000000;stop-opacity:1;"
         offset="0"
         id="stop4183" />
      <stop
         style="stop-color:#c8cc95;stop-opacity:0.45299146;"
         offset="1"
         id="stop4185" />
    </linearGradient>
    <radialGradient
       r="99.45507"
       fy="142.5378"
       fx="100.39214"
       cy="142.5378"
       cx="100.39214"
       spreadMethod="pad"
       gradientTransform="matrix(0.61561498,-0.00320847,1.5412167e-4,0.13566286,37.454766,51.195072)"
       gradientUnits="userSpaceOnUse"
       id="radialGradient4189"
       xlink:href="#linearGradient4088-4"
       inkscape:collect="always" />
    <radialGradient
       inkscape:collect="always"
       xlink:href="#linearGradient4301"
       id="radialGradient4307"
       cx="121.94993"
       cy="157.95644"
       fx="121.94993"
       fy="157.95644"
       r="107.58281"
       gradientTransform="matrix(1.2022307,0,0,1.0833378,-16.272592,20.536146)"
       gradientUnits="userSpaceOnUse" />
  </defs>
  <metadata
     id="metadata2987">
    <rdf:RDF>
      <cc:Work
         rdf:about="">
        <dc:title></dc:title>
        <dc:description>Orange Juice Box</dc:description>
        <dc:subject>
          <rdf:Bag>
            <rdf:li>food</rdf:li>
            <rdf:li>juice</rdf:li>
            <rdf:li>menu</rdf:li>
            <rdf:li>orange</rdf:li>
            <rdf:li>beverage</rdf:li>
          </rdf:Bag>
        </dc:subject>
        <dc:publisher>
          <cc:Agent
             rdf:about="http://www.openclipart.org/">
            <dc:title>Open Clip Art Project</dc:title>
          </cc:Agent>
        </dc:publisher>
        <dc:creator>
          <cc:Agent
             rdf:about="http://web.resource.org/cc/PublicDomain">
            <dc:title>Gerald G.</dc:title>
          </cc:Agent>
        </dc:creator>
        <dc:rights>
          <cc:Agent
             rdf:about="http://web.resource.org/cc/PublicDomain">
            <dc:title>Public Domain</dc:title>
          </cc:Agent>
        </dc:rights>
        <dc:date>2005/05/30</dc:date>
        <dc:format>image/svg+xml</dc:format>
        <dc:type
           rdf:resource="http://purl.org/dc/dcmitype/StillImage" />
        <cc:license
           rdf:resource="http://web.resource.org/cc/PublicDomain" />
        <dc:language>en</dc:language>
      </cc:Work>
      <cc:License
         rdf:about="http://web.resource.org/cc/PublicDomain">
        <cc:permits
           rdf:resource="http://web.resource.org/cc/Reproduction" />
        <cc:permits
           rdf:resource="http://web.resource.org/cc/Distribution" />
        <cc:permits
           rdf:resource="http://web.resource.org/cc/DerivativeWorks" />
      </cc:License>
    </rdf:RDF>
  </metadata>
  <path
     style="opacity:0.63120003;fill:url(#radialGradient4307);fill-opacity:1;stroke:none;overflow:visible"
     d="m 259.67872,179.91715 c 0,66.8132 -7.71223,128.2877 -136.29536,128.2877 -94.755187,0 -122.3833599,-58.68967 -122.3833599,-125.50286 0,-81.43356 46.8288389,-102.356266 129.8444999,-107.143199 86.25353,-4.973631 128.83422,31.279319 128.83422,104.358359 z"
     id="path3929-4"
     inkscape:connector-curvature="0"
     sodipodi:nodetypes="sssss" />
  <g
     inkscape:groupmode="layer"
     id="layer1"
     inkscape:label="Layer"
     transform="translate(17.27412,35.397215)">
    <path
       inkscape:connector-curvature="0"
       id="path3286"
       style="fill:#2fa840;fill-opacity:1;fill-rule:nonzero;stroke:none"
       d="m 67.961919,26.503161 c 0,0 -6.299195,-38.338396 41.174471,-42.957768 0,0 7.2606,31.528456 -41.174471,42.957768"
       sodipodi:nodetypes="ccc" />
    <path
       inkscape:connector-curvature="0"
       id="path3288"
       style="fill:#6a4225;fill-opacity:1;fill-rule:nonzero;stroke:none"
       d="m 61.881514,24.074468 c 0,0 1.346582,-19.2712991 -14.232543,-33.2507379 0,0 -5.46745,-1.8244111 -1.824411,-5.4732331 3.648822,-3.645953 6.687579,-0.604282 6.687579,-0.604282 0,0 15.44978,11.3693752 15.44978,41.756946 0,30.387571 -6.684687,20.232543 -6.080405,-0.428693"
       sodipodi:nodetypes="ccccsc" />
    <path
       inkscape:connector-curvature="0"
       id="path3290"
       style="fill:#c62e2e;fill-opacity:1;fill-rule:nonzero;stroke:none"
       d="M 90.849458,24.227707 C 74.785389,26.289205 67.189942,26.23427 65.31927,26.173553 l 0,-0.01619 -0.24576,0.01157 -0.245761,-0.01157 0,0.01619 c -1.86778,0.06083 -9.463227,0.115652 -25.530186,-1.945846 -15.364372,-1.968975 -53.974804,3.856996 -54.45476,48.672159 -0.326717,30.323964 11.5594201,52.306524 23.1304057,66.979874 5.5310583,7.0114 24.0961033,26.94692 51.5576773,26.94692 0.257326,0 0.994607,0 1.925606,0.005 l 0,0.0347 c 0.413456,0 1.931389,-0.005 3.617018,-0.0185 1.685628,0.0116 3.206452,0.0185 3.617017,0.0185 l 0,-0.0347 c 0.93389,-0.005 1.671172,-0.005 1.925606,-0.005 27.461577,0 46.029507,-19.93552 51.557677,-26.94692 11.57099,-14.67335 23.46001,-36.65591 23.13041,-66.979874 -0.47996,-44.815163 -39.0875,-50.641134 -54.454762,-48.672159"
       sodipodi:nodetypes="cccccccccscccccsccc" />
    <path
       inkscape:connector-curvature="0"
       id="path3292"
       style="fill:#e00000;fill-opacity:1;fill-rule:nonzero;stroke:none"
       d="m 46.042968,33.430718 c 0,0 14.482525,3.619908 34.389131,0.361412 19.912391,-3.258496 36.823611,8.052273 39.454691,28.597856 1.81285,14.118224 -7.23692,17.738132 -11.57966,17.738132 0,0 -10.859724,0.361413 -11.582549,-14.841049 0,0 -0.364304,-24.255122 -21.719453,-22.809471 0,0 -20.996626,3.981321 -28.96216,-9.04688"
       sodipodi:nodetypes="ccccccc" />
    <path
       inkscape:connector-curvature="0"
       id="path3294"
       style="fill:#800000;fill-opacity:1;fill-rule:nonzero;stroke:none;opacity:0.31"
       d="m 9.898815,34.830107 c 0,0 -34.695609,21.684756 -8.6739022,83.364873 0,0 17.3478042,43.36952 59.2716672,43.36952 0,0 6.100645,0.48284 9.159641,0.48284 7.589665,0 19.247392,-1.6278 32.931919,-11.18066 4.56247,-3.18332 21.51995,-17.2495 29.23105,-35.563 0,0 -48.189312,26.9874 -89.630326,-2.8913 0,0 -39.5154072,-26.021704 -32.290049,-77.582273"
       sodipodi:nodetypes="cccscccc" />
    <path
       inkscape:connector-curvature="0"
       id="path4344"
       style="fill:#2fa840;fill-opacity:1;fill-rule:nonzero;stroke:none"
       d="m 160.96202,23.893562 c 0,0 -13.29544,-46.811085 35.75083,-58.290799 0,0 16.69521,45.915749 -35.75083,58.290799" />
    <path
       inkscape:connector-curvature="0"
       id="path4346"
       style="fill:#6a4225;fill-opacity:1;fill-rule:nonzero;stroke:none"
       d="m 154.38161,21.263903 c 0,0 0.65741,-23.0314297 -19.74123,-38.167646 0,0 -5.92299,-1.975375 -1.97537,-5.926125 3.95075,-3.947619 7.24095,-0.654284 7.24095,-0.654284 0,0 21.05606,14.4756716 21.05606,47.377714 0,32.902042 -7.2347,19.741225 -6.58041,-2.629659" />
    <path
       inkscape:connector-curvature="0"
       id="path4348"
       style="fill:#e00000;fill-opacity:1;fill-rule:nonzero;stroke:none"
       d="m 185.74655,21.429822 c -17.39645,2.23208 -25.62039,2.172599 -27.64272,2.109988 l 0,-0.02254 -0.2661,0.01252 -0.2661,-0.01252 0,0.02254 c -2.02233,0.06261 -10.24627,0.122217 -27.64272,-2.109988 -16.63572,-2.131902 -58.441041,4.176149 -58.960711,52.699618 -0.353752,32.83317 12.515924,56.63785 25.044371,72.52224 5.9856,7.5947 26.08997,29.17669 55.8239,29.17669 0.27862,0 1.07691,0 2.08495,0.005 l 0,0.0376 c 0.44766,0 2.0912,-0.005 3.91631,-0.0175 1.82511,0.0125 3.46865,0.0175 3.91631,0.0175 l 0,-0.0376 c 1.00804,-0.005 1.80633,-0.005 2.08495,-0.005 29.73393,0 49.8383,-21.58199 55.82393,-29.17669 12.52844,-15.88439 25.39812,-39.68907 25.04437,-72.52224 C 244.18762,25.605971 202.3854,19.29792 185.74655,21.429822" />
    <path
       inkscape:connector-curvature="0"
       id="path4350"
       style="fill:#462c20;fill-opacity:1;fill-rule:nonzero;stroke:none"
       d="m 168.53794,170.65671 c 0,0 0.25983,2.86758 -2.60775,4.95565 l -2.61087,1.30544 -2.60775,-1.0456 -2.34791,1.30544 -2.34791,-1.04247 -2.08807,0.78263 -2.09121,-1.08943 c 0,0 -3.12741,-1.26161 -2.60461,-4.65199 0.5228,-3.39038 19.30608,-0.51967 19.30608,-0.51967" />
    <path
       inkscape:connector-curvature="0"
       id="path4352"
       style="fill:#fefbc7;fill-opacity:1;fill-rule:nonzero;stroke:none"
       d="m 184.40042,25.145781 c -16.55746,2.12564 -24.38383,2.06616 -26.30912,2.00668 l 0,-0.02004 -0.25357,0.01252 -0.25357,-0.01252 0,0.02004 c -1.92529,0.05936 -9.75166,0.11896 -26.30912,-2.00668 -15.83117,-2.028595 -55.620414,3.975793 -56.11817,50.157614 -0.338099,31.249115 11.911729,53.901745 23.83911,69.025415 5.69759,7.22531 24.83149,27.76795 53.13163,27.76795 0.2661,0 1.02369,0.002 1.98477,0.01 l 0,0.0313 c 0.42262,0 1.99103,-0.01 3.72535,-0.015 1.73432,0.005 3.30273,0.015 3.72535,0.015 l 0,-0.0313 c 0.96108,-0.005 1.71867,-0.01 1.98477,-0.01 28.30014,0 47.43404,-20.54264 53.13165,-27.76795 11.92739,-15.12367 24.17721,-37.7763 23.83912,-69.025415 -0.49776,-46.181821 -40.28703,-52.186209 -56.1182,-50.157614" />
    <path
       inkscape:connector-curvature="0"
       id="path4354"
       style="fill:#f3eb9c;fill-opacity:1;fill-rule:nonzero;stroke:none"
       d="m 167.66138,68.234621 c -6.12334,0.782636 -9.0191,0.763853 -9.72973,0.738809 l 0,-0.005 -0.0939,0.005 -0.0939,-0.005 0,0.005 c -0.71063,0.02504 -3.60639,0.04383 -9.72973,-0.738809 -5.851,-0.751331 -20.56143,1.468226 -20.74614,18.542228 -0.12196,11.551717 4.40468,19.929061 8.81562,25.520211 2.10686,2.67036 9.17877,10.26193 19.64105,10.26193 0.0969,0 0.3788,0.003 0.73568,0.005 l 0,0.0125 c 0.15653,0 0.73568,-0.003 1.37744,-0.005 0.64176,0.002 1.22091,0.005 1.37744,0.005 l 0,-0.0125 c 0.35688,-0.002 0.63863,-0.005 0.73568,-0.005 10.46228,0 17.53419,-7.59157 19.64105,-10.26193 4.41094,-5.59115 8.93771,-13.968494 8.81562,-25.520211 C 188.22294,69.702847 173.51238,67.48329 167.66138,68.234621" />
    <path
       inkscape:connector-curvature="0"
       id="path4356"
       style="fill:#462c20;fill-opacity:1;fill-rule:nonzero;stroke:none"
       d="m 171.00794,84.209801 c -0.13148,1.693626 0.15026,3.675262 -2.53261,6.117088 0,0 -3.17438,2.682878 -3.38412,6.802677 -0.0626,1.261611 0.69811,5.156014 4.81791,5.644374 2.21016,0.25984 4.80225,0.003 6.64615,-3.900659 1.39622,-2.948975 1.1896,-9.767305 -3.64083,-14.935837 -0.62611,-0.673068 -1.7938,-1.170824 -1.9065,0.272357" />
    <path
       inkscape:connector-curvature="0"
       id="path4358"
       style="fill:#462c20;fill-opacity:1;fill-rule:nonzero;stroke:none"
       d="m 145.8947,84.209801 c 0.12822,1.690496 -0.14727,3.675262 2.53574,6.117088 0,0 3.17437,2.682878 3.38099,6.802677 0.0626,1.25848 -0.69498,5.156014 -4.82104,5.644374 -2.21017,0.25984 -4.79913,0 -6.64302,-3.900659 -1.3931,-2.952106 -1.19274,-9.770436 3.63769,-14.935837 0.62924,-0.676198 1.79694,-1.170824 1.90964,0.272357" />
  </g>
  <g
     style="font-size:40px;font-style:normal;font-weight:normal;line-height:125%;letter-spacing:0px;word-spacing:0px;fill:#333333;fill-opacity:1;stroke:none;font-family:Sans"
     id="text3316"
     transform="matrix(1.0456646,0,0,1.0456646,-6.7582416,8.2286493)">
    <path
       d="m 53.992195,283.31836 10.898438,0 8.73047,-23.14453 37.558597,0 8.78906,23.14453 11.19141,0 -33.398441,-85.31251 -10.429688,0 -33.339846,85.31251 m 22.675783,-31.11328 9.902344,-27.2461 5.976563,-16.11328 5.625001,16.05469 9.960934,27.30469 -31.464842,0"
       style="font-size:120.00000762999999893px;font-variant:normal;font-stretch:normal;letter-spacing:10px;fill:#333333;font-family:Topmarks;-inkscape-font-specification:Topmarks"
       id="path4219"
       inkscape:connector-curvature="0" />
    <path
       d="m 172.44924,284.60742 c 4.37496,0 8.45699,-0.99609 12.24609,-2.98828 3.82808,-2.03125 6.67964,-4.70702 8.55469,-8.02734 0.74214,3.125 2.24604,5.56641 4.51172,7.32422 2.30463,1.75781 5.44916,2.63671 9.43359,2.63671 l 1.64063,-7.91015 c -2.53913,10e-6 -4.3946,-0.70312 -5.56641,-2.10938 -1.13287,-1.4453 -1.69928,-3.61327 -1.69922,-6.5039 l 0,-40.07813 c -2.3438,-1.52338 -5.39068,-2.73432 -9.14062,-3.63281 -3.71099,-0.93744 -7.42192,-1.40619 -11.13282,-1.40625 -4.72659,6e-5 -9.10159,0.85943 -13.125,2.57812 -3.98439,1.71881 -7.40236,4.14068 -10.25391,7.26563 -2.81251,3.08598 -5.01954,6.85551 -6.62109,11.30859 -1.56251,4.45316 -2.34376,9.31644 -2.34375,14.58985 -1e-5,8.04689 2.18749,14.55079 6.5625,19.51172 4.37498,4.96093 10.01951,7.4414 16.9336,7.4414 m 1.40625,-7.96875 c -4.49222,1e-5 -8.1055,-1.79687 -10.83985,-5.39062 -2.73439,-3.59374 -4.10158,-8.3203 -4.10156,-14.17969 -2e-5,-8.16403 2.03123,-14.72652 6.09375,-19.6875 4.10154,-4.99995 9.47262,-7.49995 16.11328,-7.5 1.40621,5e-5 2.79293,0.0977 4.16016,0.29296 1.36714,0.15631 2.61714,0.39068 3.75,0.70313 1.17183,0.31255 2.14839,0.66411 2.92969,1.05469 l 0,24.84375 c -5e-5,3.75002 -0.76177,7.12893 -2.28516,10.13672 -1.48442,3.00782 -3.61332,5.39063 -6.38672,7.14844 -2.73441,1.71875 -5.87894,2.57813 -9.43359,2.57812"
       style="font-size:120.00000762999999893px;font-variant:normal;font-stretch:normal;letter-spacing:10px;fill:#333333;font-family:Topmarks;-inkscape-font-specification:Topmarks"
       id="path4221"
       inkscape:connector-curvature="0" />
  </g>
</svg>
