<?xml version="1.0" encoding="UTF-8" standalone="no"?>
<!-- Created with Inkscape (http://www.inkscape.org/) -->

<svg
   xmlns:dc="http://purl.org/dc/elements/1.1/"
   xmlns:cc="http://creativecommons.org/ns#"
   xmlns:rdf="http://www.w3.org/1999/02/22-rdf-syntax-ns#"
   xmlns:svg="http://www.w3.org/2000/svg"
   xmlns="http://www.w3.org/2000/svg"
   xmlns:xlink="http://www.w3.org/1999/xlink"
   xmlns:sodipodi="http://sodipodi.sourceforge.net/DTD/sodipodi-0.dtd"
   xmlns:inkscape="http://www.inkscape.org/namespaces/inkscape"
   version="1.1"
   width="262.98853"
   height="345.92365"
   viewBox="0 0 262.98854 345.92362"
   id="svg2985"
   style="overflow:visible"
   inkscape:version="0.48.4 r"
   sodipodi:docname="apple2.svg">
  <sodipodi:namedview
     pagecolor="#ffffff"
     bordercolor="#666666"
     borderopacity="1"
     objecttolerance="10"
     gridtolerance="10"
     guidetolerance="10"
     inkscape:pageopacity="0"
     inkscape:pageshadow="2"
     inkscape:window-width="1170"
     inkscape:window-height="802"
     id="namedview3582"
     showgrid="false"
     inkscape:zoom="1.8385269"
     inkscape:cx="105.86291"
     inkscape:cy="170.45707"
     inkscape:window-x="14"
     inkscape:window-y="25"
     inkscape:window-maximized="0"
     inkscape:current-layer="svg2985"
     fit-margin-top="1"
     fit-margin-right="1"
     fit-margin-bottom="1"
     fit-margin-left="1" />
  <defs
     id="defs3078">
    <linearGradient
       id="linearGradient4301">
      <stop
         style="stop-color:#404040;stop-opacity:1;"
         offset="0"
         id="stop4303" />
      <stop
         style="stop-color:#808000;stop-opacity:0;"
         offset="1"
         id="stop4305" />
    </linearGradient>
    <linearGradient
       id="linearGradient4088">
      <stop
         style="stop-color:#000000;stop-opacity:1;"
         offset="0"
         id="stop4090" />
      <stop
         style="stop-color:#c8cc95;stop-opacity:0;"
         offset="1"
         id="stop4092" />
    </linearGradient>
    <linearGradient
       id="linearGradient3910">
      <stop
         style="stop-color:#d1f5bc;stop-opacity:1;"
         offset="0"
         id="stop3912" />
      <stop
         style="stop-color:#9ce970;stop-opacity:0;"
         offset="1"
         id="stop3915" />
    </linearGradient>
    <linearGradient
       id="linearGradient3878">
      <stop
         style="stop-color:#6e8f5b;stop-opacity:1;"
         offset="0"
         id="stop3880" />
      <stop
         style="stop-color:#ebebeb;stop-opacity:0;"
         offset="1"
         id="stop3882" />
    </linearGradient>
    <linearGradient
       id="linearGradient4407">
      <stop
         style="stop-color:#5a932e;stop-opacity:1;"
         offset="0"
         id="stop4409" />
      <stop
         style="stop-color:#008000;stop-opacity:0;"
         offset="1"
         id="stop4411" />
    </linearGradient>
    <linearGradient
       id="linearGradient3920">
      <stop
         id="stop3922"
         style="stop-color:#f76605;stop-opacity:1"
         offset="0" />
      <stop
         id="stop3924"
         style="stop-color:#f76605;stop-opacity:0"
         offset="1" />
    </linearGradient>
    <linearGradient
       id="linearGradient3912">
      <stop
         id="stop3914"
         style="stop-color:#f76605;stop-opacity:1"
         offset="0" />
      <stop
         id="stop3916"
         style="stop-color:#f76605;stop-opacity:0"
         offset="1" />
    </linearGradient>
    <linearGradient
       x1="266.47787"
       y1="211.67976"
       x2="229.98468"
       y2="1.0003659"
       id="linearGradient3926"
       xlink:href="#linearGradient3920"
       gradientUnits="userSpaceOnUse" />
    <linearGradient
       x1="181.08247"
       y1="130.10081"
       x2="215.93491"
       y2="39.449913"
       id="linearGradient3928"
       xlink:href="#linearGradient3912"
       gradientUnits="userSpaceOnUse"
       gradientTransform="matrix(1,0,0,0.86093174,-54.558414,-74.851056)" />
    <radialGradient
       inkscape:collect="always"
       xlink:href="#linearGradient4088"
       id="radialGradient4094"
       cx="78.698494"
       cy="50.058327"
       fx="78.698494"
       fy="50.058327"
       r="99.45507"
       gradientTransform="matrix(1,0,0,0.23696228,0,38.196391)"
       gradientUnits="userSpaceOnUse" />
    <radialGradient
       inkscape:collect="always"
       xlink:href="#linearGradient4088-8"
       id="radialGradient4104-4"
       cx="78.698494"
       cy="50.058327"
       fx="78.698494"
       fy="50.058327"
       r="99.45507"
       gradientTransform="matrix(1,0,0,0.23696228,0,38.196391)"
       gradientUnits="userSpaceOnUse" />
    <linearGradient
       inkscape:collect="always"
       id="linearGradient4088-8">
      <stop
         style="stop-color:#000000;stop-opacity:1;"
         offset="0"
         id="stop4090-2" />
      <stop
         style="stop-color:#000000;stop-opacity:0;"
         offset="1"
         id="stop4092-2" />
    </linearGradient>
    <radialGradient
       inkscape:collect="always"
       xlink:href="#linearGradient4088-8"
       id="radialGradient4106-5"
       gradientUnits="userSpaceOnUse"
       gradientTransform="matrix(1,0,0,0.23696228,0,38.196391)"
       cx="78.698494"
       cy="50.058327"
       fx="78.698494"
       fy="50.058327"
       r="99.45507" />
    <radialGradient
       inkscape:collect="always"
       xlink:href="#linearGradient4088"
       id="radialGradient4162"
       cx="78.698494"
       cy="50.058327"
       fx="78.698494"
       fy="50.058327"
       r="99.45507"
       gradientTransform="matrix(1,0,0,0.23696228,0,38.196391)"
       gradientUnits="userSpaceOnUse"
       spreadMethod="pad" />
    <radialGradient
       inkscape:collect="always"
       xlink:href="#linearGradient4088"
       id="radialGradient4164"
       gradientUnits="userSpaceOnUse"
       gradientTransform="matrix(0.61561498,-0.00320847,1.5412167e-4,0.13566286,37.454766,51.195072)"
       spreadMethod="pad"
       cx="100.39214"
       cy="142.5378"
       fx="100.39214"
       fy="142.5378"
       r="99.45507" />
    <radialGradient
       inkscape:collect="always"
       xlink:href="#linearGradient4088-4"
       id="radialGradient4162-1"
       cx="78.698494"
       cy="50.058327"
       fx="78.698494"
       fy="50.058327"
       r="99.45507"
       gradientTransform="matrix(1,0,0,0.23696228,0,38.196391)"
       gradientUnits="userSpaceOnUse"
       spreadMethod="pad" />
    <linearGradient
       id="linearGradient4088-4">
      <stop
         style="stop-color:#000000;stop-opacity:1;"
         offset="0"
         id="stop4090-1" />
      <stop
         style="stop-color:#c8cc95;stop-opacity:0;"
         offset="1"
         id="stop4092-8" />
    </linearGradient>
    <radialGradient
       inkscape:collect="always"
       xlink:href="#linearGradient4088-4"
       id="radialGradient4164-9"
       gradientUnits="userSpaceOnUse"
       gradientTransform="matrix(0.61561498,-0.00320847,1.5412167e-4,0.13566286,37.454766,51.195072)"
       spreadMethod="pad"
       cx="100.39214"
       cy="142.5378"
       fx="100.39214"
       fy="142.5378"
       r="99.45507" />
    <linearGradient
       id="linearGradient4181">
      <stop
         style="stop-color:#000000;stop-opacity:1;"
         offset="0"
         id="stop4183" />
      <stop
         style="stop-color:#c8cc95;stop-opacity:0.45299146;"
         offset="1"
         id="stop4185" />
    </linearGradient>
    <radialGradient
       r="99.45507"
       fy="142.5378"
       fx="100.39214"
       cy="142.5378"
       cx="100.39214"
       spreadMethod="pad"
       gradientTransform="matrix(0.61561498,-0.00320847,1.5412167e-4,0.13566286,37.454766,51.195072)"
       gradientUnits="userSpaceOnUse"
       id="radialGradient4189"
       xlink:href="#linearGradient4088-4"
       inkscape:collect="always" />
    <radialGradient
       inkscape:collect="always"
       xlink:href="#linearGradient4301"
       id="radialGradient4307"
       cx="121.94993"
       cy="157.95644"
       fx="121.94993"
       fy="157.95644"
       r="107.58281"
       gradientTransform="matrix(1.2022307,0,0,1.0833378,-16.272592,34.536146)"
       gradientUnits="userSpaceOnUse" />
  </defs>
  <metadata
     id="metadata2987">
    <rdf:RDF>
      <cc:Work
         rdf:about="">
        <dc:title></dc:title>
        <dc:description>Orange Juice Box</dc:description>
        <dc:subject>
          <rdf:Bag>
            <rdf:li>food</rdf:li>
            <rdf:li>juice</rdf:li>
            <rdf:li>menu</rdf:li>
            <rdf:li>orange</rdf:li>
            <rdf:li>beverage</rdf:li>
          </rdf:Bag>
        </dc:subject>
        <dc:publisher>
          <cc:Agent
             rdf:about="http://www.openclipart.org/">
            <dc:title>Open Clip Art Project</dc:title>
          </cc:Agent>
        </dc:publisher>
        <dc:creator>
          <cc:Agent
             rdf:about="http://web.resource.org/cc/PublicDomain">
            <dc:title>Gerald G.</dc:title>
          </cc:Agent>
        </dc:creator>
        <dc:rights>
          <cc:Agent
             rdf:about="http://web.resource.org/cc/PublicDomain">
            <dc:title>Public Domain</dc:title>
          </cc:Agent>
        </dc:rights>
        <dc:date>2005/05/30</dc:date>
        <dc:format>image/svg+xml</dc:format>
        <dc:type
           rdf:resource="http://purl.org/dc/dcmitype/StillImage" />
        <cc:license
           rdf:resource="http://web.resource.org/cc/PublicDomain" />
        <dc:language>en</dc:language>
      </cc:Work>
      <cc:License
         rdf:about="http://web.resource.org/cc/PublicDomain">
        <cc:permits
           rdf:resource="http://web.resource.org/cc/Reproduction" />
        <cc:permits
           rdf:resource="http://web.resource.org/cc/Distribution" />
        <cc:permits
           rdf:resource="http://web.resource.org/cc/DerivativeWorks" />
      </cc:License>
    </rdf:RDF>
  </metadata>
  <path
     style="opacity:0.63120003;fill:url(#radialGradient4307);fill-opacity:1;stroke:none;overflow:visible"
     d="m 259.67872,193.91715 c 0,66.8132 -7.71223,128.2877 -136.29536,128.2877 -94.755187,0 -122.3833599,-58.68967 -122.3833599,-125.50286 0,-81.43356 46.8288389,-102.356266 129.8444999,-107.143199 86.25353,-4.973631 128.83422,31.279319 128.83422,104.358359 z"
     id="path3929-4"
     inkscape:connector-curvature="0"
     sodipodi:nodetypes="sssss" />
  <path
     style="opacity:0.25;fill:#808000;fill-opacity:1;stroke:none"
     d="m 249.06505,202.8659 c 0,73.98474 -6.91763,142.05775 -122.25279,142.05775 -84.992512,0 -109.774139,-64.98927 -109.774139,-138.974 0,-90.17442 42.004039,-113.342926 116.466559,-118.64367 77.36679,-5.50749 115.56037,34.63675 115.56037,115.55992 z"
     id="path3929"
     inkscape:connector-curvature="0"
     sodipodi:nodetypes="sssss" />
  <g
     inkscape:groupmode="layer"
     id="layer1"
     inkscape:label="Layer"
     transform="translate(17.27412,35.397215)">
    <path
       inkscape:connector-curvature="0"
       id="path3286"
       style="fill:#2fa840;fill-opacity:1;fill-rule:nonzero;stroke:none"
       d="m 67.961919,26.503161 c 0,0 -6.299195,-38.338396 41.174471,-42.957768 0,0 7.2606,31.528456 -41.174471,42.957768"
       sodipodi:nodetypes="ccc" />
    <path
       inkscape:connector-curvature="0"
       id="path3288"
       style="fill:#6a4225;fill-opacity:1;fill-rule:nonzero;stroke:none"
       d="m 61.881514,24.074468 c 0,0 4.610064,-19.2712991 -14.232543,-33.2507379 0,0 -5.46745,-1.8244111 -1.824411,-5.4732331 3.648822,-3.645953 6.687579,-0.604282 6.687579,-0.604282 0,0 15.44978,11.3693752 15.44978,41.756946 0,30.387571 -6.684687,18.232543 -6.080405,-2.428693"
       sodipodi:nodetypes="ccccsc" />
    <path
       inkscape:connector-curvature="0"
       id="path3290"
       style="fill:#51be37;fill-opacity:1;fill-rule:nonzero;stroke:none"
       d="M 90.849458,24.227707 C 74.785389,26.289205 67.189942,26.23427 65.31927,26.173553 l 0,-0.01619 -0.24576,0.01157 -0.245761,-0.01157 0,0.01619 c -1.86778,0.06083 -9.463227,0.115652 -25.530186,-1.945846 -15.364372,-1.968975 -53.974804,3.856996 -54.45476,48.672159 -0.326717,30.323964 11.5594201,52.306524 23.1304057,66.979874 5.5310583,7.0114 24.0961033,26.94692 51.5576773,26.94692 0.257326,0 0.994607,0 1.925606,0.005 l 0,0.0347 c 0.413456,0 1.931389,-0.005 3.617018,-0.0185 1.685628,0.0116 3.206452,0.0185 3.617017,0.0185 l 0,-0.0347 c 0.93389,-0.005 1.671172,-0.005 1.925606,-0.005 27.461577,0 46.029507,-19.93552 51.557677,-26.94692 11.57099,-14.67335 23.46001,-36.65591 23.13041,-66.979874 -0.47996,-44.815163 -39.0875,-50.641134 -54.454762,-48.672159"
       sodipodi:nodetypes="cccccccccscccccsccc" />
    <path
       inkscape:connector-curvature="0"
       id="path3292"
       style="fill:#bce59f;fill-opacity:1;fill-rule:nonzero;stroke:none"
       d="m 46.042968,33.430718 c 0,0 14.482525,3.619908 34.389131,0.361412 19.912391,-3.258496 36.823611,8.052273 39.454691,28.597856 1.81285,14.118224 -7.23692,17.738132 -11.57966,17.738132 0,0 -10.859724,0.361413 -11.582549,-14.841049 0,0 -0.364304,-24.255122 -21.719453,-22.809471 0,0 -20.996626,3.981321 -28.96216,-9.04688"
       sodipodi:nodetypes="ccccccc" />
    <path
       inkscape:connector-curvature="0"
       id="path3294"
       style="fill:#37ad3e;fill-opacity:1;fill-rule:nonzero;stroke:none"
       d="m 9.898815,34.830107 c 0,0 -34.695609,21.684756 -8.6739022,83.364873 0,0 17.3478042,43.36952 59.2716672,43.36952 0,0 6.100645,0.48284 9.159641,0.48284 7.589665,0 19.247392,-1.6278 32.931919,-11.18066 4.56247,-3.18332 21.51995,-17.2495 29.23105,-35.563 0,0 -48.189312,26.9874 -89.630326,-2.8913 0,0 -39.5154072,-26.021704 -32.290049,-77.582273"
       sodipodi:nodetypes="cccscccc" />
    <g
       id="g13994"
       transform="matrix(2.5044371,0,0,2.5044371,-224.85213,-168.63639)">
      <path
         d="m 154.05224,76.875539 c 0,0 -5.30875,-18.69126 14.275,-23.27501 0,0 6.66625,18.33376 -14.275,23.27501"
         style="fill:#2fa840;fill-opacity:1;fill-rule:nonzero;stroke:none"
         id="path4344"
         inkscape:connector-curvature="0" />
      <path
         d="m 151.42474,75.825539 c 0,0 0.2625,-9.19625 -7.8825,-15.24001 0,0 -2.365,-0.78875 -0.78875,-2.36625 1.5775,-1.57625 2.89125,-0.26125 2.89125,-0.26125 0,0 8.4075,5.78001 8.4075,18.91751 0,13.1375 -2.88875,7.8825 -2.6275,-1.05"
         style="fill:#6a4225;fill-opacity:1;fill-rule:nonzero;stroke:none"
         id="path4346"
         inkscape:connector-curvature="0" />
      <path
         d="m 163.94849,75.891789 c -6.94625,0.89125 -10.23,0.8675 -11.0375,0.8425 l 0,-0.009 -0.10625,0.005 -0.10625,-0.005 0,0.009 c -0.8075,0.025 -4.09125,0.0488 -11.0375,-0.8425 -6.6425,-0.85125 -23.335,1.6675 -23.5425,21.0425 -0.14125,13.110001 4.9975,22.615001 10,28.957501 2.39,3.0325 10.4175,11.65 22.29,11.65 0.11125,0 0.43,0 0.8325,0.002 l 0,0.015 c 0.17875,0 0.835,-0.002 1.56375,-0.007 0.72875,0.005 1.385,0.007 1.56375,0.007 l 0,-0.015 c 0.4025,-0.002 0.72125,-0.002 0.8325,-0.002 11.8725,0 19.9,-8.6175 22.29001,-11.65 5.0025,-6.3425 10.14125,-15.8475 10,-28.957501 -0.2075,-19.375 -16.89876,-21.89375 -23.54251,-21.0425"
         style="fill:#51be37;fill-opacity:1;fill-rule:nonzero;stroke:none"
         id="path4348"
         inkscape:connector-curvature="0" />
      <path
         d="m 157.07724,135.47679 c 0,0 0.10375,1.145 -1.04125,1.97875 l -1.0425,0.52125 -1.04125,-0.4175 -0.9375,0.52125 -0.9375,-0.41625 -0.83375,0.3125 -0.835,-0.435 c 0,0 -1.24875,-0.50375 -1.04,-1.8575 0.20875,-1.35375 7.70875,-0.2075 7.70875,-0.2075"
         style="fill:#462c20;fill-opacity:1;fill-rule:nonzero;stroke:none"
         id="path4350"
         inkscape:connector-curvature="0" />
      <path
         d="m 163.41099,77.375539 c -6.61125,0.84875 -9.73625,0.825 -10.505,0.80125 l 0,-0.008 -0.10125,0.005 -0.10125,-0.005 0,0.008 c -0.76875,0.0237 -3.89375,0.0475 -10.505,-0.80125 -6.32125,-0.81 -22.20875,1.5875 -22.4075,20.0275 -0.135,12.477501 4.75625,21.522501 9.51875,27.561251 2.275,2.885 9.915,11.0875 21.215,11.0875 0.10625,0 0.40875,10e-4 0.7925,0.004 l 0,0.0125 c 0.16875,0 0.795,-0.004 1.4875,-0.006 0.6925,0.002 1.31875,0.006 1.4875,0.006 l 0,-0.0125 c 0.38375,-0.002 0.68625,-0.004 0.7925,-0.004 11.3,0 18.94,-8.2025 21.21501,-11.0875 4.7625,-6.03875 9.65375,-15.08375 9.51875,-27.561251 -0.19875,-18.44 -16.08626,-20.8375 -22.40751,-20.0275"
         style="fill:#fefbc7;fill-opacity:1;fill-rule:nonzero;stroke:none"
         id="path4352"
         inkscape:connector-curvature="0" />
      <path
         d="m 156.72724,94.580539 c -2.445,0.3125 -3.60125,0.305 -3.885,0.295 l 0,-0.002 -0.0375,0.002 -0.0375,-0.002 0,0.002 c -0.28375,0.01 -1.44,0.0175 -3.885,-0.295 -2.33625,-0.3 -8.21,0.58625 -8.28375,7.403751 -0.0487,4.6125 1.75875,7.9575 3.52,10.19 0.84125,1.06625 3.665,4.0975 7.8425,4.0975 0.0387,0 0.15125,0.001 0.29375,0.002 l 0,0.005 c 0.0625,0 0.29375,-0.001 0.55,-0.002 0.25625,10e-4 0.4875,0.002 0.55,0.002 l 0,-0.005 c 0.1425,-0.001 0.255,-0.002 0.29375,-0.002 4.1775,0 7.00125,-3.03125 7.8425,-4.0975 1.76125,-2.2325 3.56875,-5.5775 3.52,-10.19 -0.0737,-6.817501 -5.9475,-7.703751 -8.28375,-7.403751"
         style="fill:#f3eb9c;fill-opacity:1;fill-rule:nonzero;stroke:none"
         id="path4354"
         inkscape:connector-curvature="0" />
      <path
         d="m 158.06349,100.95929 c -0.0525,0.67625 0.06,1.4675 -1.01125,2.4425 0,0 -1.2675,1.07125 -1.35125,2.71625 -0.025,0.50375 0.27875,2.05875 1.92375,2.25375 0.8825,0.10375 1.9175,10e-4 2.65375,-1.5575 0.5575,-1.1775 0.475,-3.9 -1.45375,-5.96375 -0.25,-0.26875 -0.71625,-0.4675 -0.76125,0.10875"
         style="fill:#462c20;fill-opacity:1;fill-rule:nonzero;stroke:none"
         id="path4356"
         inkscape:connector-curvature="0" />
      <path
         d="m 148.03599,100.95929 c 0.0512,0.675 -0.0588,1.4675 1.0125,2.4425 0,0 1.2675,1.07125 1.35,2.71625 0.025,0.5025 -0.2775,2.05875 -1.925,2.25375 -0.8825,0.10375 -1.91625,0 -2.6525,-1.5575 -0.55625,-1.17875 -0.47625,-3.90125 1.4525,-5.96375 0.25125,-0.27 0.7175,-0.4675 0.7625,0.10875"
         style="fill:#462c20;fill-opacity:1;fill-rule:nonzero;stroke:none"
         id="path4358"
         inkscape:connector-curvature="0" />
    </g>
  </g>
  <g
     style="font-size:40px;font-style:normal;font-weight:normal;line-height:125%;letter-spacing:0px;word-spacing:0px;fill:#ffffff;fill-opacity:1;stroke:none;font-family:Sans"
     id="text3316"
     transform="translate(-3.3805369,21.814421)">
    <path
       d="m 53.992195,283.31836 10.898438,0 8.73047,-23.14453 37.558597,0 8.78906,23.14453 11.19141,0 -33.398441,-85.31251 -10.429688,0 -33.339846,85.31251 m 22.675783,-31.11328 9.902344,-27.2461 5.976563,-16.11328 5.625001,16.05469 9.960934,27.30469 -31.464842,0"
       style="font-size:120.00000763px;font-variant:normal;font-stretch:normal;letter-spacing:10px;fill:#ffffff;font-family:Topmarks;-inkscape-font-specification:Topmarks"
       id="path4219"
       inkscape:connector-curvature="0" />
    <path
       d="m 172.44924,284.60742 c 4.37496,0 8.45699,-0.99609 12.24609,-2.98828 3.82808,-2.03125 6.67964,-4.70702 8.55469,-8.02734 0.74214,3.125 2.24604,5.56641 4.51172,7.32422 2.30463,1.75781 5.44916,2.63671 9.43359,2.63671 l 1.64063,-7.91015 c -2.53913,10e-6 -4.3946,-0.70312 -5.56641,-2.10938 -1.13287,-1.4453 -1.69928,-3.61327 -1.69922,-6.5039 l 0,-40.07813 c -2.3438,-1.52338 -5.39068,-2.73432 -9.14062,-3.63281 -3.71099,-0.93744 -7.42192,-1.40619 -11.13282,-1.40625 -4.72659,6e-5 -9.10159,0.85943 -13.125,2.57812 -3.98439,1.71881 -7.40236,4.14068 -10.25391,7.26563 -2.81251,3.08598 -5.01954,6.85551 -6.62109,11.30859 -1.56251,4.45316 -2.34376,9.31644 -2.34375,14.58985 -1e-5,8.04689 2.18749,14.55079 6.5625,19.51172 4.37498,4.96093 10.01951,7.4414 16.9336,7.4414 m 1.40625,-7.96875 c -4.49222,1e-5 -8.1055,-1.79687 -10.83985,-5.39062 -2.73439,-3.59374 -4.10158,-8.3203 -4.10156,-14.17969 -2e-5,-8.16403 2.03123,-14.72652 6.09375,-19.6875 4.10154,-4.99995 9.47262,-7.49995 16.11328,-7.5 1.40621,5e-5 2.79293,0.0977 4.16016,0.29296 1.36714,0.15631 2.61714,0.39068 3.75,0.70313 1.17183,0.31255 2.14839,0.66411 2.92969,1.05469 l 0,24.84375 c -5e-5,3.75002 -0.76177,7.12893 -2.28516,10.13672 -1.48442,3.00782 -3.61332,5.39063 -6.38672,7.14844 -2.73441,1.71875 -5.87894,2.57813 -9.43359,2.57812"
       style="font-size:120.00000763px;font-variant:normal;font-stretch:normal;letter-spacing:10px;fill:#ffffff;font-family:Topmarks;-inkscape-font-specification:Topmarks"
       id="path4221"
       inkscape:connector-curvature="0" />
  </g>
</svg>
