<?xml version="1.0" encoding="UTF-8" standalone="no"?>
<!-- Created with Inkscape (http://www.inkscape.org/) -->

<svg
   xmlns:dc="http://purl.org/dc/elements/1.1/"
   xmlns:cc="http://creativecommons.org/ns#"
   xmlns:rdf="http://www.w3.org/1999/02/22-rdf-syntax-ns#"
   xmlns:svg="http://www.w3.org/2000/svg"
   xmlns="http://www.w3.org/2000/svg"
   xmlns:xlink="http://www.w3.org/1999/xlink"
   xmlns:sodipodi="http://sodipodi.sourceforge.net/DTD/sodipodi-0.dtd"
   xmlns:inkscape="http://www.inkscape.org/namespaces/inkscape"
   version="1.1"
   width="233.3421"
   height="235.8602"
   viewBox="0 0 233.34211 235.86019"
   id="svg2985"
   style="overflow:visible"
   inkscape:version="0.48.4 r"
   sodipodi:docname="banana.svg">
  <sodipodi:namedview
     pagecolor="#ffffff"
     bordercolor="#666666"
     borderopacity="1"
     objecttolerance="10"
     gridtolerance="10"
     guidetolerance="10"
     inkscape:pageopacity="0"
     inkscape:pageshadow="2"
     inkscape:window-width="1170"
     inkscape:window-height="802"
     id="namedview3582"
     showgrid="false"
     inkscape:zoom="1"
     inkscape:cx="-96.200542"
     inkscape:cy="179.73328"
     inkscape:window-x="14"
     inkscape:window-y="25"
     inkscape:window-maximized="0"
     inkscape:current-layer="svg2985" />
  <defs
     id="defs3078">
    <linearGradient
       id="linearGradient3910">
      <stop
         style="stop-color:#d1f5bc;stop-opacity:1;"
         offset="0"
         id="stop3912" />
      <stop
         style="stop-color:#9ce970;stop-opacity:0;"
         offset="1"
         id="stop3915" />
    </linearGradient>
    <linearGradient
       id="linearGradient3878">
      <stop
         style="stop-color:#6e8f5b;stop-opacity:1;"
         offset="0"
         id="stop3880" />
      <stop
         style="stop-color:#ebebeb;stop-opacity:0;"
         offset="1"
         id="stop3882" />
    </linearGradient>
    <linearGradient
       id="linearGradient4407">
      <stop
         style="stop-color:#5a932e;stop-opacity:1;"
         offset="0"
         id="stop4409" />
      <stop
         style="stop-color:#008000;stop-opacity:0;"
         offset="1"
         id="stop4411" />
    </linearGradient>
    <linearGradient
       id="linearGradient3920">
      <stop
         id="stop3922"
         style="stop-color:#f76605;stop-opacity:1"
         offset="0" />
      <stop
         id="stop3924"
         style="stop-color:#f76605;stop-opacity:0"
         offset="1" />
    </linearGradient>
    <linearGradient
       id="linearGradient3912">
      <stop
         id="stop3914"
         style="stop-color:#f76605;stop-opacity:1"
         offset="0" />
      <stop
         id="stop3916"
         style="stop-color:#f76605;stop-opacity:0"
         offset="1" />
    </linearGradient>
    <linearGradient
       x1="266.47787"
       y1="211.67976"
       x2="229.98468"
       y2="1.0003659"
       id="linearGradient3926"
       xlink:href="#linearGradient3920"
       gradientUnits="userSpaceOnUse" />
    <linearGradient
       x1="181.08247"
       y1="130.10081"
       x2="215.93491"
       y2="39.449913"
       id="linearGradient3928"
       xlink:href="#linearGradient3912"
       gradientUnits="userSpaceOnUse"
       gradientTransform="matrix(1,0,0,0.86093174,-54.558414,-74.851056)" />
    <radialGradient
       inkscape:collect="always"
       xlink:href="#linearGradient3878"
       id="radialGradient3884"
       cx="105.76555"
       cy="119.15379"
       fx="105.76555"
       fy="119.15379"
       r="80.952019"
       gradientTransform="matrix(0.97108935,-0.00560264,0.0096149,0.92993436,2.0837497,8.2171544)"
       gradientUnits="userSpaceOnUse" />
  </defs>
  <metadata
     id="metadata2987">
    <rdf:RDF>
      <cc:Work
         rdf:about="">
        <dc:title />
        <dc:description>Orange Juice Box</dc:description>
        <dc:subject>
          <rdf:Bag>
            <rdf:li>food</rdf:li>
            <rdf:li>juice</rdf:li>
            <rdf:li>menu</rdf:li>
            <rdf:li>orange</rdf:li>
            <rdf:li>beverage</rdf:li>
          </rdf:Bag>
        </dc:subject>
        <dc:publisher>
          <cc:Agent
             rdf:about="http://www.openclipart.org/">
            <dc:title>Open Clip Art Project</dc:title>
          </cc:Agent>
        </dc:publisher>
        <dc:creator>
          <cc:Agent
             rdf:about="http://web.resource.org/cc/PublicDomain">
            <dc:title>Gerald G.</dc:title>
          </cc:Agent>
        </dc:creator>
        <dc:rights>
          <cc:Agent
             rdf:about="http://web.resource.org/cc/PublicDomain">
            <dc:title>Public Domain</dc:title>
          </cc:Agent>
        </dc:rights>
        <dc:date>2005/05/30</dc:date>
        <dc:format>image/svg+xml</dc:format>
        <dc:type
           rdf:resource="http://purl.org/dc/dcmitype/StillImage" />
        <cc:license
           rdf:resource="http://web.resource.org/cc/PublicDomain" />
        <dc:language>en</dc:language>
      </cc:Work>
      <cc:License
         rdf:about="http://web.resource.org/cc/PublicDomain">
        <cc:permits
           rdf:resource="http://web.resource.org/cc/Reproduction" />
        <cc:permits
           rdf:resource="http://web.resource.org/cc/Distribution" />
        <cc:permits
           rdf:resource="http://web.resource.org/cc/DerivativeWorks" />
      </cc:License>
    </rdf:RDF>
  </metadata>
  <path
     style="opacity:0.24311930000000001;fill:#447821;fill-opacity:1;stroke:none"
     d="m 225.52744,102.38851 c 0,61.27925 -22.33913,115.84161 -118.8752,117.66201 -65.341483,1.23215 -97.7665121,-56.38276 -97.7665121,-117.66201 0,-46.279235 34.2649471,-82.324239 108.4324221,-86.71468 77.06023,-4.561683 108.20929,25.435445 108.20929,86.71468 z"
     id="path3929"
     inkscape:connector-curvature="0"
     sodipodi:nodetypes="sssss" />
  <g
     transform="matrix(0.9891739,0,0,0.69215682,12.877209,155.3252)"
     id="g2990">
    <path
       sodipodi:type="arc"
       style="fill:url(#radialGradient3884);fill-opacity:1;stroke:none"
       id="path3108"
       sodipodi:cx="106.93661"
       sodipodi:cy="116.43098"
       sodipodi:rx="80.952019"
       sodipodi:ry="79.452911"
       d="m 187.88863,116.43098 c 0,43.88063 -36.24346,79.45291 -80.95202,79.45291 -44.708568,0 -80.952021,-35.57228 -80.952021,-79.45291 0,-43.880634 36.243453,-79.452915 80.952021,-79.452915 44.70856,0 80.95202,35.572281 80.95202,79.452915 z"
       transform="matrix(1.2285681,0,0,0.29661719,-52.680414,15.522897)" />
  </g>
  <g
     inkscape:groupmode="layer"
     id="layer1"
     inkscape:label="Layer" />
  <g
     id="g14135"
     transform="matrix(1.2757119,0,0,1.2757119,-75.356787,-142.07079)">
    <path
       d="m 230.25332,249.76786 c 0,0 2.8175,7.09525 -2.47125,7.89013 0,0 -3.76625,1.1265 -4.99,-3.70513 0,0 5.86875,2.0225 7.46125,-4.185"
       style="fill:#6a4225;fill-opacity:1;fill-rule:nonzero;stroke:none"
       id="path6204"
       inkscape:connector-curvature="0" />
    <path
       d="m 223.68832,181.24923 0.14625,-1.34613 c -9.435,-5.9815 -16.97751,-0.63375 -20.82876,9.835 -3.8525,10.46776 6.3325,5.08488 8.98001,14.65376 2.64875,9.56737 15.94625,33.8935 15.94625,33.8935 0,0 -2.11875,-34.48238 0.1975,-44.07363 2.31625,-9.59375 -4.44125,-12.9625 -4.44125,-12.9625"
       style="fill:#c6a31b;fill-opacity:1;fill-rule:nonzero;stroke:none"
       id="path6206"
       inkscape:connector-curvature="0" />
    <path
       d="m 210.88207,182.02423 c 0,0 6.385,-6.51125 12.80625,-0.775 6.4225,5.73487 -3.34375,-9.80513 -15.45501,-8.79238 -12.1125,1.01113 -1.945,9.8725 2.64876,9.56738"
       style="fill:#f3f0bb;fill-opacity:1;fill-rule:nonzero;stroke:none"
       id="path6208"
       inkscape:connector-curvature="0" />
    <path
       d="m 190.53831,137.87435 c -5.42375,1.21125 -10.47125,2.96 -15.78875,3.675 -0.0262,8.24875 -0.6925,20.49238 -3.70875,32.72488 l 3.075,2.89637 14.6825,15.19388 c 5.31125,-4.709 22.17751,-5.79288 22.17751,-5.79288 3.09625,-15.07475 4.06875,-33.216 -1.03125,-53.1635 -6.26126,2.44125 -12.82126,2.9925 -19.40626,4.46625"
       style="fill:#fefce1;fill-opacity:1;fill-rule:nonzero;stroke:none"
       id="path6210"
       inkscape:connector-curvature="0" />
    <path
       d="m 184.70581,168.7541 c 1.63,-7.71962 3.21125,-18.376 2.3975,-30.03725 -3.68,0.955 -7.2525,1.99625 -10.92375,2.6175 0.11,11.33375 -0.97875,24.02775 -5.085,36.75138 -5.815,18.01463 11.04625,14.041 17.70375,14.27875 6.655,0.23875 17.0425,-3.68013 17.0425,-3.68013 0,0 -11.0975,-2.88237 -18.1375,-5.44237 -3.26,-1.1865 -4.08375,-9.33738 -2.9975,-14.48788"
       style="fill:#e9e6b6;fill-opacity:1;fill-rule:nonzero;stroke:none"
       id="path6212"
       inkscape:connector-curvature="0" />
    <path
       d="m 62.988312,237.44949 c 0,0 0.9375,9.08987 8.933751,7.17625 7.995,-1.91163 21.9275,3.14112 29.926247,5.05375 3.745,0.895 6.82375,4.32612 16.67625,6.3525 11.175,2.30475 25.50126,-0.20013 40.00126,-5.40525 18.86499,-6.76863 42.65499,-26.97751 51.17874,-58.67976 2.93126,-10.91163 -11.34375,1.59475 -21.9175,-2.09275 -9.1425,-3.19088 -14.37375,-24.19238 -17.11375,-14.165 -1.45375,5.31887 -3.635,10.269 -6.82,14.355 0,0 -11.07624,19.31488 -37.21125,25.72263 0,0 -17.7325,4.80612 -27.242497,14.85987 0,0 -2.2275,8.60113 -20.08,1.73237 -9.965001,-3.83837 -16.928751,-5.26612 -16.331251,5.09039"
       style="fill:#f0ca21;fill-opacity:1;fill-rule:nonzero;stroke:none"
       id="path6214"
       inkscape:connector-curvature="0" />
    <path
       d="m 171.20456,183.67798 c -3.73625,9.6475 -11.84874,21.80275 -32.76999,32.34763 -3.41001,1.71637 -7.85126,2.78612 -12.49626,3.94387 -2.70375,0.67238 -10.21125,3.24613 -13.0925,5.03375 -3.5425,2.19475 -8.71,5.7275 -14.142497,10.57226 0,0 -3.775,4.40275 -15.00375,0.68987 -11.225,-3.72363 -19.975001,-4.05363 -17.205001,0.7725 0,0 11.10875,1.65525 18.248751,2.90675 7.13625,1.25338 15.333747,0.69725 23.617497,1.17088 8.28625,0.47262 39.94501,-8.11226 61.2125,-27.47213 0,0 8.2225,-6.50788 14.48125,-21.5415 -4.2725,-1.39651 -8.62375,-4.04101 -12.85,-8.42388"
       style="fill:#f7f238;fill-opacity:1;fill-rule:nonzero;stroke:none"
       id="path6216"
       inkscape:connector-curvature="0" />
    <path
       d="m 187.20956,195.23311 c 0,0 -14.64,-5.26363 -24.69749,3.41362 -10.06125,8.67775 -16.29125,11.5215 -24.00125,13.25 0,0 20.3925,-9.3975 31.01749,-31.36138 0,0 17.655,0.129 17.68125,14.69776"
       style="fill:#c6a31b;fill-opacity:1;fill-rule:nonzero;stroke:none"
       id="path6218"
       inkscape:connector-curvature="0" />
    <path
       d="m 187.07081,194.25811 c 3.9825,2.42862 3.46125,6.32225 2.88625,8.8735 -1.23125,5.46625 -3.6075,7.45262 -3.6075,7.45262 -28.76624,41.06738 -70.745,34.68651 -70.745,34.68651 -14.55,-3.53413 -32.353747,-2.3325 -32.353747,-2.3325 12.94125,1.541 21.249997,3.98237 21.249997,3.98237 11.78125,8.36138 26.055,5.85013 26.055,5.85013 35.8025,-2.82275 53.21875,-24.81001 64.375,-38.27538 4.4625,-5.38325 7.37625,-3.46725 7.37625,-3.46725 3.7425,-6.479 5.98125,-14.46388 6.62,-16.811 -4.77875,0.7035 -11.805,-6.31551 -21.85625,0.041"
       style="fill:#c6a31b;fill-opacity:1;fill-rule:nonzero;stroke:none"
       id="path6220"
       inkscape:connector-curvature="0" />
    <path
       d="m 187.20956,195.23311 c 0,0 -14.23125,-18.48388 -30.78874,-8.91013 -14.56,8.419 -24.23876,21.46775 -38.21251,26.82138 0,0 -16.925,4.166 -9.5975,-5.47025 6.0075,-7.90625 35.42501,-27.67001 41.85751,-33.85751 6.4325,-6.186 41.89124,10.76913 36.74124,21.41651"
       style="fill:#f0ca21;fill-opacity:1;fill-rule:nonzero;stroke:none"
       id="path6222"
       inkscape:connector-curvature="0" />
    <path
       d="m 187.20956,195.23311 c 0,0 -7.60625,-21.47013 -30.75499,-11.64501 0,0 -6.2,3.15 -10.405,6.77738 -8.335,7.19138 -19.08626,17.94388 -29.94126,21.57275 0,0 -11.71375,2.33013 -9.17375,-2.73537 0,0 2.1125,-5.52875 6.5125,-11.58 19.995,-27.49613 29.70751,-46.18351 59.47625,-32.08351 0,0 -1.53875,8.65625 8.97,15.19725 11.42625,7.10888 5.31625,14.49651 5.31625,14.49651"
       style="fill:#f3f0bb;fill-opacity:1;fill-rule:nonzero;stroke:none"
       id="path6224"
       inkscape:connector-curvature="0" />
    <path
       d="m 187.20956,195.23311 c 0,0 14.5,-4.354 19.3075,7.92875 3.07,7.85112 3.30001,9.4785 3.70626,22.00487 0.3875,11.91513 1.655,18.46151 4.67875,21.87263 0,0 3.58875,6.791 11.0075,7.75238 1.52375,0.19875 6.0275,0.49025 4.02125,-6.84763 -3.49125,-12.75487 -10.5975,-37.17725 -10.5825,-40.59475 0.0238,-4.64013 -4.67,-33.79638 -32.13876,-12.11625"
       style="fill:#f0ca21;fill-opacity:1;fill-rule:nonzero;stroke:none"
       id="path6226"
       inkscape:connector-curvature="0" />
    <path
       d="m 187.20956,195.23311 c 0,0 6.51625,-5.53363 14.3875,-1.32513 7.86625,4.21 11.16251,13.689 11.26001,33.54638 0,0 -0.76,13.68263 8.16375,22.58988 3.0775,3.06637 9.70625,6.54875 9.35625,1.14887 -0.8675,-13.4575 8.07625,-20.65238 6.47875,-36.99263 0,0 2.63625,-28.84238 -24.14625,-35.73975 0,0 -0.965,7.41837 -17.30126,9.01462 0,0 -7.23875,0.33788 -8.19875,7.75776"
       style="fill:#f3f0bb;fill-opacity:1;fill-rule:nonzero;stroke:none"
       id="path6228"
       inkscape:connector-curvature="0" />
    <path
       d="m 226.00957,249.71799 0.73125,-5.68113 1.28625,5.20513 2.17125,2.63475 c 0.57625,1.5625 -0.76125,2.73487 -2.0825,3.02387 -1.63375,0.355 -3.40875,-0.39887 -3.40875,-0.39887 0,0 1.36125,-1.44875 1.3025,-4.78375"
       style="fill:#b6c13a;fill-opacity:1;fill-rule:nonzero;stroke:none"
       id="path6230"
       inkscape:connector-curvature="0" />
    <path
       d="m 126.22081,205.02811 c 0,0 4.80375,-3.80375 13.86251,-11.1075 3.215,-2.59125 6.69625,-6.28751 10.58875,-9.03613 12.58249,-8.88913 26.82624,-7.1865 32.91249,0.91362 0,0 -10.50625,-16.43012 -32.06999,-3.51362 0,0 -5.43125,3.71237 -11.42,9.02725 -5.02501,4.459 -9.01001,8.96488 -13.87376,13.71638"
       style="fill:#fefce1;fill-opacity:1;fill-rule:nonzero;stroke:none"
       id="path6232"
       inkscape:connector-curvature="0" />
    <path
       d="m 191.93831,191.72198 c 0,0 1.97,-0.7515 4.49375,-0.45762 5.1225,0.60012 13.2475,3.3575 15.46751,14.58887 0.82875,4.19238 2.0075,10.02988 1.47875,18.796 0,0 3.98875,-16.98487 0.91375,-24.83987 -3.07,-7.855 -13.65751,-12.26763 -22.35376,-8.08738"
       style="fill:#fefce1;fill-opacity:1;fill-rule:nonzero;stroke:none"
       id="path6234"
       inkscape:connector-curvature="0" />
    <path
       d="m 210.26332,134.42185 c 0,0 -1.51126,5.84 -8.42376,6.1325 0,0 -0.6625,2.40875 -4.5625,2.9475 0,0 -3.57375,0.495 -6.395,-0.7725 0,0 -2.37875,1.98375 -5.0675,1.695 0,0 -3.9425,0.2125 -5.05625,-0.62625 0,0 -4.4125,1.60625 -6.355,-0.445 0,0 -2.62125,-4.60625 7.03625,-6.605 0,0 6.23375,-2.845 9.38375,-1.62625 0,0 2.8325,-1.0525 6.68875,-1.91875 3.855,-0.86375 13.51126,-2.85875 12.75126,1.21875"
       style="fill:#f3f0bb;fill-opacity:1;fill-rule:nonzero;stroke:none"
       id="path6236"
       inkscape:connector-curvature="0" />
    <path
       d="m 199.94081,134.60685 c 0,0 -4.53125,1.3725 -8.15125,2.1225 -3.62375,0.7475 -8.53,1.17875 -7.145,2.22875 1.38625,1.0475 -0.67125,2.32625 2.35625,2.655 3.02375,0.32375 8.87375,-0.48125 11.14375,-2.03875 2.26875,-1.55375 4.29,-3.0775 4.29,-3.0775 0,0 2.9425,-3.885 -2.49375,-1.89"
       style="fill:#e9e6b6;fill-opacity:1;fill-rule:nonzero;stroke:none"
       id="path6238"
       inkscape:connector-curvature="0" />
    <path
       d="m 198.60581,137.5231 c 0,0 2.0075,1.96 -2.05875,1.27875 -4.07,-0.67875 -1.69875,-1.50375 2.05875,-1.27875"
       style="fill:#d9be94;fill-opacity:1;fill-rule:nonzero;stroke:none"
       id="path6240"
       inkscape:connector-curvature="0" />
    <path
       d="m 204.18581,134.7681 c 0,0 -0.8075,1.35125 -4.355,0.84875 -3.54625,-0.50375 3.2425,-1.6925 4.355,-0.84875"
       style="fill:#d9be94;fill-opacity:1;fill-rule:nonzero;stroke:none"
       id="path6242"
       inkscape:connector-curvature="0" />
    <path
       d="m 188.16581,137.47685 c 0,0 -4.14,0.5725 -2.545,1.345 1.5975,0.7725 4.63125,-0.64 2.545,-1.345"
       style="fill:#d9be94;fill-opacity:1;fill-rule:nonzero;stroke:none"
       id="path6244"
       inkscape:connector-curvature="0" />
    <path
       d="m 191.84831,138.9556 c 0,0 -0.25125,1.7725 0.96875,1.60375 1.2175,-0.1675 1.3675,-2.67375 -0.96875,-1.60375"
       style="fill:#d9be94;fill-opacity:1;fill-rule:nonzero;stroke:none"
       id="path6246"
       inkscape:connector-curvature="0" />
  </g>
</svg>
