<?xml version="1.0" encoding="UTF-8" standalone="no"?>
<!-- Created with Inkscape (http://www.inkscape.org/) -->

<svg
   xmlns:dc="http://purl.org/dc/elements/1.1/"
   xmlns:cc="http://creativecommons.org/ns#"
   xmlns:rdf="http://www.w3.org/1999/02/22-rdf-syntax-ns#"
   xmlns:svg="http://www.w3.org/2000/svg"
   xmlns="http://www.w3.org/2000/svg"
   xmlns:sodipodi="http://sodipodi.sourceforge.net/DTD/sodipodi-0.dtd"
   xmlns:inkscape="http://www.inkscape.org/namespaces/inkscape"
   version="1.1"
   width="387.73434"
   height="193.30293"
   id="svg2"
   inkscape:version="0.48.4 r"
   sodipodi:docname="c_f.svg">
  <sodipodi:namedview
     pagecolor="#ffffff"
     bordercolor="#666666"
     borderopacity="1"
     objecttolerance="10"
     gridtolerance="10"
     guidetolerance="10"
     inkscape:pageopacity="0"
     inkscape:pageshadow="2"
     inkscape:window-width="1481"
     inkscape:window-height="867"
     id="namedview3038"
     showgrid="false"
     inkscape:zoom="2.3529412"
     inkscape:cx="273.72336"
     inkscape:cy="85.208015"
     inkscape:window-x="0"
     inkscape:window-y="22"
     inkscape:window-maximized="0"
     inkscape:current-layer="svg2"
     fit-margin-top="2"
     fit-margin-left="2"
     fit-margin-bottom="2"
     fit-margin-right="2" />
  <defs
     id="defs4" />
  <metadata
     id="metadata7">
    <rdf:RDF>
      <cc:Work
         rdf:about="">
        <dc:format>image/svg+xml</dc:format>
        <dc:type
           rdf:resource="http://purl.org/dc/dcmitype/StillImage" />
        <dc:title></dc:title>
      </cc:Work>
    </rdf:RDF>
  </metadata>
  <path
     inkscape:connector-curvature="0"
     style="font-size:132.56304932px;font-style:normal;font-weight:bold;line-height:125%;letter-spacing:0px;word-spacing:0px;opacity:0.5;fill:#808080;fill-opacity:1;stroke:none;font-family:Muli;-inkscape-font-specification:Muli Bold"
     id="path4131"
     d="m 85.49303,152.62278 c -8.26249,0 -15.79194,-1.4326 -22.58842,-4.2978 -6.79655,-2.86519 -12.42698,-6.76318 -16.89134,-11.694 -4.39775,-4.93079 -7.79602,-10.59455 -10.19477,-16.99129 -2.39878,-6.46331 -3.59817,-13.29314 -3.59815,-20.4895 -2e-5,-10.261335 2.09891,-19.456619 6.29677,-27.585849 4.26447,-8.129075 10.46128,-14.559109 18.59048,-19.290118 8.12912,-4.730793 17.5576,-7.096251 28.28548,-7.096359 15.65856,1.08e-4 27.78566,4.497798 36.38136,13.493086 l -8.3957,15.292156 c -7.32966,-6.463264 -15.89193,-9.694935 -25.68683,-9.695027 -9.79504,9.2e-5 -17.42445,3.131811 -22.88826,9.395187 -5.39727,6.196886 -8.09589,14.692523 -8.09586,25.486924 -3e-5,10.39471 2.79854,18.72376 8.3957,24.98719 5.66371,6.26348 13.35977,9.3952 23.08816,9.39518 4.06452,2e-5 8.02914,-0.63298 11.89391,-1.89902 3.86459,-1.33263 6.62984,-2.53202 8.29575,-3.59815 1.66571,-1.0661 3.63136,-2.43207 5.89696,-4.0979 l 7.19631,17.29113 c -10.72791,7.5961 -22.72175,11.39416 -35.98155,11.39416" />
  <path
     inkscape:connector-curvature="0"
     style="font-size:132.56304932px;font-style:normal;font-weight:bold;line-height:125%;letter-spacing:0px;word-spacing:0px;opacity:0.5;fill:#808080;fill-opacity:1;stroke:none;font-family:Muli;-inkscape-font-specification:Muli Bold"
     id="path4137"
     d="m 189.90509,150.32395 0,-86.755518 -18.89033,0 0,-15.7919 18.89033,0 0,-4.697593 c -3e-5,-4.53089 0.0999,-8.295626 0.29984,-11.29421 0.19987,-3.064966 0.63299,-6.163378 1.29933,-9.295236 0.66631,-3.131595 1.59915,-5.663619 2.79857,-7.596102 1.26599,-1.998834 2.9318,-3.897856 4.99743,-5.69708 2.06557,-1.798931 4.59761,-3.164887 7.59611,-4.097899 3.06505,-0.932703 6.66321,-1.665657 10.79446,-2.198862 C 221.88864,2.299994 226.78612,2.000154 232.38331,2 l 5.19733,0 -0.79959,18.290632 c -3.79812,1.23e-4 -6.86321,0.10006 -9.19529,0.29984 -2.3322,0.133413 -4.46443,0.533189 -6.39671,1.19939 -1.86578,0.666448 -3.26505,1.432724 -4.19785,2.298813 -0.9329,0.799722 -1.69918,2.132371 -2.29883,3.997963 -0.59974,1.865822 -0.96621,3.831474 -1.09944,5.896968 -0.13326,2.065727 -0.19993,4.897606 -0.19989,8.495637 l 0,5.297289 23.38801,0 0,15.7919 -23.38801,0 0,86.755518 -23.48795,0" />
  <path
     inkscape:connector-curvature="0"
     style="font-size:132.56304932px;font-style:normal;font-weight:bold;line-height:125%;letter-spacing:0px;word-spacing:0px;opacity:0.5;fill:#808080;fill-opacity:1;stroke:none;font-family:Topmarks;-inkscape-font-specification:Topmarks Bold"
     id="path4118"
     d="m 84.42746,152.52283 c 11.84441,0 24.31778,-2.69862 36.26701,-10.29472 l -8.2806,-15.49206 c -8.59509,5.29728 -17.3998,7.19631 -25.26114,7.19631 -16.8757,0 -30.08278,-12.39367 -30.08278,-35.58175 0,-20.28959 12.05408,-34.182483 30.18759,-34.182483 6.81317,0 14.56971,2.098925 22.85032,6.396728 l 7.44208,-16.191707 c -10.16733,-6.29676 -21.27807,-8.795493 -31.86466,-8.795493 -28.61531,0 -54.6102,20.48954 -54.6102,52.872892 0,33.083013 24.42262,54.072283 53.35238,54.072283" />
  <path
     inkscape:connector-curvature="0"
     style="font-size:132.56304932px;font-style:normal;font-weight:bold;line-height:125%;letter-spacing:0px;word-spacing:0px;opacity:0.5;fill:#808080;fill-opacity:1;stroke:none;font-family:Topmarks;-inkscape-font-specification:Topmarks Bold"
     id="path4124"
     d="m 173.43041,191.30294 c 26.88617,0 39.9795,-13.69301 39.9795,-39.87955 l 0,-87.255263 22.98821,0 0,-16.391595 -22.98821,0 0,-5.497177 c 0,-16.791371 6.09688,-20.089701 27.98564,-20.089701 l 0,-18.79036 -5.09739,0 c -27.28598,0 -47.07585,6.396743 -47.07585,35.381858 l 0,8.99538 -18.59048,0 0,16.391595 18.59048,0 0,88.054843 c 0,13.59303 -4.8975,19.39007 -17.89083,19.39007 l 2.09893,19.6899" />
  <path
     style="opacity:0.2;fill:none;stroke:#000000;stroke-width:1px;stroke-linecap:butt;stroke-linejoin:miter;stroke-opacity:1"
     d="m 2.5,47.565064 c 278.08301,0 382.73434,0 382.73434,0"
     id="path3052"
     inkscape:connector-curvature="0"
     sodipodi:nodetypes="cc" />
  <path
     inkscape:connector-curvature="0"
     id="path3054"
     d="m 2.5,150.6223 c 278.08301,0 382.73434,0 382.73434,0"
     style="opacity:0.2;fill:none;stroke:#000000;stroke-width:1px;stroke-linecap:butt;stroke-linejoin:miter;stroke-opacity:1"
     sodipodi:nodetypes="cc" />
  <path
     inkscape:connector-curvature="0"
     style="font-size:132.56304932px;font-style:normal;font-weight:bold;line-height:125%;letter-spacing:0px;word-spacing:0px;opacity:0.5;fill:#666666;fill-opacity:1;stroke:none;font-family:Muli;-inkscape-font-specification:Muli Bold"
     id="path4135"
     d="m 298.69924,87.335936 49.71862,0 c -0.9562,-7.330229 -3.474,-12.93951 -7.55341,-16.827829 -4.07954,-3.888171 -9.17888,-5.8323 -15.29804,-5.832374 -7.01165,7.4e-5 -12.87589,2.007942 -17.59274,6.023591 -4.71694,4.01581 -7.8084,9.561338 -9.27443,16.636612 m 28.68381,62.626334 c -16.31795,0 -29.19378,-4.68503 -38.62754,-14.05508 -9.43379,-9.43376 -14.15069,-21.79966 -14.15068,-37.097722 -10e-6,-9.369989 1.94411,-17.911388 5.83237,-25.624213 3.88823,-7.776415 9.65687,-14.054976 17.30591,-18.835697 7.71272,-4.780543 16.60469,-7.17086 26.67594,-7.170963 7.58523,1.03e-4 14.21436,1.338677 19.88745,4.015737 5.73667,2.613513 10.29421,6.278664 13.67262,10.995469 3.44196,4.653229 5.99163,10.00754 7.64903,16.062933 1.65718,5.991788 2.48581,12.620935 2.48593,19.88744 -10e-5,1.593603 -0.15947,3.027796 -0.47808,4.302586 l -69.31921,0 c 0.38242,9.81626 3.34641,17.14656 8.892,21.99091 5.54547,4.84439 12.90765,7.26658 22.08654,7.26657 10.89976,1e-5 21.19405,-3.53766 30.88289,-10.61301 l 6.21484,16.44538 c -11.47364,8.28645 -24.47695,12.42966 -39.01001,12.42966" />
  <path
     inkscape:connector-curvature="0"
     style="font-size:132.56304932px;font-style:normal;font-weight:bold;line-height:125%;letter-spacing:0px;word-spacing:0px;opacity:0.5;fill:#666666;fill-opacity:1;stroke:none;font-family:Topmarks;-inkscape-font-specification:Topmarks Bold"
     id="path4122"
     d="m 322.82161,149.86665 c 12.68696,0 28.09259,-3.7289 39.26922,-13.00333 l -8.86074,-15.20243 c -11.07593,8.70076 -20.84293,10.42179 -29.20021,10.42179 -10.77384,0 -21.74911,-8.70076 -24.26637,-18.64448 42.89403,-6.31043 59.40728,-19.791841 59.40728,-37.384565 0,-14.05505 -12.38491,-28.492592 -35.04023,-28.492592 -28.49532,0 -50.74792,22.182184 -50.74792,51.057194 0,32.603903 23.56156,51.248413 49.43897,51.248413 m -25.27329,-52.108924 0,-1.43419 c 0,-14.533113 10.06906,-31.456587 25.47465,-31.456587 7.85385,0 12.5863,4.206968 12.5863,10.42179 0,10.899839 -8.6594,16.349781 -38.06094,22.468987" />
</svg>
