<?xml version="1.0" encoding="UTF-8" standalone="no"?>
<!-- Created with Inkscape (http://www.inkscape.org/) -->

<svg
   xmlns:dc="http://purl.org/dc/elements/1.1/"
   xmlns:cc="http://creativecommons.org/ns#"
   xmlns:rdf="http://www.w3.org/1999/02/22-rdf-syntax-ns#"
   xmlns:svg="http://www.w3.org/2000/svg"
   xmlns="http://www.w3.org/2000/svg"
   xmlns:sodipodi="http://sodipodi.sourceforge.net/DTD/sodipodi-0.dtd"
   xmlns:inkscape="http://www.inkscape.org/namespaces/inkscape"
   version="1.1"
   width="421.51044"
   height="194.07822"
   id="svg2"
   inkscape:version="0.48.4 r"
   sodipodi:docname="c_f.svg">
  <sodipodi:namedview
     pagecolor="#ffffff"
     bordercolor="#666666"
     borderopacity="1"
     objecttolerance="10"
     gridtolerance="10"
     guidetolerance="10"
     inkscape:pageopacity="0"
     inkscape:pageshadow="2"
     inkscape:window-width="1481"
     inkscape:window-height="867"
     id="namedview3038"
     showgrid="false"
     inkscape:zoom="1"
     inkscape:cx="295.54052"
     inkscape:cy="53.498991"
     inkscape:window-x="0"
     inkscape:window-y="22"
     inkscape:window-maximized="0"
     inkscape:current-layer="svg2"
     fit-margin-top="2"
     fit-margin-left="2"
     fit-margin-bottom="2"
     fit-margin-right="2" />
  <defs
     id="defs4" />
  <metadata
     id="metadata7">
    <rdf:RDF>
      <cc:Work
         rdf:about="">
        <dc:format>image/svg+xml</dc:format>
        <dc:type
           rdf:resource="http://purl.org/dc/dcmitype/StillImage" />
        <dc:title></dc:title>
      </cc:Work>
    </rdf:RDF>
  </metadata>
  <path
     inkscape:connector-curvature="0"
     id="path5818"
     style="font-size:206.45248413px;font-style:normal;font-weight:bold;line-height:125%;letter-spacing:0px;word-spacing:0px;opacity:0.5;fill:#374837;fill-opacity:1;stroke:none;font-family:Topmarks;-inkscape-font-specification:Topmarks"
     d="m 308.86596,151.85628 0,-88.00441 23.18558,0 0,-16.53233 -23.18558,0 0,-5.54438 c 0,-16.93553 6.14924,-20.26218 28.22592,-20.26218 l 0,-18.95169 -5.14115,0 c -27.52025,0 -47.48004,6.45167 -47.48004,35.68563 l 0,9.07262 -18.75006,0 0,16.53233 18.75006,0 0,87.98923"
     sodipodi:nodetypes="cccccsccssccccc" />
  <path
     inkscape:connector-curvature="0"
     id="path5808"
     style="font-size:206.45248413px;font-style:normal;font-weight:bold;line-height:125%;letter-spacing:0px;word-spacing:0px;fill:#374837;fill-opacity:1;stroke:none;font-family:muli;-inkscape-font-specification:muli"
     d="m 371.42557,151.59741 0,-87.50038 -19.0525,0 0,-15.92748 19.0525,0 0,-4.73793 c -3e-5,-4.56979 0.10078,-8.36685 0.30242,-11.39117 0.20158,-3.09129 0.63841,-6.2163 1.31049,-9.37504 0.67201,-3.15849 1.61288,-5.71226 2.82259,-7.66132 1.27685,-2.016 2.95697,-3.93133 5.04034,-5.746 2.08331,-1.81438 4.63708,-3.19207 7.66132,-4.13308 C 391.6541,4.1843 395.28314,3.44505 399.44988,2.90726 403.68371,2.30257 408.62324,2.00015 414.26849,2 l 5.24196,0 -0.80646,18.44766 c -3.83073,1.3e-4 -6.92214,0.10093 -9.27423,0.30242 -2.35222,0.13454 -4.50277,0.53776 -6.45164,1.20968 -1.88179,0.67217 -3.29308,1.44503 -4.23389,2.31856 -0.94092,0.80658 -1.71377,2.15067 -2.31856,4.03227 -0.60489,1.88185 -0.97452,3.86439 -1.10887,5.94761 -0.13446,2.08346 -0.20167,4.93965 -0.20162,8.56858 l 0,5.34277 23.58881,0 0,15.92748 -23.58881,0 0,87.50038 -23.68961,0" />
  <path
     d="m 4.82259,192.07822 c 27.11702,0 40.32275,-13.81057 40.32275,-40.22194 l 0,-88.00441 23.18558,0 0,-16.53233 -23.18558,0 0,-5.54438 c 0,-16.93553 6.14924,-20.26218 28.22592,-20.26218 l 0,-18.95169 -5.14115,0 c -27.52025,0 -47.48004,6.45167 -47.48004,35.68563 l 0,9.07262 -18.75007,0 0,16.53233 18.75007,0 0,88.81086 c 0,13.70972 -4.93955,19.55654 -18.04443,19.55654 l 2.11695,19.85895"
     style="font-size:206.45248413px;font-style:normal;font-weight:bold;line-height:125%;letter-spacing:0px;word-spacing:0px;fill:#374837;fill-opacity:1;stroke:none;font-family:Topmarks;-inkscape-font-specification:Topmarks"
     id="path5856"
     inkscape:connector-curvature="0" />
  <path
     d="m 285.02397,151.59741 0,-87.50038 -19.05249,0 0,-15.92748 19.05249,0 0,-4.73793 c -3e-5,-4.56979 0.10078,-8.36685 0.30242,-11.39117 0.20158,-3.09129 0.63841,-6.2163 1.31049,-9.37504 0.67201,-3.15849 1.61288,-5.71226 2.82259,-7.66132 1.27685,-2.016 2.95697,-3.93133 5.04034,-5.746 2.08331,-1.81438 4.63708,-3.19207 7.66132,-4.13308 C 305.2525,4.1843 308.88154,3.44505 313.04828,2.90726 317.28211,2.30257 322.22164,2.00015 327.86689,2 l 5.24196,0 -0.80646,18.44766 c -3.83073,1.3e-4 -6.92214,0.10093 -9.27423,0.30242 -2.35222,0.13454 -4.50277,0.53776 -6.45164,1.20968 -1.88179,0.67217 -3.29308,1.44503 -4.23389,2.31856 -0.94092,0.80658 -1.71377,2.15067 -2.31856,4.03227 -0.60489,1.88185 -0.97452,3.86439 -1.10887,5.94761 -0.13446,2.08346 -0.20167,4.93965 -0.20162,8.56858 l 0,5.34277 23.58881,0 0,15.92748 -23.58881,0 0,87.50038 -23.68961,0"
     style="font-size:206.45248413px;font-style:normal;font-weight:bold;line-height:125%;letter-spacing:0px;word-spacing:0px;opacity:0.5;fill:#374837;fill-opacity:1;stroke:none;font-family:muli;-inkscape-font-specification:muli"
     id="path5858"
     inkscape:connector-curvature="0" />
  <path
     d="m 181.54323,192.07822 c 27.117,0 40.32273,-13.81057 40.32273,-40.22194 l 0,-88.00441 23.18558,0 0,-16.53233 -23.18558,0 0,-5.54438 c 0,-16.93553 6.14924,-20.26218 28.22592,-20.26218 l 0,-18.95169 -5.14115,0 c -27.52025,0 -47.48004,6.45167 -47.48004,35.68563 l 0,9.07262 -18.75005,0 0,16.53233 18.75005,0 0,88.81086 c 0,13.70972 -4.93955,19.55654 -18.04441,19.55654 l 2.11695,19.85895"
     style="font-size:206.45248413px;font-style:normal;font-weight:bold;line-height:125%;letter-spacing:0px;word-spacing:0px;opacity:0.5;fill:#374837;fill-opacity:1;stroke:none;font-family:Topmarks;-inkscape-font-specification:Topmarks"
     id="path5930"
     inkscape:connector-curvature="0" />
  <path
     inkscape:connector-curvature="0"
     id="path5932"
     style="font-size:206.45248413px;font-style:normal;font-weight:bold;line-height:125%;letter-spacing:0px;word-spacing:0px;opacity:0.5;fill:#374837;fill-opacity:1;stroke:none;font-family:muli;-inkscape-font-specification:muli"
     d="m 198.02397,151.59741 0,-87.50038 -19.05248,0 0,-15.92748 19.05248,0 0,-4.73793 c -3e-5,-4.56979 0.10078,-8.36685 0.30242,-11.39117 0.20158,-3.09129 0.63841,-6.2163 1.31049,-9.37504 0.67201,-3.15849 1.61288,-5.71226 2.82259,-7.66132 1.27685,-2.016 2.95697,-3.93133 5.04034,-5.746 2.08331,-1.81438 4.63708,-3.19207 7.66132,-4.13308 C 218.2525,4.1843 221.88154,3.44505 226.04828,2.90726 230.28211,2.30257 235.22164,2.00015 240.86689,2 l 5.24196,0 -0.80646,18.44766 c -3.83073,1.3e-4 -6.92214,0.10093 -9.27423,0.30242 -2.35222,0.13454 -4.50277,0.53776 -6.45164,1.20968 -1.88179,0.67217 -3.29308,1.44503 -4.23389,2.31856 -0.94092,0.80658 -1.71377,2.15067 -2.31856,4.03227 -0.60489,1.88185 -0.97452,3.86439 -1.10887,5.94761 -0.13446,2.08346 -0.20167,4.93965 -0.20162,8.56858 l 0,5.34277 23.58881,0 0,15.92748 -23.58881,0 0,87.50038 -23.68961,0" />
  <path
     sodipodi:nodetypes="cccccsccssccccc"
     d="m 133.86596,151.85628 0,-88.00441 23.18558,0 0,-16.53233 -23.18558,0 0,-5.54438 c 0,-16.93553 6.14924,-20.26218 28.22592,-20.26218 l 0,-18.95169 -5.14115,0 c -27.52025,0 -47.48004,6.45167 -47.48004,35.68563 l 0,9.07262 -18.75006,0 0,16.53233 18.75006,0 0,87.98923"
     style="font-size:206.45248413px;font-style:normal;font-weight:bold;line-height:125%;letter-spacing:0px;word-spacing:0px;fill:#374837;fill-opacity:1;stroke:none;font-family:Topmarks;-inkscape-font-specification:Topmarks"
     id="path5934"
     inkscape:connector-curvature="0" />
</svg>
