<?xml version="1.0" encoding="UTF-8" standalone="no"?>
<!-- Created with Inkscape (http://www.inkscape.org/) -->

<svg
   xmlns:dc="http://purl.org/dc/elements/1.1/"
   xmlns:cc="http://creativecommons.org/ns#"
   xmlns:rdf="http://www.w3.org/1999/02/22-rdf-syntax-ns#"
   xmlns:svg="http://www.w3.org/2000/svg"
   xmlns="http://www.w3.org/2000/svg"
   xmlns:xlink="http://www.w3.org/1999/xlink"
   xmlns:sodipodi="http://sodipodi.sourceforge.net/DTD/sodipodi-0.dtd"
   xmlns:inkscape="http://www.inkscape.org/namespaces/inkscape"
   version="1.1"
   width="233.3421"
   height="235.8602"
   viewBox="0 0 233.34211 235.86019"
   id="svg2985"
   style="overflow:visible"
   inkscape:version="0.48.4 r"
   sodipodi:docname="coconut.svg">
  <sodipodi:namedview
     pagecolor="#ffffff"
     bordercolor="#666666"
     borderopacity="1"
     objecttolerance="10"
     gridtolerance="10"
     guidetolerance="10"
     inkscape:pageopacity="0"
     inkscape:pageshadow="2"
     inkscape:window-width="1170"
     inkscape:window-height="802"
     id="namedview3582"
     showgrid="false"
     inkscape:zoom="1"
     inkscape:cx="62.299458"
     inkscape:cy="99.733276"
     inkscape:window-x="26"
     inkscape:window-y="39"
     inkscape:window-maximized="0"
     inkscape:current-layer="svg2985" />
  <defs
     id="defs3078">
    <linearGradient
       id="linearGradient3910">
      <stop
         style="stop-color:#d1f5bc;stop-opacity:1;"
         offset="0"
         id="stop3912" />
      <stop
         style="stop-color:#9ce970;stop-opacity:0;"
         offset="1"
         id="stop3915" />
    </linearGradient>
    <linearGradient
       id="linearGradient3878">
      <stop
         style="stop-color:#77886e;stop-opacity:1;"
         offset="0"
         id="stop3880" />
      <stop
         style="stop-color:#ebebeb;stop-opacity:0;"
         offset="1"
         id="stop3882" />
    </linearGradient>
    <linearGradient
       id="linearGradient4407">
      <stop
         style="stop-color:#5a932e;stop-opacity:1;"
         offset="0"
         id="stop4409" />
      <stop
         style="stop-color:#008000;stop-opacity:0;"
         offset="1"
         id="stop4411" />
    </linearGradient>
    <linearGradient
       id="linearGradient3920">
      <stop
         id="stop3922"
         style="stop-color:#f76605;stop-opacity:1"
         offset="0" />
      <stop
         id="stop3924"
         style="stop-color:#f76605;stop-opacity:0"
         offset="1" />
    </linearGradient>
    <linearGradient
       id="linearGradient3912">
      <stop
         id="stop3914"
         style="stop-color:#f76605;stop-opacity:1"
         offset="0" />
      <stop
         id="stop3916"
         style="stop-color:#f76605;stop-opacity:0"
         offset="1" />
    </linearGradient>
    <linearGradient
       x1="266.47787"
       y1="211.67976"
       x2="229.98468"
       y2="1.0003659"
       id="linearGradient3926"
       xlink:href="#linearGradient3920"
       gradientUnits="userSpaceOnUse" />
    <linearGradient
       x1="181.08247"
       y1="130.10081"
       x2="215.93491"
       y2="39.449913"
       id="linearGradient3928"
       xlink:href="#linearGradient3912"
       gradientUnits="userSpaceOnUse"
       gradientTransform="matrix(1,0,0,0.86093174,-54.558414,-74.851056)" />
    <radialGradient
       inkscape:collect="always"
       xlink:href="#linearGradient3878"
       id="radialGradient3884"
       cx="105.76555"
       cy="119.15379"
       fx="105.76555"
       fy="119.15379"
       r="80.952019"
       gradientTransform="matrix(0.97108935,-0.00560264,0.0096149,0.92993436,2.0837497,8.2171544)"
       gradientUnits="userSpaceOnUse" />
    <radialGradient
       inkscape:collect="always"
       xlink:href="#linearGradient3878"
       id="radialGradient15274"
       gradientUnits="userSpaceOnUse"
       gradientTransform="matrix(0.97108935,-0.00560264,0.0096149,0.92993436,2.0837497,8.2171544)"
       cx="105.76555"
       cy="119.15379"
       fx="105.76555"
       fy="119.15379"
       r="80.952019" />
  </defs>
  <metadata
     id="metadata2987">
    <rdf:RDF>
      <cc:Work
         rdf:about="">
        <dc:title></dc:title>
        <dc:description>Orange Juice Box</dc:description>
        <dc:subject>
          <rdf:Bag>
            <rdf:li>food</rdf:li>
            <rdf:li>juice</rdf:li>
            <rdf:li>menu</rdf:li>
            <rdf:li>orange</rdf:li>
            <rdf:li>beverage</rdf:li>
          </rdf:Bag>
        </dc:subject>
        <dc:publisher>
          <cc:Agent
             rdf:about="http://www.openclipart.org/">
            <dc:title>Open Clip Art Project</dc:title>
          </cc:Agent>
        </dc:publisher>
        <dc:creator>
          <cc:Agent
             rdf:about="http://web.resource.org/cc/PublicDomain">
            <dc:title>Gerald G.</dc:title>
          </cc:Agent>
        </dc:creator>
        <dc:rights>
          <cc:Agent
             rdf:about="http://web.resource.org/cc/PublicDomain">
            <dc:title>Public Domain</dc:title>
          </cc:Agent>
        </dc:rights>
        <dc:date>2005/05/30</dc:date>
        <dc:format>image/svg+xml</dc:format>
        <dc:type
           rdf:resource="http://purl.org/dc/dcmitype/StillImage" />
        <cc:license
           rdf:resource="http://web.resource.org/cc/PublicDomain" />
        <dc:language>en</dc:language>
      </cc:Work>
      <cc:License
         rdf:about="http://web.resource.org/cc/PublicDomain">
        <cc:permits
           rdf:resource="http://web.resource.org/cc/Reproduction" />
        <cc:permits
           rdf:resource="http://web.resource.org/cc/Distribution" />
        <cc:permits
           rdf:resource="http://web.resource.org/cc/DerivativeWorks" />
      </cc:License>
    </rdf:RDF>
  </metadata>
  <path
     style="opacity:0.2431193;fill:#668000;fill-opacity:1;stroke:none"
     d="M 128.05473,224.96948 C 59.90517,222.59024 0.28170917,198.15108 2.821244,101.62397 4.5401573,36.288551 64.147546,23.127243 132.29711,25.506488 c 51.46781,1.796849 95.93403,20.433022 97.31021,94.709772 1.42987,77.17378 -33.40304,107.13246 -101.55259,104.75322 z"
     id="path3929"
     inkscape:connector-curvature="0"
     sodipodi:nodetypes="sssss" />
  <g
     transform="matrix(0.9891739,0,0,0.69215682,12.877209,155.3252)"
     id="g2990">
    <path
       sodipodi:type="arc"
       style="fill:url(#radialGradient3884);fill-opacity:1;stroke:none"
       id="path3108"
       sodipodi:cx="106.93661"
       sodipodi:cy="116.43098"
       sodipodi:rx="80.952019"
       sodipodi:ry="79.452911"
       d="m 187.88863,116.43098 c 0,43.88063 -36.24346,79.45291 -80.95202,79.45291 -44.708568,0 -80.952021,-35.57228 -80.952021,-79.45291 0,-43.880634 36.243453,-79.452915 80.952021,-79.452915 44.70856,0 80.95202,35.572281 80.95202,79.452915 z"
       transform="matrix(1.2285681,0,0,0.29661719,-52.680414,15.522897)" />
  </g>
  <g
     inkscape:groupmode="layer"
     id="layer1"
     inkscape:label="Layer" />
  <g
     id="g15270"
     transform="matrix(0.9891739,0,0,0.69215682,78.877212,177.3252)">
    <path
       transform="matrix(1.2285681,0,0,0.29661719,-52.680414,15.522897)"
       d="m 187.88863,116.43098 c 0,43.88063 -36.24346,79.45291 -80.95202,79.45291 -44.708568,0 -80.952021,-35.57228 -80.952021,-79.45291 0,-43.880634 36.243453,-79.452915 80.952021,-79.452915 44.70856,0 80.95202,35.572281 80.95202,79.452915 z"
       sodipodi:ry="79.452911"
       sodipodi:rx="80.952019"
       sodipodi:cy="116.43098"
       sodipodi:cx="106.93661"
       id="path15272"
       style="fill:url(#radialGradient15274);fill-opacity:1;stroke:none"
       sodipodi:type="arc" />
  </g>
  <g
     id="g14470"
     transform="matrix(1.49034,0,0,1.5825374,37.387879,456.83999)">
    <path
       d="m 76.115004,-227.9318 c 0.03625,-12.595 -7.2775,-22.44125 -6.99625,-27.2225 0.2525,-4.285 2.79625,-8.7225 2.79625,-8.7225 -3.52125,1.8975 -5.125,5.35125 -5.82625,7.58625 -3.06375,-4.4025 -6.52,-8.03 -9.983751,-10.98 -0.5025,-0.60875 -1.1125,-1.29 -1.91375,-2.09125 0,0 -4.64125,-4.6425 -4.21875,-10.1275 0,0 -1.69125,3.10625 -0.23,7.46875 -7.58,-4.955 -13.82625,-6.765 -13.82625,-6.765 l -1.68125,0 c 0,0 -6.35625,1.84125 -14.030001,6.89625 1.54,-4.43 -0.1775,-7.6 -0.1775,-7.6 0.4225,5.485 -4.22,10.1275 -4.22,10.1275 -0.99875,0.9975 -1.735,1.83375 -2.2775,2.535 -3.33,2.90125 -6.6349998,6.43875 -9.5737498,10.69 -0.6725,-2.2275 -2.26625,-5.79875 -5.87125,-7.74 0,0 4.85875,4.90375 2.67374999,10.12875 -5.06375099,12.09625 -6.30000099,21.0925 -6.74125099,26.07 -3.5074997,-6.93125 -11.1237502,-4.55 -11.1237502,-4.55 5.34,-0.5925 8.3875005,6.5325 9.7250005,10.81625 0.5637497,1.8075 1.1587497,3.795 1.1712497,4.24 0.40625,15.39875 2.5275,25.2975 9.500001,34.035 10.0662498,12.6175 25.3187508,11.815 25.3187508,11.815 l 12.93375,0 c 0,0 15.252501,0.8025 25.318751,-11.815 6.715,-8.41625 8.92875,-17.90625 9.44875,-32.3525 0.035,-0.9525 0.43125,-3.73625 0.82625,-5.1075 1.18625,-4.115 4.2725,-12.26375 9.969997,-11.63125 0,0 -7.428747,-2.32125 -10.991247,4.29625"
       style="fill:#623817;fill-opacity:1;fill-rule:nonzero;stroke:none"
       id="path4488"
       inkscape:connector-curvature="0" />
    <path
       d="m 26.920002,-272.5968 c 0,0 -27.00499981,13.50375 -29.8187508,46.1375 -2.815,32.6325 10.126251,50.63625 26.4437508,51.76125 0,0 5.063751,1.68875 18.567501,0.56375 0,0 30.945001,0.5625 30.381251,-42.19875 0,0 -5.06375,14.06625 -22.506251,16.31625 0,0 -28.131251,5.06375 -35.446251,-17.44125 0,0 -10.6899998,-30.945 12.37875,-55.13875"
       style="fill:#462c20;fill-opacity:1;fill-rule:nonzero;stroke:none"
       id="path4490"
       inkscape:connector-curvature="0" />
    <path
       d="m 39.016253,-253.3268 c 0,0 1.68875,-12.66 -4.64125,-19.8325 0,0 2.5325,10.97125 -1.265,18.98875 0,0 -0.845,4.64125 1.68625,4.64125 2.5325,0 4.22,0 4.22,-3.7975"
       style="fill:#462c20;fill-opacity:1;fill-rule:nonzero;stroke:none"
       id="path4492"
       inkscape:connector-curvature="0" />
    <path
       d="m 32.265003,-232.22805 c 0,0 -8.440001,-8.44 -5.907501,-24.0525 0,0 -4.6425,14.77 -0.4225,23.20875 0,0 2.110001,5.48625 6.330001,0.84375"
       style="fill:#462c20;fill-opacity:1;fill-rule:nonzero;stroke:none"
       id="path4494"
       inkscape:connector-curvature="0" />
    <path
       d="m 39.861253,-224.6318 c 0,0 7.1725,-10.97125 6.32875,-22.7875 0,0 5.06375,15.19125 -3.7975,26.585 0,0 -3.37625,0.84375 -2.53125,-3.7975"
       style="fill:#462c20;fill-opacity:1;fill-rule:nonzero;stroke:none"
       id="path4496"
       inkscape:connector-curvature="0" />
    <path
       d="m 29.732503,-210.2843 c 0,0 -9.282501,-8.8625 -10.548751,-23.20875 0,0 -2.11,13.925 6.75125,25.3175 0,0 4.641251,4.22 3.797501,-2.10875"
       style="fill:#462c20;fill-opacity:1;fill-rule:nonzero;stroke:none"
       id="path4498"
       inkscape:connector-curvature="0" />
    <path
       d="m 48.300003,-205.64305 c 0,0 4.6425,-12.2375 3.7975,-23.63125 0,0 3.37625,13.08125 0,23.63125 0,0 -1.6875,3.7975 -3.7975,0"
       style="fill:#462c20;fill-opacity:1;fill-rule:nonzero;stroke:none"
       id="path4500"
       inkscape:connector-curvature="0" />
    <path
       d="m 43.800003,-222.52305 c 0,0 6.47125,-10.1275 2.5325,-23.34875 0,0 8.44,12.94125 -2.5325,23.34875"
       style="fill:#834d29;fill-opacity:1;fill-rule:nonzero;stroke:none"
       id="path4502"
       inkscape:connector-curvature="0" />
    <path
       d="m 52.097503,-205.64305 c 0,0 3.235,-10.9725 0.4225,-21.6625 0,0 6.751251,12.66 -0.4225,21.6625"
       style="fill:#834d29;fill-opacity:1;fill-rule:nonzero;stroke:none"
       id="path4504"
       inkscape:connector-curvature="0" />
    <path
       d="m 26.920002,-207.33055 c 0,0 -8.72,-9.0025 -7.87625,-23.63125 0,0 0.28,10.1275 7.87625,23.63125"
       style="fill:#834d29;fill-opacity:1;fill-rule:nonzero;stroke:none"
       id="path4506"
       inkscape:connector-curvature="0" />
    <path
       d="m 26.077502,-255.15555 c 0,0 -3.37875,14.06625 3.655001,23.9125 0,0 3.3775,1.40625 2.5325,-0.985 0,0 -7.031251,-5.48625 -6.187501,-22.9275"
       style="fill:#834d29;fill-opacity:1;fill-rule:nonzero;stroke:none"
       id="path4508"
       inkscape:connector-curvature="0" />
    <path
       d="m 34.375003,-273.1593 c 0,0 5.76625,9.84625 2.11,21.9425 0,0 -0.8425,1.96875 0.56375,1.96875 1.40625,0 6.46875,-14.62875 -2.67375,-23.91125"
       style="fill:#834d29;fill-opacity:1;fill-rule:nonzero;stroke:none"
       id="path4510"
       inkscape:connector-curvature="0" />
    <path
       d="m 10.743752,-206.06555 c 0,0 -2.1099998,-11.815 -8.8612498,-17.3 0,0 4.64125,1.265 6.75125,5.485 2.1099998,4.22 5.9074998,10.1275 2.1099998,11.815"
       style="fill:#623817;fill-opacity:1;fill-rule:nonzero;stroke:none"
       id="path4512"
       inkscape:connector-curvature="0" />
    <path
       d="m 7.3687522,-228.8518 c 0,0 1.6875,-12.65875 -3.37625,-17.72375 0,0 8.0174998,6.7525 6.3299998,18.5675 0,0 -2.1099998,2.95375 -2.9537498,-0.84375"
       style="fill:#623817;fill-opacity:1;fill-rule:nonzero;stroke:none"
       id="path4514"
       inkscape:connector-curvature="0" />
    <path
       d="m 10.322502,-193.40555 c 0,0 -2.9537498,-14.77 -8.8624998,-19.8325 0,0 5.90875,16.035 3.37625,21.9425 0,0 3.7975,6.75125 5.4862498,-2.11"
       style="fill:#623817;fill-opacity:1;fill-rule:nonzero;stroke:none"
       id="path4516"
       inkscape:connector-curvature="0" />
    <path
       d="m 67.288754,-206.4868 c 0,0 -8.86125,13.08125 -8.86125,20.255 0,0 2.11,2.95375 4.22,-0.4225 0,0 -0.84375,-13.5025 4.64125,-19.8325"
       style="fill:#623817;fill-opacity:1;fill-rule:nonzero;stroke:none"
       id="path4518"
       inkscape:connector-curvature="0" />
    <path
       d="m 30.155003,-185.38805 c 0,0 0.42125,-12.65875 -8.440001,-17.7225 0,0 6.752501,13.08125 2.955,19.8325 0,0 2.953751,3.37624 5.485001,-2.11"
       style="fill:#623817;fill-opacity:1;fill-rule:nonzero;stroke:none"
       id="path4520"
       inkscape:connector-curvature="0" />
    <path
       d="m 48.722503,-196.3593 c 0,0 -7.1675,7.87625 -7.17375,16.45749 0,0 4.64125,0.84375 4.64125,-0.84499 0,-1.6875 -0.84375,-9.2825 2.5325,-15.6125"
       style="fill:#623817;fill-opacity:1;fill-rule:nonzero;stroke:none"
       id="path4522"
       inkscape:connector-curvature="0" />
    <path
       d="m 15.807502,-264.29805 c 0,0 -5.9074998,8.86125 -5.06375,16.4575 0,0 2.11,3.375 2.95375,0 0.84375,-3.37625 0,-11.81625 2.11,-16.4575"
       style="fill:#623817;fill-opacity:1;fill-rule:nonzero;stroke:none"
       id="path4524"
       inkscape:connector-curvature="0" />
    <path
       d="m 40.705003,-203.11055 c 0,0 0.28,-14.0675 -5.06375,-19.4125 0,0 3.37625,12.37875 0.56375,18.5675 -2.815,6.19 3.9375,5.06375 4.5,0.845"
       style="fill:#462c20;fill-opacity:1;fill-rule:nonzero;stroke:none"
       id="path4526"
       inkscape:connector-curvature="0" />
    <path
       d="m 41.268753,-250.6543 c 0,0 -5.06375,10.40875 -4.5025,20.255 0,0 1.68625,2.25 2.25,0.28125 0.56375,-1.96875 0.28375,-13.785 2.2525,-20.53625"
       style="fill:#462c20;fill-opacity:1;fill-rule:nonzero;stroke:none"
       id="path4528"
       inkscape:connector-curvature="0" />
    <path
       d="m 29.171253,-274.2843 c 0,0 -6.190001,7.0325 -7.596251,16.5975 0,0 -1.125,2.5325 0.845,2.5325 1.96875,0 2.53125,0.84375 2.81375,-3.095 0,0 1.40625,-9.565 3.937501,-16.035"
       style="fill:#462c20;fill-opacity:1;fill-rule:nonzero;stroke:none"
       id="path4530"
       inkscape:connector-curvature="0" />
    <path
       d="m 16.793752,-236.8693 c 0,0 -3.37625,-7.315 0.84375,-18.5675 0,0 -1.1275,6.47125 0.28,10.41 1.4075,3.9375 2.25125,7.875 -1.12375,8.1575"
       style="fill:#462c20;fill-opacity:1;fill-rule:nonzero;stroke:none"
       id="path4532"
       inkscape:connector-curvature="0" />
    <path
       d="m 61.523754,-220.5518 c 0,0 -0.0025,-12.66125 -3.94,-19.69375 0,0 6.47125,7.315 7.315,18.28625 0.39,5.04875 0,9.28375 -3.375,1.4075"
       style="fill:#462c20;fill-opacity:1;fill-rule:nonzero;stroke:none"
       id="path4534"
       inkscape:connector-curvature="0" />
    <path
       d="m 51.113753,-245.59055 c 0,0 0,-10.97125 -5.9075,-17.7225 0,0 7.03375,4.21875 7.595,12.09625 0.5625,7.8775 -0.28125,5.9075 -1.6875,5.62625"
       style="fill:#462c20;fill-opacity:1;fill-rule:nonzero;stroke:none"
       id="path4536"
       inkscape:connector-curvature="0" />
    <path
       d="m 69.400004,-234.05555 c 0,0 -5.065,-4.5025 -3.93875,-14.06625 0,0 1.405,5.9075 3.93875,9.28375 2.53125,3.375 5.06375,8.15875 0,4.7825"
       style="fill:#462c20;fill-opacity:1;fill-rule:nonzero;stroke:none"
       id="path4538"
       inkscape:connector-curvature="0" />
    <path
       d="m 57.303754,-255.4368 c 0,0 -5.345001,-8.43875 -10.410001,-13.22125 0,0 3.3775,1.97 7.87875,5.9075 4.498751,3.9375 5.906251,7.595 2.531251,7.31375"
       style="fill:#462c20;fill-opacity:1;fill-rule:nonzero;stroke:none"
       id="path4540"
       inkscape:connector-curvature="0" />
    <path
       d="m 37.610003,-280.47305 c 0,0 6.19,9.00125 7.59625,13.22125 0,0 1.6875,3.6575 3.375,2.81375 0,0 -2.8125,-8.44 -10.97125,-16.035"
       style="fill:#462c20;fill-opacity:1;fill-rule:nonzero;stroke:none"
       id="path4542"
       inkscape:connector-curvature="0" />
    <path
       d="m 35.641253,-222.52305 c 0,0 4.7825,11.535 3.6575,18.28625 l -0.2825,3.37625 c 0,0 7.315,-6.47 -3.375,-21.6625"
       style="fill:#834d29;fill-opacity:1;fill-rule:nonzero;stroke:none"
       id="path4544"
       inkscape:connector-curvature="0" />
    <path
       d="m 10.885002,-208.45555 c 0,0 0.28125,-9.0025 -6.1887498,-13.50375 0,0 12.3774998,7.87625 6.1887498,13.50375"
       style="fill:#834d29;fill-opacity:1;fill-rule:nonzero;stroke:none"
       id="path4546"
       inkscape:connector-curvature="0" />
  </g>
  <g
     id="g14457"
     transform="matrix(1.49034,0,0,1.5825374,109.39522,369.14107)">
    <path
       d="m 74.567504,-145.05305 c -4.3225,0.89 -8.80875,1.1975 -13.87375,0.74125 -4.22625,-0.38 -8.406251,-0.71 -12.513751,-1.305 -0.68,0.26875 -1.40125,0.50125 -2.19625,0.66875 -11.83375,2.47375 -23.317501,1.005 -35.255001,0.84875 -1.4962498,-0.02 -2.8449998,-0.2675 -4.0512498,-0.69125 -4.1075,1.11125 -8.20375,1.89125 -12.387501,1.85375 0.58875,13.85875 2.855,23.095 9.407501,31.30375 10.0662498,12.618754 25.3187508,11.816254 25.3187508,11.816254 l 12.9325,0 c 0,0 15.252501,0.8025 25.320001,-11.816254 6.62125,-8.2975 8.86125,-17.65 9.4225,-31.75625 -0.725,-0.53375 -1.43875,-1.08125 -2.12375,-1.66375"
       style="fill:#623817;fill-opacity:1;fill-rule:nonzero;stroke:none"
       id="path4548"
       inkscape:connector-curvature="0" />
    <path
       d="m 72.862504,-144.72305 c -0.41625,1.0775 -5.74875,14.0525 -22.466251,16.21 0,0 -26.441251,4.7575 -34.718751,-15.45625 -1.64125,-0.0588 -3.29125,-0.10875 -4.94875,-0.13 -1.4999998,-0.02 -2.8499998,-0.27 -4.0599998,-0.6925 -3.1525,0.85125 -6.30000001,1.51375 -9.485001,1.75625 0.918751,25.0825 12.562501,38.8625 26.7675008,39.8425 0,0 5.065001,1.68875 18.568751,0.5625 0,0 30.893751,0.5575 30.382501,-42.10125 l -0.04,0.009"
       style="fill:#462c20;fill-opacity:1;fill-rule:nonzero;stroke:none"
       id="path4550"
       inkscape:connector-curvature="0" />
    <path
       d="m 26.271252,-143.59055 c -1.33875,-0.0337 -2.685,-0.0725 -4.03,-0.125 0.995,2.36125 2.3175,4.7525 4.10125,7.045 0,0 4.641251,4.22 3.798751,-2.11 0,0 -1.77125,-1.70625 -3.870001,-4.81"
       style="fill:#462c20;fill-opacity:1;fill-rule:nonzero;stroke:none"
       id="path4552"
       inkscape:connector-curvature="0" />
    <path
       d="m 51.645003,-145.1693 c -1.15375,6.305 -2.9375,11.03 -2.9375,11.03 2.11,3.79875 3.7975,0 3.7975,0 1.12375,-3.5075 1.49375,-7.2875 1.49375,-10.77625 -0.7875,-0.0775 -1.57,-0.16625 -2.35375,-0.25375"
       style="fill:#462c20;fill-opacity:1;fill-rule:nonzero;stroke:none"
       id="path4554"
       inkscape:connector-curvature="0" />
    <path
       d="m 54.040003,-144.9118 c -0.18625,6.15625 -1.535,10.7725 -1.535,10.7725 2.6425,-3.315 3.3875,-7.12 3.28375,-10.61 -0.58375,-0.0525 -1.16625,-0.105 -1.74875,-0.1625"
       style="fill:#834d29;fill-opacity:1;fill-rule:nonzero;stroke:none"
       id="path4556"
       inkscape:connector-curvature="0" />
    <path
       d="m 22.350002,-143.71055 c 2.255,5.04875 4.978751,7.88375 4.978751,7.88375 -1.565001,-2.77875 -2.808751,-5.40625 -3.811251,-7.83875 -0.39,-0.0138 -0.7775,-0.0312 -1.1675,-0.045"
       style="fill:#834d29;fill-opacity:1;fill-rule:nonzero;stroke:none"
       id="path4558"
       inkscape:connector-curvature="0" />
    <path
       d="m 7.8150022,-144.4593 c 2.4424998,4.96875 3.3362498,9.89875 3.3362498,9.89875 3.15875,-1.405 1.06125,-5.7275 -0.94625,-9.57125 -0.8437498,-0.0425 -1.6437498,-0.14875 -2.3899998,-0.3275"
       style="fill:#623817;fill-opacity:1;fill-rule:nonzero;stroke:none"
       id="path4560"
       inkscape:connector-curvature="0" />
    <path
       d="m 10.728752,-144.0993 c -0.28,-0.004 -0.54375,-0.0312 -0.8137498,-0.05 1.4762498,3.715 1.3774998,7.1975 1.3774998,7.1975 2.4525,-2.23125 1.9825,-4.81375 0.5275,-7.12 -0.36375,-0.007 -0.725,-0.0225 -1.09125,-0.0275"
       style="fill:#834d29;fill-opacity:1;fill-rule:nonzero;stroke:none"
       id="path4562"
       inkscape:connector-curvature="0" />
    <path
       d="m 75.715004,-143.8443 c 0,6.2925 -18.1375,11.39375 -40.511251,11.39375 -22.372501,0 -40.5100018,-5.10125 -40.5100018,-11.39375 0,-6.2925 18.1375008,-11.39375 40.5100018,-11.39375 22.373751,0 40.511251,5.10125 40.511251,11.39375"
       style="fill:#ffffff;fill-opacity:1;fill-rule:nonzero;stroke:none"
       id="path4564"
       inkscape:connector-curvature="0" />
    <path
       d="m 35.836253,-132.87305 c -20.857501,0 -37.7662508,-4.8175 -37.7662508,-10.76 0,-8.22875 16.9087498,-10.76125 37.7662508,-10.76125 20.860001,0 37.767501,4.22 37.767501,10.76125 0,5.9425 -16.9075,10.76 -37.767501,10.76 z m -0.83375,-23.20875 c -22.717501,0 -41.1325018,5.47875 -41.1325018,12.2375 0,6.75875 18.4150008,12.2375 41.1325018,12.2375 22.717501,0 41.132501,-5.47875 41.132501,-12.2375 0,-6.75875 -18.415,-12.2375 -41.132501,-12.2375"
       style="fill:#623817;fill-opacity:1;fill-rule:nonzero;stroke:none"
       id="path4566"
       inkscape:connector-curvature="0" />
    <path
       d="m 64.642504,-145.7618 c -4.9175,-1.8425 -14.902501,-4.70125 -29.016251,-4.4125 0,0 -21.025001,-1.425 -30.6550008,4.23875 -0.84875,0.49875 -1.33875,2.22 0.77375,2.975 4.2862498,1.53125 13.4849998,3.8975 29.8812508,4.18 15.3925,0.265 24.275001,-1.9725 28.746251,-3.67125 2.6425,-1.00125 2.555,-2.4525 0.27,-3.31"
       style="fill:#bdc2ce;fill-opacity:1;fill-rule:nonzero;stroke:none"
       id="path4568"
       inkscape:connector-curvature="0" />
  </g>
</svg>
