<?xml version="1.0" encoding="UTF-8" standalone="no"?>
<!-- Created with Inkscape (http://www.inkscape.org/) -->

<svg
   xmlns:dc="http://purl.org/dc/elements/1.1/"
   xmlns:cc="http://creativecommons.org/ns#"
   xmlns:rdf="http://www.w3.org/1999/02/22-rdf-syntax-ns#"
   xmlns:svg="http://www.w3.org/2000/svg"
   xmlns="http://www.w3.org/2000/svg"
   xmlns:sodipodi="http://sodipodi.sourceforge.net/DTD/sodipodi-0.dtd"
   xmlns:inkscape="http://www.inkscape.org/namespaces/inkscape"
   width="744.09448819"
   height="1052.3622047"
   id="svg2"
   version="1.1"
   inkscape:version="0.48.3.1 r9886"
   sodipodi:docname="drawing2.svg">
  <defs
     id="defs4">
    <marker
       inkscape:stockid="Arrow1Lend"
       orient="auto"
       refY="0.0"
       refX="0.0"
       id="Arrow1Lend"
       style="overflow:visible;">
      <path
         id="path3946"
         d="M 0.0,0.0 L 5.0,-5.0 L -12.5,0.0 L 5.0,5.0 L 0.0,0.0 z "
         style="fill-rule:evenodd;stroke:#000000;stroke-width:1.0pt;"
         transform="scale(0.8) rotate(180) translate(12.5,0)" />
    </marker>
  </defs>
  <sodipodi:namedview
     id="base"
     pagecolor="#ffffff"
     bordercolor="#666666"
     borderopacity="1.0"
     inkscape:pageopacity="0.0"
     inkscape:pageshadow="2"
     inkscape:zoom="1.541337"
     inkscape:cx="282.2573"
     inkscape:cy="536.27488"
     inkscape:document-units="px"
     inkscape:current-layer="layer1"
     showgrid="false"
     inkscape:window-width="1768"
     inkscape:window-height="1208"
     inkscape:window-x="20"
     inkscape:window-y="88"
     inkscape:window-maximized="0" />
  <metadata
     id="metadata7">
    <rdf:RDF>
      <cc:Work
         rdf:about="">
        <dc:format>image/svg+xml</dc:format>
        <dc:type
           rdf:resource="http://purl.org/dc/dcmitype/StillImage" />
        <dc:title />
      </cc:Work>
    </rdf:RDF>
  </metadata>
  <g
     inkscape:label="Layer 1"
     inkscape:groupmode="layer"
     id="layer1">
    <text
       xml:space="preserve"
       style="font-size:69.72740173px;font-style:normal;font-weight:normal;line-height:125%;letter-spacing:0px;word-spacing:0px;fill:#666666;fill-opacity:1;stroke:none;font-family:Sans"
       x="136.9357"
       y="577.84698"
       id="text2985"
       sodipodi:linespacing="125%"><tspan
         sodipodi:role="line"
         id="tspan2987"
         x="136.9357"
         y="577.84698"
         style="font-size:174.3184967px;font-style:normal;font-variant:normal;font-weight:bold;font-stretch:normal;letter-spacing:0px;fill:#666666;fill-opacity:1;font-family:Topmarks;-inkscape-font-specification:Topmarks Bold">ocedg</tspan></text>
    <path
       style="opacity:0.7017544;fill:#ffffff"
       d="m 376.35389,483.61762 37.61172,0.59322 -11.749,66.28178 -50.90966,-4.12951 c -1.86033,-4.78686 -1.66865,-8.95515 -1.76709,-13.2109 8.30436,-5.43814 29.54873,-15.42935 29.31546,-24.02257 -0.01,-0.35601 19.13184,-19.32376 -2.50143,-25.512 z"
       id="rect3775"
       inkscape:connector-curvature="0"
       sodipodi:nodetypes="cccccscc" />
    <path
       sodipodi:nodetypes="cccccc"
       inkscape:connector-curvature="0"
       id="path3778"
       d="m 195.22673,484.2372 37.27328,0.87381 0,102.23614 -22.5,0.0468 c -25.99038,-49.32677 -7.13256,-85.55138 -3.52328,-100.65677 z"
       style="opacity:0.70175439;fill:#ffffff" />
    <path
       style="opacity:0.7017544;fill:#ffffff"
       d="m 484.07431,441.43283 c 0,0 44.14828,-8.50119 43.52328,3.99881 l -6.875,142.86114 -23.86894,-4.39956 c -25.99038,-49.32677 -21.38862,-57.98002 -17.77934,-73.08541 12.31441,0.57874 7.09205,-47.85775 5,-69.37498 z"
       id="path3780"
       inkscape:connector-curvature="0"
       sodipodi:nodetypes="cccccc" />
    <path
       sodipodi:nodetypes="ccccccccc"
       inkscape:connector-curvature="0"
       id="path2989"
       d="m 596.91973,437.6503 c 0,0 44.14828,-8.50119 43.52328,3.99881 l -31.39533,197.3768 -86.30468,-10.35763 16.35569,-27.55981 c 18.73626,-11.51169 36.99636,4.03074 51.10609,-30.61361 l -2.69044,-16.88534 c -2.6648,-9.61022 -2.06072,-35.47766 1.54856,-50.58305 6.08876,-1.37789 9.94888,-43.85894 7.85683,-65.37617 z"
       style="opacity:0.7017544;fill:#ffffff" />
  </g>
</svg>
