<?xml version="1.0" encoding="UTF-8" standalone="no"?>
<!-- Created with Inkscape (http://www.inkscape.org/) -->

<svg
   xmlns:dc="http://purl.org/dc/elements/1.1/"
   xmlns:cc="http://creativecommons.org/ns#"
   xmlns:rdf="http://www.w3.org/1999/02/22-rdf-syntax-ns#"
   xmlns:svg="http://www.w3.org/2000/svg"
   xmlns="http://www.w3.org/2000/svg"
   xmlns:sodipodi="http://sodipodi.sourceforge.net/DTD/sodipodi-0.dtd"
   xmlns:inkscape="http://www.inkscape.org/namespaces/inkscape"
   width="744.09448819"
   height="1052.3622047"
   id="svg2"
   version="1.1"
   inkscape:version="0.48.3.1 r9886"
   sodipodi:docname="drawing2.svg">
  <defs
     id="defs4">
    <marker
       inkscape:stockid="Arrow1Lend"
       orient="auto"
       refY="0.0"
       refX="0.0"
       id="Arrow1Lend"
       style="overflow:visible;">
      <path
         id="path3946"
         d="M 0.0,0.0 L 5.0,-5.0 L -12.5,0.0 L 5.0,5.0 L 0.0,0.0 z "
         style="fill-rule:evenodd;stroke:#000000;stroke-width:1.0pt;"
         transform="scale(0.8) rotate(180) translate(12.5,0)" />
    </marker>
  </defs>
  <sodipodi:namedview
     id="base"
     pagecolor="#ffffff"
     bordercolor="#666666"
     borderopacity="1.0"
     inkscape:pageopacity="0.0"
     inkscape:pageshadow="2"
     inkscape:zoom="1.4"
     inkscape:cx="588.92467"
     inkscape:cy="421.39165"
     inkscape:document-units="px"
     inkscape:current-layer="layer1"
     showgrid="false"
     inkscape:window-width="1768"
     inkscape:window-height="1208"
     inkscape:window-x="20"
     inkscape:window-y="88"
     inkscape:window-maximized="0" />
  <metadata
     id="metadata7">
    <rdf:RDF>
      <cc:Work
         rdf:about="">
        <dc:format>image/svg+xml</dc:format>
        <dc:type
           rdf:resource="http://purl.org/dc/dcmitype/StillImage" />
        <dc:title />
      </cc:Work>
    </rdf:RDF>
  </metadata>
  <g
     inkscape:label="Layer 1"
     inkscape:groupmode="layer"
     id="layer1">
    <text
       xml:space="preserve"
       style="font-size:69.72740173px;font-style:normal;font-weight:normal;line-height:125%;letter-spacing:0px;word-spacing:0px;fill:#666666;fill-opacity:1;stroke:none;font-family:Sans"
       x="136.9357"
       y="577.84698"
       id="text2985"
       sodipodi:linespacing="125%"><tspan
         sodipodi:role="line"
         id="tspan2987"
         x="136.9357"
         y="577.84698"
         style="font-size:174.3184967px;font-style:normal;font-variant:normal;font-weight:bold;font-stretch:normal;letter-spacing:0px;fill:#666666;fill-opacity:1;font-family:Topmarks;-inkscape-font-specification:Topmarks Bold">ocedg</tspan></text>
    <path
       style="opacity:0.7017544;fill:#ffffff"
       d="m 380.43743,483.61762 34.01348,0.59322 -10.625,66.28178 -46.03923,-4.12951 c -1.68236,-4.78686 -1.50902,-8.95515 -1.59804,-13.2109 7.5099,-5.43814 26.72186,-15.42935 26.51091,-24.02257 -0.009,-0.35601 17.30154,-19.32376 -2.26212,-25.512 z"
       id="rect3775"
       inkscape:connector-curvature="0"
       sodipodi:nodetypes="cccccscc" />
    <path
       sodipodi:nodetypes="cccccc"
       inkscape:connector-curvature="0"
       id="path3778"
       d="m 195.22673,484.2372 37.27328,0.87381 0,102.23614 -22.5,0.0468 c -25.99038,-49.32677 -7.13256,-85.55138 -3.52328,-100.65677 z"
       style="opacity:0.70175439;fill:#ffffff" />
    <path
       style="opacity:0.7017544;fill:#ffffff"
       d="m 484.07431,441.43283 c 0,0 44.14828,-8.50119 43.52328,3.99881 l -6.875,142.86114 -20.625,-2.4532 c -25.99038,-49.32677 -24.63256,-59.92638 -21.02328,-75.03177 12.31441,0.57874 7.09205,-47.85775 5,-69.37498 z"
       id="path3780"
       inkscape:connector-curvature="0"
       sodipodi:nodetypes="cccccc" />
    <path
       sodipodi:nodetypes="ccccccccc"
       inkscape:connector-curvature="0"
       id="path2989"
       d="m 596.91973,437.6503 c 0,0 44.14828,-8.50119 43.52328,3.99881 l -31.39533,197.3768 -86.30468,-10.35763 16.35569,-27.55981 c 18.73626,-11.51169 39.59151,-0.51077 53.70124,-35.15512 l -5.28559,-12.34383 c -2.6648,-9.61022 1.50761,-32.23372 5.11689,-47.33911 6.08876,-1.37789 6.38055,-47.10288 4.2885,-68.62011 z"
       style="opacity:0.7017544;fill:#ffffff" />
  </g>
</svg>
