<?xml version="1.0" encoding="UTF-8" standalone="no"?>
<!-- Created with Inkscape (http://www.inkscape.org/) -->

<svg
   xmlns:dc="http://purl.org/dc/elements/1.1/"
   xmlns:cc="http://creativecommons.org/ns#"
   xmlns:rdf="http://www.w3.org/1999/02/22-rdf-syntax-ns#"
   xmlns:svg="http://www.w3.org/2000/svg"
   xmlns="http://www.w3.org/2000/svg"
   xmlns:sodipodi="http://sodipodi.sourceforge.net/DTD/sodipodi-0.dtd"
   xmlns:inkscape="http://www.inkscape.org/namespaces/inkscape"
   width="1052.3622"
   height="744.09448"
   id="svg2"
   version="1.1"
   inkscape:version="0.48.4 r"
   sodipodi:docname="drawing-1.svg">
  <defs
     id="defs4">
    <marker
       inkscape:stockid="Arrow2Lend"
       orient="auto"
       refY="0"
       refX="0"
       id="Arrow2Lend"
       style="overflow:visible">
      <path
         id="path3793"
         style="fill-rule:evenodd;stroke-width:0.625;stroke-linejoin:round"
         d="M 8.7185878,4.0337352 -2.2072895,0.01601326 8.7185884,-4.0017078 c -1.7454984,2.3720609 -1.7354408,5.6174519 -6e-7,8.035443 z"
         transform="matrix(-1.1,0,0,-1.1,-1.1,0)"
         inkscape:connector-curvature="0" />
    </marker>
    <marker
       inkscape:stockid="Arrow1Lend"
       orient="auto"
       refY="0"
       refX="0"
       id="Arrow1Lend"
       style="overflow:visible">
      <path
         id="path3775"
         d="M 0,0 5,-5 -12.5,0 5,5 0,0 z"
         style="fill-rule:evenodd;stroke:#000000;stroke-width:1pt"
         transform="matrix(-0.8,0,0,-0.8,-10,0)"
         inkscape:connector-curvature="0" />
    </marker>
    <marker
       inkscape:stockid="DotL"
       orient="auto"
       refY="0"
       refX="0"
       id="DotL"
       style="overflow:visible">
      <path
         id="path3833"
         d="m -2.5,-1 c 0,2.76 -2.24,5 -5,5 -2.76,0 -5,-2.24 -5,-5 0,-2.76 2.24,-5 5,-5 2.76,0 5,2.24 5,5 z"
         style="fill-rule:evenodd;stroke:#000000;stroke-width:1pt"
         transform="matrix(0.8,0,0,0.8,5.92,0.8)"
         inkscape:connector-curvature="0" />
    </marker>
    <marker
       inkscape:stockid="DotM"
       orient="auto"
       refY="0"
       refX="0"
       id="DotM"
       style="overflow:visible">
      <path
         id="path3836"
         d="m -2.5,-1 c 0,2.76 -2.24,5 -5,5 -2.76,0 -5,-2.24 -5,-5 0,-2.76 2.24,-5 5,-5 2.76,0 5,2.24 5,5 z"
         style="fill-rule:evenodd;stroke:#000000;stroke-width:1pt"
         transform="matrix(0.4,0,0,0.4,2.96,0.4)"
         inkscape:connector-curvature="0" />
    </marker>
  </defs>
  <sodipodi:namedview
     id="base"
     pagecolor="#ffffff"
     bordercolor="#666666"
     borderopacity="1.0"
     inkscape:pageopacity="0.0"
     inkscape:pageshadow="2"
     inkscape:zoom="0.6"
     inkscape:cx="731.04955"
     inkscape:cy="-341.66667"
     inkscape:document-units="px"
     inkscape:current-layer="text6213"
     showgrid="false"
     inkscape:window-width="1418"
     inkscape:window-height="897"
     inkscape:window-x="114"
     inkscape:window-y="92"
     inkscape:window-maximized="0" />
  <metadata
     id="metadata7">
    <rdf:RDF>
      <cc:Work
         rdf:about="">
        <dc:format>image/svg+xml</dc:format>
        <dc:type
           rdf:resource="http://purl.org/dc/dcmitype/StillImage" />
        <dc:title></dc:title>
      </cc:Work>
    </rdf:RDF>
  </metadata>
  <g
     inkscape:label="Layer 1"
     inkscape:groupmode="layer"
     id="layer1"
     transform="translate(0,-308.2677)">
    <text
       sodipodi:linespacing="125%"
       id="text6191"
       y="1743.845"
       x="14.887016"
       style="font-size:365.48626708999995572px;font-style:normal;font-weight:normal;line-height:125%;letter-spacing:0px;word-spacing:0px;fill:#333333;fill-opacity:1;stroke:none;font-family:Sans"
       xml:space="preserve"><tspan
         style="font-style:normal;font-variant:normal;font-weight:normal;font-stretch:normal;fill:#333333;fill-opacity:1;font-family:Topmarks;-inkscape-font-specification:Topmarks"
         y="1743.845"
         x="14.887016"
         id="tspan6193"
         sodipodi:role="line">age</tspan></text>
    <path
       sodipodi:type="arc"
       style="opacity:0.50458714999999998;fill:#caa41f;fill-opacity:1;fill-rule:nonzero;stroke:none;stroke-width:4;stroke-miterlimit:4;stroke-opacity:1;stroke-dasharray:none;stroke-dashoffset:0"
       id="path6207"
       sodipodi:cx="73.333336"
       sodipodi:cy="1039.0945"
       sodipodi:rx="55"
       sodipodi:ry="55"
       d="m 128.33334,1039.0945 a 55,55 0 1 1 -110.000004,0 55,55 0 1 1 110.000004,0 z"
       transform="translate(56,346.2677)" />
    <path
       transform="translate(176.33333,346.2677)"
       d="m 128.33334,1039.0945 a 55,55 0 1 1 -110.000004,0 55,55 0 1 1 110.000004,0 z"
       sodipodi:ry="55"
       sodipodi:rx="55"
       sodipodi:cy="1039.0945"
       sodipodi:cx="73.333336"
       id="path6209"
       style="opacity:0.50458714999999998;fill:#caa41f;fill-opacity:1;fill-rule:nonzero;stroke:none"
       sodipodi:type="arc" />
    <path
       sodipodi:type="arc"
       style="opacity:0.50458714999999998;fill:#caa41f;fill-opacity:1;fill-rule:nonzero;stroke:none"
       id="path6211"
       sodipodi:cx="73.333336"
       sodipodi:cy="1039.0945"
       sodipodi:rx="55"
       sodipodi:ry="55"
       d="m 128.33334,1039.0945 a 55,55 0 1 1 -110.000004,0 55,55 0 1 1 110.000004,0 z"
       transform="translate(297.33334,344.60101)" />
    <text
       xml:space="preserve"
       style="font-size:365.48626709px;font-style:normal;font-weight:normal;line-height:125%;letter-spacing:0px;word-spacing:0px;fill:#0090d6;fill-opacity:1;stroke:none;font-family:Sans"
       x="122.74422"
       y="613.84503"
       id="text2985"
       sodipodi:linespacing="125%"><tspan
         sodipodi:role="line"
         id="tspan2987"
         x="122.74422"
         y="613.84503"
         style="font-style:normal;font-variant:normal;font-weight:bold;font-stretch:normal;fill:#0090d6;fill-opacity:1;font-family:Topmarks;-inkscape-font-specification:Topmarks Bold">a</tspan></text>
    <path
       style="fill:none;stroke:#4e4e4e;stroke-width:2;stroke-linecap:butt;stroke-linejoin:miter;stroke-miterlimit:4;stroke-opacity:1;stroke-dasharray:none;marker-start:url(#DotM);marker-mid:none;marker-end:url(#Arrow2Lend)"
       d="m 285.54819,418.663 c -80.4878,-19.5122 -159.8986,24.03098 -157.34959,117.5122 2.61533,95.91308 90.30894,110.94309 130.95934,76.79675"
       id="path3766"
       inkscape:connector-curvature="0"
       sodipodi:nodetypes="csc" />
    <path
       style="fill:none;stroke:#4e4e4e;stroke-width:2;stroke-linecap:butt;stroke-linejoin:miter;stroke-miterlimit:4;stroke-opacity:1;stroke-dasharray:none;marker-start:none;marker-end:url(#Arrow2Lend)"
       d="m 224.19859,567.44349 c 13.00813,-0.81301 24.43469,-17.20855 24.45529,-37.08943 l 0.0488,-47.08943"
       id="path5142"
       inkscape:connector-curvature="0"
       sodipodi:nodetypes="csc" />
    <path
       sodipodi:nodetypes="cc"
       inkscape:connector-curvature="0"
       id="path5708"
       d="m 316.26363,602.02886 c 14.63415,4.87805 24.94108,3.79958 43.65854,-2.26016"
       style="fill:none;stroke:#4e4e4e;stroke-width:2;stroke-linecap:butt;stroke-linejoin:miter;stroke-miterlimit:4;stroke-opacity:1;stroke-dasharray:none;marker-start:none;marker-end:url(#Arrow2Lend)" />
    <path
       sodipodi:nodetypes="cc"
       inkscape:connector-curvature="0"
       id="path5710"
       d="m 312.88741,457.59107 -0.0488,93.08943"
       style="fill:none;stroke:#4e4e4e;stroke-width:2;stroke-linecap:butt;stroke-linejoin:miter;stroke-miterlimit:4;stroke-opacity:1;stroke-dasharray:none;marker-start:none;marker-end:url(#Arrow2Lend)" />
    <path
       style="fill:none;stroke:#ffffff;stroke-width:2;stroke-linecap:butt;stroke-linejoin:miter;stroke-miterlimit:4;stroke-opacity:1;stroke-dasharray:4, 4;stroke-dashoffset:0"
       d="m 279.48315,449.55731 c -51.21951,-25.20325 -118.69919,9.82113 -118.69919,84.61788 0,36.58537 22.76423,68.22765 56.09756,68.22765 52.85178,0 52.84554,-54.06505 52.84554,-54.06505"
       id="path5712"
       inkscape:connector-curvature="0"
       sodipodi:nodetypes="cssc" />
    <path
       sodipodi:nodetypes="ccc"
       inkscape:connector-curvature="0"
       id="path5714"
       d="m 281.10917,446.19145 0,107.12196 c 0,0 -4.36444,38.82686 30.08912,45.04794"
       style="fill:none;stroke:#ffffff;stroke-width:2;stroke-linecap:butt;stroke-linejoin:miter;stroke-miterlimit:4;stroke-opacity:1;stroke-dasharray:4, 4;stroke-dashoffset:0" />
    <text
       sodipodi:linespacing="125%"
       id="text5716"
       y="613.84503"
       x="387.88708"
       style="font-size:365.48626709px;font-style:normal;font-weight:normal;line-height:125%;letter-spacing:0px;word-spacing:0px;fill:#0090d6;fill-opacity:1;stroke:none;font-family:Sans"
       xml:space="preserve"><tspan
         style="font-style:normal;font-variant:normal;font-weight:bold;font-stretch:normal;fill:#0090d6;fill-opacity:1;font-family:Topmarks;-inkscape-font-specification:Topmarks Bold"
         y="613.84503"
         x="387.88708"
         id="tspan5718"
         sodipodi:role="line">b</tspan></text>
    <path
       style="fill:none;stroke:#4e4e4e;stroke-width:2;stroke-linecap:butt;stroke-linejoin:miter;stroke-miterlimit:4;stroke-opacity:1;stroke-dasharray:none;marker-start:none;marker-end:url(#Arrow2Lend)"
       d="m 458.34339,436.9882 c 16.15273,-17.56348 37.58279,-22.04758 54.81518,-22.04758 121.09023,0 122.05837,271.48074 -95.22169,202.03133"
       id="path5724"
       inkscape:connector-curvature="0"
       sodipodi:nodetypes="csc" />
    <path
       style="fill:none;stroke:#ffffff;stroke-width:2;stroke-linecap:butt;stroke-linejoin:miter;stroke-miterlimit:4;stroke-opacity:1;stroke-dasharray:4, 4;stroke-dashoffset:0"
       d="m 431.7293,347.11828 0,245.52846"
       id="path5732"
       inkscape:connector-curvature="0" />
    <path
       style="fill:none;stroke:#ffffff;stroke-width:2;stroke-linecap:butt;stroke-linejoin:miter;stroke-miterlimit:4;stroke-opacity:1;stroke-dasharray:4, 4;stroke-dashoffset:0"
       d="m 449.48805,472.97225 c 0,0 22.74424,-28.80504 47.67043,-28.80504 28.81198,0 55.82094,19.62044 56.45786,62.93083 0.9032,61.41716 -24.41005,111.08931 -112.60125,90.61635"
       id="path5734"
       inkscape:connector-curvature="0"
       sodipodi:nodetypes="cssc" />
    <path
       sodipodi:nodetypes="ccc"
       inkscape:connector-curvature="0"
       id="path5720"
       d="m 400.28455,344.61422 -0.87805,260.60163 c 0,0 16.76423,-86.61789 46.03251,-125.64228"
       style="fill:none;stroke:#4e4e4e;stroke-width:2;stroke-linecap:butt;stroke-linejoin:miter;stroke-miterlimit:4;stroke-opacity:1;stroke-dasharray:none;marker-start:url(#DotM);marker-mid:none;marker-end:url(#Arrow2Lend)" />
    <text
       sodipodi:linespacing="125%"
       id="text6131"
       y="613.84503"
       x="629.88702"
       style="font-size:365.48626709px;font-style:normal;font-weight:normal;line-height:125%;letter-spacing:0px;word-spacing:0px;fill:#0090d6;fill-opacity:1;stroke:none;font-family:Sans"
       xml:space="preserve"><tspan
         style="font-style:normal;font-variant:normal;font-weight:bold;font-stretch:normal;fill:#0090d6;fill-opacity:1;font-family:Topmarks;-inkscape-font-specification:Topmarks Bold"
         y="613.84503"
         x="629.88702"
         id="tspan6133"
         sodipodi:role="line">c</tspan></text>
    <path
       sodipodi:nodetypes="csc"
       inkscape:connector-curvature="0"
       id="path6135"
       d="m 796.65162,428.56443 c -79.99273,-36.83971 -161.31016,0.11452 -161.31016,95.61077 0,68.72383 44.76234,113.04165 114.62197,103.6489"
       style="fill:none;stroke:#4e4e4e;stroke-width:2;stroke-linecap:butt;stroke-linejoin:miter;stroke-miterlimit:4;stroke-opacity:1;stroke-dasharray:none;marker-start:url(#DotM);marker-mid:none;marker-end:url(#Arrow2Lend)" />
    <path
       style="fill:none;stroke:#4e4e4e;stroke-width:2;stroke-linecap:butt;stroke-linejoin:miter;stroke-miterlimit:4;stroke-opacity:1;stroke-dasharray:none;marker-start:none;marker-end:url(#Arrow2Lend)"
       d="m 785.94681,591.93029 c 15.12922,-5.51845 32.36716,-11.54764 54.05505,-27.01374"
       id="path6139"
       inkscape:connector-curvature="0"
       sodipodi:nodetypes="cc" />
    <path
       sodipodi:nodetypes="ccc"
       inkscape:connector-curvature="0"
       id="path6143"
       d="m 782.62601,452.54745 c -51.21951,-25.20325 -111.70905,-8.13944 -111.70905,66.65731 0,62.37586 46.58477,99.32931 108.42832,72.69934"
       style="fill:none;stroke:#ffffff;stroke-width:2;stroke-linecap:butt;stroke-linejoin:miter;stroke-miterlimit:4;stroke-opacity:1;stroke-dasharray:4, 4;stroke-dashoffset:0" />
    <path
       sodipodi:nodetypes="csc"
       inkscape:connector-curvature="0"
       id="path6151"
       d="m 285.54819,798.663 c -80.4878,-19.5122 -159.8986,24.03098 -157.34959,117.5122 2.61533,95.9131 90.30894,110.9431 130.95934,76.79675"
       style="fill:none;stroke:#4e4e4e;stroke-width:2;stroke-linecap:butt;stroke-linejoin:miter;stroke-miterlimit:4;stroke-opacity:1;stroke-dasharray:none;marker-start:url(#DotM);marker-mid:none;marker-end:url(#Arrow2Lend)" />
    <path
       sodipodi:nodetypes="csc"
       inkscape:connector-curvature="0"
       id="path6153"
       d="m 234.19859,947.44349 c 13.00813,-0.81301 24.43469,-17.20855 24.45529,-37.08943 l 0.0488,-47.08943"
       style="fill:none;stroke:#4e4e4e;stroke-width:2;stroke-linecap:butt;stroke-linejoin:miter;stroke-miterlimit:4;stroke-opacity:1;stroke-dasharray:none;marker-start:none;marker-end:url(#Arrow2Lend)" />
    <path
       style="fill:none;stroke:#4e4e4e;stroke-width:2;stroke-linecap:butt;stroke-linejoin:miter;stroke-miterlimit:4;stroke-opacity:1;stroke-dasharray:none;marker-start:none;marker-end:url(#Arrow2Lend)"
       d="m 316.26363,982.02886 c 14.63415,4.87805 24.94108,3.79958 43.65854,-2.26016"
       id="path6155"
       inkscape:connector-curvature="0"
       sodipodi:nodetypes="cc" />
    <path
       style="fill:none;stroke:#4e4e4e;stroke-width:2;stroke-linecap:butt;stroke-linejoin:miter;stroke-miterlimit:4;stroke-opacity:1;stroke-dasharray:none;marker-start:none;marker-end:url(#Arrow2Lend)"
       d="m 312.88741,837.59107 -0.0488,93.08943"
       id="path6157"
       inkscape:connector-curvature="0"
       sodipodi:nodetypes="cc" />
    <path
       sodipodi:nodetypes="cssc"
       inkscape:connector-curvature="0"
       id="path6159"
       d="m 275.54383,826.78158 c -51.21951,-25.20325 -114.75987,12.59686 -114.75987,87.39361 0,36.58537 22.76423,68.22765 56.09756,68.22765 59.23505,0 64.03717,-76.40648 64.03717,-76.40648"
       style="fill:none;stroke:#000000;stroke-width:4;stroke-linecap:butt;stroke-linejoin:miter;stroke-miterlimit:4;stroke-opacity:1;stroke-dasharray:none;stroke-dashoffset:0" />
    <path
       style="fill:none;stroke:#000000;stroke-width:4;stroke-linecap:butt;stroke-linejoin:miter;stroke-miterlimit:4;stroke-opacity:1;stroke-dasharray:none;stroke-dashoffset:0"
       d="m 281.10917,826.19145 0,107.12196 c 0,0 -4.36444,38.82686 30.08912,45.04794"
       id="path6161"
       inkscape:connector-curvature="0"
       sodipodi:nodetypes="ccc" />
    <path
       sodipodi:nodetypes="csc"
       inkscape:connector-curvature="0"
       id="path6167"
       d="m 458.34339,816.9882 c 16.15273,-17.56348 37.58279,-22.04758 54.81518,-22.04758 121.09023,0 122.05837,271.48078 -95.22169,202.03133"
       style="fill:none;stroke:#4e4e4e;stroke-width:2;stroke-linecap:butt;stroke-linejoin:miter;stroke-miterlimit:4;stroke-opacity:1;stroke-dasharray:none;marker-start:none;marker-end:url(#Arrow2Lend)" />
    <path
       inkscape:connector-curvature="0"
       id="path6169"
       d="m 431.7293,727.11828 0,249.518"
       style="fill:none;stroke:#000000;stroke-width:4;stroke-linecap:butt;stroke-linejoin:miter;stroke-miterlimit:4;stroke-opacity:1;stroke-dasharray:none;stroke-dashoffset:0"
       sodipodi:nodetypes="cc" />
    <path
       sodipodi:nodetypes="cssc"
       inkscape:connector-curvature="0"
       id="path6171"
       d="m 431.93407,876.9095 c 0,0 21.14842,-52.74229 65.22441,-52.74229 28.81198,0 55.82094,19.62044 56.45786,62.93083 0.9032,61.41716 -35.79847,111.08931 -123.98967,90.61635"
       style="fill:none;stroke:#000000;stroke-width:4;stroke-linecap:butt;stroke-linejoin:miter;stroke-miterlimit:4;stroke-opacity:1;stroke-dasharray:none;stroke-dashoffset:0" />
    <path
       style="fill:none;stroke:#4e4e4e;stroke-width:2;stroke-linecap:butt;stroke-linejoin:miter;stroke-miterlimit:4;stroke-opacity:1;stroke-dasharray:none;marker-start:url(#DotM);marker-mid:none;marker-end:url(#Arrow2Lend)"
       d="m 400.28455,724.61422 -0.87805,260.60163 c 0,0 21.55167,-69.86182 25.2869,-82.55524"
       id="path6173"
       inkscape:connector-curvature="0"
       sodipodi:nodetypes="ccc" />
    <path
       style="fill:none;stroke:#4e4e4e;stroke-width:2;stroke-linecap:butt;stroke-linejoin:miter;stroke-miterlimit:4;stroke-opacity:1;stroke-dasharray:none;marker-start:url(#DotM);marker-mid:none;marker-end:url(#Arrow2Lend)"
       d="m 785.4809,806.96861 c -60.04502,-34.44598 -147.74572,0.91243 -147.74572,96.40868 0,68.72383 56.73097,121.81871 136.96341,97.26561"
       id="path6179"
       inkscape:connector-curvature="0"
       sodipodi:nodetypes="csc" />
    <path
       sodipodi:nodetypes="cc"
       inkscape:connector-curvature="0"
       id="path6181"
       d="m 791.19167,965.38657 c 11.17761,-4.64031 25.78114,-12.86485 44.39555,-25.25747"
       style="fill:none;stroke:#4e4e4e;stroke-width:2;stroke-linecap:butt;stroke-linejoin:miter;stroke-miterlimit:4;stroke-opacity:1;stroke-dasharray:none;marker-start:none;marker-end:url(#Arrow2Lend)" />
    <path
       style="fill:none;stroke:#000000;stroke-width:4;stroke-linecap:butt;stroke-linejoin:miter;stroke-miterlimit:4;stroke-opacity:1;stroke-dasharray:none;stroke-dashoffset:0"
       d="m 782.62601,832.54745 c -51.21951,-25.20325 -111.70905,-8.13944 -111.70905,66.65731 0,62.37586 46.58477,99.32931 108.42832,72.69934"
       id="path6183"
       inkscape:connector-curvature="0"
       sodipodi:nodetypes="ccc" />
    <path
       style="fill:none;stroke:#4e4e4e;stroke-width:2;stroke-linecap:butt;stroke-linejoin:miter;stroke-miterlimit:4;stroke-opacity:1;stroke-dasharray:none;marker-start:none;marker-end:url(#Arrow2Lend)"
       d="m 447.90151,882.36217 c 17.12596,-38.7451 51.45966,-57.57352 82.42736,-19.71388"
       id="path6185"
       inkscape:connector-curvature="0"
       sodipodi:nodetypes="cc" />
    <text
       xml:space="preserve"
       style="font-size:365.48626709px;font-style:normal;font-weight:normal;line-height:125%;letter-spacing:0px;word-spacing:0px;fill:#333333;fill-opacity:1;stroke:none;font-family:Sans"
       x="54.887016"
       y="1403.845"
       id="text6187"
       sodipodi:linespacing="125%"><tspan
         sodipodi:role="line"
         id="tspan6189"
         x="54.887016"
         y="1403.845"
         style="font-style:normal;font-variant:normal;font-weight:normal;font-stretch:normal;fill:#333333;fill-opacity:1;font-family:Topmarks;-inkscape-font-specification:Topmarks">lit</tspan></text>
    <text
       sodipodi:linespacing="125%"
       id="text6195"
       y="1404.3888"
       x="485.04803"
       style="font-size:74.20462036px;font-style:normal;font-weight:normal;line-height:125%;letter-spacing:0px;word-spacing:0px;fill:#333333;fill-opacity:1;stroke:none;font-family:Sans"
       xml:space="preserve"><tspan
         style="font-style:normal;font-variant:normal;font-weight:normal;font-stretch:normal;fill:#333333;fill-opacity:1;font-family:Topmarks;-inkscape-font-specification:Topmarks"
         y="1404.3888"
         x="485.04803"
         id="tspan6197"
         sodipodi:role="line">Little Igloo</tspan></text>
    <text
       xml:space="preserve"
       style="font-size:99.38237px;font-style:normal;font-weight:normal;line-height:125%;letter-spacing:0px;word-spacing:0px;fill:#333333;fill-opacity:1;stroke:none;font-family:Sans"
       x="482.61389"
       y="1324.2601"
       id="text6199"
       sodipodi:linespacing="125%"><tspan
         sodipodi:role="line"
         id="tspan6201"
         x="482.61389"
         y="1324.2601"
         style="font-style:normal;font-variant:normal;font-weight:normal;font-stretch:normal;fill:#333333;fill-opacity:1;font-family:Topmarks;-inkscape-font-specification:Topmarks">Little Igloo</tspan></text>
    <text
       sodipodi:linespacing="125%"
       id="text6203"
       y="1225.8225"
       x="478.96259"
       style="font-size:137.14900208px;font-style:normal;font-weight:normal;line-height:125%;letter-spacing:0px;word-spacing:0px;fill:#333333;fill-opacity:1;stroke:none;font-family:Sans"
       xml:space="preserve"><tspan
         style="font-style:normal;font-variant:normal;font-weight:normal;font-stretch:normal;fill:#333333;fill-opacity:1;font-family:Topmarks;-inkscape-font-specification:Topmarks"
         y="1225.8225"
         x="478.96259"
         id="tspan6205"
         sodipodi:role="line">Little Igloo</tspan></text>
    <g
       style="font-size:365.48626709px;font-style:normal;font-weight:normal;line-height:125%;letter-spacing:0px;word-spacing:0px;fill:#0090d6;fill-opacity:1;stroke:none;font-family:Sans"
       id="text6213">
      <path
         style="font-variant:normal;font-stretch:normal;fill:#ff7f2a;font-family:Topmarks;-inkscape-font-specification:Topmarks;opacity:0.7"
         d="m 109.88698,1726.087 c 16.49159,0 29.44061,-5.8637 38.84711,-17.5911 9.40624,-11.8496 14.10942,-26.9365 14.10957,-45.2607 l 0,-80.8093 c -9.773,-3.176 -18.87397,-4.764 -27.30292,-4.7642 -20.76743,2e-4 -37.869918,8.0017 -51.307515,24.0046 -13.315583,16.0032 -19.973333,37.3812 -19.973282,64.1344 -5.1e-5,18.3242 4.092325,32.9835 12.277159,43.9778 8.306858,10.8724 19.423467,16.3085 33.349878,16.3085"
         id="path6226"
         inkscape:connector-curvature="0" />
      <path
         style="font-variant:normal;font-stretch:normal;fill:#ff7f2a;font-family:Topmarks;-inkscape-font-specification:Topmarks;opacity:0.7"
         d="m 321.94393,1725.354 c 17.95754,0 31.70062,-6.1691 41.22923,-18.5073 9.6506,-12.3382 14.4759,-28.2801 14.4761,-47.8259 l 0,-74.2127 c -0.12239,2e-4 -2.13798,-0.6107 -6.04697,-1.8325 -3.9093,-1.3435 -6.8412,-2.2597 -8.79559,-2.7486 -1.83262,-0.4884 -4.64222,-1.0382 -8.42913,-1.6491 -3.66492,-0.6106 -7.02438,-0.916 -10.07826,-0.9162 -21.2561,2e-4 -38.11422,7.7574 -50.57453,23.2716 -12.33829,15.3924 -18.5074,36.2207 -18.50735,62.4852 -5e-5,18.4464 4.21449,33.4111 12.64364,44.8941 8.55117,11.361 19.91211,17.0414 34.08286,17.0414"
         id="path6230"
         inkscape:connector-curvature="0" />
    </g>
  </g>
</svg>
