<?xml version="1.0" encoding="UTF-8" standalone="no"?>
<!-- Created with Inkscape (http://www.inkscape.org/) -->

<svg
   xmlns:dc="http://purl.org/dc/elements/1.1/"
   xmlns:cc="http://creativecommons.org/ns#"
   xmlns:rdf="http://www.w3.org/1999/02/22-rdf-syntax-ns#"
   xmlns:svg="http://www.w3.org/2000/svg"
   xmlns="http://www.w3.org/2000/svg"
   xmlns:sodipodi="http://sodipodi.sourceforge.net/DTD/sodipodi-0.dtd"
   xmlns:inkscape="http://www.inkscape.org/namespaces/inkscape"
   width="1052.3622"
   height="744.09448"
   id="svg2"
   version="1.1"
   inkscape:version="0.48.4 r"
   sodipodi:docname="drawing-1.svg">
  <defs
     id="defs4">
    <marker
       inkscape:stockid="Arrow2Lend"
       orient="auto"
       refY="0"
       refX="0"
       id="Arrow2Lend"
       style="overflow:visible">
      <path
         id="path3793"
         style="fill-rule:evenodd;stroke-width:0.625;stroke-linejoin:round"
         d="M 8.7185878,4.0337352 -2.2072895,0.01601326 8.7185884,-4.0017078 c -1.7454984,2.3720609 -1.7354408,5.6174519 -6e-7,8.035443 z"
         transform="matrix(-1.1,0,0,-1.1,-1.1,0)"
         inkscape:connector-curvature="0" />
    </marker>
    <marker
       inkscape:stockid="Arrow1Lend"
       orient="auto"
       refY="0"
       refX="0"
       id="Arrow1Lend"
       style="overflow:visible">
      <path
         id="path3775"
         d="M 0,0 5,-5 -12.5,0 5,5 0,0 z"
         style="fill-rule:evenodd;stroke:#000000;stroke-width:1pt"
         transform="matrix(-0.8,0,0,-0.8,-10,0)"
         inkscape:connector-curvature="0" />
    </marker>
    <marker
       inkscape:stockid="DotL"
       orient="auto"
       refY="0"
       refX="0"
       id="DotL"
       style="overflow:visible">
      <path
         id="path3833"
         d="m -2.5,-1 c 0,2.76 -2.24,5 -5,5 -2.76,0 -5,-2.24 -5,-5 0,-2.76 2.24,-5 5,-5 2.76,0 5,2.24 5,5 z"
         style="fill-rule:evenodd;stroke:#000000;stroke-width:1pt"
         transform="matrix(0.8,0,0,0.8,5.92,0.8)"
         inkscape:connector-curvature="0" />
    </marker>
    <marker
       inkscape:stockid="DotM"
       orient="auto"
       refY="0"
       refX="0"
       id="DotM"
       style="overflow:visible">
      <path
         id="path3836"
         d="m -2.5,-1 c 0,2.76 -2.24,5 -5,5 -2.76,0 -5,-2.24 -5,-5 0,-2.76 2.24,-5 5,-5 2.76,0 5,2.24 5,5 z"
         style="fill-rule:evenodd;stroke:#000000;stroke-width:1pt"
         transform="matrix(0.4,0,0,0.4,2.96,0.4)"
         inkscape:connector-curvature="0" />
    </marker>
    <filter
       inkscape:collect="always"
       id="filter4014">
      <feGaussianBlur
         inkscape:collect="always"
         stdDeviation="1.5086188"
         id="feGaussianBlur4016" />
    </filter>
  </defs>
  <sodipodi:namedview
     id="base"
     pagecolor="#ffffff"
     bordercolor="#666666"
     borderopacity="1.0"
     inkscape:pageopacity="0.0"
     inkscape:pageshadow="2"
     inkscape:zoom="0.4"
     inkscape:cx="79.5"
     inkscape:cy="-1002.0833"
     inkscape:document-units="px"
     inkscape:current-layer="layer1"
     showgrid="false"
     inkscape:window-width="1515"
     inkscape:window-height="667"
     inkscape:window-x="91"
     inkscape:window-y="145"
     inkscape:window-maximized="0"
     showguides="true"
     inkscape:guide-bbox="true" />
  <metadata
     id="metadata7">
    <rdf:RDF>
      <cc:Work
         rdf:about="">
        <dc:format>image/svg+xml</dc:format>
        <dc:type
           rdf:resource="http://purl.org/dc/dcmitype/StillImage" />
        <dc:title />
      </cc:Work>
    </rdf:RDF>
  </metadata>
  <g
     inkscape:label="Layer 1"
     inkscape:groupmode="layer"
     id="layer1"
     transform="translate(0,-308.2677)">
    <path
       sodipodi:type="arc"
       style="opacity:0.7;fill:none;stroke:#252525;stroke-width:1;stroke-miterlimit:4;stroke-opacity:1;stroke-dasharray:none;stroke-dashoffset:0"
       id="path4784"
       sodipodi:cx="38.075436"
       sodipodi:cy="1269.9471"
       sodipodi:rx="29.842911"
       sodipodi:ry="29.842911"
       d="m 67.918346,1269.9471 c 0,16.4818 -13.361126,29.843 -29.84291,29.843 -16.481785,0 -29.8429111,-13.3612 -29.8429111,-29.843 0,-16.4817 13.3611261,-29.8429 29.8429111,-29.8429 16.481784,0 29.84291,13.3612 29.84291,29.8429 z"
       transform="matrix(1.1288753,0,0,1.1288753,429.00347,296.51339)" />
    <path
       transform="matrix(1.1288753,0,0,1.1288753,685.00347,296.51339)"
       d="m 67.918346,1269.9471 c 0,16.4818 -13.361126,29.843 -29.84291,29.843 -16.481785,0 -29.8429111,-13.3612 -29.8429111,-29.843 0,-16.4817 13.3611261,-29.8429 29.8429111,-29.8429 16.481784,0 29.84291,13.3612 29.84291,29.8429 z"
       sodipodi:ry="29.842911"
       sodipodi:rx="29.842911"
       sodipodi:cy="1269.9471"
       sodipodi:cx="38.075436"
       id="path4786"
       style="opacity:0.7;fill:none;stroke:#252525;stroke-width:1;stroke-miterlimit:4;stroke-opacity:1;stroke-dasharray:none;stroke-dashoffset:0"
       sodipodi:type="arc" />
    <path
       transform="matrix(1.1288753,0,0,1.1288753,185.00347,296.51339)"
       d="m 67.918346,1269.9471 c 0,16.4818 -13.361126,29.843 -29.84291,29.843 -16.481785,0 -29.8429111,-13.3612 -29.8429111,-29.843 0,-16.4817 13.3611261,-29.8429 29.8429111,-29.8429 16.481784,0 29.84291,13.3612 29.84291,29.8429 z"
       sodipodi:ry="29.842911"
       sodipodi:rx="29.842911"
       sodipodi:cy="1269.9471"
       sodipodi:cx="38.075436"
       id="path4782"
       style="opacity:0.7;fill:none;stroke:#252525;stroke-width:1;stroke-miterlimit:4;stroke-opacity:1;stroke-dasharray:none;stroke-dashoffset:0"
       sodipodi:type="arc" />
    <g
       id="g3962"
       style="font-size:365.48626709px;font-style:normal;font-weight:normal;line-height:125%;letter-spacing:0px;word-spacing:0px;fill:#d2e8ea;fill-opacity:1;stroke:none;filter:url(#filter4014);font-family:Sans"
       transform="translate(450.66666,0)">
      <path
         inkscape:connector-curvature="0"
         id="path3964"
         style="font-variant:normal;font-stretch:normal;fill:#d2e8ea;fill-opacity:1;font-family:Topmarks;-inkscape-font-specification:Topmarks"
         d="m 158.67691,1405.6296 2.49844,-23.9137 c -2.85536,0.1785 -5.53226,0.1785 -8.0307,0.1785 -32.30125,0 -33.72896,-12.8492 -33.72896,-35.1567 l 0,-221.2905 -30.338214,0 0,220.2198 c 0,32.4797 3.569253,60.498 55.322624,60.498 4.4615,0 9.10147,-0.1785 14.27681,-0.5354" />
      <path
         id="path3966"
         style="font-variant:normal;font-stretch:normal;fill:#d2e8ea;fill-opacity:1;font-family:Topmarks;-inkscape-font-specification:Topmarks"
         d="m 273.85755,1405.6296 2.49844,-23.9137 c -2.6769,0.1785 -4.99688,0.1785 -7.31686,0.1785 -29.08897,0 -29.089,-12.8492 -29.089,-35.1567 l 0,-125.9928 -30.33821,0 0,124.9221 c 0,32.4797 2.14157,60.498 50.86112,60.498 4.10458,0 8.56609,-0.1785 13.38451,-0.5354 m -47.64885,-222.3613 0.17846,0 c 10.52914,0 20.87984,-6.603 20.87984,-19.6306 0,-13.206 -10.52916,-19.9875 -20.87984,-19.9875 l -0.17846,0 c -10.70759,0 -21.41521,6.603 -21.41521,19.809 0,13.0276 10.70762,19.8091 21.41521,19.8091"
         inkscape:connector-curvature="0" />
      <path
         id="path3968"
         style="font-variant:normal;font-stretch:normal;fill:#d2e8ea;fill-opacity:1;font-family:Topmarks;-inkscape-font-specification:Topmarks"
         d="m 407.70261,1405.6296 2.49844,-23.9137 c -3.21227,0.1785 -6.2461,0.1785 -9.10146,0.1785 -36.76274,0 -39.7966,-12.8492 -39.7966,-35.1567 l 0,-184.3492 -30.33822,0 0,183.2785 c 0,32.4797 6.60308,60.498 61.56874,60.498 4.63995,0 9.81531,-0.1785 15.1691,-0.5354 m -112.96523,-165.9679 117.06982,0 0,-18.9168 -117.06982,0 0,18.9168"
         inkscape:connector-curvature="0" />
    </g>
    <path
       style="opacity:0.50458714999999998;fill:none;fill-opacity:1;fill-rule:nonzero;stroke:#000000;stroke-opacity:1"
       d="m 178.03393,1385.0089 c 0,30.9389 -24.55732,56.02 -54.8503,56.02 -30.292982,0 -54.850294,-25.0811 -54.850294,-56.02 0,-30.9388 24.557312,-56.0199 54.850294,-56.0199 30.29298,0 54.8503,25.0811 54.8503,56.0199 z"
       id="path6207"
       inkscape:connector-curvature="0" />
    <path
       inkscape:connector-curvature="0"
       id="path3918"
       d="m 302.70648,1385.0089 c 0,30.9389 -24.55731,56.02 -54.85029,56.02 -30.29299,0 -54.8503,-25.0811 -54.8503,-56.02 0,-30.9388 24.55731,-56.0199 54.8503,-56.0199 30.29298,0 54.85029,25.0811 54.85029,56.0199 z"
       style="opacity:0.50458714999999998;fill:none;fill-opacity:1;fill-rule:nonzero;stroke:#000000;stroke-opacity:1" />
    <path
       style="opacity:0.50458714999999998;fill:none;fill-opacity:1;fill-rule:nonzero;stroke:#000000;stroke-opacity:1"
       d="m 428.37315,1385.0089 c 0,30.9389 -24.55731,56.02 -54.85029,56.02 -30.29299,0 -54.8503,-25.0811 -54.8503,-56.02 0,-30.9388 24.55731,-56.0199 54.8503,-56.0199 30.29298,0 54.85029,25.0811 54.85029,56.0199 z"
       id="path3920"
       inkscape:connector-curvature="0" />
    <text
       xml:space="preserve"
       style="font-size:365.48626709px;font-style:normal;font-weight:normal;line-height:125%;letter-spacing:0px;word-spacing:0px;fill:#0090d6;fill-opacity:1;stroke:none;font-family:Sans"
       x="122.74422"
       y="613.84503"
       id="text2985"
       sodipodi:linespacing="125%"><tspan
         sodipodi:role="line"
         id="tspan2987"
         x="122.74422"
         y="613.84503"
         style="font-style:normal;font-variant:normal;font-weight:bold;font-stretch:normal;fill:#0090d6;fill-opacity:1;font-family:Topmarks;-inkscape-font-specification:Topmarks Bold">a</tspan></text>
    <path
       style="fill:none;stroke:#4e4e4e;stroke-width:2;stroke-linecap:butt;stroke-linejoin:miter;stroke-miterlimit:4;stroke-opacity:1;stroke-dasharray:none;marker-start:url(#DotM);marker-mid:none;marker-end:url(#Arrow2Lend)"
       d="m 285.54819,418.663 c -80.4878,-19.5122 -159.8986,24.03098 -157.34959,117.5122 2.61533,95.91308 90.30894,110.94309 130.95934,76.79675"
       id="path3766"
       inkscape:connector-curvature="0"
       sodipodi:nodetypes="csc" />
    <path
       style="fill:none;stroke:#4e4e4e;stroke-width:2;stroke-linecap:butt;stroke-linejoin:miter;stroke-miterlimit:4;stroke-opacity:1;stroke-dasharray:none;marker-start:none;marker-end:url(#Arrow2Lend)"
       d="m 224.19859,567.44349 c 13.00813,-0.81301 24.43469,-17.20855 24.45529,-37.08943 l 0.0488,-47.08943"
       id="path5142"
       inkscape:connector-curvature="0"
       sodipodi:nodetypes="csc" />
    <path
       sodipodi:nodetypes="cc"
       inkscape:connector-curvature="0"
       id="path5708"
       d="m 316.26363,602.02886 c 14.63415,4.87805 24.94108,3.79958 43.65854,-2.26016"
       style="fill:none;stroke:#4e4e4e;stroke-width:2;stroke-linecap:butt;stroke-linejoin:miter;stroke-miterlimit:4;stroke-opacity:1;stroke-dasharray:none;marker-start:none;marker-end:url(#Arrow2Lend)" />
    <path
       sodipodi:nodetypes="cc"
       inkscape:connector-curvature="0"
       id="path5710"
       d="m 312.88741,457.59107 -0.0488,93.08943"
       style="fill:none;stroke:#4e4e4e;stroke-width:2;stroke-linecap:butt;stroke-linejoin:miter;stroke-miterlimit:4;stroke-opacity:1;stroke-dasharray:none;marker-start:none;marker-end:url(#Arrow2Lend)" />
    <path
       style="fill:none;stroke:#ffffff;stroke-width:2;stroke-linecap:butt;stroke-linejoin:miter;stroke-miterlimit:4;stroke-opacity:1;stroke-dasharray:4, 4;stroke-dashoffset:0"
       d="m 279.48315,449.55731 c -51.21951,-25.20325 -118.69919,9.82113 -118.69919,84.61788 0,36.58537 22.76423,68.22765 56.09756,68.22765 52.85178,0 52.84554,-54.06505 52.84554,-54.06505"
       id="path5712"
       inkscape:connector-curvature="0"
       sodipodi:nodetypes="cssc" />
    <path
       sodipodi:nodetypes="ccc"
       inkscape:connector-curvature="0"
       id="path5714"
       d="m 281.10917,446.19145 0,107.12196 c 0,0 -4.36444,38.82686 30.08912,45.04794"
       style="fill:none;stroke:#ffffff;stroke-width:2;stroke-linecap:butt;stroke-linejoin:miter;stroke-miterlimit:4;stroke-opacity:1;stroke-dasharray:4, 4;stroke-dashoffset:0" />
    <text
       sodipodi:linespacing="125%"
       id="text5716"
       y="613.84503"
       x="387.88708"
       style="font-size:365.48626709px;font-style:normal;font-weight:normal;line-height:125%;letter-spacing:0px;word-spacing:0px;fill:#0090d6;fill-opacity:1;stroke:none;font-family:Sans"
       xml:space="preserve"><tspan
         style="font-style:normal;font-variant:normal;font-weight:bold;font-stretch:normal;fill:#0090d6;fill-opacity:1;font-family:Topmarks;-inkscape-font-specification:Topmarks Bold"
         y="613.84503"
         x="387.88708"
         id="tspan5718"
         sodipodi:role="line">b</tspan></text>
    <path
       style="fill:none;stroke:#4e4e4e;stroke-width:2;stroke-linecap:butt;stroke-linejoin:miter;stroke-miterlimit:4;stroke-opacity:1;stroke-dasharray:none;marker-start:none;marker-end:url(#Arrow2Lend)"
       d="m 458.34339,436.9882 c 16.15273,-17.56348 37.58279,-22.04758 54.81518,-22.04758 121.09023,0 122.05837,271.48074 -95.22169,202.03133"
       id="path5724"
       inkscape:connector-curvature="0"
       sodipodi:nodetypes="csc" />
    <path
       style="fill:none;stroke:#ffffff;stroke-width:2;stroke-linecap:butt;stroke-linejoin:miter;stroke-miterlimit:4;stroke-opacity:1;stroke-dasharray:4, 4;stroke-dashoffset:0"
       d="m 431.7293,347.11828 0,245.52846"
       id="path5732"
       inkscape:connector-curvature="0" />
    <path
       style="fill:none;stroke:#ffffff;stroke-width:2;stroke-linecap:butt;stroke-linejoin:miter;stroke-miterlimit:4;stroke-opacity:1;stroke-dasharray:4, 4;stroke-dashoffset:0"
       d="m 449.48805,472.97225 c 0,0 22.74424,-28.80504 47.67043,-28.80504 28.81198,0 55.82094,19.62044 56.45786,62.93083 0.9032,61.41716 -24.41005,111.08931 -112.60125,90.61635"
       id="path5734"
       inkscape:connector-curvature="0"
       sodipodi:nodetypes="cssc" />
    <path
       sodipodi:nodetypes="ccc"
       inkscape:connector-curvature="0"
       id="path5720"
       d="m 400.28455,344.61422 -0.87805,260.60163 c 0,0 16.76423,-86.61789 46.03251,-125.64228"
       style="fill:none;stroke:#4e4e4e;stroke-width:2;stroke-linecap:butt;stroke-linejoin:miter;stroke-miterlimit:4;stroke-opacity:1;stroke-dasharray:none;marker-start:url(#DotM);marker-mid:none;marker-end:url(#Arrow2Lend)" />
    <text
       sodipodi:linespacing="125%"
       id="text6131"
       y="613.84503"
       x="629.88702"
       style="font-size:365.48626709px;font-style:normal;font-weight:normal;line-height:125%;letter-spacing:0px;word-spacing:0px;fill:#0090d6;fill-opacity:1;stroke:none;font-family:Sans"
       xml:space="preserve"><tspan
         style="font-style:normal;font-variant:normal;font-weight:bold;font-stretch:normal;fill:#0090d6;fill-opacity:1;font-family:Topmarks;-inkscape-font-specification:Topmarks Bold"
         y="613.84503"
         x="629.88702"
         id="tspan6133"
         sodipodi:role="line">c</tspan></text>
    <path
       sodipodi:nodetypes="csc"
       inkscape:connector-curvature="0"
       id="path6135"
       d="m 796.65162,428.56443 c -79.99273,-36.83971 -161.31016,0.11452 -161.31016,95.61077 0,68.72383 44.76234,113.04165 114.62197,103.6489"
       style="fill:none;stroke:#4e4e4e;stroke-width:2;stroke-linecap:butt;stroke-linejoin:miter;stroke-miterlimit:4;stroke-opacity:1;stroke-dasharray:none;marker-start:url(#DotM);marker-mid:none;marker-end:url(#Arrow2Lend)" />
    <path
       style="fill:none;stroke:#4e4e4e;stroke-width:2;stroke-linecap:butt;stroke-linejoin:miter;stroke-miterlimit:4;stroke-opacity:1;stroke-dasharray:none;marker-start:none;marker-end:url(#Arrow2Lend)"
       d="m 785.94681,591.93029 c 15.12922,-5.51845 32.36716,-11.54764 54.05505,-27.01374"
       id="path6139"
       inkscape:connector-curvature="0"
       sodipodi:nodetypes="cc" />
    <path
       sodipodi:nodetypes="ccc"
       inkscape:connector-curvature="0"
       id="path6143"
       d="m 782.62601,452.54745 c -51.21951,-25.20325 -111.70905,-8.13944 -111.70905,66.65731 0,62.37586 46.58477,99.32931 108.42832,72.69934"
       style="fill:none;stroke:#ffffff;stroke-width:2;stroke-linecap:butt;stroke-linejoin:miter;stroke-miterlimit:4;stroke-opacity:1;stroke-dasharray:4, 4;stroke-dashoffset:0" />
    <path
       sodipodi:nodetypes="csc"
       inkscape:connector-curvature="0"
       id="path6151"
       d="m 285.54819,798.663 c -80.4878,-19.5122 -159.8986,24.03098 -157.34959,117.5122 2.61533,95.9131 90.30894,110.9431 130.95934,76.79675"
       style="fill:none;stroke:#4e4e4e;stroke-width:2;stroke-linecap:butt;stroke-linejoin:miter;stroke-miterlimit:4;stroke-opacity:1;stroke-dasharray:none;marker-start:url(#DotM);marker-mid:none;marker-end:url(#Arrow2Lend)" />
    <path
       sodipodi:nodetypes="csc"
       inkscape:connector-curvature="0"
       id="path6153"
       d="m 234.19859,947.44349 c 13.00813,-0.81301 24.43469,-17.20855 24.45529,-37.08943 l 0.0488,-47.08943"
       style="fill:none;stroke:#4e4e4e;stroke-width:2;stroke-linecap:butt;stroke-linejoin:miter;stroke-miterlimit:4;stroke-opacity:1;stroke-dasharray:none;marker-start:none;marker-end:url(#Arrow2Lend)" />
    <path
       style="fill:none;stroke:#4e4e4e;stroke-width:2;stroke-linecap:butt;stroke-linejoin:miter;stroke-miterlimit:4;stroke-opacity:1;stroke-dasharray:none;marker-start:none;marker-end:url(#Arrow2Lend)"
       d="m 316.26363,982.02886 c 14.63415,4.87805 24.94108,3.79958 43.65854,-2.26016"
       id="path6155"
       inkscape:connector-curvature="0"
       sodipodi:nodetypes="cc" />
    <path
       style="fill:none;stroke:#4e4e4e;stroke-width:2;stroke-linecap:butt;stroke-linejoin:miter;stroke-miterlimit:4;stroke-opacity:1;stroke-dasharray:none;marker-start:none;marker-end:url(#Arrow2Lend)"
       d="m 312.88741,837.59107 -0.0488,93.08943"
       id="path6157"
       inkscape:connector-curvature="0"
       sodipodi:nodetypes="cc" />
    <path
       sodipodi:nodetypes="cssc"
       inkscape:connector-curvature="0"
       id="path6159"
       d="m 275.54383,826.78158 c -51.21951,-25.20325 -114.75987,12.59686 -114.75987,87.39361 0,36.58537 22.76423,68.22765 56.09756,68.22765 59.23505,0 64.03717,-76.40648 64.03717,-76.40648"
       style="fill:none;stroke:#000000;stroke-width:4;stroke-linecap:butt;stroke-linejoin:miter;stroke-miterlimit:4;stroke-opacity:1;stroke-dasharray:none;stroke-dashoffset:0" />
    <path
       style="fill:none;stroke:#000000;stroke-width:4;stroke-linecap:butt;stroke-linejoin:miter;stroke-miterlimit:4;stroke-opacity:1;stroke-dasharray:none;stroke-dashoffset:0"
       d="m 281.10917,826.19145 0,107.12196 c 0,0 -4.36444,38.82686 30.08912,45.04794"
       id="path6161"
       inkscape:connector-curvature="0"
       sodipodi:nodetypes="ccc" />
    <path
       sodipodi:nodetypes="csc"
       inkscape:connector-curvature="0"
       id="path6167"
       d="m 458.34339,816.9882 c 16.15273,-17.56348 37.58279,-22.04758 54.81518,-22.04758 121.09023,0 122.05837,271.48078 -95.22169,202.03133"
       style="fill:none;stroke:#4e4e4e;stroke-width:2;stroke-linecap:butt;stroke-linejoin:miter;stroke-miterlimit:4;stroke-opacity:1;stroke-dasharray:none;marker-start:none;marker-end:url(#Arrow2Lend)" />
    <path
       inkscape:connector-curvature="0"
       id="path6169"
       d="m 431.7293,727.11828 0,249.518"
       style="fill:none;stroke:#000000;stroke-width:4;stroke-linecap:butt;stroke-linejoin:miter;stroke-miterlimit:4;stroke-opacity:1;stroke-dasharray:none;stroke-dashoffset:0"
       sodipodi:nodetypes="cc" />
    <path
       sodipodi:nodetypes="cssc"
       inkscape:connector-curvature="0"
       id="path6171"
       d="m 431.93407,876.9095 c 0,0 21.14842,-52.74229 65.22441,-52.74229 28.81198,0 55.82094,19.62044 56.45786,62.93083 0.9032,61.41716 -35.79847,111.08931 -123.98967,90.61635"
       style="fill:none;stroke:#000000;stroke-width:4;stroke-linecap:butt;stroke-linejoin:miter;stroke-miterlimit:4;stroke-opacity:1;stroke-dasharray:none;stroke-dashoffset:0" />
    <path
       style="fill:none;stroke:#4e4e4e;stroke-width:2;stroke-linecap:butt;stroke-linejoin:miter;stroke-miterlimit:4;stroke-opacity:1;stroke-dasharray:none;marker-start:url(#DotM);marker-mid:none;marker-end:url(#Arrow2Lend)"
       d="m 400.28455,724.61422 -0.87805,260.60163 c 0,0 21.55167,-69.86182 25.2869,-82.55524"
       id="path6173"
       inkscape:connector-curvature="0"
       sodipodi:nodetypes="ccc" />
    <path
       style="fill:none;stroke:#4e4e4e;stroke-width:2;stroke-linecap:butt;stroke-linejoin:miter;stroke-miterlimit:4;stroke-opacity:1;stroke-dasharray:none;marker-start:url(#DotM);marker-mid:none;marker-end:url(#Arrow2Lend)"
       d="m 785.4809,806.96861 c -60.04502,-34.44598 -147.74572,0.91243 -147.74572,96.40868 0,68.72383 56.73097,121.81871 136.96341,97.26561"
       id="path6179"
       inkscape:connector-curvature="0"
       sodipodi:nodetypes="csc" />
    <path
       sodipodi:nodetypes="cc"
       inkscape:connector-curvature="0"
       id="path6181"
       d="m 791.19167,965.38657 c 11.17761,-4.64031 25.78114,-12.86485 44.39555,-25.25747"
       style="fill:none;stroke:#4e4e4e;stroke-width:2;stroke-linecap:butt;stroke-linejoin:miter;stroke-miterlimit:4;stroke-opacity:1;stroke-dasharray:none;marker-start:none;marker-end:url(#Arrow2Lend)" />
    <path
       style="fill:none;stroke:#000000;stroke-width:4;stroke-linecap:butt;stroke-linejoin:miter;stroke-miterlimit:4;stroke-opacity:1;stroke-dasharray:none;stroke-dashoffset:0"
       d="m 782.62601,832.54745 c -51.21951,-25.20325 -111.70905,-8.13944 -111.70905,66.65731 0,62.37586 46.58477,99.32931 108.42832,72.69934"
       id="path6183"
       inkscape:connector-curvature="0"
       sodipodi:nodetypes="ccc" />
    <path
       style="fill:none;stroke:#4e4e4e;stroke-width:2;stroke-linecap:butt;stroke-linejoin:miter;stroke-miterlimit:4;stroke-opacity:1;stroke-dasharray:none;marker-start:none;marker-end:url(#Arrow2Lend)"
       d="m 447.90151,882.36217 c 17.12596,-38.7451 51.45966,-57.57352 82.42736,-19.71388"
       id="path6185"
       inkscape:connector-curvature="0"
       sodipodi:nodetypes="cc" />
    <g
       style="font-size:365.48626709px;font-style:normal;font-weight:normal;line-height:125%;letter-spacing:0px;word-spacing:0px;fill:#333333;fill-opacity:1;stroke:none;font-family:Sans"
       id="text6187">
      <path
         d="m 158.67691,1405.6296 2.49844,-23.9137 c -2.85536,0.1785 -5.53226,0.1785 -8.0307,0.1785 -32.30125,0 -33.72896,-12.8492 -33.72896,-35.1567 l 0,-221.2905 -30.338214,0 0,220.2198 c 0,32.4797 3.569253,60.498 55.322624,60.498 4.4615,0 9.10147,-0.1785 14.27681,-0.5354"
         style="font-variant:normal;font-stretch:normal;fill:#333333;font-family:Topmarks;-inkscape-font-specification:Topmarks"
         id="path3117"
         inkscape:connector-curvature="0" />
      <path
         d="m 273.85755,1405.6296 2.49844,-23.9137 c -2.6769,0.1785 -4.99688,0.1785 -7.31686,0.1785 -29.08897,0 -29.089,-12.8492 -29.089,-35.1567 l 0,-125.9928 -30.33821,0 0,124.9221 c 0,32.4797 2.14157,60.498 50.86112,60.498 4.10458,0 8.56609,-0.1785 13.38451,-0.5354 m -47.64885,-222.3613 0.17846,0 c 10.52914,0 20.87984,-6.603 20.87984,-19.6306 0,-13.206 -10.52916,-19.9875 -20.87984,-19.9875 l -0.17846,0 c -10.70759,0 -21.41521,6.603 -21.41521,19.809 0,13.0276 10.70762,19.8091 21.41521,19.8091"
         style="font-variant:normal;font-stretch:normal;fill:#333333;font-family:Topmarks;-inkscape-font-specification:Topmarks"
         id="path3119" />
      <path
         d="m 407.70261,1405.6296 2.49844,-23.9137 c -3.21227,0.1785 -6.2461,0.1785 -9.10146,0.1785 -36.76274,0 -39.7966,-12.8492 -39.7966,-35.1567 l 0,-184.3492 -30.33822,0 0,183.2785 c 0,32.4797 6.60308,60.498 61.56874,60.498 4.63995,0 9.81531,-0.1785 15.1691,-0.5354 m -112.96523,-165.9679 117.06982,0 0,-18.9168 -117.06982,0 0,18.9168"
         style="font-variant:normal;font-stretch:normal;fill:#333333;font-family:Topmarks;-inkscape-font-specification:Topmarks"
         id="path3121" />
    </g>
    <g
       style="font-size:74.20462036px;font-style:normal;font-weight:normal;line-height:125%;letter-spacing:0px;word-spacing:0px;fill:#333333;fill-opacity:1;stroke:none;font-family:Sans"
       id="text6195"
       transform="translate(-480,830)">
      <path
         d="m 492.22211,1404.3888 30.90652,0 0,-5.0001 -24.60202,0 0,-51.523 -6.3045,0 0,56.5231"
         style="font-variant:normal;font-stretch:normal;fill:#333333;font-family:Topmarks;-inkscape-font-specification:Topmarks"
         id="path3094"
         inkscape:connector-curvature="0" />
      <path
         d="m 544.43347,1404.7511 0.50726,-4.8552 c -0.54349,0.036 -1.01452,0.036 -1.48554,0.036 -5.90593,0 -5.90594,-2.6088 -5.90594,-7.1379 l 0,-25.5803 -6.15956,0 0,25.3629 c 0,6.5944 0.4348,12.2829 10.32633,12.2829 0.83335,0 1.73917,-0.036 2.71745,-0.1087 m -9.67414,-45.146 0.0362,0 c 2.13772,0 4.23922,-1.3406 4.23922,-3.9856 0,-2.6812 -2.13773,-4.058 -4.23922,-4.058 l -0.0362,0 c -2.17396,0 -4.34792,1.3406 -4.34792,4.0218 0,2.645 2.17396,4.0218 4.34792,4.0218"
         style="font-variant:normal;font-stretch:normal;fill:#333333;font-family:Topmarks;-inkscape-font-specification:Topmarks"
         id="path3096"
         inkscape:connector-curvature="0" />
      <path
         d="m 571.60801,1404.7511 0.50726,-4.8552 c -0.65219,0.036 -1.26814,0.036 -1.84787,0.036 -7.46393,0 -8.07989,-2.6088 -8.07989,-7.1379 l 0,-37.4284 -6.15957,0 0,37.211 c 0,6.5944 1.34062,12.2829 12.50029,12.2829 0.94205,0 1.9928,-0.036 3.07978,-0.1087 m -22.93531,-33.6964 23.76867,0 0,-3.8407 -23.76867,0 0,3.8407"
         style="font-variant:normal;font-stretch:normal;fill:#333333;font-family:Topmarks;-inkscape-font-specification:Topmarks"
         id="path3098"
         inkscape:connector-curvature="0" />
      <path
         d="m 601.02899,1404.7511 0.50726,-4.8552 c -0.65219,0.036 -1.26815,0.036 -1.84787,0.036 -7.46394,0 -8.0799,-2.6088 -8.0799,-7.1379 l 0,-37.4284 -6.15956,0 0,37.211 c 0,6.5944 1.34062,12.2829 12.50029,12.2829 0.94205,0 1.9928,-0.036 3.07978,-0.1087 m -22.93532,-33.6964 23.76867,0 0,-3.8407 -23.76867,0 0,3.8407"
         style="font-variant:normal;font-stretch:normal;fill:#333333;font-family:Topmarks;-inkscape-font-specification:Topmarks"
         id="path3100"
         inkscape:connector-curvature="0" />
      <path
         d="m 627.5151,1404.7511 0.50726,-4.8552 c -0.57972,0.036 -1.12321,0.036 -1.63047,0.036 -6.55812,0 -6.84798,-2.6088 -6.84798,-7.1379 l 0,-44.9286 -6.15957,0 0,44.7112 c 0,6.5944 0.72467,12.2829 11.23215,12.2829 0.90581,0 1.84787,-0.036 2.89861,-0.1087"
         style="font-variant:normal;font-stretch:normal;fill:#333333;font-family:Topmarks;-inkscape-font-specification:Topmarks"
         id="path3102"
         inkscape:connector-curvature="0" />
      <path
         d="m 639.65307,1385.584 c 0.0362,-8.7683 5.54362,-14.5293 11.55824,-14.5293 4.16676,0 6.88422,2.4638 6.88422,5.8697 0,5.8335 -10.97852,8.6596 -18.44246,8.6596 m 11.63071,19.6019 c 5.6523,0 10.10893,-1.4131 14.42062,-4.4204 l -2.1015,-4.4566 c -2.28265,1.3406 -6.30449,4.0943 -11.77563,4.0943 -4.34792,0 -10.97852,-2.6088 -11.99303,-10.435 11.70316,0 24.16722,-4.0581 24.16722,-12.9351 0,-6.0509 -4.96389,-10.7611 -12.46405,-10.7611 -11.48576,0 -18.1526,9.0219 -18.1526,19.8193 0,12.2104 8.00744,19.0946 17.89897,19.0946"
         style="font-variant:normal;font-stretch:normal;fill:#333333;font-family:Topmarks;-inkscape-font-specification:Topmarks"
         id="path3104"
         inkscape:connector-curvature="0" />
      <path
         d="m 719.69116,1404.3888 0,-4.4929 -7.53641,0 0,-47.5373 7.53641,0 0,-4.4929 -21.37731,0 0,4.4929 7.53641,0 0,47.5373 -7.53641,0 0,4.4929 21.37731,0"
         style="font-variant:normal;font-stretch:normal;fill:#333333;font-family:Topmarks;-inkscape-font-specification:Topmarks"
         id="path3106"
         inkscape:connector-curvature="0" />
      <path
         d="m 746.68455,1400.2583 c -5.6523,0 -9.23935,-5.0002 -9.23935,-12.2467 0,-10.3625 5.25375,-16.9569 13.65974,-16.9569 2.64498,0 5.14505,0.9783 6.59435,1.4131 l 0,14.6742 c 0,7.3553 -3.62328,13.1163 -11.01474,13.1163 m -12.1742,22.7179 c 4.09429,1.3044 7.71757,1.9203 10.90605,1.9203 12.60898,0 18.44246,-9.3118 18.44246,-20.8338 l 0,-34.6747 c -2.89862,-1.8841 -7.97121,-3.116 -12.64522,-3.116 -12.02926,0 -20.07293,8.261 -20.07293,22.1019 0,10.0003 6.0871,16.812 14.78295,16.812 4.92764,0 9.02195,-1.8116 11.77563,-6.3407 l 0,5.9784 c 0,9.4205 -4.16677,14.9279 -12.57275,14.9279 -2.86238,0 -6.15957,-0.616 -9.964,-1.9566 l -0.65219,5.1813"
         style="font-variant:normal;font-stretch:normal;fill:#333333;font-family:Topmarks;-inkscape-font-specification:Topmarks"
         id="path3108"
         inkscape:connector-curvature="0" />
      <path
         d="m 791.43196,1404.7511 0.50726,-4.8552 c -0.57973,0.036 -1.12322,0.036 -1.63047,0.036 -6.55812,0 -6.84799,-2.6088 -6.84799,-7.1379 l 0,-44.9286 -6.15956,0 0,44.7112 c 0,6.5944 0.72466,12.2829 11.23214,12.2829 0.90582,0 1.84787,-0.036 2.89862,-0.1087"
         style="font-variant:normal;font-stretch:normal;fill:#333333;font-family:Topmarks;-inkscape-font-specification:Topmarks"
         id="path3110"
         inkscape:connector-curvature="0" />
      <path
         d="m 815.41803,1405.1859 c 10.43501,0 17.8265,-7.7538 17.8265,-19.3845 0,-11.6307 -7.39149,-19.5294 -17.8265,-19.5294 -10.57995,0 -18.11636,7.8625 -18.11636,19.5294 0,11.5945 7.50018,19.3845 18.11636,19.3845 m 0,-4.7827 c -7.21031,0 -11.81187,-6.0146 -11.81187,-14.6018 0,-8.7683 4.6378,-14.7467 11.81187,-14.7467 7.06537,0 11.52201,6.0146 11.52201,14.7467 0,8.6234 -4.49287,14.6018 -11.52201,14.6018"
         style="font-variant:normal;font-stretch:normal;fill:#333333;font-family:Topmarks;-inkscape-font-specification:Topmarks"
         id="path3112"
         inkscape:connector-curvature="0" />
      <path
         d="m 859.04221,1405.1859 c 10.43501,0 17.8265,-7.7538 17.8265,-19.3845 0,-11.6307 -7.39149,-19.5294 -17.8265,-19.5294 -10.57995,0 -18.11637,7.8625 -18.11637,19.5294 0,11.5945 7.50019,19.3845 18.11637,19.3845 m 0,-4.7827 c -7.21031,0 -11.81187,-6.0146 -11.81187,-14.6018 0,-8.7683 4.63779,-14.7467 11.81187,-14.7467 7.06537,0 11.522,6.0146 11.522,14.7467 0,8.6234 -4.49286,14.6018 -11.522,14.6018"
         style="font-variant:normal;font-stretch:normal;fill:#333333;font-family:Topmarks;-inkscape-font-specification:Topmarks"
         id="path3114"
         inkscape:connector-curvature="0" />
    </g>
    <g
       style="font-size:99.38237px;font-style:normal;font-weight:normal;line-height:125%;letter-spacing:0px;word-spacing:0px;fill:#333333;fill-opacity:1;stroke:none;font-family:Sans"
       id="text6199"
       transform="translate(-480,830)">
      <path
         d="m 492.22215,1324.2601 41.39314,0 0,-6.6966 -32.94952,0 0,-69.0048 -8.44362,0 0,75.7014"
         style="font-variant:normal;font-stretch:normal;fill:#333333;font-family:Topmarks;-inkscape-font-specification:Topmarks"
         id="path3071"
         inkscape:connector-curvature="0" />
      <path
         d="m 562.1489,1324.7454 0.67937,-6.5026 c -0.72789,0.049 -1.35874,0.049 -1.98958,0.049 -7.90982,0 -7.90983,-3.494 -7.90983,-9.5598 l 0,-34.2597 -8.24951,0 0,33.9686 c 0,8.8318 0.58233,16.4505 13.83006,16.4505 1.11611,0 2.32928,-0.049 3.63949,-0.1456 m -12.95659,-60.4641 0.0485,0 c 2.86306,0 5.67761,-1.7955 5.67761,-5.3379 0,-3.591 -2.86307,-5.435 -5.67761,-5.435 l -0.0485,0 c -2.91159,0 -5.82318,1.7955 -5.82318,5.3865 0,3.5424 2.91159,5.3864 5.82318,5.3864"
         style="font-variant:normal;font-stretch:normal;fill:#333333;font-family:Topmarks;-inkscape-font-specification:Topmarks"
         id="path3073"
         inkscape:connector-curvature="0" />
      <path
         d="m 598.54382,1324.7454 0.67937,-6.5026 c -0.87348,0.049 -1.69843,0.049 -2.47486,0.049 -9.99645,0 -10.82142,-3.494 -10.82142,-9.5598 l 0,-50.1279 -8.24951,0 0,49.8368 c 0,8.8318 1.7955,16.4505 16.74166,16.4505 1.26169,0 2.66896,-0.049 4.12476,-0.1456 m -30.71731,-45.1297 31.83342,0 0,-5.1438 -31.83342,0 0,5.1438"
         style="font-variant:normal;font-stretch:normal;fill:#333333;font-family:Topmarks;-inkscape-font-specification:Topmarks"
         id="path3075"
         inkscape:connector-curvature="0" />
      <path
         d="m 637.94737,1324.7454 0.67937,-6.5026 c -0.87348,0.049 -1.69843,0.049 -2.47486,0.049 -9.99646,0 -10.82142,-3.494 -10.82142,-9.5598 l 0,-50.1279 -8.24951,0 0,49.8368 c 0,8.8318 1.7955,16.4505 16.74166,16.4505 1.26169,0 2.66896,-0.049 4.12476,-0.1456 m -30.71731,-45.1297 31.83342,0 0,-5.1438 -31.83342,0 0,5.1438"
         style="font-variant:normal;font-stretch:normal;fill:#333333;font-family:Topmarks;-inkscape-font-specification:Topmarks"
         id="path3077"
         inkscape:connector-curvature="0" />
      <path
         d="m 673.42028,1324.7454 0.67937,-6.5026 c -0.77642,0.049 -1.50432,0.049 -2.18369,0.049 -8.7833,0 -9.17152,-3.494 -9.17152,-9.5598 l 0,-60.1729 -8.24951,0 0,59.8818 c 0,8.8318 0.97054,16.4505 15.04323,16.4505 1.21316,0 2.47485,-0.049 3.88212,-0.1456"
         style="font-variant:normal;font-stretch:normal;fill:#333333;font-family:Topmarks;-inkscape-font-specification:Topmarks"
         id="path3079"
         inkscape:connector-curvature="0" />
      <path
         d="m 689.67666,1299.0749 c 0.0485,-11.7435 7.42457,-19.4592 15.47997,-19.4592 5.58055,0 9.22005,3.2998 9.22005,7.8613 0,7.8128 -14.70356,11.5979 -24.70002,11.5979 m 15.57703,26.2528 c 7.57013,0 13.53891,-1.8925 19.31356,-5.9202 l -2.81454,-5.9688 c -3.05717,1.7955 -8.44363,5.4835 -15.77113,5.4835 -5.82318,0 -14.70354,-3.4939 -16.06228,-13.9756 15.67406,0 32.3672,-5.435 32.3672,-17.324 0,-8.1039 -6.64814,-14.4124 -16.69313,-14.4124 -15.3829,0 -24.3118,12.0831 -24.3118,26.544 0,16.3535 10.72438,25.5735 23.97212,25.5735"
         style="font-variant:normal;font-stretch:normal;fill:#333333;font-family:Topmarks;-inkscape-font-specification:Topmarks"
         id="path3081"
         inkscape:connector-curvature="0" />
      <path
         d="m 796.87181,1324.2601 0,-6.0173 -10.09352,0 0,-63.6668 10.09352,0 0,-6.0173 -28.63067,0 0,6.0173 10.09353,0 0,63.6668 -10.09353,0 0,6.0173 28.63067,0"
         style="font-variant:normal;font-stretch:normal;fill:#333333;font-family:Topmarks;-inkscape-font-specification:Topmarks"
         id="path3083"
         inkscape:connector-curvature="0" />
      <path
         d="m 833.0241,1318.7281 c -7.57013,0 -12.37427,-6.6967 -12.37427,-16.402 0,-13.8785 7.03636,-22.7104 18.29451,-22.7104 3.54244,0 6.89077,1.3102 8.83183,1.8925 l 0,19.6533 c 0,9.8509 -4.85266,17.5666 -14.75207,17.5666 m -16.30492,30.4262 c 5.4835,1.7469 10.33616,2.5719 14.60649,2.5719 16.88723,0 24.70002,-12.4714 24.70002,-27.9028 l 0,-46.4399 c -3.88212,-2.5234 -10.67585,-4.1733 -16.93577,-4.1733 -16.1108,0 -26.88371,11.0641 -26.88371,29.6012 0,13.3933 8.15248,22.5163 19.79884,22.5163 6.5996,0 12.08311,-2.4263 15.77112,-8.4921 l 0,8.0069 c 0,12.6168 -5.58056,19.9929 -16.83871,19.9929 -3.83359,0 -8.24952,-0.825 -13.3448,-2.6204 l -0.87348,6.9393"
         style="font-variant:normal;font-stretch:normal;fill:#333333;font-family:Topmarks;-inkscape-font-specification:Topmarks"
         id="path3085"
         inkscape:connector-curvature="0" />
      <path
         d="m 892.95438,1324.7454 0.67937,-6.5026 c -0.77642,0.049 -1.50432,0.049 -2.18369,0.049 -8.7833,0 -9.17152,-3.494 -9.17152,-9.5598 l 0,-60.1729 -8.24951,0 0,59.8818 c 0,8.8318 0.97054,16.4505 15.04323,16.4505 1.21316,0 2.47485,-0.049 3.88212,-0.1456"
         style="font-variant:normal;font-stretch:normal;fill:#333333;font-family:Topmarks;-inkscape-font-specification:Topmarks"
         id="path3087"
         inkscape:connector-curvature="0" />
      <path
         d="m 925.07896,1325.3277 c 13.97563,0 23.87506,-10.3847 23.87506,-25.9617 0,-15.577 -9.89943,-26.1558 -23.87506,-26.1558 -14.16973,0 -24.26327,10.5303 -24.26327,26.1558 0,15.5285 10.04501,25.9617 24.26327,25.9617 m 0,-6.4055 c -9.65677,0 -15.81965,-8.0554 -15.81965,-19.5562 0,-11.7434 6.21141,-19.7503 15.81965,-19.7503 9.46267,0 15.43145,8.0554 15.43145,19.7503 0,11.5493 -6.01731,19.5562 -15.43145,19.5562"
         style="font-variant:normal;font-stretch:normal;fill:#333333;font-family:Topmarks;-inkscape-font-specification:Topmarks"
         id="path3089"
         inkscape:connector-curvature="0" />
      <path
         d="m 983.50493,1325.3277 c 13.97563,0 23.87507,-10.3847 23.87507,-25.9617 0,-15.577 -9.89944,-26.1558 -23.87507,-26.1558 -14.16974,0 -24.26328,10.5303 -24.26328,26.1558 0,15.5285 10.04501,25.9617 24.26328,25.9617 m 0,-6.4055 c -9.65678,0 -15.81966,-8.0554 -15.81966,-19.5562 0,-11.7434 6.21141,-19.7503 15.81966,-19.7503 9.46266,0 15.43144,8.0554 15.43144,19.7503 0,11.5493 -6.0173,19.5562 -15.43144,19.5562"
         style="font-variant:normal;font-stretch:normal;fill:#333333;font-family:Topmarks;-inkscape-font-specification:Topmarks"
         id="path3091"
         inkscape:connector-curvature="0" />
    </g>
    <g
       style="font-size:137.14900208px;font-style:normal;font-weight:normal;line-height:125%;letter-spacing:0px;word-spacing:0px;fill:#333333;fill-opacity:1;stroke:none;font-family:Sans"
       id="text6203"
       transform="translate(-480,830)">
      <path
         d="m 492.22211,1225.8225 57.12309,0 0,-9.2415 -45.47078,0 0,-95.2275 -11.65231,0 0,104.469"
         style="font-variant:normal;font-stretch:normal;fill:#333333;font-family:Topmarks;-inkscape-font-specification:Topmarks"
         id="path3048"
         inkscape:connector-curvature="0" />
      <path
         d="m 588.72197,1226.4922 0.93754,-8.9736 c -1.00451,0.067 -1.87508,0.067 -2.74566,0.067 -10.91565,0 -10.91566,-4.8216 -10.91566,-13.1925 l 0,-47.2789 -11.38444,0 0,46.8771 c 0,12.188 0.80362,22.7019 19.08567,22.7019 1.54025,0 3.21443,-0.067 5.02255,-0.2009 m -17.88027,-83.4413 0.067,0 c 3.95107,0 7.83517,-2.4778 7.83517,-7.3664 0,-4.9555 -3.95107,-7.5003 -7.83517,-7.5003 l -0.067,0 c -4.01803,0 -8.03607,2.4778 -8.03607,7.4334 0,4.8886 4.01804,7.4333 8.03607,7.4333"
         style="font-variant:normal;font-stretch:normal;fill:#333333;font-family:Topmarks;-inkscape-font-specification:Topmarks"
         id="path3050"
         inkscape:connector-curvature="0" />
      <path
         d="m 638.94744,1226.4922 0.93754,-8.9736 c -1.20541,0.067 -2.34386,0.067 -3.41533,0.067 -13.79525,0 -14.93371,-4.8216 -14.93371,-13.1925 l 0,-69.1772 -11.38444,0 0,68.7754 c 0,12.188 2.47781,22.7019 23.10372,22.7019 1.74114,0 3.6832,-0.067 5.69222,-0.2009 m -42.3903,-62.2796 43.93054,0 0,-7.0985 -43.93054,0 0,7.0985"
         style="font-variant:normal;font-stretch:normal;fill:#333333;font-family:Topmarks;-inkscape-font-specification:Topmarks"
         id="path3052"
         inkscape:connector-curvature="0" />
      <path
         d="m 693.32488,1226.4922 0.93754,-8.9736 c -1.20541,0.067 -2.34386,0.067 -3.41533,0.067 -13.79525,0 -14.93371,-4.8216 -14.93371,-13.1925 l 0,-69.1772 -11.38444,0 0,68.7754 c 0,12.188 2.47781,22.7019 23.10372,22.7019 1.74115,0 3.6832,-0.067 5.69222,-0.2009 m -42.3903,-62.2796 43.93054,0 0,-7.0985 -43.93054,0 0,7.0985"
         style="font-variant:normal;font-stretch:normal;fill:#333333;font-family:Topmarks;-inkscape-font-specification:Topmarks"
         id="path3054"
         inkscape:connector-curvature="0" />
      <path
         d="m 742.27795,1226.4922 0.93754,-8.9736 c -1.07147,0.067 -2.07598,0.067 -3.01352,0.067 -12.12107,0 -12.65682,-4.8216 -12.65682,-13.1925 l 0,-83.0395 -11.38444,0 0,82.6377 c 0,12.188 1.33937,22.7019 20.75986,22.7019 1.67418,0 3.41533,-0.067 5.35738,-0.2009"
         style="font-variant:normal;font-stretch:normal;fill:#333333;font-family:Topmarks;-inkscape-font-specification:Topmarks"
         id="path3056"
         inkscape:connector-curvature="0" />
      <path
         d="m 764.71201,1191.0665 c 0.067,-16.2061 10.24601,-26.8539 21.36256,-26.8539 7.70123,0 12.72379,4.5538 12.72379,10.8487 0,10.7817 -20.2911,16.0052 -34.08635,16.0052 m 21.4965,36.2293 c 10.44689,0 18.68388,-2.6117 26.65298,-8.17 l -3.8841,-8.237 c -4.21894,2.4778 -11.65232,7.5673 -21.76437,7.5673 -8.03607,0 -20.29109,-4.8217 -22.16617,-19.2866 21.63041,0 44.66718,-7.5003 44.66718,-23.9073 0,-11.1835 -9.17454,-19.8893 -23.03675,-19.8893 -21.22861,0 -33.55061,16.6749 -33.55061,36.6311 0,22.568 14.79979,35.2918 33.08184,35.2918"
         style="font-variant:normal;font-stretch:normal;fill:#333333;font-family:Topmarks;-inkscape-font-specification:Topmarks"
         id="path3058"
         inkscape:connector-curvature="0" />
      <path
         d="m 912.64274,1225.8225 0,-8.3039 -13.9292,0 0,-87.8611 13.9292,0 0,-8.304 -39.5107,0 0,8.304 13.92919,0 0,87.8611 -13.92919,0 0,8.3039 39.5107,0"
         style="font-variant:normal;font-stretch:normal;fill:#333333;font-family:Topmarks;-inkscape-font-specification:Topmarks"
         id="path3060"
         inkscape:connector-curvature="0" />
      <path
         d="m 962.53338,1218.1882 c -10.44689,0 -17.07666,-9.2415 -17.07666,-22.6349 0,-19.1526 9.71027,-31.3407 25.24667,-31.3407 4.8886,0 9.50936,1.8081 12.18804,2.6117 l 0,27.1218 c 0,13.5943 -6.69674,24.2421 -20.35805,24.2421 m -22.50101,41.9885 c 7.5673,2.4108 14.26404,3.5493 20.15715,3.5493 23.3046,0 34.08635,-17.2106 34.08635,-38.5062 l 0,-64.0877 c -5.35737,-3.4823 -14.73281,-5.7592 -23.37158,-5.7592 -22.23312,0 -37.09988,15.2686 -37.09988,40.8501 0,18.4829 11.25052,31.0728 27.32266,31.0728 9.10754,0 16.67486,-3.3484 21.76436,-11.7193 l 0,11.0496 c 0,17.4115 -7.70125,27.5905 -23.23764,27.5905 -5.29041,0 -11.38445,-1.1384 -18.41601,-3.6162 l -1.20541,9.5763"
         style="font-variant:normal;font-stretch:normal;fill:#333333;font-family:Topmarks;-inkscape-font-specification:Topmarks"
         id="path3062"
         inkscape:connector-curvature="0" />
      <path
         d="m 1045.238,1226.4922 0.9375,-8.9736 c -1.0715,0.067 -2.076,0.067 -3.0135,0.067 -12.1211,0 -12.6568,-4.8216 -12.6568,-13.1925 l 0,-83.0395 -11.3845,0 0,82.6377 c 0,12.188 1.3394,22.7019 20.7599,22.7019 1.6742,0 3.4153,-0.067 5.3574,-0.2009"
         style="font-variant:normal;font-stretch:normal;fill:#333333;font-family:Topmarks;-inkscape-font-specification:Topmarks"
         id="path3064"
         inkscape:connector-curvature="0" />
      <path
         d="m 1089.5703,1227.2958 c 19.2866,0 32.9479,-14.331 32.9479,-35.8275 0,-21.4965 -13.6613,-36.0954 -32.9479,-36.0954 -19.5544,0 -33.4836,14.5319 -33.4836,36.0954 0,21.4295 13.8622,35.8275 33.4836,35.8275 m 0,-8.8397 c -13.3264,0 -21.8313,-11.1166 -21.8313,-26.9878 0,-16.2061 8.5718,-27.2557 21.8313,-27.2557 13.0586,0 21.2956,11.1166 21.2956,27.2557 0,15.9382 -8.3039,26.9878 -21.2956,26.9878"
         style="font-variant:normal;font-stretch:normal;fill:#333333;font-family:Topmarks;-inkscape-font-specification:Topmarks"
         id="path3066"
         inkscape:connector-curvature="0" />
      <path
         d="m 1170.1989,1227.2958 c 19.2866,0 32.9479,-14.331 32.9479,-35.8275 0,-21.4965 -13.6613,-36.0954 -32.9479,-36.0954 -19.5544,0 -33.4836,14.5319 -33.4836,36.0954 0,21.4295 13.8622,35.8275 33.4836,35.8275 m 0,-8.8397 c -13.3264,0 -21.8313,-11.1166 -21.8313,-26.9878 0,-16.2061 8.5718,-27.2557 21.8313,-27.2557 13.0586,0 21.2956,11.1166 21.2956,27.2557 0,15.9382 -8.3039,26.9878 -21.2956,26.9878"
         style="font-variant:normal;font-stretch:normal;fill:#333333;font-family:Topmarks;-inkscape-font-specification:Topmarks"
         id="path3068"
         inkscape:connector-curvature="0" />
    </g>
    <text
       sodipodi:linespacing="125%"
       id="text6191"
       y="1743.845"
       x="14.887016"
       style="font-size:365.48626708999995572px;font-style:normal;font-weight:normal;line-height:125%;letter-spacing:0px;word-spacing:0px;fill:#1b84cb;fill-opacity:1;stroke:none;font-family:Sans;opacity:0.93577982000000004"
       xml:space="preserve"><tspan
         style="font-style:normal;font-variant:normal;font-weight:bold;font-stretch:normal;letter-spacing:29.93000031000000050px;fill:#1b84cb;fill-opacity:1;font-family:Topmarks;-inkscape-font-specification:Topmarks Bold"
         y="1743.845"
         x="14.887016"
         id="tspan6193"
         sodipodi:role="line">nau</tspan></text>
    <path
       sodipodi:nodetypes="csc"
       inkscape:connector-curvature="0"
       id="path3944"
       d="m 555.13172,1125.872 c 0,0 0,180.6389 0,210.509 0,29.8701 -3.08782,59.7401 52.09587,57.2088"
       style="fill:none;stroke:#000000;stroke-width:4;stroke-linecap:butt;stroke-linejoin:miter;stroke-miterlimit:4;stroke-opacity:1;stroke-dasharray:none" />
    <path
       style="fill:none;stroke:#000000;stroke-width:4;stroke-linecap:butt;stroke-linejoin:miter;stroke-miterlimit:4;stroke-opacity:1;stroke-dasharray:none"
       d="m 676.84855,1220.8093 c 0,0 0,85.7016 0,115.5717 0,29.8701 -6.12545,59.7401 49.05824,57.2088"
       id="path3946"
       inkscape:connector-curvature="0"
       sodipodi:nodetypes="csc" />
    <path
       style="fill:none;stroke:#000000;stroke-width:4;stroke-linecap:butt;stroke-linejoin:miter;stroke-miterlimit:4;stroke-opacity:1;stroke-dasharray:none"
       d="m 798.29212,1162.8595 c 0,0 0,143.6514 0,173.5215 0,29.8701 -1.16309,63.284 61.61469,57.2088"
       id="path3948"
       inkscape:connector-curvature="0"
       sodipodi:nodetypes="csc" />
    <path
       sodipodi:nodetypes="cc"
       inkscape:connector-curvature="0"
       id="path3950"
       d="m 869.00402,1391.1248 c 13.1662,-1.3029 31.27653,-7.8802 38.34714,-10.5125"
       style="fill:none;stroke:#4e4e4e;stroke-width:2;stroke-linecap:butt;stroke-linejoin:miter;stroke-miterlimit:4;stroke-opacity:1;stroke-dasharray:none;marker-start:none;marker-end:url(#Arrow2Lend)" />
    <path
       style="fill:none;stroke:#4e4e4e;stroke-width:2;stroke-linecap:butt;stroke-linejoin:miter;stroke-miterlimit:4;stroke-opacity:1;stroke-dasharray:none;marker-start:none;marker-end:url(#Arrow2Lend)"
       d="m 734.54835,1391.1248 c 13.1662,-1.3029 31.27653,-7.8802 38.34714,-10.5125"
       id="path3952"
       inkscape:connector-curvature="0"
       sodipodi:nodetypes="cc" />
    <path
       sodipodi:nodetypes="cc"
       inkscape:connector-curvature="0"
       id="path3954"
       d="m 618.51611,1391.1248 c 13.1662,-1.3029 31.27653,-7.8802 38.34714,-10.5125"
       style="fill:none;stroke:#4e4e4e;stroke-width:2;stroke-linecap:butt;stroke-linejoin:miter;stroke-miterlimit:4;stroke-opacity:1;stroke-dasharray:none;marker-start:none;marker-end:url(#Arrow2Lend)" />
    <path
       style="fill:none;stroke:#4e4e4e;stroke-width:2;stroke-linecap:butt;stroke-linejoin:miter;stroke-miterlimit:4;stroke-opacity:1;stroke-dasharray:none;marker-start:none;marker-end:url(#Arrow2Lend)"
       d="m 588.16068,1126.357 c 0,0 -0.73776,195.8136 -0.73776,223.2126"
       id="path3956"
       inkscape:connector-curvature="0"
       sodipodi:nodetypes="cc" />
    <path
       sodipodi:nodetypes="cc"
       inkscape:connector-curvature="0"
       id="path3958"
       d="m 708.16068,1226.357 c 0,0 -0.73776,95.8136 -0.73776,123.2126"
       style="fill:none;stroke:#4e4e4e;stroke-width:2;stroke-linecap:butt;stroke-linejoin:miter;stroke-miterlimit:4;stroke-opacity:1;stroke-dasharray:none;marker-start:none;marker-end:url(#Arrow2Lend)" />
    <path
       sodipodi:nodetypes="cc"
       inkscape:connector-curvature="0"
       id="path3960"
       d="m 836.16068,1164.357 c 0,0 -0.73776,157.8136 -0.73776,185.2126"
       style="fill:none;stroke:#4e4e4e;stroke-width:2;stroke-linecap:butt;stroke-linejoin:miter;stroke-miterlimit:4;stroke-opacity:1;stroke-dasharray:none;marker-start:none;marker-end:url(#Arrow2Lend)" />
    <path
       style="fill:none;stroke:#191919;stroke-width:2;stroke-linecap:butt;stroke-linejoin:miter;stroke-miterlimit:4;stroke-opacity:1;stroke-dasharray:none;marker-start:none;marker-end:url(#Arrow2Lend)"
       d="m 454.84944,1723.9581 c 25.45115,10.8745 55.20126,8.7112 78.34714,2.9875"
       id="path4018"
       inkscape:connector-curvature="0"
       sodipodi:nodetypes="cc" />
    <path
       sodipodi:nodetypes="cc"
       inkscape:connector-curvature="0"
       id="path4020"
       d="m 226.59942,1729.4581 c 21.9162,2.4471 57.52653,-7.8802 64.59714,-10.5125"
       style="fill:none;stroke:#262626;stroke-width:2;stroke-linecap:butt;stroke-linejoin:miter;stroke-miterlimit:4;stroke-opacity:1;stroke-dasharray:none;marker-start:none;marker-end:url(#Arrow2Lend)" />
    <path
       style="fill:none;stroke:#252525;stroke-width:2;stroke-linecap:butt;stroke-linejoin:miter;stroke-miterlimit:4;stroke-opacity:1;stroke-dasharray:none;marker-start:none;marker-end:url(#Arrow2Lend)"
       d="m 556.50369,1515.7859 c 3.26454,12.8214 6.90842,41.4965 6.84475,49.0409"
       id="path4022"
       inkscape:connector-curvature="0"
       sodipodi:nodetypes="cc" />
    <path
       sodipodi:nodetypes="cc"
       inkscape:connector-curvature="0"
       id="path4792"
       d="m 706.84944,1723.9581 c 25.45115,10.8745 55.20126,8.7112 78.34714,2.9875"
       style="fill:none;stroke:#191919;stroke-width:2;stroke-linecap:butt;stroke-linejoin:miter;stroke-miterlimit:4;stroke-opacity:1;stroke-dasharray:none;marker-start:none;marker-end:url(#Arrow2Lend)" />
    <g
       transform="matrix(0.64300133,0,0,0.64300133,-304.27736,1391.6862)"
       id="g4796"
       style="font-size:74.20462036px;font-style:normal;font-weight:normal;line-height:125%;letter-spacing:0px;word-spacing:0px;fill:#333333;fill-opacity:1;stroke:none;font-family:Sans">
      <path
         inkscape:connector-curvature="0"
         id="path4798"
         style="font-variant:normal;font-stretch:normal;fill:#333333;font-family:Topmarks;-inkscape-font-specification:Topmarks"
         d="m 492.22211,1404.3888 30.90652,0 0,-5.0001 -24.60202,0 0,-51.523 -6.3045,0 0,56.5231" />
      <path
         inkscape:connector-curvature="0"
         id="path4800"
         style="font-variant:normal;font-stretch:normal;fill:#333333;font-family:Topmarks;-inkscape-font-specification:Topmarks"
         d="m 544.43347,1404.7511 0.50726,-4.8552 c -0.54349,0.036 -1.01452,0.036 -1.48554,0.036 -5.90593,0 -5.90594,-2.6088 -5.90594,-7.1379 l 0,-25.5803 -6.15956,0 0,25.3629 c 0,6.5944 0.4348,12.2829 10.32633,12.2829 0.83335,0 1.73917,-0.036 2.71745,-0.1087 m -9.67414,-45.146 0.0362,0 c 2.13772,0 4.23922,-1.3406 4.23922,-3.9856 0,-2.6812 -2.13773,-4.058 -4.23922,-4.058 l -0.0362,0 c -2.17396,0 -4.34792,1.3406 -4.34792,4.0218 0,2.645 2.17396,4.0218 4.34792,4.0218" />
      <path
         inkscape:connector-curvature="0"
         id="path4802"
         style="font-variant:normal;font-stretch:normal;fill:#333333;font-family:Topmarks;-inkscape-font-specification:Topmarks"
         d="m 571.60801,1404.7511 0.50726,-4.8552 c -0.65219,0.036 -1.26814,0.036 -1.84787,0.036 -7.46393,0 -8.07989,-2.6088 -8.07989,-7.1379 l 0,-37.4284 -6.15957,0 0,37.211 c 0,6.5944 1.34062,12.2829 12.50029,12.2829 0.94205,0 1.9928,-0.036 3.07978,-0.1087 m -22.93531,-33.6964 23.76867,0 0,-3.8407 -23.76867,0 0,3.8407" />
      <path
         inkscape:connector-curvature="0"
         id="path4804"
         style="font-variant:normal;font-stretch:normal;fill:#333333;font-family:Topmarks;-inkscape-font-specification:Topmarks"
         d="m 601.02899,1404.7511 0.50726,-4.8552 c -0.65219,0.036 -1.26815,0.036 -1.84787,0.036 -7.46394,0 -8.0799,-2.6088 -8.0799,-7.1379 l 0,-37.4284 -6.15956,0 0,37.211 c 0,6.5944 1.34062,12.2829 12.50029,12.2829 0.94205,0 1.9928,-0.036 3.07978,-0.1087 m -22.93532,-33.6964 23.76867,0 0,-3.8407 -23.76867,0 0,3.8407" />
      <path
         inkscape:connector-curvature="0"
         id="path4806"
         style="font-variant:normal;font-stretch:normal;fill:#333333;font-family:Topmarks;-inkscape-font-specification:Topmarks"
         d="m 627.5151,1404.7511 0.50726,-4.8552 c -0.57972,0.036 -1.12321,0.036 -1.63047,0.036 -6.55812,0 -6.84798,-2.6088 -6.84798,-7.1379 l 0,-44.9286 -6.15957,0 0,44.7112 c 0,6.5944 0.72467,12.2829 11.23215,12.2829 0.90581,0 1.84787,-0.036 2.89861,-0.1087" />
      <path
         inkscape:connector-curvature="0"
         id="path4808"
         style="font-variant:normal;font-stretch:normal;fill:#333333;font-family:Topmarks;-inkscape-font-specification:Topmarks"
         d="m 639.65307,1385.584 c 0.0362,-8.7683 5.54362,-14.5293 11.55824,-14.5293 4.16676,0 6.88422,2.4638 6.88422,5.8697 0,5.8335 -10.97852,8.6596 -18.44246,8.6596 m 11.63071,19.6019 c 5.6523,0 10.10893,-1.4131 14.42062,-4.4204 l -2.1015,-4.4566 c -2.28265,1.3406 -6.30449,4.0943 -11.77563,4.0943 -4.34792,0 -10.97852,-2.6088 -11.99303,-10.435 11.70316,0 24.16722,-4.0581 24.16722,-12.9351 0,-6.0509 -4.96389,-10.7611 -12.46405,-10.7611 -11.48576,0 -18.1526,9.0219 -18.1526,19.8193 0,12.2104 8.00744,19.0946 17.89897,19.0946" />
      <path
         inkscape:connector-curvature="0"
         id="path4810"
         style="font-variant:normal;font-stretch:normal;fill:#333333;font-family:Topmarks;-inkscape-font-specification:Topmarks"
         d="m 719.69116,1404.3888 0,-4.4929 -7.53641,0 0,-47.5373 7.53641,0 0,-4.4929 -21.37731,0 0,4.4929 7.53641,0 0,47.5373 -7.53641,0 0,4.4929 21.37731,0" />
      <path
         inkscape:connector-curvature="0"
         id="path4812"
         style="font-variant:normal;font-stretch:normal;fill:#333333;font-family:Topmarks;-inkscape-font-specification:Topmarks"
         d="m 746.68455,1400.2583 c -5.6523,0 -9.23935,-5.0002 -9.23935,-12.2467 0,-10.3625 5.25375,-16.9569 13.65974,-16.9569 2.64498,0 5.14505,0.9783 6.59435,1.4131 l 0,14.6742 c 0,7.3553 -3.62328,13.1163 -11.01474,13.1163 m -12.1742,22.7179 c 4.09429,1.3044 7.71757,1.9203 10.90605,1.9203 12.60898,0 18.44246,-9.3118 18.44246,-20.8338 l 0,-34.6747 c -2.89862,-1.8841 -7.97121,-3.116 -12.64522,-3.116 -12.02926,0 -20.07293,8.261 -20.07293,22.1019 0,10.0003 6.0871,16.812 14.78295,16.812 4.92764,0 9.02195,-1.8116 11.77563,-6.3407 l 0,5.9784 c 0,9.4205 -4.16677,14.9279 -12.57275,14.9279 -2.86238,0 -6.15957,-0.616 -9.964,-1.9566 l -0.65219,5.1813" />
      <path
         inkscape:connector-curvature="0"
         id="path4814"
         style="font-variant:normal;font-stretch:normal;fill:#333333;font-family:Topmarks;-inkscape-font-specification:Topmarks"
         d="m 791.43196,1404.7511 0.50726,-4.8552 c -0.57973,0.036 -1.12322,0.036 -1.63047,0.036 -6.55812,0 -6.84799,-2.6088 -6.84799,-7.1379 l 0,-44.9286 -6.15956,0 0,44.7112 c 0,6.5944 0.72466,12.2829 11.23214,12.2829 0.90582,0 1.84787,-0.036 2.89862,-0.1087" />
      <path
         inkscape:connector-curvature="0"
         id="path4816"
         style="font-variant:normal;font-stretch:normal;fill:#333333;font-family:Topmarks;-inkscape-font-specification:Topmarks"
         d="m 815.41803,1405.1859 c 10.43501,0 17.8265,-7.7538 17.8265,-19.3845 0,-11.6307 -7.39149,-19.5294 -17.8265,-19.5294 -10.57995,0 -18.11636,7.8625 -18.11636,19.5294 0,11.5945 7.50018,19.3845 18.11636,19.3845 m 0,-4.7827 c -7.21031,0 -11.81187,-6.0146 -11.81187,-14.6018 0,-8.7683 4.6378,-14.7467 11.81187,-14.7467 7.06537,0 11.52201,6.0146 11.52201,14.7467 0,8.6234 -4.49287,14.6018 -11.52201,14.6018" />
      <path
         inkscape:connector-curvature="0"
         id="path4818"
         style="font-variant:normal;font-stretch:normal;fill:#333333;font-family:Topmarks;-inkscape-font-specification:Topmarks"
         d="m 859.04221,1405.1859 c 10.43501,0 17.8265,-7.7538 17.8265,-19.3845 0,-11.6307 -7.39149,-19.5294 -17.8265,-19.5294 -10.57995,0 -18.11637,7.8625 -18.11637,19.5294 0,11.5945 7.50019,19.3845 18.11637,19.3845 m 0,-4.7827 c -7.21031,0 -11.81187,-6.0146 -11.81187,-14.6018 0,-8.7683 4.63779,-14.7467 11.81187,-14.7467 7.06537,0 11.522,6.0146 11.522,14.7467 0,8.6234 -4.49286,14.6018 -11.522,14.6018" />
    </g>
    <path
       sodipodi:nodetypes="cc"
       inkscape:connector-curvature="0"
       id="path3115"
       d="m 54.50369,1517.7859 c 3.26454,12.8214 6.90842,39.4965 6.84475,47.0409"
       style="fill:none;stroke:#252525;stroke-width:2;stroke-linecap:butt;stroke-linejoin:miter;stroke-miterlimit:4;stroke-opacity:1;stroke-dasharray:none;marker-start:none;marker-end:url(#Arrow2Lend)" />
    <path
       sodipodi:nodetypes="cc"
       inkscape:connector-curvature="0"
       id="path3120"
       d="m 491.96641,1602.3388 c -21.7694,-17.0912 -51.0657,-22.7015 -74.9043,-23.1634"
       style="fill:none;stroke:#191919;stroke-width:2;stroke-linecap:butt;stroke-linejoin:miter;stroke-miterlimit:4;stroke-opacity:1;stroke-dasharray:none;marker-start:none;marker-end:url(#Arrow2Lend)" />
  </g>
</svg>
