<?xml version="1.0" encoding="UTF-8" standalone="no"?>
<!-- Created with Inkscape (http://www.inkscape.org/) -->

<svg
   xmlns:dc="http://purl.org/dc/elements/1.1/"
   xmlns:cc="http://creativecommons.org/ns#"
   xmlns:rdf="http://www.w3.org/1999/02/22-rdf-syntax-ns#"
   xmlns:svg="http://www.w3.org/2000/svg"
   xmlns="http://www.w3.org/2000/svg"
   xmlns:sodipodi="http://sodipodi.sourceforge.net/DTD/sodipodi-0.dtd"
   xmlns:inkscape="http://www.inkscape.org/namespaces/inkscape"
   version="1.1"
   width="144.8046"
   height="368.75507"
   id="svg2"
   inkscape:version="0.48.4 r"
   sodipodi:docname="f_f.svg">
  <sodipodi:namedview
     pagecolor="#ffffff"
     bordercolor="#666666"
     borderopacity="1"
     objecttolerance="10"
     gridtolerance="10"
     guidetolerance="10"
     inkscape:pageopacity="0"
     inkscape:pageshadow="2"
     inkscape:window-width="666"
     inkscape:window-height="480"
     id="namedview3178"
     showgrid="false"
     inkscape:zoom="0.63999121"
     inkscape:cx="72.402298"
     inkscape:cy="184.37753"
     inkscape:window-x="0"
     inkscape:window-y="22"
     inkscape:window-maximized="0"
     inkscape:current-layer="svg2" />
  <defs
     id="defs4" />
  <metadata
     id="metadata7">
    <rdf:RDF>
      <cc:Work
         rdf:about="">
        <dc:format>image/svg+xml</dc:format>
        <dc:type
           rdf:resource="http://purl.org/dc/dcmitype/StillImage" />
        <dc:title />
      </cc:Work>
    </rdf:RDF>
  </metadata>
  <g
     transform="translate(-96.10273,-322.78488)"
     id="layer1">
    <g
       style="font-size:77.58502197px;font-style:normal;font-weight:normal;line-height:125%;letter-spacing:0px;word-spacing:0px;opacity:0.3;fill:#333333;fill-opacity:1;stroke:none;font-family:Sans"
       id="text2985">
      <path
         d="m 137.81546,608.87903 0,-164.41356 -35.79973,0 0,-29.92781 35.79973,0 0,-8.90258 c -5e-5,-8.58667 0.18937,-15.72136 0.56825,-21.40407 0.37878,-5.80854 1.19959,-11.68045 2.46242,-17.61574 1.26272,-5.9348 3.03061,-10.73335 5.30366,-14.39566 2.39922,-3.78807 5.55615,-7.38698 9.47083,-10.79674 3.91453,-3.40923 8.71308,-5.99792 14.39565,-7.76608 5.80869,-1.76761 12.62768,-3.15666 20.45699,-4.16716 7.95539,-1.13622 17.23679,-1.70447 27.84423,-1.70475 l 9.84966,0 -1.51533,34.66323 c -7.19796,2.4e-4 -13.00673,0.18966 -17.42632,0.56825 -4.41984,0.2528 -8.46072,1.01046 -12.12266,2.27299 -3.53588,1.26302 -6.18771,2.71522 -7.9555,4.35658 -1.76798,1.51558 -3.22017,4.04113 -4.35658,7.57667 -1.13659,3.536 -1.83112,7.26119 -2.08358,11.17557 -0.25265,3.91483 -0.37892,9.28162 -0.37883,16.10041 l 0,10.03908 44.32347,0 0,29.92781 -44.32347,0 0,164.41356 -44.51289,0"
         style="font-size:387.92507935px;font-variant:normal;font-weight:bold;font-stretch:normal;fill:#333333;font-family:Muli;-inkscape-font-specification:Muli Bold"
         id="path3949" />
    </g>
    <g
       transform="scale(1.0025978,0.99740895)"
       style="font-size:77.78656769px;font-style:normal;font-weight:normal;line-height:125%;letter-spacing:0px;word-spacing:0px;opacity:0.3;fill:#333333;fill-opacity:1;stroke:none;font-family:Sans"
       id="text2989">
      <path
         d="m 106.15821,688.32341 c 51.08537,0 75.96345,-26.01753 75.96345,-75.77354 l 0,-165.79023 43.67898,0 0,-31.14501 -43.67898,0 0,-10.44498 c 0,-31.90461 11.58446,-38.17163 53.17441,-38.17163 l 0,-35.70282 -9.68534,0 c -51.845,0 -89.44696,12.15421 -89.44696,67.22765 l 0,17.09178 -35.323,0 0,31.14501 35.323,0 0,167.3095 c 0,25.82755 -9.30555,36.84227 -33.99364,36.84227 l 3.98808,37.412"
         style="font-size:388.93286133px;font-variant:normal;font-weight:bold;font-stretch:normal;fill:#333333;font-family:Topmarks;-inkscape-font-specification:Topmarks Bold"
         id="path3952" />
    </g>
  </g>
</svg>
