<?xml version="1.0" encoding="UTF-8" standalone="no"?>
<!-- Created with Inkscape (http://www.inkscape.org/) -->

<svg
   xmlns:dc="http://purl.org/dc/elements/1.1/"
   xmlns:cc="http://creativecommons.org/ns#"
   xmlns:rdf="http://www.w3.org/1999/02/22-rdf-syntax-ns#"
   xmlns:svg="http://www.w3.org/2000/svg"
   xmlns="http://www.w3.org/2000/svg"
   version="1.1"
   width="371.20023"
   height="167.48085"
   id="svg3898">
  <defs
     id="defs3900" />
  <metadata
     id="metadata3903">
    <rdf:RDF>
      <cc:Work
         rdf:about="">
        <dc:format>image/svg+xml</dc:format>
        <dc:type
           rdf:resource="http://purl.org/dc/dcmitype/StillImage" />
        <dc:title></dc:title>
      </cc:Work>
    </rdf:RDF>
  </metadata>
  <g
     transform="translate(-188.49722,-447.52905)"
     id="layer1">
    <g
       transform="scale(1.0262557,0.97441602)"
       id="text2985-5-4-8"
       style="font-size:41.05023193px;font-style:normal;font-weight:normal;line-height:125%;letter-spacing:0px;word-spacing:0px;opacity:0.8;fill:#241c1c;fill-opacity:1;stroke:none;font-family:Sans">
      <path
         d="m 231.73721,604.68152 c 6.07997,10e-6 11.45845,-1.46989 16.13546,-4.4097 4.74369,-3.00659 8.38502,-7.08221 10.92401,-12.22687 2.60565,-5.14461 3.90851,-10.92398 3.9086,-17.33811 l 0,-42.49341 c -1.33636,-0.66805 -3.00669,-1.26937 -5.01102,-1.80396 -1.93767,-0.53442 -4.0757,-0.9353 -6.4141,-1.20265 -2.33854,-0.33397 -4.71042,-0.50101 -7.11564,-0.5011 -11.35835,9e-5 -20.5452,4.27615 -27.56058,12.8282 -6.94864,8.48539 -10.42294,19.71005 -10.42291,33.67402 -3e-5,10.02206 2.33844,18.10649 7.01542,24.25331 4.67691,6.14686 10.85715,9.22028 18.54076,9.22027 m -2.40529,13.62995 c -11.82603,0 -21.48058,-4.24265 -28.96367,-12.72797 -7.48313,-8.4853 -11.22468,-19.60974 -11.22467,-33.37336 -10e-6,-9.01977 1.33626,-17.33805 4.00881,-24.95485 2.73934,-7.61667 6.5143,-14.06417 11.3249,-19.34252 4.87735,-5.34499 10.72353,-9.48742 17.53855,-12.42732 6.88174,-2.93969 14.36485,-4.40958 22.44934,-4.40969 6.34722,1.1e-4 12.69449,0.80187 19.04186,2.40529 6.41401,1.53681 11.62546,3.60803 15.63436,6.21366 l 0,68.55068 c -10e-5,4.94422 0.9687,8.65237 2.90639,11.12445 2.0043,2.4053 5.17794,3.60794 9.52093,3.60793 l -2.80617,13.52974 c -6.81508,0 -12.19356,-1.5033 -16.13547,-4.50991 -3.87527,-3.00661 -6.44759,-7.18245 -7.71696,-12.52754 -3.20713,5.67916 -8.08451,10.25588 -14.63216,13.73018 -6.48098,3.40749 -13.46298,5.11123 -20.94604,5.11123"
         id="path3924"
         style="font-size:205.25115967px;font-variant:normal;font-stretch:normal;fill:#241c1c;font-family:Topmarks;-inkscape-font-specification:Topmarks" />
      <path
         d="m 419.34959,605.0824 -2.10462,13.02863 -2.60573,0 c -5.47882,0 -10.05554,-0.76835 -13.73018,-2.30506 -3.60803,-1.60353 -6.4476,-4.00881 -8.51872,-7.21586 -2.0045,-3.20704 -3.40759,-6.88178 -4.20926,-11.02424 -0.80185,-4.20923 -1.20273,-9.32046 -1.20264,-15.3337 l 0,-23.85243 c -9e-5,-11.89274 -1.97109,-20.47827 -5.913,-25.75662 -3.87526,-5.27818 -9.62122,-7.91731 -17.23789,-7.9174 -3.80843,9e-5 -7.44976,0.76845 -10.92401,2.30507 -3.47435,1.5368 -6.64799,3.84186 -9.52093,6.9152 -2.80621,3.0735 -5.04446,7.21593 -6.71476,12.42731 -1.67037,5.21152 -2.50554,11.15792 -2.5055,17.83922 l 0,51.91411 -16.43613,0 0,-68.04958 c -2e-5,-10.35602 -4.10905,-18.97496 -12.3271,-25.85684 l 14.23128,-8.21806 c 6.14682,5.34518 9.75475,11.69246 10.82379,19.04186 3.1402,-6.68127 8.0844,-11.99294 14.83261,-15.93503 6.81492,-4.00871 14.53188,-6.01311 23.15089,-6.01322 10.42282,1.1e-4 18.84132,3.90869 25.25551,11.72578 6.48081,7.81726 9.72126,19.4094 9.72137,34.77644 l 0,22.75 c -1.1e-4,8.81942 0.93528,15.1667 2.80617,19.04186 1.93748,3.80838 5.44518,5.71257 10.52313,5.71256 l 2.60572,0"
         id="path3926"
         style="font-size:205.25115967px;font-variant:normal;font-stretch:normal;fill:#241c1c;font-family:Topmarks;-inkscape-font-specification:Topmarks" />
      <path
         d="m 509.44764,598.36764 c -2.93988,6.21367 -7.48319,11.09105 -13.62996,14.63216 -6.14691,3.54112 -12.96188,5.31167 -20.44494,5.31167 -12.1601,0 -22.0819,-4.20925 -29.76543,-12.62775 -7.68356,-8.4853 -11.52534,-20.3781 -11.52533,-35.67843 -10e-6,-7.6835 1.00219,-14.76573 3.00661,-21.2467 2.00439,-6.54765 4.71034,-12.09317 8.11784,-16.63657 3.47428,-4.54323 7.5165,-8.41841 12.12666,-11.62555 4.67691,-3.20695 9.6211,-5.57883 14.8326,-7.11564 5.27822,-1.53661 10.72351,-2.30496 16.33591,-2.30507 6.68128,1.1e-4 13.229,1.13594 19.64318,3.40749 l 0,-51.31279 16.53635,0 0,113.85025 c -1e-4,10.28932 0.76825,18.20671 2.30506,23.75221 1.53661,5.47872 3.70805,10.25589 6.51432,14.33151 l -16.23569,2.30506 c -2.00449,-2.33847 -3.77505,-5.27826 -5.31167,-8.81938 -1.46999,-3.60792 -2.30515,-7.01541 -2.50551,-10.22247 m -58.22799,-28.26213 c -3e-5,11.09108 2.43867,19.64321 7.31608,25.6564 4.87735,5.94642 11.091,8.91962 18.64098,8.91961 9.55427,10e-6 17.10419,-3.37407 22.64978,-10.12225 5.61226,-6.74814 8.41842,-16.06862 8.41851,-27.96147 l 0,-38.28415 c -6.74825,-2.40519 -13.12893,-3.60784 -19.14208,-3.60793 -11.75923,9e-5 -21.0129,4.27615 -27.76102,12.8282 -6.7482,8.5522 -10.12228,19.40939 -10.12225,32.57159"
         id="path3928"
         style="font-size:205.25115967px;font-variant:normal;font-stretch:normal;fill:#241c1c;font-family:Topmarks;-inkscape-font-specification:Topmarks" />
    </g>
    <path
       d="m 143.88186,377.67865 c 0,19.57465 -15.86839,35.44304 -35.44304,35.44304 -19.57465,0 -35.443039,-15.86839 -35.443039,-35.44304 0,-19.57465 15.868389,-35.44304 35.443039,-35.44304 19.57465,0 35.44304,15.86839 35.44304,35.44304 z"
       transform="matrix(0.54397197,0,0,0.54397197,268.12895,309.04833)"
       id="path3058"
       style="opacity:0.5;fill:#ff6600;stroke:none" />
    <path
       d="m 143.88186,377.67865 c 0,19.57465 -15.86839,35.44304 -35.44304,35.44304 -19.57465,0 -35.443039,-15.86839 -35.443039,-35.44304 0,-19.57465 15.868389,-35.44304 35.443039,-35.44304 19.57465,0 35.44304,15.86839 35.44304,35.44304 z"
       transform="matrix(0.49635292,0,0,0.49635292,243.12393,406.14693)"
       id="path3058-7"
       style="opacity:0.5;fill:#ff6600;stroke:none" />
    <path
       d="m 143.88186,377.67865 c 0,19.57465 -15.86839,35.44304 -35.44304,35.44304 -19.57465,0 -35.443039,-15.86839 -35.443039,-35.44304 0,-19.57465 15.868389,-35.44304 35.443039,-35.44304 19.57465,0 35.44304,15.86839 35.44304,35.44304 z"
       transform="matrix(0.55587673,0,0,0.55587673,358.59328,383.75889)"
       id="path3058-2"
       style="opacity:0.5;fill:#ff6600;stroke:none" />
    <path
       d="m 143.88186,377.67865 c 0,19.57465 -15.86839,35.44304 -35.44304,35.44304 -19.57465,0 -35.443039,-15.86839 -35.443039,-35.44304 0,-19.57465 15.868389,-35.44304 35.443039,-35.44304 19.57465,0 35.44304,15.86839 35.44304,35.44304 z"
       transform="matrix(0.54397197,0,0,0.54397197,477.62262,385.35211)"
       id="path3058-24"
       style="opacity:0.5;fill:#ff6600;stroke:none" />
  </g>
</svg>
