<?xml version="1.0" encoding="UTF-8" standalone="no"?>
<!-- Created with Inkscape (http://www.inkscape.org/) -->

<svg
   xmlns:dc="http://purl.org/dc/elements/1.1/"
   xmlns:cc="http://creativecommons.org/ns#"
   xmlns:rdf="http://www.w3.org/1999/02/22-rdf-syntax-ns#"
   xmlns:svg="http://www.w3.org/2000/svg"
   xmlns="http://www.w3.org/2000/svg"
   version="1.1"
   width="369.00778"
   height="130.37541"
   id="svg3898">
  <defs
     id="defs3900" />
  <metadata
     id="metadata3903">
    <rdf:RDF>
      <cc:Work
         rdf:about="">
        <dc:format>image/svg+xml</dc:format>
        <dc:type
           rdf:resource="http://purl.org/dc/dcmitype/StillImage" />
        <dc:title></dc:title>
      </cc:Work>
    </rdf:RDF>
  </metadata>
  <g
     transform="matrix(1.0262557,0,0,0.97441602,-192.58342,-487.79566)"
     id="text2985-5-4-8"
     style="font-size:41.05023193px;font-style:normal;font-weight:normal;line-height:125%;letter-spacing:0px;word-spacing:0px;opacity:0.8;fill:#241c1c;fill-opacity:1;stroke:none;font-family:Sans">
    <g
       id="text2985-5-4-8-8"
       style="font-size:31.50012589px;line-height:125%;opacity:0.91000001;font-family:Sans">
      <path
         d="m 221.41837,623.27497 c 5.74216,0 11.09984,-1.30738 16.07306,-3.92213 5.02437,-2.66603 8.76706,-6.178 11.22807,-10.53594 0.97406,4.10159 2.94794,7.30595 5.92165,9.61308 3.02484,2.30714 7.15205,3.46071 12.38165,3.46071 l 2.15332,-10.38212 c -3.33261,1e-5 -5.76792,-0.92285 -7.30593,-2.76857 -1.4869,-1.89697 -2.23031,-4.74243 -2.23024,-8.53641 l 0,-52.60275 c -3.07625,-1.99944 -7.07529,-3.5888 -11.99711,-4.76808 -4.87069,-1.2304 -9.74131,-1.84563 -14.61188,-1.84571 -6.20368,8e-5 -11.94589,1.12801 -17.22663,3.3838 -5.22954,2.25594 -9.71564,5.43466 -13.45831,9.53617 -3.69143,4.05037 -6.58817,8.9979 -8.69022,14.84259 -2.05079,5.84479 -3.07619,12.22787 -3.07618,19.14924 -1e-5,10.56159 2.87109,19.09799 8.61332,25.60924 5.74218,6.51125 13.15065,9.76688 22.22543,9.76688 m 1.84571,-10.45903 c -5.89606,1e-5 -10.6385,-2.35839 -14.22736,-7.07522 -3.5889,-4.71679 -5.38334,-10.92043 -5.38332,-18.61091 -2e-5,-10.71533 2.66601,-19.32864 7.99808,-25.83995 5.38329,-6.56246 12.43287,-9.84372 21.14877,-9.84379 1.84566,7e-5 3.66573,0.12825 5.46022,0.38452 1.79439,0.20515 3.43502,0.51277 4.9219,0.92286 1.53803,0.41023 2.81977,0.87165 3.84523,1.38428 l 0,32.60755 c -7e-5,4.92193 -0.99982,9.35676 -2.99928,13.3045 -1.94831,3.94779 -4.74251,7.07524 -8.3826,9.38236 -3.58893,2.25588 -7.71614,3.38381 -12.38164,3.3838"
         id="path3120"
         style="font-size:157.50062561px;font-variant:normal;font-stretch:normal;fill:#666666;font-family:Topmarks;-inkscape-font-specification:Topmarks" />
      <path
         d="m 367.22949,613.12356 -1.99952,0 c -3.89659,10e-6 -6.58825,-1.46117 -8.07498,-4.38356 -1.43564,-2.97363 -2.15341,-7.84425 -2.15333,-14.61187 l 0,-17.45735 c -8e-5,-11.79198 -2.48666,-20.68727 -7.45975,-26.6859 -4.92196,-5.99848 -11.38194,-8.99775 -19.37996,-8.99783 -6.61384,8e-5 -12.53549,1.53817 -17.76496,4.61427 -5.17828,3.02499 -8.97223,7.10093 -11.38188,12.22783 -0.82034,-5.6396 -3.58891,-10.51022 -8.3057,-14.61187 l -10.92045,6.30618 c 6.30616,5.28085 9.45925,11.89464 9.45926,19.84138 l 0,52.21823 12.61236,0 0,-39.83659 c -3e-5,-5.12692 0.64084,-9.68993 1.92261,-13.68901 1.28171,-3.99899 2.99925,-7.17771 5.15261,-9.53618 2.20456,-2.35834 4.63987,-4.12714 7.30594,-5.30641 2.66598,-1.17914 5.46018,-1.76874 8.3826,-1.76881 5.84469,7e-5 10.25389,2.02522 13.22759,6.07547 3.02485,4.05036 4.5373,10.63852 4.53737,19.76448 l 0,18.30329 c -7e-5,4.6143 0.30755,8.53643 0.92286,11.76641 0.61516,3.17873 1.69183,5.99856 3.22999,8.4595 1.58929,2.46095 3.76825,4.30666 6.53689,5.53714 2.81976,1.1792 6.33173,1.7688 10.53593,1.7688 l 1.99952,0 1.615,-9.9976"
         id="path3122"
         style="font-size:157.50062561px;font-variant:normal;font-stretch:normal;fill:#666666;font-family:Topmarks;-inkscape-font-specification:Topmarks" />
      <path
         d="m 391.68514,586.28386 c -2e-5,-10.1001 2.5891,-18.43142 7.76737,-24.994 5.17821,-6.56246 12.27906,-9.84372 21.30257,-9.84379 4.61422,7e-5 9.51048,0.92293 14.68878,2.76857 l 0,29.14684 c -6e-5,9.12604 -2.20466,16.32943 -6.6138,21.61019 -4.40925,5.22953 -10.27963,7.84428 -17.61115,7.84427 -5.74224,1e-5 -10.43342,-2.28149 -14.07354,-6.84451 -3.64018,-4.61425 -5.46025,-11.17677 -5.46023,-19.68757 m 46.37348,21.8409 c 0.46136,3.69143 2.35833,6.94706 5.69094,9.76689 3.33245,2.76856 7.71601,4.15285 13.15068,4.15285 l 2.15333,-10.45903 c -2.61484,-0.46142 -4.66563,-1.17919 -6.15237,-2.15333 -1.4869,-1.02538 -2.6661,-2.74291 -3.53761,-5.15261 -0.87166,-2.46092 -1.30745,-5.76782 -1.30738,-9.92069 l 0,-90.13219 -12.68925,0 0,39.37515 c -4.92196,-1.74309 -9.94639,-2.61467 -15.07331,-2.61475 -4.3067,8e-5 -8.48518,0.58968 -12.53545,1.7688 -3.99907,1.17928 -7.79303,2.99936 -11.38188,5.46023 -3.53763,2.46102 -6.63945,5.43466 -9.30545,8.92093 -2.61477,3.48641 -4.6912,7.74179 -6.22928,12.76617 -1.5381,4.97321 -2.30714,10.40779 -2.30714,16.30377 0,11.74079 2.948,20.8668 8.84403,27.37804 5.896,6.45999 13.50955,9.68998 22.84067,9.68998 6.10105,0 11.58691,-1.35865 16.45759,-4.07594 4.87056,-2.76856 8.66452,-6.45998 11.38188,-11.07427"
         id="path3124"
         style="font-size:157.50062561px;font-variant:normal;font-stretch:normal;fill:#666666;font-family:Topmarks;-inkscape-font-specification:Topmarks" />
      <path
         d="m 509.42609,623.27497 c 10.66405,0 20.45656,-3.61451 29.37756,-10.84355 l -5.53713,-8.76712 c -6.40879,6.10111 -13.84289,9.15165 -22.30234,9.15164 -5.9986,1e-5 -11.38192,-1.74316 -16.14997,-5.22951 -4.71684,-3.48632 -7.89556,-8.33131 -9.53617,-14.53497 5.12695,-0.76902 9.66432,-1.53806 13.61212,-2.30714 3.999,-0.82028 7.9724,-1.7944 11.92021,-2.92237 3.99899,-1.1279 7.40842,-2.40964 10.22831,-3.84523 2.87105,-1.48678 5.43453,-3.17868 7.69046,-5.07571 2.2558,-1.89693 3.9477,-4.10153 5.07571,-6.61379 1.12786,-2.56344 1.69183,-5.38327 1.6919,-8.45951 -7e-5,-6.51119 -2.46102,-11.94578 -7.38284,-16.30377 -4.87069,-4.35785 -11.22813,-6.53681 -19.07234,-6.53689 -5.79353,8e-5 -11.15121,1.15364 -16.07307,3.4607 -4.92192,2.25595 -8.99786,5.30649 -12.22783,9.15165 -3.23001,3.79402 -5.74222,8.17758 -7.53665,13.15069 -1.79445,4.92194 -2.69167,10.07455 -2.69166,15.45782 -10e-6,6.30621 1.02539,12.07405 3.07618,17.30354 2.10205,5.22953 4.92188,9.56182 8.45951,12.99688 3.58886,3.43507 7.71607,6.1011 12.38164,7.99807 4.71678,1.84571 9.71557,2.76857 14.9964,2.76857 m -24.994,-39.37516 c -0.15383,-1.23043 -0.23073,-2.48654 -0.23071,-3.76832 -2e-5,-4.61423 0.71775,-8.79271 2.15333,-12.53545 1.4868,-3.74263 3.40941,-6.76755 5.76784,-9.07475 2.40965,-2.30707 5.07567,-4.05024 7.99808,-5.22951 2.92234,-1.2304 5.92161,-1.84564 8.99784,-1.84571 4.35788,7e-5 7.74168,1.10237 10.15141,3.3069 2.46089,2.20466 3.69136,5.15267 3.69142,8.84403 -6e-5,2.40973 -0.64093,4.58869 -1.92262,6.53689 -1.23053,1.9483 -2.92243,3.61456 -5.0757,4.9988 -2.10211,1.38433 -4.87067,2.64043 -8.3057,3.76832 -3.38384,1.07671 -6.87018,1.99956 -10.45902,2.76857 -3.58892,0.76909 -7.8443,1.5125 -12.76617,2.23023"
         id="path3126"
         style="font-size:157.50062561px;font-variant:normal;font-stretch:normal;fill:#666666;font-family:Topmarks;-inkscape-font-specification:Topmarks" />
    </g>
    <path
       d="m 143.88186,377.67865 a 35.44304,35.44304 0 1 1 -70.886079,0 35.44304,35.44304 0 1 1 70.886079,0 z"
       transform="matrix(0.40674067,0,0,0.42837959,245.92556,392.1869)"
       id="path3058"
       style="opacity:0.5;fill:#ff6600;stroke:none" />
    <path
       d="m 143.88186,377.67865 a 35.44304,35.44304 0 1 1 -70.886079,0 35.44304,35.44304 0 1 1 70.886079,0 z"
       transform="matrix(0.37113479,0,0,0.39087945,222.74238,468.65233)"
       id="path3058-7"
       style="opacity:0.5;fill:#ff6600;stroke:none" />
    <path
       d="m 143.88186,377.67865 a 35.44304,35.44304 0 1 1 -70.886079,0 35.44304,35.44304 0 1 1 70.886079,0 z"
       transform="matrix(0.41564214,0,0,0.43775462,313.56789,451.02169)"
       id="path3058-2"
       style="opacity:0.5;fill:#ff6600;stroke:none" />
    <path
       d="m 143.88186,377.67865 a 35.44304,35.44304 0 1 1 -70.886079,0 35.44304,35.44304 0 1 1 70.886079,0 z"
       transform="matrix(0.40674067,0,0,0.42837959,402.56892,452.27635)"
       id="path3058-24"
       style="opacity:0.5;fill:#ff6600;stroke:none" />
    <path
       d="m 143.88186,377.67865 a 35.44304,35.44304 0 1 1 -70.886079,0 35.44304,35.44304 0 1 1 70.886079,0 z"
       transform="matrix(0.54026273,0,0,0.56900513,466.56622,356.47378)"
       id="path3058-24-4"
       style="opacity:0.5;fill:#ff6600;stroke:none" />
  </g>
</svg>
