<?xml version="1.0" encoding="UTF-8" standalone="no"?>
<!-- Created with Inkscape (http://www.inkscape.org/) -->

<svg
   xmlns:dc="http://purl.org/dc/elements/1.1/"
   xmlns:cc="http://creativecommons.org/ns#"
   xmlns:rdf="http://www.w3.org/1999/02/22-rdf-syntax-ns#"
   xmlns:svg="http://www.w3.org/2000/svg"
   xmlns="http://www.w3.org/2000/svg"
   version="1.1"
   width="369.00778"
   height="130.37541"
   id="svg3898">
  <defs
     id="defs3900" />
  <metadata
     id="metadata3903">
    <rdf:RDF>
      <cc:Work
         rdf:about="">
        <dc:format>image/svg+xml</dc:format>
        <dc:type
           rdf:resource="http://purl.org/dc/dcmitype/StillImage" />
        <dc:title></dc:title>
      </cc:Work>
    </rdf:RDF>
  </metadata>
  <g
     transform="translate(-192.58342,-487.79566)"
     id="layer1">
    <g
       transform="scale(1.0262557,0.97441602)"
       id="text2985-5-4-8"
       style="font-size:41.05023193px;font-style:normal;font-weight:normal;line-height:125%;letter-spacing:0px;word-spacing:0px;opacity:0.8;fill:#241c1c;fill-opacity:1;stroke:none;font-family:Sans">
      <text
         x="182.88916"
         y="621.58307"
         id="text2985-5-4-8-8"
         xml:space="preserve"
         style="font-size:31.50012589px;font-style:normal;font-weight:normal;line-height:125%;letter-spacing:0px;word-spacing:0px;opacity:0.91000001;fill:#666666;fill-opacity:1;stroke:none;font-family:Sans"><tspan
           x="182.88916"
           y="621.58307"
           id="tspan2987-1-7-3"
           style="font-size:157.50062561px;font-style:normal;font-variant:normal;font-weight:normal;font-stretch:normal;fill:#666666;font-family:Topmarks;-inkscape-font-specification:Topmarks">ande</tspan></text>
      <path
         d="m 143.88186,377.67865 a 35.443039,35.443039 0 1 1 -70.886079,0 35.443039,35.443039 0 1 1 70.886079,0 z"
         transform="matrix(0.40674067,0,0,0.42837959,245.92556,392.1869)"
         id="path3058"
         style="opacity:0.5;fill:#ff6600;stroke:none" />
      <path
         d="m 143.88186,377.67865 a 35.443039,35.443039 0 1 1 -70.886079,0 35.443039,35.443039 0 1 1 70.886079,0 z"
         transform="matrix(0.37113479,0,0,0.39087945,222.74238,468.65233)"
         id="path3058-7"
         style="opacity:0.5;fill:#ff6600;stroke:none" />
      <path
         d="m 143.88186,377.67865 a 35.443039,35.443039 0 1 1 -70.886079,0 35.443039,35.443039 0 1 1 70.886079,0 z"
         transform="matrix(0.41564214,0,0,0.43775462,313.56789,451.02169)"
         id="path3058-2"
         style="opacity:0.5;fill:#ff6600;stroke:none" />
      <path
         d="m 143.88186,377.67865 a 35.443039,35.443039 0 1 1 -70.886079,0 35.443039,35.443039 0 1 1 70.886079,0 z"
         transform="matrix(0.40674067,0,0,0.42837959,402.56892,452.27635)"
         id="path3058-24"
         style="opacity:0.5;fill:#ff6600;stroke:none" />
      <path
         d="m 143.88186,377.67865 a 35.443039,35.443039 0 1 1 -70.886079,0 35.443039,35.443039 0 1 1 70.886079,0 z"
         transform="matrix(0.54026273,0,0,0.56900513,466.56622,356.47378)"
         id="path3058-24-4"
         style="opacity:0.5;fill:#ff6600;stroke:none" />
    </g>
  </g>
</svg>
