<?xml version="1.0" encoding="UTF-8" standalone="no"?>
<!-- Created with Inkscape (http://www.inkscape.org/) -->

<svg
   xmlns:dc="http://purl.org/dc/elements/1.1/"
   xmlns:cc="http://creativecommons.org/ns#"
   xmlns:rdf="http://www.w3.org/1999/02/22-rdf-syntax-ns#"
   xmlns:svg="http://www.w3.org/2000/svg"
   xmlns="http://www.w3.org/2000/svg"
   xmlns:sodipodi="http://sodipodi.sourceforge.net/DTD/sodipodi-0.dtd"
   xmlns:inkscape="http://www.inkscape.org/namespaces/inkscape"
   width="249.94373"
   height="523.59198"
   id="svg4689"
   version="1.1"
   inkscape:version="0.48.4 r"
   sodipodi:docname="fruit1.svg">
  <defs
     id="defs4691" />
  <sodipodi:namedview
     id="base"
     pagecolor="#ffffff"
     bordercolor="#666666"
     borderopacity="1.0"
     inkscape:pageopacity="0.0"
     inkscape:pageshadow="2"
     inkscape:zoom="1.5311871"
     inkscape:cx="137.5"
     inkscape:cy="128.5"
     inkscape:document-units="px"
     inkscape:current-layer="layer1"
     showgrid="false"
     fit-margin-top="3"
     fit-margin-right="3"
     fit-margin-bottom="3"
     fit-margin-left="3"
     inkscape:window-width="1193"
     inkscape:window-height="858"
     inkscape:window-x="33"
     inkscape:window-y="52"
     inkscape:window-maximized="0" />
  <metadata
     id="metadata4694">
    <rdf:RDF>
      <cc:Work
         rdf:about="">
        <dc:format>image/svg+xml</dc:format>
        <dc:type
           rdf:resource="http://purl.org/dc/dcmitype/StillImage" />
        <dc:title></dc:title>
      </cc:Work>
    </rdf:RDF>
  </metadata>
  <g
     inkscape:label="Layer 1"
     inkscape:groupmode="layer"
     id="layer1"
     transform="translate(-261.89307,-119.91294)">
    <text
       xml:space="preserve"
       style="font-size:40px;font-style:normal;font-weight:normal;line-height:125%;letter-spacing:0px;word-spacing:0px;fill:#333333;fill-opacity:1;stroke:none;font-family:Sans"
       x="305.10614"
       y="636.03229"
       id="text11705-0"
       sodipodi:linespacing="125%"><tspan
         sodipodi:role="line"
         id="tspan11707-9"
         x="305.10614"
         y="636.03229"
         style="font-size:44px;font-style:normal;font-variant:normal;font-weight:normal;font-stretch:normal;fill:#333333;font-family:Topmarks;-inkscape-font-specification:Topmarks">Banana</tspan></text>
    <text
       xml:space="preserve"
       style="font-size:40px;font-style:normal;font-weight:normal;line-height:125%;letter-spacing:0px;word-spacing:0px;fill:#333333;fill-opacity:1;stroke:none;font-family:Sans"
       x="326.75165"
       y="374.95496"
       id="text11705-0-82"
       sodipodi:linespacing="125%"><tspan
         sodipodi:role="line"
         id="tspan11707-9-6"
         x="326.75165"
         y="374.95496"
         style="font-size:44px;font-style:normal;font-variant:normal;font-weight:normal;font-stretch:normal;fill:#333333;font-family:Topmarks;-inkscape-font-specification:Topmarks">Apple</tspan></text>
    <path
       inkscape:connector-curvature="0"
       id="path6755"
       style="fill:#ff000a;fill-opacity:1;fill-rule:nonzero;stroke:none"
       d="m 297.45639,238.18387 c -2.87119,28.92875 4.49361,59.1197 28.21307,76.6587 2.00345,1.8914 4.1137,3.6537 6.33211,5.2706 6.65537,4.84694 14.28452,8.36402 22.90173,10.05237 18.80946,3.67876 40.681,5.72057 59.99472,1.10551 2.41532,-0.57658 4.78929,-1.25718 7.11186,-2.0556 19.13584,-11.29074 35.33871,-31.17613 44.76438,-51.07283 0.91498,-2.64462 1.75477,-5.3395 2.49428,-8.072 1.33363,-4.90075 2.34764,-9.9145 3.00193,-14.95312 0.32714,-2.53188 0.56528,-5.06388 0.69314,-7.59575 -3.09468,-23.86488 -8.25123,-52.59313 -29.06664,-67.49625 -2.10073,-1.20325 -4.27414,-2.2185 -6.53154,-3.03325 -2.16089,-0.60163 -4.53234,-1.479 -7.00281,-2.08063 -23.09664,-2.08075 -46.66317,5.28938 -69.03997,-1.24087 -2.28109,-0.60163 -4.5554,-1.17825 -6.83849,-1.69213 -2.28109,-0.5265 -4.57158,-0.97762 -6.87221,-1.35375 -8.10219,-0.7395 -15.46649,2.206 -22.72349,5.91613 -2.12153,1.06537 -4.16021,2.31887 -6.08783,3.73525 -11.56273,8.4855 -19.10038,22.63662 -19.14788,38.90587 -0.37753,2.05563 -0.7251,4.11125 -1.02429,6.19188 -0.29906,2.09312 -0.54686,4.2115 -0.74315,6.34225 -0.19691,2.14337 -0.3398,4.28662 -0.42892,6.46762" />
    <path
       inkscape:connector-curvature="0"
       id="path6757"
       style="fill:#cf181f;fill-opacity:1;fill-rule:nonzero;stroke:none"
       d="m 298.23539,208.21475 c 0,0 50.58347,64.35025 174.36471,44.00737 0,0 -32.95972,98.82402 -102.18294,79.04517 -69.22259,-19.7776 -90.56195,-98.52329 -72.18177,-123.05254" />
    <path
       inkscape:connector-curvature="0"
       id="path6759"
       style="fill:#a80007;fill-opacity:1;fill-rule:nonzero;stroke:none"
       d="m 313.73358,232.744 c 0,0 18.16659,76.58857 97.70752,86.89914 0,0 -24.05875,27.98495 -69.22961,5.40096 -45.17135,-22.58524 -34.37045,-77.57247 -28.47791,-92.3001" />
    <path
       inkscape:connector-curvature="0"
       id="path6761"
       style="fill:none;stroke:#483f3f;stroke-width:1.559;stroke-linecap:round;stroke-linejoin:round;stroke-miterlimit:10;stroke-opacity:1;stroke-dasharray:none;fill-opacity:0"
       d="m 293.62024,236.64173 c -1.5063,37.33224 17.57342,86.45396 58.57809,94.53874 33.5647,6.61749 76.69383,8.08219 98.67212,-23.25596 22.09205,-31.50306 31.57558,-78.63832 8.73202,-114.42468 -12.52288,-19.61938 -31.40431,-26.20204 -54.75964,-20.48243 -18.52459,4.54731 -35.5464,0.39928 -44.05819,-1.81631 -28.49484,-7.42015 -56.54413,11.70976 -63.55082,39.83124 -1.99155,7.98682 -3.25367,16.69501 -3.61358,25.6094 z" />
    <path
       inkscape:connector-curvature="0"
       id="path6763"
       style="fill:#8c6239;fill-opacity:1;fill-rule:nonzero;stroke:none"
       d="m 374.42219,177.89475 c 0,0 5.95571,-23.1505 -0.29418,-31.83675 0,0 4.39334,-6.30463 9.63022,-3.685 0,0 3.32004,16.30687 -2.75023,34.78225 l -6.58581,0.7395" />
    <path
       inkscape:connector-curvature="0"
       id="path6765"
       style="fill:none;stroke:#4d4d4d;stroke-width:1.25000453;stroke-linecap:round;stroke-linejoin:round;stroke-miterlimit:10;stroke-opacity:1;stroke-dasharray:none"
       d="m 374.61609,178.91 c 0,0 8.51443,-22.43613 3.27554,-31.7615 0,0 5.07194,-5.72813 9.9813,-2.53187 0,0 1.47377,16.78325 -6.62842,34.29337 l -6.62842,0 z" />
    <path
       inkscape:connector-curvature="0"
       id="path6767"
       style="fill:#8cc63f;fill-opacity:1;fill-rule:nonzero;stroke:none"
       d="m 388.32479,179.72475 c 0,0 3.06647,-16.8835 21.73881,-16.83338 18.67209,0.05 37.24264,-9.08725 41.62207,-19.70362 4.38067,-10.629 33.28311,-8.47312 33.28311,-8.47312 0,0 -36.69741,-15.37938 -52.48664,-2.26863 -15.78924,13.12325 -26.98722,10.6665 -29.55422,13.26112 -2.56686,2.5945 -12.15309,8.473 -10.72633,21.20775 l -7.41418,12.65938 3.53738,0.1505" />
    <path
       inkscape:connector-curvature="0"
       id="path6769"
       style="fill:#009245;fill-opacity:1;fill-rule:nonzero;stroke:none"
       d="m 396.06173,160.78562 c 0,0 14.13223,-9.739 23.03396,-9.87687 8.89923,-0.12538 17.30461,-9.32538 23.23827,-13.13575 5.93366,-3.79787 23.24077,-9.11238 39.55645,-3.23387 0,0 -31.55467,-1.04026 -34.61174,9.56362 -3.05708,10.59125 -25.7125,16.68288 -30.16086,16.68288 -4.44962,0 -21.05608,0 -21.05608,0" />
    <path
       inkscape:connector-curvature="0"
       id="path6771"
       style="fill:none;stroke:#4d4d4d;stroke-width:1.25000453;stroke-linecap:round;stroke-linejoin:round;stroke-miterlimit:10;stroke-opacity:1;stroke-dasharray:none"
       d="m 387.97822,178.91 c 0,0 2.34865,-17.0965 21.00745,-17.83612 18.6583,-0.72688 36.82526,-10.69151 40.75345,-21.48351 3.92694,-10.80437 32.89581,-9.88937 32.89581,-9.88937 0,0 -37.31534,-13.82512 -52.53679,-0.0625 -15.22018,13.775 -26.51343,11.79463 -28.96786,14.48938 -2.45493,2.70737 -11.78509,9.06225 -9.82074,21.73425 l -6.87371,13.048 3.54239,0 z" />
    <path
       inkscape:connector-curvature="0"
       id="path6773"
       style="fill:#ffffff;fill-opacity:1;fill-rule:nonzero;stroke:none"
       d="m 418.31357,190.02775 c 0,0 32.89706,5.891 31.42555,42.71625 -1.47402,36.81275 -36.33518,-36.82525 -49.59152,-29.46763 0,0 15.71303,-5.40224 18.16597,-13.24862" />
    <path
       inkscape:connector-curvature="0"
       id="path6813"
       style="fill:#c4ac00;fill-opacity:1;fill-rule:nonzero;stroke:none"
       d="m 278.75505,401.19792 c 0,0 -23.92137,39.57204 13.96302,86.13784 37.88314,46.56702 109.40787,73.60701 146.34468,54.55112 36.93431,-19.05467 36.71747,-36.2945 36.71747,-36.2945 0,0 6.77093,-21.70362 12.51908,-24.24441 5.74941,-2.54558 20.86305,-14.79759 17.90375,-19.0114 -2.9568,-4.215 -6.50646,-8.28579 -6.50646,-8.28579 0,0 -4.41954,5.26907 -6.65187,3.9482 -2.23483,-1.31967 -6.702,-3.96503 -9.88566,-1.41103 -3.18367,2.55041 -2.7337,8.24013 -2.7337,8.24013 0,0 -6.50395,-1.87735 -8.28505,2.49031 -1.78235,4.36765 -12.57047,14.7423 -19.33514,15.67016 -6.76467,0.92545 -32.96601,8.09469 -38.67028,8.17042 -5.70303,0.0769 -65.39555,-7.00819 -87.46438,-46.99969 -22.07135,-39.9891 -31.0721,-49.96233 -36.28253,-48.25686 -5.20918,1.70427 -10.5061,3.15134 -11.63292,5.2955" />
    <path
       inkscape:connector-curvature="0"
       id="path6815"
       style="fill:#a99215;fill-opacity:1;fill-rule:nonzero;stroke:none"
       d="m 499.91594,476.34162 -11.44367,-4.09991 c 0,0 -23.0465,31.52458 -74.12431,35.993 -51.0728,4.4634 -87.30269,-38.45094 -100.69665,-53.39789 -11.0576,-12.3411 -22.76197,-46.3562 -26.50466,-57.83871 -3.99964,1.35494 -7.50168,2.66601 -8.3916,4.43457 0,0 -23.92137,41.2686 13.96302,89.83081 37.88314,48.56348 109.40787,76.76275 146.34468,56.88989 36.93431,-19.8716 36.71747,-37.85055 36.71747,-37.85055 0,0 6.77093,-22.63412 12.51908,-25.28384 2.73746,-1.26468 7.59569,-4.82187 11.61664,-8.67737" />
    <path
       inkscape:connector-curvature="0"
       id="path6817"
       style="fill:#73492e;fill-opacity:1;fill-rule:nonzero;stroke:none"
       d="m 506.20305,465.19252 c -2.9568,-4.39571 -6.50646,-8.64103 -6.50646,-8.64103 0,0 -4.41954,5.49497 -6.65187,4.11747 -2.23483,-1.37625 -6.702,-4.13502 -9.88566,-1.47152 -0.3685,0.30709 -0.68812,0.6593 -0.96387,1.04034 -0.0351,0.17171 -3.82793,18.7899 17.72075,16.10384 4.42578,-4.2428 7.83758,-8.84784 6.28711,-11.1491" />
    <path
       inkscape:connector-curvature="0"
       id="path6819"
       style="fill:none;stroke:#5a505a;stroke-width:1.25000453;stroke-linecap:butt;stroke-linejoin:miter;stroke-miterlimit:10;stroke-opacity:1;stroke-dasharray:none"
       d="m 508.38022,461.60651 c -2.96056,-4.39447 -6.50897,-8.64103 -6.50897,-8.64103 0,0 -4.41953,5.49496 -6.65311,4.11746 -2.23483,-1.3775 -6.69949,-4.1325 -9.88567,-1.47151 -0.3685,0.30709 -0.68436,0.66055 -0.96261,1.04159 -0.0351,0.17171 -3.82919,18.78991 17.72074,16.10259 4.42705,-4.2428 7.83885,-8.84659 6.28962,-11.1491 z" />
    <path
       inkscape:connector-curvature="0"
       id="path6821"
       style="fill:none;stroke:#7e7e7e;stroke-width:1.89833926999999991;stroke-linecap:round;stroke-linejoin:round;stroke-miterlimit:10;stroke-opacity:1;stroke-dasharray:none"
       d="m 277.60365,399.84696 c 0,0 -25.47989,39.83752 11.67854,88.50461 37.15972,48.66464 109.09626,78.26295 147.20837,59.76861 38.11208,-18.49926 38.3964,-36.13744 38.3964,-36.13744 0,0 7.51839,-22.02345 13.43799,-24.46885 5.91959,-2.44787 21.64611,-14.57528 18.75962,-18.96669 -2.88393,-4.39385 -6.37347,-8.65241 -6.37347,-8.65241 0,0 -4.6472,5.2746 -6.87964,3.85999 -2.23244,-1.41212 -6.69987,-4.23763 -10.01092,-1.71227 -3.31105,2.52538 -3.01908,8.35843 -3.01908,8.35843 0,0 -6.55835,-2.09728 -8.49754,2.32363 -1.94048,4.4197 -13.21232,14.74135 -20.11618,15.50647 -6.9064,0.76509 -33.75815,7.39157 -39.56043,7.31408 -5.79976,-0.0751 -66.28725,-8.93904 -87.5598,-50.44949 -21.27128,-41.50922 -30.13474,-51.95634 -35.48059,-50.35106 -5.34714,1.60279 -10.77589,2.94113 -11.98327,5.10239 z" />
    <path
       inkscape:connector-curvature="0"
       id="path6823"
       style="fill:#271d27;fill-opacity:1;fill-rule:nonzero;stroke:none"
       d="m 279.84804,400.01006 c 0,0 8.92179,2.62715 13.8289,-5.22548 1.24839,-2.00045 -13.8289,5.22548 -13.8289,5.22548" />
    <path
       inkscape:connector-curvature="0"
       id="path6825"
       style="fill:#d9cfd9;fill-opacity:1;fill-rule:nonzero;stroke:none"
       d="m 456.88377,496.61181 c 0,0 -52.64708,42.29265 -107.81102,3.15985 -55.16644,-39.13404 -64.06191,-74.24714 -64.06191,-74.24714 0,0 75.6447,120.29877 171.87293,71.08729" />
    <path
       inkscape:connector-curvature="0"
       id="path6827"
       style="fill:#924500;fill-opacity:1;fill-rule:nonzero;stroke:none"
       d="m 280.08242,471.50972 c 0,0 71.80424,118.36851 179.1703,63.3036 0,0 -109.17725,14.5634 -179.1703,-63.3036" />
    <path
       inkscape:connector-curvature="0"
       id="path6829"
       style="fill:#fff800;fill-opacity:1;fill-rule:nonzero;stroke:none"
       d="m 268.99599,466.58256 c 0,0 -13.07811,45.87113 35.55054,83.6703 48.62865,37.79915 124.88124,47.61462 155.82298,19.29627 30.93799,-28.31709 26.32418,-45.69315 26.32418,-45.69315 0,0 1.01776,-23.60426 5.94117,-27.58259 4.9234,-3.9821 16.44603,-20.07215 12.50028,-23.60802 -3.94449,-3.53714 -8.42669,-6.78473 -8.42669,-6.78473 0,0 -2.938,6.41247 -5.43981,5.62407 -2.50307,-0.7884 -7.51045,-2.3677 -9.94458,0.99395 -2.43537,3.3604 -0.54524,9.00201 -0.54524,9.00201 0,0 -6.78471,-0.30458 -7.39512,4.54737 -0.61168,4.85322 -8.42043,17.98773 -14.74139,20.58104 -6.32221,2.59456 -29.89264,16.26303 -35.40389,17.7383 -5.51,1.47401 -65.19249,8.93808 -96.80857,-26.08854 -31.61733,-35.02535 -42.89178,-42.90305 -47.50809,-39.90238 -4.61381,3.00067 -9.38054,5.76193 -9.92577,8.2061" />
    <path
       inkscape:connector-curvature="0"
       id="path6831"
       style="fill:#e7dd1e;fill-opacity:1;fill-rule:nonzero;stroke:none"
       d="m 501.77224,485.01523 -12.10045,-1.17069 c 0,0 -14.6198,36.21109 -63.04414,53.05822 -48.42309,16.8421 -94.0636,-15.88575 -110.71267,-27.09503 -13.74493,-9.25645 -33.42601,-39.36592 -39.86854,-49.57997 -3.54717,2.29123 -6.62053,4.42203 -7.05045,6.3548 0,0 -13.07811,45.87113 35.55054,83.6703 48.62865,37.79915 124.88124,47.61462 155.82298,19.29627 30.93799,-28.31709 26.32418,-45.69315 26.32418,-45.69315 0,0 1.01776,-23.60426 5.94117,-27.58259 2.34388,-1.89642 6.18308,-6.5353 9.13738,-11.25816" />
    <path
       inkscape:connector-curvature="0"
       id="path6833"
       style="fill:#997954;fill-opacity:1;fill-rule:nonzero;stroke:none"
       d="m 505.13514,472.66537 c -3.94449,-3.53714 -8.42669,-6.78473 -8.42669,-6.78473 0,0 -2.938,6.41247 -5.43981,5.62407 -2.50307,-0.7884 -7.51045,-2.3677 -9.94458,0.99395 -0.28201,0.38856 -0.50512,0.8072 -0.67935,1.2459 0.008,0.17422 0.89244,19.1559 21.12753,11.27067 3.2501,-5.1979 5.42977,-10.49857 3.3629,-12.34986" />
    <path
       inkscape:connector-curvature="0"
       id="path6835"
       style="fill:none;stroke:#808080;stroke-width:1.25000453;stroke-linecap:butt;stroke-linejoin:miter;stroke-miterlimit:10;stroke-opacity:1;stroke-dasharray:none"
       d="m 506.36599,468.65569 c -3.94699,-3.53587 -8.42669,-6.78221 -8.42669,-6.78221 0,0 -2.93925,6.40995 -5.44231,5.62281 -2.50182,-0.78965 -7.50795,-2.3677 -9.94584,0.9927 -0.2795,0.38982 -0.50136,0.8097 -0.67684,1.24715 0.007,0.17423 0.89243,19.15466 21.12753,11.26943 3.25135,-5.1979 5.43103,-10.49733 3.36415,-12.34988 z" />
    <path
       inkscape:connector-curvature="0"
       id="path6837"
       style="fill:none;stroke:#727272;stroke-width:2.03112029999999999;stroke-linecap:round;stroke-linejoin:round;stroke-miterlimit:10;stroke-opacity:1;stroke-dasharray:none"
       d="m 266.03806,464.93432 c 0,0 -14.78746,45.49386 34.27266,84.62039 49.06011,39.12401 127.39653,51.03645 160.09983,23.58295 32.702,-27.456 28.4386,-44.94988 28.4386,-44.94988 0,0 1.72062,-23.56666 6.90961,-27.40962 5.18899,-3.84423 17.52543,-19.61215 13.55807,-23.25583 -3.96737,-3.64491 -8.49449,-7.01284 -8.49449,-7.01284 0,0 -3.20982,6.33099 -5.76941,5.47115 -2.557,-0.85608 -7.67619,-2.57326 -10.28102,0.72072 -2.60484,3.29146 -0.81571,8.9832 -0.81571,8.9832 0,0 -6.98717,-0.49134 -7.75505,4.34307 -0.76917,4.83316 -9.19125,17.74581 -15.78285,20.1649 -6.59159,2.41909 -31.28,15.43453 -37.00419,16.75563 -5.7203,1.32108 -67.4646,7.13692 -99.06522,-28.74703 -31.59931,-35.88269 -43.00112,-44.06747 -47.84496,-41.1959 -4.84252,2.87281 -9.83503,5.50248 -10.46587,7.92909 z" />
    <path
       inkscape:connector-curvature="0"
       id="path6839"
       style="fill:#4d4d4d;fill-opacity:1;fill-rule:nonzero;stroke:none"
       d="m 269.70917,464.93432 c 0,0 9.29155,0.36224 12.12552,-8.45428 0.72071,-2.24486 -12.12552,8.45428 -12.12552,8.45428" />
    <path
       inkscape:connector-curvature="0"
       id="path6841"
       style="fill:#ffffff;fill-opacity:1;fill-rule:nonzero;stroke:none"
       d="m 465.01716,515.21119 c 0,0 -40.67825,53.90427 -103.74996,29.48153 -63.07422,-24.42275 -80.30112,-56.2845 -80.30112,-56.2845 0,0 102.81617,98.09457 184.05108,26.80297" />
    <path
       inkscape:connector-curvature="0"
       id="path6843"
       style="fill:#b8a500;fill-opacity:1;fill-rule:nonzero;stroke:none"
       d="m 287.45625,534.19663 c 0,0 98.61849,97.16705 189.21891,17.47008 0,0 -102.27972,40.87252 -189.21891,-17.47008" />
  </g>
</svg>
