<?xml version="1.0" encoding="UTF-8" standalone="no"?>
<!-- Created with Inkscape (http://www.inkscape.org/) -->

<svg
   xmlns:dc="http://purl.org/dc/elements/1.1/"
   xmlns:cc="http://creativecommons.org/ns#"
   xmlns:rdf="http://www.w3.org/1999/02/22-rdf-syntax-ns#"
   xmlns:svg="http://www.w3.org/2000/svg"
   xmlns="http://www.w3.org/2000/svg"
   xmlns:sodipodi="http://sodipodi.sourceforge.net/DTD/sodipodi-0.dtd"
   xmlns:inkscape="http://www.inkscape.org/namespaces/inkscape"
   version="1.1"
   width="586.68146"
   height="231.1196"
   id="svg4689"
   inkscape:version="0.48.4 r"
   sodipodi:docname="fruit1.svg">
  <sodipodi:namedview
     pagecolor="#ffffff"
     bordercolor="#666666"
     borderopacity="1"
     objecttolerance="10"
     gridtolerance="10"
     guidetolerance="10"
     inkscape:pageopacity="0"
     inkscape:pageshadow="2"
     inkscape:window-width="1103"
     inkscape:window-height="701"
     id="namedview3148"
     showgrid="false"
     inkscape:zoom="0.58464435"
     inkscape:cx="293.34073"
     inkscape:cy="115.5598"
     inkscape:window-x="0"
     inkscape:window-y="22"
     inkscape:window-maximized="0"
     inkscape:current-layer="svg4689" />
  <defs
     id="defs4691">
    <clipPath
       id="clipPath10831">
      <path
         d="m 5402.34,3962.16 c -0.88,0.88 -1.77,1.74 -2.66,2.59 l 20.81,5.84 -18.15,-8.43 m -171.34,50.46 -23.48,83.37 c 0.84,0.33 2.17,0.92 3.62,1.76 l 35.47,-83.14 c -5.35,-0.46 -10.56,-1.13 -15.61,-1.99 m -30.56,110.21 c -0.17,0.01 -0.33,0.02 -0.49,0.02 l -0.92,3.27 1.41,-3.29"
         id="path10833" />
    </clipPath>
    <radialGradient
       cx="0"
       cy="0"
       r="1"
       fx="0"
       fy="0"
       id="radialGradient10835"
       gradientUnits="userSpaceOnUse"
       gradientTransform="matrix(563.137,0,0,-563.137,405,400)"
       spreadMethod="pad">
      <stop
         id="stop10837"
         style="stop-color:#f9fdf6;stop-opacity:1"
         offset="0" />
      <stop
         id="stop10839"
         style="stop-color:#f9fdf6;stop-opacity:1"
         offset="0.141326" />
      <stop
         id="stop10841"
         style="stop-color:#e6eedb;stop-opacity:1"
         offset="0.854146" />
      <stop
         id="stop10843"
         style="stop-color:#e6eedb;stop-opacity:1"
         offset="0.854146" />
      <stop
         id="stop10845"
         style="stop-color:#dbe2d1;stop-opacity:1"
         offset="0.989263" />
      <stop
         id="stop10847"
         style="stop-color:#dbe2d1;stop-opacity:1"
         offset="1" />
    </radialGradient>
  </defs>
  <metadata
     id="metadata4694">
    <rdf:RDF>
      <cc:Work
         rdf:about="">
        <dc:format>image/svg+xml</dc:format>
        <dc:type
           rdf:resource="http://purl.org/dc/dcmitype/StillImage" />
        <dc:title />
      </cc:Work>
    </rdf:RDF>
  </metadata>
  <g
     style="font-size:40px;font-style:normal;font-weight:normal;line-height:125%;letter-spacing:0px;word-spacing:0px;fill:#333333;fill-opacity:1;stroke:none;font-family:topmarksbook"
     id="text11705-0-82">
    <path
       d="m 394.88376,206.0981 11.53711,0 -3.65235,-10.01172 -2.0625,-5.88672 -2.1914,5.9082 -3.63086,9.99024 m -8.31445,11.4082 12.2246,-31.28125 3.82422,0 12.2461,31.28125 -4.10352,0 -3.22265,-8.48633 -13.77149,0 -3.20117,8.48633 -3.99609,0"
       style="font-size:44px;font-variant:normal;font-stretch:normal;fill:#333333;font-family:Topmarks;-inkscape-font-specification:Topmarks"
       id="path3200" />
    <path
       d="m 423.60837,213.9399 c 1.66145,0.74479 3.27277,1.11719 4.83398,1.11718 2.22004,10e-6 4.02473,-0.75911 5.41406,-2.27734 1.38931,-1.51822 2.08397,-3.81705 2.08399,-6.89648 -2e-5,-2.60676 -0.52281,-4.58332 -1.56836,-5.92969 -1.03127,-1.36066 -2.51369,-2.041 -4.44727,-2.04102 -0.81642,2e-5 -1.58985,0.1719 -2.32031,0.51563 -0.73048,0.34377 -1.40365,0.85939 -2.01953,1.54687 -0.60157,0.6732 -1.08139,1.5827 -1.43945,2.72852 -0.35808,1.13152 -0.53712,2.42774 -0.53711,3.88867 l 0,7.34766 m -3.50196,12.99804 0,-23.31054 c 0,-1.58983 -0.26497,-2.89322 -0.79492,-3.91016 -0.52995,-1.01691 -1.14583,-1.79751 -1.84765,-2.3418 l 3.02929,-1.74023 c 0.5013,0.38674 0.98112,0.93101 1.43946,1.63281 0.45832,0.70184 0.7591,1.51109 0.90234,2.42774 0.93098,-1.61848 2.09114,-2.80728 3.48047,-3.56641 1.40363,-0.75909 2.85741,-1.13865 4.36133,-1.13867 2.74998,2e-5 4.9199,0.97398 6.50976,2.92187 1.58982,1.94794 2.38474,4.59051 2.38477,7.92774 -3e-5,3.78125 -0.97398,6.75326 -2.92188,8.91601 -1.93361,2.14844 -4.48309,3.22266 -7.64843,3.22266 -1.70444,0 -3.49481,-0.32943 -5.3711,-0.98828 l 0,9.94726 -3.52344,0"
       style="font-size:44px;font-variant:normal;font-stretch:normal;fill:#333333;font-family:Topmarks;-inkscape-font-specification:Topmarks"
       id="path3202" />
    <path
       d="m 449.90524,213.9399 c 1.66145,0.74479 3.27278,1.11719 4.83399,1.11718 2.22003,10e-6 4.02472,-0.75911 5.41406,-2.27734 1.3893,-1.51822 2.08396,-3.81705 2.08398,-6.89648 -2e-5,-2.60676 -0.5228,-4.58332 -1.56836,-5.92969 -1.03126,-1.36066 -2.51368,-2.041 -4.44726,-2.04102 -0.81642,2e-5 -1.58986,0.1719 -2.32031,0.51563 -0.73048,0.34377 -1.40366,0.85939 -2.01953,1.54687 -0.60158,0.6732 -1.08139,1.5827 -1.43946,2.72852 -0.35808,1.13152 -0.53711,2.42774 -0.53711,3.88867 l 0,7.34766 m -3.50195,12.99804 0,-23.31054 c 0,-1.58983 -0.26498,-2.89322 -0.79492,-3.91016 -0.52995,-1.01691 -1.14584,-1.79751 -1.84766,-2.3418 l 3.0293,-1.74023 c 0.5013,0.38674 0.98111,0.93101 1.43945,1.63281 0.45833,0.70184 0.75911,1.51109 0.90235,2.42774 0.93098,-1.61848 2.09113,-2.80728 3.48046,-3.56641 1.40364,-0.75909 2.85741,-1.13865 4.36133,-1.13867 2.74998,2e-5 4.9199,0.97398 6.50977,2.92187 1.58982,1.94794 2.38474,4.59051 2.38476,7.92774 -2e-5,3.78125 -0.97398,6.75326 -2.92187,8.91601 -1.93361,2.14844 -4.48309,3.22266 -7.64844,3.22266 -1.70444,0 -3.4948,-0.32943 -5.37109,-0.98828 l 0,9.94726 -3.52344,0"
       style="font-size:44px;font-variant:normal;font-stretch:normal;fill:#333333;font-family:Topmarks;-inkscape-font-specification:Topmarks"
       id="path3204" />
    <path
       d="m 483.48532,214.24068 c -10e-6,0 0.17902,0.83789 0.53711,2.51367 -1.73309,0.75911 -3.42319,1.13867 -5.07031,1.13867 -2.00522,0 -3.63803,-0.58008 -4.89844,-1.74023 -1.26042,-1.16016 -1.89063,-2.85742 -1.89062,-5.0918 l 0,-26.33984 3.52343,0 0,26.51171 c 0,1.36069 0.34375,2.36329 1.03125,3.00782 0.68749,0.63021 1.61132,0.94531 2.77149,0.94531 1.17446,0 2.50649,-0.3151 3.99609,-0.94531"
       style="font-size:44px;font-variant:normal;font-stretch:normal;fill:#333333;font-family:Topmarks;-inkscape-font-specification:Topmarks"
       id="path3206" />
    <path
       d="m 489.88766,206.97896 c 1.375,-0.20051 2.5638,-0.40819 3.56641,-0.62305 1.00259,-0.21483 1.97655,-0.47264 2.92188,-0.77344 0.95962,-0.31509 1.73305,-0.666 2.32031,-1.05273 0.60155,-0.38671 1.0742,-0.8522 1.41797,-1.39648 0.35805,-0.54426 0.53709,-1.15298 0.53711,-1.82618 -2e-5,-1.03123 -0.34377,-1.8548 -1.03125,-2.4707 -0.6732,-0.61587 -1.61851,-0.92381 -2.83594,-0.92383 -0.85939,2e-5 -1.69728,0.1719 -2.51367,0.51563 -0.81642,0.32944 -1.56121,0.81642 -2.23438,1.46093 -0.65886,0.64455 -1.19597,1.4896 -1.61133,2.53516 -0.40104,1.04559 -0.60156,2.2129 -0.60156,3.50195 0,0.35809 0.0215,0.709 0.0644,1.05274 m 6.98243,11 c -1.47528,0 -2.87176,-0.25781 -4.18946,-0.77344 -1.30339,-0.52995 -2.45638,-1.27474 -3.45898,-2.23437 -0.98829,-0.95964 -1.77605,-2.16992 -2.36328,-3.63086 -0.57292,-1.46093 -0.85938,-3.07226 -0.85938,-4.83399 0,-1.50389 0.25065,-2.94334 0.75196,-4.31836 0.50129,-1.3893 1.20312,-2.61391 2.10546,-3.67383 0.90234,-1.07419 2.04101,-1.92641 3.41602,-2.55664 1.37499,-0.64451 2.87173,-0.96677 4.49023,-0.96679 2.1914,2e-5 3.96744,0.60874 5.32813,1.82617 1.37498,1.21747 2.06248,2.73569 2.0625,4.55469 -2e-5,0.85939 -0.15757,1.64715 -0.47266,2.36328 -0.31512,0.70183 -0.78778,1.31772 -1.41797,1.84765 -0.63022,0.52996 -1.34637,1.00262 -2.14843,1.41797 -0.78778,0.40105 -1.74025,0.75913 -2.85742,1.07422 -1.10288,0.31511 -2.21291,0.58725 -3.33008,0.81641 -1.10288,0.21485 -2.37045,0.42969 -3.80274,0.64453 0.45833,1.73308 1.34635,3.08659 2.66407,4.06055 1.33202,0.97396 2.83592,1.46094 4.51171,1.46093 2.36327,10e-6 4.44009,-0.85221 6.23047,-2.55664 l 1.54688,2.44922 c -2.49221,2.01953 -5.22788,3.0293 -8.20703,3.0293"
       style="font-size:44px;font-variant:normal;font-stretch:normal;fill:#333333;font-family:Topmarks;-inkscape-font-specification:Topmarks"
       id="path3208" />
  </g>
  <g
     id="g7017"
     transform="matrix(1.7626052,0,0,1.8514215,-156.6211,-371.72888)">
    <path
       inkscape:connector-curvature="0"
       style="fill:#462c20;fill-opacity:1;fill-rule:nonzero;stroke:none"
       id="path7683"
       d="m 329.74602,288.11848 c 0,0 0.1025,1.14625 -1.0425,1.97875 l -1.0425,0.52125 -1.04,-0.41625 -0.9375,0.52 -0.9375,-0.41625 -0.835,0.3125 -0.83375,-0.43375 c 0,0 -1.24875,-0.505 -1.04125,-1.8575 0.21,-1.355 7.71,-0.20875 7.71,-0.20875" />
    <path
       inkscape:connector-curvature="0"
       style="fill:#6a4225;fill-opacity:1;fill-rule:nonzero;stroke:none"
       id="path7685"
       d="m 327.55602,225.54973 c 0,0 -0.28375,-9.9625 8.5375,-16.5075 0,0 2.56125,-0.8525 0.855,-2.56125 -1.70875,-1.70625 -3.13,-0.28375 -3.13,-0.28375 0,0 -9.1075,6.26 -9.1075,20.49 0,14.22875 3.13,8.5375 2.845,-1.1375" />
    <path
       inkscape:connector-curvature="0"
       style="fill:#e51d25;fill-opacity:1;fill-rule:nonzero;stroke:none"
       id="path7687"
       d="m 333.18227,221.59098 c -2.355,1.23875 -4.65,1.7 -6.66625,1.75125 l 0,-0.005 c -0.17125,0.007 -0.34625,0.005 -0.5225,0.007 -0.17375,-0.002 -0.35,0 -0.52,-0.007 l 0,0.005 c -2.01875,-0.0513 -4.3125,-0.5125 -6.6675,-1.75125 -8.4375,-5.625 -33.75,-3.1275 -33.75,21.25 0,17.5 5.88875,26.49375 16.5625,38.75 8.4375,9.6875 14.6875,10.625 19.6875,8.125 1.40875,-0.705 2.835,-0.9975 4.1675,-1.07625 l 0,0.0225 c 0.175,-0.015 0.34875,-0.0275 0.52,-0.0387 0.17375,0.0112 0.34625,0.0238 0.5225,0.0387 l 0,-0.0225 c 1.33,0.0788 2.75875,0.37125 4.16625,1.07625 5,2.5 11.25,1.5625 19.6875,-8.125 10.675,-12.25625 16.5625,-21.25 16.5625,-38.75 0,-24.3775 -25.3125,-26.875 -33.75,-21.25" />
    <path
       inkscape:connector-curvature="0"
       style="fill:#fbc8d2;fill-opacity:1;fill-rule:nonzero;stroke:none"
       id="path7689"
       d="m 332.88102,227.06973 c -3.3925,1.23375 -12.6075,0.40875 -15.325,-1.3575 0,0 6.76625,5.84125 13.69375,5.16125 6.92875,-0.67875 11.68375,5.84125 12.4975,10.46125 0.815,4.61875 3.80375,4.34625 5.2975,4.075 0,0 6.92875,-0.95125 4.48375,-10.595 0,0 -2.18375,-9.89625 -13.31375,-10.125 -3.1225,-0.0637 -4.34625,1.29375 -7.33375,2.38" />
    <path
       inkscape:connector-curvature="0"
       style="fill:#94191e;fill-opacity:1;fill-rule:nonzero;stroke:none"
       id="path7691"
       d="m 300.47352,223.46598 c 0,0 -16.25,3.75 -11.45875,30 0,0 1.875,15.41625 20.41625,31.45875 0,0 5.00125,5 10.4175,2.29125 5.41625,-2.70875 6.66625,-1.875 9.79125,-0.625 3.125,1.25 12.91625,8.125 32.50125,-27.29125 0,0 -34.58375,21.66625 -53.75,-3.33375 0,0 -12.9175,-15 -7.9175,-32.5" />
  </g>
  <g
     id="g7008"
     transform="matrix(1.7626052,0,0,1.8514215,-237.70094,-371.72888)">
    <path
       inkscape:connector-curvature="0"
       style="fill:#6a4225;fill-opacity:1;fill-rule:nonzero;stroke:none"
       id="path7693"
       d="m 425.91727,228.82848 c 0,0 -0.28375,-9.9625 8.53875,-16.5075 0,0 2.56,-0.8525 0.85375,-2.56125 -1.70875,-1.70625 -3.13125,-0.28375 -3.13125,-0.28375 0,0 -9.1075,6.26 -9.1075,20.49 0,14.22875 3.13125,8.5375 2.84625,-1.1375" />
    <path
       inkscape:connector-curvature="0"
       style="fill:#e51d25;fill-opacity:1;fill-rule:nonzero;stroke:none"
       id="path7695"
       d="m 432.25477,224.84848 c -2.355,1.2375 -4.65,1.7 -6.66625,1.75 l 0,-0.004 c -0.17125,0.006 -0.3475,0.005 -0.5225,0.006 -0.17375,-0.001 -0.35,0 -0.52,-0.006 l 0,0.004 c -2.01875,-0.05 -4.3125,-0.5125 -6.6675,-1.75 -8.4375,-5.625 -33.75,-3.1275 -33.75,21.25 0,17.5 5.88875,26.49375 16.5625,38.75 8.4375,9.6875 14.6875,10.625 19.6875,8.125 1.40875,-0.705 2.835,-0.99875 4.1675,-1.07625 l 0,0.0225 c 0.17375,-0.0137 0.34875,-0.0275 0.52,-0.0387 0.1725,0.0112 0.34625,0.025 0.5225,0.0387 l 0,-0.0225 c 1.33,0.0775 2.75875,0.37125 4.16625,1.07625 5,2.5 11.25,1.5625 19.6875,-8.125 10.675,-12.25625 16.5625,-21.25 16.5625,-38.75 0,-24.3775 -25.3125,-26.875 -33.75,-21.25" />
    <path
       inkscape:connector-curvature="0"
       style="fill:#462c20;fill-opacity:1;fill-rule:nonzero;stroke:none"
       id="path7697"
       d="m 428.81852,291.37723 c 0,0 0.1025,1.145 -1.0425,1.97875 l -1.0425,0.52125 -1.04,-0.4175 -0.9375,0.52125 -0.9375,-0.41625 -0.835,0.3125 -0.83375,-0.435 c 0,0 -1.1025,-0.49 -1.04125,-1.8575 0.26125,-5.70875 4.18,-5.42375 6.35375,-3.61125 1.30375,1.08625 1.35625,3.40375 1.35625,3.40375" />
    <path
       inkscape:connector-curvature="0"
       style="fill:#fdfab7;fill-opacity:1;fill-rule:nonzero;stroke:none"
       id="path7699"
       d="m 431.95102,226.26098 c -2.255,1.18625 -4.45375,1.63 -6.385,1.67875 l 0,-0.006 c -0.16375,0.007 -0.33125,0.006 -0.5,0.009 -0.16625,-0.002 -0.33625,-0.001 -0.49875,-0.009 l 0,0.006 c -1.9325,-0.0488 -4.13,-0.4925 -6.38375,-1.67875 -8.08125,-5.3875 -32.32125,-2.995 -32.32125,20.35 0,16.76 5.6375,25.37375 15.86125,37.1125 8.08,9.2775 14.065,10.17375 18.85375,7.78 1.34875,-0.675 2.715,-0.95625 3.99,-1.03 l 0,0.0225 c 0.1675,-0.015 0.335,-0.0275 0.49875,-0.0388 0.16625,0.0113 0.33125,0.0238 0.5,0.0388 l 0,-0.0225 c 1.275,0.0737 2.64125,0.355 3.99,1.03 4.78875,2.39375 10.77375,1.4975 18.855,-7.78 10.22125,-11.73875 15.86125,-20.3525 15.86125,-37.1125 0,-23.345 -24.24125,-25.7375 -32.32125,-20.35" />
    <path
       inkscape:connector-curvature="0"
       style="fill:#e6dc87;fill-opacity:1;fill-rule:nonzero;stroke:none"
       id="path7701"
       d="m 427.60227,246.46723 c -0.83125,0.4375 -1.64,0.59875 -2.35125,0.6175 l 0,-0.003 -0.185,0.003 -0.18375,-0.003 0,0.003 c -0.71125,-0.0188 -1.52,-0.18 -2.35125,-0.6175 -2.97375,-1.985 -11.90125,-1.10375 -11.90125,7.4925 0,6.1725 2.0775,9.34375 5.84125,13.66625 2.975,3.41625 5.17875,3.74625 6.9425,2.865 0.49625,-0.24875 1,-0.35125 1.46875,-0.38 l 0,0.009 0.18375,-0.015 0.185,0.015 0,-0.009 c 0.46875,0.0288 0.9725,0.13125 1.46875,0.38 1.76375,0.88125 3.9675,0.55125 6.9425,-2.865 3.76375,-4.3225 5.84125,-7.49375 5.84125,-13.66625 0,-8.59625 -8.9275,-9.4775 -11.90125,-7.4925" />
    <path
       inkscape:connector-curvature="0"
       style="fill:#462c20;fill-opacity:1;fill-rule:nonzero;stroke:none"
       id="path7703"
       d="m 431.18227,253.04473 c -0.0575,0.7525 0.0662,1.6375 -1.13125,2.72625 0,0 -1.41625,1.19625 -1.50875,3.035 -0.0263,0.56125 0.31125,2.3 2.15125,2.5175 0.985,0.1175 2.14125,0.002 2.96375,-1.74 0.6225,-1.3175 0.53125,-4.35625 -1.62375,-6.66375 -0.28125,-0.3 -0.80125,-0.52 -0.85125,0.125" />
    <path
       inkscape:connector-curvature="0"
       style="fill:#462c20;fill-opacity:1;fill-rule:nonzero;stroke:none"
       id="path7705"
       d="m 420.04727,253.46098 c 0.0575,0.7525 -0.0675,1.6375 1.13125,2.72625 0,0 1.415,1.1975 1.50875,3.03625 0.0275,0.56 -0.3125,2.29875 -2.15,2.5175 -0.98625,0.11625 -2.14125,0.001 -2.96375,-1.74125 -0.6225,-1.31625 -0.5325,-4.35625 1.62375,-6.6625 0.28,-0.3 0.8,-0.52 0.85,0.12375" />
  </g>
  <g
     id="g7600"
     transform="matrix(1.8443317,0,0,1.8443317,-55.870593,-260.01374)">
    <path
       inkscape:connector-curvature="0"
       style="fill:#2fa840;fill-opacity:1;fill-rule:nonzero;stroke:none"
       id="path7783"
       d="m 153.42122,161.45625 c 0,0 -6.25,-7.08375 -14.16737,0 0,0 6.25087,7.0825 14.16737,0" />
    <path
       inkscape:connector-curvature="0"
       style="fill:#f68d11;fill-opacity:1;fill-rule:nonzero;stroke:none"
       id="path7785"
       d="m 174.82022,166.03875 c -3.916,-2.815 -10.416,-5 -16.25,-5 -3.71,0 -7.45612,0.3025 -8.3325,0.4175 -1.09625,0.1425 -2.45462,0.13 -3.48387,0.0887 l 0,-0.0887 c 0,0 -0.30525,0.025 -0.75838,0.0512 -0.45262,-0.0263 -0.75775,-0.0512 -0.75775,-0.0512 l 0,0.0887 c -1.02937,0.0413 -2.38775,0.0538 -3.48387,-0.0887 -0.8765,-0.115 -4.62313,-0.4175 -8.33263,-0.4175 -5.83387,0 -12.33387,2.185 -16.25,5 -10.15037,7.295 -19.956004,26.3825 -8.33387,48.33375 7.5,14.16625 18.75,17.5 29.1665,18.75 0,0 1.25,3.75 5,2.08375 0,0 1.00187,0.98625 2.99162,0.905 1.98975,0.0812 2.99225,-0.905 2.99225,-0.905 3.75,1.66625 5,-2.08375 5,-2.08375 10.4165,-1.25 21.6665,-4.58375 29.1665,-18.75 11.622,-21.95125 1.81638,-41.03875 -8.334,-48.33375" />
    <path
       inkscape:connector-curvature="0"
       style="fill:#fabc6f;fill-opacity:1;fill-rule:nonzero;stroke:none"
       id="path7787"
       d="m 176.41047,182.9875 c -1.17762,-7.0675 -5.30125,-12.075 -12.07612,-15.0225 0,0 -5.89113,-1.7675 -11.48775,-0.29375 0,0 -5.00638,0.59 -9.42538,-0.29375 0,0 1.17925,6.185 5.30175,6.47875 4.12363,0.29625 12.1885,1.1925 12.66613,8.8375 0.29387,4.7125 -0.001,9.13125 7.36325,10.015 0,0 9.61037,1.995 7.65812,-9.72125" />
    <path
       inkscape:connector-curvature="0"
       style="fill:#f36617;fill-opacity:1;fill-rule:nonzero;stroke:none"
       id="path7789"
       d="m 120.08735,166.8725 c 0,0 -19.28813,11.38625 -12.5,37.08375 5.83387,22.0825 24.1665,26.66625 32.08387,26.25 0,0 -0.8325,2.5 6.25,2.5 0,0 6.25,0.41625 6.66613,-2.5 0,0 22.5,1.25 30.83387,-22.5 0,0 -25.00087,15 -47.91737,1.66625 0,0 -23.33263,-14.58375 -15.4165,-42.5" />
  </g>
  <g
     id="g7606"
     transform="matrix(1.8998479,0,0,1.8998479,-192.96647,-421.31498)">
    <path
       inkscape:connector-curvature="0"
       style="fill:#f68d11;fill-opacity:1;fill-rule:nonzero;stroke:none"
       id="path9591"
       d="m 185.89197,267.68125 c 0.44925,0.41625 0.31588,0.15875 -0.32562,0.17625 -0.6485,0.02 -1.2915,0.075 -1.9375,0.125 -1.18663,0.0887 -2.35938,0.115 -3.5205,-0.2 -0.43713,-0.1175 -0.79113,-0.3075 -1.08163,-0.54375 -4.855,2.035 -9.76562,1.8575 -15.0415,1.8275 -7.08987,-0.0388 -14.16262,-0.3825 -21.24512,-0.65625 -3.688,-0.1425 -7.583,0.12875 -11.24025,-0.325 -0.82613,-0.1025 -1.59425,-0.25125 -2.334,-0.43 -0.20263,0.0437 -0.41838,0.0712 -0.64938,0.0737 -8.44875,0.085 -16.85637,1.02 -25.30512,0.65625 -0.0474,6.25875 1.45012,13.1325 5.25387,20.3175 7.5,14.1675 18.75,17.5 29.166,18.75 0,0 1.25,3.75 5,2.0825 0,0 1.0025,0.98625 2.99225,0.90625 1.98975,0.08 2.99163,-0.90625 2.99163,-0.90625 3.75,1.6675 5,-2.0825 5,-2.0825 10.4165,-1.25 21.6665,-4.5825 29.1665,-18.75 3.7915,-7.16 5.2915,-14.0125 5.25487,-20.25375 -0.71387,0.0713 -1.47062,-0.14125 -2.1445,-0.7675" />
    <path
       inkscape:connector-curvature="0"
       style="fill:#f36617;fill-opacity:1;fill-rule:nonzero;stroke:none"
       id="path9593"
       d="m 135.13122,283.7025 c 0,0 -8.53762,-5.35 -13.53125,-15.75375 -5.271,0.24625 -10.53462,0.5925 -15.8105,0.52 0.0635,3.0075 0.48975,6.27125 1.42575,9.81625 5.834,22.08375 24.166,26.6675 32.084,26.25 0,0 -0.8325,2.5 6.25,2.5 0,0 6.25,0.4175 6.666,-2.5 0,0 22.5,1.25 30.834,-22.5 0,0 -25.0015,15 -47.918,1.6675" />
    <path
       inkscape:connector-curvature="0"
       style="fill:#f68d11;fill-opacity:1;fill-rule:nonzero;stroke:none"
       id="path9595"
       d="m 188.23822,267.59375 c 0.84863,10.045 -18.43362,18.5475 -43.09575,18.5475 -24.66312,0 -43.14062,-8.5025 -41.9385,-18.5475 1.1475,-9.5825 19.91213,-17.035 42.56988,-17.035 22.65812,0 41.65862,7.4525 42.46437,17.035" />
    <path
       inkscape:connector-curvature="0"
       style="fill:#fef8d8;fill-opacity:1;fill-rule:nonzero;stroke:none"
       id="path9597"
       d="m 185.46235,267.17375 c 0.78212,8.79 -17.06063,16.2275 -39.89263,16.2275 -22.82712,0 -40.39062,-7.4375 -39.27975,-16.2275 1.06438,-8.38375 18.894,-14.90625 39.86475,-14.90625 20.97263,0 38.558,6.5225 39.30763,14.90625" />
    <path
       inkscape:connector-curvature="0"
       style="fill:#f8a10e;fill-opacity:1;fill-rule:nonzero;stroke:none"
       id="path9599"
       d="m 141.6156,253.11375 c -6.6635,0.3125 -12.81588,1.3125 -17.978,2.815 -0.86725,0.255 -0.38575,1.64875 -0.38575,1.64875 l 21.45212,8.46375 0.25538,-11.70125 c 0,0 -2.23138,-1.28 -3.34375,-1.22625" />
    <path
       inkscape:connector-curvature="0"
       style="fill:#f8a10e;fill-opacity:1;fill-rule:nonzero;stroke:none"
       id="path9601"
       d="m 142.9681,267.64625 -30.8325,0 c 0,0 -3.82025,0.93 -3.73538,1.38625 0.54113,2.755 3.02063,5.3125 6.97175,7.44875 0.66988,0.36875 4.96825,-0.0325 4.96825,-0.0325 l 22.62788,-8.8025" />
    <path
       inkscape:connector-curvature="0"
       style="fill:#f8a10e;fill-opacity:1;fill-rule:nonzero;stroke:none"
       id="path9603"
       d="m 147.27385,254.39375 -0.18075,11.6475 21.95712,-8.54125 c 0,0 0.35488,-1.315 -0.4995,-1.56625 -5.109,-1.5075 -11.233,-2.50875 -17.89312,-2.82 -1.10838,-0.0538 -3.38375,1.28 -3.38375,1.28" />
    <path
       inkscape:connector-curvature="0"
       style="fill:#f8a10e;fill-opacity:1;fill-rule:nonzero;stroke:none"
       id="path9605"
       d="m 142.99397,266.70375 -21.44775,-8.49625 c 0,0 -3.63525,-0.235 -4.33437,0.0925 -4.30675,2.00125 -7.315,4.46875 -8.43563,7.20625 -0.16212,0.3925 2.71875,1.1975 2.71875,1.1975 l 31.499,0" />
    <path
       inkscape:connector-curvature="0"
       style="fill:#f8a10e;fill-opacity:1;fill-rule:nonzero;stroke:none"
       id="path9607"
       d="m 144.65172,268.3175 -23.02975,8.98875 c 0,0 -0.77887,1.5575 0.0976,1.845 5.2515,1.72 11.73338,2.87875 18.89163,3.25 1.22562,0.0637 3.75975,-1.36 3.75975,-1.36 l 0.28075,-12.72375" />
    <path
       inkscape:connector-curvature="0"
       style="fill:#f8a10e;fill-opacity:1;fill-rule:nonzero;stroke:none"
       id="path9609"
       d="m 148.76647,267.64625 23.21688,9.16375 c 0,0 3.18212,0.125 3.79725,-0.195 4.23975,-2.2 6.92675,-4.855 7.52987,-7.72125 0.0897,-0.41125 -3.61575,-1.2475 -3.61575,-1.2475 l -30.92825,0" />
    <path
       inkscape:connector-curvature="0"
       style="fill:#f8a10e;fill-opacity:1;fill-rule:nonzero;stroke:none"
       id="path9611"
       d="m 148.7801,266.70375 31.60012,0 c 0,0 2.77988,-0.9075 2.60163,-1.35 -1.10263,-2.76375 -4.14063,-5.24125 -8.50925,-7.24 -0.5655,-0.25875 -3.88,0.0762 -3.88,0.0762 l -21.8125,8.51375" />
    <path
       inkscape:connector-curvature="0"
       style="fill:#f8a10e;fill-opacity:1;fill-rule:nonzero;stroke:none"
       id="path9613"
       d="m 147.05647,268.3175 -0.19775,12.84875 c 0,0 2.43075,1.30125 3.628,1.24 7.14838,-0.36375 13.65325,-1.5125 18.96725,-3.215 0.93025,-0.2975 0.1895,-1.92625 0.1895,-1.92625 l -22.587,-8.9475" />
  </g>
  <g
     style="font-size:40px;font-style:normal;font-weight:normal;line-height:125%;letter-spacing:0px;word-spacing:0px;fill:#333333;fill-opacity:1;stroke:none;font-family:topmarksbook"
     id="text11705-0-82-1">
    <path
       d="m 87.441437,217.16255 c -1.632834,0.57292 -3.401712,0.85938 -5.306641,0.85938 -1.904963,0 -3.673842,-0.28646 -5.30664,-0.85938 -1.632824,-0.58724 -3.036468,-1.38932 -4.210938,-2.40625 -1.160163,-1.01692 -2.155605,-2.20572 -2.986328,-3.5664 -0.830733,-1.36067 -1.45378,-2.82877 -1.869141,-4.4043 -0.401044,-1.58983 -0.601565,-3.22981 -0.601562,-4.91992 -3e-6,-1.70441 0.200518,-3.34439 0.601562,-4.91992 0.415361,-1.58983 1.038408,-3.07225 1.869141,-4.44727 0.830723,-1.37497 1.826165,-2.57094 2.986328,-3.58789 1.17447,-1.0169 2.578114,-1.81182 4.210938,-2.38477 1.632798,-0.5872 3.401677,-0.88082 5.30664,-0.88086 1.904929,4e-5 3.673807,0.29366 5.306641,0.88086 1.632788,0.57295 3.029271,1.36787 4.189453,2.38477 1.174451,1.01695 2.177054,2.21292 3.007812,3.58789 0.830699,1.37502 1.446584,2.85744 1.847657,4.44727 0.415332,1.57553 0.623014,3.21551 0.623047,4.91992 -3.3e-5,1.69011 -0.207715,3.33009 -0.623047,4.91992 -0.401073,1.57553 -1.016958,3.04363 -1.847657,4.4043 -0.830758,1.36068 -1.833361,2.54948 -3.007812,3.5664 -1.160182,1.01693 -2.556665,1.81901 -4.189453,2.40625 m -9.453125,-3.20117 c 1.303371,0.5586 2.685531,0.83789 4.146484,0.83789 1.460919,0 2.843079,-0.27929 4.146485,-0.83789 1.303362,-0.55859 2.470679,-1.36067 3.501953,-2.40625 1.031223,-1.04557 1.847629,-2.40624 2.449218,-4.08203 0.615858,-1.67577 0.9238,-3.55207 0.923829,-5.62891 -2.9e-5,-1.67576 -0.20055,-3.21547 -0.601563,-4.61914 -0.386746,-1.41795 -0.931017,-2.62823 -1.632812,-3.63086 -0.687526,-1.0169 -1.49677,-1.87627 -2.427735,-2.57812 -0.931012,-0.71612 -1.933616,-1.24607 -3.007812,-1.58985 -1.074239,-0.34372 -2.191425,-0.51559 -3.351563,-0.51562 -1.160172,3e-5 -2.277359,0.1719 -3.351562,0.51562 -1.074232,0.34378 -2.076835,0.87373 -3.007813,1.58985 -0.931,0.70185 -1.747405,1.56122 -2.449219,2.57812 -0.687508,1.00263 -1.231778,2.21291 -1.632812,3.63086 -0.386725,1.40367 -0.580085,2.94338 -0.580078,4.61914 -7e-6,2.07684 0.300774,3.95314 0.902344,5.62891 0.615877,1.67579 1.439444,3.03646 2.470703,4.08203 1.031239,1.04558 2.198555,1.84766 3.501953,2.40625"
       style="font-size:44px;font-variant:normal;font-stretch:normal;fill:#333333;font-family:Topmarks;-inkscape-font-specification:Topmarks"
       id="path3187" />
    <path
       d="m 104.17776,217.5063 0,-14.88867 c 0,-1.11717 -0.27213,-2.11977 -0.8164,-3.00781 -0.52995,-0.90233 -1.13868,-1.64712 -1.82617,-2.23438 l 3.02929,-1.76172 c 1.30338,1.13153 2.08398,2.48505 2.3418,4.06055 0.55859,-1.37498 1.44661,-2.49933 2.66406,-3.37305 1.23176,-0.87367 2.52799,-1.31052 3.88867,-1.31054 1.17447,2e-5 2.27733,0.14325 3.3086,0.42968 l -0.30078,3.11524 c -0.97398,-0.34373 -2.01239,-0.51561 -3.11524,-0.51563 -1.60418,2e-5 -2.95053,0.71617 -4.03906,2.14844 -1.07423,1.41799 -1.61134,3.35158 -1.61133,5.80078 l 0,11.53711 -3.52344,0"
       style="font-size:44px;font-variant:normal;font-stretch:normal;fill:#333333;font-family:Topmarks;-inkscape-font-specification:Topmarks"
       id="path3189" />
    <path
       d="m 128.62698,215.05708 c 1.96223,10e-6 3.55923,-0.68749 4.79102,-2.0625 1.23175,-1.37499 1.84764,-3.11522 1.84766,-5.2207 l 0,-9.10937 c -0.95966,-0.50129 -2.28453,-0.75194 -3.97461,-0.75196 -2.43491,2e-5 -4.40431,0.91669 -5.90821,2.75 -1.48959,1.83335 -2.23438,4.2396 -2.23437,7.21875 -1e-5,2.14845 0.50129,3.88152 1.5039,5.19922 1.0026,1.31771 2.32747,1.97657 3.97461,1.97656 m -0.51562,2.92188 c -2.53517,0 -4.60483,-0.90951 -6.20899,-2.72852 -1.60417,-1.819 -2.40625,-4.20377 -2.40625,-7.15429 0,-3.91015 1.0957,-7.06835 3.28711,-9.47461 2.20572,-2.42056 5.06314,-3.63084 8.57227,-3.63086 1.37498,2e-5 2.74282,0.17189 4.10351,0.51562 1.36066,0.32945 2.47069,0.77346 3.33008,1.33203 l 0,14.69532 c -2e-5,1.17448 0.22199,2.03385 0.66602,2.57812 0.44399,0.52995 1.26039,0.79493 2.44922,0.79492 l -0.62305,2.90039 c -1.66148,0 -2.93622,-0.3151 -3.82422,-0.94531 -0.88804,-0.63021 -1.48244,-1.56836 -1.7832,-2.81445 -0.70184,1.20312 -1.74025,2.16276 -3.11524,2.8789 -1.36069,0.70183 -2.84311,1.05274 -4.44726,1.05274"
       style="font-size:44px;font-variant:normal;font-stretch:normal;fill:#333333;font-family:Topmarks;-inkscape-font-specification:Topmarks"
       id="path3191" />
    <path
       d="m 169.4473,214.90669 -0.58008,2.90039 -0.60156,0 c -1.17451,0 -2.15563,-0.15755 -2.94336,-0.47265 -0.77346,-0.32943 -1.38219,-0.83073 -1.82618,-1.50391 -0.4297,-0.67317 -0.73048,-1.44661 -0.90234,-2.32031 -0.17189,-0.88802 -0.25783,-1.97656 -0.25781,-3.26563 l 0,-5.11328 c -2e-5,-2.54946 -0.42255,-4.38996 -1.26758,-5.52148 -0.83075,-1.13149 -2.06252,-1.69725 -3.69531,-1.69727 -0.81642,2e-5 -1.59702,0.16473 -2.3418,0.49414 -0.7448,0.32945 -1.42514,0.82359 -2.04102,1.48242 -0.60157,0.65888 -1.08138,1.5469 -1.43945,2.66407 -0.35808,1.1172 -0.53712,2.39194 -0.53711,3.82422 l 0,11.1289 -3.52344,0 0,-14.58789 c 0,-2.22003 -0.88086,-4.06769 -2.64257,-5.54297 l 3.05078,-1.76172 c 1.3177,1.14586 2.09114,2.50653 2.32031,4.08204 0.67317,-1.43228 1.73306,-2.57095 3.17969,-3.41602 1.46092,-0.85935 3.11522,-1.28904 4.96289,-1.28906 2.23436,2e-5 4.03904,0.83791 5.41406,2.51367 1.3893,1.6758 2.08396,4.16082 2.08399,7.45508 l 0,5.86523 c -3e-5,1.47527 0.18617,2.528 0.55859,3.1582 0.38669,0.61589 1.11716,0.92384 2.19141,0.92383 l 0.83789,0"
       style="font-size:44px;font-variant:normal;font-stretch:normal;fill:#333333;font-family:Topmarks;-inkscape-font-specification:Topmarks"
       id="path3193" />
    <path
       d="m 182.05862,215.05708 c 2.11978,10e-6 3.75975,-0.7233 4.91993,-2.16992 1.16013,-1.46093 1.74021,-3.33007 1.74023,-5.60742 l 0,-8.61523 c -1.6758,-0.50129 -3.02215,-0.75194 -4.03906,-0.75196 -2.50652,2e-5 -4.49741,0.8952 -5.97266,2.68555 -1.47527,1.79038 -2.21289,4.21811 -2.21289,7.2832 0,2.14845 0.50846,3.88152 1.52539,5.19922 1.01692,1.31771 2.36327,1.97657 4.03906,1.97656 m -0.23632,13.0625 c -2.29168,-1e-5 -4.61915,-0.43686 -6.98243,-1.31054 l 0.34375,-3.28711 c 0.97396,0.48697 2.04817,0.88085 3.22266,1.18164 1.17447,0.31509 2.22004,0.47265 3.13672,0.47265 2.20572,0 3.95311,-0.6875 5.24219,-2.0625 1.28904,-1.375 1.93357,-3.32292 1.93359,-5.84375 l 0,-3.05078 c -1.51825,2.50651 -3.88869,3.75977 -7.11133,3.75977 -2.59245,0 -4.70508,-0.90951 -6.33789,-2.72852 -1.61849,-1.819 -2.42774,-4.20377 -2.42773,-7.15429 -10e-6,-4.0677 1.08137,-7.26887 3.24414,-9.60352 2.16275,-2.33461 5.04882,-3.50193 8.6582,-3.50195 1.38931,2e-5 2.77147,0.17189 4.14649,0.51562 1.37498,0.32945 2.49216,0.77346 3.35156,1.33203 l 0,19.98047 c -2e-5,3.27995 -0.97398,5.97981 -2.92188,8.09961 -1.93361,2.13411 -4.43295,3.20116 -7.49804,3.20117"
       style="font-size:44px;font-variant:normal;font-stretch:normal;fill:#333333;font-family:Topmarks;-inkscape-font-specification:Topmarks"
       id="path3195" />
    <path
       d="m 201.84573,206.97896 c 1.375,-0.20051 2.5638,-0.40819 3.56641,-0.62305 1.00259,-0.21483 1.97655,-0.47264 2.92187,-0.77344 0.95963,-0.31509 1.73306,-0.666 2.32032,-1.05273 0.60154,-0.38671 1.0742,-0.8522 1.41797,-1.39648 0.35805,-0.54426 0.53709,-1.15298 0.53711,-1.82618 -2e-5,-1.03123 -0.34377,-1.8548 -1.03125,-2.4707 -0.6732,-0.61587 -1.61851,-0.92381 -2.83594,-0.92383 -0.85939,2e-5 -1.69728,0.1719 -2.51367,0.51563 -0.81642,0.32944 -1.56121,0.81642 -2.23438,1.46093 -0.65886,0.64455 -1.19597,1.4896 -1.61133,2.53516 -0.40105,1.04559 -0.60157,2.2129 -0.60156,3.50195 -1e-5,0.35809 0.0215,0.709 0.0644,1.05274 m 6.98243,11 c -1.47528,0 -2.87176,-0.25781 -4.18946,-0.77344 -1.30339,-0.52995 -2.45638,-1.27474 -3.45898,-2.23437 -0.98829,-0.95964 -1.77605,-2.16992 -2.36328,-3.63086 -0.57292,-1.46093 -0.85938,-3.07226 -0.85938,-4.83399 0,-1.50389 0.25065,-2.94334 0.75195,-4.31836 0.5013,-1.3893 1.20313,-2.61391 2.10547,-3.67383 0.90234,-1.07419 2.04101,-1.92641 3.41602,-2.55664 1.37499,-0.64451 2.87173,-0.96677 4.49023,-0.96679 2.19139,2e-5 3.96743,0.60874 5.32813,1.82617 1.37498,1.21747 2.06248,2.73569 2.0625,4.55469 -2e-5,0.85939 -0.15757,1.64715 -0.47266,2.36328 -0.31512,0.70183 -0.78778,1.31772 -1.41797,1.84765 -0.63022,0.52996 -1.34637,1.00262 -2.14843,1.41797 -0.78778,0.40105 -1.74025,0.75913 -2.85743,1.07422 -1.10287,0.31511 -2.2129,0.58725 -3.33007,0.81641 -1.10288,0.21485 -2.37045,0.42969 -3.80274,0.64453 0.45833,1.73308 1.34635,3.08659 2.66406,4.06055 1.33202,0.97396 2.83593,1.46094 4.51172,1.46093 2.36327,10e-6 4.44009,-0.85221 6.23047,-2.55664 l 1.54688,2.44922 c -2.49221,2.01953 -5.22788,3.0293 -8.20703,3.0293"
       style="font-size:44px;font-variant:normal;font-stretch:normal;fill:#333333;font-family:Topmarks;-inkscape-font-specification:Topmarks"
       id="path3197" />
  </g>
</svg>
