<?xml version="1.0" encoding="UTF-8" standalone="no"?>
<!-- Created with Inkscape (http://www.inkscape.org/) -->

<svg
   xmlns:dc="http://purl.org/dc/elements/1.1/"
   xmlns:cc="http://creativecommons.org/ns#"
   xmlns:rdf="http://www.w3.org/1999/02/22-rdf-syntax-ns#"
   xmlns:svg="http://www.w3.org/2000/svg"
   xmlns="http://www.w3.org/2000/svg"
   version="1.1"
   width="629.92047"
   height="228.5614"
   id="svg7865">
  <defs
     id="defs7867" />
  <metadata
     id="metadata7870">
    <rdf:RDF>
      <cc:Work
         rdf:about="">
        <dc:format>image/svg+xml</dc:format>
        <dc:type
           rdf:resource="http://purl.org/dc/dcmitype/StillImage" />
        <dc:title></dc:title>
      </cc:Work>
    </rdf:RDF>
  </metadata>
  <g
     transform="translate(-60.039779,-418.08149)"
     id="layer1">
    <g
       transform="matrix(-0.9395677,-0.34236316,-0.34236316,0.9395677,203.07569,297.13579)"
       id="g7405">
      <path
         d="m -86.444487,115.25646 c 0,0 -7.98125,4.36 -3.1425,10.96375 4.8375,6.59875 5.0175,17.775 2.09125,25.41625 -1.36875,3.5775 -5.1575,6.17375 -8.44625,15.6275 -3.73125,10.72738 -3.125,25.18875 0.12125,40.18 6.9275,32.00975 43.06375,82.22854 122.9225,68.14363 0,0 8.36,-3.57763 18.705,-6.57863 0,0 3.24,-0.774 6.31,-6.11875 0,0 3.64625,-7.32762 -4.935,-9.61762 -8.585,-2.29488 -8.77875,-7.51613 -21.95125,-10.28863 0,0 -43.65125,-3.75387 -61.9625,-22.38375 0,0 -17.62,-13.45112 -20.53125,-40.07375 0,0 -2.43125,-18.1225 -11.11125,-28.8225 0,0 -6.52125,-4.39375 -7.09875,-23.425 -0.32125,-10.6275 -1.6975,-17.565 -10.97125,-13.0225"
         id="path7775"
         style="fill:#f0ca21;fill-opacity:1;fill-rule:nonzero;stroke:none" />
      <path
         d="m 48.609263,255.70909 c 0,0 -2.33125,-1.21775 -2.71625,5.981 0,0 -0.46,5.2475 3.115,4.78762 0,0 6.50875,-0.7325 3.605,-8.46737 0,0 -0.0888,-2.44625 -4.00375,-2.30125"
         id="path7777"
         style="fill:#6a4225;fill-opacity:1;fill-rule:nonzero;stroke:none" />
      <path
         d="m 40.654263,253.51621 c 0,0 -5.415,-5.02587 -13.32125,-6.68987 -7.90375,-1.66513 -36.7387499,-3.86138 -44.7625,-8.78613 -6.92875,-4.25487 -29.02125,-9.74512 -41.63125,-45.91112 -1.99875,-5.74025 -2.01,-13.8765 -3.47875,-21.43888 0,0 -3.23875,-9.45 -10.63125,-20.3175 0,0 -3.2825,-4.82875 -4.2,-16.56875 -0.91375,-11.7375 -3.985,-19.89125 -7.345,-15.4875 0,0 2.76875,10.82625 4.37125,17.8675 1.60375,7.0275 1.9975,14.8825 0.45,22.99375 -1.5475,8.1175 2.79625,40.4835 19.12625,63.99138 0,0 20.04125,38.61225 93.185,37.18987 0,0 8.4575,-0.96625 8.2375,-6.84275"
         id="path7779"
         style="fill:#f7f238;fill-opacity:1;fill-rule:nonzero;stroke:none" />
      <path
         d="m 40.511763,267.24771 c 0,0 -5.19625,0.84863 -13.5575,4.42475 0,0 -40.98625,5.18263 -77.855,-14.246 0,0 -46.3675,-21.45512 -43.38875,-77.86237 0,0 -0.61625,-14.41513 9.17,-24.95513 0,0 2.455,-6.25375 1.4525,-18.6425 0,0 4.1125,15.9225 -1.27375,29.8225 0,0 -6.26625,41.69263 24.7875,71.78738 0,0 24.13875,27.95012 84.20375,26.36125 0,0 12.98375,-2.44475 16.46125,3.31012"
         id="path7781"
         style="fill:#c6a31b;fill-opacity:1;fill-rule:nonzero;stroke:none" />
    </g>
    <g
       transform="matrix(1.0724971,0,0,1.0724971,220.32432,129.28072)"
       id="g7492">
      <path
         d="m 101.36968,426.56792 c 0,0 2.8175,7.09525 -2.471246,7.89013 0,0 -3.76625,1.1265 -4.99,-3.70513 0,0 5.86875,2.0225 7.461246,-4.185"
         id="path10641"
         style="fill:#6a4225;fill-opacity:1;fill-rule:nonzero;stroke:none" />
      <path
         d="m 94.804684,358.0493 0.14625,-1.34613 c -9.435,-5.9815 -16.9775,-0.63375 -20.82875,9.835 -3.8525,10.46775 6.3325,5.08488 8.98,14.65375 2.64875,9.56738 15.94625,33.8935 15.94625,33.8935 0,0 -2.11875,-34.48237 0.1975,-44.07362 2.316246,-9.59375 -4.44125,-12.9625 -4.44125,-12.9625"
         id="path10643"
         style="fill:#c6a31b;fill-opacity:1;fill-rule:nonzero;stroke:none" />
      <path
         d="m 81.998434,358.8243 c 0,0 6.385,-6.51125 12.80625,-0.775 6.422496,5.73487 -3.34375,-9.80513 -15.455,-8.79238 -12.1125,1.01113 -1.945,9.8725 2.64875,9.56738"
         id="path10645"
         style="fill:#f3f0bb;fill-opacity:1;fill-rule:nonzero;stroke:none" />
      <path
         d="m 61.654684,314.67442 c -5.42375,1.21125 -10.47125,2.96 -15.78875,3.675 -0.0262,8.24875 -0.6925,20.49238 -3.70875,32.72488 l 3.075,2.89637 14.6825,15.19388 c 5.31125,-4.709 22.1775,-5.79288 22.1775,-5.79288 3.09625,-15.07475 4.06875,-33.216 -1.03125,-53.1635 -6.26125,2.44125 -12.82125,2.9925 -19.40625,4.46625"
         id="path10647"
         style="fill:#fefce1;fill-opacity:1;fill-rule:nonzero;stroke:none" />
      <path
         d="m 55.822184,345.55417 c 1.63,-7.71962 3.21125,-18.376 2.3975,-30.03725 -3.68,0.955 -7.2525,1.99625 -10.92375,2.6175 0.11,11.33375 -0.97875,24.02775 -5.085,36.75138 -5.815,18.01462 11.04625,14.041 17.70375,14.27875 6.655,0.23875 17.0425,-3.68013 17.0425,-3.68013 0,0 -11.0975,-2.88237 -18.1375,-5.44237 -3.26,-1.1865 -4.08375,-9.33738 -2.9975,-14.48788"
         id="path10649"
         style="fill:#e9e6b6;fill-opacity:1;fill-rule:nonzero;stroke:none" />
      <path
         d="m -65.895316,414.24955 c 0,0 0.9375,9.08987 8.93375,7.17625 7.995,-1.91163 21.9275,3.14112 29.92625,5.05375 3.745,0.895 6.82375,4.32612 16.67625,6.3525 11.17500026,2.30475 25.50125,-0.20013 40.00125,-5.40525 18.865,-6.76863 42.655,-26.9775 51.17875,-58.67975 2.93125,-10.91163 -11.34375,1.59475 -21.9175,-2.09275 -9.1425,-3.19088 -14.37375,-24.19238 -17.11375,-14.165 -1.45375,5.31887 -3.635,10.269 -6.82,14.355 0,0 -11.07625,19.31487 -37.2112497,25.72262 0,0 -17.7325003,4.80613 -27.2425003,14.85988 0,0 -2.2275,8.60112 -20.08,1.73237 -9.965,-3.83837 -16.92875,-5.26612 -16.33125,5.09038"
         id="path10651"
         style="fill:#f0ca21;fill-opacity:1;fill-rule:nonzero;stroke:none" />
      <path
         d="m 42.320934,360.47805 c -3.73625,9.6475 -11.84875,21.80275 -32.7699997,32.34762 -3.41,1.71638 -7.85125,2.78613 -12.49625,3.94388 -2.70375,0.67237 -10.2112503,3.24612 -13.0925003,5.03375 -3.5425,2.19475 -8.71,5.7275 -14.1425,10.57225 0,0 -3.775,4.40275 -15.00375,0.68987 -11.225,-3.72362 -19.975,-4.05362 -17.205,0.7725 0,0 11.10875,1.65525 18.24875,2.90675 7.13625,1.25338 15.33375,0.69725 23.6175,1.17088 8.28625,0.47262 39.945,-8.11225 61.2125,-27.47213 0,0 8.2225,-6.50787 14.48125,-21.5415 -4.2725,-1.3965 -8.62375,-4.041 -12.85,-8.42387"
         id="path10653"
         style="fill:#f7f238;fill-opacity:1;fill-rule:nonzero;stroke:none" />
      <path
         d="m 58.325934,372.03317 c 0,0 -14.64,-5.26362 -24.6975,3.41363 -10.06125,8.67775 -16.29125,11.5215 -24.0012497,13.25 0,0 20.3924997,-9.3975 31.0174997,-31.36138 0,0 17.655,0.129 17.68125,14.69775"
         id="path10655"
         style="fill:#c6a31b;fill-opacity:1;fill-rule:nonzero;stroke:none" />
      <path
         d="m 58.187184,371.05817 c 3.9825,2.42863 3.46125,6.32225 2.88625,8.8735 -1.23125,5.46625 -3.6075,7.45263 -3.6075,7.45263 -28.76625,41.06737 -70.745,34.6865 -70.745,34.6865 -14.55,-3.53413 -32.35375,-2.3325 -32.35375,-2.3325 12.94125,1.541 21.25,3.98237 21.25,3.98237 11.78125,8.36138 26.0550003,5.85013 26.0550003,5.85013 35.8024997,-2.82275 53.2187497,-24.81 64.3749997,-38.27538 4.4625,-5.38325 7.37625,-3.46725 7.37625,-3.46725 3.7425,-6.479 5.98125,-14.46387 6.62,-16.811 -4.77875,0.7035 -11.805,-6.3155 -21.85625,0.041"
         id="path10657"
         style="fill:#c6a31b;fill-opacity:1;fill-rule:nonzero;stroke:none" />
      <path
         d="m 58.325934,372.03317 c 0,0 -14.23125,-18.48387 -30.78875,-8.91012 -14.56,8.419 -24.2387497,21.46775 -38.2125,26.82137 0,0 -16.925,4.166 -9.5975,-5.47025 6.0075,-7.90625 35.425,-27.67 41.8575,-33.8575 6.4325,-6.186 41.89125,10.76913 36.74125,21.4165"
         id="path10659"
         style="fill:#f0ca21;fill-opacity:1;fill-rule:nonzero;stroke:none" />
      <path
         d="m 58.325934,372.03317 c 0,0 -7.60625,-21.47012 -30.755,-11.645 0,0 -6.2,3.15 -10.405,6.77738 -8.3349997,7.19137 -19.0862497,17.94387 -29.94125,21.57275 0,0 -11.71375,2.33012 -9.17375,-2.73538 0,0 2.1125,-5.52875 6.5125,-11.58 19.9950003,-27.49612 29.7075,-46.1835 59.47625,-32.0835 0,0 -1.53875,8.65625 8.97,15.19725 11.42625,7.10888 5.31625,14.4965 5.31625,14.4965"
         id="path10661"
         style="fill:#f3f0bb;fill-opacity:1;fill-rule:nonzero;stroke:none" />
      <path
         d="m 58.325934,372.03317 c 0,0 14.5,-4.354 19.3075,7.92875 3.07,7.85113 3.3,9.4785 3.70625,22.00488 0.3875,11.91512 1.655,18.4615 4.67875,21.87262 0,0 3.58875,6.791 11.0075,7.75238 1.52375,0.19875 6.027496,0.49025 4.021246,-6.84763 -3.491246,-12.75487 -10.597496,-37.17725 -10.582496,-40.59475 0.0238,-4.64012 -4.67,-33.79637 -32.13875,-12.11625"
         id="path10663"
         style="fill:#f0ca21;fill-opacity:1;fill-rule:nonzero;stroke:none" />
      <path
         d="m 58.325934,372.03317 c 0,0 6.51625,-5.53362 14.3875,-1.32512 7.86625,4.21 11.1625,13.689 11.26,33.54637 0,0 -0.76,13.68263 8.16375,22.58988 3.0775,3.06637 9.706246,6.54875 9.356246,1.14887 -0.8675,-13.4575 8.07625,-20.65237 6.47875,-36.99262 0,0 2.63625,-28.84238 -24.146246,-35.73975 0,0 -0.965,7.41837 -17.30125,9.01462 0,0 -7.23875,0.33788 -8.19875,7.75775"
         id="path10665"
         style="fill:#f3f0bb;fill-opacity:1;fill-rule:nonzero;stroke:none" />
      <path
         d="m 97.125934,426.51805 0.73125,-5.68113 1.28625,5.20513 2.171246,2.63475 c 0.57625,1.5625 -0.76125,2.73487 -2.082496,3.02387 -1.63375,0.355 -3.40875,-0.39887 -3.40875,-0.39887 0,0 1.36125,-1.44875 1.3025,-4.78375"
         id="path10667"
         style="fill:#b6c13a;fill-opacity:1;fill-rule:nonzero;stroke:none" />
      <path
         d="m -2.6628157,381.82817 c 0,0 4.80375,-3.80375 13.8624997,-11.1075 3.215,-2.59125 6.69625,-6.2875 10.58875,-9.03612 12.5825,-8.88913 26.82625,-7.1865 32.9125,0.91362 0,0 -10.50625,-16.43012 -32.07,-3.51362 0,0 -5.43125,3.71237 -11.42,9.02725 -5.0249997,4.459 -9.0099997,8.96487 -13.8737497,13.71637"
         id="path10669"
         style="fill:#fefce1;fill-opacity:1;fill-rule:nonzero;stroke:none" />
      <path
         d="m 63.054684,368.52205 c 0,0 1.97,-0.7515 4.49375,-0.45763 5.1225,0.60013 13.2475,3.3575 15.4675,14.58888 0.82875,4.19237 2.0075,10.02987 1.47875,18.796 0,0 3.98875,-16.98488 0.91375,-24.83988 -3.07,-7.855 -13.6575,-12.26762 -22.35375,-8.08737"
         id="path10671"
         style="fill:#fefce1;fill-opacity:1;fill-rule:nonzero;stroke:none" />
      <path
         d="m 81.379684,311.22192 c 0,0 -1.51125,5.84 -8.42375,6.1325 0,0 -0.6625,2.40875 -4.5625,2.9475 0,0 -3.57375,0.495 -6.395,-0.7725 0,0 -2.37875,1.98375 -5.0675,1.695 0,0 -3.9425,0.2125 -5.05625,-0.62625 0,0 -4.4125,1.60625 -6.355,-0.445 0,0 -2.62125,-4.60625 7.03625,-6.605 0,0 6.23375,-2.845 9.38375,-1.62625 0,0 2.8325,-1.0525 6.68875,-1.91875 3.855,-0.86375 13.51125,-2.85875 12.75125,1.21875"
         id="path10673"
         style="fill:#f3f0bb;fill-opacity:1;fill-rule:nonzero;stroke:none" />
      <path
         d="m 71.057184,311.40692 c 0,0 -4.53125,1.3725 -8.15125,2.1225 -3.62375,0.7475 -8.53,1.17875 -7.145,2.22875 1.38625,1.0475 -0.67125,2.32625 2.35625,2.655 3.02375,0.32375 8.87375,-0.48125 11.14375,-2.03875 2.26875,-1.55375 4.29,-3.0775 4.29,-3.0775 0,0 2.9425,-3.885 -2.49375,-1.89"
         id="path10675"
         style="fill:#e9e6b6;fill-opacity:1;fill-rule:nonzero;stroke:none" />
      <path
         d="m 69.722184,314.32317 c 0,0 2.0075,1.96 -2.05875,1.27875 -4.07,-0.67875 -1.69875,-1.50375 2.05875,-1.27875"
         id="path10677"
         style="fill:#d9be94;fill-opacity:1;fill-rule:nonzero;stroke:none" />
      <path
         d="m 75.302184,311.56817 c 0,0 -0.8075,1.35125 -4.355,0.84875 -3.54625,-0.50375 3.2425,-1.6925 4.355,-0.84875"
         id="path10679"
         style="fill:#d9be94;fill-opacity:1;fill-rule:nonzero;stroke:none" />
      <path
         d="m 59.282184,314.27692 c 0,0 -4.14,0.5725 -2.545,1.345 1.5975,0.7725 4.63125,-0.64 2.545,-1.345"
         id="path10681"
         style="fill:#d9be94;fill-opacity:1;fill-rule:nonzero;stroke:none" />
      <path
         d="m 62.964684,315.75567 c 0,0 -0.25125,1.7725 0.96875,1.60375 1.2175,-0.1675 1.3675,-2.67375 -0.96875,-1.60375"
         id="path10683"
         style="fill:#d9be94;fill-opacity:1;fill-rule:nonzero;stroke:none" />
    </g>
    <g
       id="text11705-0-82-8"
       style="font-size:40px;font-style:normal;font-weight:normal;line-height:125%;letter-spacing:0px;word-spacing:0px;fill:#333333;fill-opacity:1;stroke:none;font-family:Sans">
      <path
         d="m 116.19672,625.44562 3.93164,0 c 2.90754,2e-5 4.98436,-0.41535 6.23047,-1.2461 1.2604,-0.84503 1.89061,-2.23435 1.89063,-4.16796 -2e-5,-1.86196 -0.59442,-3.18683 -1.7832,-3.97461 -1.18882,-0.80206 -3.18687,-1.2031 -5.99415,-1.20313 l -4.27539,0 0,10.5918 m 0,14.75976 5.5,0 c 2.77863,10e-6 4.79816,-0.444 6.0586,-1.33203 1.26039,-0.90234 1.8906,-2.3776 1.89062,-4.42578 -2e-5,-2.11978 -0.68752,-3.64517 -2.0625,-4.57617 -1.37502,-0.93098 -3.65236,-1.39647 -6.83203,-1.39649 l -4.55469,0 0,11.73047 m -3.69531,2.96485 0,-31.28125 7.9707,0 c 3.95311,3e-5 6.88215,0.59443 8.78711,1.7832 1.91925,1.18883 2.87889,3.1081 2.87891,5.75781 -2e-5,1.97659 -0.40107,3.53062 -1.20312,4.66211 -0.80211,1.11721 -2.06969,1.96942 -3.80274,2.55664 2.16274,0.42971 3.77407,1.2676 4.83399,2.51367 1.05987,1.23179 1.58981,3.01499 1.58984,5.34961 -3e-5,5.77214 -3.91018,8.65821 -11.73047,8.65821 l -9.32422,0"
         id="path3423"
         style="font-size:44px;font-variant:normal;font-stretch:normal;fill:#333333;font-family:Topmarks;-inkscape-font-specification:Topmarks" />
      <path
         d="m 147.5854,640.72101 c 1.96222,0 3.55923,-0.6875 4.79101,-2.0625 1.23175,-1.375 1.84764,-3.11523 1.84766,-5.2207 l 0,-9.10938 c -0.95965,-0.50128 -2.28452,-0.75193 -3.97461,-0.75195 -2.43491,2e-5 -4.40431,0.91668 -5.9082,2.75 -1.48959,1.83335 -2.23439,4.23959 -2.23438,7.21875 -1e-5,2.14844 0.5013,3.88151 1.50391,5.19922 1.00259,1.31771 2.32746,1.97656 3.97461,1.97656 m -0.51563,2.92187 c -2.53516,0 -4.60482,-0.9095 -6.20898,-2.72851 -1.60417,-1.81901 -2.40626,-4.20377 -2.40625,-7.1543 -1e-5,-3.91014 1.0957,-7.06834 3.28711,-9.47461 2.20572,-2.42055 5.06314,-3.63084 8.57226,-3.63086 1.37499,2e-5 2.74282,0.1719 4.10352,0.51563 1.36065,0.32945 2.47068,0.77346 3.33008,1.33203 l 0,14.69531 c -3e-5,1.17448 0.22198,2.03386 0.66601,2.57813 0.44399,0.52995 1.26039,0.79492 2.44922,0.79492 l -0.62305,2.90039 c -1.66148,0 -2.93622,-0.31511 -3.82422,-0.94531 -0.88804,-0.63021 -1.48244,-1.56836 -1.7832,-2.81446 -0.70184,1.20313 -1.74025,2.16276 -3.11523,2.87891 -1.36069,0.70182 -2.84312,1.05273 -4.44727,1.05273"
         id="path3425"
         style="font-size:44px;font-variant:normal;font-stretch:normal;fill:#333333;font-family:Topmarks;-inkscape-font-specification:Topmarks" />
      <path
         d="m 188.40571,640.57062 -0.58008,2.90039 -0.60156,0 c -1.17451,0 -2.15562,-0.15755 -2.94336,-0.47266 -0.77346,-0.32942 -1.38218,-0.83073 -1.82617,-1.5039 -0.42971,-0.67318 -0.73049,-1.44662 -0.90235,-2.32032 -0.17189,-0.88801 -0.25783,-1.97655 -0.25781,-3.26562 l 0,-5.11328 c -2e-5,-2.54947 -0.42254,-4.38996 -1.26758,-5.52149 -0.83074,-1.13149 -2.06251,-1.69724 -3.69531,-1.69726 -0.81642,2e-5 -1.59702,0.16473 -2.3418,0.49414 -0.7448,0.32944 -1.42514,0.82358 -2.04101,1.48242 -0.60157,0.65887 -1.08139,1.54689 -1.43946,2.66406 -0.35808,1.1172 -0.53711,2.39194 -0.53711,3.82422 l 0,11.12891 -3.52343,0 0,-14.58789 c -1e-5,-2.22004 -0.88087,-4.06769 -2.64258,-5.54297 l 3.05078,-1.76172 c 1.3177,1.14585 2.09114,2.50653 2.32031,4.08203 0.67317,-1.43227 1.73307,-2.57094 3.17969,-3.41602 1.46093,-0.85935 3.11522,-1.28904 4.96289,-1.28906 2.23436,2e-5 4.03904,0.83791 5.41406,2.51367 1.3893,1.6758 2.08396,4.16083 2.08399,7.45508 l 0,5.86524 c -3e-5,1.47526 0.18617,2.528 0.55859,3.1582 0.3867,0.61589 1.11716,0.92383 2.19141,0.92383 l 0.83789,0"
         id="path3427"
         style="font-size:44px;font-variant:normal;font-stretch:normal;fill:#333333;font-family:Topmarks;-inkscape-font-specification:Topmarks" />
      <path
         d="m 200.86665,640.72101 c 1.96222,0 3.55923,-0.6875 4.79101,-2.0625 1.23175,-1.375 1.84764,-3.11523 1.84766,-5.2207 l 0,-9.10938 c -0.95965,-0.50128 -2.28452,-0.75193 -3.97461,-0.75195 -2.43491,2e-5 -4.40431,0.91668 -5.9082,2.75 -1.48959,1.83335 -2.23439,4.23959 -2.23438,7.21875 -1e-5,2.14844 0.5013,3.88151 1.50391,5.19922 1.00259,1.31771 2.32746,1.97656 3.97461,1.97656 m -0.51563,2.92187 c -2.53516,0 -4.60482,-0.9095 -6.20898,-2.72851 -1.60417,-1.81901 -2.40626,-4.20377 -2.40625,-7.1543 -1e-5,-3.91014 1.0957,-7.06834 3.28711,-9.47461 2.20572,-2.42055 5.06314,-3.63084 8.57226,-3.63086 1.37499,2e-5 2.74282,0.1719 4.10352,0.51563 1.36065,0.32945 2.47068,0.77346 3.33008,1.33203 l 0,14.69531 c -3e-5,1.17448 0.22198,2.03386 0.66601,2.57813 0.44399,0.52995 1.26039,0.79492 2.44922,0.79492 l -0.62305,2.90039 c -1.66148,0 -2.93622,-0.31511 -3.82422,-0.94531 -0.88804,-0.63021 -1.48244,-1.56836 -1.7832,-2.81446 -0.70184,1.20313 -1.74025,2.16276 -3.11523,2.87891 -1.36069,0.70182 -2.84312,1.05273 -4.44727,1.05273"
         id="path3429"
         style="font-size:44px;font-variant:normal;font-stretch:normal;fill:#333333;font-family:Topmarks;-inkscape-font-specification:Topmarks" />
      <path
         d="m 241.68696,640.57062 -0.58008,2.90039 -0.60156,0 c -1.17451,0 -2.15562,-0.15755 -2.94336,-0.47266 -0.77346,-0.32942 -1.38218,-0.83073 -1.82617,-1.5039 -0.42971,-0.67318 -0.73049,-1.44662 -0.90235,-2.32032 -0.17189,-0.88801 -0.25783,-1.97655 -0.25781,-3.26562 l 0,-5.11328 c -2e-5,-2.54947 -0.42254,-4.38996 -1.26758,-5.52149 -0.83074,-1.13149 -2.06251,-1.69724 -3.69531,-1.69726 -0.81642,2e-5 -1.59702,0.16473 -2.3418,0.49414 -0.7448,0.32944 -1.42514,0.82358 -2.04101,1.48242 -0.60157,0.65887 -1.08139,1.54689 -1.43946,2.66406 -0.35808,1.1172 -0.53711,2.39194 -0.53711,3.82422 l 0,11.12891 -3.52343,0 0,-14.58789 c -1e-5,-2.22004 -0.88087,-4.06769 -2.64258,-5.54297 l 3.05078,-1.76172 c 1.3177,1.14585 2.09114,2.50653 2.32031,4.08203 0.67317,-1.43227 1.73307,-2.57094 3.17969,-3.41602 1.46093,-0.85935 3.11522,-1.28904 4.96289,-1.28906 2.23436,2e-5 4.03904,0.83791 5.41406,2.51367 1.3893,1.6758 2.08396,4.16083 2.08399,7.45508 l 0,5.86524 c -3e-5,1.47526 0.18617,2.528 0.55859,3.1582 0.3867,0.61589 1.11716,0.92383 2.19141,0.92383 l 0.83789,0"
         id="path3431"
         style="font-size:44px;font-variant:normal;font-stretch:normal;fill:#333333;font-family:Topmarks;-inkscape-font-specification:Topmarks" />
      <path
         d="m 254.1479,640.72101 c 1.96222,0 3.55923,-0.6875 4.79101,-2.0625 1.23175,-1.375 1.84764,-3.11523 1.84766,-5.2207 l 0,-9.10938 c -0.95965,-0.50128 -2.28452,-0.75193 -3.97461,-0.75195 -2.43491,2e-5 -4.40431,0.91668 -5.9082,2.75 -1.48959,1.83335 -2.23439,4.23959 -2.23438,7.21875 -1e-5,2.14844 0.5013,3.88151 1.50391,5.19922 1.00259,1.31771 2.32746,1.97656 3.97461,1.97656 m -0.51563,2.92187 c -2.53516,0 -4.60482,-0.9095 -6.20898,-2.72851 -1.60417,-1.81901 -2.40626,-4.20377 -2.40625,-7.1543 -1e-5,-3.91014 1.0957,-7.06834 3.28711,-9.47461 2.20572,-2.42055 5.06314,-3.63084 8.57226,-3.63086 1.37499,2e-5 2.74282,0.1719 4.10352,0.51563 1.36065,0.32945 2.47068,0.77346 3.33008,1.33203 l 0,14.69531 c -3e-5,1.17448 0.22198,2.03386 0.66601,2.57813 0.44399,0.52995 1.26039,0.79492 2.44922,0.79492 l -0.62305,2.90039 c -1.66148,0 -2.93622,-0.31511 -3.82422,-0.94531 -0.88804,-0.63021 -1.48244,-1.56836 -1.7832,-2.81446 -0.70184,1.20313 -1.74025,2.16276 -3.11523,2.87891 -1.36069,0.70182 -2.84312,1.05273 -4.44727,1.05273"
         id="path3433"
         style="font-size:44px;font-variant:normal;font-stretch:normal;fill:#333333;font-family:Topmarks;-inkscape-font-specification:Topmarks" />
    </g>
    <g
       transform="translate(484.65768,471.39458)"
       id="g7704">
      <path
         d="m -5.3888927,-31.195543 -10e-4,-0.0663 c 0,0 -0.28075,0.004 -0.791,0.0275 -0.51025,-0.0237 -0.794,-0.0275 -0.794,-0.0275 l 0,0.0663 c -11.2656253,0.6425 -79.1888753,5.85875 -79.1888753,81.24625 0,76.287503 66.50575,79.307503 79.9828753,78.775003 13.474,0.5325 79.9814947,-2.4875 79.9814947,-78.775003 0,-75.3875 -67.9237447,-80.60375 -79.1894947,-81.24625"
         id="path9445"
         style="fill:#62c557;fill-opacity:1;fill-rule:nonzero;stroke:none" />
      <path
         d="m -5.3888927,-31.195543 -10e-4,-0.0663 c 0,0 -0.28075,0.004 -0.791,0.0275 -0.51025,-0.0237 -0.794,-0.0275 -0.794,-0.0275 -0.30275,-3.7375 3.202625,-5.45625 4.008375,-8.6675 1.057125,-4.20875 -3.34375,-4.155 -6.083,-5.0975 -2.1992503,-0.75375 -2.4375003,-2.17125 -1.8326253,-3.25625 0.604,-1.08625 1.5381253,-2.03 1.5381253,-2.03 -2.8588753,1.1325 -5.4238753,5.16125 0.879375,6.7975 2.529375,0.655 3.5645,1.07125 3.5835,1.8875 0.02988,1.32 -0.650875,2.64375 -4.242625,3.77625 -2.2402503,0.705 -2.9628753,5.5675 -2.4623753,7.01875 -6.405375,0.64375 -17.03125,2.3 -28.299875,6.875 34.3368753,5.50875 58.76663,1.7 67.24288,-0.0662 -14.666255,-5.92 -28.23900473,-6.915 -32.7457547,-7.17125"
         id="path9447"
         style="fill:#309f3f;fill-opacity:1;fill-rule:nonzero;stroke:none" />
      <path
         d="m 3.5549823,-21.666793 c 0,0 33.1343697,6.73875 45.3931197,37.3525 0,0 7.9075,20.37625 -6.505,25.81125 0,0 -21.40499,4.27375 -25.76249,-17.85125 C 12.618107,3.0207067 12.618107,-2.6042933 3.5549823,-21.666793"
         id="path9449"
         style="fill:#90d575;fill-opacity:1;fill-rule:nonzero;stroke:none" />
      <path
         d="m 71.425612,55.848207 c 0,0 -28.7025,43.5275 -83.703255,21.86 0,0 -63.3335,-31.66625 -21.6205,-99.46625 0,0 -56.225625,13.4612497 -48.30625,90.2775 0,0 9.5025,57.016253 73.6465003,57.808753 0,0 74.4397547,3.1675 79.9835047,-70.480003"
         id="path9451"
         style="fill:#389f3d;fill-opacity:1;fill-rule:nonzero;stroke:none" />
      <path
         d="m 11.851857,-25.899293 c 0,0 46.834995,15.18875 51.225005,68.80125 0,0 5.12125,60.761253 -41.71125,78.631253 0,0 37.405,-10.67125 34.39375,-76.845003 -2.19626,-48.2487503 -43.907505,-70.5875 -43.907505,-70.5875"
         id="path9453"
         style="fill:#213f1c;fill-opacity:1;fill-rule:nonzero;stroke:none" />
      <path
         d="m -13.835268,-26.794293 c 0,0 -10.42225,14.815 -10.42225,80.7525 0,0 -4.375,38.125 9.375,72.187503 0,0 -25.625,-15.93625 -25.625,-72.187503 0,-55.3987503 26.67225,-80.7525 26.67225,-80.7525"
         id="path9455"
         style="fill:#213f1c;fill-opacity:1;fill-rule:nonzero;stroke:none" />
      <path
         d="m 1.2581073,-26.794293 c 0,0 10.4199997,14.815 10.4199997,80.7525 0,0 1.8775,36.25125 -9.3751247,72.187503 0,0 25.9376297,-13.75 25.6251297,-72.187503 -0.29625,-55.3975003 -26.6700047,-80.7525 -26.6700047,-80.7525"
         id="path9457"
         style="fill:#213f1c;fill-opacity:1;fill-rule:nonzero;stroke:none" />
      <path
         d="m -24.922643,-25.899293 c 0,0 -46.8335,15.18875 -51.224625,68.80125 0,0 -5.1215,60.761253 41.712,78.631253 0,0 -37.405375,-10.67125 -34.393625,-76.845003 2.196375,-48.2487503 43.90625,-70.5875 43.90625,-70.5875"
         id="path9459"
         style="fill:#213f1c;fill-opacity:1;fill-rule:nonzero;stroke:none" />
      <path
         d="m 10.638107,83.411957 c 5.287505,0.515 10.241255,0.4175 14.852505,-0.1475 1.55374,-8.22375 2.49874,-17.90375 2.4375,-29.30625 -0.29625,-55.3975003 -26.6700047,-80.7525 -26.6700047,-80.7525 0,0 10.4199997,14.815 10.4199997,80.7525 0,0 0.625,12.20125 -1.04,29.45375"
         id="path9461"
         style="fill:#247636;fill-opacity:1;fill-rule:nonzero;stroke:none" />
      <path
         d="m 27.208102,39.258207 c -2.97875,-31.5937503 -14.464995,-51.27875 -21.1149947,-60.27375 -1.5825,-0.4525 -2.51625,-0.64625 -2.53275,-0.65 l 0.01313,0.0362 c 9.0446247,19.0324997 9.0471247,24.6649997 13.1071197,45.275 1.69125,8.585 5.94875,13.185 10.5275,15.6125"
         id="path9463"
         style="fill:#309f3f;fill-opacity:1;fill-rule:nonzero;stroke:none" />
      <path
         d="m 55.759352,44.688207 c 0.47876,10.53625 -0.0787,19.6425 -1.335,27.54375 2.75375,-1.88 5.17875,-3.8175 7.2675,-5.67875 2.24375,-13.35375 1.385,-23.65125 1.385,-23.65125 -4.39,-53.6125 -51.224995,-68.80125 -51.224995,-68.80125 0,0 41.711245,22.3387497 43.907495,70.5875"
         id="path9465"
         style="fill:#247636;fill-opacity:1;fill-rule:nonzero;stroke:none" />
      <path
         d="m -24.913768,68.964457 c -0.01038,-9.155 0.65625,-15.00625 0.65625,-15.00625 0,-65.9375 10.42225,-80.7525 10.42225,-80.7525 0,0 -25.5585,24.3324997 -26.6205,77.36125 4.521375,7.865 10.354,13.98 15.542,18.3975"
         id="path9467"
         style="fill:#247636;fill-opacity:1;fill-rule:nonzero;stroke:none" />
      <path
         d="m -33.898143,-21.758043 c -0.752,1.22 -1.459,2.42625 -2.144125,3.625 6.369625,-5.21625 11.119625,-7.76625 11.119625,-7.76625 0,0 -3.80275,1.23625 -9.332,4.235 0.232875,-0.065 0.3565,-0.0937 0.3565,-0.0937"
         id="path9469"
         style="fill:#247636;fill-opacity:1;fill-rule:nonzero;stroke:none" />
      <path
         d="m -30.123768,-22.603043 c 3.171375,-2.20125 5.201125,-3.29625 5.201125,-3.29625 0,0 -2.80175,0.91375 -7.085875,3.065 0.629875,0.0787 1.261625,0.15875 1.88475,0.23125"
         id="path9471"
         style="fill:#3b9138;fill-opacity:1;fill-rule:nonzero;stroke:none" />
      <path
         d="m -13.835268,-26.794293 c 0,0 -1.813375,1.73125 -4.490625,5.265 0.704,0.0437 1.40525,0.0875 2.095625,0.125 1.38725,-3.955 2.395,-5.39 2.395,-5.39"
         id="path9473"
         style="fill:#3b9138;fill-opacity:1;fill-rule:nonzero;stroke:none" />
      <path
         d="m 1.2581073,-26.794293 c 0,0 1.02725,1.475 2.43625,5.52 0.7225,-0.0325 1.43125,-0.0675 2.12625,-0.105 -2.714375,-3.6275 -4.5625,-5.415 -4.5625,-5.415"
         id="path9475"
         style="fill:#3b9138;fill-opacity:1;fill-rule:nonzero;stroke:none" />
    </g>
    <g
       transform="matrix(-1.2987685,0,0,1.2987685,758.47398,478.80848)"
       id="g7764">
      <path
         d="m 55.069746,22.044165 13.9375,0 c 0.025,0.165 0.06375,0.32875 0.135,0.48875 0.55125,1.2425 1.2375,2.43 2.03875,3.53 0.585,0.80375 1.68875,1.00375 2.515,0.47625 -0.61125,0.76625 -0.5275,1.89 0.21125,2.55375 1.01,0.9075 2.11625,1.715 3.28875,2.395 0.86,0.49625 1.95125,0.2375 2.495,-0.5775 -0.245,0.94625 0.2875,1.93375 1.23,2.2425 1.2875,0.4175 2.63,0.7025 3.98625,0.84625 0.9975,0.1025 1.87375,-0.57875 2.03875,-1.5425 0.15125,0.9 0.93375,1.55625 1.84,1.55625 l 0.19375,-0.007 c 1.35625,-0.1425 2.7,-0.425 3.98875,-0.8425 0.94625,-0.305 1.47875,-1.28875 1.235,-2.2375 0.54,0.815 1.62875,1.08 2.4925,0.5825 1.17625,-0.6775 2.28625,-1.48375 3.29625,-2.3925 0.738754,-0.6625 0.825004,-1.78 0.218754,-2.5475 0.82375,0.5275 1.9275,0.32875 2.51375,-0.47375 0.80375,-1.1 1.49125,-2.28625 2.0475,-3.525 0.0763,-0.17125 0.11625,-0.3475 0.13875,-0.525 l 103.39125,0 c -0.76625,12.3525 -6.7775,75.245 -77.765,75.245 -70.786254,0 -75.695004,-59.795 -75.467504,-75.245"
         id="path9107"
         style="fill:#62c557;fill-opacity:1;fill-rule:nonzero;stroke:none" />
      <path
         d="m 56.490996,22.044165 12.51625,0 c 0.025,0.165 0.06375,0.32875 0.135,0.48875 0.55125,1.2425 1.2375,2.43 2.03875,3.53 0.585,0.80375 1.68875,1.00375 2.515,0.47625 -0.61125,0.76625 -0.5275,1.89 0.21125,2.55375 1.01,0.9075 2.11625,1.715 3.28875,2.395 0.86,0.49625 1.95125,0.2375 2.495,-0.5775 -0.245,0.94625 0.2875,1.93375 1.23,2.2425 1.2875,0.4175 2.63,0.7025 3.98625,0.84625 0.9975,0.1025 1.87375,-0.57875 2.03875,-1.5425 0.15125,0.9 0.93375,1.55625 1.84,1.55625 l 0.19375,-0.007 c 1.35625,-0.1425 2.7,-0.425 3.98875,-0.8425 0.94625,-0.305 1.47875,-1.28875 1.235,-2.2375 0.54,0.815 1.62875,1.08 2.4925,0.5825 1.17625,-0.6775 2.28625,-1.48375 3.29625,-2.3925 0.738754,-0.6625 0.825004,-1.78 0.218754,-2.5475 0.82375,0.5275 1.9275,0.32875 2.51375,-0.47375 0.80375,-1.1 1.49125,-2.28625 2.0475,-3.525 0.0763,-0.17125 0.11625,-0.3475 0.13875,-0.525 l 101.97,0 c -0.75625,12.18 -6.69375,73.825 -76.32125,73.825 -69.436254,0 -74.286254,-58.62375 -74.068754,-73.825"
         id="path9109"
         style="fill:#e9f5bd;fill-opacity:1;fill-rule:nonzero;stroke:none" />
      <path
         d="m 63.972246,22.044165 5.035,0 c 0.025,0.165 0.06375,0.32875 0.135,0.48875 0.55125,1.2425 1.2375,2.43 2.03875,3.53 0.585,0.80375 1.68875,1.00375 2.515,0.47625 -0.61125,0.76625 0.28375,2.34125 1.0225,3.005 1.00875,0.90875 1.0925,0.72625 2.265,1.40625 0.86,0.4975 2.16375,0.775 2.7075,-0.04 -0.245,0.94625 0.2875,1.93375 1.23,2.2425 1.2875,0.4175 2.63,0.7025 3.98625,0.84625 0.9975,0.1025 1.87375,-0.57875 2.03875,-1.5425 0.15125,0.9 0.93375,1.55625 1.84,1.55625 l 0.19375,-0.007 c 1.35625,-0.1425 2.7,-0.425 3.98875,-0.8425 0.94625,-0.305 1.47875,-1.28875 1.235,-2.2375 0.54,0.815 1.62875,1.08 2.4925,0.5825 1.17625,-0.6775 2.28625,-1.48375 3.29625,-2.3925 0.738754,-0.6625 0.825004,-1.78 0.218754,-2.5475 0.82375,0.5275 1.9275,0.32875 2.51375,-0.47375 0.80375,-1.1 1.49125,-2.28625 2.0475,-3.525 0.0763,-0.17125 0.11625,-0.3475 0.13875,-0.525 l 94.4875,0 c -0.7175,11.2675 -6.2625,66.34875 -68.7225,66.34875 -62.335004,0 -66.868754,-52.45875 -66.703754,-66.34875"
         id="path9111"
         style="fill:#ef3041;fill-opacity:1;fill-rule:nonzero;stroke:none" />
      <path
         d="m 88.785996,34.012915 0.19375,-0.007 c 1.35625,-0.1425 2.7,-0.425 3.98875,-0.8425 0.94625,-0.305 1.47875,-1.28875 1.235,-2.2375 0.54,0.815 1.62875,1.08 2.4925,0.5825 1.17625,-0.6775 2.28625,-1.48375 3.29625,-2.3925 0.738754,-0.6625 0.825004,-1.78 0.218754,-2.5475 0.82375,0.5275 1.9275,0.32875 2.51375,-0.47375 0.80375,-1.1 1.49125,-2.28625 2.0475,-3.525 0.07,-0.1575 0.10875,-0.32 0.13375,-0.48375 l 74.23625,0 c -0.82625,9.865 -6.14875,44.5175 -47.27875,44.5175 -31.43375,0 -41.535004,-19.33875 -44.651254,-33.47375 0.3325,0.5325 0.9175,0.88375 1.57375,0.88375"
         id="path9113"
         style="fill:#f36379;fill-opacity:1;fill-rule:nonzero;stroke:none" />
      <path
         d="m 124.1185,45.425415 c 0,0 0.3025,-1.54625 2.38625,-1.05 1.935,0.46 1.9,0.95375 2.4325,1.5125 0.5325,0.5625 0.95375,0.5675 0.95375,0.5675 0,0 0.155,0.65625 -0.15125,0.785 -0.31,0.1275 -0.8275,0.015 -1.11125,0.22 -1.57625,1.1325 -3.415,0.48875 -3.6325,0.36625 -0.86625,-0.4725 -1.2375,-1.53125 -0.8775,-2.40125"
         id="path9115"
         style="fill:#462c20;fill-opacity:1;fill-rule:nonzero;stroke:none" />
      <path
         d="m 138.07975,42.394165 c 0,0 -0.15375,1.78375 2.28125,1.89625 2.25875,0.10375 2.375,-0.4475 3.13125,-0.89375 0.76,-0.445 1.22375,-0.3175 1.22375,-0.3175 0,0 0.37125,-0.67125 0.075,-0.90625 -0.295,-0.2375 -0.89625,-0.2775 -1.145,-0.59125 -1.365,-1.73125 -3.57625,-1.6025 -3.85625,-1.54 -1.0925,0.2475 -1.83125,1.29125 -1.71,2.3525"
         id="path9117"
         style="fill:#462c20;fill-opacity:1;fill-rule:nonzero;stroke:none" />
      <path
         d="m 119.99475,32.226665 c 0,0 -0.1475,1.69125 2.1575,1.8025 2.14125,0.10375 2.2525,-0.42125 2.97125,-0.84125 0.7175,-0.42125 1.1575,-0.29875 1.1575,-0.29875 0,0 0.35625,-0.635 0.075,-0.85875 -0.28,-0.22375 -0.85125,-0.26375 -1.08375,-0.56125 -1.29,-1.6425 -3.3875,-1.52375 -3.6525,-1.46625 -1.03625,0.23125 -1.7375,1.21875 -1.625,2.22375"
         id="path9119"
         style="fill:#462c20;fill-opacity:1;fill-rule:nonzero;stroke:none" />
      <path
         d="m 108.54975,42.209165 c 0,0 -0.53375,1.59125 1.65625,2.23 2.03125,0.5925 2.25875,0.11625 3.0475,-0.1225 0.7875,-0.2375 1.17875,-0.02 1.17875,-0.02 0,0 0.49,-0.5275 0.2725,-0.8075 -0.2175,-0.28 -0.7575,-0.44875 -0.9125,-0.78625 -0.85875,-1.87875 -2.9,-2.24875 -3.16875,-2.2525 -1.04875,-0.0175 -1.9475,0.7675 -2.07375,1.75875"
         id="path9121"
         style="fill:#462c20;fill-opacity:1;fill-rule:nonzero;stroke:none" />
      <path
         d="m 154.85725,30.574165 c 0,0 0.15125,1.6925 2.44125,1.39625 2.12375,-0.2775 2.1425,-0.81125 2.77625,-1.3525 0.6325,-0.54 1.08625,-0.49875 1.08625,-0.49875 0,0 0.23625,-0.6875 -0.0775,-0.85625 -0.31625,-0.17375 -0.88375,-0.11 -1.165,-0.3625 -1.55875,-1.39125 -3.60375,-0.905 -3.8525,-0.8 -0.97875,0.41125 -1.49625,1.50625 -1.20875,2.47375"
         id="path9123"
         style="fill:#462c20;fill-opacity:1;fill-rule:nonzero;stroke:none" />
    </g>
    <g
       id="text11705-0-82-8-7"
       style="font-size:40px;font-style:normal;font-weight:normal;line-height:125%;letter-spacing:0px;word-spacing:0px;fill:#333333;fill-opacity:1;stroke:none;font-family:Sans">
      <path
         d="m 413.35507,643.14874 -9.08789,-31.25976 3.9961,0 6.66015,23.7832 0.81641,3.4375 1.07422,-3.4375 7.51953,-23.7832 3.71679,0 7.45508,23.86914 0.98828,3.33008 0.90235,-3.41602 6.55273,-23.7832 3.86719,0 -9.08789,31.28125 -4.55469,0 -8.09961,-26.79102 -8.14258,26.76953 -4.57617,0"
         id="path3402"
         style="font-size:44px;font-variant:normal;font-stretch:normal;fill:#333333;font-family:Topmarks;-inkscape-font-specification:Topmarks" />
      <path
         d="m 459.73984,640.72101 c 1.96222,0 3.55923,-0.6875 4.79101,-2.0625 1.23176,-1.375 1.84764,-3.11523 1.84766,-5.2207 l 0,-9.10938 c -0.95965,-0.50128 -2.28452,-0.75193 -3.97461,-0.75195 -2.43491,2e-5 -4.40431,0.91668 -5.9082,2.75 -1.48959,1.83335 -2.23438,4.23959 -2.23438,7.21875 0,2.14844 0.5013,3.88151 1.50391,5.19922 1.00259,1.31771 2.32746,1.97656 3.97461,1.97656 m -0.51563,2.92187 c -2.53516,0 -4.60482,-0.9095 -6.20898,-2.72851 -1.60417,-1.81901 -2.40625,-4.20377 -2.40625,-7.1543 0,-3.91014 1.0957,-7.06834 3.28711,-9.47461 2.20572,-2.42055 5.06314,-3.63084 8.57226,-3.63086 1.37499,2e-5 2.74282,0.1719 4.10352,0.51563 1.36066,0.32945 2.47068,0.77346 3.33008,1.33203 l 0,14.69531 c -2e-5,1.17448 0.22198,2.03386 0.66601,2.57813 0.44399,0.52995 1.2604,0.79492 2.44922,0.79492 l -0.62305,2.90039 c -1.66148,0 -2.93621,-0.31511 -3.82421,-0.94531 -0.88804,-0.63021 -1.48244,-1.56836 -1.78321,-2.81446 -0.70184,1.20313 -1.74025,2.16276 -3.11523,2.87891 -1.36069,0.70182 -2.84311,1.05273 -4.44727,1.05273"
         id="path3404"
         style="font-size:44px;font-variant:normal;font-stretch:normal;fill:#333333;font-family:Topmarks;-inkscape-font-specification:Topmarks" />
      <path
         d="m 486.68124,643.3421 c -2.4349,0 -4.21094,-0.52278 -5.32812,-1.56836 -1.11719,-1.04557 -1.67579,-2.72851 -1.67578,-5.04883 l 0,-13.29882 -4.36133,0 0,-2.29883 4.46875,0 0,-6.38086 3.35156,-0.64453 0,7.02539 7.17578,0 0,2.29883 -7.17578,0 0.0645,13.34179 c -1e-5,1.34636 0.30793,2.32748 0.92382,2.94336 0.61588,0.60157 1.60416,0.90235 2.96485,0.90235 0.48696,0 1.1673,-0.0859 2.04101,-0.25782 0.88801,-0.18619 1.58983,-0.37955 2.10547,-0.58007 l 0.4082,2.64257 c -0.68751,0.24349 -1.53973,0.45834 -2.55664,0.64454 -1.00261,0.18619 -1.8047,0.27929 -2.40625,0.27929"
         id="path3406"
         style="font-size:44px;font-variant:normal;font-stretch:normal;fill:#333333;font-family:Topmarks;-inkscape-font-specification:Topmarks" />
      <path
         d="m 498.75546,632.64288 c 1.37499,-0.20051 2.5638,-0.40819 3.56641,-0.62304 1.00259,-0.21484 1.97655,-0.47265 2.92187,-0.77344 0.95963,-0.31509 1.73306,-0.666 2.32032,-1.05274 0.60154,-0.3867 1.0742,-0.8522 1.41797,-1.39648 0.35805,-0.54426 0.53709,-1.15298 0.5371,-1.82617 -1e-5,-1.03123 -0.34376,-1.8548 -1.03125,-2.4707 -0.67319,-0.61587 -1.6185,-0.92381 -2.83593,-0.92383 -0.85939,2e-5 -1.69728,0.17189 -2.51367,0.51562 -0.81642,0.32945 -1.56121,0.81643 -2.23438,1.46094 -0.65886,0.64455 -1.19597,1.4896 -1.61133,2.53516 -0.40105,1.04558 -0.60157,2.2129 -0.60156,3.50195 -1e-5,0.35808 0.0215,0.70899 0.0645,1.05273 m 6.98242,11 c -1.47527,0 -2.87175,-0.25781 -4.18945,-0.77343 -1.30339,-0.52995 -2.45639,-1.27474 -3.45898,-2.23438 -0.98829,-0.95963 -1.77605,-2.16992 -2.36328,-3.63086 -0.57292,-1.46093 -0.85938,-3.07225 -0.85938,-4.83398 0,-1.5039 0.25065,-2.94335 0.75195,-4.31836 0.5013,-1.38931 1.20312,-2.61392 2.10547,-3.67383 0.90234,-1.0742 2.04101,-1.92641 3.41602,-2.55664 1.37499,-0.64451 2.87173,-0.96678 4.49023,-0.9668 2.19139,2e-5 3.96743,0.60875 5.32813,1.82617 1.37498,1.21747 2.06248,2.7357 2.0625,4.55469 -2e-5,0.85939 -0.15757,1.64715 -0.47266,2.36328 -0.31512,0.70184 -0.78778,1.31772 -1.41797,1.84766 -0.63022,0.52996 -1.34637,1.00261 -2.14843,1.41797 -0.78778,0.40105 -1.74025,0.75912 -2.85743,1.07422 -1.10287,0.31511 -2.2129,0.58724 -3.33007,0.8164 -1.10288,0.21485 -2.37046,0.4297 -3.80274,0.64453 0.45833,1.73308 1.34635,3.0866 2.66406,4.06055 1.33202,0.97396 2.83593,1.46094 4.51172,1.46094 2.36327,0 4.44009,-0.85221 6.23047,-2.55664 l 1.54688,2.44922 c -2.49221,2.01953 -5.22789,3.02929 -8.20704,3.02929"
         id="path3408"
         style="font-size:44px;font-variant:normal;font-stretch:normal;fill:#333333;font-family:Topmarks;-inkscape-font-specification:Topmarks" />
      <path
         d="m 520.28281,643.17023 0,-14.88867 c -1e-5,-1.11718 -0.27214,-2.11978 -0.81641,-3.00782 -0.52995,-0.90232 -1.13867,-1.64711 -1.82617,-2.23437 l 3.0293,-1.76172 c 1.30337,1.13153 2.08397,2.48504 2.34179,4.06055 0.55859,-1.37498 1.44661,-2.49933 2.66406,-3.37305 1.23176,-0.87368 2.52799,-1.31053 3.88868,-1.31055 1.17446,2e-5 2.27732,0.14325 3.30859,0.42969 l -0.30078,3.11523 c -0.97398,-0.34373 -2.01239,-0.5156 -3.11524,-0.51562 -1.60417,2e-5 -2.95053,0.71616 -4.03906,2.14844 -1.07423,1.41798 -1.61133,3.35157 -1.61133,5.80078 l 0,11.53711 -3.52343,0"
         id="path3410"
         style="font-size:44px;font-variant:normal;font-stretch:normal;fill:#333333;font-family:Topmarks;-inkscape-font-specification:Topmarks" />
      <path
         d="m 551.06992,643.17023 0,-31.28125 4.85546,0 9.99024,18.84179 1.7832,3.41602 1.74024,-3.48047 10.29101,-18.77734 4.55469,0 0,31.28125 -3.60938,0 0,-26.87696 -1.61132,3.33008 -10.11914,18.82031 -2.59961,0 -10.1836,-19.07812 -1.43945,-3.4375 0,27.24219 -3.65234,0"
         id="path3412"
         style="font-size:44px;font-variant:normal;font-stretch:normal;fill:#333333;font-family:Topmarks;-inkscape-font-specification:Topmarks" />
      <path
         d="m 594.91953,632.64288 c 1.37499,-0.20051 2.56379,-0.40819 3.5664,-0.62304 1.00259,-0.21484 1.97655,-0.47265 2.92188,-0.77344 0.95962,-0.31509 1.73305,-0.666 2.32031,-1.05274 0.60155,-0.3867 1.0742,-0.8522 1.41797,-1.39648 0.35805,-0.54426 0.53709,-1.15298 0.53711,-1.82617 -2e-5,-1.03123 -0.34377,-1.8548 -1.03125,-2.4707 -0.6732,-0.61587 -1.61851,-0.92381 -2.83594,-0.92383 -0.85939,2e-5 -1.69728,0.17189 -2.51367,0.51562 -0.81642,0.32945 -1.56121,0.81643 -2.23438,1.46094 -0.65886,0.64455 -1.19597,1.4896 -1.61133,2.53516 -0.40104,1.04558 -0.60156,2.2129 -0.60156,3.50195 0,0.35808 0.0215,0.70899 0.0645,1.05273 m 6.98242,11 c -1.47528,0 -2.87176,-0.25781 -4.18946,-0.77343 -1.30339,-0.52995 -2.45638,-1.27474 -3.45898,-2.23438 -0.98829,-0.95963 -1.77605,-2.16992 -2.36328,-3.63086 -0.57292,-1.46093 -0.85938,-3.07225 -0.85938,-4.83398 0,-1.5039 0.25065,-2.94335 0.75196,-4.31836 0.50129,-1.38931 1.20312,-2.61392 2.10547,-3.67383 0.90233,-1.0742 2.041,-1.92641 3.41601,-2.55664 1.37499,-0.64451 2.87173,-0.96678 4.49024,-0.9668 2.19139,2e-5 3.96743,0.60875 5.32812,1.82617 1.37498,1.21747 2.06248,2.7357 2.0625,4.55469 -2e-5,0.85939 -0.15757,1.64715 -0.47266,2.36328 -0.31512,0.70184 -0.78778,1.31772 -1.41796,1.84766 -0.63023,0.52996 -1.34638,1.00261 -2.14844,1.41797 -0.78778,0.40105 -1.74025,0.75912 -2.85742,1.07422 -1.10288,0.31511 -2.21291,0.58724 -3.33008,0.8164 -1.10288,0.21485 -2.37045,0.4297 -3.80274,0.64453 0.45833,1.73308 1.34635,3.0866 2.66407,4.06055 1.33202,0.97396 2.83592,1.46094 4.51171,1.46094 2.36327,0 4.44009,-0.85221 6.23047,-2.55664 l 1.54688,2.44922 c -2.49221,2.01953 -5.22788,3.02929 -8.20703,3.02929"
         id="path3414"
         style="font-size:44px;font-variant:normal;font-stretch:normal;fill:#333333;font-family:Topmarks;-inkscape-font-specification:Topmarks" />
      <path
         d="m 627.10312,639.9046 c -2e-5,1e-5 0.17902,0.8379 0.53711,2.51367 -1.73309,0.75912 -3.42319,1.13868 -5.07031,1.13868 -2.00522,0 -3.63803,-0.58008 -4.89844,-1.74024 -1.26042,-1.16015 -1.89063,-2.85742 -1.89063,-5.0918 l 0,-26.33984 3.52344,0 0,26.51172 c -1e-5,1.36068 0.34374,2.36328 1.03125,3.00781 0.68749,0.63021 1.61132,0.94532 2.77149,0.94531 1.17446,10e-6 2.50649,-0.3151 3.99609,-0.94531"
         id="path3416"
         style="font-size:44px;font-variant:normal;font-stretch:normal;fill:#333333;font-family:Topmarks;-inkscape-font-specification:Topmarks" />
      <path
         d="m 640.38046,643.64288 c -3.16537,0 -5.75066,-1.05273 -7.75586,-3.1582 -2.00521,-2.10546 -3.00781,-4.86978 -3.00781,-8.29297 0,-3.43748 1.0026,-6.21613 3.00781,-8.33594 2.0052,-2.13409 4.58333,-3.20115 7.73438,-3.20117 3.10805,2e-5 5.64321,1.05992 7.60547,3.17969 1.97654,2.11981 2.96482,4.89129 2.96484,8.31445 -2e-5,3.42319 -0.98114,6.19467 -2.94336,8.31446 -1.96226,2.11979 -4.49741,3.17968 -7.60547,3.17968 m 0,-2.92187 c 2.07681,0 3.73827,-0.7806 4.98438,-2.3418 1.26039,-1.56119 1.8906,-3.62369 1.89062,-6.1875 -2e-5,-2.59243 -0.63023,-4.67642 -1.89062,-6.25195 -1.24611,-1.5755 -2.91473,-2.36326 -5.00586,-2.36328 -2.13413,2e-5 -3.85288,0.79494 -5.15625,2.38476 -1.28907,1.58986 -1.9336,3.68101 -1.9336,6.27344 0,2.54949 0.65169,4.60482 1.95508,6.16602 1.30338,1.54687 3.02213,2.32031 5.15625,2.32031"
         id="path3418"
         style="font-size:44px;font-variant:normal;font-stretch:normal;fill:#333333;font-family:Topmarks;-inkscape-font-specification:Topmarks" />
      <path
         d="m 679.82578,640.57062 -0.58008,2.90039 -0.60157,0 c -1.1745,0 -2.15562,-0.15755 -2.94335,-0.47266 -0.77346,-0.32942 -1.38219,-0.83073 -1.82618,-1.5039 -0.4297,-0.67318 -0.73049,-1.44662 -0.90234,-2.32032 -0.17189,-0.88801 -0.25783,-1.97655 -0.25781,-3.26562 l 0,-5.11328 c -2e-5,-2.54947 -0.42255,-4.38996 -1.26758,-5.52149 -0.83075,-1.13149 -2.06252,-1.69724 -3.69531,-1.69726 -0.81642,2e-5 -1.59702,0.16473 -2.3418,0.49414 -0.7448,0.32944 -1.42514,0.82358 -2.04102,1.48242 -0.60157,0.65887 -1.08139,1.54689 -1.43945,2.66406 -0.35808,1.1172 -0.53712,2.39194 -0.53711,3.82422 l 0,11.12891 -3.52344,0 0,-14.58789 c 0,-2.22004 -0.88086,-4.06769 -2.64257,-5.54297 l 3.05078,-1.76172 c 1.3177,1.14585 2.09114,2.50653 2.32031,4.08203 0.67317,-1.43227 1.73306,-2.57094 3.17969,-3.41602 1.46092,-0.85935 3.11522,-1.28904 4.96289,-1.28906 2.23436,2e-5 4.03904,0.83791 5.41406,2.51367 1.3893,1.6758 2.08396,4.16083 2.08398,7.45508 l 0,5.86524 c -2e-5,1.47526 0.18618,2.528 0.5586,3.1582 0.38669,0.61589 1.11716,0.92383 2.1914,0.92383 l 0.8379,0"
         id="path3420"
         style="font-size:44px;font-variant:normal;font-stretch:normal;fill:#333333;font-family:Topmarks;-inkscape-font-specification:Topmarks" />
    </g>
  </g>
</svg>
