<?xml version="1.0" encoding="UTF-8" standalone="no"?>
<!-- Created with Inkscape (http://www.inkscape.org/) -->

<svg
   xmlns:dc="http://purl.org/dc/elements/1.1/"
   xmlns:cc="http://creativecommons.org/ns#"
   xmlns:rdf="http://www.w3.org/1999/02/22-rdf-syntax-ns#"
   xmlns:svg="http://www.w3.org/2000/svg"
   xmlns="http://www.w3.org/2000/svg"
   version="1.1"
   width="586.68146"
   height="231.1196"
   id="svg4689">
  <defs
     id="defs4691">
    <clipPath
       id="clipPath10831">
      <path
         d="m 5402.34,3962.16 c -0.88,0.88 -1.77,1.74 -2.66,2.59 l 20.81,5.84 -18.15,-8.43 m -171.34,50.46 -23.48,83.37 c 0.84,0.33 2.17,0.92 3.62,1.76 l 35.47,-83.14 c -5.35,-0.46 -10.56,-1.13 -15.61,-1.99 m -30.56,110.21 c -0.17,0.01 -0.33,0.02 -0.49,0.02 l -0.92,3.27 1.41,-3.29"
         id="path10833" />
    </clipPath>
    <radialGradient
       cx="0"
       cy="0"
       r="1"
       fx="0"
       fy="0"
       id="radialGradient10835"
       gradientUnits="userSpaceOnUse"
       gradientTransform="matrix(563.137,0,0,-563.137,405,400)"
       spreadMethod="pad">
      <stop
         id="stop10837"
         style="stop-color:#f9fdf6;stop-opacity:1"
         offset="0" />
      <stop
         id="stop10839"
         style="stop-color:#f9fdf6;stop-opacity:1"
         offset="0.141326" />
      <stop
         id="stop10841"
         style="stop-color:#e6eedb;stop-opacity:1"
         offset="0.854146" />
      <stop
         id="stop10843"
         style="stop-color:#e6eedb;stop-opacity:1"
         offset="0.854146" />
      <stop
         id="stop10845"
         style="stop-color:#dbe2d1;stop-opacity:1"
         offset="0.989263" />
      <stop
         id="stop10847"
         style="stop-color:#dbe2d1;stop-opacity:1"
         offset="1" />
    </radialGradient>
  </defs>
  <metadata
     id="metadata4694">
    <rdf:RDF>
      <cc:Work
         rdf:about="">
        <dc:format>image/svg+xml</dc:format>
        <dc:type
           rdf:resource="http://purl.org/dc/dcmitype/StillImage" />
        <dc:title></dc:title>
      </cc:Work>
    </rdf:RDF>
  </metadata>
  <g
     transform="translate(86.764107,-107.28138)"
     id="layer1">
    <text
       x="298.94583"
       y="324.78769"
       id="text11705-0-82"
       xml:space="preserve"
       style="font-size:40px;font-style:normal;font-weight:normal;line-height:125%;letter-spacing:0px;word-spacing:0px;fill:#333333;fill-opacity:1;stroke:none;font-family:topmarksbook"><tspan
         x="298.94583"
         y="324.78769"
         id="tspan11707-9-6"
         style="font-size:44px;font-style:normal;font-variant:normal;font-weight:normal;font-stretch:normal;fill:#333333;font-family:Topmarks;-inkscape-font-specification:Topmarks">Apple</tspan></text>
    <g
       transform="matrix(1.7626052,0,0,1.8514215,-243.38521,-270.4475)"
       id="g7017">
      <path
         d="m 329.74602,288.11848 c 0,0 0.1025,1.14625 -1.0425,1.97875 l -1.0425,0.52125 -1.04,-0.41625 -0.9375,0.52 -0.9375,-0.41625 -0.835,0.3125 -0.83375,-0.43375 c 0,0 -1.24875,-0.505 -1.04125,-1.8575 0.21,-1.355 7.71,-0.20875 7.71,-0.20875"
         id="path7683"
         style="fill:#462c20;fill-opacity:1;fill-rule:nonzero;stroke:none" />
      <path
         d="m 327.55602,225.54973 c 0,0 -0.28375,-9.9625 8.5375,-16.5075 0,0 2.56125,-0.8525 0.855,-2.56125 -1.70875,-1.70625 -3.13,-0.28375 -3.13,-0.28375 0,0 -9.1075,6.26 -9.1075,20.49 0,14.22875 3.13,8.5375 2.845,-1.1375"
         id="path7685"
         style="fill:#6a4225;fill-opacity:1;fill-rule:nonzero;stroke:none" />
      <path
         d="m 333.18227,221.59098 c -2.355,1.23875 -4.65,1.7 -6.66625,1.75125 l 0,-0.005 c -0.17125,0.007 -0.34625,0.005 -0.5225,0.007 -0.17375,-0.002 -0.35,0 -0.52,-0.007 l 0,0.005 c -2.01875,-0.0513 -4.3125,-0.5125 -6.6675,-1.75125 -8.4375,-5.625 -33.75,-3.1275 -33.75,21.25 0,17.5 5.88875,26.49375 16.5625,38.75 8.4375,9.6875 14.6875,10.625 19.6875,8.125 1.40875,-0.705 2.835,-0.9975 4.1675,-1.07625 l 0,0.0225 c 0.175,-0.015 0.34875,-0.0275 0.52,-0.0387 0.17375,0.0112 0.34625,0.0238 0.5225,0.0387 l 0,-0.0225 c 1.33,0.0788 2.75875,0.37125 4.16625,1.07625 5,2.5 11.25,1.5625 19.6875,-8.125 10.675,-12.25625 16.5625,-21.25 16.5625,-38.75 0,-24.3775 -25.3125,-26.875 -33.75,-21.25"
         id="path7687"
         style="fill:#e51d25;fill-opacity:1;fill-rule:nonzero;stroke:none" />
      <path
         d="m 332.88102,227.06973 c -3.3925,1.23375 -12.6075,0.40875 -15.325,-1.3575 0,0 6.76625,5.84125 13.69375,5.16125 6.92875,-0.67875 11.68375,5.84125 12.4975,10.46125 0.815,4.61875 3.80375,4.34625 5.2975,4.075 0,0 6.92875,-0.95125 4.48375,-10.595 0,0 -2.18375,-9.89625 -13.31375,-10.125 -3.1225,-0.0637 -4.34625,1.29375 -7.33375,2.38"
         id="path7689"
         style="fill:#fbc8d2;fill-opacity:1;fill-rule:nonzero;stroke:none" />
      <path
         d="m 300.47352,223.46598 c 0,0 -16.25,3.75 -11.45875,30 0,0 1.875,15.41625 20.41625,31.45875 0,0 5.00125,5 10.4175,2.29125 5.41625,-2.70875 6.66625,-1.875 9.79125,-0.625 3.125,1.25 12.91625,8.125 32.50125,-27.29125 0,0 -34.58375,21.66625 -53.75,-3.33375 0,0 -12.9175,-15 -7.9175,-32.5"
         id="path7691"
         style="fill:#94191e;fill-opacity:1;fill-rule:nonzero;stroke:none" />
    </g>
    <g
       transform="matrix(1.7626052,0,0,1.8514215,-324.46505,-270.4475)"
       id="g7008">
      <path
         d="m 425.91727,228.82848 c 0,0 -0.28375,-9.9625 8.53875,-16.5075 0,0 2.56,-0.8525 0.85375,-2.56125 -1.70875,-1.70625 -3.13125,-0.28375 -3.13125,-0.28375 0,0 -9.1075,6.26 -9.1075,20.49 0,14.22875 3.13125,8.5375 2.84625,-1.1375"
         id="path7693"
         style="fill:#6a4225;fill-opacity:1;fill-rule:nonzero;stroke:none" />
      <path
         d="m 432.25477,224.84848 c -2.355,1.2375 -4.65,1.7 -6.66625,1.75 l 0,-0.004 c -0.17125,0.006 -0.3475,0.005 -0.5225,0.006 -0.17375,-0.001 -0.35,0 -0.52,-0.006 l 0,0.004 c -2.01875,-0.05 -4.3125,-0.5125 -6.6675,-1.75 -8.4375,-5.625 -33.75,-3.1275 -33.75,21.25 0,17.5 5.88875,26.49375 16.5625,38.75 8.4375,9.6875 14.6875,10.625 19.6875,8.125 1.40875,-0.705 2.835,-0.99875 4.1675,-1.07625 l 0,0.0225 c 0.17375,-0.0137 0.34875,-0.0275 0.52,-0.0387 0.1725,0.0112 0.34625,0.025 0.5225,0.0387 l 0,-0.0225 c 1.33,0.0775 2.75875,0.37125 4.16625,1.07625 5,2.5 11.25,1.5625 19.6875,-8.125 10.675,-12.25625 16.5625,-21.25 16.5625,-38.75 0,-24.3775 -25.3125,-26.875 -33.75,-21.25"
         id="path7695"
         style="fill:#e51d25;fill-opacity:1;fill-rule:nonzero;stroke:none" />
      <path
         d="m 428.81852,291.37723 c 0,0 0.1025,1.145 -1.0425,1.97875 l -1.0425,0.52125 -1.04,-0.4175 -0.9375,0.52125 -0.9375,-0.41625 -0.835,0.3125 -0.83375,-0.435 c 0,0 -1.1025,-0.49 -1.04125,-1.8575 0.26125,-5.70875 4.18,-5.42375 6.35375,-3.61125 1.30375,1.08625 1.35625,3.40375 1.35625,3.40375"
         id="path7697"
         style="fill:#462c20;fill-opacity:1;fill-rule:nonzero;stroke:none" />
      <path
         d="m 431.95102,226.26098 c -2.255,1.18625 -4.45375,1.63 -6.385,1.67875 l 0,-0.006 c -0.16375,0.007 -0.33125,0.006 -0.5,0.009 -0.16625,-0.002 -0.33625,-0.001 -0.49875,-0.009 l 0,0.006 c -1.9325,-0.0488 -4.13,-0.4925 -6.38375,-1.67875 -8.08125,-5.3875 -32.32125,-2.995 -32.32125,20.35 0,16.76 5.6375,25.37375 15.86125,37.1125 8.08,9.2775 14.065,10.17375 18.85375,7.78 1.34875,-0.675 2.715,-0.95625 3.99,-1.03 l 0,0.0225 c 0.1675,-0.015 0.335,-0.0275 0.49875,-0.0388 0.16625,0.0113 0.33125,0.0238 0.5,0.0388 l 0,-0.0225 c 1.275,0.0737 2.64125,0.355 3.99,1.03 4.78875,2.39375 10.77375,1.4975 18.855,-7.78 10.22125,-11.73875 15.86125,-20.3525 15.86125,-37.1125 0,-23.345 -24.24125,-25.7375 -32.32125,-20.35"
         id="path7699"
         style="fill:#fdfab7;fill-opacity:1;fill-rule:nonzero;stroke:none" />
      <path
         d="m 427.60227,246.46723 c -0.83125,0.4375 -1.64,0.59875 -2.35125,0.6175 l 0,-0.003 -0.185,0.003 -0.18375,-0.003 0,0.003 c -0.71125,-0.0188 -1.52,-0.18 -2.35125,-0.6175 -2.97375,-1.985 -11.90125,-1.10375 -11.90125,7.4925 0,6.1725 2.0775,9.34375 5.84125,13.66625 2.975,3.41625 5.17875,3.74625 6.9425,2.865 0.49625,-0.24875 1,-0.35125 1.46875,-0.38 l 0,0.009 0.18375,-0.015 0.185,0.015 0,-0.009 c 0.46875,0.0288 0.9725,0.13125 1.46875,0.38 1.76375,0.88125 3.9675,0.55125 6.9425,-2.865 3.76375,-4.3225 5.84125,-7.49375 5.84125,-13.66625 0,-8.59625 -8.9275,-9.4775 -11.90125,-7.4925"
         id="path7701"
         style="fill:#e6dc87;fill-opacity:1;fill-rule:nonzero;stroke:none" />
      <path
         d="m 431.18227,253.04473 c -0.0575,0.7525 0.0662,1.6375 -1.13125,2.72625 0,0 -1.41625,1.19625 -1.50875,3.035 -0.0263,0.56125 0.31125,2.3 2.15125,2.5175 0.985,0.1175 2.14125,0.002 2.96375,-1.74 0.6225,-1.3175 0.53125,-4.35625 -1.62375,-6.66375 -0.28125,-0.3 -0.80125,-0.52 -0.85125,0.125"
         id="path7703"
         style="fill:#462c20;fill-opacity:1;fill-rule:nonzero;stroke:none" />
      <path
         d="m 420.04727,253.46098 c 0.0575,0.7525 -0.0675,1.6375 1.13125,2.72625 0,0 1.415,1.1975 1.50875,3.03625 0.0275,0.56 -0.3125,2.29875 -2.15,2.5175 -0.98625,0.11625 -2.14125,0.001 -2.96375,-1.74125 -0.6225,-1.31625 -0.5325,-4.35625 1.62375,-6.6625 0.28,-0.3 0.8,-0.52 0.85,0.12375"
         id="path7705"
         style="fill:#462c20;fill-opacity:1;fill-rule:nonzero;stroke:none" />
    </g>
    <g
       transform="matrix(1.8443317,0,0,1.8443317,-142.6347,-158.73236)"
       id="g7600">
      <path
         d="m 153.42122,161.45625 c 0,0 -6.25,-7.08375 -14.16737,0 0,0 6.25087,7.0825 14.16737,0"
         id="path7783"
         style="fill:#2fa840;fill-opacity:1;fill-rule:nonzero;stroke:none" />
      <path
         d="m 174.82022,166.03875 c -3.916,-2.815 -10.416,-5 -16.25,-5 -3.71,0 -7.45612,0.3025 -8.3325,0.4175 -1.09625,0.1425 -2.45462,0.13 -3.48387,0.0887 l 0,-0.0887 c 0,0 -0.30525,0.025 -0.75838,0.0512 -0.45262,-0.0263 -0.75775,-0.0512 -0.75775,-0.0512 l 0,0.0887 c -1.02937,0.0413 -2.38775,0.0538 -3.48387,-0.0887 -0.8765,-0.115 -4.62313,-0.4175 -8.33263,-0.4175 -5.83387,0 -12.33387,2.185 -16.25,5 -10.15037,7.295 -19.956004,26.3825 -8.33387,48.33375 7.5,14.16625 18.75,17.5 29.1665,18.75 0,0 1.25,3.75 5,2.08375 0,0 1.00187,0.98625 2.99162,0.905 1.98975,0.0812 2.99225,-0.905 2.99225,-0.905 3.75,1.66625 5,-2.08375 5,-2.08375 10.4165,-1.25 21.6665,-4.58375 29.1665,-18.75 11.622,-21.95125 1.81638,-41.03875 -8.334,-48.33375"
         id="path7785"
         style="fill:#f68d11;fill-opacity:1;fill-rule:nonzero;stroke:none" />
      <path
         d="m 176.41047,182.9875 c -1.17762,-7.0675 -5.30125,-12.075 -12.07612,-15.0225 0,0 -5.89113,-1.7675 -11.48775,-0.29375 0,0 -5.00638,0.59 -9.42538,-0.29375 0,0 1.17925,6.185 5.30175,6.47875 4.12363,0.29625 12.1885,1.1925 12.66613,8.8375 0.29387,4.7125 -0.001,9.13125 7.36325,10.015 0,0 9.61037,1.995 7.65812,-9.72125"
         id="path7787"
         style="fill:#fabc6f;fill-opacity:1;fill-rule:nonzero;stroke:none" />
      <path
         d="m 120.08735,166.8725 c 0,0 -19.28813,11.38625 -12.5,37.08375 5.83387,22.0825 24.1665,26.66625 32.08387,26.25 0,0 -0.8325,2.5 6.25,2.5 0,0 6.25,0.41625 6.66613,-2.5 0,0 22.5,1.25 30.83387,-22.5 0,0 -25.00087,15 -47.91737,1.66625 0,0 -23.33263,-14.58375 -15.4165,-42.5"
         id="path7789"
         style="fill:#f36617;fill-opacity:1;fill-rule:nonzero;stroke:none" />
    </g>
    <g
       transform="matrix(1.8998479,0,0,1.8998479,-279.73058,-320.0336)"
       id="g7606">
      <path
         d="m 185.89197,267.68125 c 0.44925,0.41625 0.31588,0.15875 -0.32562,0.17625 -0.6485,0.02 -1.2915,0.075 -1.9375,0.125 -1.18663,0.0887 -2.35938,0.115 -3.5205,-0.2 -0.43713,-0.1175 -0.79113,-0.3075 -1.08163,-0.54375 -4.855,2.035 -9.76562,1.8575 -15.0415,1.8275 -7.08987,-0.0388 -14.16262,-0.3825 -21.24512,-0.65625 -3.688,-0.1425 -7.583,0.12875 -11.24025,-0.325 -0.82613,-0.1025 -1.59425,-0.25125 -2.334,-0.43 -0.20263,0.0437 -0.41838,0.0712 -0.64938,0.0737 -8.44875,0.085 -16.85637,1.02 -25.30512,0.65625 -0.0474,6.25875 1.45012,13.1325 5.25387,20.3175 7.5,14.1675 18.75,17.5 29.166,18.75 0,0 1.25,3.75 5,2.0825 0,0 1.0025,0.98625 2.99225,0.90625 1.98975,0.08 2.99163,-0.90625 2.99163,-0.90625 3.75,1.6675 5,-2.0825 5,-2.0825 10.4165,-1.25 21.6665,-4.5825 29.1665,-18.75 3.7915,-7.16 5.2915,-14.0125 5.25487,-20.25375 -0.71387,0.0713 -1.47062,-0.14125 -2.1445,-0.7675"
         id="path9591"
         style="fill:#f68d11;fill-opacity:1;fill-rule:nonzero;stroke:none" />
      <path
         d="m 135.13122,283.7025 c 0,0 -8.53762,-5.35 -13.53125,-15.75375 -5.271,0.24625 -10.53462,0.5925 -15.8105,0.52 0.0635,3.0075 0.48975,6.27125 1.42575,9.81625 5.834,22.08375 24.166,26.6675 32.084,26.25 0,0 -0.8325,2.5 6.25,2.5 0,0 6.25,0.4175 6.666,-2.5 0,0 22.5,1.25 30.834,-22.5 0,0 -25.0015,15 -47.918,1.6675"
         id="path9593"
         style="fill:#f36617;fill-opacity:1;fill-rule:nonzero;stroke:none" />
      <path
         d="m 188.23822,267.59375 c 0.84863,10.045 -18.43362,18.5475 -43.09575,18.5475 -24.66312,0 -43.14062,-8.5025 -41.9385,-18.5475 1.1475,-9.5825 19.91213,-17.035 42.56988,-17.035 22.65812,0 41.65862,7.4525 42.46437,17.035"
         id="path9595"
         style="fill:#f68d11;fill-opacity:1;fill-rule:nonzero;stroke:none" />
      <path
         d="m 185.46235,267.17375 c 0.78212,8.79 -17.06063,16.2275 -39.89263,16.2275 -22.82712,0 -40.39062,-7.4375 -39.27975,-16.2275 1.06438,-8.38375 18.894,-14.90625 39.86475,-14.90625 20.97263,0 38.558,6.5225 39.30763,14.90625"
         id="path9597"
         style="fill:#fef8d8;fill-opacity:1;fill-rule:nonzero;stroke:none" />
      <path
         d="m 141.6156,253.11375 c -6.6635,0.3125 -12.81588,1.3125 -17.978,2.815 -0.86725,0.255 -0.38575,1.64875 -0.38575,1.64875 l 21.45212,8.46375 0.25538,-11.70125 c 0,0 -2.23138,-1.28 -3.34375,-1.22625"
         id="path9599"
         style="fill:#f8a10e;fill-opacity:1;fill-rule:nonzero;stroke:none" />
      <path
         d="m 142.9681,267.64625 -30.8325,0 c 0,0 -3.82025,0.93 -3.73538,1.38625 0.54113,2.755 3.02063,5.3125 6.97175,7.44875 0.66988,0.36875 4.96825,-0.0325 4.96825,-0.0325 l 22.62788,-8.8025"
         id="path9601"
         style="fill:#f8a10e;fill-opacity:1;fill-rule:nonzero;stroke:none" />
      <path
         d="m 147.27385,254.39375 -0.18075,11.6475 21.95712,-8.54125 c 0,0 0.35488,-1.315 -0.4995,-1.56625 -5.109,-1.5075 -11.233,-2.50875 -17.89312,-2.82 -1.10838,-0.0538 -3.38375,1.28 -3.38375,1.28"
         id="path9603"
         style="fill:#f8a10e;fill-opacity:1;fill-rule:nonzero;stroke:none" />
      <path
         d="m 142.99397,266.70375 -21.44775,-8.49625 c 0,0 -3.63525,-0.235 -4.33437,0.0925 -4.30675,2.00125 -7.315,4.46875 -8.43563,7.20625 -0.16212,0.3925 2.71875,1.1975 2.71875,1.1975 l 31.499,0"
         id="path9605"
         style="fill:#f8a10e;fill-opacity:1;fill-rule:nonzero;stroke:none" />
      <path
         d="m 144.65172,268.3175 -23.02975,8.98875 c 0,0 -0.77887,1.5575 0.0976,1.845 5.2515,1.72 11.73338,2.87875 18.89163,3.25 1.22562,0.0637 3.75975,-1.36 3.75975,-1.36 l 0.28075,-12.72375"
         id="path9607"
         style="fill:#f8a10e;fill-opacity:1;fill-rule:nonzero;stroke:none" />
      <path
         d="m 148.76647,267.64625 23.21688,9.16375 c 0,0 3.18212,0.125 3.79725,-0.195 4.23975,-2.2 6.92675,-4.855 7.52987,-7.72125 0.0897,-0.41125 -3.61575,-1.2475 -3.61575,-1.2475 l -30.92825,0"
         id="path9609"
         style="fill:#f8a10e;fill-opacity:1;fill-rule:nonzero;stroke:none" />
      <path
         d="m 148.7801,266.70375 31.60012,0 c 0,0 2.77988,-0.9075 2.60163,-1.35 -1.10263,-2.76375 -4.14063,-5.24125 -8.50925,-7.24 -0.5655,-0.25875 -3.88,0.0762 -3.88,0.0762 l -21.8125,8.51375"
         id="path9611"
         style="fill:#f8a10e;fill-opacity:1;fill-rule:nonzero;stroke:none" />
      <path
         d="m 147.05647,268.3175 -0.19775,12.84875 c 0,0 2.43075,1.30125 3.628,1.24 7.14838,-0.36375 13.65325,-1.5125 18.96725,-3.215 0.93025,-0.2975 0.1895,-1.92625 0.1895,-1.92625 l -22.587,-8.9475"
         id="path9613"
         style="fill:#f8a10e;fill-opacity:1;fill-rule:nonzero;stroke:none" />
    </g>
    <text
       x="-22.096109"
       y="324.78769"
       id="text11705-0-82-1"
       xml:space="preserve"
       style="font-size:40px;font-style:normal;font-weight:normal;line-height:125%;letter-spacing:0px;word-spacing:0px;fill:#333333;fill-opacity:1;stroke:none;font-family:topmarksbook"><tspan
         x="-22.096109"
         y="324.78769"
         id="tspan11707-9-6-5"
         style="font-size:44px;font-style:normal;font-variant:normal;font-weight:normal;font-stretch:normal;fill:#333333;font-family:Topmarks;-inkscape-font-specification:Topmarks">Orange</tspan></text>
  </g>
</svg>
