<?xml version="1.0" encoding="UTF-8" standalone="no"?>
<!-- Created with Inkscape (http://www.inkscape.org/) -->

<svg
   xmlns:dc="http://purl.org/dc/elements/1.1/"
   xmlns:cc="http://creativecommons.org/ns#"
   xmlns:rdf="http://www.w3.org/1999/02/22-rdf-syntax-ns#"
   xmlns:svg="http://www.w3.org/2000/svg"
   xmlns="http://www.w3.org/2000/svg"
   xmlns:sodipodi="http://sodipodi.sourceforge.net/DTD/sodipodi-0.dtd"
   xmlns:inkscape="http://www.inkscape.org/namespaces/inkscape"
   width="1245.1992"
   height="238.70201"
   id="svg4689"
   version="1.1"
   inkscape:version="0.48.4 r"
   sodipodi:docname="fruit1.svg">
  <defs
     id="defs4691">
    <clipPath
       clipPathUnits="userSpaceOnUse"
       id="clipPath10831">
      <path
         inkscape:connector-curvature="0"
         d="m 5402.34,3962.16 c -0.88,0.88 -1.77,1.74 -2.66,2.59 l 20.81,5.84 -18.15,-8.43 m -171.34,50.46 -23.48,83.37 c 0.84,0.33 2.17,0.92 3.62,1.76 l 35.47,-83.14 c -5.35,-0.46 -10.56,-1.13 -15.61,-1.99 m -30.56,110.21 c -0.17,0.01 -0.33,0.02 -0.49,0.02 l -0.92,3.27 1.41,-3.29"
         id="path10833" />
    </clipPath>
    <radialGradient
       fx="0"
       fy="0"
       cx="0"
       cy="0"
       r="1"
       gradientUnits="userSpaceOnUse"
       gradientTransform="matrix(563.137,0,0,-563.137,405,400)"
       spreadMethod="pad"
       id="radialGradient10835">
      <stop
         style="stop-opacity:1;stop-color:#f9fdf6"
         offset="0"
         id="stop10837" />
      <stop
         style="stop-opacity:1;stop-color:#f9fdf6"
         offset="0.141326"
         id="stop10839" />
      <stop
         style="stop-opacity:1;stop-color:#e6eedb"
         offset="0.854146"
         id="stop10841" />
      <stop
         style="stop-opacity:1;stop-color:#e6eedb"
         offset="0.854146"
         id="stop10843" />
      <stop
         style="stop-opacity:1;stop-color:#dbe2d1"
         offset="0.989263"
         id="stop10845" />
      <stop
         style="stop-opacity:1;stop-color:#dbe2d1"
         offset="1"
         id="stop10847" />
    </radialGradient>
  </defs>
  <sodipodi:namedview
     id="base"
     pagecolor="#ffffff"
     bordercolor="#666666"
     borderopacity="1.0"
     inkscape:pageopacity="0.0"
     inkscape:pageshadow="2"
     inkscape:zoom="0.83"
     inkscape:cx="672.77532"
     inkscape:cy="82.830353"
     inkscape:document-units="px"
     inkscape:current-layer="layer1"
     showgrid="false"
     fit-margin-top="3"
     fit-margin-right="3"
     fit-margin-bottom="3"
     fit-margin-left="3"
     inkscape:window-width="1555"
     inkscape:window-height="864"
     inkscape:window-x="36"
     inkscape:window-y="53"
     inkscape:window-maximized="0" />
  <metadata
     id="metadata4694">
    <rdf:RDF>
      <cc:Work
         rdf:about="">
        <dc:format>image/svg+xml</dc:format>
        <dc:type
           rdf:resource="http://purl.org/dc/dcmitype/StillImage" />
        <dc:title />
      </cc:Work>
    </rdf:RDF>
  </metadata>
  <g
     inkscape:label="Layer 1"
     inkscape:groupmode="layer"
     id="layer1"
     transform="translate(86.764107,-99.698957)">
    <text
       xml:space="preserve"
       style="font-size:40px;font-style:normal;font-weight:normal;line-height:125%;letter-spacing:0px;word-spacing:0px;fill:#333333;fill-opacity:1;stroke:none;font-family:Sans"
       x="298.94583"
       y="324.78769"
       id="text11705-0-82"
       sodipodi:linespacing="125%"><tspan
         sodipodi:role="line"
         id="tspan11707-9-6"
         x="298.94583"
         y="324.78769"
         style="font-size:44px;font-style:normal;font-variant:normal;font-weight:normal;font-stretch:normal;fill:#333333;font-family:Topmarks;-inkscape-font-specification:Topmarks">Apple</tspan></text>
    <g
       id="g7017"
       transform="matrix(1.7626052,0,0,1.8514215,-243.38521,-270.4475)">
      <path
         d="m 329.74602,288.11848 c 0,0 0.1025,1.14625 -1.0425,1.97875 l -1.0425,0.52125 -1.04,-0.41625 -0.9375,0.52 -0.9375,-0.41625 -0.835,0.3125 -0.83375,-0.43375 c 0,0 -1.24875,-0.505 -1.04125,-1.8575 0.21,-1.355 7.71,-0.20875 7.71,-0.20875"
         style="fill:#462c20;fill-opacity:1;fill-rule:nonzero;stroke:none"
         id="path7683"
         inkscape:connector-curvature="0" />
      <path
         d="m 327.55602,225.54973 c 0,0 -0.28375,-9.9625 8.5375,-16.5075 0,0 2.56125,-0.8525 0.855,-2.56125 -1.70875,-1.70625 -3.13,-0.28375 -3.13,-0.28375 0,0 -9.1075,6.26 -9.1075,20.49 0,14.22875 3.13,8.5375 2.845,-1.1375"
         style="fill:#6a4225;fill-opacity:1;fill-rule:nonzero;stroke:none"
         id="path7685"
         inkscape:connector-curvature="0" />
      <path
         d="m 333.18227,221.59098 c -2.355,1.23875 -4.65,1.7 -6.66625,1.75125 l 0,-0.005 c -0.17125,0.007 -0.34625,0.005 -0.5225,0.007 -0.17375,-0.002 -0.35,0 -0.52,-0.007 l 0,0.005 c -2.01875,-0.0513 -4.3125,-0.5125 -6.6675,-1.75125 -8.4375,-5.625 -33.75,-3.1275 -33.75,21.25 0,17.5 5.88875,26.49375 16.5625,38.75 8.4375,9.6875 14.6875,10.625 19.6875,8.125 1.40875,-0.705 2.835,-0.9975 4.1675,-1.07625 l 0,0.0225 c 0.175,-0.015 0.34875,-0.0275 0.52,-0.0387 0.17375,0.0112 0.34625,0.0238 0.5225,0.0387 l 0,-0.0225 c 1.33,0.0788 2.75875,0.37125 4.16625,1.07625 5,2.5 11.25,1.5625 19.6875,-8.125 10.675,-12.25625 16.5625,-21.25 16.5625,-38.75 0,-24.3775 -25.3125,-26.875 -33.75,-21.25"
         style="fill:#e51d25;fill-opacity:1;fill-rule:nonzero;stroke:none"
         id="path7687"
         inkscape:connector-curvature="0" />
      <path
         d="m 332.88102,227.06973 c -3.3925,1.23375 -12.6075,0.40875 -15.325,-1.3575 0,0 6.76625,5.84125 13.69375,5.16125 6.92875,-0.67875 11.68375,5.84125 12.4975,10.46125 0.815,4.61875 3.80375,4.34625 5.2975,4.075 0,0 6.92875,-0.95125 4.48375,-10.595 0,0 -2.18375,-9.89625 -13.31375,-10.125 -3.1225,-0.0637 -4.34625,1.29375 -7.33375,2.38"
         style="fill:#fbc8d2;fill-opacity:1;fill-rule:nonzero;stroke:none"
         id="path7689"
         inkscape:connector-curvature="0" />
      <path
         d="m 300.47352,223.46598 c 0,0 -16.25,3.75 -11.45875,30 0,0 1.875,15.41625 20.41625,31.45875 0,0 5.00125,5 10.4175,2.29125 5.41625,-2.70875 6.66625,-1.875 9.79125,-0.625 3.125,1.25 12.91625,8.125 32.50125,-27.29125 0,0 -34.58375,21.66625 -53.75,-3.33375 0,0 -12.9175,-15 -7.9175,-32.5"
         style="fill:#94191e;fill-opacity:1;fill-rule:nonzero;stroke:none"
         id="path7691"
         inkscape:connector-curvature="0" />
    </g>
    <g
       id="g7008"
       transform="matrix(1.7626052,0,0,1.8514215,-324.46505,-270.4475)">
      <path
         d="m 425.91727,228.82848 c 0,0 -0.28375,-9.9625 8.53875,-16.5075 0,0 2.56,-0.8525 0.85375,-2.56125 -1.70875,-1.70625 -3.13125,-0.28375 -3.13125,-0.28375 0,0 -9.1075,6.26 -9.1075,20.49 0,14.22875 3.13125,8.5375 2.84625,-1.1375"
         style="fill:#6a4225;fill-opacity:1;fill-rule:nonzero;stroke:none"
         id="path7693"
         inkscape:connector-curvature="0" />
      <path
         d="m 432.25477,224.84848 c -2.355,1.2375 -4.65,1.7 -6.66625,1.75 l 0,-0.004 c -0.17125,0.006 -0.3475,0.005 -0.5225,0.006 -0.17375,-0.001 -0.35,0 -0.52,-0.006 l 0,0.004 c -2.01875,-0.05 -4.3125,-0.5125 -6.6675,-1.75 -8.4375,-5.625 -33.75,-3.1275 -33.75,21.25 0,17.5 5.88875,26.49375 16.5625,38.75 8.4375,9.6875 14.6875,10.625 19.6875,8.125 1.40875,-0.705 2.835,-0.99875 4.1675,-1.07625 l 0,0.0225 c 0.17375,-0.0137 0.34875,-0.0275 0.52,-0.0387 0.1725,0.0112 0.34625,0.025 0.5225,0.0387 l 0,-0.0225 c 1.33,0.0775 2.75875,0.37125 4.16625,1.07625 5,2.5 11.25,1.5625 19.6875,-8.125 10.675,-12.25625 16.5625,-21.25 16.5625,-38.75 0,-24.3775 -25.3125,-26.875 -33.75,-21.25"
         style="fill:#e51d25;fill-opacity:1;fill-rule:nonzero;stroke:none"
         id="path7695"
         inkscape:connector-curvature="0" />
      <path
         d="m 428.81852,291.37723 c 0,0 0.1025,1.145 -1.0425,1.97875 l -1.0425,0.52125 -1.04,-0.4175 -0.9375,0.52125 -0.9375,-0.41625 -0.835,0.3125 -0.83375,-0.435 c 0,0 -1.1025,-0.49 -1.04125,-1.8575 0.26125,-5.70875 4.18,-5.42375 6.35375,-3.61125 1.30375,1.08625 1.35625,3.40375 1.35625,3.40375"
         style="fill:#462c20;fill-opacity:1;fill-rule:nonzero;stroke:none"
         id="path7697"
         inkscape:connector-curvature="0" />
      <path
         d="m 431.95102,226.26098 c -2.255,1.18625 -4.45375,1.63 -6.385,1.67875 l 0,-0.006 c -0.16375,0.007 -0.33125,0.006 -0.5,0.009 -0.16625,-0.002 -0.33625,-0.001 -0.49875,-0.009 l 0,0.006 c -1.9325,-0.0488 -4.13,-0.4925 -6.38375,-1.67875 -8.08125,-5.3875 -32.32125,-2.995 -32.32125,20.35 0,16.76 5.6375,25.37375 15.86125,37.1125 8.08,9.2775 14.065,10.17375 18.85375,7.78 1.34875,-0.675 2.715,-0.95625 3.99,-1.03 l 0,0.0225 c 0.1675,-0.015 0.335,-0.0275 0.49875,-0.0388 0.16625,0.0113 0.33125,0.0238 0.5,0.0388 l 0,-0.0225 c 1.275,0.0737 2.64125,0.355 3.99,1.03 4.78875,2.39375 10.77375,1.4975 18.855,-7.78 10.22125,-11.73875 15.86125,-20.3525 15.86125,-37.1125 0,-23.345 -24.24125,-25.7375 -32.32125,-20.35"
         style="fill:#fdfab7;fill-opacity:1;fill-rule:nonzero;stroke:none"
         id="path7699"
         inkscape:connector-curvature="0" />
      <path
         d="m 427.60227,246.46723 c -0.83125,0.4375 -1.64,0.59875 -2.35125,0.6175 l 0,-0.003 -0.185,0.003 -0.18375,-0.003 0,0.003 c -0.71125,-0.0188 -1.52,-0.18 -2.35125,-0.6175 -2.97375,-1.985 -11.90125,-1.10375 -11.90125,7.4925 0,6.1725 2.0775,9.34375 5.84125,13.66625 2.975,3.41625 5.17875,3.74625 6.9425,2.865 0.49625,-0.24875 1,-0.35125 1.46875,-0.38 l 0,0.009 0.18375,-0.015 0.185,0.015 0,-0.009 c 0.46875,0.0288 0.9725,0.13125 1.46875,0.38 1.76375,0.88125 3.9675,0.55125 6.9425,-2.865 3.76375,-4.3225 5.84125,-7.49375 5.84125,-13.66625 0,-8.59625 -8.9275,-9.4775 -11.90125,-7.4925"
         style="fill:#e6dc87;fill-opacity:1;fill-rule:nonzero;stroke:none"
         id="path7701"
         inkscape:connector-curvature="0" />
      <path
         d="m 431.18227,253.04473 c -0.0575,0.7525 0.0662,1.6375 -1.13125,2.72625 0,0 -1.41625,1.19625 -1.50875,3.035 -0.0263,0.56125 0.31125,2.3 2.15125,2.5175 0.985,0.1175 2.14125,0.002 2.96375,-1.74 0.6225,-1.3175 0.53125,-4.35625 -1.62375,-6.66375 -0.28125,-0.3 -0.80125,-0.52 -0.85125,0.125"
         style="fill:#462c20;fill-opacity:1;fill-rule:nonzero;stroke:none"
         id="path7703"
         inkscape:connector-curvature="0" />
      <path
         d="m 420.04727,253.46098 c 0.0575,0.7525 -0.0675,1.6375 1.13125,2.72625 0,0 1.415,1.1975 1.50875,3.03625 0.0275,0.56 -0.3125,2.29875 -2.15,2.5175 -0.98625,0.11625 -2.14125,0.001 -2.96375,-1.74125 -0.6225,-1.31625 -0.5325,-4.35625 1.62375,-6.6625 0.28,-0.3 0.8,-0.52 0.85,0.12375"
         style="fill:#462c20;fill-opacity:1;fill-rule:nonzero;stroke:none"
         id="path7705"
         inkscape:connector-curvature="0" />
    </g>
    <g
       id="g7405"
       transform="matrix(-0.9395677,-0.34236316,-0.34236316,0.9395677,671.5506,-21.246742)">
      <path
         d="m -86.444487,115.25646 c 0,0 -7.98125,4.36 -3.1425,10.96375 4.8375,6.59875 5.0175,17.775 2.09125,25.41625 -1.36875,3.5775 -5.1575,6.17375 -8.44625,15.6275 -3.73125,10.72738 -3.125,25.18875 0.12125,40.18 6.9275,32.00975 43.06375,82.22854 122.9225,68.14363 0,0 8.36,-3.57763 18.705,-6.57863 0,0 3.24,-0.774 6.31,-6.11875 0,0 3.64625,-7.32762 -4.935,-9.61762 -8.585,-2.29488 -8.77875,-7.51613 -21.95125,-10.28863 0,0 -43.65125,-3.75387 -61.9625,-22.38375 0,0 -17.62,-13.45112 -20.53125,-40.07375 0,0 -2.43125,-18.1225 -11.11125,-28.8225 0,0 -6.52125,-4.39375 -7.09875,-23.425 -0.32125,-10.6275 -1.6975,-17.565 -10.97125,-13.0225"
         style="fill:#f0ca21;fill-opacity:1;fill-rule:nonzero;stroke:none"
         id="path7775"
         inkscape:connector-curvature="0" />
      <path
         d="m 48.609263,255.70909 c 0,0 -2.33125,-1.21775 -2.71625,5.981 0,0 -0.46,5.2475 3.115,4.78762 0,0 6.50875,-0.7325 3.605,-8.46737 0,0 -0.0888,-2.44625 -4.00375,-2.30125"
         style="fill:#6a4225;fill-opacity:1;fill-rule:nonzero;stroke:none"
         id="path7777"
         inkscape:connector-curvature="0" />
      <path
         d="m 40.654263,253.51621 c 0,0 -5.415,-5.02587 -13.32125,-6.68987 -7.90375,-1.66513 -36.7387499,-3.86138 -44.7625,-8.78613 -6.92875,-4.25487 -29.02125,-9.74512 -41.63125,-45.91112 -1.99875,-5.74025 -2.01,-13.8765 -3.47875,-21.43888 0,0 -3.23875,-9.45 -10.63125,-20.3175 0,0 -3.2825,-4.82875 -4.2,-16.56875 -0.91375,-11.7375 -3.985,-19.89125 -7.345,-15.4875 0,0 2.76875,10.82625 4.37125,17.8675 1.60375,7.0275 1.9975,14.8825 0.45,22.99375 -1.5475,8.1175 2.79625,40.4835 19.12625,63.99138 0,0 20.04125,38.61225 93.185,37.18987 0,0 8.4575,-0.96625 8.2375,-6.84275"
         style="fill:#f7f238;fill-opacity:1;fill-rule:nonzero;stroke:none"
         id="path7779"
         inkscape:connector-curvature="0" />
      <path
         d="m 40.511763,267.24771 c 0,0 -5.19625,0.84863 -13.5575,4.42475 0,0 -40.98625,5.18263 -77.855,-14.246 0,0 -46.3675,-21.45512 -43.38875,-77.86237 0,0 -0.61625,-14.41513 9.17,-24.95513 0,0 2.455,-6.25375 1.4525,-18.6425 0,0 4.1125,15.9225 -1.27375,29.8225 0,0 -6.26625,41.69263 24.7875,71.78738 0,0 24.13875,27.95012 84.20375,26.36125 0,0 12.98375,-2.44475 16.46125,3.31012"
         style="fill:#c6a31b;fill-opacity:1;fill-rule:nonzero;stroke:none"
         id="path7781"
         inkscape:connector-curvature="0" />
    </g>
    <g
       id="g7492"
       transform="matrix(1.0724971,0,0,1.0724971,688.79923,-189.10181)">
      <path
         d="m 101.36968,426.56792 c 0,0 2.8175,7.09525 -2.471246,7.89013 0,0 -3.76625,1.1265 -4.99,-3.70513 0,0 5.86875,2.0225 7.461246,-4.185"
         style="fill:#6a4225;fill-opacity:1;fill-rule:nonzero;stroke:none"
         id="path10641"
         inkscape:connector-curvature="0" />
      <path
         d="m 94.804684,358.0493 0.14625,-1.34613 c -9.435,-5.9815 -16.9775,-0.63375 -20.82875,9.835 -3.8525,10.46775 6.3325,5.08488 8.98,14.65375 2.64875,9.56738 15.94625,33.8935 15.94625,33.8935 0,0 -2.11875,-34.48237 0.1975,-44.07362 2.316246,-9.59375 -4.44125,-12.9625 -4.44125,-12.9625"
         style="fill:#c6a31b;fill-opacity:1;fill-rule:nonzero;stroke:none"
         id="path10643"
         inkscape:connector-curvature="0" />
      <path
         d="m 81.998434,358.8243 c 0,0 6.385,-6.51125 12.80625,-0.775 6.422496,5.73487 -3.34375,-9.80513 -15.455,-8.79238 -12.1125,1.01113 -1.945,9.8725 2.64875,9.56738"
         style="fill:#f3f0bb;fill-opacity:1;fill-rule:nonzero;stroke:none"
         id="path10645"
         inkscape:connector-curvature="0" />
      <path
         d="m 61.654684,314.67442 c -5.42375,1.21125 -10.47125,2.96 -15.78875,3.675 -0.0262,8.24875 -0.6925,20.49238 -3.70875,32.72488 l 3.075,2.89637 14.6825,15.19388 c 5.31125,-4.709 22.1775,-5.79288 22.1775,-5.79288 3.09625,-15.07475 4.06875,-33.216 -1.03125,-53.1635 -6.26125,2.44125 -12.82125,2.9925 -19.40625,4.46625"
         style="fill:#fefce1;fill-opacity:1;fill-rule:nonzero;stroke:none"
         id="path10647"
         inkscape:connector-curvature="0" />
      <path
         d="m 55.822184,345.55417 c 1.63,-7.71962 3.21125,-18.376 2.3975,-30.03725 -3.68,0.955 -7.2525,1.99625 -10.92375,2.6175 0.11,11.33375 -0.97875,24.02775 -5.085,36.75138 -5.815,18.01462 11.04625,14.041 17.70375,14.27875 6.655,0.23875 17.0425,-3.68013 17.0425,-3.68013 0,0 -11.0975,-2.88237 -18.1375,-5.44237 -3.26,-1.1865 -4.08375,-9.33738 -2.9975,-14.48788"
         style="fill:#e9e6b6;fill-opacity:1;fill-rule:nonzero;stroke:none"
         id="path10649"
         inkscape:connector-curvature="0" />
      <path
         d="m -65.895316,414.24955 c 0,0 0.9375,9.08987 8.93375,7.17625 7.995,-1.91163 21.9275,3.14112 29.92625,5.05375 3.745,0.895 6.82375,4.32612 16.67625,6.3525 11.17500026,2.30475 25.50125,-0.20013 40.00125,-5.40525 18.865,-6.76863 42.655,-26.9775 51.17875,-58.67975 2.93125,-10.91163 -11.34375,1.59475 -21.9175,-2.09275 -9.1425,-3.19088 -14.37375,-24.19238 -17.11375,-14.165 -1.45375,5.31887 -3.635,10.269 -6.82,14.355 0,0 -11.07625,19.31487 -37.2112497,25.72262 0,0 -17.7325003,4.80613 -27.2425003,14.85988 0,0 -2.2275,8.60112 -20.08,1.73237 -9.965,-3.83837 -16.92875,-5.26612 -16.33125,5.09038"
         style="fill:#f0ca21;fill-opacity:1;fill-rule:nonzero;stroke:none"
         id="path10651"
         inkscape:connector-curvature="0" />
      <path
         d="m 42.320934,360.47805 c -3.73625,9.6475 -11.84875,21.80275 -32.7699997,32.34762 -3.41,1.71638 -7.85125,2.78613 -12.49625,3.94388 -2.70375,0.67237 -10.2112503,3.24612 -13.0925003,5.03375 -3.5425,2.19475 -8.71,5.7275 -14.1425,10.57225 0,0 -3.775,4.40275 -15.00375,0.68987 -11.225,-3.72362 -19.975,-4.05362 -17.205,0.7725 0,0 11.10875,1.65525 18.24875,2.90675 7.13625,1.25338 15.33375,0.69725 23.6175,1.17088 8.28625,0.47262 39.945,-8.11225 61.2125,-27.47213 0,0 8.2225,-6.50787 14.48125,-21.5415 -4.2725,-1.3965 -8.62375,-4.041 -12.85,-8.42387"
         style="fill:#f7f238;fill-opacity:1;fill-rule:nonzero;stroke:none"
         id="path10653"
         inkscape:connector-curvature="0" />
      <path
         d="m 58.325934,372.03317 c 0,0 -14.64,-5.26362 -24.6975,3.41363 -10.06125,8.67775 -16.29125,11.5215 -24.0012497,13.25 0,0 20.3924997,-9.3975 31.0174997,-31.36138 0,0 17.655,0.129 17.68125,14.69775"
         style="fill:#c6a31b;fill-opacity:1;fill-rule:nonzero;stroke:none"
         id="path10655"
         inkscape:connector-curvature="0" />
      <path
         d="m 58.187184,371.05817 c 3.9825,2.42863 3.46125,6.32225 2.88625,8.8735 -1.23125,5.46625 -3.6075,7.45263 -3.6075,7.45263 -28.76625,41.06737 -70.745,34.6865 -70.745,34.6865 -14.55,-3.53413 -32.35375,-2.3325 -32.35375,-2.3325 12.94125,1.541 21.25,3.98237 21.25,3.98237 11.78125,8.36138 26.0550003,5.85013 26.0550003,5.85013 35.8024997,-2.82275 53.2187497,-24.81 64.3749997,-38.27538 4.4625,-5.38325 7.37625,-3.46725 7.37625,-3.46725 3.7425,-6.479 5.98125,-14.46387 6.62,-16.811 -4.77875,0.7035 -11.805,-6.3155 -21.85625,0.041"
         style="fill:#c6a31b;fill-opacity:1;fill-rule:nonzero;stroke:none"
         id="path10657"
         inkscape:connector-curvature="0" />
      <path
         d="m 58.325934,372.03317 c 0,0 -14.23125,-18.48387 -30.78875,-8.91012 -14.56,8.419 -24.2387497,21.46775 -38.2125,26.82137 0,0 -16.925,4.166 -9.5975,-5.47025 6.0075,-7.90625 35.425,-27.67 41.8575,-33.8575 6.4325,-6.186 41.89125,10.76913 36.74125,21.4165"
         style="fill:#f0ca21;fill-opacity:1;fill-rule:nonzero;stroke:none"
         id="path10659"
         inkscape:connector-curvature="0" />
      <path
         d="m 58.325934,372.03317 c 0,0 -7.60625,-21.47012 -30.755,-11.645 0,0 -6.2,3.15 -10.405,6.77738 -8.3349997,7.19137 -19.0862497,17.94387 -29.94125,21.57275 0,0 -11.71375,2.33012 -9.17375,-2.73538 0,0 2.1125,-5.52875 6.5125,-11.58 19.9950003,-27.49612 29.7075,-46.1835 59.47625,-32.0835 0,0 -1.53875,8.65625 8.97,15.19725 11.42625,7.10888 5.31625,14.4965 5.31625,14.4965"
         style="fill:#f3f0bb;fill-opacity:1;fill-rule:nonzero;stroke:none"
         id="path10661"
         inkscape:connector-curvature="0" />
      <path
         d="m 58.325934,372.03317 c 0,0 14.5,-4.354 19.3075,7.92875 3.07,7.85113 3.3,9.4785 3.70625,22.00488 0.3875,11.91512 1.655,18.4615 4.67875,21.87262 0,0 3.58875,6.791 11.0075,7.75238 1.52375,0.19875 6.027496,0.49025 4.021246,-6.84763 -3.491246,-12.75487 -10.597496,-37.17725 -10.582496,-40.59475 0.0238,-4.64012 -4.67,-33.79637 -32.13875,-12.11625"
         style="fill:#f0ca21;fill-opacity:1;fill-rule:nonzero;stroke:none"
         id="path10663"
         inkscape:connector-curvature="0" />
      <path
         d="m 58.325934,372.03317 c 0,0 6.51625,-5.53362 14.3875,-1.32512 7.86625,4.21 11.1625,13.689 11.26,33.54637 0,0 -0.76,13.68263 8.16375,22.58988 3.0775,3.06637 9.706246,6.54875 9.356246,1.14887 -0.8675,-13.4575 8.07625,-20.65237 6.47875,-36.99262 0,0 2.63625,-28.84238 -24.146246,-35.73975 0,0 -0.965,7.41837 -17.30125,9.01462 0,0 -7.23875,0.33788 -8.19875,7.75775"
         style="fill:#f3f0bb;fill-opacity:1;fill-rule:nonzero;stroke:none"
         id="path10665"
         inkscape:connector-curvature="0" />
      <path
         d="m 97.125934,426.51805 0.73125,-5.68113 1.28625,5.20513 2.171246,2.63475 c 0.57625,1.5625 -0.76125,2.73487 -2.082496,3.02387 -1.63375,0.355 -3.40875,-0.39887 -3.40875,-0.39887 0,0 1.36125,-1.44875 1.3025,-4.78375"
         style="fill:#b6c13a;fill-opacity:1;fill-rule:nonzero;stroke:none"
         id="path10667"
         inkscape:connector-curvature="0" />
      <path
         d="m -2.6628157,381.82817 c 0,0 4.80375,-3.80375 13.8624997,-11.1075 3.215,-2.59125 6.69625,-6.2875 10.58875,-9.03612 12.5825,-8.88913 26.82625,-7.1865 32.9125,0.91362 0,0 -10.50625,-16.43012 -32.07,-3.51362 0,0 -5.43125,3.71237 -11.42,9.02725 -5.0249997,4.459 -9.0099997,8.96487 -13.8737497,13.71637"
         style="fill:#fefce1;fill-opacity:1;fill-rule:nonzero;stroke:none"
         id="path10669"
         inkscape:connector-curvature="0" />
      <path
         d="m 63.054684,368.52205 c 0,0 1.97,-0.7515 4.49375,-0.45763 5.1225,0.60013 13.2475,3.3575 15.4675,14.58888 0.82875,4.19237 2.0075,10.02987 1.47875,18.796 0,0 3.98875,-16.98488 0.91375,-24.83988 -3.07,-7.855 -13.6575,-12.26762 -22.35375,-8.08737"
         style="fill:#fefce1;fill-opacity:1;fill-rule:nonzero;stroke:none"
         id="path10671"
         inkscape:connector-curvature="0" />
      <path
         d="m 81.379684,311.22192 c 0,0 -1.51125,5.84 -8.42375,6.1325 0,0 -0.6625,2.40875 -4.5625,2.9475 0,0 -3.57375,0.495 -6.395,-0.7725 0,0 -2.37875,1.98375 -5.0675,1.695 0,0 -3.9425,0.2125 -5.05625,-0.62625 0,0 -4.4125,1.60625 -6.355,-0.445 0,0 -2.62125,-4.60625 7.03625,-6.605 0,0 6.23375,-2.845 9.38375,-1.62625 0,0 2.8325,-1.0525 6.68875,-1.91875 3.855,-0.86375 13.51125,-2.85875 12.75125,1.21875"
         style="fill:#f3f0bb;fill-opacity:1;fill-rule:nonzero;stroke:none"
         id="path10673"
         inkscape:connector-curvature="0" />
      <path
         d="m 71.057184,311.40692 c 0,0 -4.53125,1.3725 -8.15125,2.1225 -3.62375,0.7475 -8.53,1.17875 -7.145,2.22875 1.38625,1.0475 -0.67125,2.32625 2.35625,2.655 3.02375,0.32375 8.87375,-0.48125 11.14375,-2.03875 2.26875,-1.55375 4.29,-3.0775 4.29,-3.0775 0,0 2.9425,-3.885 -2.49375,-1.89"
         style="fill:#e9e6b6;fill-opacity:1;fill-rule:nonzero;stroke:none"
         id="path10675"
         inkscape:connector-curvature="0" />
      <path
         d="m 69.722184,314.32317 c 0,0 2.0075,1.96 -2.05875,1.27875 -4.07,-0.67875 -1.69875,-1.50375 2.05875,-1.27875"
         style="fill:#d9be94;fill-opacity:1;fill-rule:nonzero;stroke:none"
         id="path10677"
         inkscape:connector-curvature="0" />
      <path
         d="m 75.302184,311.56817 c 0,0 -0.8075,1.35125 -4.355,0.84875 -3.54625,-0.50375 3.2425,-1.6925 4.355,-0.84875"
         style="fill:#d9be94;fill-opacity:1;fill-rule:nonzero;stroke:none"
         id="path10679"
         inkscape:connector-curvature="0" />
      <path
         d="m 59.282184,314.27692 c 0,0 -4.14,0.5725 -2.545,1.345 1.5975,0.7725 4.63125,-0.64 2.545,-1.345"
         style="fill:#d9be94;fill-opacity:1;fill-rule:nonzero;stroke:none"
         id="path10681"
         inkscape:connector-curvature="0" />
      <path
         d="m 62.964684,315.75567 c 0,0 -0.25125,1.7725 0.96875,1.60375 1.2175,-0.1675 1.3675,-2.67375 -0.96875,-1.60375"
         style="fill:#d9be94;fill-opacity:1;fill-rule:nonzero;stroke:none"
         id="path10683"
         inkscape:connector-curvature="0" />
    </g>
    <text
       xml:space="preserve"
       style="font-size:40px;font-style:normal;font-weight:normal;line-height:125%;letter-spacing:0px;word-spacing:0px;fill:#333333;fill-opacity:1;stroke:none;font-family:Sans"
       x="576.67944"
       y="324.78769"
       id="text11705-0-82-8"
       sodipodi:linespacing="125%"><tspan
         sodipodi:role="line"
         id="tspan11707-9-6-0"
         x="576.67944"
         y="324.78769"
         style="font-size:44px;font-style:normal;font-variant:normal;font-weight:normal;font-stretch:normal;fill:#333333;font-family:Topmarks;-inkscape-font-specification:Topmarks">Banana</tspan></text>
    <g
       id="g7600"
       transform="matrix(1.8443317,0,0,1.8443317,-142.6347,-158.73236)">
      <path
         d="m 153.42122,161.45625 c 0,0 -6.25,-7.08375 -14.16737,0 0,0 6.25087,7.0825 14.16737,0"
         style="fill:#2fa840;fill-opacity:1;fill-rule:nonzero;stroke:none"
         id="path7783"
         inkscape:connector-curvature="0" />
      <path
         d="m 174.82022,166.03875 c -3.916,-2.815 -10.416,-5 -16.25,-5 -3.71,0 -7.45612,0.3025 -8.3325,0.4175 -1.09625,0.1425 -2.45462,0.13 -3.48387,0.0887 l 0,-0.0887 c 0,0 -0.30525,0.025 -0.75838,0.0512 -0.45262,-0.0263 -0.75775,-0.0512 -0.75775,-0.0512 l 0,0.0887 c -1.02937,0.0413 -2.38775,0.0538 -3.48387,-0.0887 -0.8765,-0.115 -4.62313,-0.4175 -8.33263,-0.4175 -5.83387,0 -12.33387,2.185 -16.25,5 -10.15037,7.295 -19.956004,26.3825 -8.33387,48.33375 7.5,14.16625 18.75,17.5 29.1665,18.75 0,0 1.25,3.75 5,2.08375 0,0 1.00187,0.98625 2.99162,0.905 1.98975,0.0812 2.99225,-0.905 2.99225,-0.905 3.75,1.66625 5,-2.08375 5,-2.08375 10.4165,-1.25 21.6665,-4.58375 29.1665,-18.75 11.622,-21.95125 1.81638,-41.03875 -8.334,-48.33375"
         style="fill:#f68d11;fill-opacity:1;fill-rule:nonzero;stroke:none"
         id="path7785"
         inkscape:connector-curvature="0" />
      <path
         d="m 176.41047,182.9875 c -1.17762,-7.0675 -5.30125,-12.075 -12.07612,-15.0225 0,0 -5.89113,-1.7675 -11.48775,-0.29375 0,0 -5.00638,0.59 -9.42538,-0.29375 0,0 1.17925,6.185 5.30175,6.47875 4.12363,0.29625 12.1885,1.1925 12.66613,8.8375 0.29387,4.7125 -0.001,9.13125 7.36325,10.015 0,0 9.61037,1.995 7.65812,-9.72125"
         style="fill:#fabc6f;fill-opacity:1;fill-rule:nonzero;stroke:none"
         id="path7787"
         inkscape:connector-curvature="0" />
      <path
         d="m 120.08735,166.8725 c 0,0 -19.28813,11.38625 -12.5,37.08375 5.83387,22.0825 24.1665,26.66625 32.08387,26.25 0,0 -0.8325,2.5 6.25,2.5 0,0 6.25,0.41625 6.66613,-2.5 0,0 22.5,1.25 30.83387,-22.5 0,0 -25.00087,15 -47.91737,1.66625 0,0 -23.33263,-14.58375 -15.4165,-42.5"
         style="fill:#f36617;fill-opacity:1;fill-rule:nonzero;stroke:none"
         id="path7789"
         inkscape:connector-curvature="0" />
    </g>
    <g
       id="g7606"
       transform="matrix(1.8998479,0,0,1.8998479,-279.73058,-320.0336)">
      <path
         d="m 185.89197,267.68125 c 0.44925,0.41625 0.31588,0.15875 -0.32562,0.17625 -0.6485,0.02 -1.2915,0.075 -1.9375,0.125 -1.18663,0.0887 -2.35938,0.115 -3.5205,-0.2 -0.43713,-0.1175 -0.79113,-0.3075 -1.08163,-0.54375 -4.855,2.035 -9.76562,1.8575 -15.0415,1.8275 -7.08987,-0.0388 -14.16262,-0.3825 -21.24512,-0.65625 -3.688,-0.1425 -7.583,0.12875 -11.24025,-0.325 -0.82613,-0.1025 -1.59425,-0.25125 -2.334,-0.43 -0.20263,0.0437 -0.41838,0.0712 -0.64938,0.0737 -8.44875,0.085 -16.85637,1.02 -25.30512,0.65625 -0.0474,6.25875 1.45012,13.1325 5.25387,20.3175 7.5,14.1675 18.75,17.5 29.166,18.75 0,0 1.25,3.75 5,2.0825 0,0 1.0025,0.98625 2.99225,0.90625 1.98975,0.08 2.99163,-0.90625 2.99163,-0.90625 3.75,1.6675 5,-2.0825 5,-2.0825 10.4165,-1.25 21.6665,-4.5825 29.1665,-18.75 3.7915,-7.16 5.2915,-14.0125 5.25487,-20.25375 -0.71387,0.0713 -1.47062,-0.14125 -2.1445,-0.7675"
         style="fill:#f68d11;fill-opacity:1;fill-rule:nonzero;stroke:none"
         id="path9591"
         inkscape:connector-curvature="0" />
      <path
         d="m 135.13122,283.7025 c 0,0 -8.53762,-5.35 -13.53125,-15.75375 -5.271,0.24625 -10.53462,0.5925 -15.8105,0.52 0.0635,3.0075 0.48975,6.27125 1.42575,9.81625 5.834,22.08375 24.166,26.6675 32.084,26.25 0,0 -0.8325,2.5 6.25,2.5 0,0 6.25,0.4175 6.666,-2.5 0,0 22.5,1.25 30.834,-22.5 0,0 -25.0015,15 -47.918,1.6675"
         style="fill:#f36617;fill-opacity:1;fill-rule:nonzero;stroke:none"
         id="path9593"
         inkscape:connector-curvature="0" />
      <path
         d="m 188.23822,267.59375 c 0.84863,10.045 -18.43362,18.5475 -43.09575,18.5475 -24.66312,0 -43.14062,-8.5025 -41.9385,-18.5475 1.1475,-9.5825 19.91213,-17.035 42.56988,-17.035 22.65812,0 41.65862,7.4525 42.46437,17.035"
         style="fill:#f68d11;fill-opacity:1;fill-rule:nonzero;stroke:none"
         id="path9595"
         inkscape:connector-curvature="0" />
      <path
         d="m 185.46235,267.17375 c 0.78212,8.79 -17.06063,16.2275 -39.89263,16.2275 -22.82712,0 -40.39062,-7.4375 -39.27975,-16.2275 1.06438,-8.38375 18.894,-14.90625 39.86475,-14.90625 20.97263,0 38.558,6.5225 39.30763,14.90625"
         style="fill:#fef8d8;fill-opacity:1;fill-rule:nonzero;stroke:none"
         id="path9597"
         inkscape:connector-curvature="0" />
      <path
         d="m 141.6156,253.11375 c -6.6635,0.3125 -12.81588,1.3125 -17.978,2.815 -0.86725,0.255 -0.38575,1.64875 -0.38575,1.64875 l 21.45212,8.46375 0.25538,-11.70125 c 0,0 -2.23138,-1.28 -3.34375,-1.22625"
         style="fill:#f8a10e;fill-opacity:1;fill-rule:nonzero;stroke:none"
         id="path9599"
         inkscape:connector-curvature="0" />
      <path
         d="m 142.9681,267.64625 -30.8325,0 c 0,0 -3.82025,0.93 -3.73538,1.38625 0.54113,2.755 3.02063,5.3125 6.97175,7.44875 0.66988,0.36875 4.96825,-0.0325 4.96825,-0.0325 l 22.62788,-8.8025"
         style="fill:#f8a10e;fill-opacity:1;fill-rule:nonzero;stroke:none"
         id="path9601"
         inkscape:connector-curvature="0" />
      <path
         d="m 147.27385,254.39375 -0.18075,11.6475 21.95712,-8.54125 c 0,0 0.35488,-1.315 -0.4995,-1.56625 -5.109,-1.5075 -11.233,-2.50875 -17.89312,-2.82 -1.10838,-0.0538 -3.38375,1.28 -3.38375,1.28"
         style="fill:#f8a10e;fill-opacity:1;fill-rule:nonzero;stroke:none"
         id="path9603"
         inkscape:connector-curvature="0" />
      <path
         d="m 142.99397,266.70375 -21.44775,-8.49625 c 0,0 -3.63525,-0.235 -4.33437,0.0925 -4.30675,2.00125 -7.315,4.46875 -8.43563,7.20625 -0.16212,0.3925 2.71875,1.1975 2.71875,1.1975 l 31.499,0"
         style="fill:#f8a10e;fill-opacity:1;fill-rule:nonzero;stroke:none"
         id="path9605"
         inkscape:connector-curvature="0" />
      <path
         d="m 144.65172,268.3175 -23.02975,8.98875 c 0,0 -0.77887,1.5575 0.0976,1.845 5.2515,1.72 11.73338,2.87875 18.89163,3.25 1.22562,0.0637 3.75975,-1.36 3.75975,-1.36 l 0.28075,-12.72375"
         style="fill:#f8a10e;fill-opacity:1;fill-rule:nonzero;stroke:none"
         id="path9607"
         inkscape:connector-curvature="0" />
      <path
         d="m 148.76647,267.64625 23.21688,9.16375 c 0,0 3.18212,0.125 3.79725,-0.195 4.23975,-2.2 6.92675,-4.855 7.52987,-7.72125 0.0897,-0.41125 -3.61575,-1.2475 -3.61575,-1.2475 l -30.92825,0"
         style="fill:#f8a10e;fill-opacity:1;fill-rule:nonzero;stroke:none"
         id="path9609"
         inkscape:connector-curvature="0" />
      <path
         d="m 148.7801,266.70375 31.60012,0 c 0,0 2.77988,-0.9075 2.60163,-1.35 -1.10263,-2.76375 -4.14063,-5.24125 -8.50925,-7.24 -0.5655,-0.25875 -3.88,0.0762 -3.88,0.0762 l -21.8125,8.51375"
         style="fill:#f8a10e;fill-opacity:1;fill-rule:nonzero;stroke:none"
         id="path9611"
         inkscape:connector-curvature="0" />
      <path
         d="m 147.05647,268.3175 -0.19775,12.84875 c 0,0 2.43075,1.30125 3.628,1.24 7.14838,-0.36375 13.65325,-1.5125 18.96725,-3.215 0.93025,-0.2975 0.1895,-1.92625 0.1895,-1.92625 l -22.587,-8.9475"
         style="fill:#f8a10e;fill-opacity:1;fill-rule:nonzero;stroke:none"
         id="path9613"
         inkscape:connector-curvature="0" />
    </g>
    <text
       xml:space="preserve"
       style="font-size:40px;font-style:normal;font-weight:normal;line-height:125%;letter-spacing:0px;word-spacing:0px;fill:#333333;fill-opacity:1;stroke:none;font-family:Sans"
       x="-22.096109"
       y="324.78769"
       id="text11705-0-82-1"
       sodipodi:linespacing="125%"><tspan
         sodipodi:role="line"
         id="tspan11707-9-6-5"
         x="-22.096109"
         y="324.78769"
         style="font-size:44px;font-style:normal;font-variant:normal;font-weight:normal;font-stretch:normal;fill:#333333;font-family:Topmarks;-inkscape-font-specification:Topmarks">Orange</tspan></text>
    <g
       id="g7704"
       transform="translate(953.13256,153.01205)">
      <path
         d="m -5.3888927,-31.195543 -10e-4,-0.0663 c 0,0 -0.28075,0.004 -0.791,0.0275 -0.51025,-0.0237 -0.794,-0.0275 -0.794,-0.0275 l 0,0.0663 c -11.2656253,0.6425 -79.1888753,5.85875 -79.1888753,81.24625 0,76.287503 66.50575,79.307503 79.9828753,78.775003 13.474,0.5325 79.9814947,-2.4875 79.9814947,-78.775003 0,-75.3875 -67.9237447,-80.60375 -79.1894947,-81.24625"
         style="fill:#62c557;fill-opacity:1;fill-rule:nonzero;stroke:none"
         id="path9445"
         inkscape:connector-curvature="0" />
      <path
         d="m -5.3888927,-31.195543 -10e-4,-0.0663 c 0,0 -0.28075,0.004 -0.791,0.0275 -0.51025,-0.0237 -0.794,-0.0275 -0.794,-0.0275 -0.30275,-3.7375 3.202625,-5.45625 4.008375,-8.6675 1.057125,-4.20875 -3.34375,-4.155 -6.083,-5.0975 -2.1992503,-0.75375 -2.4375003,-2.17125 -1.8326253,-3.25625 0.604,-1.08625 1.5381253,-2.03 1.5381253,-2.03 -2.8588753,1.1325 -5.4238753,5.16125 0.879375,6.7975 2.529375,0.655 3.5645,1.07125 3.5835,1.8875 0.02988,1.32 -0.650875,2.64375 -4.242625,3.77625 -2.2402503,0.705 -2.9628753,5.5675 -2.4623753,7.01875 -6.405375,0.64375 -17.03125,2.3 -28.299875,6.875 34.3368753,5.50875 58.76663,1.7 67.24288,-0.0662 -14.666255,-5.92 -28.23900473,-6.915 -32.7457547,-7.17125"
         style="fill:#309f3f;fill-opacity:1;fill-rule:nonzero;stroke:none"
         id="path9447"
         inkscape:connector-curvature="0" />
      <path
         d="m 3.5549823,-21.666793 c 0,0 33.1343697,6.73875 45.3931197,37.3525 0,0 7.9075,20.37625 -6.505,25.81125 0,0 -21.40499,4.27375 -25.76249,-17.85125 C 12.618107,3.0207067 12.618107,-2.6042933 3.5549823,-21.666793"
         style="fill:#90d575;fill-opacity:1;fill-rule:nonzero;stroke:none"
         id="path9449"
         inkscape:connector-curvature="0" />
      <path
         d="m 71.425612,55.848207 c 0,0 -28.7025,43.5275 -83.703255,21.86 0,0 -63.3335,-31.66625 -21.6205,-99.46625 0,0 -56.225625,13.4612497 -48.30625,90.2775 0,0 9.5025,57.016253 73.6465003,57.808753 0,0 74.4397547,3.1675 79.9835047,-70.480003"
         style="fill:#389f3d;fill-opacity:1;fill-rule:nonzero;stroke:none"
         id="path9451"
         inkscape:connector-curvature="0" />
      <path
         d="m 11.851857,-25.899293 c 0,0 46.834995,15.18875 51.225005,68.80125 0,0 5.12125,60.761253 -41.71125,78.631253 0,0 37.405,-10.67125 34.39375,-76.845003 -2.19626,-48.2487503 -43.907505,-70.5875 -43.907505,-70.5875"
         style="fill:#213f1c;fill-opacity:1;fill-rule:nonzero;stroke:none"
         id="path9453"
         inkscape:connector-curvature="0" />
      <path
         d="m -13.835268,-26.794293 c 0,0 -10.42225,14.815 -10.42225,80.7525 0,0 -4.375,38.125 9.375,72.187503 0,0 -25.625,-15.93625 -25.625,-72.187503 0,-55.3987503 26.67225,-80.7525 26.67225,-80.7525"
         style="fill:#213f1c;fill-opacity:1;fill-rule:nonzero;stroke:none"
         id="path9455"
         inkscape:connector-curvature="0" />
      <path
         d="m 1.2581073,-26.794293 c 0,0 10.4199997,14.815 10.4199997,80.7525 0,0 1.8775,36.25125 -9.3751247,72.187503 0,0 25.9376297,-13.75 25.6251297,-72.187503 -0.29625,-55.3975003 -26.6700047,-80.7525 -26.6700047,-80.7525"
         style="fill:#213f1c;fill-opacity:1;fill-rule:nonzero;stroke:none"
         id="path9457"
         inkscape:connector-curvature="0" />
      <path
         d="m -24.922643,-25.899293 c 0,0 -46.8335,15.18875 -51.224625,68.80125 0,0 -5.1215,60.761253 41.712,78.631253 0,0 -37.405375,-10.67125 -34.393625,-76.845003 2.196375,-48.2487503 43.90625,-70.5875 43.90625,-70.5875"
         style="fill:#213f1c;fill-opacity:1;fill-rule:nonzero;stroke:none"
         id="path9459"
         inkscape:connector-curvature="0" />
      <path
         d="m 10.638107,83.411957 c 5.287505,0.515 10.241255,0.4175 14.852505,-0.1475 1.55374,-8.22375 2.49874,-17.90375 2.4375,-29.30625 -0.29625,-55.3975003 -26.6700047,-80.7525 -26.6700047,-80.7525 0,0 10.4199997,14.815 10.4199997,80.7525 0,0 0.625,12.20125 -1.04,29.45375"
         style="fill:#247636;fill-opacity:1;fill-rule:nonzero;stroke:none"
         id="path9461"
         inkscape:connector-curvature="0" />
      <path
         d="m 27.208102,39.258207 c -2.97875,-31.5937503 -14.464995,-51.27875 -21.1149947,-60.27375 -1.5825,-0.4525 -2.51625,-0.64625 -2.53275,-0.65 l 0.01313,0.0362 c 9.0446247,19.0324997 9.0471247,24.6649997 13.1071197,45.275 1.69125,8.585 5.94875,13.185 10.5275,15.6125"
         style="fill:#309f3f;fill-opacity:1;fill-rule:nonzero;stroke:none"
         id="path9463"
         inkscape:connector-curvature="0" />
      <path
         d="m 55.759352,44.688207 c 0.47876,10.53625 -0.0787,19.6425 -1.335,27.54375 2.75375,-1.88 5.17875,-3.8175 7.2675,-5.67875 2.24375,-13.35375 1.385,-23.65125 1.385,-23.65125 -4.39,-53.6125 -51.224995,-68.80125 -51.224995,-68.80125 0,0 41.711245,22.3387497 43.907495,70.5875"
         style="fill:#247636;fill-opacity:1;fill-rule:nonzero;stroke:none"
         id="path9465"
         inkscape:connector-curvature="0" />
      <path
         d="m -24.913768,68.964457 c -0.01038,-9.155 0.65625,-15.00625 0.65625,-15.00625 0,-65.9375 10.42225,-80.7525 10.42225,-80.7525 0,0 -25.5585,24.3324997 -26.6205,77.36125 4.521375,7.865 10.354,13.98 15.542,18.3975"
         style="fill:#247636;fill-opacity:1;fill-rule:nonzero;stroke:none"
         id="path9467"
         inkscape:connector-curvature="0" />
      <path
         d="m -33.898143,-21.758043 c -0.752,1.22 -1.459,2.42625 -2.144125,3.625 6.369625,-5.21625 11.119625,-7.76625 11.119625,-7.76625 0,0 -3.80275,1.23625 -9.332,4.235 0.232875,-0.065 0.3565,-0.0937 0.3565,-0.0937"
         style="fill:#247636;fill-opacity:1;fill-rule:nonzero;stroke:none"
         id="path9469"
         inkscape:connector-curvature="0" />
      <path
         d="m -30.123768,-22.603043 c 3.171375,-2.20125 5.201125,-3.29625 5.201125,-3.29625 0,0 -2.80175,0.91375 -7.085875,3.065 0.629875,0.0787 1.261625,0.15875 1.88475,0.23125"
         style="fill:#3b9138;fill-opacity:1;fill-rule:nonzero;stroke:none"
         id="path9471"
         inkscape:connector-curvature="0" />
      <path
         d="m -13.835268,-26.794293 c 0,0 -1.813375,1.73125 -4.490625,5.265 0.704,0.0437 1.40525,0.0875 2.095625,0.125 1.38725,-3.955 2.395,-5.39 2.395,-5.39"
         style="fill:#3b9138;fill-opacity:1;fill-rule:nonzero;stroke:none"
         id="path9473"
         inkscape:connector-curvature="0" />
      <path
         d="m 1.2581073,-26.794293 c 0,0 1.02725,1.475 2.43625,5.52 0.7225,-0.0325 1.43125,-0.0675 2.12625,-0.105 -2.714375,-3.6275 -4.5625,-5.415 -4.5625,-5.415"
         style="fill:#3b9138;fill-opacity:1;fill-rule:nonzero;stroke:none"
         id="path9475"
         inkscape:connector-curvature="0" />
    </g>
    <g
       id="g7764"
       transform="matrix(-1.2987685,0,0,1.2987685,1226.9489,168.42595)">
      <path
         d="m 55.069746,22.044165 13.9375,0 c 0.025,0.165 0.06375,0.32875 0.135,0.48875 0.55125,1.2425 1.2375,2.43 2.03875,3.53 0.585,0.80375 1.68875,1.00375 2.515,0.47625 -0.61125,0.76625 -0.5275,1.89 0.21125,2.55375 1.01,0.9075 2.11625,1.715 3.28875,2.395 0.86,0.49625 1.95125,0.2375 2.495,-0.5775 -0.245,0.94625 0.2875,1.93375 1.23,2.2425 1.2875,0.4175 2.63,0.7025 3.98625,0.84625 0.9975,0.1025 1.87375,-0.57875 2.03875,-1.5425 0.15125,0.9 0.93375,1.55625 1.84,1.55625 l 0.19375,-0.007 c 1.35625,-0.1425 2.7,-0.425 3.98875,-0.8425 0.94625,-0.305 1.47875,-1.28875 1.235,-2.2375 0.54,0.815 1.62875,1.08 2.4925,0.5825 1.17625,-0.6775 2.28625,-1.48375 3.29625,-2.3925 0.738754,-0.6625 0.825004,-1.78 0.218754,-2.5475 0.82375,0.5275 1.9275,0.32875 2.51375,-0.47375 0.80375,-1.1 1.49125,-2.28625 2.0475,-3.525 0.0763,-0.17125 0.11625,-0.3475 0.13875,-0.525 l 103.39125,0 c -0.76625,12.3525 -6.7775,75.245 -77.765,75.245 -70.786254,0 -75.695004,-59.795 -75.467504,-75.245"
         style="fill:#62c557;fill-opacity:1;fill-rule:nonzero;stroke:none"
         id="path9107"
         inkscape:connector-curvature="0" />
      <path
         d="m 56.490996,22.044165 12.51625,0 c 0.025,0.165 0.06375,0.32875 0.135,0.48875 0.55125,1.2425 1.2375,2.43 2.03875,3.53 0.585,0.80375 1.68875,1.00375 2.515,0.47625 -0.61125,0.76625 -0.5275,1.89 0.21125,2.55375 1.01,0.9075 2.11625,1.715 3.28875,2.395 0.86,0.49625 1.95125,0.2375 2.495,-0.5775 -0.245,0.94625 0.2875,1.93375 1.23,2.2425 1.2875,0.4175 2.63,0.7025 3.98625,0.84625 0.9975,0.1025 1.87375,-0.57875 2.03875,-1.5425 0.15125,0.9 0.93375,1.55625 1.84,1.55625 l 0.19375,-0.007 c 1.35625,-0.1425 2.7,-0.425 3.98875,-0.8425 0.94625,-0.305 1.47875,-1.28875 1.235,-2.2375 0.54,0.815 1.62875,1.08 2.4925,0.5825 1.17625,-0.6775 2.28625,-1.48375 3.29625,-2.3925 0.738754,-0.6625 0.825004,-1.78 0.218754,-2.5475 0.82375,0.5275 1.9275,0.32875 2.51375,-0.47375 0.80375,-1.1 1.49125,-2.28625 2.0475,-3.525 0.0763,-0.17125 0.11625,-0.3475 0.13875,-0.525 l 101.97,0 c -0.75625,12.18 -6.69375,73.825 -76.32125,73.825 -69.436254,0 -74.286254,-58.62375 -74.068754,-73.825"
         style="fill:#e9f5bd;fill-opacity:1;fill-rule:nonzero;stroke:none"
         id="path9109"
         inkscape:connector-curvature="0" />
      <path
         d="m 63.972246,22.044165 5.035,0 c 0.025,0.165 0.06375,0.32875 0.135,0.48875 0.55125,1.2425 1.2375,2.43 2.03875,3.53 0.585,0.80375 1.68875,1.00375 2.515,0.47625 -0.61125,0.76625 0.28375,2.34125 1.0225,3.005 1.00875,0.90875 1.0925,0.72625 2.265,1.40625 0.86,0.4975 2.16375,0.775 2.7075,-0.04 -0.245,0.94625 0.2875,1.93375 1.23,2.2425 1.2875,0.4175 2.63,0.7025 3.98625,0.84625 0.9975,0.1025 1.87375,-0.57875 2.03875,-1.5425 0.15125,0.9 0.93375,1.55625 1.84,1.55625 l 0.19375,-0.007 c 1.35625,-0.1425 2.7,-0.425 3.98875,-0.8425 0.94625,-0.305 1.47875,-1.28875 1.235,-2.2375 0.54,0.815 1.62875,1.08 2.4925,0.5825 1.17625,-0.6775 2.28625,-1.48375 3.29625,-2.3925 0.738754,-0.6625 0.825004,-1.78 0.218754,-2.5475 0.82375,0.5275 1.9275,0.32875 2.51375,-0.47375 0.80375,-1.1 1.49125,-2.28625 2.0475,-3.525 0.0763,-0.17125 0.11625,-0.3475 0.13875,-0.525 l 94.4875,0 c -0.7175,11.2675 -6.2625,66.34875 -68.7225,66.34875 -62.335004,0 -66.868754,-52.45875 -66.703754,-66.34875"
         style="fill:#ef3041;fill-opacity:1;fill-rule:nonzero;stroke:none"
         id="path9111"
         inkscape:connector-curvature="0" />
      <path
         d="m 88.785996,34.012915 0.19375,-0.007 c 1.35625,-0.1425 2.7,-0.425 3.98875,-0.8425 0.94625,-0.305 1.47875,-1.28875 1.235,-2.2375 0.54,0.815 1.62875,1.08 2.4925,0.5825 1.17625,-0.6775 2.28625,-1.48375 3.29625,-2.3925 0.738754,-0.6625 0.825004,-1.78 0.218754,-2.5475 0.82375,0.5275 1.9275,0.32875 2.51375,-0.47375 0.80375,-1.1 1.49125,-2.28625 2.0475,-3.525 0.07,-0.1575 0.10875,-0.32 0.13375,-0.48375 l 74.23625,0 c -0.82625,9.865 -6.14875,44.5175 -47.27875,44.5175 -31.43375,0 -41.535004,-19.33875 -44.651254,-33.47375 0.3325,0.5325 0.9175,0.88375 1.57375,0.88375"
         style="fill:#f36379;fill-opacity:1;fill-rule:nonzero;stroke:none"
         id="path9113"
         inkscape:connector-curvature="0" />
      <path
         d="m 124.1185,45.425415 c 0,0 0.3025,-1.54625 2.38625,-1.05 1.935,0.46 1.9,0.95375 2.4325,1.5125 0.5325,0.5625 0.95375,0.5675 0.95375,0.5675 0,0 0.155,0.65625 -0.15125,0.785 -0.31,0.1275 -0.8275,0.015 -1.11125,0.22 -1.57625,1.1325 -3.415,0.48875 -3.6325,0.36625 -0.86625,-0.4725 -1.2375,-1.53125 -0.8775,-2.40125"
         style="fill:#462c20;fill-opacity:1;fill-rule:nonzero;stroke:none"
         id="path9115"
         inkscape:connector-curvature="0" />
      <path
         d="m 138.07975,42.394165 c 0,0 -0.15375,1.78375 2.28125,1.89625 2.25875,0.10375 2.375,-0.4475 3.13125,-0.89375 0.76,-0.445 1.22375,-0.3175 1.22375,-0.3175 0,0 0.37125,-0.67125 0.075,-0.90625 -0.295,-0.2375 -0.89625,-0.2775 -1.145,-0.59125 -1.365,-1.73125 -3.57625,-1.6025 -3.85625,-1.54 -1.0925,0.2475 -1.83125,1.29125 -1.71,2.3525"
         style="fill:#462c20;fill-opacity:1;fill-rule:nonzero;stroke:none"
         id="path9117"
         inkscape:connector-curvature="0" />
      <path
         d="m 119.99475,32.226665 c 0,0 -0.1475,1.69125 2.1575,1.8025 2.14125,0.10375 2.2525,-0.42125 2.97125,-0.84125 0.7175,-0.42125 1.1575,-0.29875 1.1575,-0.29875 0,0 0.35625,-0.635 0.075,-0.85875 -0.28,-0.22375 -0.85125,-0.26375 -1.08375,-0.56125 -1.29,-1.6425 -3.3875,-1.52375 -3.6525,-1.46625 -1.03625,0.23125 -1.7375,1.21875 -1.625,2.22375"
         style="fill:#462c20;fill-opacity:1;fill-rule:nonzero;stroke:none"
         id="path9119"
         inkscape:connector-curvature="0" />
      <path
         d="m 108.54975,42.209165 c 0,0 -0.53375,1.59125 1.65625,2.23 2.03125,0.5925 2.25875,0.11625 3.0475,-0.1225 0.7875,-0.2375 1.17875,-0.02 1.17875,-0.02 0,0 0.49,-0.5275 0.2725,-0.8075 -0.2175,-0.28 -0.7575,-0.44875 -0.9125,-0.78625 -0.85875,-1.87875 -2.9,-2.24875 -3.16875,-2.2525 -1.04875,-0.0175 -1.9475,0.7675 -2.07375,1.75875"
         style="fill:#462c20;fill-opacity:1;fill-rule:nonzero;stroke:none"
         id="path9121"
         inkscape:connector-curvature="0" />
      <path
         d="m 154.85725,30.574165 c 0,0 0.15125,1.6925 2.44125,1.39625 2.12375,-0.2775 2.1425,-0.81125 2.77625,-1.3525 0.6325,-0.54 1.08625,-0.49875 1.08625,-0.49875 0,0 0.23625,-0.6875 -0.0775,-0.85625 -0.31625,-0.17375 -0.88375,-0.11 -1.165,-0.3625 -1.55875,-1.39125 -3.60375,-0.905 -3.8525,-0.8 -0.97875,0.41125 -1.49625,1.50625 -1.20875,2.47375"
         style="fill:#462c20;fill-opacity:1;fill-rule:nonzero;stroke:none"
         id="path9123"
         inkscape:connector-curvature="0" />
    </g>
    <text
       xml:space="preserve"
       style="font-size:40px;font-style:normal;font-weight:normal;line-height:125%;letter-spacing:0px;word-spacing:0px;fill:#333333;fill-opacity:1;stroke:none;font-family:Sans"
       x="872.24792"
       y="324.78769"
       id="text11705-0-82-8-7"
       sodipodi:linespacing="125%"><tspan
         sodipodi:role="line"
         id="tspan11707-9-6-0-8"
         x="872.24792"
         y="324.78769"
         style="font-size:44px;font-style:normal;font-variant:normal;font-weight:normal;font-stretch:normal;fill:#333333;font-family:Topmarks;-inkscape-font-specification:Topmarks">Water Melon</tspan></text>
  </g>
</svg>
