<?xml version="1.0" encoding="UTF-8" standalone="no"?>
<!-- Created with Inkscape (http://www.inkscape.org/) -->

<svg
   xmlns:dc="http://purl.org/dc/elements/1.1/"
   xmlns:cc="http://creativecommons.org/ns#"
   xmlns:rdf="http://www.w3.org/1999/02/22-rdf-syntax-ns#"
   xmlns:svg="http://www.w3.org/2000/svg"
   xmlns="http://www.w3.org/2000/svg"
   xmlns:sodipodi="http://sodipodi.sourceforge.net/DTD/sodipodi-0.dtd"
   xmlns:inkscape="http://www.inkscape.org/namespaces/inkscape"
   width="1434.25"
   height="1381.6903"
   id="svg2"
   version="1.1"
   inkscape:version="0.48.4 r"
   sodipodi:docname="head_back.svg"
   inkscape:export-filename="/Users/vern/Github/topmarks/images/head_back.png"
   inkscape:export-xdpi="90"
   inkscape:export-ydpi="90">
  <defs
     id="defs4">
    <linearGradient
       id="linearGradient3755">
      <stop
         style="stop-color:#0049c2;stop-opacity:1;"
         offset="0"
         id="stop3757" />
      <stop
         id="stop3765"
         offset="1"
         style="stop-color:#0c627b;stop-opacity:0.8888889;" />
    </linearGradient>
  </defs>
  <sodipodi:namedview
     id="base"
     pagecolor="#ffffff"
     bordercolor="#666666"
     borderopacity="1.0"
     inkscape:pageopacity="0.0"
     inkscape:pageshadow="2"
     inkscape:zoom="0.5"
     inkscape:cx="615.75"
     inkscape:cy="686.2506"
     inkscape:document-units="px"
     inkscape:current-layer="layer1"
     showgrid="false"
     fit-margin-top="0"
     fit-margin-left="0"
     fit-margin-right="0"
     fit-margin-bottom="0"
     inkscape:window-width="1453"
     inkscape:window-height="872"
     inkscape:window-x="36"
     inkscape:window-y="78"
     inkscape:window-maximized="0" />
  <metadata
     id="metadata7">
    <rdf:RDF>
      <cc:Work
         rdf:about="">
        <dc:format>image/svg+xml</dc:format>
        <dc:type
           rdf:resource="http://purl.org/dc/dcmitype/StillImage" />
        <dc:title></dc:title>
      </cc:Work>
    </rdf:RDF>
  </metadata>
  <g
     inkscape:label="Layer 1"
     inkscape:groupmode="layer"
     id="layer1"
     transform="translate(323.25,512.63782)">
    <rect
       style="opacity:0.78951242;fill:#1e839e;fill-opacity:1;fill-rule:nonzero;stroke:none"
       id="rect2985"
       width="986.25"
       height="1213.6903"
       x="-87.25"
       y="-404.63782" />
    <rect
       style="fill:none;stroke:#ffffff;stroke-width:2.05901527;stroke-miterlimit:4;stroke-opacity:1;stroke-dasharray:none"
       id="rect4575"
       width="920"
       height="920"
       x="-54.235245"
       y="-377.94751" />
    <rect
       style="fill:#fdfefe;fill-opacity:0.99607843;stroke:#ffffff;stroke-width:2;stroke-miterlimit:4;stroke-opacity:1;stroke-dasharray:none;opacity:1"
       id="rect4577"
       width="920"
       height="180"
       x="-54.235245"
       y="541.05249" />
    <text
       xml:space="preserve"
       style="font-size:168.32402038999998695px;font-style:normal;font-weight:normal;line-height:125%;letter-spacing:0px;word-spacing:0px;fill:#1e839f;fill-opacity:0.78823531;stroke:none;font-family:Sans"
       x="-10.023328"
       y="682.31976"
       id="text3793"
       sodipodi:linespacing="125%"><tspan
         sodipodi:role="line"
         x="-10.023328"
         y="682.31976"
         style="font-style:normal;font-variant:normal;font-weight:normal;font-stretch:normal;fill:#1e839f;fill-opacity:0.78823531;font-family:Muli;-inkscape-font-specification:Muli"
         id="tspan4573">rank + file</tspan></text>
    <path
       inkscape:connector-curvature="0"
       id="path3990"
       style="font-size:734.27307129px;font-style:normal;font-variant:normal;font-weight:normal;font-stretch:normal;line-height:125%;letter-spacing:0px;word-spacing:0px;fill:#3a678a;fill-opacity:0.98823529;stroke:none;font-family:Muli;-inkscape-font-specification:Muli"
       d="M 1.328586,469.99121 307.27276,31.251887 l -141.77508,0 40.90525,-58.660156 141.77509,0 29.07317,-41.692357 c 11.94416,-17.128874 22.71234,-31.834314 32.30443,-44.116334 10.32999,-12.60408 21.68795,-25.20873 34.07385,-37.814 12.38462,-12.60403 24.84607,-23.10789 37.38427,-31.51167 12.76218,-8.72564 27.09756,-17.12874 43.00613,-25.20932 16.13254,-8.40242 33.33777,-15.02795 51.61577,-19.87659 19.01556,-5.17044 40.14948,-9.69518 63.40185,-13.57426 23.25075,-3.87763 48.53875,-6.62481 75.86406,-8.24151 28.06256,-1.93846 59.04563,-2.90805 92.94936,-2.90877 l 36.98478,0 -50.6541,69.32565 c -20.5481,6.4e-4 -39.009,0.32385 -55.38285,0.96959 -16.37564,0.64708 -31.69156,1.61666 -45.94777,2.90879 -13.51895,0.97023 -25.80258,2.7478 -36.85089,5.33272 -10.82465,2.26304 -20.7338,4.687 -29.72743,7.27194 -8.99528,2.58622 -17.49438,6.30296 -25.49728,11.15027 -7.77909,4.52538 -14.78689,9.05014 -21.02342,13.57425 -6.23807,4.52537 -12.6063,10.3429 -19.10484,17.45263 -6.49998,7.11092 -12.37284,14.05962 -17.61859,20.84618 -5.24727,6.7877 -11.4765,15.3524 -18.6877,25.69413 l -35.15826,50.418661 188.77664,0 -40.90526,58.660156 -188.7766,0 -305.9442,438.739323 -141.004554,0" />
    <path
       inkscape:connector-curvature="0"
       id="path3988"
       style="font-size:734.27307129px;font-style:normal;font-variant:normal;font-weight:normal;font-stretch:normal;line-height:125%;letter-spacing:0px;word-spacing:0px;fill:#ffffff;fill-opacity:0.98823529;stroke:none;font-family:Muli;-inkscape-font-specification:Muli"
       d="m 3.460337,469.99121 0,-570.52707 -7.352157,-183.80382 141.89656,0 0,117.63444 c 11.27302,-21.56565 24.01673,-40.68123 38.23118,-57.34679 14.21385,-16.66417 29.65335,-30.87831 46.31856,-42.64249 16.66451,-11.7627 34.79981,-20.58527 54.40594,-26.46773 19.60531,-5.88097 39.70118,-8.82182 60.28765,-8.8226 26.95741,7.8e-4 53.18006,2.94163 78.66804,8.8226 l 0,120.57528 c -29.89927,-8.82192 -58.32757,-13.23322 -85.28497,-13.23386 -57.3472,6.4e-4 -103.66572,21.07681 -138.95569,63.22852 -35.29064,42.15288 -52.93577,99.744689 -52.93551,172.775591 l 0,419.807929 -135.279603,0" />
  </g>
</svg>
