<?xml version="1.0" encoding="UTF-8" standalone="no"?>
<!-- Created with Inkscape (http://www.inkscape.org/) -->

<svg
   xmlns:dc="http://purl.org/dc/elements/1.1/"
   xmlns:cc="http://creativecommons.org/ns#"
   xmlns:rdf="http://www.w3.org/1999/02/22-rdf-syntax-ns#"
   xmlns:svg="http://www.w3.org/2000/svg"
   xmlns="http://www.w3.org/2000/svg"
   xmlns:sodipodi="http://sodipodi.sourceforge.net/DTD/sodipodi-0.dtd"
   xmlns:inkscape="http://www.inkscape.org/namespaces/inkscape"
   width="1434.25"
   height="1381.6903"
   id="svg2"
   version="1.1"
   inkscape:version="0.48.4 r"
   sodipodi:docname="head_back.svg"
   inkscape:export-filename="/Users/vern/Github/topmarks/images/head_back.png"
   inkscape:export-xdpi="90"
   inkscape:export-ydpi="90">
  <defs
     id="defs4">
    <linearGradient
       id="linearGradient3755">
      <stop
         style="stop-color:#0049c2;stop-opacity:1;"
         offset="0"
         id="stop3757" />
      <stop
         id="stop3765"
         offset="1"
         style="stop-color:#0c627b;stop-opacity:0.8888889;" />
    </linearGradient>
  </defs>
  <sodipodi:namedview
     id="base"
     pagecolor="#ffffff"
     bordercolor="#666666"
     borderopacity="1.0"
     inkscape:pageopacity="0.0"
     inkscape:pageshadow="2"
     inkscape:zoom="0.5"
     inkscape:cx="615.75"
     inkscape:cy="686.2506"
     inkscape:document-units="px"
     inkscape:current-layer="layer1"
     showgrid="false"
     fit-margin-top="0"
     fit-margin-left="0"
     fit-margin-right="0"
     fit-margin-bottom="0"
     inkscape:window-width="1453"
     inkscape:window-height="872"
     inkscape:window-x="36"
     inkscape:window-y="78"
     inkscape:window-maximized="0" />
  <metadata
     id="metadata7">
    <rdf:RDF>
      <cc:Work
         rdf:about="">
        <dc:format>image/svg+xml</dc:format>
        <dc:type
           rdf:resource="http://purl.org/dc/dcmitype/StillImage" />
        <dc:title></dc:title>
      </cc:Work>
    </rdf:RDF>
  </metadata>
  <g
     inkscape:label="Layer 1"
     inkscape:groupmode="layer"
     id="layer1"
     transform="translate(323.25,512.63782)">
    <rect
       style="opacity:0.78951242;fill:#1e839e;fill-opacity:1;fill-rule:nonzero;stroke:none"
       id="rect2985"
       width="1434.25"
       height="1381.6903"
       x="-323.25"
       y="-512.63782" />
    <path
       inkscape:connector-curvature="0"
       id="path3990"
       style="font-size:734.27307129px;font-style:normal;font-variant:normal;font-weight:normal;font-stretch:normal;line-height:125%;letter-spacing:0px;word-spacing:0px;fill:#3a678a;fill-opacity:0.98823529;stroke:none;font-family:Muli;-inkscape-font-specification:Muli"
       d="M 28.61451,362.39618 315.95703,4.837603 l -133.15504,0 38.41817,-47.80616 133.15506,0 27.30548,-33.977941 c 11.21796,-13.959489 21.33143,-25.943952 30.34032,-35.953402 9.7019,-10.27193 20.36929,-20.54432 32.00212,-30.81721 11.63163,-10.27189 23.33541,-18.8322 35.11127,-25.68101 11.98623,-7.11112 25.45001,-13.95937 40.39133,-20.54479 15.15166,-6.84771 31.3108,-12.24731 48.47748,-16.19879 17.85941,-4.21374 37.70836,-7.90126 59.54697,-11.06259 21.83709,-3.16015 45.58755,-5.39901 71.25146,-6.71657 26.35633,-1.57978 55.45561,-2.36997 87.29796,-2.37055 l 34.73608,0 -47.57429,56.4982 c -19.29876,5.2e-4 -36.63722,0.26392 -52.01552,0.79018 -15.38,0.52734 -29.7647,1.31752 -43.15411,2.37057 -12.697,0.7907 -24.23377,2.23937 -34.61033,4.346 -10.1665,1.8443 -19.47317,3.81975 -27.91998,5.9264 -8.44836,2.10768 -16.4307,5.1367 -23.94702,9.08711 -7.30612,3.68804 -13.88784,7.37557 -19.74519,11.06259 -5.85878,3.68802 -11.83982,8.42913 -17.94324,14.22333 -6.10478,5.79517 -11.62056,11.45815 -16.54737,16.98897 -4.92822,5.53176 -10.77871,12.511716 -17.55147,20.939898 l -33.0206,41.089605 177.29886,0 -38.41818,47.80616 -177.29883,0 -287.34255,357.558577 -132.43136,0" />
    <path
       inkscape:connector-curvature="0"
       id="path3988"
       style="font-size:734.27307129px;font-style:normal;font-variant:normal;font-weight:normal;font-stretch:normal;line-height:125%;letter-spacing:0px;word-spacing:0px;fill:#ffffff;fill-opacity:0.98823529;stroke:none;font-family:Muli;-inkscape-font-specification:Muli"
       d="m 30.45467,362.39618 0,-492.48732 -6.34649,-158.66214 122.48718,0 0,101.54377 c 9.73104,-18.61579 20.7316,-35.11663 33.00172,-49.50259 12.2696,-14.38475 25.59721,-26.65461 39.98286,-36.80962 14.38505,-10.15373 30.0397,-17.76951 46.964,-22.84734 16.92359,-5.07653 34.27064,-7.61512 52.04119,-7.61579 23.27002,6.7e-4 45.9058,2.53926 67.9074,7.61579 l 0,104.08236 c -25.80949,-7.61522 -50.34921,-11.42311 -73.61924,-11.42367 -49.50294,5.6e-4 -89.48576,18.19381 -119.94858,54.57978 -30.4634,36.38699 -45.69493,86.101077 -45.69471,149.142424 l 0,362.384346 -116.77533,0" />
    <rect
       style="fill:none;stroke:#ffffff;stroke-width:2.05901527;stroke-miterlimit:4;stroke-opacity:1;stroke-dasharray:none"
       id="rect4575"
       width="920"
       height="1115"
       x="-53.25"
       y="-377.94751" />
    <rect
       style="fill:#ffffff;fill-opacity:0.98823529;stroke:none"
       id="rect4577"
       width="924"
       height="238"
       x="-53.25"
       y="499.05249" />
    <text
       xml:space="preserve"
       style="font-size:198.10327148px;font-style:normal;font-weight:normal;line-height:125%;letter-spacing:0px;word-spacing:0px;fill:#3a678b;fill-opacity:0.99607843;stroke:none;font-family:Sans"
       x="-10.495238"
       y="675.98535"
       id="text3793"
       sodipodi:linespacing="125%"><tspan
         sodipodi:role="line"
         x="-10.495238"
         y="675.98535"
         style="font-style:normal;font-variant:normal;font-weight:normal;font-stretch:normal;fill:#3a678b;fill-opacity:0.99607843;font-family:Muli;-inkscape-font-specification:Muli"
         id="tspan4573">rank+file</tspan></text>
  </g>
</svg>
